<?xml version="1.0" encoding="UTF-8"?><svg id="_レイヤー_2" xmlns="http://www.w3.org/2000/svg" viewBox="0 0 19.72 23.24"><defs><style>.cls-1{fill:#345e97;stroke-width:0px;}</style></defs><g id="design"><path class="cls-1" d="m13.62,13.3c2.42,1.08,4.24,2.72,5.21,5.11.47,1.15.62,2.43.85,3.66.11.59,0,1.17-.8,1.17-.71,0-.8-.52-.83-1.09-.2-3.85-2.72-6.84-6.47-7.71-4.85-1.12-9.73,2.57-9.95,7.53-.01.25.05.58-.09.71-.25.24-.67.55-.93.49-.26-.06-.6-.54-.61-.85-.06-2.46.77-4.65,2.45-6.41,1-1.05,2.26-1.86,3.45-2.83-2.3-1.65-3.46-4.01-3.09-7,.22-1.83,1.14-3.31,2.54-4.5,2.81-2.38,7.12-2.07,9.71.72,2.89,3.1,2.4,7.06-1.45,10.98Zm-3.77-.8c3.05,0,5.42-2.35,5.42-5.38,0-2.99-2.41-5.44-5.39-5.46-3.01-.02-5.47,2.45-5.47,5.48,0,3.02,2.38,5.36,5.44,5.36Z"/></g></svg>