<?xml version="1.0" encoding="UTF-8"?><svg id="_レイヤー_2" xmlns="http://www.w3.org/2000/svg" xmlns:xlink="http://www.w3.org/1999/xlink" viewBox="0 0 245.05 84.79"><defs><style>.cls-1{fill:url(#_新規グラデーションスウォッチ_2-4);}.cls-1,.cls-2,.cls-3,.cls-4,.cls-5,.cls-6,.cls-7,.cls-8,.cls-9,.cls-10{stroke-width:0px;}.cls-11{opacity:.9;}.cls-2{fill:url(#_新規グラデーションスウォッチ_2-7);}.cls-3{fill:url(#_新規グラデーションスウォッチ_2-5);}.cls-4{fill:url(#_新規グラデーションスウォッチ_2-8);}.cls-5{fill:url(#_新規グラデーションスウォッチ_2-2);}.cls-6{fill:url(#_新規グラデーションスウォッチ_2-3);}.cls-7{fill:#39385d;}.cls-8{fill:url(#_新規グラデーションスウォッチ_2);}.cls-9{fill:url(#_新規グラデーションスウォッチ_2-6);}.cls-10{fill:url(#_新規グラデーションスウォッチ_2-9);}</style><linearGradient id="_新規グラデーションスウォッチ_2" x1="-153.43" y1="82.67" x2="229.07" y2="-62.83" gradientUnits="userSpaceOnUse"><stop offset="0" stop-color="#c7dbef"/><stop offset=".06" stop-color="#bfd8ed" stop-opacity=".97"/><stop offset=".15" stop-color="#abcfea" stop-opacity=".89"/><stop offset=".26" stop-color="#8ac2e4" stop-opacity=".75"/><stop offset=".38" stop-color="#5db0dc" stop-opacity=".56"/><stop offset=".53" stop-color="#2499d3" stop-opacity=".33"/><stop offset=".54" stop-color="#1e97d2" stop-opacity=".3"/><stop offset=".76" stop-color="#0075b9"/><stop offset=".96" stop-color="#005b92"/></linearGradient><linearGradient id="_新規グラデーションスウォッチ_2-2" x1="-148.94" y1="94.46" x2="233.56" y2="-51.04" xlink:href="#_新規グラデーションスウォッチ_2"/><linearGradient id="_新規グラデーションスウォッチ_2-3" x1="-135.74" y1="129.17" x2="246.76" y2="-16.33" xlink:href="#_新規グラデーションスウォッチ_2"/><linearGradient id="_新規グラデーションスウォッチ_2-4" x1="-132.47" y1="137.76" x2="250.03" y2="-7.74" xlink:href="#_新規グラデーションスウォッチ_2"/><linearGradient id="_新規グラデーションスウォッチ_2-5" x1="-128.29" y1="148.77" x2="254.21" y2="3.27" xlink:href="#_新規グラデーションスウォッチ_2"/><linearGradient id="_新規グラデーションスウォッチ_2-6" x1="-124.03" y1="159.95" x2="258.47" y2="14.45" xlink:href="#_新規グラデーションスウォッチ_2"/><linearGradient id="_新規グラデーションスウォッチ_2-7" x1="-120.11" y1="170.25" x2="262.39" y2="24.75" xlink:href="#_新規グラデーションスウォッチ_2"/><linearGradient id="_新規グラデーションスウォッチ_2-8" x1="-114.91" y1="183.92" x2="267.59" y2="38.42" xlink:href="#_新規グラデーションスウォッチ_2"/><linearGradient id="_新規グラデーションスウォッチ_2-9" x1="-110.53" y1="195.45" x2="271.97" y2="49.95" xlink:href="#_新規グラデーションスウォッチ_2"/></defs><g id="design"><path class="cls-7" d="m42.09.54c-.89.05-1.61.17-2.14.36s-1.04.52-1.49.97c-.34.33-.6.69-.77,1.09s-.29.9-.35,1.51c-.11.81-.16,1.77-.16,2.88v17.27c0,1.61.09,2.8.28,3.59s.52,1.41,1.01,1.88c.86.83,2.07,1.28,3.63,1.36v.54h-14.98v-.54c.91-.05,1.64-.18,2.19-.39s1.05-.54,1.49-.97c.48-.5.82-1.14,1-1.91s.27-1.96.27-3.55V3.68l-12.07,28.31h-.49L7.5,4.1v20.53c0,1.61.09,2.8.27,3.56s.51,1.4,1,1.9c.44.45.93.78,1.49.98s1.28.33,2.17.38v.54H1.62v-.54c.89-.05,1.61-.17,2.17-.38s1.05-.53,1.49-.98c.48-.5.82-1.14,1-1.91s.27-1.96.27-3.55V7.36c0-.72-.02-1.4-.07-2.04-.08-1.16-.26-2-.54-2.53-.39-.73-.93-1.28-1.61-1.63s-1.58-.56-2.71-.62V0h10.17l10.15,25.05L32.46,0h9.63v.54Z"/><path class="cls-7" d="m54.64,31.99v-.54c.89-.05,1.62-.17,2.18-.38s1.06-.53,1.5-.98c.48-.5.81-1.13.98-1.9s.26-1.95.26-3.56l.02-4.57c0-.66-.13-1.38-.4-2.18-.3-.92-.91-2.08-1.83-3.47l-6.07-9.12-1.08-1.64c-.8-1.19-1.58-2-2.34-2.44-.39-.23-.78-.4-1.17-.49s-.94-.16-1.64-.19V0h15.28v.54c-1.3.08-2.12.2-2.48.35-.88.38-1.31,1.05-1.31,2.04,0,.36.1.77.29,1.22s.51,1.02.95,1.71l6.35,9.94,5.44-8.48.61-.96c.58-.91.87-1.8.87-2.67,0-1-.32-1.77-.96-2.32s-1.54-.82-2.7-.82V0h10.78v.54c-.81.09-1.44.23-1.88.41s-.88.47-1.34.88c-1.06,1-2.24,2.49-3.54,4.48l-5.34,8.16c-.64.97-1.03,1.68-1.17,2.13s-.21,1.22-.21,2.3v5.74c0,1.67.08,2.87.25,3.6s.5,1.35,1,1.86c.86.91,2.09,1.36,3.68,1.36v.54h-14.98Z"/><path class="cls-7" d="m34.24,83.99h-15.4v-.54c1.39-.12,2.36-.36,2.91-.7.97-.61,1.45-1.45,1.45-2.53,0-.64-.22-1.5-.66-2.58l-.4-.98-2.25-5.53h-10.31l-1.22,3.23-.59,1.45c-.7,1.72-1.05,3.07-1.05,4.05,0,.58.13,1.12.39,1.62s.61.91,1.04,1.22c.61.42,1.39.67,2.34.75v.54H0v-.54c.83-.05,1.55-.25,2.18-.61s1.23-.94,1.83-1.73c.5-.64.99-1.46,1.46-2.47s1.11-2.52,1.89-4.54l8.58-22.1h1.34l10.2,24.63c.77,1.86,1.38,3.19,1.83,3.98s.95,1.4,1.48,1.8c.38.28.8.5,1.29.64s1.21.28,2.18.39v.54Zm-14.72-13.83l-4.92-12.14-4.64,12.14h9.56Z"/><path class="cls-7" d="m62.22,51.84l.28,10.48h-.54c-.17-.45-.3-.8-.4-1.03-.55-1.5-.99-2.62-1.34-3.35-.61-1.31-1.49-2.52-2.65-3.61-.88-.83-1.78-1.43-2.72-1.8s-1.99-.56-3.16-.56c-1.77,0-3.3.38-4.59,1.15-1.14.67-2.2,1.64-3.19,2.89s-1.79,2.69-2.41,4.3c-.89,2.27-1.34,4.84-1.34,7.73,0,2.45.3,4.66.91,6.63s1.5,3.62,2.67,4.95c2.16,2.47,5.02,3.7,8.58,3.7,1.78,0,3.38-.31,4.8-.93s2.52-1.49,3.3-2.61c.91-1.3,1.56-3.05,1.97-5.25l.54.09c-.3,2.47-.97,4.43-2.02,5.88-1,1.39-2.38,2.45-4.14,3.19s-3.79,1.1-6.11,1.1c-2.16,0-4.22-.32-6.19-.96-3.14-1.03-5.59-2.89-7.36-5.59s-2.65-5.91-2.65-9.64c0-2.86.52-5.5,1.55-7.91s2.47-4.36,4.31-5.82c1.42-1.12,3.12-2.02,5.1-2.68s3.96-1,5.94-1,3.89.36,6,1.08l1.92.63c.38.14.7.21.98.21.39,0,.71-.16.96-.49.11-.16.24-.41.4-.77h.56Z"/><path class="cls-7" d="m95.33,51.84l.28,10.48h-.54c-.17-.45-.3-.8-.4-1.03-.55-1.5-.99-2.62-1.34-3.35-.61-1.31-1.49-2.52-2.65-3.61-.88-.83-1.78-1.43-2.72-1.8s-1.99-.56-3.16-.56c-1.77,0-3.3.38-4.59,1.15-1.14.67-2.2,1.64-3.19,2.89s-1.79,2.69-2.41,4.3c-.89,2.27-1.34,4.84-1.34,7.73,0,2.45.3,4.66.91,6.63s1.5,3.62,2.67,4.95c2.16,2.47,5.02,3.7,8.58,3.7,1.78,0,3.38-.31,4.8-.93s2.52-1.49,3.3-2.61c.91-1.3,1.56-3.05,1.97-5.25l.54.09c-.3,2.47-.97,4.43-2.02,5.88-1,1.39-2.38,2.45-4.14,3.19s-3.79,1.1-6.11,1.1c-2.16,0-4.22-.32-6.19-.96-3.14-1.03-5.59-2.89-7.36-5.59s-2.65-5.91-2.65-9.64c0-2.86.52-5.5,1.55-7.91s2.47-4.36,4.31-5.82c1.42-1.12,3.12-2.02,5.1-2.68s3.96-1,5.94-1,3.89.36,6,1.08l1.92.63c.38.14.7.21.98.21.39,0,.71-.16.96-.49.11-.16.24-.41.4-.77h.56Z"/><path class="cls-7" d="m100.42,68.21c0-2.63.56-5.06,1.69-7.31s2.77-4.2,4.92-5.88c1.61-1.23,3.34-2.18,5.2-2.85,1.86-.67,3.73-1,5.62-1,2.41,0,4.73.53,6.98,1.58s4.22,2.54,5.91,4.47c2.75,3.13,4.12,6.68,4.12,10.67,0,2-.36,3.93-1.08,5.79s-1.77,3.56-3.14,5.09c-1.69,1.91-3.68,3.38-5.99,4.43-2.3,1.05-4.71,1.57-7.23,1.57s-4.86-.51-7.12-1.52c-2.27-1.02-4.22-2.46-5.86-4.32-1.3-1.45-2.29-3.11-2.99-4.96-.7-1.85-1.04-3.78-1.04-5.78Zm5.67.35c0,4.54,1.23,8.36,3.7,11.47,1.11,1.39,2.29,2.4,3.53,3.04,1.24.63,2.68.95,4.3.95s3.08-.31,4.32-.94c1.24-.62,2.43-1.64,3.55-3.05,2.47-3.13,3.7-6.98,3.7-11.56,0-2.52-.34-4.9-1.02-7.14s-1.64-4.15-2.87-5.71c-1-1.28-2.11-2.22-3.34-2.8-1.23-.59-2.68-.88-4.35-.88s-3.09.29-4.3.87c-1.21.58-2.33,1.52-3.36,2.81-1.23,1.55-2.19,3.45-2.86,5.7-.67,2.25-1.01,4.67-1.01,7.25Z"/><path class="cls-7" d="m152.11,52v.54c-.89.05-1.62.17-2.18.38s-1.05.53-1.48.98c-.52.53-.86,1.19-1.02,1.97s-.25,2.12-.25,4.03v13.27c0,2.16.08,3.71.25,4.68s.5,1.85,1,2.66c.75,1.23,1.68,2.13,2.78,2.68s2.49.83,4.16.83,3.18-.25,4.65-.74,2.71-1.18,3.69-2.05c.61-.55,1.06-1.14,1.35-1.78s.48-1.45.57-2.44c.06-.64.09-2.16.09-4.55v-13.1c0-1.61-.09-2.8-.27-3.56s-.51-1.4-1-1.9c-.44-.45-.93-.78-1.49-.98s-1.28-.33-2.17-.38v-.54h10.8v.54c-.89.05-1.61.17-2.17.38s-1.05.53-1.49.98c-.48.5-.82,1.14-1,1.91s-.27,1.96-.27,3.55v14.79c0,2.19-.17,3.8-.5,4.84s-1,1.99-2,2.85c-2.28,1.97-5.54,2.95-9.77,2.95s-7.68-.93-9.77-2.79c-1.36-1.19-2.17-2.75-2.44-4.69-.09-.69-.14-1.93-.14-3.73v-14.23c0-1.61-.09-2.8-.26-3.56s-.51-1.4-1.01-1.9c-.42-.45-.91-.78-1.46-.98s-1.29-.33-2.19-.38v-.54h14.98Z"/><path class="cls-7" d="m181.22,56.24v20.39c0,1.61.09,2.8.27,3.56s.51,1.4,1,1.9c.44.45.93.78,1.49.98s1.28.33,2.17.38v.54h-10.8v-.54c.89-.05,1.61-.17,2.17-.38s1.05-.53,1.49-.98c.48-.5.82-1.14,1-1.91s.27-1.96.27-3.55v-17.3c0-1.58-.09-2.75-.27-3.53s-.51-1.41-1-1.91c-.42-.45-.91-.78-1.46-.98s-1.29-.33-2.19-.38v-.54h9.02l19.03,24.28v-16.92c0-1.61-.09-2.8-.27-3.56s-.51-1.4-1-1.9c-.44-.45-.93-.78-1.49-.98s-1.28-.33-2.17-.38v-.54h10.8v.54c-1.56,0-2.78.45-3.66,1.36-.48.5-.82,1.14-1,1.91s-.27,1.95-.27,3.53v24.66h-1.05l-22.08-27.75Z"/><path class="cls-7" d="m226.11,52.73c-.98,0-2.04.03-3.16.09-2.41.12-4.2.43-5.38.91s-2.15,1.32-2.92,2.51c-.7,1.09-1.24,2.58-1.62,4.45l-.54-.05.42-8.65h31.71l.42,8.65-.54.05c-.42-2.17-1.08-3.82-1.98-4.93s-2.21-1.92-3.93-2.4c-1.45-.42-3.91-.63-7.38-.63v23.91c0,1.59.09,2.78.27,3.55s.51,1.41,1,1.91c.44.45.93.78,1.49.98s1.28.33,2.17.38v.54h-14.98v-.54c.91-.05,1.64-.17,2.19-.38s1.05-.53,1.49-.98c.48-.5.82-1.13,1-1.9s.27-1.95.27-3.56v-23.91Z"/><g class="cls-11"><path class="cls-8" d="m42.09.54c-.89.05-1.61.17-2.14.36s-1.04.52-1.49.97c-.34.33-.6.69-.77,1.09s-.29.9-.35,1.51c-.11.81-.16,1.77-.16,2.88v17.27c0,1.61.09,2.8.28,3.59s.52,1.41,1.01,1.88c.86.83,2.07,1.28,3.63,1.36v.54h-14.98v-.54c.91-.05,1.64-.18,2.19-.39s1.05-.54,1.49-.97c.48-.5.82-1.14,1-1.91s.27-1.96.27-3.55V3.68l-12.07,28.31h-.49L7.5,4.1v20.53c0,1.61.09,2.8.27,3.56s.51,1.4,1,1.9c.44.45.93.78,1.49.98s1.28.33,2.17.38v.54H1.62v-.54c.89-.05,1.61-.17,2.17-.38s1.05-.53,1.49-.98c.48-.5.82-1.14,1-1.91s.27-1.96.27-3.55V7.36c0-.72-.02-1.4-.07-2.04-.08-1.16-.26-2-.54-2.53-.39-.73-.93-1.28-1.61-1.63s-1.58-.56-2.71-.62v-.54h10.17l10.15,25.05L32.46,0h9.63v.54Z"/><path class="cls-5" d="m54.64,31.99v-.54c.89-.05,1.62-.17,2.18-.38s1.06-.53,1.5-.98c.48-.5.81-1.13.98-1.9s.26-1.95.26-3.56l.02-4.57c0-.66-.13-1.38-.4-2.18-.3-.92-.91-2.08-1.83-3.47l-6.07-9.12-1.08-1.64c-.8-1.19-1.58-2-2.34-2.44-.39-.23-.78-.4-1.17-.49s-.94-.16-1.64-.19v-.54h15.28v.54c-1.3.08-2.12.2-2.48.35-.88.38-1.31,1.05-1.31,2.04,0,.36.1.77.29,1.22s.51,1.02.95,1.71l6.35,9.94,5.44-8.48.61-.96c.58-.91.87-1.8.87-2.67,0-1-.32-1.77-.96-2.32s-1.54-.82-2.7-.82v-.54h10.78v.54c-.81.09-1.44.23-1.88.41s-.88.47-1.34.88c-1.06,1-2.24,2.49-3.54,4.48l-5.34,8.16c-.64.97-1.03,1.68-1.17,2.13s-.21,1.22-.21,2.3v5.74c0,1.67.08,2.87.25,3.6s.5,1.35,1,1.86c.86.91,2.09,1.36,3.68,1.36v.54h-14.98Z"/><path class="cls-6" d="m34.24,83.99h-15.4v-.54c1.39-.12,2.36-.36,2.91-.7.97-.61,1.45-1.45,1.45-2.53,0-.64-.22-1.5-.66-2.58l-.4-.98-2.25-5.53h-10.31l-1.22,3.23-.59,1.45c-.7,1.72-1.05,3.07-1.05,4.05,0,.58.13,1.12.39,1.62s.61.91,1.04,1.22c.61.42,1.39.67,2.34.75v.54H0v-.54c.83-.05,1.55-.25,2.18-.61s1.23-.94,1.83-1.73c.5-.64.99-1.46,1.46-2.47s1.11-2.52,1.89-4.54l8.58-22.1h1.34l10.2,24.63c.77,1.86,1.38,3.19,1.83,3.98s.95,1.4,1.48,1.8c.38.28.8.5,1.29.64s1.21.28,2.18.39v.54Zm-14.72-13.83l-4.92-12.14-4.64,12.14h9.56Z"/><path class="cls-1" d="m62.22,51.84l.28,10.48h-.54c-.17-.45-.3-.8-.4-1.03-.55-1.5-.99-2.62-1.34-3.35-.61-1.31-1.49-2.52-2.65-3.61-.88-.83-1.78-1.43-2.72-1.8s-1.99-.56-3.16-.56c-1.77,0-3.3.38-4.59,1.15-1.14.67-2.2,1.64-3.19,2.89s-1.79,2.69-2.41,4.3c-.89,2.27-1.34,4.84-1.34,7.73,0,2.45.3,4.66.91,6.63s1.5,3.62,2.67,4.95c2.16,2.47,5.02,3.7,8.58,3.7,1.78,0,3.38-.31,4.8-.93s2.52-1.49,3.3-2.61c.91-1.3,1.56-3.05,1.97-5.25l.54.09c-.3,2.47-.97,4.43-2.02,5.88-1,1.39-2.38,2.45-4.14,3.19s-3.79,1.1-6.11,1.1c-2.16,0-4.22-.32-6.19-.96-3.14-1.03-5.59-2.89-7.36-5.59s-2.65-5.91-2.65-9.64c0-2.86.52-5.5,1.55-7.91s2.47-4.36,4.31-5.82c1.42-1.12,3.12-2.02,5.1-2.68s3.96-1,5.94-1,3.89.36,6,1.08l1.92.63c.38.14.7.21.98.21.39,0,.71-.16.96-.49.11-.16.24-.41.4-.77h.56Z"/><path class="cls-3" d="m95.33,51.84l.28,10.48h-.54c-.17-.45-.3-.8-.4-1.03-.55-1.5-.99-2.62-1.34-3.35-.61-1.31-1.49-2.52-2.65-3.61-.88-.83-1.78-1.43-2.72-1.8s-1.99-.56-3.16-.56c-1.77,0-3.3.38-4.59,1.15-1.14.67-2.2,1.64-3.19,2.89s-1.79,2.69-2.41,4.3c-.89,2.27-1.34,4.84-1.34,7.73,0,2.45.3,4.66.91,6.63s1.5,3.62,2.67,4.95c2.16,2.47,5.02,3.7,8.58,3.7,1.78,0,3.38-.31,4.8-.93s2.52-1.49,3.3-2.61c.91-1.3,1.56-3.05,1.97-5.25l.54.09c-.3,2.47-.97,4.43-2.02,5.88-1,1.39-2.38,2.45-4.14,3.19s-3.79,1.1-6.11,1.1c-2.16,0-4.22-.32-6.19-.96-3.14-1.03-5.59-2.89-7.36-5.59s-2.65-5.91-2.65-9.64c0-2.86.52-5.5,1.55-7.91s2.47-4.36,4.31-5.82c1.42-1.12,3.12-2.02,5.1-2.68s3.96-1,5.94-1,3.89.36,6,1.08l1.92.63c.38.14.7.21.98.21.39,0,.71-.16.96-.49.11-.16.24-.41.4-.77h.56Z"/><path class="cls-9" d="m100.42,68.21c0-2.63.56-5.06,1.69-7.31,1.12-2.24,2.77-4.2,4.92-5.88,1.61-1.23,3.34-2.18,5.2-2.85s3.73-1,5.62-1c2.41,0,4.73.53,6.98,1.58,2.25,1.06,4.22,2.54,5.91,4.47,2.75,3.13,4.12,6.68,4.12,10.67,0,2-.36,3.93-1.08,5.79-.72,1.86-1.77,3.56-3.14,5.09-1.69,1.91-3.68,3.39-5.99,4.43s-4.71,1.57-7.23,1.57-4.86-.51-7.12-1.52c-2.27-1.02-4.22-2.46-5.86-4.32-1.3-1.45-2.29-3.11-2.99-4.96s-1.04-3.78-1.04-5.78Zm5.67.35c0,4.53,1.23,8.36,3.7,11.47,1.11,1.39,2.29,2.4,3.53,3.04,1.24.63,2.68.95,4.3.95s3.08-.31,4.32-.94c1.24-.62,2.43-1.64,3.55-3.05,2.47-3.13,3.7-6.98,3.7-11.56,0-2.52-.34-4.9-1.02-7.14-.68-2.24-1.64-4.15-2.87-5.71-1-1.28-2.11-2.22-3.34-2.8s-2.68-.88-4.35-.88-3.09.29-4.3.87c-1.21.58-2.33,1.52-3.36,2.81-1.23,1.55-2.19,3.45-2.86,5.7s-1.01,4.67-1.01,7.25Z"/><path class="cls-2" d="m152.11,52v.54c-.89.05-1.62.17-2.18.38s-1.05.53-1.48.98c-.52.53-.86,1.19-1.02,1.97s-.25,2.12-.25,4.03v13.27c0,2.16.08,3.71.25,4.68s.5,1.85,1,2.66c.75,1.23,1.68,2.13,2.78,2.68s2.49.83,4.16.83,3.18-.25,4.65-.74,2.71-1.18,3.69-2.05c.61-.55,1.06-1.14,1.35-1.78s.48-1.45.57-2.44c.06-.64.09-2.16.09-4.55v-13.1c0-1.61-.09-2.8-.27-3.56s-.51-1.4-1-1.9c-.44-.45-.93-.78-1.49-.98s-1.28-.33-2.17-.38v-.54h10.8v.54c-.89.05-1.61.17-2.17.38s-1.05.53-1.49.98c-.48.5-.82,1.14-1,1.91s-.27,1.96-.27,3.55v14.79c0,2.19-.17,3.8-.5,4.84s-1,1.99-2,2.85c-2.28,1.97-5.54,2.95-9.77,2.95s-7.68-.93-9.77-2.79c-1.36-1.19-2.17-2.75-2.44-4.69-.09-.69-.14-1.93-.14-3.73v-14.23c0-1.61-.09-2.8-.26-3.56s-.51-1.4-1.01-1.9c-.42-.45-.91-.78-1.46-.98s-1.29-.33-2.19-.38v-.54h14.98Z"/><path class="cls-4" d="m181.22,56.24v20.39c0,1.61.09,2.8.27,3.56s.51,1.4,1,1.9c.44.45.93.78,1.49.98s1.28.33,2.17.38v.54h-10.8v-.54c.89-.05,1.61-.17,2.17-.38s1.05-.53,1.49-.98c.48-.5.82-1.14,1-1.91s.27-1.96.27-3.55v-17.3c0-1.58-.09-2.75-.27-3.53s-.51-1.41-1-1.91c-.42-.45-.91-.78-1.46-.98s-1.29-.33-2.19-.38v-.54h9.02l19.03,24.28v-16.92c0-1.61-.09-2.8-.27-3.56s-.51-1.4-1-1.9c-.44-.45-.93-.78-1.49-.98s-1.28-.33-2.17-.38v-.54h10.8v.54c-1.56,0-2.78.45-3.66,1.36-.48.5-.82,1.14-1,1.91s-.27,1.95-.27,3.53v24.66h-1.05l-22.08-27.75Z"/><path class="cls-10" d="m226.11,52.73c-.98,0-2.04.03-3.16.09-2.41.12-4.2.43-5.38.91s-2.15,1.32-2.92,2.51c-.7,1.09-1.24,2.58-1.62,4.45l-.54-.05.42-8.65h31.71l.42,8.65-.54.05c-.42-2.17-1.08-3.82-1.98-4.93s-2.21-1.92-3.93-2.4c-1.45-.42-3.91-.63-7.38-.63v23.91c0,1.59.09,2.78.27,3.55s.51,1.41,1,1.91c.44.45.93.78,1.49.98s1.28.33,2.17.38v.54h-14.98v-.54c.91-.05,1.64-.17,2.19-.38s1.05-.53,1.49-.98c.48-.5.82-1.13,1-1.9s.27-1.95.27-3.56v-23.91Z"/></g></g></svg>