<?xml version="1.0" encoding="UTF-8"?>
<svg id="_レイヤー_2" data-name="レイヤー 2" xmlns="http://www.w3.org/2000/svg" viewBox="0 0 63.02 27.23">
  <defs>
    <style>
      .cls-1 {
        fill: #39385d;
        stroke-width: 0px;
      }
    </style>
  </defs>
  <g id="_デザイン" data-name="デザイン">
    <g>
      <g>
        <path class="cls-1" d="M1.5,5.18c0-2.64,0-3.12-.04-3.66-.04-.58-.14-.86-.72-.94-.14-.02-.44-.04-.6-.04-.06,0-.14-.08-.14-.14,0-.1.08-.14.28-.14.8,0,1.88.04,1.98.04.16,0,1.22-.04,1.74-.04.2,0,.28.04.28.14,0,.06-.06.14-.14.14-.12,0-.22,0-.44.04-.46.1-.58.34-.62.94-.04.54-.04,1.02-.04,3.66v1.02h.08c.28-.32,3.42-3.42,4.08-4.1.5-.5.96-.94.96-1.22,0-.22-.08-.32-.22-.34-.1-.02-.16-.1-.16-.16,0-.08.08-.12.2-.12.36,0,.9.04,1.32.04.1,0,1.26-.04,1.7-.04.18,0,.26.04.26.12s-.04.14-.18.14c-.26,0-.64.1-.98.24-.72.32-1.06.7-1.84,1.44-.44.4-3.44,3.28-3.82,3.7.46.5,4.12,4.16,4.84,4.82,1.48,1.32,1.68,1.54,2.52,1.88.46.18.96.24,1.08.24s.22.06.22.14-.08.14-.38.14h-.9c-.5,0-.82,0-1.22-.04-.92-.08-1.38-.46-2.14-1.04-.8-.62-4.5-4.52-5.34-5.52h-.08v1.66c0,1.64,0,2.98.08,3.68.06.5.14.82.68.9.24.04.52.08.68.08.1,0,.14.08.14.14,0,.08-.08.14-.28.14-.86,0-1.92-.06-2.06-.06s-1.2.06-1.74.06c-.18,0-.28-.04-.28-.14,0-.06.04-.14.14-.14.16,0,.38-.04.54-.08.34-.08.38-.4.46-.9.1-.7.1-2.04.1-3.68v-3Z"/>
        <path class="cls-1" d="M17.62,8.22c0,2.5.04,3.52.36,3.82.28.28.96.4,2.34.4.92,0,1.7-.02,2.12-.52.22-.26.36-.62.42-.96.02-.12.08-.22.18-.22.08,0,.12.08.12.26s-.12,1.2-.26,1.7c-.12.4-.18.46-1.12.46-1.26,0-2.24-.02-3.06-.06-.8-.02-1.4-.04-1.92-.04-.08,0-.38,0-.72.02-.36.02-.74.04-1.02.04-.18,0-.28-.04-.28-.14,0-.06.04-.14.14-.14.16,0,.38-.04.54-.08.34-.08.38-.4.46-.9.1-.7.1-2.04.1-3.68v-3c0-2.64,0-3.12-.04-3.66-.04-.58-.14-.86-.72-.94-.14-.02-.44-.04-.6-.04-.06,0-.14-.08-.14-.14,0-.1.08-.14.28-.14.8,0,1.9.04,2,.04.08,0,1.4-.04,1.94-.04.18,0,.28.04.28.14,0,.06-.08.12-.14.12-.12,0-.38.02-.58.04-.52.1-.62.36-.66.96-.02.54-.02,1.02-.02,3.66v3.04Z"/>
        <path class="cls-1" d="M27.92,5.18c0-2.64,0-3.12-.04-3.66-.04-.58-.14-.86-.72-.94-.14-.02-.44-.04-.6-.04-.06,0-.14-.08-.14-.14,0-.1.08-.14.28-.14.8,0,1.94.04,2.04.04.12,0,3.8.02,4.2,0,.34-.02.66-.08.8-.1.08-.02.16-.08.24-.08.06,0,.08.08.08.16,0,.12-.1.32-.14.8-.02.16-.06.92-.1,1.12-.02.08-.08.18-.16.18-.1,0-.14-.08-.14-.22,0-.12-.02-.4-.1-.6-.12-.28-.3-.4-1.26-.52-.3-.04-2.34-.06-2.54-.06-.08,0-.1.06-.1.18v4.62c0,.12,0,.18.1.18.22,0,2.54,0,2.94-.04.42-.04.68-.06.86-.24.12-.12.2-.22.26-.22s.1.04.1.14-.1.38-.14.94c-.04.34-.08.98-.08,1.1,0,.14-.04.32-.16.32-.08,0-.12-.06-.12-.16,0-.16,0-.34-.08-.56-.06-.24-.22-.44-.9-.52-.48-.06-2.36-.08-2.66-.08-.1,0-.12.06-.12.12v1.42c0,.58-.02,2.56,0,2.9.04,1.14.36,1.36,2.1,1.36.46,0,1.3,0,1.76-.18.46-.2.7-.5.8-1.18.04-.2.08-.26.18-.26s.12.14.12.26-.14,1.28-.24,1.64c-.12.44-.3.44-.98.44-1.32,0-2.34-.04-3.06-.06-.74-.04-1.2-.04-1.46-.04-.04,0-.38,0-.76.02-.34.02-.74.04-1.02.04-.18,0-.28-.04-.28-.14,0-.06.04-.14.14-.14.16,0,.38-.06.54-.08.34-.06.38-.4.46-.9.1-.7.1-2.04.1-3.68v-3Z"/>
        <path class="cls-1" d="M45.12.02c3.96,0,6.96,2.42,6.96,6.38s-2.82,6.94-7.06,6.94c-4.82,0-6.88-3.62-6.88-6.68C38.14,3.92,40.26.02,45.12.02ZM45.52,12.64c1.58,0,4.76-.84,4.76-5.76,0-4.08-2.48-6.22-5.26-6.22-2.94,0-5.06,1.84-5.06,5.54,0,3.96,2.38,6.44,5.56,6.44Z"/>
        <path class="cls-1" d="M56.02,12.88c-.24-.12-.26-.18-.26-.64,0-.84.08-1.52.1-1.8,0-.18.04-.28.14-.28s.16.06.16.2,0,.38.06.62c.28,1.24,1.6,1.68,2.78,1.68,1.74,0,2.64-.98,2.64-2.26s-.66-1.8-2.22-2.96l-.8-.6c-1.9-1.42-2.52-2.46-2.52-3.64,0-2,1.58-3.2,3.9-3.2.7,0,1.4.1,1.82.2.34.08.48.08.62.08s.18.02.18.12c0,.08-.08.64-.08,1.8,0,.26-.02.38-.14.38s-.14-.08-.16-.22c-.02-.2-.16-.66-.26-.84-.12-.2-.7-.84-2.28-.84-1.28,0-2.34.64-2.34,1.84,0,1.08.54,1.7,2.28,2.88l.5.34c2.14,1.46,2.88,2.64,2.88,4.1,0,1-.38,2.08-1.64,2.9-.74.48-1.84.6-2.8.6-.82,0-1.84-.12-2.56-.46Z"/>
      </g>
      <g>
        <path class="cls-1" d="M3.89,20.28l-.46.05-.62.9-.55.67-.12.14-.59.54c-.14.12-.79.54-.92.54-.04,0-.07-.02-.07-.06,0-.06.12-.19.2-.28l.64-.68.13-.15.53-.7.17-.28.41-.72c.07-.12.15-.48.17-.56.02-.12.03-.16.12-.16.07,0,.36.21.42.24.09.06.11.06.34.05l.74-.02.84-.05c.07,0,.15,0,.26-.04.01,0,.29-.07.31-.07.19,0,.66.32.66.53,0,.07-.04.14-.09.2-.19.23-.21.25-.23.3l-.73,1.29-.57.91-.55.76-.67.83-.08.1-.62.63-.75.64-.71.49-.52.31c-.13.08-.48.29-.65.29-.05,0-.09-.03-.09-.07,0-.06.01-.06.3-.26.42-.29,1.72-1.29,2.78-2.66,1.04-1.34,1.96-2.92,2.16-3.57.02-.04,0-.06,0-.11l-1.6.03Z"/>
        <path class="cls-1" d="M11.64,23.65l.03-2.99-.02-.57c0-.32-.06-.53-.07-.57-.02-.04-.15-.21-.15-.25,0-.05.07-.11.16-.11.11,0,.84.22.84.62,0,.12-.09.64-.1.74-.05.48-.06,1.29-.07,1.77l-.03,2.76q0,.57.07.72c.41-.07,1.29-.63,1.79-.97,1.72-1.14,2.68-2.13,3.24-2.75.1-.11.14-.16.21-.16.04,0,.07.04.07.08,0,.38-1.89,2.62-4.48,4.21-.13.08-.49.3-.6.39-.14.12-.22.19-.3.19-.19,0-.68-.59-.68-.79,0-.05.03-.31.03-.36,0-.13,0-.22.02-.47l.04-1.49Z"/>
        <path class="cls-1" d="M23.44,21.74l-1.28.21c-.06,0-.32.08-.37.08-.28,0-.65-.32-.65-.57,0-.08.07-.14.14-.14s.36.08.42.08c.06.02.17.03.36,0l1.52-.19,1.19-.18.03-.02v-1.11c0-.08-.05-.48-.07-.55-.02-.05-.17-.27-.17-.32s.07-.12.18-.12c.22,0,.78.21.78.59,0,.03-.05.3-.05.33-.02.1-.03.18-.03.27l-.04.79v.04s.98-.14.98-.14c.26-.04.4-.07.63-.12.05,0,.4-.09.44-.09.22,0,.65.21.65.43,0,.26-.32.26-.46.26-.1,0-.13,0-.33,0h-.6s-1.06.13-1.06.13c-.23.03-.25.03-.26.12-.02.13-.01.42-.01.67v1.6s.07,2.3.07,2.3c0,.34,0,1.12-.4,1.12-.12,0-.15-.04-.42-.39-.08-.11-.12-.14-.52-.48-.15-.13-.18-.21-.18-.23,0-.02.02-.06.09-.06.02,0,.32.04.38.05.12.01.18.02.24.02.15,0,.15-.08.15-.25v-1.93s0-1.44,0-1.44c-.07.08-.36.49-.42.57l-.25.33-.57.64-.22.22-.63.56-.18.15-.79.57c-.07.05-.68.4-.8.4-.06,0-.09-.05-.09-.08,0-.07.11-.15.26-.26.08-.05,1.01-.79,1.58-1.4.66-.71,1.23-1.49,1.69-2.34.11-.19.11-.22.12-.3l-1.05.16Z"/>
        <path class="cls-1" d="M33.69,20.81c-.1.02-.55.17-.65.17-.26,0-.77-.34-.77-.6,0-.13.11-.13.15-.13.07,0,.36.02.42.02.18,0,.54-.03.55-.03l.89-.1,2.08-.29c.11-.02.56-.16.66-.16.2,0,.79.38.79.59,0,.11-.37.48-.43.57l-.59.86-.54.72-.5.6s-.2.23-.23.27l1.27.87.57.43c.98.74.98,1.1.98,1.33,0,.2-.05.43-.28.43-.16,0-.21-.06-.42-.32l-.35-.45-.56-.63-.53-.56c-.12-.13-.62-.62-.91-.84l-.8.77-.95.81-.63.46c-.08.06-1,.69-1.34.69-.04,0-.08-.03-.08-.06,0-.06.09-.13.21-.21,3.45-2.46,5.06-5.54,5.06-5.66,0-.05-.04-.06-.08-.06-.03,0-.1.01-.16.02l-1.57.26-1.26.23Z"/>
      </g>
    </g>
  </g>
</svg>