<?xml version="1.0" encoding="UTF-8"?>
<svg id="_レイヤー_2" data-name="レイヤー 2" xmlns="http://www.w3.org/2000/svg" viewBox="0 0 97.66 27.22">
  <defs>
    <style>
      .cls-1 {
        fill: #39385d;
        stroke-width: 0px;
      }
    </style>
  </defs>
  <g id="_デザイン" data-name="デザイン">
    <g>
      <g>
        <path class="cls-1" d="M1.84,5.24c0-2.64,0-3.12-.04-3.66-.04-.58-.14-.86-.72-.94-.14-.02-.44-.04-.6-.04-.06,0-.14-.08-.14-.14,0-.1.08-.14.28-.14.8,0,1.94.04,2.04.04.2,0,1.32-.04,2.36-.04,1.76,0,4.98-.16,7.06,1.94.88.88,1.72,2.3,1.72,4.32,0,2.14-.92,3.78-1.9,4.78-.76.78-2.34,1.96-5.34,1.96-.76,0-1.7-.06-2.46-.1-.76-.06-1.36-.1-1.44-.1-.04,0-.36.02-.72.02-.36.02-.78.04-1.06.04-.18,0-.28-.04-.28-.14,0-.06.04-.14.14-.14.16,0,.38-.04.54-.08.34-.08.38-.4.46-.9.1-.7.1-2.04.1-3.68v-3ZM3.44,7.08c0,1.8,0,3.38.02,3.7.02.42.06,1.04.2,1.22.22.32.84.68,2.92.68,1.62,0,3.06-.54,4.12-1.54.92-.86,1.38-2.48,1.38-4.04,0-2.16-.94-3.54-1.66-4.26-1.66-1.68-3.6-1.9-5.7-1.9-.34,0-.9.06-1.06.12-.16.06-.22.14-.22.34v5.68Z"/>
        <path class="cls-1" d="M21.22,8.76c0-.92-.12-1.26-.38-1.74-.14-.26-2.52-4.04-3.12-4.94-.42-.64-.84-1.02-1.16-1.24-.26-.16-.6-.24-.74-.24-.1,0-.18-.08-.18-.16s.06-.12.22-.12c.34,0,1.66.04,1.74.04.12,0,.84-.04,1.52-.04.2,0,.24.04.24.12,0,.06-.12.12-.28.18-.14.06-.22.14-.22.28,0,.24.12.44.24.66l3.2,5.3c.36-.72,2.56-4.36,2.88-4.92.22-.38.3-.66.3-.88,0-.24-.08-.38-.28-.44-.16-.04-.26-.12-.26-.2,0-.06.1-.1.28-.1.46,0,1.08.04,1.22.04.12,0,1.38-.04,1.72-.04.12,0,.22.04.22.1,0,.08-.08.18-.22.18-.2,0-.54.06-.82.22-.34.2-.5.38-.88.84-.58.68-3.06,4.68-3.42,5.4-.3.6-.22,1.14-.22,1.7v1.46c0,.28,0,1,.06,1.7.04.5.16.82.68.9.24.04.64.08.8.08.1,0,.14.08.14.14,0,.08-.1.14-.28.14-.98,0-2.12-.06-2.22-.06-.08,0-1.2.06-1.72.06-.2,0-.28-.04-.28-.14,0-.06.04-.14.14-.14.16,0,.36-.04.52-.08.36-.08.48-.4.52-.9.04-.7.04-1.42.04-1.7v-1.46Z"/>
        <path class="cls-1" d="M32.68,10.86c.04,1.4.2,1.82.68,1.94.32.08.72.1.88.1.08,0,.14.06.14.14,0,.1-.12.14-.32.14-1,0-1.7-.06-1.86-.06s-.9.06-1.7.06c-.18,0-.28-.02-.28-.14,0-.08.06-.14.14-.14.14,0,.46-.02.72-.1.44-.12.5-.58.5-2.12V.94c0-.68.1-.86.24-.86.2,0,.5.34.68.52.28.28,2.84,3,5.56,5.8,1.74,1.8,3.62,3.82,4.16,4.38l-.18-8.52c-.02-1.1-.12-1.48-.66-1.58-.32-.06-.72-.08-.86-.08-.12,0-.14-.1-.14-.16,0-.1.14-.12.34-.12.8,0,1.64.04,1.84.04s.78-.04,1.5-.04c.18,0,.32.02.32.12,0,.06-.08.16-.2.16-.08,0-.22,0-.42.04-.58.12-.62.46-.62,1.48l-.04,9.96c0,1.12-.02,1.22-.14,1.22-.18,0-.36-.14-1.34-1.04-.18-.16-2.72-2.66-4.58-4.6-2.04-2.14-4.02-4.22-4.56-4.82l.2,8.02Z"/>
        <path class="cls-1" d="M52.48.66c.22-.56.3-.66.42-.66.18,0,.24.24.42.62.32.72,3.14,7.74,4.22,10.32.64,1.52,1.12,1.74,1.5,1.86.26.08.52.1.7.1.1,0,.22.04.22.14s-.2.14-.4.14c-.26,0-1.56,0-2.78-.04-.34-.02-.62-.02-.62-.12,0-.08.04-.08.12-.12.1-.04.28-.18.16-.46l-1.58-3.9c-.04-.08-.06-.1-.16-.1h-4.06c-.08,0-.14.04-.18.14l-1,2.72c-.16.42-.26.84-.26,1.14,0,.34.3.46.6.46h.16c.14,0,.18.06.18.14,0,.1-.1.14-.26.14-.42,0-1.38-.06-1.58-.06-.18,0-1.06.06-1.78.06-.22,0-.34-.04-.34-.14,0-.08.08-.14.16-.14.12,0,.38-.02.52-.04.8-.1,1.14-.7,1.48-1.56L52.48.66ZM54.44,7.74c.08,0,.08-.04.06-.12l-1.74-4.66c-.1-.26-.2-.26-.3,0l-1.64,4.66c-.02.08,0,.12.06.12h3.56Z"/>
        <path class="cls-1" d="M76.66,11c.06.6.18,1.52.9,1.76.5.16.96.16,1.14.16.08,0,.14.04.14.12,0,.1-.16.16-.36.16-.4,0-2.36-.02-3-.08-.42-.04-.5-.1-.5-.18,0-.06.04-.12.12-.14.1-.02.12-.28.08-.6l-.84-8.64h-.04l-4.24,8.68c-.36.74-.46.9-.62.9s-.26-.16-.6-.78c-.46-.84-1.62-3.02-2.06-3.94-.52-1.08-1.94-3.94-2.24-4.64h-.08l-.68,7.68c-.02.26-.02.58-.02.86,0,.26.16.42.42.48.3.08.56.1.68.1.06,0,.14.06.14.12,0,.12-.12.16-.32.16-.66,0-1.5-.06-1.64-.06-.16,0-1,.06-1.48.06-.18,0-.3-.04-.3-.16,0-.06.08-.12.18-.12.14,0,.26-.02.52-.06.58-.1.6-.72.68-1.36l1.28-11.1c.02-.18.1-.3.2-.3.12,0,.26.06.36.26l5.32,10.56L74.92.36c.08-.16.16-.28.28-.28s.22.14.26.46l1.2,10.46Z"/>
        <path class="cls-1" d="M84.76,8.24c0,1.64,0,2.98.08,3.68.06.5.12.82.64.9.26.04.64.08.8.08.1,0,.14.08.14.14,0,.08-.08.14-.28.14-.98,0-2.12-.06-2.2-.06-.1,0-1.2.06-1.74.06-.18,0-.28-.04-.28-.14,0-.06.04-.14.14-.14.16,0,.38-.04.54-.08.34-.08.4-.4.46-.9.08-.7.1-2.04.1-3.68v-3c0-2.64,0-3.12-.04-3.66-.04-.58-.18-.84-.56-.92-.2-.04-.42-.06-.54-.06-.08,0-.14-.08-.14-.14,0-.1.08-.14.28-.14.58,0,1.68.04,1.78.04.08,0,1.22-.04,1.76-.04.2,0,.28.04.28.14,0,.06-.08.14-.14.14-.12,0-.24,0-.44.04-.48.1-.58.34-.62.94-.02.54-.02,1.02-.02,3.66v3Z"/>
        <path class="cls-1" d="M90.66,12.94c-.24-.12-.26-.18-.26-.64,0-.84.08-1.52.1-1.8,0-.18.04-.28.14-.28s.16.06.16.2,0,.38.06.62c.28,1.24,1.6,1.68,2.78,1.68,1.74,0,2.64-.98,2.64-2.26s-.66-1.8-2.22-2.96l-.8-.6c-1.9-1.42-2.52-2.46-2.52-3.64,0-2,1.58-3.2,3.9-3.2.7,0,1.4.1,1.82.2.34.08.48.08.62.08s.18.02.18.12c0,.08-.08.64-.08,1.8,0,.26-.02.38-.14.38s-.14-.08-.16-.22c-.02-.2-.16-.66-.26-.84-.12-.2-.7-.84-2.28-.84-1.28,0-2.34.64-2.34,1.84,0,1.08.54,1.7,2.28,2.88l.5.34c2.14,1.46,2.88,2.64,2.88,4.1,0,1-.38,2.08-1.64,2.9-.74.48-1.84.6-2.8.6-.82,0-1.84-.12-2.56-.46Z"/>
      </g>
      <g>
        <path class="cls-1" d="M3.29,22.57l-1.17.15-.88.14c-.07,0-.38.08-.44.08-.27,0-.8-.42-.8-.61,0-.06.05-.12.11-.12.01,0,.62.1.73.1.15,0,4.3-.45,5.11-.52.13,0,.67-.08.78-.08.21,0,.84.27.84.52,0,.07-.06.27-.33.27-.09,0-.46-.06-.54-.07-.2-.02-.56-.04-.89-.04-.6,0-1.19.03-1.78.12.18.34.2.38.2.46,0,.11-.39,1.12-.47,1.32-.8,1.96-2.36,2.79-2.55,2.79-.04,0-.06-.02-.06-.06,0-.06,0-.07.14-.18.54-.46,1.47-1.26,1.97-3.12.07-.26.16-.66.16-.89,0-.12-.02-.18-.05-.25h-.08ZM1.97,20.02s.37.03.44.03c.31,0,2.04-.31,2.29-.36.08,0,.39-.09.46-.09.27,0,.5.23.5.43s-.14.19-.71.21c-.34,0-1,.13-1.49.21-.15.03-.87.17-.9.17-.12,0-.73-.24-.73-.48,0-.09.08-.12.14-.12ZM6.39,20.02c.5-.03,1.24.29,1.24.78,0,.05-.03.29-.25.29-.14,0-.17-.03-.4-.35-.26-.37-.48-.57-.6-.68v-.04ZM7.31,19.26c.37-.02,1.28.31,1.28.81,0,.18-.12.32-.25.32-.12,0-.15-.04-.41-.4-.31-.43-.47-.57-.63-.7v-.03Z"/>
        <path class="cls-1" d="M14.52,25.74l.43-1.92s.09-.47.09-.48c0-.06-.02-.08-.16-.08h-.19l-.88.06-.54.06c-.07,0-.42.05-.47.05-.05.01-.25.06-.29.06-.21,0-.52-.34-.52-.46s.13-.12.23-.12c.07,0,.43,0,.43,0l1.55-.09c.06,0,.46-.04.63-.06.07,0,.38-.09.44-.09.14,0,.57.31.57.47,0,.04-.12.35-.15.42-.03.07-.09.2-.14.41l-.2.78-.24.98.93-.05c.08,0,.46-.07.54-.07.28,0,.63.26.63.46,0,.1-.09.23-.27.23-.01,0-.22,0-.24-.02l-.73-.05h-1.22l-1.82.06-1.13.1c-.09,0-.5.07-.54.07-.35,0-.61-.49-.61-.56,0-.05.04-.11.1-.11.07,0,.35.07.41.08.19.02.63,0,.79,0l2.55-.12.02-.02Z"/>
        <path class="cls-1" d="M25.7,21.52l.49-.03.65-.1c.22-.03.24-.03.28-.03.23,0,.78.26.78.55,0,.12-.09.24-.25.24,0,0-.22-.02-.25-.02l-.63-.06h-1.13l-1.05.05c-.29,0-.29.02-.3.11-.03.36-.19,1.1-.29,1.45-.26.9-.64,1.92-1.73,3.02-.15.15-.52.52-.65.52-.05,0-.06-.03-.06-.05,0-.03.09-.14.15-.22,1.18-1.52,1.46-2.45,1.73-3.65.07-.32.17-.78.16-1.08h-.07s-1.25.13-1.25.13l-.77.1c-.07,0-.19.03-.26.04-.27.08-.3.08-.39.08-.33,0-.79-.39-.79-.53,0-.03.02-.12.17-.12.07,0,.41.04.47.04.08,0,.24,0,.32-.02l.59-.04,1.9-.18c.09,0,.13-.02.17-.04l.07-.85c.02-.22.02-.25.02-.85,0-.26,0-.34-.05-.5-.01-.04-.05-.21-.05-.24,0-.09.09-.11.14-.11.18,0,.76.31.76.6,0,.09-.1.47-.1.55l-.12,1.32.02.03,1.32-.11Z"/>
        <path class="cls-1" d="M35.67,26.86c-.13,0-.22-.05-.7-.33-1.24-.73-1.8-.93-2.69-1.21-.31-.1-.35-.11-.35-.18,0-.08.1-.08.14-.08.58,0,1.29.09,2.25.4,1.22.4,1.61.7,1.61,1.12,0,.24-.2.28-.26.28ZM33.06,22.23c.57,0,1.13.13,1.52.25.36.12.67.38.67.72,0,.1-.06.26-.26.26-.14,0-.2-.04-.74-.37-.48-.3-.84-.48-1.24-.64-.18-.08-.2-.09-.2-.13,0-.09.22-.09.25-.09ZM33.54,19.98c-.08-.04-.42-.21-.49-.24-.1-.05-.17-.08-.17-.14,0-.07.13-.07.19-.07,1.13,0,2.45.38,2.45,1.05,0,.12-.07.27-.24.27-.11,0-.16-.03-.37-.15l-.6-.36-.77-.36Z"/>
        <path class="cls-1" d="M42.82,20.87c-.1.02-.55.17-.65.17-.26,0-.77-.34-.77-.6,0-.13.11-.13.15-.13.07,0,.36.02.42.02.18,0,.54-.03.55-.03l.89-.1,2.08-.29c.11-.02.56-.16.66-.16.2,0,.79.38.79.59,0,.11-.37.48-.43.57l-.59.86-.54.72-.5.6s-.2.23-.23.27l1.27.87.57.43c.98.74.98,1.1.98,1.33,0,.2-.05.43-.28.43-.16,0-.21-.06-.42-.32l-.35-.45-.56-.63-.53-.56c-.12-.13-.62-.62-.91-.84l-.8.77-.95.81-.63.46c-.08.06-1,.69-1.34.69-.04,0-.08-.03-.08-.06,0-.06.09-.13.21-.21,3.45-2.46,5.06-5.54,5.06-5.66,0-.05-.04-.06-.08-.06-.03,0-.1.01-.16.02l-1.57.26-1.26.23Z"/>
      </g>
    </g>
  </g>
</svg>