<?xml version="1.0" encoding="UTF-8"?>
<svg id="_レイヤー_2" data-name="レイヤー 2" xmlns="http://www.w3.org/2000/svg" viewBox="0 0 170 19.58">
  <defs>
    <style>
      .cls-1 {
        fill: none;
      }

      .cls-1, .cls-2 {
        stroke-width: 0px;
      }

      .cls-2 {
        fill: #fff;
      }
    </style>
  </defs>
  <g id="_レイヤー_2-2" data-name=" レイヤー 2">
    <g id="_レイヤー_2-2" data-name=" レイヤー 2-2">
      <g>
        <path class="cls-2" d="M30.88,12.57v-7.01c0-.39-.16-.61-.55-.73-.09-.03-.14-.11-.13-.2s.09-.16.18-.16h2.07c.09,0,.17.07.18.16s-.04.18-.13.2c-.38.12-.55.34-.55.73v7.62h2.92c1.22,0,1.71-.82,1.87-1.08.05-.08.14-.11.23-.07.08.04.13.13.1.22l-.36,1.29c-.02.08-.09.13-.18.13h-6.17c-.09,0-.17-.07-.18-.16,0-.09.05-.18.15-.2.37-.08.53-.3.53-.73h.02ZM55.65,13.51c0,.09-.09.16-.18.16h-2.14c-.09,0-.17-.07-.18-.16,0-.09.05-.18.15-.2.14-.03.28-.14.35-.27.04-.08.08-.22.02-.38l-1.07-2.47h-3.56l-.98,2.1c-.11.26-.13.48-.04.64.12.24.45.34.63.37.09.02.15.11.15.2,0,.09-.09.16-.18.16h-2.06c-.09,0-.17-.07-.18-.16,0-.09.05-.18.15-.2.29-.06.61-.35.86-.77l3.56-7.95c.03-.07.1-.11.17-.11h0c.07,0,.14.04.17.11l3.48,7.93h0c.19.45.46.73.76.79.09.02.15.11.15.2h-.03ZM52.32,9.67l-1.55-3.48-1.55,3.48h3.1ZM45.03,12.03c-.08-.04-.18,0-.23.08-.16.27-.64,1.08-1.87,1.08h-2.92v-7.62c0-.39.16-.61.55-.73.09-.03.14-.11.13-.2s-.09-.16-.18-.16h-2.07c-.09,0-.17.07-.18.16s.04.18.13.2c.38.12.55.34.55.73v7.01c0,.43-.16.65-.53.73-.09.02-.15.11-.15.2,0,.09.09.16.18.16h6.17c.08,0,.15-.05.18-.13l.36-1.29c.02-.09-.02-.18-.1-.22h-.02ZM19.07,4.46h-7.61c-.09,0-.16.06-.18.14l-.38,1.61c-.02.09.03.18.12.21s.18,0,.23-.09c.45-.89,1.09-1.32,1.97-1.32h1.47v9.54c0,.73-.33.9-.57.96-.09.02-.15.11-.14.2.01.09.09.16.18.16h2.18c.09,0,.17-.07.18-.16s-.05-.18-.14-.2c-.38-.1-.57-.4-.57-.91V5.01h1.52c.88,0,1.52.43,1.97,1.32.04.08.14.12.23.09.09-.03.14-.12.12-.21l-.38-1.61c-.02-.08-.09-.14-.18-.14h-.02ZM6.33,5.24c-.22-.17-.42-.33-.59-.46l-.21-.19c-.78-.69-1.66-1.46-1.66-2.46s.73-1.61,1.85-1.61c1.33,0,2.29,1.26,2.47,2.17.02.09.1.16.2.15.09,0,.17-.09.17-.18V.47c0-.08-.05-.15-.13-.18-.08-.02-.16,0-.21.07-.03.05-.09.11-.23.11-.16,0-.45-.09-.76-.18-.48-.13-1.01-.29-1.47-.29-1.18,0-2.45.59-2.45,2.26,0,1.23,1.05,2.36,1.68,3.03l.12.13c.31.32.64.64.98.96,1.39,1.34,2.82,2.72,3.04,4.35v.57c0,1.74-.95,3.69-3.6,3.98h-.57c-1.95,0-4.03-1.38-4.03-3.93,0-1.89,1.14-3.93,3.65-3.93h.28s.1-.02.13-.05l.05-.05c.05-.05.07-.13.04-.2-.03-.07-.1-.11-.17-.11-.12,0-.22-.01-.32-.02-.1-.01-.2-.02-.29-.02-2.14,0-4.3,1.29-4.3,4.16,0,2.38,1.77,4.32,4.3,4.72.37.09.77.1,1.18.1h.11c2.23-.21,4.61-1.62,4.61-4.96v-.33c0-2.39-2.33-4.2-3.87-5.39v-.03ZM39.2,17.42c-.06-.06-.16-.07-.23-.02-1.89,1.25-2.77,1.25-4.11,1.25-1.75,0-3.61-.76-5.57-1.56-2.12-.86-4.3-1.75-6.59-1.8v-4.93h2.14c.73,0,.9.29,1.01.59.03.08.12.13.2.12.09-.02.15-.09.15-.18v-1.61c0-.09-.07-.17-.15-.18-.1-.01-.18.04-.2.12-.11.32-.25.58-1.01.58h-2.14v-4.74h3.08c1.3,0,1.77.92,1.96,1.32.04.08.14.12.23.09.09-.03.14-.12.12-.21l-.38-1.61c-.02-.08-.09-.14-.18-.14h-6.53c-.09,0-.17.07-.18.16-.01.09.05.18.14.2.29.06.61.23.61.96v8.75c0,.66-.32.86-.63.96-.09.03-.14.11-.12.2s.09.15.18.15h1.75c2.13,0,4.01.94,5.83,1.84,1.77.88,3.6,1.8,5.66,1.84,1.24,0,2.65-.14,5.02-1.78.04-.03.07-.08.08-.13,0-.05,0-.11-.05-.15l-.1-.1h0ZM137.33,12.75c-.09.02-.16.1-.15.2s.09.17.18.17h2.22c.09,0,.17-.07.18-.17s-.06-.18-.15-.2c-.39-.07-.57-.27-.57-.63v-6.58c0-.36.18-.56.59-.67.09-.02.15-.11.13-.2s-.09-.16-.18-.16h-2.22c-.09,0-.17.07-.18.16s.05.18.13.2c.41.11.59.31.59.67v6.55c0,.39-.18.6-.57.67h0ZM142.2,17.76c.04.09,0,.19-.09.23l-.08.04c-1.01.5-1.96.98-3.81.98-2.72,0-3.89-2.19-4.91-4.12-.9-1.7-1.75-3.3-3.51-3.3h-1.72v3.05c0,.52.19.82.57.92.09.02.15.11.14.2s-.09.16-.18.16h-2.23c-.09,0-.17-.07-.18-.16s.05-.18.14-.2c.25-.06.57-.23.57-.96V5.8c0-.73-.33-.9-.57-.96-.09-.02-.15-.11-.14-.2.01-.09.09-.16.18-.16h3.66c3.26,0,4.42,1.84,4.42,3.56,0,1.22-.82,3.02-3.03,3.43,1.01.59,1.77,1.74,2.57,2.95,1.25,1.89,2.55,3.85,4.93,3.85,1.34,0,2.05-.29,2.9-.83.05-.03.1-.04.16-.02.05.02.09.06.11.11l.09.24h0ZM130.09,5.03h-2.01v6.01h2.01c1.88,0,3.1-1.18,3.1-3,0-1.45-.81-3-3.1-3h0ZM151.69,4.5h-2.14c-.09,0-.16.06-.18.15s.03.17.12.2c.58.22.83.52.83.97v7.66l-6.18-8.91s-.09-.08-.15-.08h-1.71c-.09,0-.16.06-.18.15s.03.17.12.2c.42.16.83.36.83.97v8.81c0,.67-.51.89-.81.97-.09.02-.15.11-.14.2s.09.16.18.16h2.09c.09,0,.17-.07.18-.16s-.05-.18-.14-.2c-.3-.08-.81-.3-.81-.97V5.84l6.94,10.05c.04.05.09.08.15.08h.05c.08-.02.13-.09.13-.17V5.84c.03-.48.31-.79.87-.98.09-.03.14-.11.12-.2-.02-.09-.09-.15-.18-.15h0ZM72.16,17.78c.04.09,0,.19-.09.23l-.07.04c-1,.51-1.95.98-3.79.98-2.71,0-3.86-2.19-4.89-4.13-.9-1.7-1.74-3.3-3.48-3.3h-1.71v3.06c0,.52.19.82.57.92.09.02.15.11.14.2,0,.09-.09.16-.18.16h-2.22c-.09,0-.17-.07-.18-.16,0-.09.05-.18.14-.2.24-.06.57-.23.57-.97V5.8c0-.74-.33-.9-.57-.97-.09-.02-.15-.11-.14-.2,0-.09.09-.16.18-.16h3.64c3.24,0,4.39,1.84,4.39,3.56,0,1.22-.82,3.02-3.01,3.44,1,.59,1.76,1.75,2.55,2.95,1.24,1.9,2.53,3.86,4.91,3.86,1.33,0,2.04-.29,2.88-.83.05-.03.1-.04.15-.02s.09.06.11.11l.09.24h0ZM60.12,5.03h-1.99v6.02h1.99c1.87,0,3.08-1.18,3.08-3.01,0-1.45-.81-3.01-3.08-3.01ZM123.95,8.04c0,1.64-1.16,3.56-4.42,3.56h-2v3.05c0,.52.19.82.57.92.09.02.15.11.14.2s-.09.16-.18.16h-2.19c-.09,0-.17-.07-.18-.16s.05-.18.14-.2c.25-.06.57-.23.57-.96V5.85c0-.7-.3-.91-.59-1.02-.08-.03-.13-.12-.12-.2s.09-.15.18-.15h3.66c3.26,0,4.42,1.84,4.42,3.56ZM117.53,11.04h2c2.29,0,3.1-1.55,3.1-3s-.81-3-3.1-3h-2v6.01h0ZM169.95,3.81c-1.06-1.33-2.56-1.92-4.85-1.92-1.74,0-3.45.49-5.1.96-1.61.46-3.28.94-4.93.94-1.8,0-3.1-.45-4.2-1.47-.05-.04-.12-.06-.18-.04s-.11.07-.13.13l-.05.19c-.02.06,0,.13.05.17,1.17,1.22,3.12,1.6,4.61,1.71v10.21c0,.68-.28.84-.57.91-.09.02-.15.11-.14.2s.09.16.18.16h2.19c.09,0,.17-.07.18-.16s-.05-.18-.14-.2c-.39-.1-.57-.38-.57-.87V4.49c1.44-.04,3.15-.51,4.8-.96,1.68-.46,3.41-.94,4.81-.94s2.67.19,3.56,1.53c.05.08.15.1.23.06l.19-.1s.09-.07.1-.12,0-.11-.04-.15h0ZM102.6,17.59s-.1-.02-.15,0c-.79.34-1.32.56-2.26.56-1.59,0-2.98-.69-4.46-1.41-1.39-.68-2.82-1.39-4.44-1.48V5.68c0-.73.33-.9.62-.96.09-.02.15-.11.14-.2-.01-.09-.09-.16-.18-.16h-2.28c-.09,0-.17.07-.18.16-.01.09.05.18.14.2.29.06.62.23.62.96v8.8c0,.55-.21.87-.62.96-.09.02-.15.11-.14.2s.09.16.18.16h1.62c1.65,0,2.96.84,4.21,1.65,1.21.78,2.45,1.58,3.97,1.58,1.33,0,2.26-.47,3.17-.92l.1-.05c.08-.04.12-.14.09-.22l-.05-.14s-.05-.09-.1-.11ZM86.72,12.66c0,1.61-1.28,3.23-4.13,3.23h-4.33c-.09,0-.17-.07-.18-.15s.04-.17.12-.2c.31-.1.63-.3.63-.97V5.72c0-.69-.33-.85-.62-.91-.09-.02-.15-.11-.14-.2.01-.09.09-.16.18-.16h2.28c.09,0,.17.07.18.16.01.09-.05.18-.14.2-.29.06-.62.23-.62.96v3.72h2.19c1.69,0,3-2.23,3-4.15,0-2.66-1.94-4.38-4.95-4.38-4.14,0-7.14,2.74-7.14,6.52,0,1.95.79,3.9,2.06,5.08.93.87,2.08,1.29,3.31,1.2.05-.02.14.03.17.1.03.06.03.14-.02.2l-.19.24s-.09.07-.14.07c-3.28,0-6.27-3.12-6.27-6.56,0-5.47,4.4-7.41,8.17-7.41s6.22,2.14,6.22,5.08c0,1.76-1.01,3.31-2.64,4.12,2.66.42,2.97,2.25,2.97,3.06h.03ZM82.54,15.33c1.79,0,2.81-.97,2.81-2.67s-1.05-2.62-2.81-2.62h-2.58v5.29h2.58ZM109.88,4.93c1.23,0,1.75.87,2.03,1.34.05.08.14.11.23.07.08-.04.13-.13.11-.22l-.43-1.62c-.02-.08-.09-.14-.18-.14h-6.52c-.09,0-.16.06-.18.15s.03.17.12.2c.28.1.59.31.59.97v8.8c0,.74-.33.9-.57.96-.09.02-.15.11-.14.2s.09.16.18.16h6.52c.08,0,.16-.06.18-.14l.43-1.62c.02-.09-.02-.18-.11-.22-.08-.04-.18,0-.23.07-.28.47-.8,1.34-2.03,1.34h-3.1v-4.96h2.19c.64,0,.85.23.97.59.03.09.11.13.2.12s.15-.09.15-.18v-1.62c0-.09-.06-.16-.15-.18-.09-.02-.17.03-.2.12-.1.28-.31.59-.97.59h-2.19v-4.82h3.1v.04ZM102.63,4.4h-1.93c-.09,0-.17.07-.18.15-.01.09.04.18.12.2.4.13.75.28.75.71v4.77c0,1.74-.93,2.63-2.75,2.63-1.25,0-2.58-.69-2.58-2.63v-4.77c0-.47.2-.62.5-.71.09-.03.14-.11.13-.2s-.09-.16-.18-.16h-1.97c-.09,0-.17.07-.18.16s.04.18.13.2c.3.09.5.24.5.71v4.81c0,.97.36,3.22,3.66,3.22,2.12,0,3.29-1.14,3.29-3.22v-4.81c0-.32.23-.54.75-.71.09-.03.14-.11.12-.2-.01-.09-.09-.15-.18-.15ZM168.03,13.39c.84,0,1.52.68,1.52,1.52s-.68,1.52-1.52,1.52-1.52-.68-1.52-1.52.68-1.52,1.52-1.52M168.03,13.1c-1,0-1.81.81-1.81,1.81s.81,1.81,1.81,1.81,1.81-.81,1.81-1.81-.81-1.81-1.81-1.81h0ZM168.29,14.95c.16.05.26.2.31.41.07.29.11.46.15.53h-.24c-.03-.06-.08-.23-.13-.48-.06-.27-.18-.4-.42-.4h-.25v.87h-.23v-1.95c.13-.03.31-.04.48-.04.27,0,.45.05.57.16.1.09.16.22.16.37,0,.26-.17.43-.39.51h0v.02ZM167.97,14.85c.29,0,.48-.16.48-.39,0-.29-.23-.38-.49-.38-.12,0-.21.01-.26.02v.76h.27Z"/>
        <rect class="cls-1" x="0" width="170" height="19.58"/>
      </g>
    </g>
  </g>
</svg>