<?xml version="1.0" encoding="UTF-8"?>
<svg id="_レイヤー_2" data-name="レイヤー 2" xmlns="http://www.w3.org/2000/svg" viewBox="0 0 11.09 13.4">
  <defs>
    <style>
      .cls-1 {
        fill: #39395c;
        stroke-width: 0px;
      }
    </style>
  </defs>
  <g id="design">
    <g>
      <path class="cls-1" d="m2.69,11.17c-1.49,0-2.69-1.21-2.69-2.69s1.21-2.69,2.69-2.69,2.69,1.21,2.69,2.69-1.21,2.69-2.69,2.69Zm0-4.03c-.73,0-1.33.6-1.33,1.33s.6,1.33,1.33,1.33,1.33-.6,1.33-1.33-.6-1.33-1.33-1.33Z"/>
      <path class="cls-1" d="m8.76,13.4c-1.29,0-2.34-1.05-2.34-2.34,0-.07,0-.14,0-.21.02-.19.06-.38.12-.56.11-.44,1.48-5.89,1.6-6.35l.03-.17c.03-.15.04-.28.04-.41,0-1.1-.9-2-2-2s-2,.9-2,2c0,.16.02.33.06.48h-.03c.13.36.28.95.54,1.94l.51,1.95-1.32.34s-.61-2.34-.88-3.39c0,0-.13-.52-.13-.52-.07-.26-.1-.54-.1-.81,0-1.86,1.51-3.36,3.36-3.36s3.36,1.51,3.36,3.36c0,.22-.02.43-.06.64l-.04.24-.81,3.21c-.51,2.02-.72,2.88-.86,3.26h.04c-.03.09-.05.18-.05.26,0,.03,0,.06,0,.09,0,.54.44.97.97.97s.97-.44.97-.97h1.36c0,1.29-1.05,2.34-2.34,2.34Z"/>
    </g>
  </g>
</svg>