<?xml version="1.0" encoding="UTF-8"?>
<svg id="_レイヤー_2" data-name="レイヤー 2" xmlns="http://www.w3.org/2000/svg" viewBox="0 0 108 108">
  <defs>
    <style>
      .cls-1 {
        opacity: .8;
      }

      .cls-2 {
        fill: #39395c;
        stroke-width: 0px;
      }
    </style>
  </defs>
  <g id="_レイヤー_1-2" data-name="レイヤー 1">
    <g class="cls-1">
      <g>
        <g>
          <path class="cls-2" d="M85.06,46.33h3.82c.21,0,.4-.14.46-.35.06-.2-.02-.43-.2-.54-.61-.4-.97-1.07-.97-1.8,0-1.18.96-2.14,2.14-2.14s2.14.96,2.14,2.14c0,.73-.37,1.4-.98,1.8-.18.12-.26.34-.2.54.06.21.25.35.46.35h3.83c.27,0,.48-.22.48-.48s-.22-.48-.48-.48h-2.66c.33-.5.52-1.1.52-1.72,0-1.71-1.39-3.11-3.11-3.11s-3.11,1.39-3.11,3.11c0,.62.18,1.22.52,1.72h-2.66c-.27,0-.48.22-.48.48s.22.48.48.48Z"/>
          <path class="cls-2" d="M85.06,48.56h10.51c.27,0,.48-.22.48-.48s-.22-.48-.48-.48h-10.51c-.27,0-.48.22-.48.48s.22.48.48.48Z"/>
        </g>
        <path class="cls-2" d="M40.99,94.06c-.16.17-.15.44.02.6.08.08.19.12.29.12.11,0,.23-.04.31-.13.26-.28.71-.53,1.26-.71.6-.19,1.3-.3,2.02-.3s1.42.1,2.02.3c.55.18.99.43,1.26.71.16.17.43.18.6.02.17-.16.18-.43.02-.6-.44-.47-1.15-.83-2-1.04,0,0,0,0,0,0v-5.39c.85-.22,1.56-.58,2-1.04.16-.17.15-.44-.02-.6-.17-.16-.44-.15-.6.02-.26.28-.71.53-1.26.71-.6.19-1.3.3-2.02.3s-1.42-.1-2.02-.3c-.55-.18-.99-.43-1.26-.71-.16-.17-.43-.18-.6-.02-.17.16-.18.43-.02.6.44.47,1.15.83,2,1.04v5.39s0,0,0,0c-.85.22-1.56.58-2,1.04ZM43.83,87.79c.34.04.69.07,1.05.07s.71-.02,1.05-.07v5.07c-.34-.04-.69-.07-1.05-.07s-.71.02-1.05.07v-5.07Z"/>
        <path class="cls-2" d="M21.08,59.78c-.39-.12-.8-.13-1.2-.02-.48.13-.91.42-1.25.84-.33.4-.54.9-.62,1.43l-.44,2.9-.44-2.9c-.08-.53-.3-1.03-.62-1.43-.34-.42-.77-.71-1.25-.84-.4-.11-.81-.1-1.2.02-.6.19-1.09.67-1.35,1.33-.13.33-.19.69-.17,1.03.02.38.12.73.31,1.05.12.2.38.27.58.15.2-.12.27-.38.15-.58-.23-.39-.26-.9-.08-1.35.16-.41.46-.72.81-.83.24-.07.48-.08.73-.01.64.17,1.14.81,1.26,1.58l.86,5.67s0,.04.01.06c0,0,0,0,0,0,0,0,0,0,0,.01,0,0,0,0,0,0,0,0,0,0,0,0,0,0,0,0,0,.01,0,0,0,0,0,0,0,0,0,0,0,.01,0,0,0,0,0,0,0,0,0,.01,0,.02,0,0,0,0,0,0,.02.04.04.07.07.1,0,0,0,0,0,0,0,0,0,0,.01,0,0,0,0,0,0,0,0,0,0,0,0,0,0,0,0,0,.01,0,0,0,0,0,0,0,0,0,0,0,.01,0,0,0,0,0,0,0,0,0,0,0,.01,0,0,0,0,0,0,0,0,0,0,0,.01,0,0,0,0,0,0,0,0,0,0,0,.01,0,0,0,0,0,0,0,.01,0,.03.01.04.02,0,0,0,0,.01,0,0,0,0,0,0,0,0,0,.01,0,.02,0,0,0,0,0,0,0,0,0,.01,0,.02,0,0,0,0,0,0,0,.02,0,.05.01.07.01,0,0,0,0,0,0,0,0,.02,0,.03,0,0,0,0,0,0,0,0,0,0,0,0,0,0,0,.02,0,.03,0,0,0,0,0,0,0,.02,0,.04,0,.05,0,0,0,0,0,0,0,0,0,.01,0,.02,0,0,0,0,0,0,0,0,0,.01,0,.02,0,0,0,0,0,0,0,0,0,0,0,.01,0,0,0,0,0,0,0,0,0,0,0,0,0,.02,0,.04-.02.06-.03,0,0,0,0,0,0,0,0,0,0,.01,0,0,0,0,0,0,0,0,0,0,0,.01,0,0,0,0,0,0,0,0,0,0,0,.01,0,0,0,0,0,0,0,0,0,0,0,.01,0,0,0,0,0,0,0,0,0,0,0,0,0,0,0,0,0,0,0,0,0,0,0,0,0,.02-.02.04-.05.06-.08,0,0,0,0,0,0,0,0,0-.01,0-.02,0,0,0,0,0,0,0,0,0-.01,0-.02,0,0,0,0,0,0,0,0,0,0,0-.01,0,0,0,0,0,0,0,0,0,0,0-.01,0,0,0,0,0,0,0,0,0,0,0,0,0,0,0,0,0-.01,0,0,0,0,0,0,0-.02,0-.04.01-.06l.86-5.67c.12-.77.62-1.4,1.26-1.58.25-.07.49-.06.73.01.35.11.65.42.81.83.18.45.14.96-.08,1.35-.12.2-.05.46.15.58.2.12.46.05.58-.15.19-.32.29-.67.31-1.05.02-.35-.04-.7-.17-1.03-.25-.65-.74-1.14-1.35-1.33Z"/>
        <path class="cls-2" d="M29.99,82.11c0-.82-.32-1.58-.9-2.16-.22-.22-.46-.39-.72-.53.01,0,.03-.02.04-.03.37-.27.65-.61.92-.93.49-.59.92-1.1,1.76-1.1.23,0,.42-.19.42-.42s-.19-.42-.42-.42c-.56,0-1.05.15-1.49.47-.37.27-.65.61-.92.93-.49.59-.92,1.1-1.76,1.1s-1.27-.51-1.76-1.1c-.27-.33-.56-.67-.92-.93-.44-.32-.93-.47-1.49-.47-.23,0-.42.19-.42.42s.19.42.42.42c.84,0,1.27.51,1.76,1.1.27.33.56.67.92.93.01,0,.03.02.04.03-.26.14-.5.32-.72.53-.58.58-.9,1.35-.9,2.16s.32,1.58.9,2.16c.58.58,1.35.9,2.16.9s1.58-.32,2.16-.9c.58-.58.9-1.35.9-2.16ZM26.93,84.32c-1.22,0-2.21-.99-2.21-2.21s.99-2.21,2.21-2.21,2.21.99,2.21,2.21-.99,2.21-2.21,2.21Z"/>
        <g>
          <path class="cls-2" d="M61.79,91.26c.11,0,.23,0,.35-.03,1.15-.19,1.94-1.29,1.74-2.44-.09-.56-.4-1.05-.86-1.38-.3-.22-.65-.35-1.01-.38,0,0,.02-.01.03-.02l.06-.04.06-.04.03-.02s.02-.01.03-.02l.12-.07s.04-.02.06-.03l.06-.03.06-.03.06-.03s.08-.04.13-.06l.13-.05h.03s.02-.02.03-.03l.07-.02s.09-.03.13-.05l.13-.04s.09-.02.13-.04c.02,0,.04-.01.07-.02l.07-.02s.09-.02.14-.03c.09-.02.18-.04.27-.05h.07s.03-.02.03-.02h.03s.14-.02.14-.02c.02,0,.05,0,.07,0h.07s.09-.01.14-.01h.14s.09,0,.14,0h.07s.05,0,.07,0h.14s.09.01.14.02h.07s.05.01.07.01l.14.02s.09.02.14.02h.07s.05.02.07.03l.14.03s.05.01.07.02l.07.02s.09.02.14.04c.18.05.36.11.53.18.17.07.34.15.51.23.17.09.33.18.48.28.31.21.6.44.86.71h0c.16.17.43.17.6,0,.17-.16.17-.43,0-.6-.3-.31-.64-.59-1-.83-.18-.12-.37-.23-.56-.33-.19-.1-.39-.19-.59-.27-.2-.08-.41-.15-.61-.21-.05-.02-.1-.03-.16-.04l-.08-.02s-.05-.01-.08-.02l-.16-.03s-.05-.01-.08-.02h-.08c-.05-.02-.11-.03-.16-.04l-.16-.02s-.05,0-.08,0h-.08c-.05-.01-.11-.02-.16-.02h-.16s-.05-.01-.08-.01h-.08c-.05,0-.11,0-.16,0h-.16c-.05,0-.11.01-.16.01h-.08s-.05,0-.08.01l-.16.02h-.04s-.04.01-.04.01h-.08c-.11.03-.21.05-.32.07-.05.01-.11.02-.16.04l-.08.02s-.05.01-.08.02c-.05.01-.11.03-.16.04l-.16.05c-.05.02-.1.04-.15.05l-.08.03h-.04s-.04.03-.04.03l-.15.06c-.05.02-.1.05-.15.07l-.07.03-.07.04-.07.04s-.05.02-.07.04l-.14.08s-.02.01-.04.02l-.03.02-.07.04-.07.04s-.05.03-.07.05c-.05.03-.09.06-.14.09-.18.13-.35.27-.51.42-.16.15-.31.32-.45.49-.14.18-.26.36-.37.55-.01.02-.02.04-.03.06-.3.45-.41.98-.32,1.51.17,1.04,1.07,1.77,2.09,1.77ZM60.76,88.4c.2-.28.49-.46.83-.52.07-.01.14-.02.21-.02.26,0,.52.08.74.24.28.2.46.49.52.83.11.69-.35,1.35-1.05,1.46-.07.01-.14.02-.21.02-.61,0-1.15-.44-1.25-1.06-.06-.34.02-.67.22-.95Z"/>
          <path class="cls-2" d="M68.36,88.54c-.46-.33-1.02-.46-1.58-.37-.56.09-1.05.4-1.38.86-.33.46-.46,1.02-.37,1.58.09.56.4,1.05.86,1.38.3.22.65.35,1.01.38,0,0-.02.01-.03.02l-.06.04-.06.04-.03.02s-.02.01-.03.02l-.12.07s-.04.02-.06.03l-.06.03-.06.03-.06.03s-.08.04-.13.06l-.13.05h-.03s-.02.02-.03.03l-.07.02s-.09.03-.13.05l-.13.04s-.09.02-.13.04c-.02,0-.04.01-.07.02l-.07.02s-.09.02-.14.03c-.09.02-.18.04-.27.05h-.07s-.03.02-.03.02h-.03s-.14.02-.14.02c-.02,0-.05,0-.07,0h-.07s-.09.01-.14.01h-.14s-.09,0-.14,0h-.07s-.05,0-.07,0h-.14s-.09-.01-.14-.02h-.07s-.05-.01-.07-.01l-.14-.02s-.09-.02-.14-.02h-.07s-.05-.02-.07-.03l-.14-.03s-.05-.01-.07-.02l-.07-.02s-.09-.02-.14-.04c-.18-.05-.36-.11-.53-.18-.17-.07-.34-.15-.51-.23-.17-.09-.33-.18-.48-.28-.31-.21-.6-.44-.86-.71h0c-.16-.17-.43-.17-.6,0-.17.16-.17.43,0,.6.3.31.64.59,1,.83.18.12.37.23.56.33.19.1.39.19.59.27.2.08.41.15.61.21.05.02.1.03.16.04l.08.02s.05.01.08.02l.16.03s.05.01.08.02h.08c.05.02.11.03.16.04l.16.02s.05,0,.08,0h.08c.05.01.11.02.16.02h.16s.05.01.08.01h.08c.05,0,.11,0,.16,0h.16c.05,0,.11-.01.16-.01h.08s.05,0,.08-.01l.16-.02h.04s.04-.01.04-.01h.08c.11-.03.21-.05.32-.07.05-.01.11-.02.16-.04l.08-.02s.05-.01.08-.02c.05-.01.11-.03.16-.04l.16-.05c.05-.02.1-.04.15-.05l.08-.03h.04s.04-.03.04-.03l.15-.06c.05-.02.1-.05.15-.07l.07-.03.07-.04.07-.04s.05-.02.07-.04l.14-.08s.02-.01.04-.02l.03-.02.07-.04.07-.04s.05-.03.07-.05c.05-.03.09-.06.14-.09.18-.13.35-.27.51-.42.16-.15.31-.32.45-.49.14-.18.26-.36.37-.55.01-.02.02-.04.03-.06.3-.45.41-.98.32-1.51-.09-.56-.4-1.05-.86-1.38ZM68.16,91.01c-.2.28-.49.46-.83.52-.34.06-.67-.02-.95-.22-.28-.2-.46-.49-.52-.83-.06-.34.02-.67.22-.95.2-.28.49-.46.83-.52.07-.01.14-.02.21-.02.26,0,.52.08.74.24.28.2.46.49.52.83.06.34-.02.67-.22.95Z"/>
        </g>
        <path class="cls-2" d="M84.14,84.06c-.22-.08-.46.04-.54.26-.07.21-.42.57-.85.67-.3.07-.55,0-.77-.21-.54-.52.13-2.21.71-3.71.38-.97.77-1.98.96-2.89.23-1.13.11-1.96-.37-2.53-.26-.31-.63-.55-1.05-.66-.4-.11-.82-.09-1.17.05-.66.26-1.15.99-1.42,2.1-.18.76-.26,1.68-.23,2.7-.24-.13-.52-.2-.81-.2-.98,0-1.77.79-1.77,1.77s.79,1.77,1.77,1.77,1.77-.79,1.77-1.77c0-.13-.02-.27-.04-.39,0-.03,0-.06,0-.1-.31-3.11.32-4.82,1.04-5.11.35-.14.92-.04,1.26.36.72.86-.05,2.83-.74,4.58-.36.92-.7,1.78-.86,2.54-.09.44-.12.8-.09,1.12.04.4.19.72.44.96.32.31.72.47,1.14.47.13,0,.27-.02.41-.05.41-.1.72-.31.91-.47.26-.22.45-.49.54-.74.08-.22-.04-.46-.26-.54ZM78.62,82.35c-.51,0-.92-.41-.92-.92s.41-.92.92-.92.92.41.92.92-.41.92-.92.92Z"/>
        <path class="cls-2" d="M60.48,22.6c.11,0,.22-.04.3-.12l1.72-1.72.99.99c.08.08.19.12.3.12s.22-.04.3-.12c.17-.17.17-.43,0-.6l-.99-.99,4.66-4.66-.11,1.64c-.02.23.16.44.39.45,0,0,.02,0,.03,0,.22,0,.41-.17.42-.39l.19-2.77c0-.12-.04-.24-.12-.33-.09-.09-.21-.13-.33-.12l-2.77.19c-.23.02-.41.22-.39.45.02.23.22.41.45.39l1.64-.11-4.66,4.66-.99-.99c-.17-.17-.43-.17-.6,0-.17.17-.17.43,0,.6l.99.99-1.72,1.72c-.17.17-.17.43,0,.6.08.08.19.12.3.12ZM30.65,77.06v.02s0,0,0,0c0,0,0,0,0,0h.02Z"/>
        <g>
          <path class="cls-2" d="M22.24,26.6c.08.12.21.18.35.18.08,0,.17-.02.24-.08l1.72-1.19,1.72,1.19c.14.1.34.1.48,0l1.72-1.19,1.72,1.19c.14.1.34.1.48,0l1.96-1.36c.19-.13.24-.4.11-.59-.13-.19-.4-.24-.59-.11l-1.72,1.19-1.72-1.19c-.14-.1-.34-.1-.48,0l-1.72,1.19-1.72-1.19c-.14-.1-.34-.1-.48,0l-1.96,1.36c-.19.13-.24.4-.11.59Z"/>
          <path class="cls-2" d="M32.15,27.16l-1.72,1.19-1.72-1.19c-.14-.1-.34-.1-.48,0l-1.72,1.19-1.72-1.19c-.14-.1-.34-.1-.48,0l-1.96,1.36c-.19.13-.24.4-.11.59.08.12.21.18.35.18.08,0,.17-.02.24-.08l1.72-1.19,1.72,1.19c.14.1.34.1.48,0l1.72-1.19,1.72,1.19c.14.1.34.1.48,0l1.96-1.36c.19-.13.24-.4.11-.59-.13-.19-.4-.24-.59-.11Z"/>
        </g>
        <path class="cls-2" d="M20.82,48.9c.08.08.19.12.29.12.11,0,.23-.04.31-.13.16-.17.15-.44-.02-.6-.34-.32-.64-.86-.86-1.52-.19-.6-.31-1.28-.34-2h1.15c.23,0,.42-.19.42-.42s-.19-.42-.42-.42h-1.15c.03-.71.15-1.4.34-2,.21-.66.52-1.2.86-1.52.17-.16.18-.43.02-.6-.16-.17-.43-.18-.6-.02-.85.8-1.39,2.36-1.47,4.14h-2.64c-.08-1.78-.62-3.34-1.47-4.14-.17-.16-.44-.15-.6.02-.16.17-.15.44.02.6.34.32.64.86.86,1.52.19.6.31,1.28.34,2h-1.1c-.23,0-.42.19-.42.42s.19.42.42.42h1.1c-.03.71-.15,1.4-.34,2-.21.66-.52,1.2-.86,1.52-.17.16-.18.43-.02.6.08.09.2.13.31.13.1,0,.21-.04.29-.12.85-.8,1.39-2.36,1.47-4.14h2.64c.08,1.78.62,3.34,1.47,4.14Z"/>
        <path class="cls-2" d="M88.62,60.94c.52-.33.81-.4.96-.41.05.13.13.46.19,1.27.04.65.05,1.5.04,2.52-.03,1.75-.13,3.42-.13,3.43-.01.23.16.43.4.45,0,0,.02,0,.03,0,.22,0,.41-.17.42-.4,0-.02.12-1.9.14-3.78.01-1.07-.01-1.95-.07-2.6.12-.1.37-.31.68-.5.51-.33.8-.39.95-.4.04.1.1.34.15.87.05.48.07,1.12.08,1.89,0,1.43-.06,2.99-.1,3.8-.03.67.14,1.31.5,1.85-.53.35-1.15.64-1.85.88-.22.07-.34.31-.27.54.06.18.22.29.4.29.04,0,.09,0,.13-.02.81-.27,1.54-.63,2.15-1.05.27.22.57.35.88.39.02,0,.04,0,.06,0,.21,0,.39-.15.42-.37.03-.23-.13-.44-.36-.48-.1-.01-.2-.05-.3-.1.07-.06.13-.12.19-.18.64-.64,1.02-1.36,1.08-2.02.05-.57-.16-1.04-.57-1.26-.32-.18-.66-.18-.95-.02-.25.14-.47.4-.64.8.04-.94.08-2.21.06-3.35-.01-.85-.05-1.52-.12-2.01-.08-.59-.22-1.14-.66-1.25-.45-.11-1.01.06-1.71.51-.13.08-.24.16-.35.24,0-.02-.01-.05-.02-.07-.04-.15-.17-.59-.55-.68-.45-.11-1.01.06-1.71.51-.15.1-.29.19-.41.28-.03-.18-.07-.26-.11-.32-.28-.45-.74-.67-1.28-.6-.36.04-.64.2-.67.22-.2.12-.27.37-.16.58.12.2.37.27.58.16,0,0,.16-.09.35-.11.21-.02.34.03.45.19.02.06.08.33.1,1.33.01.63.01,1.46,0,2.46-.03,1.71-.09,3.34-.09,3.36,0,.23.17.43.41.44,0,0,.01,0,.02,0,.23,0,.41-.18.42-.41,0-.02.07-1.74.1-3.5.02-1.04.02-1.89,0-2.53,0-.09,0-.17,0-.25.01,0,.03-.02.04-.03,0,0,.33-.29.74-.56ZM93.74,67.52c.17-.8.39-1.17.52-1.25,0,0,.02,0,.03,0,.02,0,.05,0,.1.03.1.06.15.23.13.45-.04.46-.35,1-.84,1.5-.03.03-.05.05-.08.08.02-.22.07-.51.13-.81Z"/>
        <path class="cls-2" d="M78.6,23.51c-.02-.07-.05-.11-.07-.15-.28-.45-.74-.67-1.28-.6-.36.04-.64.2-.67.22-.2.12-.27.37-.16.58.12.2.37.27.58.16,0,0,.16-.09.35-.11.21-.02.34.03.45.19.02.06.08.33.1,1.33.01.63.01,1.46,0,2.46-.03,1.71-.09,3.34-.09,3.36,0,.23.17.43.41.44,0,0,.01,0,.02,0,.23,0,.41-.18.42-.41,0-.02.07-1.74.1-3.5.02-1.04.02-1.89,0-2.53,0-.17-.01-.31-.02-.45.02-.01.03-.02.05-.04,0,0,.33-.29.74-.56.52-.33.81-.4.96-.41.05.13.13.46.19,1.27.04.65.05,1.5.04,2.52-.03,1.75-.13,3.42-.13,3.43-.01.23.16.43.4.45,0,0,.02,0,.03,0,.22,0,.41-.17.42-.4,0-.02.12-1.9.14-3.78.01-1.06-.01-1.93-.07-2.57.12-.1.38-.31.68-.51.52-.34.82-.41.96-.42.07.16.2.71.21,2.36,0,1.22-.06,2.56-.1,3.25-.04.7.21,1.37.71,1.89.26.27.55.47.86.57l-.49.14c-.22.06-.36.3-.29.52.05.19.22.31.41.31.04,0,.08,0,.12-.02l1.62-.46c.12-.03.22-.12.27-.23.05-.11.05-.24,0-.35l-.68-1.54c-.09-.21-.34-.31-.56-.22-.21.09-.31.34-.22.56l.23.53c-.23-.05-.45-.18-.67-.4-.34-.35-.51-.79-.48-1.25.05-.78.12-2.29.1-3.6-.01-.74-.05-1.33-.12-1.76-.04-.27-.1-.48-.16-.64-.12-.27-.29-.44-.51-.48-.45-.09-1,.08-1.7.54-.12.08-.24.16-.34.24,0-.03-.02-.06-.02-.09-.04-.15-.17-.59-.55-.68-.45-.11-1.01.06-1.71.51-.17.11-.32.22-.45.32Z"/>
        <path class="cls-2" d="M41.2,13.32s.16-.09.35-.11c.21-.02.34.03.45.19.02.06.08.33.1,1.33.01.63.01,1.46,0,2.46-.03,1.71-.09,3.34-.09,3.36,0,.23.17.43.41.44,0,0,.01,0,.02,0,.23,0,.41-.18.42-.41,0-.02.07-1.74.1-3.5.01-.83.01-1.54,0-2.11.05-.03.09-.07.13-.12,0,0,.33-.45.82-.79.6-.42,1.13-.48,1.61-.19.02.01.52.35.53,3.58,0,1.55-.11,3.06-.13,3.34-.19.17-.36.34-.52.5-.26.26-.48.48-.65.6-.45.34-.81.47-.99.52-.05.01-.09.02-.14.03-.22.03-.38.23-.36.46.02.21.18.38.39.4.08,0,.15,0,.21-.04.24-.05.75-.21,1.39-.69.21-.16.45-.4.73-.67.1-.1.21-.21.32-.32.25.3.64.68,1.16.94.32.16.71.23,1.09.19.42-.04.8-.2,1.1-.46.37-.32.66-.97.52-1.6-.08-.33-.35-.93-1.31-1.17-.6-.15-1.24.01-1.97.5-.03.02-.06.04-.09.06.04-.66.08-1.62.08-2.59,0-1.04-.05-1.9-.15-2.56-.15-.96-.4-1.51-.79-1.74-.44-.26-.91-.35-1.4-.27-.37.06-.75.23-1.13.49-.2.14-.37.28-.51.42-.04-.56-.11-.71-.17-.82-.28-.45-.74-.67-1.28-.6-.36.04-.64.2-.67.22-.2.12-.27.37-.16.58.12.2.37.27.58.16ZM47.38,20.68c.51-.35.93-.47,1.29-.38.4.1.63.28.69.55.07.28-.07.62-.24.76-.37.32-.93.31-1.26.15-.41-.2-.72-.51-.91-.75.14-.12.29-.23.43-.33Z"/>
        <g>
          <path class="cls-2" d="M70.29,72.44c.62,0,1.21-.24,1.65-.68.44-.44.68-1.03.68-1.65s-.24-1.21-.68-1.65c-.44-.44-1.03-.68-1.65-.68s-1.21.24-1.65.68-.68,1.03-.68,1.65.24,1.21.68,1.65,1.03.68,1.65.68ZM70.29,68.25c1.02,0,1.86.83,1.86,1.86s-.83,1.86-1.86,1.86-1.86-.83-1.86-1.86.83-1.86,1.86-1.86Z"/>
          <path class="cls-2" d="M70.29,70.56c.25,0,.45-.2.45-.45s-.2-.45-.45-.45-.45.2-.45.45.2.45.45.45Z"/>
        </g>
        <path class="cls-2" d="M30.01,62.28c.21.21.45.37.73.48.26.11.54.16.83.16s.56-.05.83-.16c.27-.11.52-.27.73-.48.21-.21.37-.45.48-.73.11-.26.16-.54.16-.83s-.05-.56-.16-.83c-.08-.21-.2-.4-.34-.58l1.14-1.14-.05.47c-.01.11.07.21.19.22,0,0,.01,0,.02,0,.1,0,.19-.08.2-.19l.1-1.05c0-.06-.02-.12-.06-.17-.04-.04-.1-.07-.17-.06l-1.05.1c-.11.01-.2.11-.19.22.01.11.11.2.22.19l.47-.05-1.14,1.14c-.17-.14-.37-.26-.58-.34-.26-.11-.54-.16-.83-.16s-.56.05-.83.16c-.27.11-.52.27-.73.48-.21.21-.37.45-.48.73-.11.26-.16.54-.16.83s.05.56.16.83c.11.27.27.52.48.73ZM30.3,59.45c.34-.34.79-.52,1.26-.52s.93.19,1.26.52c.34.34.52.79.52,1.26s-.19.93-.52,1.26c-.34.34-.79.52-1.26.52s-.93-.19-1.26-.52c-.34-.34-.52-.79-.52-1.26s.19-.93.52-1.26Z"/>
        <path class="cls-2" d="M68,36.53c-.21.21-.37.45-.48.73-.11.26-.16.54-.16.83s.05.56.16.83c.11.27.27.52.48.73.21.21.45.37.73.48.26.11.54.16.83.16s.56-.05.83-.16c.27-.11.52-.27.73-.48.21-.21.37-.45.48-.73.11-.26.16-.54.16-.83s-.05-.56-.16-.83c-.08-.21-.2-.4-.34-.58l1.14-1.14-.05.47c-.01.11.07.21.19.22,0,0,.01,0,.02,0,.1,0,.19-.08.2-.19l.1-1.05c0-.06-.02-.12-.06-.17-.04-.04-.1-.07-.17-.06l-1.05.1c-.11.01-.2.11-.19.22.01.11.11.2.22.19l.47-.05-1.14,1.14c-.17-.14-.37-.26-.58-.34-.26-.11-.54-.16-.83-.16s-.56.05-.83.16c-.27.11-.52.27-.73.48ZM70.82,36.82c.34.34.52.79.52,1.26s-.19.93-.52,1.26c-.34.34-.79.52-1.26.52s-.93-.19-1.26-.52c-.34-.34-.52-.79-.52-1.26s.19-.93.52-1.26c.34-.34.79-.52,1.26-.52s.93.19,1.26.52Z"/>
        <path class="cls-2" d="M46.75,73.45c-.09.07-.1.2-.03.29l.44.55s-.1.08-.14.13c-.37.37-.57.85-.57,1.37s.2,1,.57,1.37c.32.32.72.51,1.16.56v.91h-.53c-.11,0-.21.09-.21.21s.09.21.21.21h.53v.47c0,.11.09.21.21.21s.21-.09.21-.21v-.47h.53c.11,0,.21-.09.21-.21s-.09-.21-.21-.21h-.53v-.91c.44-.05.85-.24,1.16-.56.37-.37.57-.85.57-1.37s-.2-1-.57-1.37c-.05-.05-.09-.09-.14-.13l.44-.55c.07-.09.06-.22-.03-.29-.09-.07-.22-.06-.29.03l-.46.58c-.27-.14-.57-.21-.88-.21s-.61.07-.88.21l-.46-.58c-.07-.09-.2-.1-.29-.03ZM47.51,74.54s.05-.02.07-.04c.01,0,.02-.02.03-.03.22-.13.49-.21.76-.21s.54.08.76.21c0,.01.02.02.03.03.02.02.05.03.07.04.39.28.65.73.65,1.25,0,.84-.68,1.52-1.52,1.52s-1.52-.68-1.52-1.52c0-.52.26-.97.65-1.25Z"/>
        <path class="cls-2" d="M74.61,57.08c-.07-.09-.2-.1-.29-.03-.09.07-.1.2-.03.29l.44.55s-.1.08-.14.13c-.37.37-.57.85-.57,1.37s.2,1,.57,1.37c.32.32.72.51,1.16.56v.91h-.53c-.11,0-.21.09-.21.21s.09.21.21.21h.53v.47c0,.11.09.21.21.21s.21-.09.21-.21v-.47h.53c.11,0,.21-.09.21-.21s-.09-.21-.21-.21h-.53v-.91c.44-.05.85-.24,1.16-.56.37-.37.57-.85.57-1.37s-.2-1-.57-1.37c-.05-.05-.09-.09-.14-.13l.44-.55c.07-.09.06-.22-.03-.29-.09-.07-.22-.06-.29.03l-.46.58c-.27-.14-.57-.21-.88-.21s-.61.07-.88.21l-.46-.58ZM75.15,58.1s.02-.02.03-.03c.22-.13.49-.21.76-.21s.54.08.76.21c0,.01.02.02.03.03.02.02.05.03.07.04.39.28.65.73.65,1.25,0,.84-.68,1.52-1.52,1.52s-1.52-.68-1.52-1.52c0-.52.26-.97.65-1.25.03,0,.05-.02.07-.04Z"/>
        <path class="cls-2" d="M38.32,71.99h-.53v-.91c.44-.05.85-.24,1.16-.56.37-.37.57-.85.57-1.37s-.2-1-.57-1.37c-.37-.37-.85-.57-1.37-.57s-1,.2-1.37.57c-.37.37-.57.85-.57,1.37s.2,1,.57,1.37c.32.32.72.51,1.16.56v.91h-.53c-.11,0-.21.09-.21.21s.09.21.21.21h.53v.47c0,.11.09.21.21.21s.21-.09.21-.21v-.47h.53c.11,0,.21-.09.21-.21s-.09-.21-.21-.21ZM37.58,70.69c-.84,0-1.52-.68-1.52-1.52s.68-1.52,1.52-1.52,1.52.68,1.52,1.52-.68,1.52-1.52,1.52Z"/>
        <path class="cls-2" d="M76.16,45.06c-.52,0-1,.2-1.37.57-.37.37-.57.85-.57,1.37s.2,1,.57,1.37c.32.32.72.51,1.16.56v.91h-.53c-.11,0-.21.09-.21.21s.09.21.21.21h.53v.47c0,.11.09.21.21.21s.21-.09.21-.21v-.47h.53c.11,0,.21-.09.21-.21s-.09-.21-.21-.21h-.53v-.91c.44-.05.85-.24,1.16-.56.37-.37.57-.85.57-1.37s-.2-1-.57-1.37c-.37-.37-.85-.57-1.37-.57ZM76.16,48.52c-.84,0-1.52-.68-1.52-1.52s.68-1.52,1.52-1.52,1.52.68,1.52,1.52-.68,1.52-1.52,1.52Z"/>
        <path class="cls-2" d="M59.38,77.95c.25.25.55.45.88.59.34.14.7.22,1.07.22.34,0,.67-.06.99-.18.08-.03.13-.11.13-.19s-.05-.16-.13-.19c-.9-.35-1.51-1.23-1.51-2.19s.61-1.85,1.51-2.19c.08-.03.13-.11.13-.19s-.05-.16-.13-.19c-.32-.12-.65-.18-.99-.18-.37,0-.73.07-1.07.22-.33.14-.62.34-.88.59-.25.25-.45.55-.59.88-.14.34-.22.7-.22,1.07s.07.73.22,1.07c.14.33.34.62.59.88ZM61.33,73.65c.11,0,.23,0,.34.02-.3.19-.56.44-.77.74-.33.46-.5,1.01-.5,1.58s.17,1.12.5,1.58c.21.3.47.55.77.74-.11.02-.22.02-.34.02-1.29,0-2.35-1.05-2.35-2.35s1.05-2.35,2.35-2.35Z"/>
        <path class="cls-2" d="M50.19,34.38s-.2.1-.43.11c-.3.02-.52-.1-.67-.36-.18-.3,0-.67.19-1.09.12-.25.24-.51.29-.78.06-.33,0-.61-.18-.87-.18-.25-.41-.39-.68-.42-.28-.03-.59.05-.92.25-.04.03-.08.05-.12.08v-1.53h.56c.11,0,.21-.09.21-.21s-.09-.21-.21-.21h-.56v-.5c0-.11-.09-.21-.21-.21s-.21.09-.21.21v.5h-.56c-.11,0-.21.09-.21.21s.09.21.21.21h.56v4.96c0,.11.09.21.21.21s.21-.09.21-.21v-2.91s.16-.13.33-.23c.18-.1.44-.22.67-.2.16.02.29.1.39.25.24.34.1.69-.15,1.23-.11.23-.22.46-.27.7-.07.29-.04.54.09.77.13.22.3.38.5.47.14.07.3.1.47.1.03,0,.05,0,.08,0,.33-.02.59-.15.6-.15.1-.05.14-.18.09-.28-.05-.1-.18-.14-.28-.09Z"/>
        <path class="cls-2" d="M39.97,39.7s-.2.1-.43.11c-.3.02-.52-.1-.67-.36-.18-.3,0-.67.19-1.09.12-.25.24-.51.29-.78.06-.33,0-.61-.18-.87-.18-.25-.41-.39-.68-.42-.28-.03-.59.05-.92.25-.04.03-.08.05-.12.08v-1.53h.56c.11,0,.21-.09.21-.21s-.09-.21-.21-.21h-.56v-.5c0-.11-.09-.21-.21-.21s-.21.09-.21.21v.5h-.56c-.11,0-.21.09-.21.21s.09.21.21.21h.56v4.96c0,.11.09.21.21.21s.21-.09.21-.21v-2.91s.16-.13.33-.23c.18-.1.44-.22.67-.2.16.02.29.1.39.25.24.34.1.69-.15,1.23-.11.23-.22.46-.27.7-.07.29-.04.54.09.77.13.22.3.38.5.47.14.07.3.1.47.1.03,0,.05,0,.08,0,.33-.02.59-.15.6-.15.1-.05.14-.18.09-.28-.05-.1-.18-.14-.28-.09Z"/>
        <path class="cls-2" d="M62.15,34.09c0-.11-.09-.21-.21-.21h-.49v-4.42c0-.11-.09-.21-.21-.21s-.21.09-.21.21v4.42h-2.13c.25-.16.55-.37.82-.64.32-.31.57-.65.75-1.02.22-.44.33-.92.33-1.42,0-.39-.1-.75-.29-1.03-.21-.32-.51-.5-.86-.53-.29-.02-.61.09-.88.31-.29.24-.49.59-.56.98-.02.11.05.22.17.24.11.02.22-.05.24-.17.05-.29.2-.55.42-.73.18-.15.4-.23.58-.22.28.02.45.2.55.35.14.21.22.5.22.81,0,1.27-.77,2.3-2.29,3.06-.05.02-.08.04-.1.05,0,0,0,0,0,0,0,0,0,0,0,0,0,0,0,0,0,0,0,0,0,0-.01,0,0,0,0,0,0,0,0,0,0,0,0,0,0,0,0,0,0,0,0,0,0,0,0,0,0,0,0,0,0,0,0,0,0,0,0,0,0,0,0,0,0,0,0,0,0,0,0,0,0,0,0,0,0,0,0,0,0,0,0,0,0,0,0,0,0,0,0,0,0,0,0,.01,0,0,0,0,0,0,0,0,0,0,0,.01,0,0,0,0,0,0,0,0,0,0,0,.01,0,0,0,0,0,0,0,0,0,0,0,0,0,0,0,0,0,.01,0,0,0,0,0,0,0,0,0,0,0,0,0,0,0,0,0,.01,0,0,0,0,0,0,0,0,0,0,0,.01,0,0,0,0,0,0,0,0,0,0,0,0,0,0,0,0,0,.01,0,0,0,0,0,0,0,0,0,0,0,.01,0,0,0,0,0,0,0,0,0,0,0,.01,0,0,0,0,0,0,0,0,0,0,0,0,0,0,0,.01.01.02,0,0,0,0,0,0,0,0,.01.01.02.02,0,0,0,0,0,0,0,0,0,0,.01.01,0,0,0,0,0,0,0,0,.01,0,.02,0,0,0,0,0,0,0,0,0,.01,0,.02.01,0,0,0,0,0,0,0,0,.01,0,.02,0,0,0,0,0,0,0,0,0,.01,0,.02,0,0,0,0,0,0,0,0,0,.02,0,.02,0,0,0,0,0,0,0,0,0,0,0,0,0h2.93v.88c0,.11.09.21.21.21s.21-.09.21-.21v-.88h.49c.11,0,.21-.09.21-.21Z"/>
        <path class="cls-2" d="M33.41,50.84v-.88h.49c.11,0,.21-.09.21-.21s-.09-.21-.21-.21h-.49v-4.42c0-.11-.09-.21-.21-.21s-.21.09-.21.21v4.42h-2.13c.25-.16.55-.37.82-.64.32-.31.57-.65.75-1.02.22-.44.33-.92.33-1.42,0-.39-.1-.75-.29-1.03-.21-.32-.51-.5-.86-.53-.29-.02-.61.09-.88.31-.29.24-.49.59-.56.98-.02.11.05.22.17.24.11.02.22-.05.24-.17.05-.29.2-.55.42-.73.18-.15.4-.23.58-.22.28.02.45.2.55.35.14.21.22.5.22.81,0,1.27-.77,2.3-2.29,3.06-.05.02-.08.04-.1.05,0,0,0,0,0,0,0,0,0,0,0,0,0,0,0,0,0,0,0,0,0,0-.01,0,0,0,0,0,0,0,0,0,0,0,0,0,0,0,0,0,0,0,0,0,0,0,0,0,0,0,0,0,0,0,0,0,0,0,0,0,0,0,0,0,0,0,0,0,0,0,0,0,0,0,0,0,0,0,0,0,0,0,0,0,0,0,0,0,0,0,0,0,0,0,0,.01,0,0,0,0,0,0,0,0,0,0,0,.01,0,0,0,0,0,0,0,0,0,0,0,.01,0,0,0,0,0,0,0,0,0,0,0,0,0,0,0,0,0,.01,0,0,0,0,0,0,0,0,0,0,0,0,0,0,0,0,0,.01,0,0,0,0,0,0,0,0,0,0,0,.01,0,0,0,0,0,0,0,0,0,0,0,0,0,0,0,0,0,.01,0,0,0,0,0,0,0,0,0,0,0,.01,0,0,0,0,0,0,0,0,0,0,0,.01,0,0,0,0,0,0,0,0,0,0,0,0,0,0,0,.01.01.02,0,0,0,0,0,0,0,0,.01.01.02.02,0,0,0,0,0,0,0,0,0,0,.01.01,0,0,0,0,0,0,0,0,.01,0,.02,0,0,0,0,0,0,0,0,0,.01,0,.02.01,0,0,0,0,0,0,0,0,.01,0,.02,0,0,0,0,0,0,0,0,0,.01,0,.02,0,0,0,0,0,0,0,0,0,.02,0,.02,0,0,0,0,0,0,0,0,0,0,0,0,0h2.93v.88c0,.11.09.21.21.21s.21-.09.21-.21Z"/>
        <path class="cls-2" d="M66.44,52.89c-.01-.14-.12-.25-.26-.26l-5.41-.42,4.55-2.95c.12-.08.16-.23.11-.35-.06-.13-.2-.2-.33-.16l-5.25,1.35,3.35-4.27c.09-.11.08-.27-.01-.37-.09-.1-.25-.12-.37-.04l-4.53,2.99,1.78-5.12c.05-.13-.01-.28-.13-.34-.12-.07-.28-.03-.36.08l-3.31,4.29.02-5.42c0-.14-.1-.26-.24-.28-.14-.02-.27.06-.32.19l-1.74,5.14-1.74-5.14c-.04-.13-.18-.21-.32-.19-.14.02-.24.14-.24.28l.02,5.42-3.31-4.29c-.09-.11-.24-.14-.36-.08-.12.07-.18.21-.13.34l1.78,5.12-4.53-2.99c-.12-.08-.27-.06-.37.04-.09.1-.1.26-.01.37l3.35,4.27-5.25-1.35c-.14-.03-.28.03-.33.16-.06.13-.01.28.11.35l4.55,2.95-5.41.42c-.14.01-.25.12-.26.26-.01.14.08.27.21.3l5.26,1.31-4.98,2.16c-.13.06-.2.2-.16.33.03.14.16.23.3.21l5.4-.47-4.01,3.66c-.1.09-.12.25-.05.37.08.12.23.16.35.1l4.96-2.2-2.6,4.76c-.07.12-.04.28.07.36.11.09.27.08.37-.02l3.97-3.69-.92,5.35c-.02.14.06.27.19.32.13.05.28-.01.34-.13l2.56-4.78.87,5.35c.02.14.14.24.28.24s.26-.1.28-.24l.87-5.35,2.56,4.78c.07.12.21.18.34.13.13-.05.21-.18.19-.32l-.92-5.35,3.97,3.69c.1.09.26.1.37.02.11-.09.14-.24.07-.36l-2.6-4.76,4.96,2.2c.13.06.28.01.35-.1.08-.12.06-.27-.05-.37l-4.01-3.66,5.4.47c.14.01.27-.08.3-.21.03-.14-.03-.28-.16-.33l-4.98-2.16,5.26-1.31c.14-.03.23-.16.21-.3ZM60.01,54.14c-.12.03-.2.13-.21.25-.01.12.06.24.17.28l4.14,1.79-4.5-.39c-.12-.01-.24.06-.29.17-.05.11-.02.24.07.32l3.33,3.04-4.12-1.83c-.11-.05-.24-.02-.32.07-.08.09-.1.22-.04.33l2.17,3.96-3.31-3.07c-.09-.08-.22-.1-.33-.04-.11.06-.17.18-.14.3l.76,4.45-2.13-3.98c-.06-.11-.18-.17-.3-.15-.12.02-.21.11-.23.23l-.72,4.45-.72-4.45c-.02-.12-.11-.21-.23-.23-.02,0-.03,0-.05,0-.1,0-.2.06-.25.15l-2.13,3.98.76-4.45c.02-.12-.04-.24-.14-.3-.11-.06-.24-.04-.33.04l-3.31,3.07,2.17-3.96c.06-.11.04-.24-.04-.33-.08-.09-.21-.12-.32-.07l-4.12,1.83,3.33-3.04c.09-.08.12-.21.07-.32-.05-.11-.16-.18-.29-.17l-4.5.39,4.14-1.79c.11-.05.18-.16.17-.28-.01-.12-.1-.22-.21-.25l-4.38-1.09,4.5-.35c.12,0,.22-.1.25-.21.03-.12-.02-.24-.12-.31l-3.79-2.45,4.37,1.13c.12.03.24-.02.31-.12.07-.1.06-.24-.01-.33l-2.79-3.55,3.77,2.48c.1.07.24.06.33-.01.1-.07.13-.2.09-.32l-1.48-4.26,2.76,3.57c.07.1.2.13.32.1.12-.04.19-.15.19-.27l-.02-4.51,1.45,4.27c.04.12.15.19.27.19s.23-.08.27-.19l1.45-4.27-.02,4.51c0,.12.08.23.19.27.12.04.24,0,.32-.1l2.76-3.57-1.48,4.26c-.04.12,0,.24.09.32.1.07.23.08.33.01l3.77-2.48-2.79,3.55c-.08.1-.08.23-.01.33.07.1.19.15.31.12l4.37-1.13-3.79,2.45c-.1.07-.15.19-.12.31.03.12.13.2.25.21l4.5.35-4.38,1.09Z"/>
        <path class="cls-2" d="M54,72c-9.92,0-18-8.07-18-18s8.07-18,18-18,18,8.07,18,18-8.07,18-18,18ZM54,37.11c-9.31,0-16.89,7.58-16.89,16.89s7.58,16.89,16.89,16.89,16.89-7.58,16.89-16.89-7.58-16.89-16.89-16.89Z"/>
        <path class="cls-2" d="M54,83.23c-16.12,0-29.23-13.11-29.23-29.23s13.11-29.23,29.23-29.23,29.23,13.11,29.23,29.23-13.11,29.23-29.23,29.23ZM54,25.88c-15.51,0-28.12,12.62-28.12,28.12s12.62,28.12,28.12,28.12,28.12-12.62,28.12-28.12-12.62-28.12-28.12-28.12Z"/>
        <path class="cls-2" d="M54,101.39c-26.13,0-47.4-21.26-47.4-47.4S27.87,6.6,54,6.6s47.4,21.26,47.4,47.39-21.26,47.4-47.4,47.4ZM54,7.71C28.48,7.71,7.71,28.48,7.71,54s20.76,46.29,46.29,46.29,46.29-20.76,46.29-46.29S79.52,7.71,54,7.71Z"/>
        <path class="cls-2" d="M54,108C24.22,108,0,83.78,0,54S24.22,0,54,0s54,24.22,54,54-24.22,54-54,54ZM54,1.11C24.84,1.11,1.11,24.84,1.11,54s23.73,52.89,52.89,52.89,52.89-23.73,52.89-52.89S83.16,1.11,54,1.11Z"/>
        <g>
          <rect class="cls-2" x="53.65" y="22.71" width="36.01" height="1.11" transform="translate(15.8 73.82) rotate(-60.14)"/>
          <rect class="cls-2" x="53.45" y=".55" width="1.11" height="36"/>
          <rect class="cls-2" x="66.62" y="35.59" width="36.01" height="1.11" transform="translate(-6.69 47.56) rotate(-30.26)"/>
          <rect class="cls-2" x="53.65" y="22.71" width="36.01" height="1.11" transform="translate(15.8 73.82) rotate(-60.14)"/>
          <rect class="cls-2" x="35.59" y="5.38" width="1.11" height="36" transform="translate(-6.86 21.39) rotate(-30.24)"/>
          <rect class="cls-2" x="22.71" y="18.34" width="1.11" height="36.01" transform="translate(-19.84 38.41) rotate(-60.12)"/>
          <rect class="cls-2" x=".55" y="53.44" width="36" height="1.11"/>
          <rect class="cls-2" x="53.45" y=".55" width="1.11" height="36"/>
          <rect class="cls-2" x="66.62" y="35.59" width="36.01" height="1.11" transform="translate(-6.69 47.56) rotate(-30.26)"/>
          <rect class="cls-2" x="71.44" y="53.44" width="36" height="1.11"/>
          <rect class="cls-2" x="53.45" y="71.44" width="1.11" height="36"/>
          <rect class="cls-2" x="18.33" y="84.18" width="36.01" height="1.11" transform="translate(-55.24 74.06) rotate(-60.14)"/>
          <rect class="cls-2" x="5.37" y="71.3" width="36.01" height="1.11" transform="translate(-33.02 21.57) rotate(-30.26)"/>
          <rect class="cls-2" x=".55" y="53.44" width="36" height="1.11"/>
          <rect class="cls-2" x="71.44" y="53.44" width="36" height="1.11"/>
          <rect class="cls-2" x="53.45" y="71.44" width="1.11" height="36"/>
          <rect class="cls-2" x="71.3" y="66.62" width="1.11" height="36" transform="translate(-32.84 47.7) rotate(-30.24)"/>
          <rect class="cls-2" x="84.18" y="53.65" width="1.11" height="36.01" transform="translate(-19.61 109.43) rotate(-60.12)"/>
          <rect class="cls-2" x="18.33" y="84.18" width="36.01" height="1.11" transform="translate(-55.24 74.06) rotate(-60.14)"/>
          <rect class="cls-2" x="5.37" y="71.3" width="36.01" height="1.11" transform="translate(-33.02 21.57) rotate(-30.26)"/>
        </g>
        <path class="cls-2" d="M104.38,66.53c0,.15-1.25.09-1.29.22s1,.83.91.94-1.06-.66-1.18-.58.33,1.25.19,1.3-.46-1.16-.61-1.16-.48,1.2-.61,1.16.3-1.22.19-1.3-1.09.69-1.18.58.96-.8.92-.94-1.29-.08-1.29-.22,1.25-.09,1.29-.22-1-.83-.91-.94,1.06.66,1.18.58-.33-1.25-.19-1.3.46,1.16.61,1.16.48-1.2.61-1.16-.3,1.22-.19,1.3,1.09-.69,1.18-.58-.96.8-.92.94,1.29.08,1.29.22Z"/>
        <path class="cls-2" d="M92.03,88.7c0,.15-1.25.09-1.29.22s1,.83.91.94-1.06-.66-1.18-.58.33,1.25.19,1.3-.46-1.16-.61-1.16-.48,1.2-.61,1.16.3-1.22.19-1.3-1.09.69-1.18.58.96-.8.92-.94-1.29-.08-1.29-.22,1.25-.09,1.29-.22-1-.83-.91-.94,1.06.66,1.18.58-.33-1.25-.19-1.3.46,1.16.61,1.16.48-1.2.61-1.16-.3,1.22-.19,1.3,1.09-.69,1.18-.58-.96.8-.92.94,1.29.08,1.29.22Z"/>
        <path class="cls-2" d="M69.98,102.18c0,.15-1.25.09-1.29.22s1,.83.91.94-1.06-.66-1.18-.58.33,1.25.19,1.3-.46-1.16-.61-1.16-.48,1.2-.61,1.16.3-1.22.19-1.3-1.09.69-1.18.58.96-.8.92-.94-1.29-.08-1.29-.22,1.25-.09,1.29-.22-1-.83-.91-.94,1.06.66,1.18.58-.33-1.25-.19-1.3.46,1.16.61,1.16.48-1.2.61-1.16-.3,1.22-.19,1.3,1.09-.69,1.18-.58-.96.8-.92.94,1.29.08,1.29.22Z"/>
        <path class="cls-2" d="M91.25,18.34c0,.15-1.25.09-1.29.22s1,.83.91.94-1.06-.66-1.18-.58.33,1.25.19,1.3-.46-1.16-.61-1.16-.48,1.2-.61,1.16.3-1.22.19-1.3-1.09.69-1.18.58.96-.8.92-.94-1.29-.08-1.29-.22,1.25-.09,1.29-.22-1-.83-.91-.94,1.06.66,1.18.58-.33-1.25-.19-1.3.46,1.16.61,1.16.48-1.2.61-1.16-.3,1.22-.19,1.3,1.09-.69,1.18-.58-.96.8-.92.94,1.29.08,1.29.22Z"/>
        <path class="cls-2" d="M68.79,5.5c0,.15-1.25.09-1.29.22s1,.83.91.94-1.06-.66-1.18-.58.33,1.25.19,1.3-.46-1.16-.61-1.16-.48,1.2-.61,1.16.3-1.22.19-1.3-1.09.69-1.18.58.96-.8.92-.94-1.29-.08-1.29-.22,1.25-.09,1.29-.22-1-.83-.91-.94,1.06.66,1.18.58-.33-1.25-.19-1.3.46,1.16.61,1.16.48-1.2.61-1.16-.3,1.22-.19,1.3,1.09-.69,1.18-.58-.96.8-.92.94,1.29.08,1.29.22Z"/>
        <path class="cls-2" d="M104.28,40.72c0,.15-1.25.09-1.29.22s1,.83.91.94-1.06-.66-1.18-.58.33,1.25.19,1.3-.46-1.16-.61-1.16-.48,1.2-.61,1.16.3-1.22.19-1.3-1.09.69-1.18.58.96-.8.92-.94-1.29-.08-1.29-.22,1.25-.09,1.29-.22-1-.83-.91-.94,1.06.66,1.18.58-.33-1.25-.19-1.3.46,1.16.61,1.16.48-1.2.61-1.16-.3,1.22-.19,1.3,1.09-.69,1.18-.58-.96.8-.92.94,1.29.08,1.29.22Z"/>
        <path class="cls-2" d="M4.87,66.53c0,.15-1.2.48-1.16.61s1.22-.3,1.3-.19-.69,1.09-.58,1.18.8-.96.94-.92.08,1.29.22,1.29.09-1.25.22-1.29.83,1,.94.91-.66-1.06-.58-1.18,1.25.33,1.3.19-1.16-.46-1.16-.61c0-.15,1.2-.48,1.16-.61s-1.22.3-1.3.19.69-1.09.58-1.18-.8.96-.94.92-.08-1.29-.22-1.29-.09,1.25-.22,1.29-.83-1-.94-.91.66,1.06.58,1.18-1.25-.33-1.3-.19,1.16.46,1.16.61Z"/>
        <path class="cls-2" d="M17.23,88.7c0,.15-1.2.48-1.16.61s1.22-.3,1.3-.19-.69,1.09-.58,1.18.8-.96.94-.92.08,1.29.22,1.29.09-1.25.22-1.29.83,1,.94.91-.66-1.06-.58-1.18,1.25.33,1.3.19-1.16-.46-1.16-.61c0-.15,1.2-.48,1.16-.61s-1.22.3-1.3.19.69-1.09.58-1.18-.8.96-.94.92-.08-1.29-.22-1.29-.09,1.25-.22,1.29-.83-1-.94-.91.66,1.06.58,1.18-1.25-.33-1.3-.19,1.16.46,1.16.61Z"/>
        <path class="cls-2" d="M39.28,102.18c0,.15-1.2.48-1.16.61s1.22-.3,1.3-.19-.69,1.09-.58,1.18.8-.96.94-.92.08,1.29.22,1.29.09-1.25.22-1.29.83,1,.94.91-.66-1.06-.58-1.18,1.25.33,1.3.19-1.16-.46-1.16-.61,1.2-.48,1.16-.61-1.22.3-1.3.19.69-1.09.58-1.18-.8.96-.94.92-.08-1.29-.22-1.29-.09,1.25-.22,1.29-.83-1-.94-.91.66,1.06.58,1.18-1.25-.33-1.3-.19,1.16.46,1.16.61Z"/>
        <path class="cls-2" d="M18.01,18.34c0,.15-1.2.48-1.16.61s1.22-.3,1.3-.19-.69,1.09-.58,1.18.8-.96.94-.92.08,1.29.22,1.29.09-1.25.22-1.29.83,1,.94.91-.66-1.06-.58-1.18,1.25.33,1.3.19-1.16-.46-1.16-.61,1.2-.48,1.16-.61-1.22.3-1.3.19.69-1.09.58-1.18-.8.96-.94.92-.08-1.29-.22-1.29-.09,1.25-.22,1.29-.83-1-.94-.91.66,1.06.58,1.18-1.25-.33-1.3-.19,1.16.46,1.16.61Z"/>
        <path class="cls-2" d="M40.46,5.5c0,.15-1.2.48-1.16.61s1.22-.3,1.3-.19-.69,1.09-.58,1.18.8-.96.94-.92.08,1.29.22,1.29.09-1.25.22-1.29.83,1,.94.91-.66-1.06-.58-1.18,1.25.33,1.3.19-1.16-.46-1.16-.61,1.2-.48,1.16-.61-1.22.3-1.3.19.69-1.09.58-1.18-.8.96-.94.92-.08-1.29-.22-1.29-.09,1.25-.22,1.29-.83-1-.94-.91.66,1.06.58,1.18-1.25-.33-1.3-.19,1.16.46,1.16.61Z"/>
        <path class="cls-2" d="M4.98,40.72c0,.15-1.2.48-1.16.61s1.22-.3,1.3-.19-.69,1.09-.58,1.18.8-.96.94-.92.08,1.29.22,1.29.09-1.25.22-1.29.83,1,.94.91-.66-1.06-.58-1.18,1.25.33,1.3.19-1.16-.46-1.16-.61,1.2-.48,1.16-.61-1.22.3-1.3.19.69-1.09.58-1.18-.8.96-.94.92-.08-1.29-.22-1.29-.09,1.25-.22,1.29-.83-1-.94-.91.66,1.06.58,1.18-1.25-.33-1.3-.19,1.16.46,1.16.61Z"/>
      </g>
    </g>
  </g>
</svg>