<?xml version="1.0" encoding="UTF-8"?>
<svg id="_レイヤー_2" data-name="レイヤー 2" xmlns="http://www.w3.org/2000/svg" viewBox="0 0 9.7 15.55">
  <defs>
    <style>
      .cls-1 {
        fill: #39395c;
        stroke-width: 0px;
      }
    </style>
  </defs>
  <g id="design">
    <g>
      <g>
        <path class="cls-1" d="m4.85,9.55C2.26,9.55.15,7.44.15,4.85S2.26.15,4.85.15s4.7,2.11,4.7,4.7-2.11,4.7-4.7,4.7Zm0-8.33c-2,0-3.63,1.63-3.63,3.63s1.63,3.63,3.63,3.63,3.63-1.63,3.63-3.63-1.63-3.63-3.63-3.63Z"/>
        <path class="cls-1" d="m4.85,9.7C2.18,9.7,0,7.52,0,4.85S2.18,0,4.85,0s4.85,2.18,4.85,4.85-2.18,4.85-4.85,4.85ZM4.85.3C2.34.3.3,2.34.3,4.85s2.04,4.55,4.55,4.55,4.55-2.04,4.55-4.55S7.36.3,4.85.3Zm0,8.33c-2.08,0-3.78-1.69-3.78-3.78s1.69-3.78,3.78-3.78,3.78,1.69,3.78,3.78-1.69,3.78-3.78,3.78Zm0-7.25c-1.92,0-3.48,1.56-3.48,3.47s1.56,3.48,3.48,3.48,3.48-1.56,3.48-3.48-1.56-3.47-3.48-3.47Z"/>
      </g>
      <g>
        <rect class="cls-1" x="4.31" y="9.01" width="1.07" height="6.39"/>
        <path class="cls-1" d="m5.39,15.55h-1.07c-.08,0-.15-.07-.15-.15v-6.39c0-.08.07-.15.15-.15h1.07c.08,0,.15.07.15.15v6.39c0,.08-.07.15-.15.15Zm-.92-.3h.77v-6.09h-.77v6.09Z"/>
      </g>
      <g>
        <rect class="cls-1" x="1.66" y="10.82" width="6.39" height="1.07"/>
        <path class="cls-1" d="m8.04,12.05H1.66c-.08,0-.15-.07-.15-.15v-1.07c0-.08.07-.15.15-.15h6.39c.08,0,.15.07.15.15v1.07c0,.08-.07.15-.15.15Zm-6.24-.3h6.09v-.77H1.81v.77Z"/>
      </g>
    </g>
  </g>
</svg>