<?xml version="1.0" encoding="UTF-8"?>
<svg id="_レイヤー_2" data-name="レイヤー 2" xmlns="http://www.w3.org/2000/svg" viewBox="0 0 77.36 8.78">
  <defs>
    <style>
      .cls-1 {
        fill: #39385d;
        stroke-width: 0px;
      }
    </style>
  </defs>
  <g id="design">
    <g>
      <path class="cls-1" d="m.12,4.49c6.79.7,23.07.72,28.18,0,.15-.02.15-.18,0-.2-4.79-.81-21.45-.81-28.18,0-.16.02-.17.18,0,.2Z"/>
      <path class="cls-1" d="m49.07,4.49c6.79.7,23.07.72,28.18,0,.15-.02.15-.18,0-.2-4.79-.81-21.45-.81-28.18,0-.16.02-.17.18,0,.2Z"/>
      <path class="cls-1" d="m38.59,8.67c-.4-2.06-1.78-3.7-3.62-4.15-.13-.03-.13-.23,0-.26,1.84-.44,3.22-2.09,3.62-4.15.03-.15.2-.15.23,0,.4,2.06,1.78,3.7,3.62,4.15.13.03.13.23,0,.26-1.84.44-3.22,2.09-3.62,4.15-.03.15-.2.15-.23,0Z"/>
    </g>
  </g>
</svg>