<?xml version="1.0" encoding="UTF-8"?>
<svg id="_レイヤー_2" data-name="レイヤー 2" xmlns="http://www.w3.org/2000/svg" viewBox="0 0 12.85 12.48">
  <defs>
    <style>
      .cls-1 {
        fill: #39395c;
        stroke-width: 0px;
      }
    </style>
  </defs>
  <g id="design">
    <g>
      <path class="cls-1" d="m2.43,12.48c-1.34,0-2.43-1.09-2.43-2.43s1.09-2.43,2.43-2.43,2.43,1.09,2.43,2.43-1.09,2.43-2.43,2.43Zm0-3.46c-.57,0-1.03.46-1.03,1.03s.46,1.03,1.03,1.03,1.03-.46,1.03-1.03-.46-1.03-1.03-1.03Z"/>
      <path class="cls-1" d="m10.42,12.48c-1.34,0-2.43-1.09-2.43-2.43s1.09-2.43,2.43-2.43,2.43,1.09,2.43,2.43-1.09,2.43-2.43,2.43Zm0-3.46c-.57,0-1.03.46-1.03,1.03s.46,1.03,1.03,1.03,1.03-.46,1.03-1.03-.46-1.03-1.03-1.03Z"/>
      <path class="cls-1" d="m10.46,9.1l-.87-1.1c.74-.58,1.78-2.8,1.18-4.53-.48-1.38-1.9-2.07-4.24-2.07s-3.76.7-4.24,2.07c-.6,1.72.44,3.94,1.18,4.53l-.87,1.1C1.42,8.15.18,5.31.98,3.01,1.46,1.64,2.81,0,6.54,0s5.08,1.64,5.56,3.01c.8,2.3-.44,5.14-1.64,6.09Z"/>
    </g>
  </g>
</svg>