<?xml version="1.0" encoding="UTF-8"?>
<svg id="_レイヤー_2" data-name="レイヤー 2" xmlns="http://www.w3.org/2000/svg" xmlns:xlink="http://www.w3.org/1999/xlink" viewBox="0 0 466.07 39.21">
  <defs>
    <style>
      .cls-1 {
        fill: url(#_新規グラデーションスウォッチ_1);
      }

      .cls-1, .cls-2, .cls-3, .cls-4, .cls-5, .cls-6, .cls-7, .cls-8, .cls-9, .cls-10, .cls-11, .cls-12 {
        stroke-width: 0px;
      }

      .cls-2 {
        fill: url(#_新規グラデーションスウォッチ_1-2);
      }

      .cls-13 {
        opacity: .5;
      }

      .cls-3 {
        fill: url(#_新規グラデーションスウォッチ_1-9);
      }

      .cls-4 {
        fill: url(#_新規グラデーションスウォッチ_1-3);
      }

      .cls-5 {
        fill: url(#_新規グラデーションスウォッチ_1-10);
      }

      .cls-6 {
        fill: url(#_新規グラデーションスウォッチ_1-4);
      }

      .cls-7 {
        fill: url(#_新規グラデーションスウォッチ_1-8);
      }

      .cls-8 {
        fill: url(#_新規グラデーションスウォッチ_1-6);
      }

      .cls-9 {
        fill: #39395c;
      }

      .cls-10 {
        fill: url(#_新規グラデーションスウォッチ_1-11);
      }

      .cls-11 {
        fill: url(#_新規グラデーションスウォッチ_1-5);
      }

      .cls-12 {
        fill: url(#_新規グラデーションスウォッチ_1-7);
      }
    </style>
    <linearGradient id="_新規グラデーションスウォッチ_1" data-name="新規グラデーションスウォッチ 1" x1="23.61" y1="56.23" x2="23.61" y2="16.69" gradientUnits="userSpaceOnUse">
      <stop offset="0" stop-color="#c9ddf1"/>
      <stop offset=".06" stop-color="#c1daef" stop-opacity=".97"/>
      <stop offset=".15" stop-color="#add2ec" stop-opacity=".89"/>
      <stop offset=".26" stop-color="#8cc5e6" stop-opacity=".75"/>
      <stop offset=".38" stop-color="#5fb2df" stop-opacity=".57"/>
      <stop offset=".52" stop-color="#259cd5" stop-opacity=".33"/>
      <stop offset=".54" stop-color="#1e99d4" stop-opacity=".3"/>
      <stop offset=".76" stop-color="#0075bb"/>
      <stop offset=".96" stop-color="#005b94"/>
    </linearGradient>
    <linearGradient id="_新規グラデーションスウォッチ_1-2" data-name="新規グラデーションスウォッチ 1" x1="71" y1="56.23" x2="71" y2="16.69" xlink:href="#_新規グラデーションスウォッチ_1"/>
    <linearGradient id="_新規グラデーションスウォッチ_1-3" data-name="新規グラデーションスウォッチ 1" x1="130.63" y1="56.23" x2="130.63" y2="16.69" xlink:href="#_新規グラデーションスウォッチ_1"/>
    <linearGradient id="_新規グラデーションスウォッチ_1-4" data-name="新規グラデーションスウォッチ 1" x1="176.46" y1="56.23" x2="176.46" y2="16.69" xlink:href="#_新規グラデーションスウォッチ_1"/>
    <linearGradient id="_新規グラデーションスウォッチ_1-5" data-name="新規グラデーションスウォッチ 1" x1="218.47" y1="56.23" x2="218.47" y2="16.69" xlink:href="#_新規グラデーションスウォッチ_1"/>
    <linearGradient id="_新規グラデーションスウォッチ_1-6" data-name="新規グラデーションスウォッチ 1" x1="258.73" y1="56.23" x2="258.73" y2="16.69" xlink:href="#_新規グラデーションスウォッチ_1"/>
    <linearGradient id="_新規グラデーションスウォッチ_1-7" data-name="新規グラデーションスウォッチ 1" x1="297.32" y1="56.23" x2="297.32" y2="16.69" xlink:href="#_新規グラデーションスウォッチ_1"/>
    <linearGradient id="_新規グラデーションスウォッチ_1-8" data-name="新規グラデーションスウォッチ 1" x1="332.62" y1="56.23" x2="332.62" y2="16.69" xlink:href="#_新規グラデーションスウォッチ_1"/>
    <linearGradient id="_新規グラデーションスウォッチ_1-9" data-name="新規グラデーションスウォッチ 1" x1="375.39" y1="56.23" x2="375.39" y2="16.69" xlink:href="#_新規グラデーションスウォッチ_1"/>
    <linearGradient id="_新規グラデーションスウォッチ_1-10" data-name="新規グラデーションスウォッチ 1" x1="415" y1="56.23" x2="415" y2="16.69" xlink:href="#_新規グラデーションスウォッチ_1"/>
    <linearGradient id="_新規グラデーションスウォッチ_1-11" data-name="新規グラデーションスウォッチ 1" x1="449.58" y1="56.23" x2="449.58" y2="16.69" xlink:href="#_新規グラデーションスウォッチ_1"/>
  </defs>
  <g id="design">
    <g>
      <g>
        <path class="cls-9" d="m47.22,1.59c-1.04.05-1.87.2-2.5.42-.63.23-1.21.61-1.74,1.13-.4.38-.7.81-.9,1.27-.2.46-.34,1.05-.41,1.76-.13.95-.19,2.07-.19,3.36v20.15c0,1.88.11,3.27.33,4.18.22.91.61,1.64,1.18,2.19,1,.97,2.42,1.49,4.24,1.59v.63h-17.47v-.63c1.06-.05,1.91-.21,2.56-.45.65-.25,1.23-.62,1.74-1.13.56-.58.95-1.33,1.16-2.23.21-.9.31-2.28.31-4.14V5.25l-14.08,33.03h-.57L6.86,5.74v23.95c0,1.88.1,3.26.31,4.16.21.89.6,1.63,1.16,2.21.51.53,1.09.91,1.74,1.15.65.24,1.49.38,2.53.44v.63H0v-.63c1.04-.05,1.88-.2,2.53-.44.65-.24,1.23-.62,1.74-1.15.56-.58.95-1.33,1.16-2.23.21-.9.31-2.28.31-4.14V9.54c0-.84-.03-1.63-.08-2.38-.09-1.35-.3-2.33-.63-2.95-.46-.86-1.08-1.49-1.87-1.9s-1.85-.65-3.16-.72v-.63h11.87l11.84,29.23L35.98.96h11.24v.63Z"/>
        <path class="cls-9" d="m62.86,38.28v-.63c1.04-.05,1.89-.2,2.54-.44.66-.24,1.24-.62,1.75-1.15.56-.58.95-1.32,1.15-2.21.2-.89.3-2.28.3-4.16l.03-5.33c0-.77-.16-1.61-.46-2.54-.35-1.08-1.06-2.42-2.13-4.05l-7.08-10.64-1.26-1.91c-.93-1.39-1.84-2.33-2.73-2.84-.46-.27-.91-.46-1.37-.57-.46-.11-1.09-.18-1.91-.22v-.63h17.83v.63c-1.51.09-2.48.23-2.9.41-1.02.44-1.53,1.23-1.53,2.38,0,.42.11.89.34,1.42.23.53.6,1.19,1.11,2l7.41,11.59,6.34-9.9.71-1.12c.67-1.06,1.01-2.1,1.01-3.12,0-1.17-.37-2.07-1.12-2.71-.75-.64-1.8-.96-3.14-.96v-.63h12.58v.63c-.95.11-1.68.27-2.19.48-.51.21-1.03.55-1.56,1.03-1.24,1.17-2.62,2.91-4.13,5.22l-6.23,9.52c-.75,1.13-1.2,1.96-1.37,2.49-.16.53-.25,1.42-.25,2.68v6.7c0,1.95.1,3.35.29,4.2s.58,1.57,1.16,2.17c1,1.06,2.43,1.59,4.29,1.59v.63h-17.47Z"/>
        <path class="cls-9" d="m120.94,18.32h19.41v-8.78c0-1.88-.1-3.26-.31-4.16-.21-.89-.6-1.63-1.16-2.21-.51-.53-1.09-.91-1.74-1.15-.65-.24-1.5-.38-2.56-.44v-.63h17.47v.63c-1.04.05-1.88.2-2.53.44-.65.24-1.23.62-1.74,1.15-.57.58-.95,1.33-1.16,2.23-.21.9-.31,2.28-.31,4.14v20.15c0,1.86.1,3.24.31,4.13.21.89.6,1.64,1.16,2.24.51.51,1.09.89,1.74,1.13.65.25,1.49.4,2.53.45v.63h-17.47v-.63c1.06-.05,1.91-.21,2.56-.45.65-.25,1.23-.62,1.74-1.13.56-.58.95-1.32,1.16-2.21.21-.89.31-2.28.31-4.16v-10.09h-19.41v10.09c0,1.86.1,3.24.31,4.14.21.9.6,1.65,1.16,2.23.49.51,1.06.89,1.71,1.13.65.25,1.5.4,2.56.45v.63h-17.47v-.63c1.06-.05,1.91-.21,2.56-.45.65-.25,1.22-.62,1.71-1.13.58-.58.98-1.32,1.18-2.21.2-.89.3-2.28.3-4.16V9.54c0-1.88-.1-3.26-.3-4.16-.2-.89-.59-1.63-1.18-2.21-.49-.53-1.07-.91-1.72-1.15-.66-.24-1.5-.38-2.54-.44v-.63h17.47v.63c-1.04.05-1.88.2-2.53.44-.65.24-1.23.62-1.74,1.15-.57.58-.95,1.33-1.16,2.23-.21.9-.31,2.28-.31,4.14v8.78Z"/>
        <path class="cls-9" d="m156.37,19.87c0-3.06.66-5.91,1.97-8.52,1.31-2.62,3.23-4.9,5.74-6.85,1.88-1.44,3.9-2.55,6.07-3.32,2.17-.78,4.36-1.16,6.56-1.16,2.81,0,5.52.62,8.15,1.85,2.62,1.23,4.92,2.97,6.89,5.21,3.21,3.65,4.81,7.8,4.81,12.45,0,2.34-.42,4.59-1.26,6.76-.84,2.17-2.06,4.15-3.66,5.94-1.97,2.23-4.3,3.95-6.99,5.17-2.69,1.22-5.5,1.83-8.44,1.83s-5.67-.59-8.31-1.78c-2.64-1.19-4.92-2.86-6.84-5.03-1.51-1.7-2.68-3.63-3.49-5.79-.81-2.16-1.22-4.41-1.22-6.75Zm6.62.41c0,5.29,1.44,9.75,4.32,13.38,1.29,1.62,2.67,2.8,4.12,3.54,1.45.74,3.12,1.11,5.02,1.11s3.6-.36,5.04-1.09c1.45-.73,2.83-1.92,4.14-3.56,2.88-3.65,4.32-8.15,4.32-13.49,0-2.94-.4-5.71-1.19-8.33-.79-2.62-1.91-4.84-3.35-6.66-1.17-1.5-2.47-2.59-3.9-3.27-1.43-.68-3.12-1.03-5.07-1.03s-3.6.34-5.02,1.01c-1.41.67-2.72,1.77-3.92,3.28-1.44,1.81-2.55,4.02-3.34,6.65-.78,2.63-1.18,5.45-1.18,8.46Z"/>
        <path class="cls-9" d="m212.56,20.02v9.68c0,1.86.1,3.24.31,4.14.21.9.6,1.65,1.16,2.23.49.51,1.06.89,1.71,1.13.65.25,1.5.4,2.56.45v.63h-17.47v-.63c1.06-.05,1.91-.21,2.56-.45.65-.25,1.22-.62,1.71-1.13.58-.58.98-1.32,1.18-2.21.2-.89.3-2.28.3-4.16V9.54c0-1.88-.1-3.26-.3-4.16-.2-.89-.59-1.63-1.18-2.21-.49-.53-1.07-.91-1.72-1.15-.66-.24-1.5-.38-2.54-.44v-.63h13.18c2.21,0,3.65,0,4.35.03,2.83.13,5.04.51,6.64,1.15,1.8.73,3.2,1.82,4.2,3.27.99,1.45,1.49,3.13,1.49,5.04,0,2.84-1.08,5.12-3.23,6.84-.66.51-1.38.93-2.17,1.26s-1.85.64-3.19.93c1.09.46,1.9.93,2.43,1.42.42.38.8.86,1.15,1.44.35.57.87,1.59,1.56,3.05,1.62,3.34,2.85,5.77,3.68,7.31.83,1.54,1.53,2.66,2.09,3.35.46.57.9.96,1.33,1.18.43.22,1.02.36,1.76.44v.63h-9.08c-.46-1-.75-1.64-.88-1.91l-1.91-4.35c-1.15-2.61-2.31-4.91-3.47-6.92-1.17-1.99-2.23-3.34-3.2-4.07-.49-.36-1.02-.62-1.59-.78-.57-.15-1.26-.23-2.08-.23h-1.34Zm0-.6h1.04c2.26,0,3.88-.13,4.85-.38.98-.26,1.89-.78,2.75-1.59,1.91-1.82,2.87-4.08,2.87-6.78,0-1.44-.28-2.79-.83-4.06-.56-1.27-1.33-2.31-2.31-3.13-.77-.62-1.68-1.05-2.73-1.3-1.06-.25-2.56-.37-4.51-.37h-1.12v17.61Z"/>
        <path class="cls-9" d="m238.63,19.87c0-3.06.66-5.91,1.97-8.52,1.31-2.62,3.23-4.9,5.74-6.85,1.88-1.44,3.9-2.55,6.07-3.32,2.17-.78,4.36-1.16,6.56-1.16,2.81,0,5.52.62,8.15,1.85,2.62,1.23,4.92,2.97,6.89,5.21,3.21,3.65,4.81,7.8,4.81,12.45,0,2.34-.42,4.59-1.26,6.76-.84,2.17-2.06,4.15-3.66,5.94-1.97,2.23-4.3,3.95-6.99,5.17-2.69,1.22-5.5,1.83-8.44,1.83s-5.67-.59-8.31-1.78c-2.64-1.19-4.92-2.86-6.84-5.03-1.51-1.7-2.68-3.63-3.49-5.79-.81-2.16-1.22-4.41-1.22-6.75Zm6.62.41c0,5.29,1.44,9.75,4.32,13.38,1.29,1.62,2.67,2.8,4.12,3.54,1.45.74,3.12,1.11,5.02,1.11s3.6-.36,5.04-1.09c1.45-.73,2.83-1.92,4.14-3.56,2.88-3.65,4.32-8.15,4.32-13.49,0-2.94-.4-5.71-1.19-8.33-.79-2.62-1.91-4.84-3.35-6.66-1.17-1.5-2.47-2.59-3.9-3.27-1.43-.68-3.12-1.03-5.07-1.03s-3.6.34-5.02,1.01c-1.41.67-2.72,1.77-3.92,3.28-1.44,1.81-2.55,4.02-3.34,6.65-.78,2.63-1.18,5.45-1.18,8.46Z"/>
        <path class="cls-9" d="m285.35,38.17l.08-11.29.63.03c.77,2.87,1.68,5.14,2.73,6.79,1.99,3.06,4.48,4.58,7.49,4.58,2.1,0,3.83-.7,5.2-2.11,1.37-1.4,2.05-3.18,2.05-5.33,0-.93-.15-1.88-.45-2.84-.3-.97-.71-1.8-1.22-2.49-.53-.71-1.27-1.39-2.23-2.05s-2.42-1.49-4.39-2.49c-1.73-.88-3.06-1.61-3.98-2.21-.92-.6-1.66-1.21-2.23-1.83-1.57-1.71-2.35-3.8-2.35-6.26,0-1.51.31-2.97.92-4.38.61-1.4,1.46-2.61,2.56-3.61,1.93-1.79,4.22-2.68,6.86-2.68.86,0,1.65.09,2.38.26.73.17,1.7.52,2.93,1.03.91.36,1.53.6,1.86.7.33.1.62.15.88.15.64,0,1.07-.46,1.29-1.39h.63l.19,10.86h-.63c-.49-1.73-.91-3.06-1.27-3.98-.35-.92-.78-1.77-1.27-2.56-.89-1.42-1.87-2.47-2.95-3.16s-2.31-1.03-3.71-1.03c-2.04,0-3.65.69-4.83,2.08-.49.57-.88,1.23-1.16,2-.28.77-.42,1.53-.42,2.3,0,3.05,1.96,5.5,5.87,7.36l3.85,1.86c2.97,1.41,5.11,2.96,6.42,4.65,1.49,1.9,2.24,4.11,2.24,6.62,0,1.67-.34,3.27-1.01,4.8-.95,2.13-2.37,3.77-4.27,4.92-1.9,1.15-4.13,1.73-6.7,1.73-2.35,0-4.61-.46-6.78-1.39-1.13-.49-1.8-.77-2.02-.85-.22-.07-.46-.11-.74-.11-.88,0-1.48.44-1.8,1.31h-.63Z"/>
        <path class="cls-9" d="m348.37.77l.33,12.22h-.63c-.2-.53-.36-.93-.46-1.2-.64-1.75-1.16-3.05-1.56-3.91-.71-1.53-1.74-2.93-3.09-4.21-1.02-.97-2.08-1.67-3.17-2.11s-2.32-.66-3.69-.66c-2.06,0-3.85.45-5.36,1.34-1.33.78-2.57,1.91-3.72,3.38-1.15,1.47-2.09,3.14-2.82,5.02-1.04,2.64-1.56,5.65-1.56,9.02,0,2.86.36,5.44,1.07,7.74s1.75,4.22,3.12,5.77c2.52,2.88,5.85,4.32,10.01,4.32,2.08,0,3.95-.36,5.61-1.08,1.66-.72,2.94-1.74,3.86-3.05,1.06-1.51,1.82-3.55,2.3-6.12l.63.11c-.35,2.88-1.13,5.17-2.35,6.86-1.17,1.62-2.78,2.86-4.83,3.72-2.05.86-4.43,1.29-7.12,1.29-2.52,0-4.92-.37-7.22-1.12-3.66-1.2-6.53-3.38-8.59-6.52-2.06-3.14-3.09-6.9-3.09-11.25,0-3.34.6-6.41,1.8-9.23s2.88-5.08,5.03-6.79c1.66-1.31,3.64-2.36,5.95-3.13,2.31-.77,4.62-1.16,6.93-1.16s4.54.42,7,1.26l2.24.74c.44.16.82.25,1.15.25.46,0,.83-.19,1.12-.57.13-.18.28-.48.46-.9h.66Z"/>
        <path class="cls-9" d="m355.29,19.87c0-3.06.66-5.91,1.97-8.52,1.31-2.62,3.23-4.9,5.74-6.85,1.88-1.44,3.9-2.55,6.07-3.32,2.17-.78,4.36-1.16,6.56-1.16,2.81,0,5.52.62,8.15,1.85,2.62,1.23,4.92,2.97,6.89,5.21,3.21,3.65,4.81,7.8,4.81,12.45,0,2.34-.42,4.59-1.26,6.76-.84,2.17-2.06,4.15-3.66,5.94-1.97,2.23-4.3,3.95-6.99,5.17-2.69,1.22-5.5,1.83-8.44,1.83s-5.67-.59-8.31-1.78c-2.64-1.19-4.92-2.86-6.84-5.03-1.51-1.7-2.68-3.63-3.49-5.79-.81-2.16-1.22-4.41-1.22-6.75Zm6.62.41c0,5.29,1.44,9.75,4.32,13.38,1.29,1.62,2.67,2.8,4.12,3.54,1.45.74,3.12,1.11,5.02,1.11s3.6-.36,5.04-1.09c1.45-.73,2.83-1.92,4.14-3.56,2.88-3.65,4.32-8.15,4.32-13.49,0-2.94-.4-5.71-1.19-8.33-.79-2.62-1.91-4.84-3.35-6.66-1.17-1.5-2.47-2.59-3.9-3.27-1.43-.68-3.12-1.03-5.07-1.03s-3.6.34-5.02,1.01c-1.41.67-2.72,1.77-3.92,3.28-1.44,1.81-2.55,4.02-3.34,6.65-.78,2.63-1.18,5.45-1.18,8.46Z"/>
        <path class="cls-9" d="m411.48,19.88v9.82c0,1.86.1,3.24.31,4.14.21.9.6,1.65,1.16,2.23.49.51,1.06.89,1.71,1.13.65.25,1.5.4,2.56.45v.63h-17.47v-.63c1.06-.05,1.91-.21,2.56-.45.65-.25,1.22-.62,1.71-1.13.58-.58.98-1.32,1.18-2.21.2-.89.3-2.28.3-4.16V9.54c0-1.57-.07-2.78-.21-3.62s-.37-1.54-.7-2.06c-.47-.73-1.08-1.27-1.8-1.63-.73-.36-1.68-.57-2.84-.64h-.19v-.63h16.49c2.88,0,5,.15,6.37.44,1.37.29,2.62.88,3.75,1.75,2.59,1.97,3.88,4.59,3.88,7.88s-1.31,5.78-3.94,7.33c-1.37.8-3.03,1.29-4.98,1.45-.62.05-2.11.08-4.48.08h-5.36Zm0-.88h2.68c1.8,0,3.19-.13,4.17-.4.98-.26,1.85-.75,2.61-1.46,1.79-1.62,2.68-3.78,2.68-6.48,0-1.49-.26-2.87-.78-4.12-.52-1.25-1.26-2.26-2.23-3.05-1.11-.93-2.43-1.48-3.96-1.64-.42-.04-1.38-.05-2.87-.05h-2.3v17.2Z"/>
        <path class="cls-9" d="m462.49.96l.46,9.02-.63.03c-.24-1.53-.63-2.8-1.18-3.8-.55-1-1.34-1.89-2.38-2.65-.86-.64-1.87-1.09-3.04-1.35-1.17-.26-2.72-.4-4.65-.4h-6.26v16.41h1.64c1.66,0,2.91-.11,3.75-.33.84-.22,1.52-.61,2.05-1.18.51-.53.89-1.15,1.13-1.87.25-.72.45-1.78.62-3.19l.63.03-.11,14.66h-.63c-.16-1.4-.41-2.53-.72-3.39-.32-.86-.76-1.59-1.33-2.19-.55-.58-1.26-1.01-2.13-1.29s-1.99-.41-3.34-.41h-1.56v6.26c0,2.5.06,4.32.19,5.46.13,1.14.37,2.09.74,2.86.62,1.31,1.56,2.27,2.83,2.88,1.27.61,2.94.92,5.02.92,2.19,0,4.02-.28,5.5-.83,1.48-.56,2.68-1.42,3.61-2.58.66-.78,1.19-1.68,1.6-2.68.41-1,.79-2.32,1.13-3.96l.63.03-.36,10.88h-32.62v-.63c1.04-.05,1.88-.2,2.53-.44.65-.24,1.23-.62,1.74-1.15.56-.58.95-1.33,1.16-2.23.21-.9.31-2.28.31-4.14V9.54c0-1.86-.1-3.24-.31-4.14-.21-.9-.6-1.65-1.16-2.23-.49-.53-1.06-.91-1.71-1.15-.65-.24-1.5-.38-2.56-.44v-.63h29.39Z"/>
      </g>
      <g class="cls-13">
        <path class="cls-1" d="m47.22,1.59c-1.04.05-1.87.2-2.5.42-.63.23-1.21.61-1.74,1.13-.4.38-.7.81-.9,1.27-.2.46-.34,1.05-.41,1.76-.13.95-.19,2.07-.19,3.36v20.15c0,1.88.11,3.27.33,4.18.22.91.61,1.64,1.18,2.19,1,.97,2.42,1.49,4.24,1.59v.63h-17.47v-.63c1.06-.05,1.91-.21,2.56-.45.65-.25,1.23-.62,1.74-1.13.56-.58.95-1.33,1.16-2.23.21-.9.31-2.28.31-4.14V5.25l-14.08,33.03h-.57L6.86,5.74v23.95c0,1.88.1,3.26.31,4.16.21.89.6,1.63,1.16,2.21.51.53,1.09.91,1.74,1.15.65.24,1.49.38,2.53.44v.63H0v-.63c1.04-.05,1.88-.2,2.53-.44.65-.24,1.23-.62,1.74-1.15.56-.58.95-1.33,1.16-2.23.21-.9.31-2.28.31-4.14V9.54c0-.84-.03-1.63-.08-2.38-.09-1.35-.3-2.33-.63-2.95-.46-.86-1.08-1.49-1.87-1.9s-1.85-.65-3.16-.72v-.63h11.87l11.84,29.23L35.98.96h11.24v.63Z"/>
        <path class="cls-2" d="m62.86,38.28v-.63c1.04-.05,1.89-.2,2.54-.44.66-.24,1.24-.62,1.75-1.15.56-.58.95-1.32,1.15-2.21.2-.89.3-2.28.3-4.16l.03-5.33c0-.77-.16-1.61-.46-2.54-.35-1.08-1.06-2.42-2.13-4.05l-7.08-10.64-1.26-1.91c-.93-1.39-1.84-2.33-2.73-2.84-.46-.27-.91-.46-1.37-.57-.46-.11-1.09-.18-1.91-.22v-.63h17.83v.63c-1.51.09-2.48.23-2.9.41-1.02.44-1.53,1.23-1.53,2.38,0,.42.11.89.34,1.42.23.53.6,1.19,1.11,2l7.41,11.59,6.34-9.9.71-1.12c.67-1.06,1.01-2.1,1.01-3.12,0-1.17-.37-2.07-1.12-2.71-.75-.64-1.8-.96-3.14-.96v-.63h12.58v.63c-.95.11-1.68.27-2.19.48-.51.21-1.03.55-1.56,1.03-1.24,1.17-2.62,2.91-4.13,5.22l-6.23,9.52c-.75,1.13-1.2,1.96-1.37,2.49-.16.53-.25,1.42-.25,2.68v6.7c0,1.95.1,3.35.29,4.2s.58,1.57,1.16,2.17c1,1.06,2.43,1.59,4.29,1.59v.63h-17.47Z"/>
        <path class="cls-4" d="m120.94,18.32h19.41v-8.78c0-1.88-.1-3.26-.31-4.16-.21-.89-.6-1.63-1.16-2.21-.51-.53-1.09-.91-1.74-1.15-.65-.24-1.5-.38-2.56-.44v-.63h17.47v.63c-1.04.05-1.88.2-2.53.44-.65.24-1.23.62-1.74,1.15-.57.58-.95,1.33-1.16,2.23-.21.9-.31,2.28-.31,4.14v20.15c0,1.86.1,3.24.31,4.13.21.89.6,1.64,1.16,2.24.51.51,1.09.89,1.74,1.13.65.25,1.49.4,2.53.45v.63h-17.47v-.63c1.06-.05,1.91-.21,2.56-.45.65-.25,1.23-.62,1.74-1.13.56-.58.95-1.32,1.16-2.21.21-.89.31-2.28.31-4.16v-10.09h-19.41v10.09c0,1.86.1,3.24.31,4.14.21.9.6,1.65,1.16,2.23.49.51,1.06.89,1.71,1.13.65.25,1.5.4,2.56.45v.63h-17.47v-.63c1.06-.05,1.91-.21,2.56-.45.65-.25,1.22-.62,1.71-1.13.58-.58.98-1.32,1.18-2.21.2-.89.3-2.28.3-4.16V9.54c0-1.88-.1-3.26-.3-4.16-.2-.89-.59-1.63-1.18-2.21-.49-.53-1.07-.91-1.72-1.15-.66-.24-1.5-.38-2.54-.44v-.63h17.47v.63c-1.04.05-1.88.2-2.53.44-.65.24-1.23.62-1.74,1.15-.57.58-.95,1.33-1.16,2.23-.21.9-.31,2.28-.31,4.14v8.78Z"/>
        <path class="cls-6" d="m156.37,19.87c0-3.06.66-5.91,1.97-8.52,1.31-2.62,3.23-4.9,5.74-6.85,1.88-1.44,3.9-2.55,6.07-3.32,2.17-.78,4.36-1.16,6.56-1.16,2.81,0,5.52.62,8.15,1.85,2.62,1.23,4.92,2.97,6.89,5.21,3.21,3.65,4.81,7.8,4.81,12.45,0,2.34-.42,4.59-1.26,6.76-.84,2.17-2.06,4.15-3.66,5.94-1.97,2.23-4.3,3.95-6.99,5.17-2.69,1.22-5.5,1.83-8.44,1.83s-5.67-.59-8.31-1.78c-2.64-1.19-4.92-2.86-6.84-5.03-1.51-1.7-2.68-3.63-3.49-5.79-.81-2.16-1.22-4.41-1.22-6.75Zm6.62.41c0,5.29,1.44,9.75,4.32,13.38,1.29,1.62,2.67,2.8,4.12,3.54,1.45.74,3.12,1.11,5.02,1.11s3.6-.36,5.04-1.09c1.45-.73,2.83-1.92,4.14-3.56,2.88-3.65,4.32-8.15,4.32-13.49,0-2.94-.4-5.71-1.19-8.33-.79-2.62-1.91-4.84-3.35-6.66-1.17-1.5-2.47-2.59-3.9-3.27-1.43-.68-3.12-1.03-5.07-1.03s-3.6.34-5.02,1.01c-1.41.67-2.72,1.77-3.92,3.28-1.44,1.81-2.55,4.02-3.34,6.65-.78,2.63-1.18,5.45-1.18,8.46Z"/>
        <path class="cls-11" d="m212.56,20.02v9.68c0,1.86.1,3.24.31,4.14.21.9.6,1.65,1.16,2.23.49.51,1.06.89,1.71,1.13.65.25,1.5.4,2.56.45v.63h-17.47v-.63c1.06-.05,1.91-.21,2.56-.45.65-.25,1.22-.62,1.71-1.13.58-.58.98-1.32,1.18-2.21.2-.89.3-2.28.3-4.16V9.54c0-1.88-.1-3.26-.3-4.16-.2-.89-.59-1.63-1.18-2.21-.49-.53-1.07-.91-1.72-1.15-.66-.24-1.5-.38-2.54-.44v-.63h13.18c2.21,0,3.65,0,4.35.03,2.83.13,5.04.51,6.64,1.15,1.8.73,3.2,1.82,4.2,3.27.99,1.45,1.49,3.13,1.49,5.04,0,2.84-1.08,5.12-3.23,6.84-.66.51-1.38.93-2.17,1.26s-1.85.64-3.19.93c1.09.46,1.9.93,2.43,1.42.42.38.8.86,1.15,1.44.35.57.87,1.59,1.56,3.05,1.62,3.34,2.85,5.77,3.68,7.31.83,1.54,1.53,2.66,2.09,3.35.46.57.9.96,1.33,1.18.43.22,1.02.36,1.76.44v.63h-9.08c-.46-1-.75-1.64-.88-1.91l-1.91-4.35c-1.15-2.61-2.31-4.91-3.47-6.92-1.17-1.99-2.23-3.34-3.2-4.07-.49-.36-1.02-.62-1.59-.78-.57-.15-1.26-.23-2.08-.23h-1.34Zm0-.6h1.04c2.26,0,3.88-.13,4.85-.38.98-.26,1.89-.78,2.75-1.59,1.91-1.82,2.87-4.08,2.87-6.78,0-1.44-.28-2.79-.83-4.06-.56-1.27-1.33-2.31-2.31-3.13-.77-.62-1.68-1.05-2.73-1.3-1.06-.25-2.56-.37-4.51-.37h-1.12v17.61Z"/>
        <path class="cls-8" d="m238.63,19.87c0-3.06.66-5.91,1.97-8.52,1.31-2.62,3.23-4.9,5.74-6.85,1.88-1.44,3.9-2.55,6.07-3.32,2.17-.78,4.36-1.16,6.56-1.16,2.81,0,5.52.62,8.15,1.85,2.62,1.23,4.92,2.97,6.89,5.21,3.21,3.65,4.81,7.8,4.81,12.45,0,2.34-.42,4.59-1.26,6.76-.84,2.17-2.06,4.15-3.66,5.94-1.97,2.23-4.3,3.95-6.99,5.17-2.69,1.22-5.5,1.83-8.44,1.83s-5.67-.59-8.31-1.78c-2.64-1.19-4.92-2.86-6.84-5.03-1.51-1.7-2.68-3.63-3.49-5.79-.81-2.16-1.22-4.41-1.22-6.75Zm6.62.41c0,5.29,1.44,9.75,4.32,13.38,1.29,1.62,2.67,2.8,4.12,3.54,1.45.74,3.12,1.11,5.02,1.11s3.6-.36,5.04-1.09c1.45-.73,2.83-1.92,4.14-3.56,2.88-3.65,4.32-8.15,4.32-13.49,0-2.94-.4-5.71-1.19-8.33-.79-2.62-1.91-4.84-3.35-6.66-1.17-1.5-2.47-2.59-3.9-3.27-1.43-.68-3.12-1.03-5.07-1.03s-3.6.34-5.02,1.01c-1.41.67-2.72,1.77-3.92,3.28-1.44,1.81-2.55,4.02-3.34,6.65-.78,2.63-1.18,5.45-1.18,8.46Z"/>
        <path class="cls-12" d="m285.35,38.17l.08-11.29.63.03c.77,2.87,1.68,5.14,2.73,6.79,1.99,3.06,4.48,4.58,7.49,4.58,2.1,0,3.83-.7,5.2-2.11,1.37-1.4,2.05-3.18,2.05-5.33,0-.93-.15-1.88-.45-2.84-.3-.97-.71-1.8-1.22-2.49-.53-.71-1.27-1.39-2.23-2.05s-2.42-1.49-4.39-2.49c-1.73-.88-3.06-1.61-3.98-2.21-.92-.6-1.66-1.21-2.23-1.83-1.57-1.71-2.35-3.8-2.35-6.26,0-1.51.31-2.97.92-4.38.61-1.4,1.46-2.61,2.56-3.61,1.93-1.79,4.22-2.68,6.86-2.68.86,0,1.65.09,2.38.26.73.17,1.7.52,2.93,1.03.91.36,1.53.6,1.86.7.33.1.62.15.88.15.64,0,1.07-.46,1.29-1.39h.63l.19,10.86h-.63c-.49-1.73-.91-3.06-1.27-3.98-.35-.92-.78-1.77-1.27-2.56-.89-1.42-1.87-2.47-2.95-3.16s-2.31-1.03-3.71-1.03c-2.04,0-3.65.69-4.83,2.08-.49.57-.88,1.23-1.16,2-.28.77-.42,1.53-.42,2.3,0,3.05,1.96,5.5,5.87,7.36l3.85,1.86c2.97,1.41,5.11,2.96,6.42,4.65,1.49,1.9,2.24,4.11,2.24,6.62,0,1.67-.34,3.27-1.01,4.8-.95,2.13-2.37,3.77-4.27,4.92-1.9,1.15-4.13,1.73-6.7,1.73-2.35,0-4.61-.46-6.78-1.39-1.13-.49-1.8-.77-2.02-.85-.22-.07-.46-.11-.74-.11-.88,0-1.48.44-1.8,1.31h-.63Z"/>
        <path class="cls-7" d="m348.37.77l.33,12.22h-.63c-.2-.53-.36-.93-.46-1.2-.64-1.75-1.16-3.05-1.56-3.91-.71-1.53-1.74-2.93-3.09-4.21-1.02-.97-2.08-1.67-3.17-2.11s-2.32-.66-3.69-.66c-2.06,0-3.85.45-5.36,1.34-1.33.78-2.57,1.91-3.72,3.38-1.15,1.47-2.09,3.14-2.82,5.02-1.04,2.64-1.56,5.65-1.56,9.02,0,2.86.36,5.44,1.07,7.74s1.75,4.22,3.12,5.77c2.52,2.88,5.85,4.32,10.01,4.32,2.08,0,3.95-.36,5.61-1.08,1.66-.72,2.94-1.74,3.86-3.05,1.06-1.51,1.82-3.55,2.3-6.12l.63.11c-.35,2.88-1.13,5.17-2.35,6.86-1.17,1.62-2.78,2.86-4.83,3.72-2.05.86-4.43,1.29-7.12,1.29-2.52,0-4.92-.37-7.22-1.12-3.66-1.2-6.53-3.38-8.59-6.52-2.06-3.14-3.09-6.9-3.09-11.25,0-3.34.6-6.41,1.8-9.23s2.88-5.08,5.03-6.79c1.66-1.31,3.64-2.36,5.95-3.13,2.31-.77,4.62-1.16,6.93-1.16s4.54.42,7,1.26l2.24.74c.44.16.82.25,1.15.25.46,0,.83-.19,1.12-.57.13-.18.28-.48.46-.9h.66Z"/>
        <path class="cls-3" d="m355.29,19.87c0-3.06.66-5.91,1.97-8.52,1.31-2.62,3.23-4.9,5.74-6.85,1.88-1.44,3.9-2.55,6.07-3.32,2.17-.78,4.36-1.16,6.56-1.16,2.81,0,5.52.62,8.15,1.85,2.62,1.23,4.92,2.97,6.89,5.21,3.21,3.65,4.81,7.8,4.81,12.45,0,2.34-.42,4.59-1.26,6.76-.84,2.17-2.06,4.15-3.66,5.94-1.97,2.23-4.3,3.95-6.99,5.17-2.69,1.22-5.5,1.83-8.44,1.83s-5.67-.59-8.31-1.78c-2.64-1.19-4.92-2.86-6.84-5.03-1.51-1.7-2.68-3.63-3.49-5.79-.81-2.16-1.22-4.41-1.22-6.75Zm6.62.41c0,5.29,1.44,9.75,4.32,13.38,1.29,1.62,2.67,2.8,4.12,3.54,1.45.74,3.12,1.11,5.02,1.11s3.6-.36,5.04-1.09c1.45-.73,2.83-1.92,4.14-3.56,2.88-3.65,4.32-8.15,4.32-13.49,0-2.94-.4-5.71-1.19-8.33-.79-2.62-1.91-4.84-3.35-6.66-1.17-1.5-2.47-2.59-3.9-3.27-1.43-.68-3.12-1.03-5.07-1.03s-3.6.34-5.02,1.01c-1.41.67-2.72,1.77-3.92,3.28-1.44,1.81-2.55,4.02-3.34,6.65-.78,2.63-1.18,5.45-1.18,8.46Z"/>
        <path class="cls-5" d="m411.48,19.88v9.82c0,1.86.1,3.24.31,4.14.21.9.6,1.65,1.16,2.23.49.51,1.06.89,1.71,1.13.65.25,1.5.4,2.56.45v.63h-17.47v-.63c1.06-.05,1.91-.21,2.56-.45.65-.25,1.22-.62,1.71-1.13.58-.58.98-1.32,1.18-2.21.2-.89.3-2.28.3-4.16V9.54c0-1.57-.07-2.78-.21-3.62s-.37-1.54-.7-2.06c-.47-.73-1.08-1.27-1.8-1.63-.73-.36-1.68-.57-2.84-.64h-.19v-.63h16.49c2.88,0,5,.15,6.37.44,1.37.29,2.62.88,3.75,1.75,2.59,1.97,3.88,4.59,3.88,7.88s-1.31,5.78-3.94,7.33c-1.37.8-3.03,1.29-4.98,1.45-.62.05-2.11.08-4.48.08h-5.36Zm0-.88h2.68c1.8,0,3.19-.13,4.17-.4.98-.26,1.85-.75,2.61-1.46,1.79-1.62,2.68-3.78,2.68-6.48,0-1.49-.26-2.87-.78-4.12-.52-1.25-1.26-2.26-2.23-3.05-1.11-.93-2.43-1.48-3.96-1.64-.42-.04-1.38-.05-2.87-.05h-2.3v17.2Z"/>
        <path class="cls-10" d="m462.49.96l.46,9.02-.63.03c-.24-1.53-.63-2.8-1.18-3.8-.55-1-1.34-1.89-2.38-2.65-.86-.64-1.87-1.09-3.04-1.35-1.17-.26-2.72-.4-4.65-.4h-6.26v16.41h1.64c1.66,0,2.91-.11,3.75-.33.84-.22,1.52-.61,2.05-1.18.51-.53.89-1.15,1.13-1.87.25-.72.45-1.78.62-3.19l.63.03-.11,14.66h-.63c-.16-1.4-.41-2.53-.72-3.39-.32-.86-.76-1.59-1.33-2.19-.55-.58-1.26-1.01-2.13-1.29s-1.99-.41-3.34-.41h-1.56v6.26c0,2.5.06,4.32.19,5.46.13,1.14.37,2.09.74,2.86.62,1.31,1.56,2.27,2.83,2.88,1.27.61,2.94.92,5.02.92,2.19,0,4.02-.28,5.5-.83,1.48-.56,2.68-1.42,3.61-2.58.66-.78,1.19-1.68,1.6-2.68.41-1,.79-2.32,1.13-3.96l.63.03-.36,10.88h-32.62v-.63c1.04-.05,1.88-.2,2.53-.44.65-.24,1.23-.62,1.74-1.15.56-.58.95-1.33,1.16-2.23.21-.9.31-2.28.31-4.14V9.54c0-1.86-.1-3.24-.31-4.14-.21-.9-.6-1.65-1.16-2.23-.49-.53-1.06-.91-1.71-1.15-.65-.24-1.5-.38-2.56-.44v-.63h29.39Z"/>
      </g>
    </g>
  </g>
</svg>