<?xml version="1.0" encoding="UTF-8"?>
<svg id="_レイヤー_2" data-name="レイヤー 2" xmlns="http://www.w3.org/2000/svg" xmlns:xlink="http://www.w3.org/1999/xlink" viewBox="0 0 299.24 84.79">
  <defs>
    <style>
      .cls-1 {
        fill: url(#_名称未設定グラデーション_5-7);
      }

      .cls-1, .cls-2, .cls-3, .cls-4, .cls-5, .cls-6, .cls-7, .cls-8, .cls-9, .cls-10, .cls-11, .cls-12 {
        stroke-width: 0px;
      }

      .cls-2 {
        fill: url(#_名称未設定グラデーション_5-5);
      }

      .cls-13 {
        opacity: .5;
      }

      .cls-3 {
        fill: url(#_名称未設定グラデーション_5-6);
      }

      .cls-4 {
        fill: url(#_名称未設定グラデーション_5-11);
      }

      .cls-5 {
        fill: url(#_名称未設定グラデーション_5-9);
      }

      .cls-6 {
        fill: url(#_名称未設定グラデーション_5);
      }

      .cls-7 {
        fill: url(#_名称未設定グラデーション_5-8);
      }

      .cls-8 {
        fill: url(#_名称未設定グラデーション_5-10);
      }

      .cls-9 {
        fill: url(#_名称未設定グラデーション_5-4);
      }

      .cls-10 {
        fill: url(#_名称未設定グラデーション_5-2);
      }

      .cls-11 {
        fill: #39395c;
      }

      .cls-12 {
        fill: url(#_名称未設定グラデーション_5-3);
      }
    </style>
    <linearGradient id="_名称未設定グラデーション_5" data-name="名称未設定グラデーション 5" x1="-33.54" y1="134.45" x2="40.46" y2="-28.55" gradientUnits="userSpaceOnUse">
      <stop offset="0" stop-color="#c7dcf1"/>
      <stop offset=".06" stop-color="#bfd9ef" stop-opacity=".97"/>
      <stop offset=".14" stop-color="#a9d1ec" stop-opacity=".89"/>
      <stop offset=".25" stop-color="#86c4e7" stop-opacity=".76"/>
      <stop offset=".38" stop-color="#55b2df" stop-opacity=".57"/>
      <stop offset=".52" stop-color="#179bd6" stop-opacity=".34"/>
      <stop offset=".54" stop-color="#0c97d5" stop-opacity=".3"/>
      <stop offset=".76" stop-color="#0073bd"/>
      <stop offset=".96" stop-color="#005a95"/>
    </linearGradient>
    <linearGradient id="_名称未設定グラデーション_5-2" data-name="名称未設定グラデーション 5" x1="-4.12" y1="147.8" x2="69.88" y2="-15.2" xlink:href="#_名称未設定グラデーション_5"/>
    <linearGradient id="_名称未設定グラデーション_5-3" data-name="名称未設定グラデーション 5" x1="-15.52" y1="142.63" x2="58.48" y2="-20.37" xlink:href="#_名称未設定グラデーション_5"/>
    <linearGradient id="_名称未設定グラデーション_5-4" data-name="名称未設定グラデーション 5" x1="16.36" y1="157.11" x2="90.36" y2="-5.89" xlink:href="#_名称未設定グラデーション_5"/>
    <linearGradient id="_名称未設定グラデーション_5-5" data-name="名称未設定グラデーション 5" x1="45.54" y1="170.35" x2="119.54" y2="7.35" xlink:href="#_名称未設定グラデーション_5"/>
    <linearGradient id="_名称未設定グラデーション_5-6" data-name="名称未設定グラデーション 5" x1="73.46" y1="183.03" x2="147.46" y2="20.03" xlink:href="#_名称未設定グラデーション_5"/>
    <linearGradient id="_名称未設定グラデーション_5-7" data-name="名称未設定グラデーション 5" x1="100.58" y1="195.34" x2="174.58" y2="32.34" xlink:href="#_名称未設定グラデーション_5"/>
    <linearGradient id="_名称未設定グラデーション_5-8" data-name="名称未設定グラデーション 5" x1="125.45" y1="206.63" x2="199.45" y2="43.63" xlink:href="#_名称未設定グラデーション_5"/>
    <linearGradient id="_名称未設定グラデーション_5-9" data-name="名称未設定グラデーション 5" x1="154.28" y1="219.72" x2="228.28" y2="56.72" xlink:href="#_名称未設定グラデーション_5"/>
    <linearGradient id="_名称未設定グラデーション_5-10" data-name="名称未設定グラデーション 5" x1="177.71" y1="230.36" x2="251.71" y2="67.36" xlink:href="#_名称未設定グラデーション_5"/>
    <linearGradient id="_名称未設定グラデーション_5-11" data-name="名称未設定グラデーション 5" x1="205.52" y1="242.98" x2="279.52" y2="79.98" xlink:href="#_名称未設定グラデーション_5"/>
  </defs>
  <g id="design">
    <g>
      <g>
        <path class="cls-11" d="m40.48.54c-.89.05-1.61.17-2.14.36s-1.04.52-1.49.97c-.34.33-.6.69-.77,1.09s-.29.9-.35,1.51c-.11.81-.16,1.77-.16,2.88v17.27c0,1.61.09,2.8.28,3.59s.52,1.41,1.01,1.88c.86.83,2.07,1.28,3.63,1.36v.54h-14.98v-.54c.91-.05,1.64-.18,2.19-.39s1.05-.54,1.49-.97c.48-.5.82-1.14,1-1.91s.27-1.96.27-3.55V3.68l-12.07,28.31h-.49L5.88,4.1v20.53c0,1.61.09,2.8.27,3.56s.51,1.4,1,1.9c.44.45.93.78,1.49.98s1.28.33,2.17.38v.54H0v-.54c.89-.05,1.61-.17,2.17-.38s1.05-.53,1.49-.98c.48-.5.82-1.14,1-1.91s.27-1.96.27-3.55V7.36c0-.72-.02-1.4-.07-2.04-.08-1.16-.26-2-.54-2.53-.39-.73-.93-1.28-1.61-1.63S1.12.6,0,.54v-.54h10.17l10.15,25.05L30.84,0h9.63v.54Z"/>
        <path class="cls-11" d="m53.02,31.99v-.54c.89-.05,1.62-.17,2.18-.38s1.06-.53,1.5-.98c.48-.5.81-1.13.98-1.9s.26-1.95.26-3.56l.02-4.57c0-.66-.13-1.38-.4-2.18-.3-.92-.91-2.08-1.83-3.47l-6.07-9.12-1.08-1.64c-.8-1.19-1.58-2-2.34-2.44-.39-.23-.78-.4-1.17-.49s-.94-.16-1.64-.19v-.54h15.28v.54c-1.3.08-2.12.2-2.48.35-.88.38-1.31,1.05-1.31,2.04,0,.36.1.77.29,1.22s.51,1.02.95,1.71l6.35,9.94,5.44-8.48.61-.96c.58-.91.87-1.8.87-2.67,0-1-.32-1.77-.96-2.32s-1.54-.82-2.7-.82v-.54h10.78v.54c-.81.09-1.44.23-1.88.41s-.88.47-1.34.88c-1.06,1-2.24,2.49-3.54,4.48l-5.34,8.16c-.64.97-1.03,1.68-1.17,2.13s-.21,1.22-.21,2.3v5.74c0,1.67.08,2.87.25,3.6s.5,1.35,1,1.86c.86.91,2.09,1.36,3.68,1.36v.54h-14.98Z"/>
        <path class="cls-11" d="m10.05,66.88h16.64v-7.52c0-1.61-.09-2.8-.27-3.56s-.51-1.4-1-1.9c-.44-.45-.93-.78-1.49-.98s-1.29-.33-2.19-.38v-.54h14.98v.54c-.89.05-1.61.17-2.17.38s-1.05.53-1.49.98c-.48.5-.82,1.14-1,1.91s-.27,1.96-.27,3.55v17.27c0,1.59.09,2.77.27,3.54s.51,1.41,1,1.92c.44.44.93.76,1.49.97s1.28.34,2.17.39v.54h-14.98v-.54c.91-.05,1.64-.18,2.19-.39s1.05-.54,1.49-.97c.48-.5.82-1.13,1-1.9s.27-1.95.27-3.56v-8.65H10.05v8.65c0,1.59.09,2.78.27,3.55s.51,1.41,1,1.91c.42.44.91.76,1.46.97s1.29.34,2.19.39v.54H0v-.54c.91-.05,1.64-.18,2.19-.39s1.04-.54,1.46-.97c.5-.5.84-1.13,1.01-1.9s.26-1.95.26-3.56v-17.27c0-1.61-.09-2.8-.26-3.56s-.51-1.4-1.01-1.9c-.42-.45-.91-.78-1.48-.98s-1.29-.33-2.18-.38v-.54h14.98v.54c-.89.05-1.61.17-2.17.38s-1.05.53-1.49.98c-.48.5-.82,1.14-1,1.91s-.27,1.96-.27,3.55v7.52Z"/>
        <path class="cls-11" d="m39.6,68.21c0-2.63.56-5.06,1.69-7.31,1.12-2.24,2.77-4.2,4.92-5.88,1.61-1.23,3.34-2.18,5.2-2.85s3.73-1,5.62-1c2.41,0,4.73.53,6.98,1.58,2.25,1.06,4.22,2.54,5.91,4.47,2.75,3.13,4.12,6.68,4.12,10.67,0,2-.36,3.93-1.08,5.79-.72,1.86-1.77,3.56-3.14,5.09-1.69,1.91-3.68,3.39-5.99,4.43s-4.71,1.57-7.23,1.57-4.86-.51-7.12-1.52c-2.27-1.02-4.22-2.46-5.86-4.32-1.3-1.45-2.29-3.11-2.99-4.96s-1.04-3.78-1.04-5.78Zm5.67.35c0,4.53,1.23,8.36,3.7,11.47,1.11,1.39,2.29,2.4,3.53,3.04,1.24.63,2.68.95,4.3.95s3.08-.31,4.32-.94c1.24-.62,2.43-1.64,3.55-3.05,2.47-3.13,3.7-6.98,3.7-11.56,0-2.52-.34-4.9-1.02-7.14-.68-2.24-1.64-4.15-2.87-5.71-1-1.28-2.11-2.22-3.34-2.8s-2.68-.88-4.35-.88-3.09.29-4.3.87c-1.21.58-2.33,1.52-3.36,2.81-1.23,1.55-2.19,3.45-2.86,5.7s-1.01,4.67-1.01,7.25Z"/>
        <path class="cls-11" d="m86.94,68.34v8.3c0,1.59.09,2.78.27,3.55s.51,1.41,1,1.91c.42.44.91.76,1.46.97s1.29.34,2.19.39v.54h-14.98v-.54c.91-.05,1.64-.18,2.19-.39s1.04-.54,1.46-.97c.5-.5.84-1.13,1.01-1.9s.26-1.95.26-3.56v-17.27c0-1.61-.09-2.8-.26-3.56s-.51-1.4-1.01-1.9c-.42-.45-.91-.78-1.48-.98s-1.29-.33-2.18-.38v-.54h11.3c1.89,0,3.13,0,3.73.02,2.42.11,4.32.44,5.7.98,1.55.62,2.75,1.56,3.6,2.8s1.28,2.68,1.28,4.32c0,2.44-.92,4.39-2.77,5.86-.56.44-1.18.8-1.86,1.08s-1.59.55-2.73.8c.94.39,1.63.8,2.09,1.22.36.33.69.74.98,1.23s.74,1.36,1.34,2.61c1.39,2.86,2.44,4.95,3.15,6.27s1.31,2.28,1.79,2.87c.39.48.77.82,1.14,1.01s.87.31,1.51.38v.54h-7.78c-.39-.86-.64-1.41-.75-1.64l-1.64-3.73c-.98-2.23-1.98-4.21-2.98-5.93-1-1.7-1.91-2.87-2.74-3.49-.42-.31-.88-.54-1.36-.67s-1.08-.2-1.78-.2h-1.15Zm0-.52h.89c1.94,0,3.32-.11,4.16-.33s1.62-.67,2.36-1.36c1.64-1.56,2.46-3.5,2.46-5.81,0-1.23-.24-2.39-.71-3.48s-1.14-1.98-1.98-2.68c-.66-.53-1.44-.9-2.34-1.11s-2.2-.32-3.87-.32h-.96v15.09Z"/>
        <path class="cls-11" d="m108.46,68.21c0-2.63.56-5.06,1.69-7.31,1.12-2.24,2.77-4.2,4.92-5.88,1.61-1.23,3.34-2.18,5.2-2.85s3.73-1,5.62-1c2.41,0,4.73.53,6.98,1.58,2.25,1.06,4.22,2.54,5.91,4.47,2.75,3.13,4.12,6.68,4.12,10.67,0,2-.36,3.93-1.08,5.79-.72,1.86-1.77,3.56-3.14,5.09-1.69,1.91-3.68,3.39-5.99,4.43s-4.71,1.57-7.23,1.57-4.86-.51-7.12-1.52c-2.27-1.02-4.22-2.46-5.86-4.32-1.3-1.45-2.29-3.11-2.99-4.96s-1.04-3.78-1.04-5.78Zm5.67.35c0,4.53,1.23,8.36,3.7,11.47,1.11,1.39,2.29,2.4,3.53,3.04,1.24.63,2.68.95,4.3.95s3.08-.31,4.32-.94c1.24-.62,2.43-1.64,3.55-3.05,2.47-3.13,3.7-6.98,3.7-11.56,0-2.52-.34-4.9-1.02-7.14-.68-2.24-1.64-4.15-2.87-5.71-1-1.28-2.11-2.22-3.34-2.8s-2.68-.88-4.35-.88-3.09.29-4.3.87c-1.21.58-2.33,1.52-3.36,2.81-1.23,1.55-2.19,3.45-2.86,5.7s-1.01,4.67-1.01,7.25Z"/>
        <path class="cls-11" d="m147.67,83.9l.07-9.68.54.02c.66,2.46,1.44,4.4,2.34,5.82,1.7,2.62,3.84,3.93,6.42,3.93,1.8,0,3.28-.6,4.45-1.8s1.76-2.73,1.76-4.57c0-.8-.13-1.61-.39-2.44s-.61-1.54-1.04-2.13c-.45-.61-1.09-1.2-1.91-1.76s-2.07-1.27-3.76-2.13c-1.48-.75-2.62-1.38-3.41-1.9s-1.43-1.04-1.91-1.57c-1.34-1.47-2.02-3.26-2.02-5.37,0-1.3.26-2.55.79-3.75s1.25-2.23,2.19-3.09c1.66-1.53,3.62-2.3,5.88-2.3.73,0,1.41.07,2.04.22s1.46.44,2.51.88c.78.31,1.31.51,1.59.6s.53.13.75.13c.55,0,.91-.4,1.1-1.2h.54l.16,9.3h-.54c-.42-1.48-.78-2.62-1.09-3.41-.3-.79-.67-1.52-1.09-2.19-.76-1.22-1.61-2.12-2.53-2.71-.92-.59-1.98-.88-3.18-.88-1.75,0-3.13.59-4.14,1.78-.42.48-.75,1.06-1,1.71-.24.66-.36,1.31-.36,1.97,0,2.61,1.68,4.72,5.03,6.31l3.3,1.6c2.54,1.2,4.38,2.53,5.5,3.99,1.28,1.63,1.92,3.52,1.92,5.68,0,1.43-.29,2.81-.87,4.12-.81,1.82-2.03,3.23-3.66,4.22-1.62.99-3.54,1.48-5.74,1.48-2.02,0-3.95-.4-5.81-1.2-.97-.42-1.55-.66-1.73-.73s-.4-.09-.63-.09c-.75,0-1.27.38-1.55,1.12h-.54Z"/>
        <path class="cls-11" d="m200.85,51.84l.28,10.48h-.54c-.17-.45-.3-.8-.4-1.03-.55-1.5-.99-2.62-1.34-3.35-.61-1.31-1.49-2.52-2.65-3.61-.88-.83-1.78-1.43-2.72-1.8s-1.99-.56-3.16-.56c-1.77,0-3.3.38-4.59,1.15-1.14.67-2.2,1.64-3.19,2.89s-1.79,2.69-2.41,4.3c-.89,2.27-1.34,4.84-1.34,7.73,0,2.45.3,4.66.91,6.63s1.5,3.62,2.67,4.95c2.16,2.47,5.02,3.7,8.58,3.7,1.78,0,3.38-.31,4.8-.93s2.52-1.49,3.3-2.61c.91-1.3,1.56-3.05,1.97-5.25l.54.09c-.3,2.47-.97,4.43-2.02,5.88-1,1.39-2.38,2.45-4.14,3.19s-3.79,1.1-6.11,1.1c-2.16,0-4.22-.32-6.19-.96-3.14-1.03-5.59-2.89-7.36-5.59s-2.65-5.91-2.65-9.64c0-2.86.52-5.5,1.55-7.91s2.47-4.36,4.31-5.82c1.42-1.12,3.12-2.02,5.1-2.68s3.96-1,5.94-1,3.89.36,6,1.08l1.92.63c.38.14.7.21.98.21.39,0,.71-.16.96-.49.11-.16.24-.41.4-.77h.56Z"/>
        <path class="cls-11" d="m205.94,68.21c0-2.63.56-5.06,1.69-7.31,1.12-2.24,2.77-4.2,4.92-5.88,1.61-1.23,3.34-2.18,5.2-2.85s3.73-1,5.62-1c2.41,0,4.73.53,6.98,1.58,2.25,1.06,4.22,2.54,5.91,4.47,2.75,3.13,4.12,6.68,4.12,10.67,0,2-.36,3.93-1.08,5.79-.72,1.86-1.77,3.56-3.14,5.09-1.69,1.91-3.68,3.39-5.99,4.43s-4.71,1.57-7.23,1.57-4.86-.51-7.12-1.52c-2.27-1.02-4.22-2.46-5.86-4.32-1.3-1.45-2.29-3.11-2.99-4.96s-1.04-3.78-1.04-5.78Zm5.67.35c0,4.53,1.23,8.36,3.7,11.47,1.11,1.39,2.29,2.4,3.53,3.04,1.24.63,2.68.95,4.3.95s3.08-.31,4.32-.94c1.24-.62,2.43-1.64,3.55-3.05,2.47-3.13,3.7-6.98,3.7-11.56,0-2.52-.34-4.9-1.02-7.14-.68-2.24-1.64-4.15-2.87-5.71-1-1.28-2.11-2.22-3.34-2.8s-2.68-.88-4.35-.88-3.09.29-4.3.87c-1.21.58-2.33,1.52-3.36,2.81-1.23,1.55-2.19,3.45-2.86,5.7s-1.01,4.67-1.01,7.25Z"/>
        <path class="cls-11" d="m253.28,68.22v8.41c0,1.59.09,2.78.27,3.55s.51,1.41,1,1.91c.42.44.91.76,1.46.97s1.29.34,2.19.39v.54h-14.98v-.54c.91-.05,1.64-.18,2.19-.39s1.04-.54,1.46-.97c.5-.5.84-1.13,1.01-1.9s.26-1.95.26-3.56v-17.27c0-1.34-.06-2.38-.18-3.11s-.32-1.32-.6-1.77c-.41-.62-.92-1.09-1.55-1.39s-1.44-.49-2.44-.55h-.16v-.54h14.13c2.47,0,4.29.12,5.46.38s2.24.75,3.21,1.5c2.22,1.69,3.33,3.94,3.33,6.75s-1.12,4.95-3.38,6.28c-1.17.69-2.59,1.1-4.27,1.24-.53.05-1.81.07-3.84.07h-4.59Zm0-.75h2.3c1.55,0,2.74-.11,3.57-.34s1.58-.64,2.24-1.25c1.53-1.39,2.3-3.24,2.3-5.55,0-1.28-.22-2.46-.67-3.53s-1.08-1.94-1.91-2.61c-.95-.8-2.09-1.27-3.4-1.41-.36-.03-1.18-.05-2.46-.05h-1.97v14.74Z"/>
        <path class="cls-11" d="m296.17,52l.4,7.73-.54.02c-.2-1.31-.54-2.4-1.01-3.26s-1.15-1.62-2.04-2.27c-.73-.55-1.6-.93-2.6-1.16s-2.33-.34-3.98-.34h-5.37v14.06h1.41c1.42,0,2.49-.09,3.21-.28s1.3-.52,1.76-1.01c.44-.45.76-.99.97-1.61s.39-1.53.53-2.73l.54.02-.09,12.56h-.54c-.14-1.2-.35-2.17-.62-2.91s-.65-1.36-1.14-1.88c-.47-.5-1.08-.87-1.83-1.1s-1.7-.35-2.86-.35h-1.34v5.37c0,2.14.05,3.7.16,4.68s.32,1.79.63,2.45c.53,1.12,1.34,1.95,2.43,2.47s2.52.79,4.3.79c1.88,0,3.45-.24,4.71-.71s2.3-1.21,3.09-2.21c.56-.67,1.02-1.44,1.37-2.3s.68-1.99.97-3.4l.54.02-.3,9.33h-27.96v-.54c.89-.05,1.61-.17,2.17-.38s1.05-.53,1.49-.98c.48-.5.82-1.14,1-1.91s.27-1.96.27-3.55v-17.27c0-1.59-.09-2.78-.27-3.55s-.51-1.41-1-1.91c-.42-.45-.91-.78-1.46-.98s-1.29-.33-2.19-.38v-.54h25.2Z"/>
      </g>
      <g class="cls-13">
        <path class="cls-6" d="m40.48.54c-.89.05-1.61.17-2.14.36s-1.04.52-1.49.97c-.34.33-.6.69-.77,1.09s-.29.9-.35,1.51c-.11.81-.16,1.77-.16,2.88v17.27c0,1.61.09,2.8.28,3.59s.52,1.41,1.01,1.88c.86.83,2.07,1.28,3.63,1.36v.54h-14.98v-.54c.91-.05,1.64-.18,2.19-.39s1.05-.54,1.49-.97c.48-.5.82-1.14,1-1.91s.27-1.96.27-3.55V3.68l-12.07,28.31h-.49L5.88,4.1v20.53c0,1.61.09,2.8.27,3.56s.51,1.4,1,1.9c.44.45.93.78,1.49.98s1.28.33,2.17.38v.54H0v-.54c.89-.05,1.61-.17,2.17-.38s1.05-.53,1.49-.98c.48-.5.82-1.14,1-1.91s.27-1.96.27-3.55V7.36c0-.72-.02-1.4-.07-2.04-.08-1.16-.26-2-.54-2.53-.39-.73-.93-1.28-1.61-1.63S1.12.6,0,.54v-.54h10.17l10.15,25.05L30.84,0h9.63v.54Z"/>
        <path class="cls-10" d="m53.02,31.99v-.54c.89-.05,1.62-.17,2.18-.38s1.06-.53,1.5-.98c.48-.5.81-1.13.98-1.9s.26-1.95.26-3.56l.02-4.57c0-.66-.13-1.38-.4-2.18-.3-.92-.91-2.08-1.83-3.47l-6.07-9.12-1.08-1.64c-.8-1.19-1.58-2-2.34-2.44-.39-.23-.78-.4-1.17-.49s-.94-.16-1.64-.19v-.54h15.28v.54c-1.3.08-2.12.2-2.48.35-.88.38-1.31,1.05-1.31,2.04,0,.36.1.77.29,1.22s.51,1.02.95,1.71l6.35,9.94,5.44-8.48.61-.96c.58-.91.87-1.8.87-2.67,0-1-.32-1.77-.96-2.32s-1.54-.82-2.7-.82v-.54h10.78v.54c-.81.09-1.44.23-1.88.41s-.88.47-1.34.88c-1.06,1-2.24,2.49-3.54,4.48l-5.34,8.16c-.64.97-1.03,1.68-1.17,2.13s-.21,1.22-.21,2.3v5.74c0,1.67.08,2.87.25,3.6s.5,1.35,1,1.86c.86.91,2.09,1.36,3.68,1.36v.54h-14.98Z"/>
        <path class="cls-12" d="m10.05,66.88h16.64v-7.52c0-1.61-.09-2.8-.27-3.56s-.51-1.4-1-1.9c-.44-.45-.93-.78-1.49-.98s-1.29-.33-2.19-.38v-.54h14.98v.54c-.89.05-1.61.17-2.17.38s-1.05.53-1.49.98c-.48.5-.82,1.14-1,1.91s-.27,1.96-.27,3.55v17.27c0,1.59.09,2.77.27,3.54s.51,1.41,1,1.92c.44.44.93.76,1.49.97s1.28.34,2.17.39v.54h-14.98v-.54c.91-.05,1.64-.18,2.19-.39s1.05-.54,1.49-.97c.48-.5.82-1.13,1-1.9s.27-1.95.27-3.56v-8.65H10.05v8.65c0,1.59.09,2.78.27,3.55s.51,1.41,1,1.91c.42.44.91.76,1.46.97s1.29.34,2.19.39v.54H0v-.54c.91-.05,1.64-.18,2.19-.39s1.04-.54,1.46-.97c.5-.5.84-1.13,1.01-1.9s.26-1.95.26-3.56v-17.27c0-1.61-.09-2.8-.26-3.56s-.51-1.4-1.01-1.9c-.42-.45-.91-.78-1.48-.98s-1.29-.33-2.18-.38v-.54h14.98v.54c-.89.05-1.61.17-2.17.38s-1.05.53-1.49.98c-.48.5-.82,1.14-1,1.91s-.27,1.96-.27,3.55v7.52Z"/>
        <path class="cls-9" d="m39.6,68.21c0-2.63.56-5.06,1.69-7.31,1.12-2.24,2.77-4.2,4.92-5.88,1.61-1.23,3.34-2.18,5.2-2.85s3.73-1,5.62-1c2.41,0,4.73.53,6.98,1.58,2.25,1.06,4.22,2.54,5.91,4.47,2.75,3.13,4.12,6.68,4.12,10.67,0,2-.36,3.93-1.08,5.79-.72,1.86-1.77,3.56-3.14,5.09-1.69,1.91-3.68,3.39-5.99,4.43s-4.71,1.57-7.23,1.57-4.86-.51-7.12-1.52c-2.27-1.02-4.22-2.46-5.86-4.32-1.3-1.45-2.29-3.11-2.99-4.96s-1.04-3.78-1.04-5.78Zm5.67.35c0,4.53,1.23,8.36,3.7,11.47,1.11,1.39,2.29,2.4,3.53,3.04,1.24.63,2.68.95,4.3.95s3.08-.31,4.32-.94c1.24-.62,2.43-1.64,3.55-3.05,2.47-3.13,3.7-6.98,3.7-11.56,0-2.52-.34-4.9-1.02-7.14-.68-2.24-1.64-4.15-2.87-5.71-1-1.28-2.11-2.22-3.34-2.8s-2.68-.88-4.35-.88-3.09.29-4.3.87c-1.21.58-2.33,1.52-3.36,2.81-1.23,1.55-2.19,3.45-2.86,5.7s-1.01,4.67-1.01,7.25Z"/>
        <path class="cls-2" d="m86.94,68.34v8.3c0,1.59.09,2.78.27,3.55s.51,1.41,1,1.91c.42.44.91.76,1.46.97s1.29.34,2.19.39v.54h-14.98v-.54c.91-.05,1.64-.18,2.19-.39s1.04-.54,1.46-.97c.5-.5.84-1.13,1.01-1.9s.26-1.95.26-3.56v-17.27c0-1.61-.09-2.8-.26-3.56s-.51-1.4-1.01-1.9c-.42-.45-.91-.78-1.48-.98s-1.29-.33-2.18-.38v-.54h11.3c1.89,0,3.13,0,3.73.02,2.42.11,4.32.44,5.7.98,1.55.62,2.75,1.56,3.6,2.8s1.28,2.68,1.28,4.32c0,2.44-.92,4.39-2.77,5.86-.56.44-1.18.8-1.86,1.08s-1.59.55-2.73.8c.94.39,1.63.8,2.09,1.22.36.33.69.74.98,1.23s.74,1.36,1.34,2.61c1.39,2.86,2.44,4.95,3.15,6.27s1.31,2.28,1.79,2.87c.39.48.77.82,1.14,1.01s.87.31,1.51.38v.54h-7.78c-.39-.86-.64-1.41-.75-1.64l-1.64-3.73c-.98-2.23-1.98-4.21-2.98-5.93-1-1.7-1.91-2.87-2.74-3.49-.42-.31-.88-.54-1.36-.67s-1.08-.2-1.78-.2h-1.15Zm0-.52h.89c1.94,0,3.32-.11,4.16-.33s1.62-.67,2.36-1.36c1.64-1.56,2.46-3.5,2.46-5.81,0-1.23-.24-2.39-.71-3.48s-1.14-1.98-1.98-2.68c-.66-.53-1.44-.9-2.34-1.11s-2.2-.32-3.87-.32h-.96v15.09Z"/>
        <path class="cls-3" d="m108.46,68.21c0-2.63.56-5.06,1.69-7.31,1.12-2.24,2.77-4.2,4.92-5.88,1.61-1.23,3.34-2.18,5.2-2.85s3.73-1,5.62-1c2.41,0,4.73.53,6.98,1.58,2.25,1.06,4.22,2.54,5.91,4.47,2.75,3.13,4.12,6.68,4.12,10.67,0,2-.36,3.93-1.08,5.79-.72,1.86-1.77,3.56-3.14,5.09-1.69,1.91-3.68,3.39-5.99,4.43s-4.71,1.57-7.23,1.57-4.86-.51-7.12-1.52c-2.27-1.02-4.22-2.46-5.86-4.32-1.3-1.45-2.29-3.11-2.99-4.96s-1.04-3.78-1.04-5.78Zm5.67.35c0,4.53,1.23,8.36,3.7,11.47,1.11,1.39,2.29,2.4,3.53,3.04,1.24.63,2.68.95,4.3.95s3.08-.31,4.32-.94c1.24-.62,2.43-1.64,3.55-3.05,2.47-3.13,3.7-6.98,3.7-11.56,0-2.52-.34-4.9-1.02-7.14-.68-2.24-1.64-4.15-2.87-5.71-1-1.28-2.11-2.22-3.34-2.8s-2.68-.88-4.35-.88-3.09.29-4.3.87c-1.21.58-2.33,1.52-3.36,2.81-1.23,1.55-2.19,3.45-2.86,5.7s-1.01,4.67-1.01,7.25Z"/>
        <path class="cls-1" d="m147.67,83.9l.07-9.68.54.02c.66,2.46,1.44,4.4,2.34,5.82,1.7,2.62,3.84,3.93,6.42,3.93,1.8,0,3.28-.6,4.45-1.8s1.76-2.73,1.76-4.57c0-.8-.13-1.61-.39-2.44s-.61-1.54-1.04-2.13c-.45-.61-1.09-1.2-1.91-1.76s-2.07-1.27-3.76-2.13c-1.48-.75-2.62-1.38-3.41-1.9s-1.43-1.04-1.91-1.57c-1.34-1.47-2.02-3.26-2.02-5.37,0-1.3.26-2.55.79-3.75s1.25-2.23,2.19-3.09c1.66-1.53,3.62-2.3,5.88-2.3.73,0,1.41.07,2.04.22s1.46.44,2.51.88c.78.31,1.31.51,1.59.6s.53.13.75.13c.55,0,.91-.4,1.1-1.2h.54l.16,9.3h-.54c-.42-1.48-.78-2.62-1.09-3.41-.3-.79-.67-1.52-1.09-2.19-.76-1.22-1.61-2.12-2.53-2.71-.92-.59-1.98-.88-3.18-.88-1.75,0-3.13.59-4.14,1.78-.42.48-.75,1.06-1,1.71-.24.66-.36,1.31-.36,1.97,0,2.61,1.68,4.72,5.03,6.31l3.3,1.6c2.54,1.2,4.38,2.53,5.5,3.99,1.28,1.63,1.92,3.52,1.92,5.68,0,1.43-.29,2.81-.87,4.12-.81,1.82-2.03,3.23-3.66,4.22-1.62.99-3.54,1.48-5.74,1.48-2.02,0-3.95-.4-5.81-1.2-.97-.42-1.55-.66-1.73-.73s-.4-.09-.63-.09c-.75,0-1.27.38-1.55,1.12h-.54Z"/>
        <path class="cls-7" d="m200.85,51.84l.28,10.48h-.54c-.17-.45-.3-.8-.4-1.03-.55-1.5-.99-2.62-1.34-3.35-.61-1.31-1.49-2.52-2.65-3.61-.88-.83-1.78-1.43-2.72-1.8s-1.99-.56-3.16-.56c-1.77,0-3.3.38-4.59,1.15-1.14.67-2.2,1.64-3.19,2.89s-1.79,2.69-2.41,4.3c-.89,2.27-1.34,4.84-1.34,7.73,0,2.45.3,4.66.91,6.63s1.5,3.62,2.67,4.95c2.16,2.47,5.02,3.7,8.58,3.7,1.78,0,3.38-.31,4.8-.93s2.52-1.49,3.3-2.61c.91-1.3,1.56-3.05,1.97-5.25l.54.09c-.3,2.47-.97,4.43-2.02,5.88-1,1.39-2.38,2.45-4.14,3.19s-3.79,1.1-6.11,1.1c-2.16,0-4.22-.32-6.19-.96-3.14-1.03-5.59-2.89-7.36-5.59s-2.65-5.91-2.65-9.64c0-2.86.52-5.5,1.55-7.91s2.47-4.36,4.31-5.82c1.42-1.12,3.12-2.02,5.1-2.68s3.96-1,5.94-1,3.89.36,6,1.08l1.92.63c.38.14.7.21.98.21.39,0,.71-.16.96-.49.11-.16.24-.41.4-.77h.56Z"/>
        <path class="cls-5" d="m205.94,68.21c0-2.63.56-5.06,1.69-7.31,1.12-2.24,2.77-4.2,4.92-5.88,1.61-1.23,3.34-2.18,5.2-2.85s3.73-1,5.62-1c2.41,0,4.73.53,6.98,1.58,2.25,1.06,4.22,2.54,5.91,4.47,2.75,3.13,4.12,6.68,4.12,10.67,0,2-.36,3.93-1.08,5.79-.72,1.86-1.77,3.56-3.14,5.09-1.69,1.91-3.68,3.39-5.99,4.43s-4.71,1.57-7.23,1.57-4.86-.51-7.12-1.52c-2.27-1.02-4.22-2.46-5.86-4.32-1.3-1.45-2.29-3.11-2.99-4.96s-1.04-3.78-1.04-5.78Zm5.67.35c0,4.53,1.23,8.36,3.7,11.47,1.11,1.39,2.29,2.4,3.53,3.04,1.24.63,2.68.95,4.3.95s3.08-.31,4.32-.94c1.24-.62,2.43-1.64,3.55-3.05,2.47-3.13,3.7-6.98,3.7-11.56,0-2.52-.34-4.9-1.02-7.14-.68-2.24-1.64-4.15-2.87-5.71-1-1.28-2.11-2.22-3.34-2.8s-2.68-.88-4.35-.88-3.09.29-4.3.87c-1.21.58-2.33,1.52-3.36,2.81-1.23,1.55-2.19,3.45-2.86,5.7s-1.01,4.67-1.01,7.25Z"/>
        <path class="cls-8" d="m253.28,68.22v8.41c0,1.59.09,2.78.27,3.55s.51,1.41,1,1.91c.42.44.91.76,1.46.97s1.29.34,2.19.39v.54h-14.98v-.54c.91-.05,1.64-.18,2.19-.39s1.04-.54,1.46-.97c.5-.5.84-1.13,1.01-1.9s.26-1.95.26-3.56v-17.27c0-1.34-.06-2.38-.18-3.11s-.32-1.32-.6-1.77c-.41-.62-.92-1.09-1.55-1.39s-1.44-.49-2.44-.55h-.16v-.54h14.13c2.47,0,4.29.12,5.46.38s2.24.75,3.21,1.5c2.22,1.69,3.33,3.94,3.33,6.75s-1.12,4.95-3.38,6.28c-1.17.69-2.59,1.1-4.27,1.24-.53.05-1.81.07-3.84.07h-4.59Zm0-.75h2.3c1.55,0,2.74-.11,3.57-.34s1.58-.64,2.24-1.25c1.53-1.39,2.3-3.24,2.3-5.55,0-1.28-.22-2.46-.67-3.53s-1.08-1.94-1.91-2.61c-.95-.8-2.09-1.27-3.4-1.41-.36-.03-1.18-.05-2.46-.05h-1.97v14.74Z"/>
        <path class="cls-4" d="m296.17,52l.4,7.73-.54.02c-.2-1.31-.54-2.4-1.01-3.26s-1.15-1.62-2.04-2.27c-.73-.55-1.6-.93-2.6-1.16s-2.33-.34-3.98-.34h-5.37v14.06h1.41c1.42,0,2.49-.09,3.21-.28s1.3-.52,1.76-1.01c.44-.45.76-.99.97-1.61s.39-1.53.53-2.73l.54.02-.09,12.56h-.54c-.14-1.2-.35-2.17-.62-2.91s-.65-1.36-1.14-1.88c-.47-.5-1.08-.87-1.83-1.1s-1.7-.35-2.86-.35h-1.34v5.37c0,2.14.05,3.7.16,4.68s.32,1.79.63,2.45c.53,1.12,1.34,1.95,2.43,2.47s2.52.79,4.3.79c1.88,0,3.45-.24,4.71-.71s2.3-1.21,3.09-2.21c.56-.67,1.02-1.44,1.37-2.3s.68-1.99.97-3.4l.54.02-.3,9.33h-27.96v-.54c.89-.05,1.61-.17,2.17-.38s1.05-.53,1.49-.98c.48-.5.82-1.14,1-1.91s.27-1.96.27-3.55v-17.27c0-1.59-.09-2.78-.27-3.55s-.51-1.41-1-1.91c-.42-.45-.91-.78-1.46-.98s-1.29-.33-2.19-.38v-.54h25.2Z"/>
      </g>
    </g>
  </g>
</svg>