<?xml version="1.0" encoding="UTF-8"?>
<svg id="_レイヤー_2" data-name="レイヤー 2" xmlns="http://www.w3.org/2000/svg" viewBox="0 0 21.76 20.72">
  <defs>
    <style>
      .cls-1 {
        fill: #fff;
        stroke-width: 0px;
      }
    </style>
  </defs>
  <g id="_デザイン" data-name="デザイン">
    <path class="cls-1" d="m17.55,8.42c.32,0,.57.26.57.57s-.26.57-.57.57h-1.59v1.02h1.59c.32,0,.57.26.57.57s-.26.57-.57.57h-2.16c-.31,0-.57-.26-.57-.57v-4.32c0-.31.26-.57.57-.57h2.16c.32,0,.57.26.57.57,0,.32-.26.57-.57.57h-1.59v1.02h1.59Zm-3.49,2.73c0,.25-.16.46-.39.54-.06.02-.12.03-.18.03-.18,0-.35-.08-.46-.23l-2.21-3.01v2.67c0,.31-.24.57-.56.58-.31,0-.57-.24-.58-.56,0,0,0-.01,0-.02v-4.32c0-.25.16-.46.39-.54.06-.02.12-.03.18-.03.18,0,.34.09.45.23l2.23,3.02v-2.68c0-.32.26-.57.57-.57s.57.26.57.57v4.32Zm-5.2,0c0,.31-.26.57-.57.57-.31,0-.57-.26-.57-.57h0v-4.32c0-.31.26-.57.57-.57s.57.26.57.57v4.32Zm-2.24.57h-2.16c-.31,0-.57-.26-.57-.57v-4.32c0-.32.26-.57.57-.57s.57.26.57.57v3.75h1.59c.32,0,.57.26.57.57,0,.31-.26.57-.57.57m15.14-2.9C21.76,3.96,16.87,0,10.88,0S0,3.96,0,8.83c0,4.36,3.87,8.01,9.1,8.71.35.07.84.23.96.53.08.32.1.65.03.98l-.15.92c-.04.27-.22,1.08.95.58s6.27-3.7,8.55-6.32c1.56-1.71,2.31-3.47,2.31-5.41"/>
  </g>
</svg>