<?xml version="1.0" encoding="UTF-8"?>
<svg id="_レイヤー_2" data-name="レイヤー 2" xmlns="http://www.w3.org/2000/svg" viewBox="0 0 18.82 13.47">
  <defs>
    <style>
      .cls-1 {
        fill: #39385d;
        stroke-width: 0px;
      }
    </style>
  </defs>
  <g id="design">
    <g>
      <path class="cls-1" d="m2.32,4.56c-.25-.28-.59-.4-.95-.48-.25-.05-.43-.29-.4-.54.14-1.04.29-2.08.43-3.12C1.45.16,1.68-.02,1.94,0c.06,0,.12.02.19.02,5.34.73,10.68,1.47,16.03,2.2.25.03.47.1.61.33.02.06.03.12.05.18-.48,3.49-.96,6.98-1.44,10.47-.02,0-.05.01-.06.03-.15.19-.34.27-.59.23-5.41-.75-10.82-1.49-16.23-2.23-.24-.03-.39-.14-.49-.35,0-.08-.02-.16,0-.23.14-1.03.28-2.05.42-3.08.01-.08.04-.15.07-.22.15-.17.33-.23.56-.21.37.04.72-.03,1.03-.27.04-.03.08-.06.12-.09.03-.04.06-.08.09-.13,0,0,0-.02,0-.03.04-.02.1-.02.12-.05.42-.57.48-1.41-.05-1.99-.01-.01-.02-.02-.03-.03Zm3.23-2.06s-.04-.02-.06-.04c-.26-.3-.04-.63-.06-.93-1.03-.14-2.05-.28-3.08-.42-.09.67-.18,1.33-.28,1.99-.01.1.03.13.1.16.11.04.23.08.34.12,0,0,.02,0,.03,0,.05.05.1.12.16.16.3.21.54.47.71.8.09.18.19.37.28.55,0,.02.01.05.02.07,0,.05,0,.1,0,.15.1.58.04,1.15-.23,1.67-.42.8-1.09,1.27-1.98,1.4-.13.02-.14.07-.16.16-.08.57-.16,1.14-.24,1.72,0,.07-.02.14-.03.21,1.03.14,2.04.28,3.06.42.03-.19.05-.36.07-.54.04-.24.26-.43.51-.41.26.02.48.21.49.45,0,.21-.02.42-.03.64,3.75.52,7.5,1.03,11.25,1.55.42-3.06.84-6.11,1.26-9.16-3.75-.52-7.49-1.03-11.24-1.55-.02.17-.04.34-.07.5-.04.24-.21.39-.42.44-.13.03-.31.03-.42-.12Z"/>
      <path class="cls-1" d="m9.5,9.84c.06-.1.11-.2.18-.29.71-.81,1.42-1.61,2.13-2.41.87-.99,1.74-1.98,2.62-2.97.13-.14.25-.3.48-.29.35,0,.58.27.53.61-.04.29-.28.4-.43.58-.61.72-1.24,1.42-1.87,2.12-.91,1.02-1.82,2.04-2.73,3.06-.17.19-.42.26-.6.16-.21-.12-.34-.36-.31-.58Z"/>
      <path class="cls-1" d="m9.22,4.59c-.01-.49.4-.77.69-1.13.32-.06.64-.21.97-.15,1.02.18,1.5.87,1.38,1.75-.13.91-.83,1.37-1.68,1.32-.93-.05-1.52-1.04-1.35-1.79Zm1.01.18c-.04.29.14.54.42.58.28.04.58-.17.6-.44.02-.3-.13-.52-.47-.58-.28-.05-.54.2-.54.44Z"/>
      <path class="cls-1" d="m12.73,9.27c.07-.78.86-1.43,1.67-1.31,1,.14,1.5.9,1.38,1.75-.13.9-.89,1.39-1.73,1.32-.82-.08-1.48-.96-1.32-1.75Zm1.44.72c.28.04.58-.17.59-.44.02-.3-.14-.52-.48-.58-.28-.04-.52.2-.54.44-.02.29.14.54.43.57Z"/>
      <path class="cls-1" d="m4.57,7.63c.02-.18.05-.35.07-.53.04-.26.25-.45.51-.43.24.02.51.21.49.46-.04.43-.1.86-.18,1.28-.04.23-.37.36-.63.28-.19-.06-.37-.29-.34-.51.03-.19.05-.37.08-.56h0Z"/>
      <path class="cls-1" d="m4.99,4.57c.02-.18.05-.36.07-.54.04-.24.26-.43.5-.41.25.02.51.21.49.46-.04.43-.1.86-.18,1.28-.04.23-.37.36-.62.29-.19-.06-.37-.28-.34-.51.03-.19.05-.37.08-.56Z"/>
    </g>
  </g>
</svg>