<?xml version="1.0" encoding="UTF-8"?>
<svg id="_レイヤー_2" data-name="レイヤー 2" xmlns="http://www.w3.org/2000/svg" xmlns:xlink="http://www.w3.org/1999/xlink" viewBox="0 0 123.9 35.36">
  <defs>
    <style>
      .cls-1 {
        fill: url(#_新規グラデーションスウォッチ_1);
      }

      .cls-1, .cls-2, .cls-3, .cls-4, .cls-5, .cls-6 {
        stroke-width: 0px;
      }

      .cls-2 {
        fill: url(#_新規グラデーションスウォッチ_1-2);
      }

      .cls-3 {
        fill: url(#_新規グラデーションスウォッチ_1-3);
      }

      .cls-4 {
        fill: url(#_新規グラデーションスウォッチ_1-4);
      }

      .cls-5 {
        fill: url(#_新規グラデーションスウォッチ_1-6);
      }

      .cls-6 {
        fill: url(#_新規グラデーションスウォッチ_1-5);
      }
    </style>
    <linearGradient id="_新規グラデーションスウォッチ_1" data-name="新規グラデーションスウォッチ 1" x1="-32.41" y1="130.95" x2="19.06" y2="-22.53" gradientUnits="userSpaceOnUse">
      <stop offset="0" stop-color="#c9ddf1"/>
      <stop offset=".06" stop-color="#c1daef" stop-opacity=".97"/>
      <stop offset=".15" stop-color="#add2ec" stop-opacity=".89"/>
      <stop offset=".26" stop-color="#8cc5e6" stop-opacity=".75"/>
      <stop offset=".38" stop-color="#5fb2df" stop-opacity=".57"/>
      <stop offset=".52" stop-color="#259cd5" stop-opacity=".33"/>
      <stop offset=".54" stop-color="#1e99d4" stop-opacity=".3"/>
      <stop offset=".76" stop-color="#0075bb"/>
      <stop offset=".96" stop-color="#005b94"/>
    </linearGradient>
    <linearGradient id="_新規グラデーションスウォッチ_1-2" data-name="新規グラデーションスウォッチ 1" x1="-14.82" y1="136.85" x2="36.65" y2="-16.63" xlink:href="#_新規グラデーションスウォッチ_1"/>
    <linearGradient id="_新規グラデーションスウォッチ_1-3" data-name="新規グラデーションスウォッチ 1" x1="-4.02" y1="140.47" x2="47.46" y2="-13.01" xlink:href="#_新規グラデーションスウォッチ_1"/>
    <linearGradient id="_新規グラデーションスウォッチ_1-4" data-name="新規グラデーションスウォッチ 1" x1="16.92" y1="147.49" x2="68.39" y2="-5.99" xlink:href="#_新規グラデーションスウォッチ_1"/>
    <linearGradient id="_新規グラデーションスウォッチ_1-5" data-name="新規グラデーションスウォッチ 1" x1="37.86" y1="154.51" x2="89.33" y2="1.04" xlink:href="#_新規グラデーションスウォッチ_1"/>
    <linearGradient id="_新規グラデーションスウォッチ_1-6" data-name="新規グラデーションスウォッチ 1" x1="66.4" y1="164.09" x2="117.87" y2="10.61" xlink:href="#_新規グラデーションスウォッチ_1"/>
  </defs>
  <g id="design">
    <g>
      <path class="cls-1" d="m7.29.38h.49v23.05c0,1.08.09,1.95.28,2.63.19.68.48,1.19.87,1.52.67.57,1.74.92,3.22,1.05v.44H0v-.44c.94-.07,1.64-.19,2.11-.35.47-.16.89-.44,1.25-.83.36-.39.61-.86.75-1.41.13-.55.2-1.38.2-2.5V3.49c-.74.08-1.31.13-1.7.13-1.02,0-1.86-.08-2.5-.25v-.38h.48c1.08,0,2.1-.18,3.07-.54s2.02-.94,3.17-1.73l.47-.34Z"/>
      <path class="cls-2" d="m18.36,35.36l-.19-.46c.91-.38,1.63-.78,2.17-1.2.53-.42.99-.96,1.37-1.62.59-1.01.92-1.99,1.01-2.94-.38.13-.71.19-.99.19-.77,0-1.4-.23-1.89-.68-.49-.46-.74-1.05-.74-1.78s.25-1.3.74-1.81c.49-.5,1.08-.76,1.77-.76.84,0,1.52.34,2.04,1.01s.78,1.57.78,2.67-.26,2.18-.79,3.25-1.22,1.96-2.09,2.64c-.91.73-1.97,1.22-3.17,1.47Z"/>
      <path class="cls-3" d="m38.15,0c1.47,0,2.85.67,4.12,2,.63.64,1.26,1.49,1.87,2.52.62,1.04,1.14,2.09,1.58,3.17.95,2.47,1.43,4.81,1.43,7.02s-.48,4.56-1.43,7.04c-.44,1.09-.96,2.15-1.58,3.17-.62,1.02-1.24,1.86-1.87,2.5-1.29,1.35-2.67,2.02-4.12,2.02s-2.82-.67-4.12-2.02c-.62-.64-1.24-1.48-1.86-2.5-.62-1.02-1.15-2.08-1.57-3.17-.97-2.49-1.45-4.84-1.45-7.04s.48-4.55,1.45-7.02c.42-1.08.94-2.14,1.57-3.17s1.25-1.88,1.86-2.52c1.29-1.33,2.67-2,4.12-2Zm0,.5c-.56,0-1.11.21-1.65.64-.54.43-1.02,1.02-1.44,1.78-.32.58-.64,1.35-.97,2.32-.32.97-.59,1.94-.8,2.89-.45,2.2-.67,4.39-.67,6.58s.22,4.38.67,6.58c.21.98.48,1.96.8,2.92.32.97.64,1.73.97,2.29.43.79.92,1.38,1.46,1.8.54.41,1.1.62,1.69.62.52,0,1.05-.21,1.59-.64.55-.43,1.03-1.02,1.45-1.78.31-.56.63-1.32.95-2.29.33-.97.59-1.94.79-2.92.46-2.21.69-4.41.69-6.58s-.23-4.37-.69-6.58c-.2-.95-.46-1.92-.79-2.89-.33-.97-.65-1.75-.95-2.32-.42-.76-.9-1.35-1.44-1.78-.54-.43-1.09-.64-1.67-.64Z"/>
      <path class="cls-4" d="m61.44,0c1.47,0,2.85.67,4.12,2,.63.64,1.26,1.49,1.87,2.52.62,1.04,1.14,2.09,1.58,3.17.95,2.47,1.43,4.81,1.43,7.02s-.48,4.56-1.43,7.04c-.44,1.09-.96,2.15-1.58,3.17-.62,1.02-1.24,1.86-1.87,2.5-1.29,1.35-2.67,2.02-4.12,2.02s-2.82-.67-4.12-2.02c-.62-.64-1.24-1.48-1.86-2.5-.62-1.02-1.15-2.08-1.57-3.17-.97-2.49-1.45-4.84-1.45-7.04s.48-4.55,1.45-7.02c.42-1.08.94-2.14,1.57-3.17s1.25-1.88,1.86-2.52c1.29-1.33,2.67-2,4.12-2Zm0,.5c-.56,0-1.11.21-1.65.64-.54.43-1.02,1.02-1.44,1.78-.32.58-.64,1.35-.97,2.32-.32.97-.59,1.94-.8,2.89-.45,2.2-.67,4.39-.67,6.58s.22,4.38.67,6.58c.21.98.48,1.96.8,2.92.32.97.64,1.73.97,2.29.43.79.92,1.38,1.46,1.8.54.41,1.1.62,1.69.62.52,0,1.05-.21,1.59-.64.55-.43,1.03-1.02,1.45-1.78.31-.56.63-1.32.95-2.29.33-.97.59-1.94.79-2.92.46-2.21.69-4.41.69-6.58s-.23-4.37-.69-6.58c-.2-.95-.46-1.92-.79-2.89-.33-.97-.65-1.75-.95-2.32-.42-.76-.9-1.35-1.44-1.78-.54-.43-1.09-.64-1.67-.64Z"/>
      <path class="cls-6" d="m84.74,0c1.47,0,2.85.67,4.12,2,.63.64,1.26,1.49,1.87,2.52.62,1.04,1.14,2.09,1.58,3.17.95,2.47,1.43,4.81,1.43,7.02s-.48,4.56-1.43,7.04c-.44,1.09-.96,2.15-1.58,3.17-.62,1.02-1.24,1.86-1.87,2.5-1.29,1.35-2.67,2.02-4.12,2.02s-2.82-.67-4.12-2.02c-.62-.64-1.24-1.48-1.86-2.5-.62-1.02-1.15-2.08-1.57-3.17-.97-2.49-1.45-4.84-1.45-7.04s.48-4.55,1.45-7.02c.42-1.08.94-2.14,1.57-3.17s1.25-1.88,1.86-2.52c1.29-1.33,2.67-2,4.12-2Zm0,.5c-.56,0-1.11.21-1.65.64-.54.43-1.02,1.02-1.44,1.78-.32.58-.64,1.35-.97,2.32-.32.97-.59,1.94-.8,2.89-.45,2.2-.67,4.39-.67,6.58s.22,4.38.67,6.58c.21.98.48,1.96.8,2.92.32.97.64,1.73.97,2.29.43.79.92,1.38,1.46,1.8.54.41,1.1.62,1.69.62.52,0,1.05-.21,1.59-.64.55-.43,1.03-1.02,1.45-1.78.31-.56.63-1.32.95-2.29.33-.97.59-1.94.79-2.92.46-2.21.69-4.41.69-6.58s-.23-4.37-.69-6.58c-.2-.95-.46-1.92-.79-2.89-.33-.97-.65-1.75-.95-2.32-.42-.76-.9-1.35-1.44-1.78-.54-.43-1.09-.64-1.67-.64Z"/>
      <path class="cls-5" d="m123.9,27.91c0,1.43-.31,2.16-1.23,2.57-.88.44-2.2.48-4.16.48-.13-.73-.57-1.94-.95-2.62,1.25.09,2.68.07,3.12.07.42-.02.57-.15.57-.53v-5.32h-13.29v8.41h-2.64V11.82h18.57v16.08Zm-15.93-7.94h5.19v-5.54h-5.19v5.54Zm13.29,0v-5.54h-5.5v5.54h5.5Z"/>
    </g>
  </g>
</svg>