<?xml version="1.0" encoding="UTF-8"?>
<svg id="_レイヤー_2" data-name="レイヤー 2" xmlns="http://www.w3.org/2000/svg" viewBox="0 0 273.77 205.43">
  <defs>
    <style>
      .cls-1, .cls-2, .cls-3, .cls-4, .cls-5, .cls-6, .cls-7, .cls-8, .cls-9, .cls-10, .cls-11, .cls-12, .cls-13, .cls-14, .cls-15, .cls-16, .cls-17 {
        stroke-width: 0px;
      }

      .cls-1, .cls-2, .cls-3, .cls-4, .cls-5, .cls-7, .cls-10, .cls-11, .cls-13, .cls-18, .cls-19, .cls-17 {
        fill-rule: evenodd;
      }

      .cls-1, .cls-6 {
        fill: #3b6888;
      }

      .cls-2, .cls-14 {
        fill: #7984a4;
      }

      .cls-20 {
        stroke: #ab9b93;
        stroke-width: 1.06px;
      }

      .cls-20, .cls-21 {
        fill: none;
        stroke-miterlimit: 10;
      }

      .cls-3 {
        fill: #525269;
      }

      .cls-4 {
        fill: #39385d;
      }

      .cls-5 {
        fill: #4b7a97;
      }

      .cls-7 {
        fill: #43769a;
      }

      .cls-8 {
        fill: #3580a4;
      }

      .cls-9 {
        fill: #598eb3;
        opacity: .04;
      }

      .cls-10 {
        fill: #cbc9cf;
      }

      .cls-11 {
        fill: #616e83;
      }

      .cls-12 {
        fill: #302f5d;
        opacity: .03;
      }

      .cls-13 {
        fill: #386280;
      }

      .cls-18, .cls-22 {
        stroke: #3b6888;
      }

      .cls-18, .cls-22, .cls-23, .cls-19 {
        stroke-linejoin: round;
      }

      .cls-18, .cls-19 {
        fill: #f3f3f5;
        stroke-width: 1.05px;
      }

      .cls-22, .cls-23, .cls-21 {
        stroke-width: .73px;
      }

      .cls-22, .cls-23, .cls-16 {
        fill: #efeff1;
      }

      .cls-23 {
        stroke: #3677a6;
      }

      .cls-21 {
        stroke: #39385d;
      }

      .cls-15 {
        fill: #a1928b;
      }

      .cls-19 {
        stroke: #717e9a;
      }

      .cls-17 {
        fill: #c4af96;
      }
    </style>
  </defs>
  <g id="design">
    <g>
      <circle class="cls-12" cx="60.81" cy="123.73" r="58.86"/>
      <path class="cls-16" d="m53.46,64.67s-.96,3.76-2.31,6.87c-2.39-.24-8.05.24-11.56,1.83-3.51,1.59-4.94,9.17-4.63,12.44.32,3.27,5.34,12.76,5.34,12.76l2.23,4.7-.8,16.83,1.28.16c-.08,6.94,3.83,10.45,7.66,13.08l4.94,14.51-6.94,3.99-1.59.4-2.07,1.36-.72,1.12s1.52,7.58,1.59,8.37,1.36,4.94,1.52,5.82,1.59,2.23,1.75,2.47,1.04-.24,1.99-.56c.96-.32.48-8.69.48-8.69l.56-5.66,5.42-1.28,5.34,16.83,4.23,11.72.24,1.46s.2.9.33,1.99,1.44,2.36,1.44,2.36l1.61.09,5.98.07s6.52-.27,6.73-.34,2.79-.68,2.99-.88.14-1.83,0-2.38-3.74-1.29-3.74-1.29c0,0-4.15-.82-4.45-.77s-1.94-.31-1.94-.31l-2.38-.54s-.68-.61-1-1.28l-2.07-25.04-.24-5.26s13-6.14,15.31-7.66c2.31-1.52,1.99-5.02,1.99-6.62s-2.31-4.39-2.31-4.39l-6.54-7.34-6.78-7.58-.72-1.12.72.08.48-.48-.4-4.63.4-.16,1.28.24h1.36l1.44-.32,2.07-1.75,8.21-11.8,3.91-6.06s.24-2.23.24-3.11-1.04-1.75-1.04-1.75l-1.83-.56c-.14-.83.47-1.79,1.08-2.37s1.25-1.38.97-2.17c-.26-.75-1.17-1-1.95-1.15-1.6-.3-3.23-.61-4.85-.46s-3.27.82-4.24,2.12c-.28.38-.51.81-.86,1.14s-.88.52-1.3.32c-.41-2.51-.85-5.07-2.13-7.27-1.28-2.19-3.6-3.96-6.14-3.85-1.21.05-3.13-.16-4.09-.46l2.08-5.5c2.23.3,4.76.37,6.47-.97s3.12-3.72,3.87-4.98c.74-1.26,2.9-7.21,2.9-7.21,0,0,2.31-6.25-.15-9.3-2.45-3.05-5.95-5.88-9.52-6.62-3.57-.74-9.89-.59-12.64,2.23-2.75,2.83-6.84,6.62-8.11,10.78-1.26,4.16-2.31,7.14-2.01,9,.3,1.86,1.34,4.16,2.16,4.24s2.05.71,3.44.54Z"/>
      <circle class="cls-9" cx="199.81" cy="103.31" r="54.99"/>
      <path class="cls-16" d="m205.82,51.14c.22-1.29.45-2.6,1.01-3.78s1.51-2.24,2.76-2.63c2.17-.68,4.37.77,6.18,2.14,2.6,1.97,5.22,3.95,7.49,6.3,2.27,2.35,4.19,5.11,5.16,8.22,1.37,4.42.8,9.4,2.94,13.51.8,1.55,1.97,2.9,2.61,4.52.8,2.01.74,4.24.68,6.4-.09,2.94-.19,5.88-.28,8.83l-1.44,4.62,1.12,23.11s3.65.18,4.17.27,2.47.2,3.11.23,2.1.2,2.44.29,1.31.41,1.51.61.93.58,1.13,1.11,1.37,2.59,1.31,3.11-.29,1.19-.55,1.22-1.02.15-1.02.15l-.47.52s-.35.52-.52.52-1.34-.35-1.45-.41-1.22-1.22-1.37-1.43-.47-.84-.64-.9-.58-.06-1.45-.15-5.3-.15-5.3-.15c0,0-.03.29.12.44s1.4,1.16,1.4,1.16c0,0,1.83,1.34,1.83,1.66s-.15,1.19-.44,1.28-1.22.41-1.43.35-1.78-.79-1.78-.79l-4.07-2.24-2.1-1.86s-.96-2.24-1.08-2.94h-15.07s-3.83,1.42-6.11,1.61c-2.28.19-8.16.67-14.84-.21s-12.61-1.66-14.3-2.6c-.03,1.07.27,2.84.27,2.84l.43,6.52.05,5.45.05,4.72-.05,7.41.05,4.29.13.94.38,1.45.64,2.92-.91.59s-4.45,1.64-5.26,1.88c-.8.24-5.23,1.4-5.88,1.53s-4.19.94-4.91.89-1.85-.3-1.85-.3l-.64-.72.03-1.23.67-.86,2.71-2.5,6.92-4.4-.05-1.66s-1.26-9.36-1.45-10.41c-.19-1.05-.83-3.57-.83-3.57l-1.88,3.68s-4.64,9.31-5.1,10.17-2.79,5.15-3.03,5.26-1.29-.13-1.29-.13c0,0-4.67-1.96-7.11-3.22s-7.38-4-7.92-4.67-1.64-2.47.78-3.03c2.41-.56,4-.11,4-.11l3.27.38,4.88.8,4.7-12.32,5.82-16.21.35-3.06s.59-4.51,1.96-5.82c1.37-1.31,2.87-2.5,5.45-2.87,2.58-.38,6.09-.75,7.38-.89,1.29-.13,6.68-.48,7.73-.56s3.6-.05,3.6-.05l-2.9-5.53s-3.52-7.97-3.76-8.61-1.66-4.62-1.66-4.62c0,0-2.17-1.5-2.76-1.88s-3.41-2.44-4.13-4.08c-.72-1.64-.97-3.25-.97-3.25l-.51-.7s-.62-1.15-.51-1.61.03-.7.03-.7l-.78-.78s-.24-.83.21-1.48c.46-.64,2.12-2.2,2.12-2.2l.08-.64-.27-1.91-.21-1.37s.03-1.1.91-.89c.89.21,1.77.8,1.77.8l5.53,2.41.43,1.34.33,1.7,2.83,1.39s2.63,2.09,2.71,2.36.62,3.78.62,3.78c0,0-.19,3.68-.24,4.11s-.03,2.01.27,2.63,5.18,10.65,5.18,10.65l1.86,3.53,1.54-1.25,6.23-6.68,1.15-1.5s-.3-2.76-.16-3.41,1.66-3.27,1.66-3.27l6.47-7.06,1.8-1.74-1.4-5.37-2.79-1.05s-5.53-1.96-6.41-2.33-3.11-1.05-3.03-3.43,1.13-4.56,1.13-4.56l-.11-.46-1.18-.89-.97-.99.75-.67,2.31-.97,1.45-4.08Z"/>
      <path class="cls-10" d="m158.72,136.05l7.88,4.66,1-1.78.67,1.78s2.55.11,3.44.11,5.11.11,5.99-.56c0,0-.33-15.21-.78-16.99,0,0,5.99,1.78,7.99,2,2,.22,11.99,1.11,14.1,1.11s9.1-.11,11.88-1.44c2.78-1.33,7.66-4.66,8.33-8.66l-15.32-10.1-6.11.11s-17.87.56-18.76.67-10.44.78-12.32,4.11c-1.89,3.33-1.89,7.33-2,8.66-.78,1.89-5.99,16.32-5.99,16.32Z"/>
      <g>
        <path class="cls-22" d="m270.27,87.1l3.14,1.24-3.14,1.24-1.24,3.14-1.24-3.14-3.14-1.24,3.14-1.24,1.24-3.14,1.24,3.14Z"/>
        <path class="cls-20" d="m199.78,198.21l3.23,1.27-3.23,1.27-1.27,3.23-1.27-3.23-3.23-1.27,3.23-1.27,1.27-3.23,1.27,3.23Z"/>
        <path class="cls-22" d="m11.8,179.96l2.12.84-2.12.84-.84,2.12-.84-2.12-2.12-.84,2.12-.84.84-2.12.84,2.12Z"/>
        <path class="cls-15" d="m55.9,3.14l3.14,1.24-3.14,1.24-1.24,3.14-1.24-3.14-3.14-1.24,3.14-1.24,1.24-3.14,1.24,3.14Z"/>
        <path class="cls-6" d="m247.3,38.47l-2.51,3.25-2.51-3.25,2.51-3.25,2.51,3.25Z"/>
        <path class="cls-8" d="m244.42,160.39l-2.51,3.25-2.51-3.25,2.51-3.25,2.51,3.25Z"/>
        <path class="cls-14" d="m264.97,189.3l2.34.92-2.34.92-.92,2.34-.92-2.34-2.34-.92,2.34-.92.92-2.34.92,2.34Z"/>
        <path class="cls-8" d="m24.82,119.99l-2.51,3.25-2.51-3.25,2.51-3.25,2.51,3.25Z"/>
        <circle class="cls-23" cx="185.74" cy="11.44" r="1.62"/>
        <circle class="cls-21" cx="2.5" cy="49.27" r="2.14"/>
        <circle class="cls-14" cx="144.47" cy="93.38" r="2.16"/>
      </g>
      <g>
        <path class="cls-7" d="m171.33,157.83s-.47-.16-1.05-.38c-.22-.08-.46-.18-.69-.28-.86-.37-1.69-.8-1.69-.8-.16-.07-.23-.25-.16-.4.07-.16.25-.23.4-.16,0,0,.88.31,1.74.67.24.1.47.21.68.31.57.27,1,.5,1,.5.15.06.22.24.16.39-.06.15-.24.22-.39.16Z"/>
        <path class="cls-7" d="m168.57,158.87s-.32-.14-.72-.35c-.15-.08-.31-.16-.47-.26-.57-.35-1.12-.74-1.12-.74-.15-.09-.2-.27-.11-.42.09-.15.27-.19.42-.11,0,0,.61.28,1.19.62.16.09.31.19.45.28.38.25.66.46.66.46.14.08.19.27.1.41-.08.14-.27.19-.41.11Z"/>
        <path class="cls-7" d="m152.28,148.08s.09.31.19.71c.04.15.07.31.1.48.1.6.15,1.21.15,1.21.03.17-.08.33-.25.36-.17.03-.33-.08-.36-.25,0,0-.17-.59-.29-1.18-.03-.16-.05-.33-.07-.48-.05-.41-.07-.73-.07-.73-.03-.16.08-.32.24-.35.16-.03.32.08.35.24Z"/>
        <path class="cls-7" d="m150.26,147.68s.07.29.13.68c.02.14.05.3.06.45.05.57.04,1.14.04,1.14.02.17-.11.32-.28.33-.17.02-.32-.11-.34-.28,0,0-.12-.56-.18-1.13-.02-.16-.02-.31-.03-.46-.01-.39,0-.69,0-.69-.02-.16.11-.31.27-.33.16-.02.31.11.33.27Z"/>
        <path class="cls-7" d="m178.49,158.54s-2.96,1.11-6.34,2.29c-.9.31-1.83.63-2.74.92-2.58.84-5.02,1.56-6.22,1.76-1.34.23-2.18.15-2.7-.01-.97-.31-1.02-.93-1.02-.93-.03-.17.09-.32.26-.35.17-.03.32.09.35.26,0,0,.11.36.92.49.47.07,1.14.06,2.08-.12.93-.18,2.64-.69,4.58-1.32,1.37-.44,2.85-.93,4.26-1.4,3.39-1.13,6.38-2.15,6.38-2.15.15-.06.33.02.38.18.06.16-.02.33-.18.38Z"/>
        <path class="cls-7" d="m158.37,157.23s-1.85-.81-4.21-1.88c-1.31-.6-2.79-1.27-4.19-1.92-2.53-1.19-4.81-2.31-5.53-2.73-.89-.51-1.56-1.13-2.03-1.7-.57-.7-.84-1.33-.87-1.64-.02-.17.1-.32.27-.34.17-.02.32.1.34.27.04.29.38.92,1.03,1.59.41.42.94.85,1.61,1.21.26.15.74.38,1.35.68,1.26.61,3.11,1.47,4.99,2.36,1.29.61,2.59,1.23,3.75,1.78,2.13,1.01,3.74,1.78,3.74,1.78.15.07.22.25.15.4-.07.15-.25.22-.4.15Z"/>
        <path class="cls-7" d="m157.49,157.86c.12-.13.35-.51.68-1.07.41-.71.94-1.7,1.55-2.85.08-.15.27-.21.41-.13.15.08.21.26.13.41-.6,1.16-1.13,2.16-1.54,2.89-.39.69-.68,1.13-.81,1.26-.13.12-.39.2-.78.15-.87-.11-2.6-.77-4.63-1.7-2.15-.98-4.64-2.25-6.74-3.41-1.99-1.1-3.62-2.11-4.31-2.69-1.15-.97-1.48-1.95-1.2-2.7.15-.42.48-.78,1-1.06.67-.35,1.66-.55,2.95-.5,1.16.05,2.61.21,4.06.42,3.03.43,6,1.02,6,1.02.16.03.27.19.24.35-.03.16-.19.27-.35.24,0,0-2.96-.55-5.98-.95-1.42-.19-2.86-.34-3.99-.37-1.41-.05-2.42.21-2.94.69-.61.56-.35,1.39.71,2.27,1.22,1.02,5.46,3.41,9.25,5.27,2.05,1.01,3.97,1.86,5.21,2.25.37.12.68.19.91.21.07,0,.16,0,.18,0Z"/>
        <path class="cls-7" d="m178.71,159.64c0-.18-.08-.62-.22-1.25-.18-.8-.44-1.9-.77-3.16-.04-.16.06-.33.22-.37.16-.04.33.06.37.22.34,1.27.61,2.36.8,3.17.18.77.26,1.29.24,1.47-.01.17-.16.41-.48.64-.71.5-2.45,1.17-4.57,1.85-2.25.72-4.95,1.45-7.28,2-2.21.52-4.1.87-5,.9-1.5.06-2.4-.45-2.71-1.19-.17-.41-.17-.9.03-1.45.26-.71.86-1.52,1.85-2.35.89-.74,2.08-1.6,3.29-2.41,2.53-1.72,5.13-3.27,5.13-3.27.14-.08.32-.04.41.1.08.14.04.33-.1.41,0,0-2.57,1.58-5.06,3.31-1.18.82-2.34,1.67-3.21,2.41-1.07.91-1.65,1.78-1.71,2.48-.07.83.68,1.27,2.05,1.21,1.59-.06,6.33-1.14,10.4-2.31,2.19-.63,4.19-1.29,5.37-1.83.35-.16.63-.31.81-.45.05-.04.11-.11.13-.13Z"/>
        <path class="cls-11" d="m154.44,148.25s.49,1.18,1.44,2.47c.35.48.77.97,1.25,1.43.72.68,1.6,1.28,2.66,1.58.16.04.26.21.22.37-.04.16-.21.26-.37.22-1.5-.36-2.71-1.24-3.61-2.23-.4-.44-.74-.91-1.02-1.35-.78-1.23-1.12-2.28-1.12-2.28-.05-.15.02-.33.18-.38.16-.06.33.02.38.18Z"/>
        <path class="cls-11" d="m170,154.57s1.16.55,2.73.86c.58.12,1.22.2,1.88.22.99.02,2.04-.12,3.03-.61.15-.08.34-.02.41.13.08.15.02.33-.13.41-1.35.74-2.84.9-4.18.77-.6-.06-1.16-.18-1.67-.32-1.4-.39-2.36-.93-2.36-.93-.14-.08-.2-.26-.13-.4.08-.15.26-.2.4-.13Z"/>
        <path class="cls-17" d="m190.79,106.38s-2.81-5.12-5.39-11.05c-1.08-2.48-2.11-5.1-2.89-7.54-.56-.37-3.06-2.02-4.85-3.56-.87-.75-1.57-1.48-1.85-2.03-.44-.86-.73-1.61-.9-2.23-.22-.78-.24-1.37-.13-1.73.11-.37.9-1.44,1.72-2.27.42-.43.84-.79,1.17-.98.19-.1.35-.16.49-.16.54-.02,1.12.36,1.38.97.19.45.22,1.01-.08,1.61-.19.39-.52.89-.87,1.38-.69.96-1.46,1.89-1.46,1.89-.11.13-.3.15-.43.04-.13-.11-.15-.3-.04-.43,0,0,.75-.92,1.42-1.86.32-.46.62-.93.8-1.3.19-.4.18-.78.05-1.07-.15-.34-.45-.57-.75-.56-.11,0-.24.1-.41.23-.33.25-.72.63-1.09,1.04-.6.67-1.16,1.39-1.24,1.67-.08.28-.03.73.14,1.34.16.58.45,1.29.86,2.1.32.63,1.28,1.49,2.34,2.34,1.92,1.54,4.23,3.01,4.23,3.01.07.05.13.12.16.21.76,2.46,1.8,5.11,2.87,7.61,2.52,5.92,5.26,11.05,5.26,11.05.08.14.02.33-.12.4-.14.08-.33.02-.41-.12Z"/>
        <path class="cls-7" d="m211.25,124.88c.15.07.22.24.16.39-.06.16-.24.23-.4.17-.13-.05-.25-.17-.35-.35-.1-.18-.18-.43-.25-.73-.22-.95-.27-2.33-.27-2.33,0-.11.05-.21.13-.28.62-.52,1.27-1.25,1.88-1.99.46-.56.9-1.14,1.27-1.65.71-.97,1.2-1.71,1.2-1.71.05-.08.13-.14.23-.16.09-.02.19,0,.27.05.23.16.68.42,1.16.7.85.49,1.8,1.01,1.8,1.01.15.08.2.26.13.4-.08.15-.26.2-.4.13,0,0-.97-.49-1.85-.95-.34-.18-.67-.36-.92-.51-.2.31-.55.85-1,1.48-.38.53-.83,1.12-1.3,1.69-.6.72-1.26,1.42-1.88,1.94,0,.33.04,1.08.14,1.73.05.31.11.61.19.81.03.06.11.11.08.15Z"/>
        <path class="cls-7" d="m205.74,107.95s-.96.3-2.06.98c-.4.25-.81.55-1.21.9-.85.75-1.62,1.76-1.86,3.15-.03.17-.18.28-.35.26-.17-.03-.28-.18-.26-.35.22-1.57,1.02-2.76,1.97-3.61.43-.39.9-.71,1.34-.96,1.21-.69,2.28-.93,2.28-.93.16-.04.32.05.37.21.04.16-.05.32-.21.37Z"/>
        <path class="cls-11" d="m177.79,140.83s-1.55.32-3.51.49c-.75.06-1.56.1-2.37.1-1.48,0-2.93-.17-3.96-.57-.16-.06-.24-.24-.18-.39.06-.16.23-.24.39-.18.98.35,2.35.42,3.75.41.78,0,1.58-.05,2.31-.1,1.92-.13,3.47-.33,3.47-.33.16-.03.32.08.34.24.03.16-.08.32-.24.34Z"/>
        <path class="cls-11" d="m166.44,140.89s-1.35-.62-2.93-1.46c-.62-.33-1.28-.7-1.91-1.07-1.37-.81-2.59-1.64-3.04-2.13-.12-.12-.11-.32.01-.43.12-.12.32-.11.43.01.35.36,1.19.89,2.18,1.46.69.41,1.47.83,2.2,1.24.59.33,1.16.65,1.66.93.97.54,1.66.92,1.66.92.15.07.2.25.13.4-.07.15-.25.21-.4.13Z"/>
        <path class="cls-4" d="m222.67,43.41s-3.57-2.13-6.11-2.46c0,0-3.94-.87-7.63,1.87-3.69,2.74-3.54,5.32-3.31,6.38.22,1.06,1.8,2.83,3.9,2.89,0,0-.95-2.26-.94-3.2,0-.94.16-1.46.76-1.43.6.02.71.36.99,1.25.28.89.83,2.17,1.92,3.15,1.09.98,3.16,1.92,3.16,1.92,0,0,2.21-1.24,4.16-.61,0,0,2.97-5.34,3.22-6.63.24-1.3-.11-3.12-.11-3.12Z"/>
        <path class="cls-4" d="m227.86,46.58s3.2,2.97,3.87,5.66c.68,2.69.41,5.63.06,7.27-.35,1.64.04,3.58,1.39,5.09,1.35,1.5,4.88,4.91,5.13,6.73.25,1.83.19,3.27-.52,5.07-.71,1.8-1.14,3.9-.26,5.13.88,1.23,3.54,3.03,4.45,5.16.9,2.14,1.56,5.1-.08,7.86-1.64,2.76-5.26,6.2-8.96,4.72,0,0-1.14-13.77-1.4-16.04-.26-2.27-1.49-5.64-3.29-6.85-1.79-1.21-3.53-1.9-4.35-2.57-.82-.67-1.85-2.01-2.43-3.8-.59-1.79-.9-3.76-.9-3.76,0,0,4.76-.51,5.86-4.04,0,0,1.2-2.81-.02-4.86-1.23-2.05-1.35-1.82-1.35-1.82,0,0,2.78-7.85,2.82-8.96Z"/>
        <path class="cls-4" d="m175.39,70.33l-.59-3.24c-.04-.2-.01-.41.06-.59.07-.19.19-.35.35-.48.16-.13.36-.21.55-.24.2-.03.41,0,.6.08h0c.73.31,1.7.71,2.68,1.14,1.55.67,3.15,1.38,4,1.75.25.11.46.27.62.48.16.2.27.44.32.71l.39,2.12c.03.17-.08.33-.24.36-.17.03-.33-.08-.36-.24l-.44-2.11c-.03-.15-.1-.29-.2-.41-.09-.12-.22-.21-.36-.27-.86-.36-2.48-1.03-4.03-1.69-.98-.42-1.94-.84-2.67-1.16-.07-.03-.14-.04-.22-.03-.07,0-.15.04-.21.08-.06.05-.11.11-.14.18-.03.07-.04.15-.03.23l.49,3.25c.03.16-.08.32-.25.34-.16.03-.32-.08-.34-.25Z"/>
        <path class="cls-4" d="m185.38,76.6l1.78,7.84c.05.21.03.42-.03.62-.06.2-.18.37-.34.52-.16.14-.36.23-.56.27-.2.04-.42.02-.62-.06l-7.23-2.81c-.2-.08-.37-.2-.5-.35-.13-.15-.23-.34-.27-.55l-.29-1.33c-.04-.16.07-.33.23-.37.17-.04.33.07.37.23l.31,1.33c.02.1.07.19.14.26.07.07.15.13.24.17l7.26,2.71c.07.03.15.03.22.02.07-.01.14-.04.2-.09.06-.05.1-.11.12-.18.02-.07.03-.15.01-.22l-1.63-7.87c-.03-.16.07-.32.23-.36.16-.04.32.07.35.23Z"/>
        <path class="cls-4" d="m228.18,46.46s1.86,1.68,3.13,4.01c.54.99.98,2.1,1.13,3.24.33,2.55-.44,5.12-.29,7.41.06.99.31,1.93.93,2.78,1.43,1.97,3.56,3.62,4.79,5.54.61.96,1.01,1.98,1.03,3.13.02,1.25-.28,2.47-.62,3.63-.36,1.23-.77,2.37-.85,3.39-.04.56.02,1.07.27,1.52.35.63.92,1.14,1.54,1.69.82.73,1.74,1.54,2.5,2.76.61.98,1.12,2.23,1.38,3.91.41,2.66-.84,5.54-2.8,7.6-2.13,2.24-5.07,3.51-7.55,2.55-.16-.06-.24-.24-.18-.4.06-.16.24-.24.4-.18,2.26.85,4.92-.37,6.85-2.43,1.8-1.92,2.97-4.58,2.58-7.04-.25-1.57-.72-2.73-1.3-3.64-.72-1.15-1.6-1.9-2.37-2.59-.69-.61-1.3-1.18-1.7-1.88-.33-.58-.42-1.23-.37-1.94.06-.87.35-1.84.66-2.86.39-1.28.81-2.67.79-4.08-.02-1.01-.37-1.9-.91-2.74-1.22-1.92-3.33-3.57-4.75-5.52-.7-.97-.98-2.04-1.05-3.16-.13-2.28.66-4.83.34-7.37-.16-1.34-.76-2.63-1.44-3.73-1.16-1.87-2.56-3.16-2.56-3.16-.12-.11-.13-.3-.02-.42.11-.12.3-.13.42-.02Z"/>
        <path class="cls-2" d="m201.73,57.01c.12.19.42.41.74.62.66.44,1.45.83,1.45.83.17.09.25.29.17.47,0,0-.76,1.76-1.16,3.55-.19.85-.3,1.71-.18,2.37.04.23.28.45.61.71.57.44,1.44.9,2.43,1.35,3.62,1.64,8.98,3.17,8.98,3.17.11.03.2.12.23.23l1.43,5.21c.05.16-.05.33-.21.38-.16.05-.33-.05-.38-.21l-1.43-5.02c-.97-.27-5.65-1.62-8.92-3.08-1.28-.57-2.35-1.17-2.93-1.72-.32-.3-.5-.61-.55-.89-.13-.75-.02-1.71.2-2.67.31-1.4.84-2.77,1.09-3.37-.49-.26-1.45-.81-1.91-1.28-.19-.18-.3-.37-.34-.52-.05-.17-.02-.33.07-.47.13-.19.48-.45.92-.69.71-.4,1.66-.8,2.01-.95,0,0,1.5-4.45,1.5-4.45.05-.16.22-.24.38-.19.16.05.24.22.19.38l-1.49,4.61c-.03.09-.1.17-.19.2,0,0-.96.4-1.78.84-.39.21-.76.41-.91.58Z"/>
        <path class="cls-4" d="m209.12,51.7c-.38-.76-.74-1.9-.84-2.81-.05-.43-.04-.82.04-1.1.07-.25.2-.43.36-.54.51-.34.91-.27,1.2-.07.23.15.4.4.51.66.14.31.2.61.22.69.4,1.38,1.08,2.39,1.82,3.13,1.46,1.47,3.12,1.85,3.12,1.85.16.04.26.2.23.36-.04.16-.2.26-.36.23,0,0-1.83-.4-3.45-1.98-.82-.8-1.58-1.9-2.03-3.41,0-.01,0-.03,0-.04,0,0-.09-.53-.35-.83-.05-.06-.11-.11-.18-.12-.1-.02-.21.02-.34.11-.03.02-.04.06-.06.1-.03.07-.04.16-.05.25-.03.4.05.93.19,1.48.2.78.51,1.57.81,2.02.11.17.11.31.07.43-.04.12-.14.24-.32.31-.12.04-.32.06-.59.02-.43-.06-1.07-.25-1.71-.6-1.05-.57-2.09-1.55-2.27-2.95-.22-1.75.81-4.27,3.11-6.11,1.57-1.25,3.72-2.18,6.45-2.33,1.39-.07,2.96.21,4.4.71,1.55.54,2.96,1.34,3.86,2.22.12.12.12.31,0,.43-.12.12-.31.12-.43,0-.85-.82-2.19-1.55-3.64-2.05-1.36-.46-2.84-.72-4.15-.64-2.56.15-4.57,1.04-6.03,2.21-2.05,1.65-3.02,3.88-2.82,5.44.09.74.49,1.32.99,1.77.72.65,1.64,1.02,2.23,1.13Z"/>
        <path class="cls-4" d="m220.88,66.33s.04,2.49,1.36,4.88c.73,1.31,1.85,2.6,3.58,3.4.22.07,1.91.66,3.49,2.41.8.89,1.57,2.09,2.1,3.68.53,1.6,1.04,6.5,1.46,12.41.83,11.61,1.36,27.13,1.48,28.94.01.17-.12.32-.28.33-.17.01-.32-.12-.33-.28-.13-1.82-.77-17.33-1.62-28.93-.42-5.83-.88-10.66-1.4-12.24-.48-1.48-1.19-2.6-1.93-3.44-1.53-1.72-3.18-2.24-3.18-2.24-.02,0-.03-.01-.05-.02-1.88-.89-3.09-2.29-3.88-3.72-1.38-2.54-1.4-5.18-1.4-5.18,0-.16.13-.3.3-.3.16,0,.3.13.3.3Z"/>
        <path class="cls-4" d="m223.88,74.4s-2.64.21-5.03.85c-1.19.32-2.32.74-3,1.31-.83.7-2.14,2.08-3.51,3.59-2.03,2.24-4.16,4.76-4.93,5.75-.62.8-.95,1.89-1.02,3.03-.07,1.11.1,2.27.5,3.23.55,1.33,1.08,2.11,1.33,2.85.16.47.22.93.14,1.48-.07.45-.51,1.64-1.09,3.04-1.19,2.9-2.95,6.76-2.95,6.76-.07.15-.25.22-.41.15-.15-.07-.22-.25-.15-.41,0,0,1.72-3.86,2.88-6.76.54-1.34.96-2.47,1.02-2.89.06-.43.01-.79-.12-1.15-.25-.73-.78-1.49-1.33-2.8-.45-1.06-.65-2.33-.57-3.56.08-1.29.47-2.54,1.17-3.44.78-1,2.93-3.53,4.99-5.78,1.4-1.53,2.76-2.92,3.6-3.63.74-.61,1.97-1.08,3.27-1.42,2.45-.63,5.15-.81,5.15-.81.16-.01.31.11.32.28.01.16-.11.31-.27.32Z"/>
        <path class="cls-11" d="m224.1,106.73s-2.24,6.55-5.76,11.94c-1.79,2.75-3.92,5.18-6.23,6.35-1.35.68-3.3,1.14-5.6,1.4-2.52.29-5.48.36-8.55.26-8.39-.27-17.62-1.77-21.07-3.22-.16-.06-.23-.24-.17-.4.07-.16.25-.23.4-.17,3.43,1.41,12.56,2.82,20.86,3.06,3.03.09,5.95.01,8.44-.27,2.2-.25,4.07-.67,5.36-1.32,2.22-1.11,4.25-3.45,5.98-6.07,3.51-5.31,5.78-11.76,5.78-11.76.05-.16.22-.24.38-.18.16.05.24.22.19.38Z"/>
        <path class="cls-11" d="m218.82,116.42l-14.83-9.82c-1.25-.01-14.04-.1-23.8.67-4.4.35-8.17.86-9.97,1.65-2.84,1.25-4.46,3.51-4.84,8.05-.41,4.87.6,12.29,3.08,23.77,0,0,0,0,0,.01,0,0,.93,5.49,1.47,9.62.25,1.9.41,3.51.38,4.2,0,.17-.15.3-.32.29-.17,0-.3-.15-.29-.32.03-.67-.14-2.24-.39-4.09-.54-4.03-1.46-9.35-1.5-9.58-2.54-11.57-3.57-19.05-3.17-23.96.4-4.91,2.2-7.32,5.27-8.68,1.84-.81,5.71-1.36,10.21-1.71,10.3-.8,23.96-.6,23.96-.6.07,0,.13.02.18.06l14.87,9.95c.14.09.17.28.08.41-.09.14-.28.17-.41.08Z"/>
        <path class="cls-11" d="m177.57,154.83s.01-2.76,0-6.67c0-2-.02-4.29-.05-6.67-.03-2.97-.07-6.08-.15-8.88-.13-4.42-.35-8.1-.78-9.39-.05-.16.03-.33.19-.39.16-.05.33.03.39.19.55,1.61.87,6.91,1.01,12.74.06,2.53.09,5.16.09,7.63.01,6.23-.11,11.44-.11,11.44,0,.16-.14.3-.3.29-.16,0-.3-.14-.29-.3Z"/>
        <path class="cls-4" d="m231.69,88.67s-1.3.34-2.96.75c-.63.15-1.3.32-1.98.47-2.48.57-4.97,1.08-4.97,1.08-.16.04-.33-.06-.37-.23-.04-.16.07-.33.23-.37,0,0,2.46-.64,4.94-1.22.68-.16,1.36-.31,1.99-.44,1.67-.36,2.99-.63,2.99-.63.16-.04.32.06.36.22.04.16-.06.32-.22.36Z"/>
        <path class="cls-17" d="m220.95,86.53s1.06,6.38,2.39,14.05c.79,4.57,1.69,9.61,2.51,14.03,1.11,5.98,2.08,10.83,2.57,11.84.5,1.02,1.53,1.92,2.69,2.68,2.16,1.43,4.76,2.4,5.35,2.78.14.09.32.11.5.08.29-.04.59-.18.81-.38.17-.16.3-.35.31-.57,0-.19-.09-.38-.29-.58-.4-.39-.98-.87-1.58-1.33-1.22-.96-2.52-1.86-2.52-1.86-.14-.1-.17-.29-.08-.43.1-.14.29-.17.43-.08,0,0,1.32.91,2.56,1.87.62.48,1.22.97,1.64,1.37.36.35.49.71.49,1.05,0,.39-.21.75-.51,1.04-.57.53-1.52.75-2.11.38-.6-.37-3.21-1.33-5.38-2.76-1.27-.83-2.4-1.83-2.95-2.95-.5-1.02-1.54-5.94-2.67-12.01-.82-4.42-1.69-9.47-2.46-14.05-1.29-7.69-2.29-14.07-2.29-14.07-.03-.16.08-.32.25-.34.16-.03.32.08.34.25Z"/>
        <path class="cls-17" d="m233.97,121.94s2.58.25,5.05.45c1.27.1,2.51.19,3.36.22,1.13.04,1.99.26,2.65.6.95.48,1.51,1.2,1.9,2.01.34.72.62,1.3.8,1.84.16.48.25.93.24,1.41-.01.46-.21.76-.49.95-.43.3-1.08.31-1.38.28-.17-.01-.3-.16-.28-.33.01-.17.16-.3.33-.28.18.01.55.02.85-.12.18-.08.33-.24.33-.52,0-.4-.08-.77-.23-1.17-.19-.52-.47-1.08-.81-1.76-.33-.67-.8-1.26-1.59-1.65-.59-.29-1.35-.48-2.35-.51-.86-.04-2.12-.14-3.39-.26-2.48-.24-5.05-.57-5.05-.57-.16-.02-.28-.17-.26-.33.02-.16.17-.28.33-.26Z"/>
        <path class="cls-17" d="m244.09,125.58s.74,1.06,1.36,2.12c.33.58.63,1.15.76,1.56.21.68-.08,1.16-.56,1.42-.58.31-1.49.26-2.07-.16-.29-.22-.63-.61-.95-1.03-.43-.56-.82-1.18-1-1.48-.62,0-2.48-.03-4.18-.1-1.26-.06-2.43-.14-2.96-.26-.17-.04-.27-.2-.23-.36.04-.17.2-.27.36-.23.41.08,1.21.13,2.13.17,2.2.08,5.09.05,5.09.05.13,0,.25.07.32.18,0,0,.51.84,1.07,1.58.27.36.56.7.8.89.29.22.73.28,1.08.19.16-.04.31-.11.39-.24.07-.1.08-.24.03-.41-.11-.38-.37-.91-.66-1.44-.58-1.05-1.27-2.12-1.27-2.12-.09-.14-.06-.32.08-.41.14-.09.32-.06.41.08Z"/>
        <path class="cls-17" d="m206.33,92.12s-1.31,1.52-2.93,3.29c-.64.7-1.34,1.44-2.01,2.14-1.08,1.13-2.1,2.15-2.77,2.78-.42.4-.73.64-.84.69-.16.07-.34,0-.4-.16-.07-.16,0-.34.16-.4.05-.02.15-.12.29-.25.32-.3.79-.78,1.36-1.38.6-.63,1.29-1.37,2-2.14.44-.48.89-.96,1.34-1.43,1.78-1.89,3.37-3.54,3.37-3.54.11-.12.3-.13.42-.02s.13.3.02.42Z"/>
        <path class="cls-17" d="m197.36,101.63s-3.27-6.3-5.55-10.95c-.76-1.56-1.41-2.93-1.8-3.82-.24-.56-.37-.95-.39-1.1-.07-.75.36-4.27.18-6.96-.08-1.14-.24-2.14-.66-2.64-.75-.9-2.09-1.93-3.35-2.66-.65-.37-1.28-.67-1.8-.81-.29-.08-.53-.12-.72-.08-.59.11-.69.71-.09,1.6.48.71,1.37,1.55,2.83,2.49.14.09.18.28.09.42-.09.14-.28.18-.42.09-2.01-1.28-3.02-2.42-3.38-3.27-.26-.6-.21-1.09,0-1.43.17-.29.47-.49.86-.57.27-.05.62-.02,1.03.09.56.15,1.25.46,1.96.86,1.34.76,2.76,1.85,3.56,2.8.49.58.76,1.72.85,3.05.19,2.69-.24,6.2-.17,6.94.01.12.14.43.33.88.37.88,1.01,2.25,1.76,3.8,2.24,4.66,5.43,10.99,5.43,10.99.07.15.02.33-.13.4-.15.08-.33.02-.4-.13Z"/>
        <path class="cls-17" d="m174.65,78.3s-.68-.67-.9-1.44c-.12-.42-.1-.86.16-1.27.26-.4.75-1.04,1.29-1.65.32-.36.67-.7.99-.99.33-.29.65-.52.92-.64.26-.12.48-.15.66-.11.58.14,1.43.69,1.45,1.55.02.48-.22,1.09-1.01,1.78-.12.11-.32.1-.43-.02-.11-.13-.1-.32.02-.43.56-.52.77-.94.75-1.3-.01-.23-.14-.41-.3-.55-.2-.17-.44-.28-.64-.32-.03,0-.05.01-.09.02-.06.02-.13.06-.2.1-.29.17-.63.47-.98.81-.74.71-1.51,1.63-1.86,2.14-.15.22-.16.48-.1.71.15.63.68,1.19.68,1.19.12.12.12.31,0,.42-.12.12-.31.12-.42,0Z"/>
        <path class="cls-17" d="m173.77,75.63s-.58-.45-.81-1.13c-.14-.42-.15-.91.14-1.45.38-.69,1.03-1.46,1.69-2.03.58-.5,1.17-.84,1.59-.93.59-.13,1.18.25,1.46.84.24.51.27,1.14-.09,1.62-.1.14-.29.17-.43.07-.14-.1-.17-.29-.07-.43.2-.29.15-.67,0-.97-.15-.29-.42-.52-.71-.45-.41.1-1,.55-1.56,1.08-.5.47-.97,1.02-1.27,1.54-.2.33-.2.64-.13.91.15.51.55.86.55.86.13.1.15.29.05.42-.1.13-.29.15-.42.05Z"/>
        <path class="cls-11" d="m165.02,119.76s-1.64,4.72-3.66,10.32c-.8,2.23-1.67,4.59-2.51,6.86-2.1,5.68-4.03,10.73-4.39,11.39-.08.15-.26.21-.41.13-.15-.08-.21-.26-.13-.41.14-.27.54-1.29,1.1-2.8.73-1.96,1.74-4.72,2.82-7.71.61-1.68,1.24-3.43,1.87-5.15.83-2.27,1.65-4.49,2.37-6.42,1.38-3.73,2.38-6.42,2.38-6.42.05-.16.23-.24.38-.18.15.06.23.23.18.38Z"/>
        <path class="cls-11" d="m159.73,153.94c.69-1.35,1.46-2.93,2.25-4.53.5-1.01,1-2.03,1.5-3.02,2.02-4.03,3.8-7.53,3.8-7.53.08-.15.26-.22.41-.14.15.07.21.26.14.41,0,0-1.67,3.56-3.67,7.6-.49.99-1.01,2.01-1.53,3.01-.82,1.59-1.65,3.14-2.37,4.48-.08.15-.26.2-.4.13-.15-.08-.2-.26-.13-.4Z"/>
        <path class="cls-4" d="m227.42,124.84s-1.97.04-4.48.07c-.94,0-1.97.02-2.99.02-3.73,0-7.46-.07-7.46-.07-.17,0-.31-.14-.31-.31,0-.17.14-.31.31-.31,0,0,3.73-.06,7.46-.07,1.02,0,2.04,0,2.98.01,2.51.02,4.48.06,4.48.06.16,0,.3.13.3.3,0,.16-.13.3-.3.3Z"/>
        <path class="cls-4" d="m218.6,57.45c1.13-1.01,3.65-1.26,3.9.13.23,1.27-.39,2.66-1.96,2.28-.22-.05-.44.1-.45.33-.03,1.05-.07,3.69.21,6.13.32,2.77.43,1.97.43,1.97l9.44,3.4,1.13-16.5s-1.62-7-3.14-8.73-3.24-1.89-5.22-3.07-9.15,3.36-9.15,3.36c0,0-.1,7.28,1.73,7.34,0,0,1.85,3.72,3.05,3.36Z"/>
      </g>
      <g>
        <path class="cls-17" d="m71.44,169.04s.17,2.62.41,5.52c.1,1.23.22,2.52.34,3.68.21,2.03.45,3.68.57,4.01.23.59.78,1.22,1.82,1.64.8.32,1.91.53,3.4.5.19,0,.34-.16.33-.34,0-.19-.15-.34-.34-.33-1.36,0-2.37-.2-3.1-.51-.78-.33-1.21-.78-1.37-1.23-.09-.24-.2-1.21-.34-2.51-.13-1.21-.28-2.71-.43-4.18-.32-3.19-.63-6.29-.63-6.29-.01-.18-.18-.32-.36-.3-.18.01-.32.17-.3.36Z"/>
        <path class="cls-2" d="m43.01,120.26s-.57,8.87,7.65,13.07l4.78,14.76,5.83-3.1,5.87,7.98-9.25,2.43,5.12,16.68,8.64-3.27-1.13-17.18s11.52-4.49,15.36-7.64c2.89-2.37,3.29-7.38-.48-11.45-2.46-2.65-13.69-15.47-13.69-15.47l-28.69,3.2Z"/>
        <path class="cls-4" d="m42.97,119.93c-.16.02-.29.15-.3.31,0,0-.26,3.93,1.96,7.85,1.14,2.01,2.92,4.02,5.73,5.49l4.72,14.63c.03.11.11.19.22.23.1.04.22.04.32-.02l5.54-2.94,5.32,7.25-8.7,2.28c-.11.03-.2.1-.25.19-.05.1-.06.21-.03.31l5.11,16.69c.03.11.11.2.21.25.1.05.22.06.33.02l8.64-3.27c.17-.07.28-.23.27-.42l-1.12-16.88c1.11-.44,5.32-2.14,9.19-4.06,2.39-1.18,4.65-2.45,5.99-3.55,1.7-1.39,2.59-3.64,2.37-6.1-.18-1.95-1.06-4.04-2.82-5.92-.75-.81-2.32-2.56-4.13-4.61-4.14-4.66-9.56-10.85-9.56-10.85-.08-.09-.2-.14-.32-.12l-28.69,3.23h0Zm.36.63l28.22-3.12c.84.96,5.66,6.47,9.42,10.72,1.82,2.06,3.39,3.82,4.14,4.63,1.62,1.74,2.44,3.67,2.6,5.47.2,2.18-.58,4.18-2.09,5.41-1.31,1.07-3.51,2.29-5.84,3.44-4.48,2.21-9.42,4.13-9.42,4.13-.17.07-.27.23-.26.41l1.11,16.87-7.94,3.01-4.87-15.86,8.84-2.34c.13-.03.23-.13.27-.25.04-.12.02-.26-.05-.36l-5.88-7.97c-.11-.15-.32-.2-.49-.11l-5.43,2.9-4.66-14.33c-.03-.09-.09-.16-.18-.21-2.74-1.39-4.49-3.32-5.59-5.26-1.77-3.12-1.9-6.25-1.9-7.19h0Z"/>
        <path class="cls-17" d="m79.79,54.09s-1.1,3.34-2.53,6.39c-.71,1.52-1.5,2.96-2.29,3.86-1.22,1.41-2.93,2.21-4.89,2.4-1.72.17-3.63-.13-5.58-.92-.17-.07-.37.01-.44.18-.07.17.01.37.18.44,2.06.87,4.09,1.22,5.91,1.07,2.18-.18,4.07-1.08,5.44-2.62.83-.95,1.66-2.47,2.39-4.07,1.41-3.11,2.44-6.53,2.44-6.53.05-.17-.04-.36-.22-.41-.17-.05-.36.04-.41.22Z"/>
        <path class="cls-17" d="m66.77,67.06s-.35.75-.77,1.71c-.16.36-.33.75-.49,1.15-.58,1.45-1.11,2.92-1.11,2.92-.07.17.01.37.19.44.17.07.37-.01.44-.19,0,0,.65-1.42,1.25-2.86.16-.39.32-.79.46-1.16.37-.98.64-1.76.64-1.76.07-.17-.01-.36-.18-.43-.17-.07-.36.01-.43.18Z"/>
        <path class="cls-17" d="m53.52,64.58s-.39.89-.87,2.03c-.18.43-.37.9-.55,1.37-.66,1.72-1.26,3.46-1.26,3.46-.07.17.02.37.19.44.17.07.37-.02.44-.19,0,0,.73-1.69,1.41-3.4.18-.47.36-.94.52-1.38.42-1.16.74-2.08.74-2.08.07-.17-.02-.36-.19-.43-.17-.07-.36.02-.43.19Z"/>
        <path class="cls-1" d="m75.86,47.65s-7.66,5.94-16.51,5.07c0,0-2.42-4.34-4.74-1.19-2.31,3.15.27,4.72,1.97,5.25,0,0,.18,4.89.43,6.99,0,0-4.08,1.55-6.9.25-2.82-1.3-2.69-7.03-.86-11.53,1.83-4.5,5.69-12.81,13.6-14.64,7.91-1.83,14.57,2.59,16.98,6.17,1.81,2.69,1.83,6.95.38,10.01l-4.34-6.38Z"/>
        <path class="cls-4" d="m75.77,48.13l4.14,6.1c.07.1.19.16.32.15.13,0,.23-.09.29-.2.74-1.55,1.12-3.41,1.08-5.22-.04-1.88-.51-3.72-1.47-5.14-1.39-2.07-4.15-4.42-7.75-5.74-2.79-1.02-6.09-1.43-9.63-.61-2.96.68-5.36,2.24-7.32,4.18-3.37,3.34-5.39,7.79-6.57,10.69-.99,2.43-1.49,5.2-1.33,7.49.16,2.18.94,3.91,2.4,4.58.91.42,1.94.56,2.93.56,2.23-.02,4.29-.8,4.29-.8.18-.07.28-.24.26-.43-.08-.7-.16-1.73-.23-2.77-.13-2.05-.21-4.19-.21-4.19,0-.17-.12-.31-.28-.36-.88-.27-2.03-.83-2.46-1.8-.32-.72-.2-1.65.68-2.85.57-.79,1.14-1.05,1.68-.98.51.06.98.4,1.37.77.64.62,1.06,1.36,1.06,1.36.06.11.17.18.29.19,3.2.31,6.24-.25,8.83-1.11,3.87-1.28,6.74-3.21,7.63-3.85h0Zm.37-.66c-.05-.08-.13-.13-.23-.14-.09-.01-.19,0-.26.07,0,0-3.15,2.43-7.73,3.92-2.46.8-5.34,1.33-8.36,1.06-.18-.28-.56-.86-1.08-1.36-.5-.48-1.12-.9-1.79-.98-.75-.09-1.58.19-2.39,1.28-1.11,1.51-1.17,2.7-.78,3.61.47,1.09,1.66,1.79,2.67,2.15.03.64.09,2.31.19,3.94.05.91.11,1.8.19,2.49-.62.2-2.12.63-3.71.63-.88,0-1.78-.12-2.58-.48-1.22-.56-1.79-2.06-1.92-3.89-.15-2.17.33-4.81,1.27-7.11,1.15-2.82,3.1-7.17,6.38-10.43,1.85-1.84,4.12-3.33,6.92-3.98,3.37-.79,6.52-.41,9.18.56,3.43,1.25,6.07,3.46,7.4,5.43.88,1.31,1.32,3.01,1.36,4.75.04,1.49-.22,3-.75,4.33,0,0-3.99-5.84-3.99-5.84h0Z"/>
        <path class="cls-5" d="m50.79,71.72s.69,2.43,2.56,4.18c1.11,1.03,2.62,1.81,4.62,1.75,1.78-.07,3.16-.6,4.21-1.28,2.12-1.37,2.89-3.33,2.89-3.33.07-.17-.01-.37-.19-.44-.17-.07-.37.01-.44.19,0,0-.74,1.74-2.67,2.93-.96.59-2.22,1.05-3.83,1.1-1.75.07-3.07-.62-4.06-1.5-1.76-1.57-2.46-3.79-2.46-3.79-.05-.17-.24-.27-.41-.22-.18.05-.27.24-.22.41Z"/>
        <path class="cls-5" d="m64.76,73.25s2.1-.02,4.17.18c.98.1,1.95.24,2.69.47.62.19,1.28.62,1.94,1.26.75.73,1.48,1.74,2.08,2.99.77,1.61,1.32,3.62,1.44,5.99,0,.19.16.33.35.33.19,0,.33-.16.32-.35-.09-3.09-.91-5.61-2-7.46-.61-1.03-1.3-1.85-2-2.45-.64-.55-1.3-.91-1.89-1.09-.78-.23-1.81-.37-2.86-.45-2.12-.16-4.25-.08-4.25-.08-.18,0-.33.16-.32.34,0,.18.15.33.34.32Z"/>
        <path class="cls-5" d="m51.11,71.23s-3.53-.23-6.88.22c-1.7.23-3.34.64-4.48,1.32-1.84,1.11-3.41,3.46-4.33,6.22-.79,2.41-1.08,5.12-.63,7.55.32,1.67,1.06,3.75,1.93,5.79,1.76,4.16,4.01,8.15,4.01,8.15.05.09.14.16.25.19s.22.01.31-.04l8.88-5.41c.15-.09.22-.28.15-.45l-3.39-8.75c-.07-.17-.26-.26-.44-.19-.18.07-.26.26-.19.44l3.22,8.48-8.29,4.99c-.58-1.07-2.31-4.34-3.74-7.72-.83-1.98-1.56-4-1.87-5.62-.44-2.3-.17-4.86.57-7.15.83-2.57,2.25-4.78,3.96-5.82,1.06-.65,2.6-1.03,4.19-1.26,3.28-.47,6.75-.27,6.75-.27.18.01.34-.13.35-.31.01-.18-.13-.34-.31-.35Z"/>
        <path class="cls-2" d="m72.44,105.15s.74-.99,1.66-2.27c.35-.48.72-1,1.08-1.53,1.33-1.93,2.61-3.89,2.61-3.89.11-.15.07-.36-.08-.47-.15-.11-.36-.07-.47.08,0,0-1.39,1.88-2.74,3.8-.37.52-.73,1.05-1.06,1.55-.88,1.31-1.55,2.35-1.55,2.35-.1.15-.07.35.08.46.15.1.36.07.46-.08Z"/>
        <path class="cls-2" d="m83.82,88.16s-.48-.14-.82-.46c-.18-.17-.32-.4-.29-.7.03-.2.08-.36.19-.48.17-.18.44-.24.79-.27.65-.04,1.54.08,2.69.27,1.23.2,1.89.31,2.45.5.47.15.86.36,1.47.7.62.35.84,1.08.74,2.1-.1,1.03-.53,2.32-1.31,3.83-.42.81-2.27,3.56-4.35,6.58-2.88,4.18-6.2,8.88-6.88,9.67-.71.84-1.59,1.41-2.58,1.66-.94.23-1.98.16-3.08-.25-.17-.07-.37.02-.43.2-.07.17.02.37.2.44,1.25.48,2.42.55,3.48.3,1.14-.27,2.15-.91,2.98-1.86.69-.79,4.08-5.49,7-9.68,2.12-3.05,3.99-5.84,4.41-6.67.82-1.62,1.27-3.02,1.37-4.13.12-1.4-.3-2.38-1.16-2.85-.67-.37-1.1-.59-1.62-.75-.59-.19-1.28-.3-2.58-.5-1.55-.23-2.67-.35-3.38-.16-.65.18-1.02.57-1.1,1.29-.05.44.1.79.33,1.08.46.56,1.28.8,1.28.8.18.05.36-.05.41-.23.05-.17-.05-.36-.23-.41Z"/>
        <path class="cls-5" d="m71.16,98.47s.15,2.4.36,5.46c.08,1.15.17,2.4.27,3.64.37,4.55.8,9.09.8,9.09.01.19.18.33.36.31.19-.01.33-.18.31-.36,0,0-.29-4.55-.64-9.1-.1-1.24-.2-2.49-.3-3.64-.27-3.06-.5-5.45-.5-5.45-.01-.18-.17-.32-.36-.3-.18.01-.32.17-.3.35Z"/>
        <path class="cls-5" d="m72.62,116.52h-.01s-.14.02-.27.03c-.47.05-1.45.16-2.78.31-3.89.43-10.77,1.16-16.72,1.82-4.96.55-9.27,1.04-10.67,1.2l.74-15.97c0-.18-.13-.34-.31-.35-.18,0-.34.13-.34.31l-.92,16.44c0,.12.04.24.13.32.09.08.2.12.32.11,0,0,5.09-.56,11.14-1.25,5.95-.68,12.82-1.48,16.7-1.94,1.33-.16,2.31-.28,2.78-.33.14-.02.24-.03.28-.04.02,0,.04,0,.04,0,.04,0,.07-.02.08-.02.2-.09.2-.25.2-.31,0-.09-.03-.24-.21-.31-.06-.02-.13-.03-.19-.02Z"/>
        <path class="cls-2" d="m78.03,83.95s-1.52-.47-3.02-.49c-.77-.01-1.53.1-2.11.42-.87.48-1.51,1.06-2.03,1.71-.77.97-1.26,2.09-1.88,3.29-.37.36-3.08,3.01-6.11,5.99-3.55,3.5-7.54,7.47-8.78,8.71l-3.8-8.42c-.08-.17-.28-.25-.45-.17-.17.08-.25.28-.17.45l3.94,8.96c.05.11.15.2.28.22.13.02.25-.02.34-.1,0,0,4.95-4.84,9.22-9.05,3.26-3.21,6.12-6.07,6.12-6.07.03-.03.05-.06.07-.1.6-1.18,1.06-2.29,1.8-3.24.45-.58,1.02-1.1,1.79-1.54.47-.27,1.11-.35,1.75-.35,1.41,0,2.84.43,2.84.43.17.05.36-.05.41-.22.05-.17-.05-.36-.22-.41Z"/>
        <path class="cls-2" d="m40.93,100.65s2.32,4.73,4.31,8.23c.86,1.52,1.67,2.81,2.2,3.4,1.38,1.54,3.05,2.21,4.87,2.14,2.22-.09,4.67-1.31,7.04-3.46,1.74-1.58,3.79-3.62,5.77-5.67,4.27-4.41,8.26-8.86,8.26-8.86.13-.14.11-.35-.03-.48-.14-.13-.35-.11-.48.02,0,0-4.01,4.4-8.31,8.77-1.99,2.02-4.03,4.03-5.77,5.6-2.2,1.99-4.46,3.16-6.52,3.25-1.58.07-3.03-.51-4.24-1.84-.64-.7-1.7-2.47-2.78-4.39-1.84-3.26-3.72-7-3.72-7-.08-.16-.28-.23-.44-.15-.16.08-.23.28-.15.44Z"/>
        <path class="cls-2" d="m76.61,86.24s-.39-.07-.86-.03c-.19.02-.39.06-.58.12-.41.14-.76.37-.91.69-.09.16-.04.37.13.46.16.09.37.04.46-.13.07-.11.22-.15.37-.2.16-.05.34-.08.52-.11.45-.09.84-.14.84-.14.18,0,.33-.14.34-.32,0-.18-.14-.33-.32-.34Z"/>
        <path class="cls-4" d="m76.52,87.63l3.88-5.81c.13-.2.31-.35.51-.45.2-.1.43-.15.66-.14.85.04,2.15.1,3.53.16,1.92.08,4.01.16,5.31.21.05,0,.1.02.14.04.04.03.08.07.1.11.02.05.03.1.03.15,0,.05-.02.1-.05.15l-2.78,3.84c-.11.15-.08.36.07.47.15.11.36.08.47-.07l2.85-3.79c.12-.16.18-.34.2-.52.02-.19-.01-.38-.09-.55-.08-.18-.21-.32-.37-.43-.16-.1-.34-.17-.54-.18-1.29-.06-3.38-.18-5.3-.27-1.39-.06-2.69-.12-3.53-.15-.38-.01-.75.07-1.07.24-.32.17-.61.42-.81.74l-3.77,5.88c-.1.15-.06.36.1.46.15.1.36.06.46-.1Z"/>
        <path class="cls-2" d="m85.73,91.21c-.15.03-.27.16-.28.32,0,.19.14.34.33.35.04,0,.13-.01.25-.06.2-.09.58-.33.89-.69.28-.33.48-.75.45-1.24-.02-.45-.29-.8-.66-1.06-.61-.42-1.49-.56-1.49-.56,0,0,0,0-.01,0-.59-.07-1.61-.22-2.81-.38-.88-.12-1.85-.25-2.82-.37-2.86-.36-5.64-.69-5.64-.69-.18-.02-.35.1-.37.28-.02.18.1.35.28.37,0,0,1.47.23,3.37.52,1.05.16,2.23.33,3.38.49,1.89.26,3.66.47,4.52.56.09.01.72.11,1.17.41.18.12.34.26.36.47.01.23-.06.43-.17.61-.21.34-.54.57-.71.66-.01,0-.04,0-.04.01Z"/>
        <path class="cls-2" d="m78.37,90.96s1.85.31,3.73.61c.51.08,1.02.16,1.49.22,1.05.15,1.93.26,2.23.31.15.02.26.14.34.28.1.17.15.38.15.58,0,.35-.18.69-.65.71-.19,0-.33.16-.33.35,0,.19.16.33.34.33.34,0,.6-.1.81-.24.36-.25.54-.68.56-1.12.02-.41-.11-.84-.33-1.15-.19-.27-.46-.46-.77-.51-.38-.07-1.62-.27-3-.47-.75-.1-1.54-.2-2.25-.29-1.26-.15-2.25-.26-2.25-.26-.18-.03-.35.1-.37.28-.03.18.1.35.28.37Z"/>
        <path class="cls-2" d="m77.64,93.44s3.11.33,5.4.65c1.05.15,1.93.29,2.19.4.26.11.28.43.2.72-.09.31-.31.62-.64.74-.26.1-1,.2-1.98.29-1.34.12-3.13.19-4.89.1-1.68-.08-3.34-.3-4.52-.75-.17-.07-.37.02-.44.19-.07.17.01.37.19.44,1.51.62,3.77.88,5.92.94,2.81.07,5.45-.21,6.02-.42.71-.27,1.15-1,1.2-1.66.04-.58-.2-1.11-.74-1.34-.29-.12-1.25-.28-2.41-.42-2.3-.28-5.44-.54-5.44-.54-.18-.02-.34.12-.36.3-.02.18.12.34.3.36Z"/>
        <path class="cls-2" d="m86.79,89.74s.15.1.37.21c.08.04.17.08.26.11.34.11.68.17.68.17.18.06.37-.03.43-.2.06-.18-.03-.37-.2-.43,0,0-.3-.18-.63-.31-.09-.04-.18-.06-.27-.08-.23-.06-.42-.08-.42-.08-.17-.06-.36.03-.42.2-.06.17.03.36.2.42Z"/>
        <path class="cls-2" d="m86.31,91.98s.1.08.26.16c.06.03.12.06.18.08.24.07.49.07.49.07.18.06.37-.04.42-.22.06-.18-.04-.37-.22-.42,0,0-.21-.14-.45-.22-.06-.02-.13-.03-.19-.04-.17-.03-.3-.02-.3-.02-.17-.05-.36.04-.41.22-.05.17.04.36.22.41Z"/>
        <path class="cls-4" d="m48.03,152.67s7.7-4.13,14.36-7.73c5.08-2.75,9.55-5.19,9.55-5.19.16-.09.24-.27.2-.45-.04-.18-.19-.31-.38-.32,0,0-4.75-.31-10.76-1.75-3.25-.78-6.88-1.89-10.32-3.48-.17-.08-.37,0-.45.16-.08.17,0,.37.16.45,3.47,1.63,7.13,2.79,10.43,3.61,4.13,1.02,7.68,1.5,9.52,1.71-1.66.9-4.87,2.65-8.35,4.56-6.63,3.64-14.28,7.86-14.28,7.86-.16.09-.22.29-.13.45.09.16.29.22.45.13Z"/>
        <path class="cls-17" d="m60.43,144.97c-6.22,3.31-12.72,7.12-12.72,7.12-.16.09-.22.29-.13.45.09.16.29.22.45.13,0,0,6.7-3.59,13-6.99-.1-.07-.48-.58-.59-.7Z"/>
        <path class="cls-4" d="m60.88,145.54s.72,1.02,1.67,2.3c.36.48.75,1,1.15,1.51,1.35,1.73,2.77,3.42,3.06,3.68.14.13.35.12.48-.01.13-.14.12-.35-.01-.48-.22-.21-1.06-1.34-2.06-2.65-.45-.59-.92-1.21-1.39-1.8-1.25-1.58-2.37-2.95-2.37-2.95-.11-.14-.32-.17-.46-.06-.14.11-.17.32-.06.46Z"/>
        <path class="cls-4" d="m71.02,151.48s-3.15.67-6.9,1.56c-1.48.35-3.06.74-4.58,1.13-3.48.89-6.63,1.78-7.59,2.2-.17.07-.25.27-.18.44.07.17.27.25.44.18.58-.24,1.96-.62,3.73-1.08,1.36-.35,2.94-.74,4.57-1.14,1.02-.25,2.05-.5,3.05-.75,4.06-1.01,7.62-1.9,7.62-1.9.18-.04.29-.22.25-.4-.04-.18-.22-.29-.4-.25Z"/>
        <path class="cls-17" d="m51.71,156.62s-.18.66-.33,1.59c-.05.33-.11.69-.14,1.07-.08.9-.09,1.89.01,2.73.02.19.18.32.37.31.19-.02.32-.18.31-.37-.03-.48,0-1.01.04-1.55.04-.5.1-.99.15-1.46.04-.4.08-.78.11-1.1.08-.66.13-1.09.13-1.09.04-.18-.08-.35-.26-.39-.18-.04-.35.08-.39.26Z"/>
        <path class="cls-13" d="m47.98,152.19s-.98,5.79.3,7.66c1.6,2.34,3.4,2.14,3.4,2.14,0,0-.14,6.22-.13,7.68.01,1.46-2.55,2.47-3.57.37-1.01-2.1-3.73-12.51-3.73-15.48,0,0,1.17-2.52,3.73-2.37Z"/>
        <path class="cls-4" d="m48.31,152.25c.02-.09,0-.19-.07-.27-.06-.08-.14-.12-.24-.13-1-.06-1.8.24-2.43.67-1.12.76-1.65,1.89-1.65,1.89-.02.05-.03.1-.03.15,0,1.47.63,4.73,1.41,7.94.82,3.35,1.79,6.64,2.31,7.72.56,1.15,1.51,1.52,2.37,1.42,1.07-.12,1.99-.98,1.98-1.98,0-.44,0-1.3.02-2.29.03-2.33.09-5.37.09-5.37,0-.11-.04-.22-.13-.3-.08-.08-.2-.11-.31-.1,0,0-.75.07-1.69-.57-.43-.3-.9-.74-1.36-1.39-.42-.61-.57-1.68-.6-2.8-.07-2.19.32-4.59.32-4.59h0Zm-.71.28c-.12.78-.36,2.61-.32,4.32.03,1.29.22,2.5.7,3.21.65.95,1.33,1.51,1.92,1.84.56.31,1.05.43,1.38.46-.02.77-.07,2.57-.1,4.22-.03,1.31-.05,2.53-.04,3.08,0,.6-.6,1.07-1.25,1.14-.56.06-1.17-.2-1.53-.95-.52-1.06-1.47-4.27-2.3-7.55-.77-3.07-1.42-6.2-1.45-7.67.12-.23.56-1,1.35-1.55.43-.3.97-.53,1.63-.57h0Z"/>
        <g>
          <path class="cls-13" d="m67.64,185.42s5.47,2.14,7.56,1.27c2.61-1.09,2.79-2.89,2.79-2.89,0,0,6.05,1.41,7.49,1.7,1.43.29,1.9,3.01-.37,3.57-2.26.56-13.01,1.09-15.92.48,0,0-2.23-1.66-1.55-4.13Z"/>
          <path class="cls-4" d="m67.76,185.11c-.09-.04-.18-.03-.27.01-.08.04-.15.12-.17.21-.27.96-.14,1.81.15,2.51.51,1.25,1.51,2,1.51,2,.04.03.09.05.14.06,1.43.31,4.76.35,8.06.25,3.45-.11,6.86-.39,8.03-.68,1.24-.31,1.79-1.17,1.88-2.03.1-1.07-.55-2.15-1.53-2.35-.43-.09-1.27-.27-2.24-.49-2.27-.51-5.24-1.19-5.24-1.19-.11-.03-.23,0-.32.06-.09.07-.15.17-.16.28,0,0-.09.75-.91,1.54-.38.37-.91.73-1.64,1.04-.68.29-1.76.21-2.87.02-2.16-.38-4.42-1.25-4.42-1.25h0Zm.13.76c.74.27,2.49.88,4.17,1.2,1.27.24,2.5.29,3.28-.03,1.07-.44,1.75-.99,2.2-1.51.42-.48.63-.94.74-1.26.75.18,2.5.59,4.11.96,1.28.29,2.47.56,3.01.67.59.12.92.81.86,1.45-.05.56-.43,1.1-1.24,1.3-1.14.29-4.49.57-7.86.7-3.16.12-6.36.12-7.8-.15-.2-.17-.86-.75-1.24-1.64-.2-.48-.32-1.06-.22-1.71h0Z"/>
        </g>
        <path class="cls-17" d="m62.65,172.58s.59,1.68,1.37,3.81c.29.8.61,1.67.94,2.53,1.13,2.96,2.31,5.9,2.45,6.28.06.18.26.27.43.2.18-.06.27-.26.2-.43-.13-.39-1.2-3.38-2.31-6.35-.33-.86-.66-1.72-.97-2.52-.83-2.11-1.5-3.76-1.5-3.76-.06-.17-.25-.26-.42-.19-.17.06-.26.26-.19.43Z"/>
        <path class="cls-4" d="m63.08,172.77s1.14-.39,2.58-.92c.54-.2,1.13-.41,1.71-.64,2.12-.83,4.22-1.72,4.22-1.72.17-.07.26-.26.19-.44-.07-.17-.26-.26-.44-.19,0,0-2.15.76-4.28,1.57-.58.22-1.16.46-1.7.67-1.42.58-2.53,1.05-2.53,1.05-.17.07-.25.26-.19.43.06.17.26.25.43.19Z"/>
        <path class="cls-3" d="m82.62,82.65c.33.21.38.73.11,1.16-.27.43-.77.6-1.1.39-.33-.21-.38-.73-.11-1.16.27-.43.77-.6,1.1-.39Z"/>
      </g>
      <polygon class="cls-19" points="178.03 37.12 145.2 37.12 145.2 58.64 166.95 58.64 175.38 63.58 173.58 58.64 178.03 58.64 178.03 37.12"/>
      <polygon class="cls-18" points="91.02 52.31 123.85 52.31 123.85 73.83 100.77 73.83 91.12 79.47 94.13 73.83 91.02 73.83 91.02 52.31"/>
    </g>
  </g>
</svg>