<svg xmlns="http://www.w3.org/2000/svg" xmlns:xlink="http://www.w3.org/1999/xlink" viewBox="0 0 362.8 39.21"><defs><style>.cls-1{fill:url(#新規グラデーションスウォッチ_1);}.cls-2{fill:url(#新規グラデーションスウォッチ_1-2);}.cls-3{fill:url(#新規グラデーションスウォッチ_1-3);}.cls-4{fill:url(#新規グラデーションスウォッチ_1-4);}.cls-5{fill:url(#新規グラデーションスウォッチ_1-5);}.cls-6{fill:url(#新規グラデーションスウォッチ_1-6);}.cls-7{fill:url(#新規グラデーションスウォッチ_1-7);}.cls-8{fill:url(#新規グラデーションスウォッチ_1-8);}.cls-9{fill:url(#新規グラデーションスウォッチ_1-9);}.cls-10{fill:url(#新規グラデーションスウォッチ_1-10);}</style><linearGradient id="新規グラデーションスウォッチ_1" x1="14.68" y1="124.98" x2="14.68" y2="-19.08" gradientUnits="userSpaceOnUse"><stop offset="0" stop-color="#c9ddf1"/><stop offset="0.06" stop-color="#c2daf0" stop-opacity="0.97"/><stop offset="0.15" stop-color="#aed2ec" stop-opacity="0.89"/><stop offset="0.26" stop-color="#8dc5e7" stop-opacity="0.75"/><stop offset="0.38" stop-color="#5fb3df" stop-opacity="0.57"/><stop offset="0.52" stop-color="#269cd5" stop-opacity="0.33"/><stop offset="0.54" stop-color="#1e99d4" stop-opacity="0.3"/><stop offset="0.76" stop-color="#0075bb"/><stop offset="0.96" stop-color="#005b94"/></linearGradient><linearGradient id="新規グラデーションスウォッチ_1-2" x1="47" y1="124.98" x2="47" y2="-19.08" xlink:href="#新規グラデーションスウォッチ_1"/><linearGradient id="新規グラデーションスウォッチ_1-3" x1="95.2" y1="124.98" x2="95.2" y2="-19.08" xlink:href="#新規グラデーションスウォッチ_1"/><linearGradient id="新規グラデーションスウォッチ_1-4" x1="133.07" y1="124.98" x2="133.07" y2="-19.08" xlink:href="#新規グラデーションスウォッチ_1"/><linearGradient id="新規グラデーションスウォッチ_1-5" x1="163.8" y1="124.98" x2="163.8" y2="-19.08" xlink:href="#新規グラデーションスウォッチ_1"/><linearGradient id="新規グラデーションスウォッチ_1-6" x1="197.16" y1="124.98" x2="197.16" y2="-19.08" xlink:href="#新規グラデーションスウォッチ_1"/><linearGradient id="新規グラデーションスウォッチ_1-7" x1="251.87" y1="124.98" x2="251.87" y2="-19.08" xlink:href="#新規グラデーションスウォッチ_1"/><linearGradient id="新規グラデーションスウォッチ_1-8" x1="281.73" y1="124.98" x2="281.73" y2="-19.08" xlink:href="#新規グラデーションスウォッチ_1"/><linearGradient id="新規グラデーションスウォッチ_1-9" x1="308.55" y1="124.98" x2="308.55" y2="-19.08" xlink:href="#新規グラデーションスウォッチ_1"/><linearGradient id="新規グラデーションスウォッチ_1-10" x1="343.81" y1="124.98" x2="343.81" y2="-19.08" xlink:href="#新規グラデーションスウォッチ_1"/></defs><g id="Layer_2" data-name="Layer 2"><g id="デザイン"><path class="cls-1" d="M11.73,18.79V29.7a20.38,20.38,0,0,0,.3,4.11A4.67,4.67,0,0,0,13.18,36a4.34,4.34,0,0,0,1.74,1.16,8.47,8.47,0,0,0,2.55.45v.63H0v-.63a7.36,7.36,0,0,0,2.49-.42,4.48,4.48,0,0,0,1.83-1.14,4.92,4.92,0,0,0,1.09-2.32,19.56,19.56,0,0,0,.33-4.07V9.54a35.21,35.21,0,0,0-.19-3.63A4.5,4.5,0,0,0,3.2,2.32,7.55,7.55,0,0,0,0,1.59V1H28.57l.8,8.88-.63.14a20.07,20.07,0,0,0-1.26-3.12,9.22,9.22,0,0,0-3.61-3.69,9.32,9.32,0,0,0-3.09-1.06A28.7,28.7,0,0,0,16,1.8H11.73V17.94h1.09q4.84,0,7-2.16a6.16,6.16,0,0,0,1.45-2.2A12.05,12.05,0,0,0,22,10.25l.63,0-.17,16.57h-.65a13.86,13.86,0,0,0-1-4.31,5.81,5.81,0,0,0-2.2-2.44,7.9,7.9,0,0,0-2.69-1A22.09,22.09,0,0,0,11.73,18.79Z"/><path class="cls-2" d="M67,38.28H49v-.63a8.18,8.18,0,0,0,3.39-.82,3.31,3.31,0,0,0,1.69-2.95,8.57,8.57,0,0,0-.76-3l-.47-1.15-2.62-6.45h-12L36.78,27l-.68,1.7a13.51,13.51,0,0,0-1.23,4.73,4.11,4.11,0,0,0,.45,1.89,4,4,0,0,0,1.22,1.42,5.52,5.52,0,0,0,2.73.87v.63H27v-.63a5.62,5.62,0,0,0,2.55-.71,7.5,7.5,0,0,0,2.13-2A15.86,15.86,0,0,0,33.41,32c.55-1.17,1.29-2.94,2.2-5.29L45.62,1h1.55L59.07,29.7a45.14,45.14,0,0,0,2.13,4.64,6.88,6.88,0,0,0,1.72,2.11,4.75,4.75,0,0,0,1.51.75,15.59,15.59,0,0,0,2.54.45ZM49.8,22.15,44.06,8,38.64,22.15Z"/><path class="cls-3" d="M118.81,1.59a8.6,8.6,0,0,0-2.5.42,4.87,4.87,0,0,0-1.74,1.13,3.93,3.93,0,0,0-.9,1.28,5.93,5.93,0,0,0-.41,1.76,25.23,25.23,0,0,0-.19,3.36V29.7a19.51,19.51,0,0,0,.32,4.18,4.39,4.39,0,0,0,1.18,2.19,6.35,6.35,0,0,0,4.24,1.58v.63H101.33v-.63a8.36,8.36,0,0,0,2.56-.45,4.8,4.8,0,0,0,1.74-1.13,4.72,4.72,0,0,0,1.16-2.23,20,20,0,0,0,.31-4.14V5.25L93,38.28h-.57l-14-32.54v24a19.88,19.88,0,0,0,.31,4.15,4.74,4.74,0,0,0,1.16,2.22,4.58,4.58,0,0,0,1.74,1.14,8.61,8.61,0,0,0,2.53.44v.63H71.58v-.63a8.55,8.55,0,0,0,2.53-.44,4.58,4.58,0,0,0,1.74-1.14A4.64,4.64,0,0,0,77,33.84a19.82,19.82,0,0,0,.32-4.14V9.54c0-.84,0-1.63-.08-2.38a8.1,8.1,0,0,0-.63-2.95,4.37,4.37,0,0,0-1.88-1.9,7.8,7.8,0,0,0-3.16-.72V1H83.45L95.29,30.19,107.57,1h11.24Z"/><path class="cls-4" d="M141.8,1v.63a9,9,0,0,0-2.53.43,4.65,4.65,0,0,0-1.73,1.15,5.11,5.11,0,0,0-1.31,3,29.63,29.63,0,0,0-.17,3.33V29.7a22.42,22.42,0,0,0,.22,3.58,5.87,5.87,0,0,0,.71,2.1A4.48,4.48,0,0,0,138.82,37a8,8,0,0,0,3,.64v.63H124.33v-.63a8.36,8.36,0,0,0,2.56-.45,4.69,4.69,0,0,0,1.71-1.13,4.5,4.5,0,0,0,1.17-2.22,20.77,20.77,0,0,0,.3-4.15V9.54a20.77,20.77,0,0,0-.3-4.15,4.41,4.41,0,0,0-1.17-2.22A4.42,4.42,0,0,0,126.87,2a9.07,9.07,0,0,0-2.54-.43V1Z"/><path class="cls-5" d="M147.29,38.28v-.65a5.64,5.64,0,0,0,4.27-1.56,4.64,4.64,0,0,0,1.16-2.23A19.82,19.82,0,0,0,153,29.7V9.54a19.2,19.2,0,0,0-.35-4.28A4.41,4.41,0,0,0,151.42,3a4.75,4.75,0,0,0-1.71-1,8.18,8.18,0,0,0-2.42-.38V1h17.48v.63a9,9,0,0,0-2.46.41,4.35,4.35,0,0,0-1.7,1,4.55,4.55,0,0,0-1.26,2.26A19.82,19.82,0,0,0,159,9.54V25.32a54,54,0,0,0,.2,5.41,8.69,8.69,0,0,0,.73,2.9,6,6,0,0,0,2.85,2.89,11.55,11.55,0,0,0,5,.91,15.12,15.12,0,0,0,5.48-.86,8.32,8.32,0,0,0,3.65-2.66,11.16,11.16,0,0,0,1.58-2.79,24.86,24.86,0,0,0,1.13-4.1l.66.05-.36,11.21Z"/><path class="cls-6" d="M189,38.28v-.63a8.82,8.82,0,0,0,2.55-.44,4.69,4.69,0,0,0,1.75-1.14,4.62,4.62,0,0,0,1.14-2.22,20.77,20.77,0,0,0,.3-4.15l0-5.34a8.1,8.1,0,0,0-.46-2.54,17.75,17.75,0,0,0-2.14-4.05L185.11,7.14l-1.26-1.92a9,9,0,0,0-2.73-2.84,5,5,0,0,0-1.37-.58,11,11,0,0,0-1.91-.21V1h17.83v.63a10.5,10.5,0,0,0-2.9.41,2.37,2.37,0,0,0-1.53,2.38,3.64,3.64,0,0,0,.34,1.42,15.11,15.11,0,0,0,1.11,2l7.41,11.6,6.34-9.9.71-1.12a5.75,5.75,0,0,0,1-3.12A3.36,3.36,0,0,0,207,2.54a4.68,4.68,0,0,0-3.14-.95V1h12.58v.63a8.67,8.67,0,0,0-2.19.47,5.67,5.67,0,0,0-1.56,1,29.47,29.47,0,0,0-4.13,5.22l-6.23,9.52A11.33,11.33,0,0,0,201,20.32a9.79,9.79,0,0,0-.25,2.68v6.7a21.37,21.37,0,0,0,.29,4.19,4.53,4.53,0,0,0,1.16,2.18,5.67,5.67,0,0,0,4.3,1.58v.63Z"/><path class="cls-7" d="M235.37,38.28v-.65a5.63,5.63,0,0,0,4.26-1.56,4.64,4.64,0,0,0,1.16-2.23,19.82,19.82,0,0,0,.32-4.14V9.54a20,20,0,0,0-.34-4.28A4.56,4.56,0,0,0,239.5,3a4.83,4.83,0,0,0-1.71-1,8.23,8.23,0,0,0-2.42-.38V1h17.47v.63a9,9,0,0,0-2.46.41,4.35,4.35,0,0,0-1.7,1,4.55,4.55,0,0,0-1.26,2.26,20.66,20.66,0,0,0-.32,4.24V25.32c0,2.42.06,4.23.19,5.41a8.67,8.67,0,0,0,.74,2.9,6,6,0,0,0,2.84,2.89,11.58,11.58,0,0,0,5,.91,15.21,15.21,0,0,0,5.49-.86A8.43,8.43,0,0,0,265,33.91a11.45,11.45,0,0,0,1.57-2.79,24.86,24.86,0,0,0,1.13-4.1l.66.05L268,38.28Z"/><path class="cls-8" d="M290.46,1v.63a9,9,0,0,0-2.53.43,4.65,4.65,0,0,0-1.73,1.15,5.18,5.18,0,0,0-1.32,3,32.44,32.44,0,0,0-.16,3.33V29.7a22.42,22.42,0,0,0,.22,3.58,5.68,5.68,0,0,0,.71,2.1A4.48,4.48,0,0,0,287.48,37a8,8,0,0,0,3,.64v.63H273v-.63a8.36,8.36,0,0,0,2.56-.45,4.69,4.69,0,0,0,1.71-1.13,4.5,4.5,0,0,0,1.17-2.22,20.77,20.77,0,0,0,.3-4.15V9.54a20.77,20.77,0,0,0-.3-4.15,4.41,4.41,0,0,0-1.17-2.22A4.42,4.42,0,0,0,275.53,2,9.07,9.07,0,0,0,273,1.59V1Z"/><path class="cls-9" d="M296.57,38.17l.08-11.29.63,0A24.63,24.63,0,0,0,300,33.7q3,4.57,7.49,4.58a6.94,6.94,0,0,0,5.19-2.1,7.35,7.35,0,0,0,2.05-5.34A9.55,9.55,0,0,0,314.3,28a8.25,8.25,0,0,0-1.21-2.49,9.35,9.35,0,0,0-2.23-2.05A42.77,42.77,0,0,0,306.47,21a43.14,43.14,0,0,1-4-2.21,11.67,11.67,0,0,1-2.23-1.83,8.94,8.94,0,0,1-2.35-6.27,10.85,10.85,0,0,1,.92-4.37,10.57,10.57,0,0,1,2.55-3.61A9.77,9.77,0,0,1,308.25,0a10.52,10.52,0,0,1,2.38.26,19.15,19.15,0,0,1,2.92,1q1.36.54,1.86.69a3.06,3.06,0,0,0,.88.15c.63,0,1.06-.46,1.28-1.39h.63l.19,10.85h-.63c-.49-1.73-.91-3.05-1.27-4a13.57,13.57,0,0,0-1.27-2.56,9.83,9.83,0,0,0-2.94-3.16,6.83,6.83,0,0,0-3.72-1A6,6,0,0,0,303.73,3a6.32,6.32,0,0,0-1.16,2,6.71,6.71,0,0,0-.42,2.3q0,4.58,5.87,7.37l3.85,1.86a17.32,17.32,0,0,1,6.42,4.65,10.42,10.42,0,0,1,2.23,6.62,11.61,11.61,0,0,1-1,4.8,10.77,10.77,0,0,1-4.26,4.93,12.68,12.68,0,0,1-6.7,1.73,17,17,0,0,1-6.78-1.39c-1.13-.5-1.81-.78-2-.85a2.4,2.4,0,0,0-.74-.11,1.81,1.81,0,0,0-1.8,1.31Z"/><path class="cls-10" d="M340.71,1.8c-1.15,0-2.38,0-3.7.11A20.58,20.58,0,0,0,330.74,3a7.38,7.38,0,0,0-3.41,2.93,15.12,15.12,0,0,0-1.88,5.19l-.63,0L325.31,1h37l.49,10.09-.63,0a13.11,13.11,0,0,0-2.31-5.75,8.68,8.68,0,0,0-4.58-2.81,34.86,34.86,0,0,0-8.61-.74V29.7a20,20,0,0,0,.31,4.14,4.72,4.72,0,0,0,1.16,2.23,4.58,4.58,0,0,0,1.74,1.14,8.61,8.61,0,0,0,2.53.44v.63H334.94v-.63a8.64,8.64,0,0,0,2.55-.44,4.58,4.58,0,0,0,1.74-1.14,4.74,4.74,0,0,0,1.16-2.22,19.73,19.73,0,0,0,.32-4.15Z"/></g></g></svg>