<svg xmlns="http://www.w3.org/2000/svg" viewBox="0 0 229.88 23.82"><defs><style>.cls-1{fill:#f17424;}</style></defs><g id="Layer_2" data-name="Layer 2"><g id="デザイン"><path class="cls-1" d="M5.82,19.62l2.1-.8a3.82,3.82,0,0,1,.7-.25c.08,0,.13,0,.13.13,0,.27-.55.7-.85.9L6,20.84,3.7,22.09c-.18.11-1,.43-1.08.5-.42.33-.52.41-.75.41s-.47-.16-.85-.58c-.72-.85-.77-.9-.77-1.22s.2-.58.38-.58a1.36,1.36,0,0,1,.39.25,2,2,0,0,0,.68.2,2.74,2.74,0,0,0,.65-.15l1.25-.38.85-.37V18.85l0-5.25-1.4.32a9.7,9.7,0,0,1-1.05.28c-.48,0-1.53-.95-1.53-1.48,0-.25.15-.42.33-.42s.57.2.65.22a2.32,2.32,0,0,0,.77.1s.45,0,.8-.07l1.25-.2.23,0v-.53l0-.8c0-.8-.12-.92-.27-1.1a5.7,5.7,0,0,1-1,.15c-.25,0-.33,0-.93-.55C1.9,9.85.7,10.92.15,10.92c-.07,0-.15-.05-.15-.12s.5-.7.7-.93c2-2.2,3.9-6,3.9-7.2a.74.74,0,0,0-.15-.47,2.69,2.69,0,0,1-.28-.4.48.48,0,0,1,.5-.45c.2,0,1.88.62,1.88,1.15a7.44,7.44,0,0,1-.4,1,13.34,13.34,0,0,1,1.9,1C8.9,5,9.17,5.35,9.17,6S9,7.17,8.6,7.17,8.2,7,7.82,6.5a11.09,11.09,0,0,0-2.1-2.08A24.22,24.22,0,0,1,3,8.65a1.27,1.27,0,0,0,.5.1,13.07,13.07,0,0,0,2.37-.48c.23,0,1.15-.42,1.35-.42s1.2,0,1.2.75-.55.65-1.25.75a6.15,6.15,0,0,0-1.32.2,1.12,1.12,0,0,1,.3.7c0,.07-.08.37-.08.42a2.89,2.89,0,0,0,0,.4L6,12l.43-.08c.2,0,.67-.2.87-.25a3.07,3.07,0,0,1,.78-.15c.35,0,1.17.18,1.17.78a.63.63,0,0,1-.67.62c-.15,0-.88.05-1,.08l-1.33.2-.32.07ZM1.1,15.57c.12,0,2.67,1,2.67,2.63,0,.37-.15,1-.72,1s-.65-.52-.8-1.07a5.08,5.08,0,0,0-.78-1.65c-.07-.13-.5-.73-.5-.78A.12.12,0,0,1,1.1,15.57Zm5.8.65a6.12,6.12,0,0,0,.35-1.52c0-.13-.2-.63-.2-.73a.39.39,0,0,1,.42-.35c.58,0,1.48.8,1.48,1.25,0,.23-.08.33-.75,1.08-.2.22-1,1.25-1.18,1.42s-.3.25-.42.25-.1-.07-.1-.17S6.85,16.35,6.9,16.22Zm12.12,6-2.55,0L12,22.64a9.23,9.23,0,0,0-1.4.2c-.12,0-1.1.23-1.22.23C9,23.07,9,23,8.35,22.34s-.6-.62-.6-1S7.9,21,8.07,21a5.79,5.79,0,0,1,.85.34,3.37,3.37,0,0,0,1.1.18,1.35,1.35,0,0,0,.45,0,2.8,2.8,0,0,0,0-.52l-.15-2.85a8.61,8.61,0,0,0-.3-1.7,3.41,3.41,0,0,1-.35-.65.52.52,0,0,1,.57-.4,1.68,1.68,0,0,1,.7.2c.48.3.53.32.68.32l.77-.07,6-.63a4.18,4.18,0,0,0,.8-.15,6.26,6.26,0,0,1,.7-.17c.29,0,.52.2.87.5s.55.4.55.72a8.34,8.34,0,0,1-.4,1l-.77,3.4-.08.37,0,.05c.28,0,1-.12,1.18-.12.4,0,1.37.35,1.37,1.2a.59.59,0,0,1-.6.58l-.62-.06ZM13.3,3.9a1,1,0,0,1,.07.3s-.1,1.3-.07,1.55c.17,0,1-.33,1.15-.33s1.22.68,1.22,1.1c0,.18,0,.23-.25.78-.05.1-.37,1.37-.45,1.6a1.12,1.12,0,0,1,.2.6c0,.5-.52.5-.77.5L14,10l-.65.08-.17,0,0,2.18.75-.08c.1,0,.55-.12.65-.12.37,0,1.15.2,1.15.82,0,.38-.23.58-.78.58l-1.07,0-2,.2c-.3,0-.58.08-.83.13a6,6,0,0,1-.77.32A1.38,1.38,0,0,1,9.32,13c0-.12.08-.62.08-.72s0-.43,0-.53L9.5,7.22a20.3,20.3,0,0,0-.25-3.6c0-.1-.35-.49-.35-.6s0-.39.55-.39a1.33,1.33,0,0,1,.72.19c.3.2.33.23.48.23.37,0,2-.28,2.45-.33.27-.05,1.6-.34,1.75-.34.35,0,1,.34,1,.75a.63.63,0,0,1-.42.49,6.42,6.42,0,0,1-.75.1l-1.08.13ZM10.77,9.22c.48-.05,2.53-.37,3-.42,0-.28.23-1.65.23-1.85s-.25-.13-.43-.1L11.2,7.2l-.38.1a2.31,2.31,0,0,0,0,.42ZM11.87,6c.18,0,.18-.1.18-.32l0-.93c0-.72-.12-.7-.4-.65l-.72.1-.15,0c0,.15,0,1.82,0,1.87s.1,0,.2,0Zm-.15,4.25L11,10.4l-.15,0,0,1.87v.2l.1,0,.65-.1.35-.08,0-.32,0-1.38v-.4ZM12,21.4l1.35-.11a4.42,4.42,0,0,0,.05-.72l-.1-2.5c-.05-1.2-.1-1.22-.48-1.17l-.7.07c-.4.05-.4.1-.4.83,0,.3.08,1.62.1,1.9,0,.52,0,.87,0,1.7ZM14.62,21l0,.22.8-.05A1.13,1.13,0,0,0,15.9,21l.15-1.59.17-2.23V16.6H16l-1.33.15-.12,0Zm5-15c.22,0,1.2-.42,1.42-.42s1.23.22,1.23.87-.73.6-1,.6a13.47,13.47,0,0,0-2,.2c-.13,0-1.3.18-1.33.18a1.64,1.64,0,0,1-.47-.13c-.78,1-1.48,2-2,2-.1,0-.12-.05-.12-.1S15.9,8,16,7.72a16.51,16.51,0,0,0,1.47-4.45.89.89,0,0,0-.2-.55.32.32,0,0,1-.12-.2.56.56,0,0,1,.55-.44c.45,0,1.62.57,1.62,1a7.17,7.17,0,0,1-.42,1,17,17,0,0,1-.95,2A5.42,5.42,0,0,0,19.57,6Zm-.28,5.88c-.12,0-1.79.25-1.82.25a1.88,1.88,0,0,1-1.3-1.33c0-.07.08-.42.3-.42s.13,0,.35.15a1.9,1.9,0,0,0,1.05.22,8.2,8.2,0,0,0,1.48-.12,11.28,11.28,0,0,1,1.27-.33c.55,0,1.35.25,1.35.85a.61.61,0,0,1-.7.63l-.4,0ZM17.2,21h.87c.53,0,.6,0,.75-.8l.33-1.8c.05-.33.25-1.6.25-1.78s-.13-.25-.43-.22l-1,.07a1.31,1.31,0,0,0-.35.05c0,.05-.1.85-.1.95v.18L17.07,21Z"/><path class="cls-1" d="M32.63,22.32,33.8,20.9c.18-.23,1.1-1.45,1.15-1.55l1.1-1.7a14.26,14.26,0,0,0,1.38-3.4,1.11,1.11,0,0,0-.2-.6,1.27,1.27,0,0,1-.18-.43c0-.25.33-.3.48-.3.75,0,1.9.85,1.9,1.25a1.24,1.24,0,0,1-.18.58l-.72,1.37c-.1.18-.58,1-.65,1.13l.7.3L42,19l.13-4.07,0-2.58a3.89,3.89,0,0,0-.25-1.6l-2.62.4c-.15,0-.8.2-.93.2a2.78,2.78,0,0,1-1.47-1.07,1,1,0,0,1-.15-.88,1,1,0,0,1,.75.2,2.33,2.33,0,0,0,1.27.35c.23,0,.53-.05.75-.05l1.83-.22,3.39-.5L46,8.92a10,10,0,0,0,1.12-.27,2.4,2.4,0,0,1,.75-.13c.73,0,1.38.28,1.38.88a.49.49,0,0,1-.48.5l-1.45.15h-.27l-3.6.45a1.44,1.44,0,0,1,.25.67c0,.15-.1.8-.1.95l-.1,1.93,0,.17.35,0,2.05-.28a9.06,9.06,0,0,0,1.48-.3,3.88,3.88,0,0,1,.7-.15c.2,0,1.37.18,1.37.95,0,.43-.27.45-.85.5L47,15.07l-3.18.35-.27,0,0,1.92v1.85l0,.48,2.35.87,2.3.68,4.35,1.07c.15.05.77.17.9.23a3,3,0,0,1,.62.22c-.27.35-.37.37-1.12.55l-1.7.37c-.23.05-1.15.18-1.33.18a2.89,2.89,0,0,1-1.1-.33l-1.65-.82-4.1-2-3.37-1.57c-.27-.13-1.9-.9-2.4-1-.12.15-.57.85-.67,1a8.41,8.41,0,0,1-.68.85l-1.32,1.3a6.34,6.34,0,0,1-1.9,1.47s0,0-.18-.17ZM41.4,5.25c.08,0,.45,0,.52-.08s.18-.17.18-.25c0-2-.27-2.32-.45-2.5A6.25,6.25,0,0,1,41,1.6c.25-.25.4-.4.72-.4s2.1.4,2.1,1.12c0,.18-.15.93-.17,1.1a9.71,9.71,0,0,0-.05,1.5l3.05-.27,2.57-.25a5.27,5.27,0,0,0,1.25-.25,7.2,7.2,0,0,1,.75-.2c.45,0,1.18.85,1.6,1.37s.55.63.55.9-.2.4-.9.65a4.73,4.73,0,0,0-.7.3L50,8.12a3.42,3.42,0,0,1-.58.33.17.17,0,0,1-.17-.18c0-.15.2-.37.37-.67l.88-1.45a1.26,1.26,0,0,0,.2-.48s-.08-.15-.25-.15l-.35.05c-.23,0-1.3.1-1.53.13l-5.37.47-7.67,1-.38-.07c0,.27-.3,3.32-1.15,3.32-.5,0-.75-.77-.75-1.35,0-.22,0-.37.4-1.2a5.28,5.28,0,0,0,.53-2.5c0-.47,0-.52.17-.52s.3.17.68,1a7.26,7.26,0,0,0,2.27-.15Z"/><path class="cls-1" d="M72.56,6.4l0-.15.27-1.95c0-.25.05-.93.05-1.23a1.11,1.11,0,0,0-.35-.9c-.5-.64-.55-.7-.55-.87s.45-.38.7-.38a4.36,4.36,0,0,1,1.48.63c.52.3.72.42.72.7l-.15.82-.55,3.18,5-.45a6.65,6.65,0,0,0,1.07-.25,2.73,2.73,0,0,1,.53-.13c.27,0,.8.33,1.44,1a1.14,1.14,0,0,1,.6.9,2.87,2.87,0,0,1-.17.7c0,.05-.1.28-.1.33l-.22,2.57-.16,2.88L82,20.29c0,.16-.28,3.05-1.32,3.05a.92.92,0,0,1-.7-.45c-.2-.22-.55-.69-.7-.8l-1.7-1.3a1.13,1.13,0,0,1-.48-.54.92.92,0,0,1,.28-.05c.12,0,1.37.3,1.62.34a4.08,4.08,0,0,0,.85.11c.43,0,.45-.33.48-.7l.15-1.75.27-6.55,0-4,0-.35c-.12-.23-.15-.28-.85-.28-.4,0-3.9.25-6,.45a20.15,20.15,0,0,1-.88,3.08l3.3,2,.6.4,1.48,1.18a2.88,2.88,0,0,1,.9,2c0,.65-.35.88-.58.88s-.4-.1-1-.95a18.09,18.09,0,0,0-1.57-1.85l-1.78-1.55-1.6-1.23,0,0c-.27.52-.67,1.15-.7,1.2L71,14.1c-.13.12-2.45,2.9-4.1,2.87l0-.2c.2-.22,1.22-1,1.42-1.22a18,18,0,0,0,2.15-2.78l.48-.77.8-1.7a17,17,0,0,0,.7-2.73l-4.43.5a8.86,8.86,0,0,1-.9.13,1.32,1.32,0,0,1-.4,0l-.07.62,0,3.85v6l-.07,1.92c0,1-.38,1.65-.8,1.65-.58,0-.85-.9-.83-1.35l.08-2.1L65,13.3l0-1.73L65,8.9a3.8,3.8,0,0,0-.28-1.33c-.07-.17-.52-1.05-.52-1.12a.5.5,0,0,1,.07-.25,1.08,1.08,0,0,1,.45-.13c.2,0,.28,0,1,.48A1.93,1.93,0,0,0,67,6.87a18.92,18.92,0,0,0,2.67-.17Z"/><path class="cls-1" d="M109.4,14.35l.95.57,1.83,1,.3.13,2.24.92c.93.38,1.33.58,1.5,1a6.77,6.77,0,0,1-2.62.33c-.25,0-1.3,0-1.47,0s-.35-.07-.8-.47l-3.85-3.28-1.13-.85-1.8-1.42a3.71,3.71,0,0,0-.82-.58,4.85,4.85,0,0,0-.78.6l-1.52,1.43-.88.72-1.65,1.2a26.65,26.65,0,0,1-2.62,1.53l-2.1.82a8.57,8.57,0,0,1-1,.25c-.08,0-.13,0-.28-.17a.86.86,0,0,1,.35-.33,27.17,27.17,0,0,0,6.35-4.22c.75-.7,2.47-2.5,2.47-3.3,0-.23-.07-.3-.25-.53,0-.22,0-.42.53-.42s2.22.72,2.22,1.42a.86.86,0,0,1-.15.43,5.88,5.88,0,0,1,.73.42Zm-7.77-9.78,1.72-.17c0-.2,0-1.2,0-1.43s-.07-.8-.37-1c-.6-.42-.68-.48-.68-.62,0-.33.35-.5.6-.5.43,0,2.6.64,2.6,1.14a9.66,9.66,0,0,1-.35,1.08c0,.25-.12.72-.17,1.22l1.55-.12L110.13,4c.32,0,1.8-.22,2.15-.22a3.22,3.22,0,0,1,1.74,1c.68.65.9.93.9,1.28,0,.65-.42.67-.7.7a8.8,8.8,0,0,0-2,.22c-.25,0-1.43.38-1.7.38s-.25-.05-.25-.18S112,5.85,112,5.45c0-.18-.87-.25-1-.25l-2.63,0-3.62.15L102,5.6c-.45,0-1.82.2-2.27.27l-2.5.38c-.13,0-.6.07-.7.07a15.1,15.1,0,0,1-.8,2.4c-.35.83-.58,1.25-1,1.25s-.85-.9-.85-1.27a2.16,2.16,0,0,1,.5-1.23,5,5,0,0,0,1-2.37c0-.1-.12-.68-.12-.8A.29.29,0,0,1,95.5,4c.35,0,.78.33,1,.93a7.81,7.81,0,0,0,1.62-.08Zm-5.9,7c0-.25,3.35-3,3.35-3.65,0-.07-.1-.62-.1-.7s.2-.35.57-.35.43.08,1.38.83a.76.76,0,0,1,.35.6c0,.27-.08.35-.78.77-.27.18-1.37,1-1.6,1.15s-2.65,1.6-3.12,1.5A.55.55,0,0,1,95.73,11.62ZM109,21.15c-.67,1.77-1,2.09-1.5,2.09a.9.9,0,0,1-.47-.17l-.6-.18c-.23,0-.5-.05-.73-.05h-.9L102,23a9.47,9.47,0,0,0-1.1.17,1.47,1.47,0,0,1-.8.5c-.15,0-.65-.07-.75-1.1L99,19.45c-.13-1.33-.3-1.53-.55-1.85s-.38-.48-.38-.6a.42.42,0,0,1,.43-.38,4.88,4.88,0,0,1,1.6.68,5.12,5.12,0,0,0,1,0l5-.55a8.86,8.86,0,0,0,1.12-.22,2.58,2.58,0,0,1,.83-.2,1.11,1.11,0,0,1,.7.22l.85.63c.6.42.9.62.9,1.07,0,.1,0,.23-.28.48a1.69,1.69,0,0,0-.55.75Zm-1-2.48a2.33,2.33,0,0,0,.13-.6c0-.17-.1-.27-.43-.27s-1.72.1-2.35.17l-2.7.3-1.47.23c-.1,0-.55.1-.65.1l.25,2.65c0,.09.07.59.07.7l1.58-.13,2.65-.2c.25,0,1.35-.05,1.57-.08l.4,0a8.4,8.4,0,0,0,.38-.95ZM109.63,8.2c1,.4,2.22,1.27,2.22,2.32,0,.45-.25.83-.62.83a1.26,1.26,0,0,1-.75-.35L108.9,9.5a13.47,13.47,0,0,0-3-2c-.12,0-.4-.2-.4-.35s0,0,.08-.15a9.66,9.66,0,0,1,2.42.55Z"/><path class="cls-1" d="M129.12,9.77V7.37A14.82,14.82,0,0,0,129,5.25c0-.15-.3-.75-.3-.88s.23-.3.4-.3,1.7.48,1.7,1.43c0,.12-.1.62-.1.72a3.08,3.08,0,0,0,0,.6l-.08,2.75,0,.18,4-.35c.4,0,1.42-.13,1.75-.13s.37-.1.37-.87l0-2.35a8.35,8.35,0,0,0-.18-2.28,8.69,8.69,0,0,1-.37-.87c0-.18.17-.35.5-.35s1.95.35,1.95,1.4a5.81,5.81,0,0,1-.1.7,2.69,2.69,0,0,0,0,.67l-.13,3.6,0,.15.22,0L140,9a9,9,0,0,0,1.45-.22,2.31,2.31,0,0,1,.55-.08c.42,0,1.57.48,1.57,1.23a.45.45,0,0,1-.25.45c-.2.12-.27.12-1,.1l-2.08-.1-1.92.07,0,.08L138,12.75c0,.27-.45,2.15-.53,2.37l-.57,1.55c-1,2.75-4.48,5.95-5.3,5.95a.17.17,0,0,1-.17-.15c0-.13.05-.18.47-.58a15.81,15.81,0,0,0,3.9-6.47l.42-1.95.25-2.15,0-.77-2.6.12L131,10.9l-.38,0-.1.1,0,3.07c0,.53,0,1.93-.65,1.93-.13,0-.6,0-.83-.88a3.69,3.69,0,0,1-.1-1.3l.13-2.62,0-.15-2.1.22c-.23,0-1.15.23-1.35.23a1.87,1.87,0,0,1-1.55-1.33c0-.17.15-.32.42-.32s1.23.1,1.43.1l3.1-.15Z"/><path class="cls-1" d="M167.2,11.05l-1.43,1.55-1.6,1.62-2,1.8-2.07,1.68-.35.25-1.42,1c-.23.17-1.23.8-1.43.95s-.52.42-.62.5a.92.92,0,0,1-.53.2c-.72,0-2.1-1.2-2.1-1.75,0-.23.23-.28.4-.28l.88.05A18.1,18.1,0,0,0,160,15.75a64.7,64.7,0,0,0,9.52-8.83c.25-.3.4-.45.58-.45s.2.13.2.25a6.87,6.87,0,0,1-.55,1.08L168.6,9.42ZM154.3,5.12l-.5-.42c-.07,0-.17-.13-.17-.23s.15-.17.22-.17c.3,0,4.6.55,4.6,2.75,0,.25-.15.87-.7.87-.32,0-.5-.15-.87-.5l-1.45-1.37Z"/><path class="cls-1" d="M188,7l-3.52.37c-.18,0-1,.23-1.1.23a2.43,2.43,0,0,1-1.78-1.75.31.31,0,0,1,.3-.3c.15,0,.73.2.85.22a13.38,13.38,0,0,0,1.45.1c.28,0,2.18-.15,2.6-.17,1.4-.1,8.07-.45,8.87-.53.23,0,1.2-.2,1.4-.2.6,0,1.78.93,1.78,1.33s-.15.42-.55,1-2.1,3.45-2.45,4a29.16,29.16,0,0,1-8,8.75,10.3,10.3,0,0,1-3.15,1.77c-.07,0-.2,0-.2-.15s0-.22.55-.57a33,33,0,0,0,8.62-9.42,27.19,27.19,0,0,0,2.58-4.93c0-.17-.05-.15-.53-.15l-1.82,0Zm12.72-7a2.43,2.43,0,0,1,2.48,2.42,2.47,2.47,0,0,1-4.93.05A2.42,2.42,0,0,1,200.76,0Zm1.45,2.42a1.45,1.45,0,1,0-2.9.08,1.5,1.5,0,0,0,1.48,1.35A1.44,1.44,0,0,0,202.21,2.42Z"/><path class="cls-1" d="M211.14,18.55A25,25,0,0,0,214,10.4a26.79,26.79,0,0,0,.43-2.78,3.12,3.12,0,0,0-.15-.82c0-.1-.18-.53-.18-.6,0-.25.33-.28.43-.28.65,0,1.85.93,1.85,1.5a2.53,2.53,0,0,1-.25.93c-.08.17-.5,2.22-.63,2.65a20.08,20.08,0,0,1-4.2,8.5c-.22.25-.77.87-1,.87s-.12-.08-.12-.15S211,18.82,211.14,18.55ZM220,11.82V7.32a23.75,23.75,0,0,0-.2-3.07c-.1-.25-.2-.45-.25-.55-.2-.33-.22-.35-.22-.48s.27-.25.42-.25c.43,0,2,.65,2,1.48,0,.2-.15,1-.15,1.2a83.46,83.46,0,0,0-.25,8.55l0,2.17c0,.55,0,1.6,0,2.1,0,.3,0,.33.1.38a21.21,21.21,0,0,0,7.32-6c.2-.28.53-.75.75-1a.37.37,0,0,1,.25-.17c.08,0,.1.1.1.17s-1.1,3.93-6.79,8c-.23.17-1.3.87-1.48,1-.37.36-.52.48-.72.48-.53,0-1.23-1.37-1.23-1.62s.18-.75.2-.88c0-.32,0-.5,0-.62Z"/></g></g></svg>