<?xml version="1.0" encoding="utf-8"?>
<!-- Generator: Adobe Illustrator 24.2.3, SVG Export Plug-In . SVG Version: 6.00 Build 0)  -->
<svg version="1.1" id="レイヤー_1" xmlns="http://www.w3.org/2000/svg" xmlns:xlink="http://www.w3.org/1999/xlink" x="0px"
	 y="0px" viewBox="0 0 15 15" style="enable-background:new 0 0 15 15;" xml:space="preserve">
<style type="text/css">
	.st0{fill:#EB6C6C;}
</style>
<g>
	<g>
		<path class="st0" d="M8.1,14H6.9c0-6.2-1.3-8.9-2.1-10c-0.6-0.8-1.5-1-2.2-0.5C1.8,4,1.6,5,2.1,5.7L1,6.4c-0.9-1.3-0.5-3.1,0.8-4
			c1.3-0.9,3-0.5,4,0.8c0.6,0.8,1.2,2,1.7,4c0.5-2,1.1-3.3,1.7-4c1-1.3,2.6-1.7,4-0.8c1.3,0.9,1.7,2.7,0.8,4l-1.1-0.7
			C13.4,5,13.2,4,12.4,3.5c-0.8-0.5-1.6-0.3-2.2,0.5C9.4,5.1,8.1,7.8,8.1,14z"/>
	</g>
</g>
</svg>
