<?xml version="1.0" encoding="UTF-8"?>
<svg id="_レイヤー_2" data-name="レイヤー 2" xmlns="http://www.w3.org/2000/svg" viewBox="0 0 16.4 11.74">
  <defs>
    <style>
      .cls-1 {
        fill: #BFC8D1;
        stroke-width: 0px;
      }
    </style>
  </defs>
  <g id="design">
    <g>
      <path class="cls-1" d="m2.03,3.97c-.22-.25-.52-.35-.83-.42-.22-.05-.37-.25-.34-.47.12-.91.25-1.82.37-2.72C1.26.14,1.46-.02,1.69,0c.05,0,.11.01.16.02,4.66.64,9.31,1.28,13.97,1.92.22.03.41.09.53.29.01.05.03.1.04.16-.42,3.04-.84,6.08-1.25,9.12-.02,0-.04.01-.05.03-.13.17-.29.23-.51.2-4.72-.65-9.43-1.3-14.15-1.95-.21-.03-.34-.13-.42-.3,0-.07-.01-.14,0-.2.12-.89.24-1.79.37-2.68,0-.07.04-.13.06-.19.13-.15.29-.2.49-.18.32.03.63-.03.89-.24.03-.03.07-.05.1-.08.03-.04.05-.07.08-.11,0,0,0-.02,0-.02.04-.02.08-.02.1-.05.37-.5.42-1.23-.04-1.74,0,0-.02-.02-.03-.03Zm2.82-1.79s-.03-.02-.05-.03c-.22-.26-.04-.55-.06-.81-.9-.12-1.79-.25-2.69-.37-.08.58-.16,1.16-.24,1.74-.01.09.03.11.09.14.1.03.2.07.3.1,0,0,.02,0,.02,0,.05.05.09.1.14.14.26.18.47.41.62.69.08.16.16.32.25.48,0,.02,0,.04.01.07,0,.04,0,.09,0,.13.09.51.04,1-.2,1.46-.37.69-.95,1.1-1.73,1.22-.11.02-.13.06-.14.14-.07.5-.14,1-.2,1.5,0,.06-.02.12-.02.18l2.67.37c.02-.16.04-.31.06-.47.03-.21.23-.38.44-.36.23.02.42.18.42.39,0,.18-.02.37-.03.56,3.27.45,6.54.9,9.81,1.35.37-2.67.73-5.33,1.1-7.98-3.27-.45-6.53-.9-9.79-1.35-.02.15-.04.3-.06.44-.03.21-.18.34-.37.38-.11.03-.27.02-.37-.1Z"/>
      <path class="cls-1" d="m8.28,8.58c.05-.08.1-.18.16-.25.62-.7,1.24-1.4,1.86-2.1.76-.86,1.52-1.73,2.28-2.59.11-.12.22-.26.42-.26.31,0,.5.23.46.54-.03.25-.24.35-.37.5-.53.63-1.08,1.24-1.63,1.85-.79.89-1.59,1.78-2.38,2.67-.15.17-.36.23-.53.14-.19-.1-.3-.32-.27-.5Z"/>
      <path class="cls-1" d="m8.03,4c0-.43.35-.67.6-.99.28-.05.55-.19.85-.13.89.15,1.31.76,1.2,1.53-.11.79-.72,1.19-1.47,1.15-.81-.04-1.32-.91-1.18-1.56Zm.88.16c-.03.26.12.47.37.5.24.03.5-.15.52-.38.02-.26-.12-.46-.41-.51-.24-.04-.47.17-.47.39Z"/>
      <path class="cls-1" d="m11.09,8.08c.06-.68.75-1.25,1.45-1.15.87.12,1.31.78,1.2,1.52-.11.78-.77,1.21-1.5,1.15-.71-.07-1.29-.83-1.15-1.52Zm1.25.63c.24.03.51-.15.52-.38.01-.26-.12-.46-.42-.5-.24-.04-.46.17-.47.39-.02.26.12.47.37.5Z"/>
      <path class="cls-1" d="m3.99,6.65c.02-.15.04-.31.06-.46.03-.22.22-.39.44-.37.21.02.45.18.42.4-.04.37-.08.75-.16,1.12-.04.2-.32.31-.55.25-.17-.05-.32-.25-.3-.45.02-.16.04-.32.07-.49h0Z"/>
      <path class="cls-1" d="m4.35,3.99c.02-.16.04-.32.07-.47.03-.21.22-.38.44-.36.21.02.45.18.43.4-.04.37-.08.75-.16,1.12-.04.2-.32.31-.54.25-.17-.05-.32-.25-.3-.45.02-.16.04-.32.07-.49Z"/>
    </g>
  </g>
</svg>