<?xml version="1.0" encoding="UTF-8"?>
<svg id="_レイヤー_2" data-name="レイヤー 2" xmlns="http://www.w3.org/2000/svg" viewBox="0 0 17.6 18.8">
  <defs>
    <style>
      .cls-1 {
        fill: none;
        stroke: #39385d;
        stroke-miterlimit: 10;
      }

      .cls-2 {
        fill: #39385d;
        stroke-width: 0px;
      }
    </style>
  </defs>
  <g id="design">
    <g>
      <path class="cls-1" d="m14.57,14.24l2.33,2.69c.3.34.26.86-.08,1.16h0c-.34.3-.86.26-1.16-.08l-2.33-2.69"/>
      <circle class="cls-1" cx="8.68" cy="8.68" r="8.18"/>
      <path class="cls-2" d="m13.24,12.29c-.09-.11-.08-.16.02-.26,1.13-1,1.15-2.72-.02-3.67-.41-.33-.53-.66-.51-1.15.03-.6.07-1.2-.04-1.8-.31-1.6-1.24-2.71-2.8-3.2-1.55-.49-2.93-.11-4.1,1.02,0,0-.51.58-.75,1.04-.29.58-.43,1.2-.43,1.85,0,.53,0,1.06,0,1.59,0,.18-.05.28-.2.38-.53.35-.91.82-1.07,1.44-.25.97,0,1.8.73,2.47.11.1.14.15.03.29-.57.68-.85,1.46-.85,2.35,0,.08,0,.15,0,.23.06.03.12.06.16.11.04.04.09.08.14.12.11.08.23.17.33.26.06.05.11.1.16.15-.11-.24-.15-.51-.11-.78,0-.02,0-.02,0-.04.02-1.36.84-2.52,2.07-2.89.09-.03.16-.06.22.06.6.99,1.2,1.97,1.8,2.95h1.32c.44-.72.88-1.43,1.31-2.14.16-.26.33-.51.47-.78.07-.12.13-.13.25-.09,1.26.42,2.1,1.63,2.05,2.95,0,.02,0,.04,0,.06.01.14.02.28.01.41,0,0,0,.01,0,.02,0,.08-.02.15-.05.23-.01.04-.03.07-.05.11h.11c.09,0,.17,0,.26,0,0-.02,0-.03,0-.05,0-.16.04-.3.12-.44.05-.06.09-.12.14-.18.04-.05.1-.07.15-.1,0,0,0-.02,0-.03.02-.94-.26-1.78-.86-2.5Zm-3.98,1.35c-.17.28-.35.56-.52.84-.05.08-.08.05-.12,0-.19-.3-.37-.6-.58-.94.41,0,.78,0,1.15,0,.08,0,.1.04.06.1Zm1.16-1.88c-.21.33-.41.66-.61.99-.05.08-.11.11-.21.11-.31,0-.62,0-.93,0-.3,0-.59,0-.89,0-.1,0-.17-.03-.23-.12-.2-.34-.41-.68-.62-1.01-.05-.09-.08-.16.06-.16.5,0,.73-.26.76-.75.01-.15.02-.36.14-.42.11-.06.29.04.44.06.32.04.65.03.96-.06.13-.04.2-.02.23.14.05.25.13.49.18.74.03.14.11.2.24.22.13.02.26.06.39.07.16.02.14.08.07.19Zm.19-3.35c-.32.9-1.18,1.47-2.09,1.39-.95-.09-1.69-.77-1.84-1.73-.09-.55-.02-1.1-.03-1.65,0-.08.05-.11.11-.13.67-.22,1.27-.56,1.81-1.02.09-.08.15-.06.23.01.53.44,1.12.78,1.78,1,.11.04.14.09.14.2,0,.23,0,.47,0,.7,0,.41.03.83-.11,1.23Zm1.85,3.17c-.58-.41-1.25-.55-1.94-.67-.15-.03-.22-.09-.27-.24-.13-.38-.12-.64.25-.93.63-.5.89-1.21.89-2.02,0-.44,0-.89,0-1.33,0-.36-.15-.59-.49-.7-.81-.27-1.51-.72-2.1-1.33-.09-.1-.14-.09-.23,0-.58.62-1.28,1.06-2.08,1.32-.37.12-.51.34-.51.74,0,.44,0,.89,0,1.33,0,.92.39,1.66,1.12,2.21.12.09.17.17.11.31-.03.08-.06.16-.06.24-.01.32-.2.41-.48.45-.65.09-1.28.27-1.82.67-.09.07-.14.02-.2-.03-.88-.64-.94-2.03-.11-2.73.2-.17.42-.33.64-.49.09-.06.13-.13.12-.24,0-.67,0-1.34,0-2.01,0-1.66,1.1-3.01,2.72-3.36,1.77-.38,3.59.79,3.98,2.56.12.56.07,1.12.08,1.62,0,.44,0,.8,0,1.17,0,.13.04.21.14.28.2.14.4.29.59.45.84.69.82,2.07-.04,2.74-.11.09-.19.09-.31,0Z"/>
      <path class="cls-2" d="m7.95,14.7s.29.56.74.56c.41,0,.67-.5.67-.5,0,0-1.43-.08-1.42-.07Z"/>
    </g>
  </g>
</svg>