<?xml version="1.0" encoding="UTF-8"?>
<svg id="_レイヤー_2" data-name="レイヤー 2" xmlns="http://www.w3.org/2000/svg" viewBox="0 0 12.99 13.9">
  <defs>
    <style>
      .cls-1 {
        fill: #39385d;
        stroke-width: 0px;
      }
    </style>
  </defs>
  <g id="_修正内容" data-name="修正内容">
    <path class="cls-1" d="m10.38,11.5c-.39-.04-.66.19-.71.6-.04.35-.24.52-.58.52h0c-2.41,0-4.83,0-7.24,0h0c-.19,0-.33-.05-.43-.15s-.15-.25-.15-.45c0-3.39,0-6.78,0-10.17,0-.19.05-.34.15-.44.1-.1.24-.15.41-.15h7.27c.32,0,.52.17.56.5.03.24.13.42.28.52.13.09.29.13.47.1.36-.06.57-.4.51-.83C10.79.62,10.07,0,9.09,0c-1.14,0-2.27,0-3.41,0-1.27,0-2.53,0-3.8,0C.74,0,0,.75,0,1.9v6.5c0,1.22,0,2.44,0,3.67,0,1.04.73,1.81,1.73,1.82,2.29.02,4.74.02,7.46,0,.92,0,1.65-.69,1.74-1.62.04-.4-.2-.72-.55-.76Z"/>
    <path class="cls-1" d="m12.73,6.43c-.89-.92-1.79-1.83-2.69-2.75-.31-.31-.68-.34-.95-.07-.27.27-.25.64.05.96.16.17.33.34.49.51.19.19.38.38.56.58.07.07.12.16.16.24.02.03.04.06.06.1.03.04.03.09.01.14-.02.04-.06.08-.1.09-.04,0-.07.02-.11.03-.09.03-.19.06-.29.06-1.2,0-2.39,0-3.59,0h-2.2c-.46,0-.76.25-.77.63,0,.17.05.32.16.43.14.14.35.22.61.22.65,0,1.3,0,1.95,0h1.56c.22,0,.43,0,.65,0,.56,0,1.13,0,1.69,0,.09,0,.18.03.25.06.03.01.06.02.08.03.04.01.08.05.1.09s.01.09,0,.13c-.01.03-.03.05-.04.08-.03.07-.07.15-.14.22-.19.2-.38.4-.57.59-.18.18-.35.36-.53.54-.3.32-.32.69-.05.96.28.27.64.24.95-.07.9-.91,1.8-1.83,2.69-2.75.35-.36.35-.67,0-1.03Z"/>
  </g>
</svg>