<?xml version="1.0" encoding="UTF-8"?>
<svg id="_レイヤー_2" data-name="レイヤー 2" xmlns="http://www.w3.org/2000/svg" viewBox="0 0 17.6 18.8">
  <defs>
    <style>
      .cls-1 {
        fill: none;
        stroke: #39385d;
        stroke-miterlimit: 10;
      }

      .cls-2 {
        fill: #39385d;
        stroke-width: 0px;
      }
    </style>
  </defs>
  <g id="design">
    <g>
      <path class="cls-1" d="m14.57,14.24l2.33,2.69c.3.34.26.86-.08,1.16h0c-.34.3-.86.26-1.16-.08l-2.33-2.69"/>
      <g>
        <circle class="cls-1" cx="8.68" cy="8.68" r="8.18"/>
        <path class="cls-2" d="m13.88,12.57s-.1-.01-.14-.01h0s0,0,0,0c-.01-.01,0-.03-.02-.04,0,0-.02,0-.03,0-.02-.02-.04-.06-.06-.09.02,0,.04,0,.05,0,.68-.02,1.37-.12,1.41-.12.09-.01.18-.07.23-.15.05-.08.06-.18.03-.27-.17-.52-.23-1.27-.23-1.77,0-.26,0-1.07-.3-1.83-.4-1.02-1.18-1.56-2.24-1.56-.41,0-.66.11-.81.21-.08-.02-.17-.04-.26-.04-1.27,0-1.97,1.91-1.97,3.23,0,.12,0,.27-.01.42-.14-.04-.26-.08-.36-.11-.13-.04-.23-.06-.28-.09-.25-.12-.38-.58-.42-.87.43-.35.75-.86.92-1.53.3-.13.64-.47.64-1.16,0-.24-.05-.41-.11-.54.1-.37.11-.77.11-1.1,0-1.27-.54-2.79-3.12-2.79-.88,0-1.48.26-1.89.81-.59.28-1.23.98-1.23,2.13,0,.35,0,.62.11.95-.06.13-.11.29-.11.53,0,.69.34,1.02.64,1.16.16.65.47,1.15.88,1.5-.04.29-.17.77-.43.9-.05.03-.15.05-.28.09-.74.21-2.45.74-3.05,2.57.16.26.33.52.52.76.29-1.94,1.9-2.43,2.72-2.67.09-.03.17-.05.23-.07.02.03.01.06.04.09.47.48,1.14.75,1.82.75h0c.69,0,1.34-.27,1.82-.76.02-.02.02-.05.03-.08.07.02.14.05.24.07.14.04.3.09.48.15-.04.23-.08.45-.14.64-.03.09-.02.19.03.27.05.08.13.13.22.15.03,0,.75.11,1.45.12,0,0,0,0,0,.01-.02.04-.04.07-.06.09,0,0-.02,0-.02,0-.01,0,0,.02-.02.03-.02,0-.05,0-.07,0-.93.03-2.01.74-2.29,2.28-.08.5-.14,1.5-.18,2.17.09,0,.19.01.28.01,0,0,0,0,0,0,.12,0,.23-.01.35-.02.03-.65.09-1.6.17-2.06.21-1.2,1.05-1.75,1.73-1.75.05,0,.08-.03.13-.04.19.2.4.35.64.45.21.09.42.15.65.15h0s.03,0,.05,0c.45-.01.89-.23,1.23-.59.05.01.08.04.13.04.47,0,1,.26,1.36.8.08-.1.16-.21.23-.31.06-.07.11-.15.17-.22-.45-.56-1.05-.85-1.61-.89ZM5.35,3.77c.06-.03.12-.07.16-.13.2-.29.51-.59,1.38-.59,1.66,0,2.43.67,2.43,2.1,0,.19,0,.39-.03.58-.04-.08-.08-.19-.14-.37-.14-.45-.34-1.14-1.16-1.14-.36,0-.59.07-.78.12-.26.07-.4.07-.65,0-.19-.05-.43-.12-.78-.12-.82,0-1.02.69-1.16,1.14-.06.2-.11.32-.15.4-.01-.13-.01-.27-.01-.45,0-1.14.8-1.5.89-1.53Zm-.31,3.83c-.03-.14-.15-.25-.3-.27-.07-.01-.29-.08-.29-.54,0-.13.02-.2.03-.23.52-.1.68-.63.79-.99.15-.5.24-.65.5-.65s.42.05.6.1c.15.04.31.09.52.09s.36-.05.52-.09c.17-.05.33-.1.6-.1s.35.15.5.65c.11.36.27.89.79.99.02.05.03.12.03.23,0,.46-.22.53-.28.54-.15.01-.28.13-.31.28-.14.71-.45,1.21-.91,1.48-.07.04-.13.08-.19.12-.17.12-.29.2-.75.2s-.58-.08-.75-.2c-.06-.04-.12-.08-.19-.12-.46-.27-.77-.76-.91-1.48Zm1.84,3.57h0c-.49,0-.97-.19-1.31-.53.19-.23.3-.52.36-.77.22.13.48.22.98.22s.73-.08.94-.2c.06.24.17.51.35.74-.35.35-.81.54-1.31.54Zm3.13.54c.02-.07.02-.14.04-.21.05-.25.08-.5.1-.71,0-.05,0-.09,0-.13.08.08.17.15.26.19.01.03.03.06.04.09.12.34.32.62.57.84-.19,0-.37-.01-.54-.03-.17-.01-.34-.03-.47-.04Zm1.64-4.15s0,0,0,0c0,0,.02,0,.03,0,0,0,.02,0,.03,0,0,0,.01,0,.02,0,.07.02.14.02.21,0,.02,0,.03-.02.05-.04.03-.02.07-.03.1-.07,0,0,.11-.12.49-.12.81,0,1.35.38,1.65,1.15.11.29.17.58.2.84-.03-.01-.06-.03-.09-.03-.85-.15-1-.24-1.17-.35l-.08-.05c-.65-.37-1.17-.87-1.17-.88-.08-.07-.18-.1-.29-.08-.1.02-.19.09-.23.19-.27.64-.88,1.13-1.05,1.16-.04,0-.07.02-.11.03.19-.94.68-1.82,1.24-1.82.04,0,.1.01.15.03Zm-.67,2.96c-.03-.13-.15-.23-.28-.25-.07-.01-.16-.07-.16-.28,0-.04,0-.07,0-.08.4-.12.92-.6,1.25-1.14.23.2.58.46.98.69l.06.04c.25.15.46.26,1.26.41,0,.02,0,.05,0,.08,0,.21-.09.26-.15.27-.14.01-.25.11-.29.25-.19.84-.84,1.14-1.35,1.14s-1.15-.3-1.35-1.14Zm2.65,1.26c.27-.24.49-.55.61-.93.09-.04.18-.11.26-.19.02.3.06.68.14,1.05-.27.03-.65.06-1.01.07Zm-1.31,1.33h0s-.05,0-.08-.01c-.25-.02-.5-.14-.71-.34.1-.18.17-.38.17-.57.04.01.1.01.14.02.15.04.31.08.48.08.21,0,.42-.04.61-.1,0,.18.07.38.17.56-.23.22-.5.35-.78.35Z"/>
      </g>
    </g>
  </g>
</svg>