<?xml version="1.0" encoding="UTF-8"?>
<svg id="_レイヤー_2" data-name="レイヤー 2" xmlns="http://www.w3.org/2000/svg" viewBox="0 0 14.51 15.7">
  <defs>
    <style>
      .cls-1 {
        fill: #fff;
        stroke-width: 0px;
      }
    </style>
  </defs>
  <g id="design">
    <g>
      <path class="cls-1" d="m7.24,0c1.64,0,3.29,0,4.93,0,1.34,0,2.32.98,2.33,2.33.01,2.66.01,5.33,0,7.99,0,1.3-.99,2.29-2.29,2.32-.81.02-1.63-.02-2.44.02-.21.01-.49.18-.61.36-.45.7-.84,1.43-1.26,2.15-.41.71-.9.71-1.31.02-.42-.72-.84-1.43-1.24-2.16-.16-.29-.35-.4-.67-.39-.77.02-1.55.01-2.32,0C.97,12.62,0,11.64,0,10.23c0-2.61,0-5.21,0-7.82C0,.96.97,0,2.42,0c1.61,0,3.21,0,4.82,0Zm.01,13.86c.41-.7.78-1.31,1.12-1.93.18-.34.43-.49.82-.48.91.02,1.81,0,2.72,0,.97,0,1.39-.42,1.39-1.37,0-2.51,0-5.02,0-7.54,0-.89-.41-1.37-1.28-1.38-3.17-.02-6.35-.02-9.52,0-.85,0-1.27.48-1.28,1.32,0,2.55,0,5.1,0,7.65,0,.88.44,1.31,1.33,1.31.91,0,1.81.02,2.72,0,.43-.01.7.15.9.53.32.61.69,1.2,1.08,1.88Z"/>
      <path class="cls-1" d="m7.22,5.45c-1.08,0-2.15,0-3.23,0-.44,0-.82-.08-.82-.62,0-.55.41-.6.84-.59,2.17,0,4.34,0,6.52,0,.43,0,.83.06.82.61,0,.54-.41.61-.84.6-1.1,0-2.19,0-3.29,0Z"/>
      <path class="cls-1" d="m5.94,7.57c.66,0,1.32,0,1.98,0,.4,0,.73.1.73.58,0,.46-.29.61-.71.61-1.36,0-2.71,0-4.07,0-.41,0-.71-.15-.7-.61,0-.48.34-.58.73-.57.68,0,1.36,0,2.04,0Z"/>
    </g>
  </g>
</svg>