<?xml version="1.0" encoding="UTF-8"?>
<svg id="_レイヤー_2" data-name="レイヤー 2" xmlns="http://www.w3.org/2000/svg" viewBox="0 0 15.37 14.83">
  <defs>
    <style>
      .cls-1 {
        fill: #2E3A87;
        stroke-width: 0px;
      }
    </style>
  </defs>
  <g id="design">
    <g>
      <path class="cls-1" d="m4.77,10.13h-1.36C3.41,3.31,2.37,2.23,0,1.39L.45.11c3.39,1.2,4.32,3.35,4.32,10.02Z"/>
      <path class="cls-1" d="m10.76,10.13h-1.36v-.45c0-6.07-.04-7.39-1.48-8.17-1.75.86-3.15,2.31-3.15,8.62h-1.36C3.41,3.38,4.96,1.35,7.65.13l.28-.13.28.13c2.55,1.16,2.55,2.94,2.55,9.55v.45Z"/>
      <path class="cls-1" d="m6.42,14.83c-.22,0-.36-.01-.38-.02l.15-1.35s1.47.13,1.97-.66l.03-.04c.25-.34.51-.77.79-1.23.17-.27.34-.56.51-.83-.05-.19-.08-.38-.08-.57h.45c.73-1.04,1.59-1.92,2.76-2.03,1.26-.12,2.46.71,2.71,1.88.14.66-.04,1.36-.5,1.93-.52.65-1.33,1.05-2.12,1.05-.93,0-1.81-.39-2.43-.97-.05.08-.1.16-.15.25-.29.48-.56.92-.84,1.31-.73,1.14-2.18,1.28-2.87,1.28Zm4.62-4.02c.35.43.98.79,1.67.79.38,0,.79-.21,1.05-.54.12-.15.3-.44.23-.79-.11-.51-.68-.87-1.25-.82-.61.06-1.18.63-1.7,1.35Z"/>
    </g>
  </g>
</svg>
