<?xml version="1.0" encoding="UTF-8"?>
<svg id="_レイヤー_2" data-name="レイヤー 2" xmlns="http://www.w3.org/2000/svg" xmlns:xlink="http://www.w3.org/1999/xlink" viewBox="0 0 263 263">
  <defs>
    <style>
      .cls-1 {
        fill: #fdffff;
      }

      .cls-1, .cls-2, .cls-3, .cls-4, .cls-5, .cls-6, .cls-7, .cls-8 {
        stroke-width: 0px;
      }

      .cls-9 {
        opacity: .5;
      }

      .cls-10 {
        clip-path: url(#clippath-2);
      }

      .cls-11 {
        opacity: .05;
      }

      .cls-2, .cls-12, .cls-13, .cls-14, .cls-15 {
        fill: none;
      }

      .cls-16 {
        clip-path: url(#clippath-1);
      }

      .cls-17 {
        clip-path: url(#clippath-4);
      }

      .cls-18 {
        letter-spacing: -.02em;
      }

      .cls-18, .cls-19 {
        fill: #aaaab9;
        font-family: NotoSansJP-Medium, 'Noto Sans JP';
        font-size: 7.46px;
        font-weight: 500;
      }

      .cls-3 {
        fill: #eb6c6c;
      }

      .cls-4 {
        fill: #5e7edb;
      }

      .cls-5 {
        fill: #f0bb4a;
      }

      .cls-6 {
        fill: #39385d;
      }

      .cls-12 {
        stroke: #7e7dc9;
      }

      .cls-12, .cls-13, .cls-14, .cls-15 {
        stroke-miterlimit: 10;
      }

      .cls-20 {
        clip-path: url(#clippath);
      }

      .cls-21 {
        clip-path: url(#clippath-3);
      }

      .cls-13 {
        stroke: #9c9cad;
      }

      .cls-14 {
        stroke: #39385d;
        stroke-width: .5px;
      }

      .cls-15 {
        stroke: #e08baf;
      }

      .cls-7 {
        fill: #5ab086;
      }

      .cls-8 {
        fill: #9c9cad;
      }
    </style>
    <clipPath id="clippath">
      <path class="cls-2" d="m131.5,65.07c-36.69,0-66.43,29.74-66.43,66.43s29.74,66.43,66.43,66.43,66.43-29.74,66.43-66.43-29.74-66.43-66.43-66.43Zm0,77.95c-6.36,0-11.52-5.16-11.52-11.52s5.16-11.52,11.52-11.52,11.52,5.16,11.52,11.52-5.16,11.52-11.52,11.52Z"/>
    </clipPath>
    <clipPath id="clippath-1">
      <path class="cls-2" d="m131.5,14.23c-64.76,0-117.27,52.5-117.27,117.27s52.5,117.27,117.27,117.27,117.27-52.5,117.27-117.27S196.26,14.23,131.5,14.23Zm0,214.87c-53.91,0-97.61-43.7-97.61-97.61s43.7-97.61,97.61-97.61,97.61,43.7,97.61,97.61-43.7,97.61-97.61,97.61Z"/>
    </clipPath>
    <clipPath id="clippath-2">
      <path class="cls-2" d="m129.85,33.91c-53.9.91-96.85,45.35-95.94,99.25.91,53.9,45.35,96.85,99.25,95.94,53.9-.91,96.85-45.35,95.94-99.25-.91-53.9-45.35-96.85-99.25-95.94Zm1.85,109.12c-6.36.11-11.61-4.96-11.72-11.33s4.96-11.61,11.33-11.72,11.61,4.96,11.72,11.33c.11,6.36-4.96,11.61-11.33,11.72Z"/>
    </clipPath>
    <clipPath id="clippath-3">
      <path class="cls-2" d="m129.81,31.85c-55.03.93-98.89,46.3-97.96,101.34.93,55.03,46.3,98.89,101.34,97.96,55.03-.93,98.89-46.3,97.96-101.34-.93-55.03-46.3-98.89-101.34-97.96Zm3.34,197.25c-53.9.91-98.34-42.05-99.26-95.95-.91-53.9,42.05-98.34,95.95-99.26,53.9-.91,98.34,42.05,99.26,95.95s-42.05,98.34-95.95,99.26Z"/>
    </clipPath>
    <clipPath id="clippath-4">
      <path class="cls-2" d="m129.51,14.25C64.76,15.35,13.15,68.73,14.25,133.49c1.1,64.75,54.48,116.36,119.23,115.26,64.75-1.1,116.36-54.48,115.26-119.23-1.1-64.75-54.48-116.36-119.23-115.26Zm3.93,232.09c-63.43,1.07-115.71-49.47-116.79-112.9-1.07-63.43,49.47-115.71,112.9-116.79,63.43-1.07,115.71,49.47,116.79,112.9,1.07,63.43-49.47,115.71-112.9,116.79Z"/>
    </clipPath>
  </defs>
  <g id="design">
    <g>
      <g class="cls-11">
        <circle class="cls-6" cx="131.5" cy="131.5" r="131.5"/>
      </g>
      <g class="cls-9">
        <circle class="cls-1" cx="131.5" cy="131.5" r="66.43"/>
      </g>
      <g class="cls-20">
        <g>
          <polygon class="cls-15" points="170.14 77.95 90.15 182.34 76.6 94.22 170.14 77.95"/>
          <polygon class="cls-15" points="150.82 68.12 111.5 194.2 68.8 109.47 150.82 68.12"/>
          <polyline class="cls-15" points="89.81 80.32 171.15 183.35 74.9 165.05"/>
        </g>
        <g>
          <polyline class="cls-12" points="149.91 68.01 89.81 79.65 112.18 194.88 171.83 184.03"/>
          <polygon class="cls-12" points="76.93 94.56 74.22 165.05 131.16 197.59 76.93 94.56"/>
        </g>
      </g>
      <g class="cls-9">
        <path class="cls-1" d="m131.16,14.23c-64.58,0-116.93,52.35-116.93,116.93s52.35,116.93,116.93,116.93,116.93-52.35,116.93-116.93S195.74,14.23,131.16,14.23Zm0,213.52c-53.35,0-96.59-43.25-96.59-96.59s43.25-96.59,96.59-96.59,96.59,43.25,96.59,96.59-43.25,96.59-96.59,96.59Z"/>
      </g>
      <g>
        <g class="cls-9">
          <path class="cls-8" d="m131.5,15.23c31.06,0,60.25,12.09,82.21,34.05,21.96,21.96,34.05,51.16,34.05,82.21s-12.09,60.25-34.05,82.21c-21.96,21.96-51.16,34.05-82.21,34.05s-60.25-12.09-82.21-34.05c-21.96-21.96-34.05-51.16-34.05-82.21s12.09-60.25,34.05-82.21c21.96-21.96,51.16-34.05,82.21-34.05m0-1c-64.76,0-117.27,52.5-117.27,117.27s52.5,117.27,117.27,117.27,117.27-52.5,117.27-117.27S196.26,14.23,131.5,14.23h0Z"/>
        </g>
        <g class="cls-9">
          <path class="cls-8" d="m131.5,17.27c30.51,0,59.2,11.88,80.77,33.46,21.58,21.58,33.46,50.26,33.46,80.77s-11.88,59.2-33.46,80.77c-21.58,21.58-50.26,33.46-80.77,33.46s-59.2-11.88-80.77-33.46c-21.58-21.58-33.46-50.26-33.46-80.77s11.88-59.2,33.46-80.77c21.58-21.58,50.26-33.46,80.77-33.46m0-1c-63.64,0-115.23,51.59-115.23,115.23s51.59,115.23,115.23,115.23,115.23-51.59,115.23-115.23S195.14,16.27,131.5,16.27h0Z"/>
        </g>
        <g class="cls-9">
          <path class="cls-8" d="m131.5,32.86c54.39,0,98.64,44.25,98.64,98.64s-44.25,98.64-98.64,98.64-98.64-44.25-98.64-98.64,44.25-98.64,98.64-98.64m0-1c-55.03,0-99.64,44.61-99.64,99.64s44.61,99.64,99.64,99.64,99.64-44.61,99.64-99.64S186.53,31.86,131.5,31.86h0Z"/>
        </g>
        <g class="cls-9">
          <path class="cls-8" d="m131.5,34.89c53.27,0,96.61,43.34,96.61,96.61s-43.34,96.61-96.61,96.61-96.61-43.34-96.61-96.61,43.34-96.61,96.61-96.61m0-1c-53.91,0-97.61,43.7-97.61,97.61s43.7,97.61,97.61,97.61,97.61-43.7,97.61-97.61-43.7-97.61-97.61-97.61h0Z"/>
        </g>
        <g class="cls-9">
          <path class="cls-8" d="m131.5,66.07c36.08,0,65.43,29.35,65.43,65.43s-29.35,65.43-65.43,65.43-65.43-29.35-65.43-65.43,29.35-65.43,65.43-65.43m0-1c-36.69,0-66.43,29.74-66.43,66.43s29.74,66.43,66.43,66.43,66.43-29.74,66.43-66.43-29.74-66.43-66.43-66.43h0Z"/>
        </g>
        <g class="cls-9">
          <path class="cls-8" d="m131.5,120.98c5.8,0,10.52,4.72,10.52,10.52s-4.72,10.52-10.52,10.52-10.52-4.72-10.52-10.52,4.72-10.52,10.52-10.52m0-1c-6.36,0-11.52,5.16-11.52,11.52s5.16,11.52,11.52,11.52,11.52-5.16,11.52-11.52-5.16-11.52-11.52-11.52h0Z"/>
        </g>
        <g class="cls-9">
          <g class="cls-16">
            <g>
              <path class="cls-13" d="m131.5,131.5L74.08,25.36c19.52-10.56,38.58-15.1,60.76-14.49l-3.34,120.63Z"/>
              <path class="cls-13" d="m131.5,131.5L28.7,68.29c11.63-18.91,25.86-32.37,45.38-42.93l57.42,106.14Z"/>
              <path class="cls-13" d="m131.5,131.5l-120.63-3.34c.61-22.19,6.21-40.96,17.83-59.87l102.8,63.21Z"/>
              <path class="cls-13" d="m131.5,131.5l-106.14,57.42c-10.56-19.52-15.1-38.58-14.49-60.76l120.63,3.34Z"/>
              <path class="cls-13" d="m131.5,131.5l-63.21,102.8c-18.91-11.63-32.37-25.86-42.93-45.38l106.14-57.42Z"/>
              <line class="cls-13" x1="68.29" y1="234.3" x2="131.5" y2="131.5"/>
              <line class="cls-13" x1="128.16" y1="252.13" x2="131.5" y2="131.5"/>
              <line class="cls-13" x1="188.92" y1="237.64" x2="131.5" y2="131.5"/>
              <line class="cls-13" x1="131.5" y1="131.5" x2="237.64" y2="74.08"/>
              <path class="cls-13" d="m131.5,131.5l63.21-102.8c18.91,11.63,32.37,25.86,42.93,45.38l-106.14,57.42Z"/>
              <line class="cls-13" x1="234.3" y1="194.71" x2="131.5" y2="131.5"/>
              <line class="cls-13" x1="131.5" y1="131.5" x2="252.13" y2="134.84"/>
              <path class="cls-13" d="m131.5,131.5l3.34-120.63c22.19.61,40.96,6.21,59.87,17.83l-63.21,102.8Z"/>
            </g>
          </g>
        </g>
        <g class="cls-9">
          <g class="cls-10">
            <g>
              <line class="cls-13" x1="24.31" y1="76.06" x2="131.5" y2="131.5"/>
              <line class="cls-13" x1="10.83" y1="130.2" x2="131.5" y2="131.5"/>
              <line class="cls-13" x1="23.91" y1="186.16" x2="131.5" y2="131.5"/>
              <line class="cls-13" x1="66.71" y1="233.31" x2="131.5" y2="131.5"/>
              <line class="cls-13" x1="131.16" y1="252.15" x2="131.17" y2="131.5"/>
              <line class="cls-13" x1="197.49" y1="232.53" x2="131.5" y2="131.5"/>
              <line class="cls-13" x1="131.5" y1="131.5" x2="238.66" y2="76"/>
              <line class="cls-13" x1="131.16" y1="131.5" x2="131.08" y2="10.85"/>
              <line class="cls-13" x1="131.5" y1="131.5" x2="196.4" y2="29.76"/>
              <line class="cls-13" x1="239.4" y1="185.55" x2="131.5" y2="131.5"/>
              <line class="cls-13" x1="131.5" y1="131.5" x2="252.18" y2="131.06"/>
              <line class="cls-13" x1="131.5" y1="131.5" x2="67.06" y2="29.47"/>
            </g>
          </g>
        </g>
        <g class="cls-9">
          <g class="cls-21">
            <g>
              <line class="cls-13" x1="131.5" y1="131.49" x2="114.1" y2="12.07"/>
              <line class="cls-13" x1="131.5" y1="131.49" x2="93.57" y2="16.93"/>
            </g>
            <g>
              <line class="cls-13" x1="131.5" y1="131.49" x2="57.14" y2="36.44"/>
              <line class="cls-13" x1="131.49" y1="131.49" x2="41.72" y2="50.84"/>
            </g>
            <g>
              <line class="cls-13" x1="131.49" y1="131.5" x2="19.78" y2="85.86"/>
              <line class="cls-13" x1="131.49" y1="131.5" x2="13.54" y2="106.02"/>
            </g>
            <g>
              <line class="cls-13" x1="131.49" y1="131.5" x2="11.85" y2="147.31"/>
              <line class="cls-13" x1="131.49" y1="131.5" x2="16.44" y2="167.9"/>
            </g>
            <g>
              <line class="cls-13" x1="131.49" y1="131.5" x2="37.1" y2="206.69"/>
              <line class="cls-13" x1="131.49" y1="131.51" x2="51.63" y2="221.98"/>
            </g>
            <g>
              <line class="cls-13" x1="131.5" y1="131.51" x2="87.49" y2="243.87"/>
              <line class="cls-13" x1="131.5" y1="131.51" x2="107.73" y2="249.82"/>
            </g>
            <g>
              <line class="cls-13" x1="131.5" y1="131.51" x2="150.16" y2="250.73"/>
              <line class="cls-13" x1="131.5" y1="131.51" x2="170.64" y2="245.66"/>
            </g>
            <g>
              <line class="cls-13" x1="131.5" y1="131.51" x2="207.35" y2="225.37"/>
              <line class="cls-13" x1="131.51" y1="131.51" x2="222.54" y2="210.73"/>
            </g>
            <g>
              <line class="cls-13" x1="131.51" y1="131.5" x2="244.15" y2="174.79"/>
              <line class="cls-13" x1="131.51" y1="131.5" x2="249.97" y2="154.51"/>
            </g>
            <g>
              <line class="cls-13" x1="131.51" y1="131.5" x2="250.74" y2="112.88"/>
              <line class="cls-13" x1="131.51" y1="131.5" x2="245.68" y2="92.4"/>
            </g>
            <g>
              <line class="cls-13" x1="131.51" y1="131.5" x2="225.75" y2="56.12"/>
              <line class="cls-13" x1="131.51" y1="131.49" x2="211.19" y2="40.86"/>
            </g>
            <g>
              <line class="cls-13" x1="131.5" y1="131.49" x2="175.88" y2="19.27"/>
              <line class="cls-13" x1="131.5" y1="131.49" x2="155.65" y2="13.26"/>
            </g>
          </g>
        </g>
        <g class="cls-9">
          <g class="cls-17">
            <g>
              <line class="cls-13" x1="131.5" y1="131.49" x2="114.1" y2="12.07"/>
              <line class="cls-13" x1="131.5" y1="131.49" x2="93.57" y2="16.93"/>
            </g>
            <g>
              <line class="cls-13" x1="131.5" y1="131.49" x2="57.14" y2="36.44"/>
              <line class="cls-13" x1="131.49" y1="131.49" x2="41.72" y2="50.84"/>
            </g>
            <g>
              <line class="cls-13" x1="131.49" y1="131.5" x2="19.78" y2="85.86"/>
              <line class="cls-13" x1="131.49" y1="131.5" x2="13.54" y2="106.02"/>
            </g>
            <g>
              <line class="cls-13" x1="131.49" y1="131.5" x2="11.85" y2="147.31"/>
              <line class="cls-13" x1="131.49" y1="131.5" x2="16.44" y2="167.9"/>
            </g>
            <g>
              <line class="cls-13" x1="131.49" y1="131.5" x2="37.1" y2="206.69"/>
              <line class="cls-13" x1="131.49" y1="131.51" x2="51.63" y2="221.98"/>
            </g>
            <g>
              <line class="cls-13" x1="131.5" y1="131.51" x2="87.49" y2="243.87"/>
              <line class="cls-13" x1="131.5" y1="131.51" x2="107.73" y2="249.82"/>
            </g>
            <g>
              <line class="cls-13" x1="131.5" y1="131.51" x2="150.16" y2="250.73"/>
              <line class="cls-13" x1="131.5" y1="131.51" x2="170.64" y2="245.66"/>
            </g>
            <g>
              <line class="cls-13" x1="131.5" y1="131.51" x2="207.35" y2="225.37"/>
              <line class="cls-13" x1="131.51" y1="131.51" x2="222.54" y2="210.73"/>
            </g>
            <g>
              <line class="cls-13" x1="131.51" y1="131.5" x2="244.15" y2="174.79"/>
              <line class="cls-13" x1="131.51" y1="131.5" x2="249.97" y2="154.51"/>
            </g>
            <g>
              <line class="cls-13" x1="131.51" y1="131.5" x2="250.74" y2="112.88"/>
              <line class="cls-13" x1="131.51" y1="131.5" x2="245.68" y2="92.4"/>
            </g>
            <g>
              <line class="cls-13" x1="131.51" y1="131.5" x2="225.75" y2="56.12"/>
              <line class="cls-13" x1="131.51" y1="131.49" x2="211.19" y2="40.86"/>
            </g>
            <g>
              <line class="cls-13" x1="131.5" y1="131.49" x2="175.88" y2="19.27"/>
              <line class="cls-13" x1="131.5" y1="131.49" x2="155.65" y2="13.26"/>
            </g>
          </g>
        </g>
      </g>
      <g>
        <text class="cls-19" transform="translate(109.77 138.89)"><tspan x="0" y="0">1</tspan></text>
        <text class="cls-19" transform="translate(114.18 147.71)"><tspan x="0" y="0">2</tspan></text>
        <text class="cls-19" transform="translate(124 152.79)"><tspan x="0" y="0">3</tspan></text>
        <text class="cls-19" transform="translate(135.06 152.76)"><tspan x="0" y="0">4</tspan></text>
        <text class="cls-19" transform="translate(144.63 147.71)"><tspan x="0" y="0">5</tspan></text>
        <text class="cls-19" transform="translate(148.88 138.89)"><tspan x="0" y="0">6</tspan></text>
        <text class="cls-19" transform="translate(148.75 129.43)"><tspan x="0" y="0">7</tspan></text>
        <text class="cls-19" transform="translate(144.32 120.17)"><tspan x="0" y="0">8</tspan></text>
        <text class="cls-19" transform="translate(135.12 114.54)"><tspan x="0" y="0">9</tspan></text>
        <text class="cls-18" transform="translate(121.73 114.54)"><tspan x="0" y="0">10</tspan></text>
        <text class="cls-18" transform="translate(112.26 120.17)"><tspan x="0" y="0">11</tspan></text>
        <text class="cls-18" transform="translate(107.38 129.43)"><tspan x="0" y="0">12</tspan></text>
      </g>
      <g>
        <g>
          <path class="cls-7" d="m209.06,62.37c-1.84,0-3.33-1.5-3.33-3.33s1.5-3.33,3.33-3.33,3.33,1.5,3.33,3.33-1.5,3.33-3.33,3.33Zm0-5.74c-1.32,0-2.4,1.08-2.4,2.4s1.08,2.4,2.4,2.4,2.4-1.08,2.4-2.4-1.08-2.4-2.4-2.4Z"/>
          <path class="cls-7" d="m209.06,56.64c-1.11,0-1.98-.52-2.6-1.54-.41-.68-.97-.95-1.96-.95v-.93c.82,0,1.99.15,2.75,1.4.45.75,1.02,1.09,1.8,1.09s1.35-.35,1.8-1.09c.76-1.26,1.93-1.4,2.75-1.4v.93c-.98,0-1.55.28-1.95.95-.62,1.02-1.49,1.54-2.6,1.54Z"/>
        </g>
        <g>
          <path class="cls-7" d="m27.86,102.56h-.93v-6.41c0-.8-.91-1.42-.92-1.43l.51-.78c.05.04,1.34.9,1.34,2.21v6.41Z"/>
          <path class="cls-7" d="m30.12,102.56h-.93v-6.41c0-.52-.25-.96-.45-1.22-.38.27-.88.72-.88,1.22v6.41h-.93v-6.41c0-1.34,1.61-2.2,1.68-2.23l.29-.15.24.22s.98.9.98,2.16v6.41Z"/>
          <path class="cls-7" d="m30.71,103.66l-.13-.92s2.19-.33,2.47-1.98c.13-.76,0-1.28-.15-1.59-.24.26-.52.66-.52,1.12h-.93c0-1.31,1.23-2.17,1.28-2.2l.31-.21.27.26s.97.94.66,2.79c-.39,2.34-3.15,2.74-3.26,2.76Z"/>
          <path class="cls-7" d="m32.91,104.33c-.98-.72-1.46-1.65-1.46-2.85v-5.34c0-.52-.25-.96-.45-1.22-.38.27-.88.72-.88,1.22v6.41h-.93v-6.41c0-1.34,1.61-2.2,1.68-2.23l.29-.15.24.22s.98.9.98,2.16v5.34c0,.9.33,1.55,1.08,2.09l-.55.75Z"/>
        </g>
        <g>
          <path class="cls-7" d="m155.92,237.89h-.93c0-4.66-.71-5.4-2.33-5.98l.31-.88c2.32.82,2.96,2.29,2.96,6.85Z"/>
          <path class="cls-7" d="m160.01,237.89h-.93v-.31c0-4.15-.03-5.05-1.01-5.59-1.2.59-2.15,1.58-2.15,5.9h-.93c0-4.62,1.06-6,2.9-6.84l.19-.09.19.09c1.75.8,1.75,2.01,1.74,6.53v.31Z"/>
          <path class="cls-7" d="m157.04,241.11c-.15,0-.25,0-.26-.01l.1-.93s1.01.09,1.35-.45l.02-.03c.17-.23.35-.53.54-.84.11-.19.23-.38.35-.57-.03-.13-.05-.26-.05-.39h.31c.5-.71,1.09-1.31,1.89-1.39.86-.08,1.68.48,1.86,1.29.1.45-.03.93-.34,1.32-.35.44-.91.72-1.45.72-.64,0-1.24-.26-1.66-.67-.03.06-.07.11-.1.17-.2.33-.38.63-.57.9-.5.78-1.49.88-1.96.88Zm3.16-2.75c.24.3.67.54,1.14.54.26,0,.54-.14.72-.37.08-.1.21-.3.16-.54-.08-.35-.46-.6-.86-.56-.42.04-.8.43-1.16.92Z"/>
        </g>
      </g>
      <g>
        <g>
          <path class="cls-4" d="m104.6,27.73c-1.12,0-2.04-.91-2.04-2.04s.91-2.04,2.04-2.04,2.04.91,2.04,2.04-.91,2.04-2.04,2.04Zm0-3.14c-.61,0-1.1.49-1.1,1.1s.49,1.1,1.1,1.1,1.1-.49,1.1-1.1-.49-1.1-1.1-1.1Z"/>
          <path class="cls-4" d="m110.89,25.28c-.77-1-2.31-1.22-3.16-1.26-1.76-.09-3.45.41-3.93.92l-.68-.64c.74-.79,2.74-1.31,4.66-1.21,1.75.09,3.12.66,3.86,1.63l-.74.57Z"/>
          <g>
            <path class="cls-4" d="m109.69,30.46c-1.12,0-2.04-.91-2.04-2.04s.91-2.04,2.04-2.04,2.04.91,2.04,2.04-.91,2.04-2.04,2.04Zm0-3.14c-.61,0-1.1.49-1.1,1.1s.49,1.1,1.1,1.1,1.1-.49,1.1-1.1-.49-1.1-1.1-1.1Z"/>
            <path class="cls-4" d="m106.97,31.04c-.15,0-.3,0-.45-.01-1.75-.09-3.12-.66-3.86-1.63l.74-.57c.77,1,2.31,1.22,3.16,1.26,1.76.09,3.45-.41,3.93-.92l.68.64c-.68.73-2.43,1.23-4.21,1.23Z"/>
          </g>
        </g>
        <g>
          <g>
            <path class="cls-4" d="m51.9,209.38h-.93v-6.41c0-.81-.91-1.42-.92-1.43l.51-.78c.05.04,1.34.9,1.34,2.21v6.41Z"/>
            <path class="cls-4" d="m54.16,209.38h-.93v-6.41c0-.52-.25-.96-.45-1.22-.38.27-.88.72-.88,1.22v6.41h-.93v-6.41c0-1.34,1.61-2.2,1.68-2.23l.29-.15.24.22s.98.9.98,2.16v6.41Z"/>
            <path class="cls-4" d="m57.9,210.62c-.71,0-1.28-.17-1.69-.52-.48-.4-.72-1.01-.72-1.79v-5.34c0-.52-.25-.96-.45-1.22-.38.27-.88.72-.88,1.22v6.41h-.93v-6.41c0-1.34,1.61-2.2,1.68-2.23l.29-.15.24.22s.98.9.98,2.16v5.34c0,.5.13.86.39,1.08.35.3.99.37,1.85.23l.15.92c-.33.06-.64.08-.92.08Z"/>
          </g>
          <polygon class="cls-4" points="57.82 211.66 57.16 211 58.08 210.07 57.16 209.15 57.82 208.49 59.4 210.07 57.82 211.66"/>
        </g>
        <g>
          <path class="cls-4" d="m230.71,164.66v-.93c1.49,0,2.7-1.64,2.7-3.65s-1.21-3.65-2.7-3.65v-.93c2,0,3.63,2.06,3.63,4.58s-1.63,4.58-3.63,4.58Z"/>
          <path class="cls-4" d="m238.94,164.66c-2,0-3.63-2.06-3.63-4.58s1.63-4.58,3.63-4.58v.93c-1.49,0-2.7,1.64-2.7,3.65s1.21,3.65,2.7,3.65v.93Z"/>
          <rect class="cls-4" x="231.55" y="159.61" width="6.56" height=".93"/>
        </g>
      </g>
      <g>
        <g>
          <rect class="cls-5" x="159.7" y="25.33" width=".93" height="6.99"/>
          <rect class="cls-5" x="163.3" y="25.33" width=".93" height="6.99"/>
          <path class="cls-5" d="m161.96,26.1c-1.66,0-3.22-.23-4.28-.64l.33-.87c.96.37,2.4.58,3.95.58s2.99-.21,3.95-.58l.33.87c-1.06.41-2.62.64-4.28.64Z"/>
          <path class="cls-5" d="m165.91,33.07c-.96-.37-2.4-.58-3.95-.58s-2.99.21-3.95.58l-.33-.87c1.06-.41,2.62-.64,4.28-.64s3.22.23,4.28.64l-.33.87Z"/>
        </g>
        <g>
          <polygon class="cls-5" points="207.35 208.76 206.44 207.14 204.1 208.76 203.2 207.14 200.89 208.73 200.36 207.97 203.51 205.79 204.41 207.41 206.76 205.79 207.66 207.41 210.01 205.79 211.38 208.27 210.57 208.72 209.69 207.14 207.35 208.76"/>
          <polygon class="cls-5" points="207.35 211.98 206.44 210.35 204.1 211.98 203.2 210.35 200.89 211.95 200.36 211.18 203.51 209 204.41 210.62 206.76 209 207.66 210.62 210.01 209 211.38 211.48 210.57 211.93 209.69 210.35 207.35 211.98"/>
        </g>
        <g>
          <path class="cls-5" d="m31.91,157.2h-4.01l1.25-.85c.66-.45,1.05-1.19,1.05-1.99,0-1.32-1.08-2.4-2.4-2.4s-2.4,1.08-2.4,2.4c0,.79.39,1.54,1.05,1.99l1.25.85h-4.01v-.93h1.38c-.38-.55-.6-1.21-.6-1.9,0-1.84,1.5-3.33,3.33-3.33s3.33,1.5,3.33,3.33c0,.69-.21,1.35-.6,1.9h1.38v.93Z"/>
          <rect class="cls-5" x="23.68" y="157.98" width="8.23" height=".93"/>
        </g>
      </g>
      <g>
        <path class="cls-3" d="m235.72,109.99h-.93c0-4.5-.94-6.45-1.5-7.21-.42-.57-1.07-.71-1.61-.36-.53.35-.68,1.06-.34,1.59l-.78.51c-.63-.96-.35-2.26.61-2.88.95-.62,2.16-.37,2.87.59.42.57.88,1.48,1.21,2.93.33-1.45.79-2.36,1.21-2.93.71-.96,1.91-1.21,2.87-.59.96.63,1.24,1.92.61,2.88l-.78-.51c.35-.53.2-1.25-.34-1.59-.54-.35-1.19-.21-1.61.36-.56.76-1.5,2.71-1.5,7.21Z"/>
        <g>
          <path class="cls-3" d="m57.11,54.98c-1.02,0-1.84-.83-1.84-1.84s.83-1.84,1.84-1.84,1.84.83,1.84,1.84-.83,1.84-1.84,1.84Zm0-2.75c-.5,0-.91.41-.91.91s.41.91.91.91.91-.41.91-.91-.41-.91-.91-.91Z"/>
          <path class="cls-3" d="m61.26,56.5c-.88,0-1.6-.72-1.6-1.6,0-.05,0-.1,0-.14.01-.13.04-.26.08-.38.08-.3,1.01-4.03,1.09-4.34l.02-.11c.02-.1.03-.19.03-.28,0-.76-.61-1.37-1.37-1.37s-1.37.61-1.37,1.37c0,.11.01.22.04.33h-.02c.09.25.19.65.37,1.33l.35,1.34-.9.23s-.42-1.6-.61-2.32c0,0-.09-.35-.09-.35-.04-.18-.07-.37-.07-.55,0-1.27,1.03-2.3,2.3-2.3s2.3,1.03,2.3,2.3c0,.15-.01.3-.04.44l-.03.16-.55,2.19c-.35,1.38-.49,1.97-.59,2.23h.02c-.02.06-.03.12-.04.18,0,.02,0,.04,0,.06,0,.37.3.67.67.67s.67-.3.67-.67h.93c0,.88-.72,1.6-1.6,1.6Z"/>
        </g>
        <g>
          <rect class="cls-3" x="96.71" y="234.14" width="9.29" height=".93" transform="translate(-153.5 215.66) rotate(-62.38)"/>
          <polygon class="cls-3" points="103.86 233.19 103.2 231.07 101.08 231.73 100.8 230.85 103.81 229.9 104.75 232.91 103.86 233.19"/>
          <rect class="cls-3" x="100.2" y="233.81" width=".93" height="4.19" transform="translate(-155.02 215.75) rotate(-62.38)"/>
        </g>
      </g>
      <g>
        <g>
          <path class="cls-6" d="m51.85,107.09c-1.96,0-3.55-1.59-3.55-3.55s1.59-3.55,3.55-3.55,3.55,1.59,3.55,3.55-1.59,3.55-3.55,3.55Zm0-6.3c-1.51,0-2.74,1.23-2.74,2.74s1.23,2.74,2.74,2.74,2.74-1.23,2.74-2.74-1.23-2.74-2.74-2.74Z"/>
          <circle class="cls-6" cx="51.85" cy="103.54" r=".77"/>
        </g>
        <g>
          <path class="cls-6" d="m176.32,64.13l.51-.5c.78-.77,1.21-1.8,1.21-2.89s-.43-2.12-1.21-2.89l-.51-.5h.71c1.85.02,3.35,1.54,3.35,3.39s-1.5,3.37-3.35,3.38h-.71Zm1.42-6.1c.57.78.87,1.72.87,2.71s-.31,1.92-.87,2.71c1.19-.33,2.07-1.42,2.07-2.71s-.88-2.38-2.07-2.71Z"/>
          <path class="cls-6" d="m176.32,64.2s-.06-.02-.07-.04c-.01-.03,0-.06.02-.08l.51-.5c.77-.76,1.19-1.76,1.19-2.84s-.42-2.08-1.19-2.84l-.51-.5s-.03-.05-.02-.08c.01-.03.04-.04.07-.04h.71c1.89.02,3.43,1.57,3.43,3.46s-1.54,3.44-3.43,3.46h-.71s0,0,0,0Zm.18-6.78l.38.37c.79.78,1.23,1.83,1.23,2.94s-.44,2.16-1.23,2.94l-.38.37h.53c1.81-.02,3.28-1.51,3.28-3.31s-1.47-3.29-3.28-3.31h-.53Zm1.24,6.09s-.05-.01-.06-.03c-.02-.03-.02-.06,0-.08.56-.78.86-1.7.86-2.66s-.3-1.89-.86-2.66c-.02-.03-.02-.06,0-.08.02-.03.05-.04.08-.03,1.25.34,2.12,1.48,2.12,2.78s-.87,2.43-2.12,2.78c0,0-.01,0-.02,0Zm.18-5.35c.5.76.76,1.65.76,2.57s-.26,1.81-.76,2.57c1.08-.39,1.82-1.42,1.82-2.57s-.74-2.19-1.82-2.57Z"/>
        </g>
        <g>
          <g>
            <path class="cls-6" d="m75.36,68.13c-1.25,0-2.27-1.02-2.27-2.27s1.02-2.27,2.27-2.27,2.27,1.02,2.27,2.27-1.02,2.27-2.27,2.27Zm0-4.03c-.97,0-1.75.79-1.75,1.75s.79,1.75,1.75,1.75,1.75-.79,1.75-1.75-.79-1.75-1.75-1.75Z"/>
            <path class="cls-6" d="m75.36,68.2c-1.29,0-2.35-1.05-2.35-2.35s1.05-2.35,2.35-2.35,2.35,1.05,2.35,2.35-1.05,2.35-2.35,2.35Zm0-4.55c-1.21,0-2.2.99-2.2,2.2s.99,2.2,2.2,2.2,2.2-.99,2.2-2.2-.99-2.2-2.2-2.2Zm0,4.03c-1.01,0-1.83-.82-1.83-1.83s.82-1.83,1.83-1.83,1.83.82,1.83,1.83-.82,1.83-1.83,1.83Zm0-3.51c-.93,0-1.68.75-1.68,1.68s.75,1.68,1.68,1.68,1.68-.75,1.68-1.68-.75-1.68-1.68-1.68Z"/>
          </g>
          <g>
            <rect class="cls-6" x="75.1" y="67.87" width=".52" height="3.09"/>
            <path class="cls-6" d="m75.62,71.03h-.52s-.07-.03-.07-.07v-3.09s.03-.07.07-.07h.52s.07.03.07.07v3.09s-.03.07-.07.07Zm-.45-.15h.37v-2.94h-.37v2.94Z"/>
          </g>
          <g>
            <rect class="cls-6" x="73.81" y="68.74" width="3.09" height=".52"/>
            <path class="cls-6" d="m76.9,69.34h-3.09s-.07-.03-.07-.07v-.52s.03-.07.07-.07h3.09s.07.03.07.07v.52s-.03.07-.07.07Zm-3.02-.15h2.94v-.37h-2.94v.37Z"/>
          </g>
        </g>
        <g>
          <g>
            <path class="cls-6" d="m60.11,84.54c-1.25,0-2.27-1.02-2.27-2.27s1.02-2.27,2.27-2.27,2.27,1.02,2.27,2.27-1.02,2.27-2.27,2.27Zm0-4.03c-.97,0-1.75.79-1.75,1.75s.79,1.75,1.75,1.75,1.75-.79,1.75-1.75-.79-1.75-1.75-1.75Z"/>
            <path class="cls-6" d="m60.11,84.61c-1.29,0-2.35-1.05-2.35-2.35s1.05-2.35,2.35-2.35,2.35,1.05,2.35,2.35-1.05,2.35-2.35,2.35Zm0-4.55c-1.21,0-2.2.99-2.2,2.2s.99,2.2,2.2,2.2,2.2-.99,2.2-2.2-.99-2.2-2.2-2.2Zm0,4.03c-1.01,0-1.83-.82-1.83-1.83s.82-1.83,1.83-1.83,1.83.82,1.83,1.83-.82,1.83-1.83,1.83Zm0-3.51c-.93,0-1.68.75-1.68,1.68s.75,1.68,1.68,1.68,1.68-.75,1.68-1.68-.75-1.68-1.68-1.68Z"/>
          </g>
          <g>
            <path class="cls-6" d="m58.31,81.46c-.38-.13-.69-.41-.87-.77-.18-.37-.2-.78-.07-1.16l.49.17c-.18.52.1,1.1.62,1.28l-.17.49Z"/>
            <path class="cls-6" d="m58.31,81.54s-.02,0-.02,0c-.4-.14-.73-.43-.91-.81-.19-.38-.21-.82-.07-1.22.01-.04.05-.06.09-.04l.49.17s.03.02.04.04c0,.02,0,.04,0,.06-.08.23-.07.49.04.71s.3.39.53.47c.02,0,.03.02.04.04,0,.02,0,.04,0,.06l-.17.49s-.04.05-.07.05Zm-.9-1.92c-.1.35-.07.71.09,1.04.16.33.43.58.76.71l.12-.35c-.24-.1-.43-.28-.55-.52-.12-.24-.14-.5-.07-.75l-.35-.12Z"/>
          </g>
          <g>
            <path class="cls-6" d="m61.91,81.46l-.17-.49c.52-.18.8-.75.62-1.28l.49-.17c.13.38.11.8-.07,1.16-.18.37-.49.64-.87.77Z"/>
            <path class="cls-6" d="m61.91,81.54s-.06-.02-.07-.05l-.17-.49s0-.04,0-.06c0-.02.02-.03.04-.04.23-.08.42-.25.53-.47s.12-.48.04-.71c-.01-.04,0-.08.04-.09l.49-.17s.04,0,.06,0c.02,0,.03.02.04.04.14.4.11.84-.07,1.22-.19.38-.51.67-.91.81,0,0-.02,0-.02,0Zm-.08-.52l.12.35c.33-.13.6-.38.76-.71.16-.33.19-.69.09-1.04l-.35.12c.07.25.04.52-.07.75-.12.24-.31.42-.55.52Z"/>
          </g>
          <g>
            <rect class="cls-6" x="59.85" y="84.28" width=".52" height="3.09"/>
            <path class="cls-6" d="m60.37,87.44h-.52s-.07-.03-.07-.07v-3.09s.03-.07.07-.07h.52s.07.03.07.07v3.09s-.03.07-.07.07Zm-.45-.15h.37v-2.94h-.37v2.94Z"/>
          </g>
          <g>
            <rect class="cls-6" x="58.56" y="85.16" width="3.09" height=".52"/>
            <path class="cls-6" d="m61.65,85.75h-3.09s-.07-.03-.07-.07v-.52s.03-.07.07-.07h3.09s.07.03.07.07v.52s-.03.07-.07.07Zm-3.02-.15h2.94v-.37h-2.94v.37Z"/>
          </g>
        </g>
        <g>
          <g>
            <g>
              <path class="cls-6" d="m65.3,80.84c-.58,0-1.16-.22-1.61-.66-.89-.89-.89-2.33,0-3.21.89-.89,2.33-.89,3.21,0,.89.89.89,2.33,0,3.21-.44.44-1.03.66-1.61.66Zm-1.24-3.51c-.68.68-.68,1.8,0,2.48.68.68,1.8.68,2.48,0,.68-.68.68-1.8,0-2.48s-1.8-.68-2.48,0h0Z"/>
              <path class="cls-6" d="m65.3,80.92c-.63,0-1.22-.24-1.66-.69-.91-.92-.91-2.4,0-3.32.91-.91,2.4-.91,3.32,0,.91.92.91,2.4,0,3.32-.44.44-1.03.69-1.66.69Zm0-4.54c-.56,0-1.13.21-1.56.64-.86.86-.86,2.25,0,3.11.41.42.97.64,1.56.64s1.14-.23,1.56-.64c.86-.86.86-2.25,0-3.11-.43-.43-.99-.64-1.56-.64Zm0,4.03c-.47,0-.94-.18-1.29-.53-.34-.34-.53-.8-.53-1.29s.19-.95.53-1.29h0c.34-.34.8-.53,1.29-.53h0c.49,0,.95.19,1.29.53.71.71.71,1.87,0,2.58-.36.36-.82.53-1.29.53Zm0-3.51c-.45,0-.87.17-1.19.49h0c-.32.32-.49.74-.49,1.19s.17.87.49,1.19c.66.66,1.72.66,2.38,0,.66-.66.66-1.72,0-2.38-.32-.32-.74-.49-1.19-.49h0Zm-1.24.44h0,0Z"/>
            </g>
            <g>
              <rect class="cls-6" x="66.27" y="75.79" width="3.09" height=".52" transform="translate(-33.91 70.2) rotate(-44.98)"/>
              <path class="cls-6" d="m66.91,77.4h0s-.04,0-.05-.02l-.37-.37s-.03-.07,0-.1l2.18-2.18s.03-.02.05-.02h0s.04,0,.05.02l.37.37s.03.07,0,.1l-2.18,2.18s-.03.02-.05.02Zm-.26-.44l.26.27,2.08-2.08-.26-.27-2.08,2.08Z"/>
            </g>
          </g>
          <g>
            <polygon class="cls-6" points="68.55 77.48 67.77 76.1 66.39 75.32 69.24 74.63 68.55 77.48"/>
            <path class="cls-6" d="m68.55,77.55s-.05-.01-.06-.04l-.77-1.36-1.36-.77s-.04-.04-.04-.07c0-.03.03-.05.05-.06l2.85-.69s.05,0,.07.02.03.04.02.07l-.69,2.85s-.03.05-.06.05c0,0,0,0-.01,0Zm-1.96-2.2l1.22.69s.02.02.03.03l.69,1.22.62-2.56-2.56.62Z"/>
          </g>
        </g>
        <g>
          <g>
            <path class="cls-6" d="m183.83,200.66h-5.45l2.6-3.44c.14-.18.19-.4.16-.63-.03-.22-.15-.42-.33-.56-.18-.14-.4-.19-.63-.16-.22.03-.42.15-.56.33l-.41-.31c.22-.29.54-.48.9-.53.36-.05.72.04,1.01.26.29.22.48.54.53.9.05.36-.04.72-.26,1.01l-1.97,2.6h4.41v.52Z"/>
            <path class="cls-6" d="m183.83,200.73h-5.45s-.05-.02-.06-.04c-.01-.02,0-.05,0-.08l2.6-3.44c.12-.16.18-.37.15-.57-.03-.2-.13-.38-.3-.51-.16-.12-.37-.18-.57-.15-.2.03-.39.13-.51.3-.01.02-.03.03-.05.03-.02,0-.04,0-.05-.01l-.41-.31s-.04-.07-.01-.1c.23-.31.57-.5.95-.56.38-.05.76.05,1.06.28.31.23.5.57.56.95.05.38-.05.76-.28,1.06l-1.88,2.49h4.26s.07.03.07.07v.52s-.03.07-.07.07Zm-5.31-.15h5.24v-.37h-4.34s-.05-.02-.06-.04c-.01-.02,0-.05,0-.08l1.97-2.6c.21-.27.3-.61.25-.96-.05-.34-.22-.64-.5-.85-.27-.21-.61-.29-.96-.25-.32.04-.6.2-.81.44l.3.23c.14-.16.34-.27.56-.3.24-.03.49.03.68.18.2.15.32.36.35.6.03.24-.03.48-.18.68l-2.51,3.32Z"/>
          </g>
          <g>
            <rect class="cls-6" x="182.15" y="196.54" width=".52" height="6"/>
            <path class="cls-6" d="m182.67,202.61h-.52s-.07-.03-.07-.07v-6s.03-.07.07-.07h.52s.07.03.07.07v6s-.03.07-.07.07Zm-.45-.15h.37v-5.85h-.37v5.85Z"/>
          </g>
        </g>
        <g>
          <g>
            <path class="cls-6" d="m133.04,216.78c-1.65,0-2.98-1.34-2.98-2.98h.52c0,1.36,1.11,2.47,2.47,2.47s2.47-1.11,2.47-2.47h.52c0,1.65-1.34,2.98-2.98,2.98Z"/>
            <path class="cls-6" d="m133.04,216.85c-1.69,0-3.06-1.37-3.06-3.06,0-.04.03-.07.07-.07h.52s.07.03.07.07c0,1.32,1.07,2.39,2.39,2.39s2.39-1.07,2.39-2.39c0-.04.03-.07.07-.07h.52s.07.03.07.07c0,1.69-1.37,3.06-3.06,3.06Zm-2.91-2.98c.04,1.57,1.33,2.84,2.91,2.84s2.87-1.27,2.91-2.84h-.37c-.04,1.37-1.16,2.47-2.54,2.47s-2.5-1.1-2.54-2.47h-.37Z"/>
          </g>
          <g>
            <rect class="cls-6" x="132.78" y="216.52" width=".52" height="3.09"/>
            <path class="cls-6" d="m133.3,219.68h-.52s-.07-.03-.07-.07v-3.09s.03-.07.07-.07h.52s.07.03.07.07v3.09s-.03.07-.07.07Zm-.45-.15h.37v-2.94h-.37v2.94Z"/>
          </g>
          <g>
            <rect class="cls-6" x="131.49" y="217.4" width="3.09" height=".52"/>
            <path class="cls-6" d="m134.58,217.99h-3.09s-.07-.03-.07-.07v-.52s.03-.07.07-.07h3.09s.07.03.07.07v.52s-.03.07-.07.07Zm-3.02-.15h2.94v-.37h-2.94v.37Z"/>
          </g>
          <g>
            <polygon class="cls-6" points="131.25 213.44 130.31 213.18 129.37 213.44 130.31 211.9 131.25 213.44"/>
            <path class="cls-6" d="m131.25,213.51s-.01,0-.02,0l-.92-.25-.92.25s-.06,0-.08-.03c-.02-.02-.02-.06,0-.08l.94-1.54s.1-.04.12,0l.94,1.54s.01.06,0,.08c-.01.02-.04.03-.06.03Zm-.94-.4s.01,0,.02,0l.76.21-.78-1.28-.78,1.28.76-.21s.01,0,.02,0Z"/>
          </g>
          <g>
            <rect class="cls-6" x="130.05" y="212.49" width=".52" height="1.3"/>
            <path class="cls-6" d="m130.57,213.87h-.52s-.07-.03-.07-.07v-1.3s.03-.07.07-.07h.52s.07.03.07.07v1.3s-.03.07-.07.07Zm-.45-.15h.37v-1.15h-.37v1.15Z"/>
          </g>
          <g>
            <polygon class="cls-6" points="133.98 213.44 133.04 213.18 132.1 213.44 133.04 211.9 133.98 213.44"/>
            <path class="cls-6" d="m132.1,213.51s-.04-.01-.06-.03c-.02-.02-.02-.06,0-.08l.94-1.54s.1-.04.12,0l.94,1.54s.01.06,0,.08c-.02.02-.05.03-.08.03l-.92-.25-.92.25s-.01,0-.02,0Zm.94-1.47l-.78,1.28.76-.21s.03,0,.04,0l.76.21-.78-1.28Z"/>
          </g>
          <g>
            <rect class="cls-6" x="132.78" y="212.49" width=".52" height="4.03"/>
            <path class="cls-6" d="m133.3,216.59h-.52s-.07-.03-.07-.07v-4.03s.03-.07.07-.07h.52s.07.03.07.07v4.03s-.03.07-.07.07Zm-.45-.15h.37v-3.88h-.37v3.88Z"/>
          </g>
          <g>
            <polygon class="cls-6" points="136.7 213.44 135.76 213.18 134.82 213.44 135.76 211.9 136.7 213.44"/>
            <path class="cls-6" d="m136.7,213.51s-.01,0-.02,0l-.92-.25-.92.25s-.06,0-.08-.03c-.02-.02-.02-.06,0-.08l.94-1.54s.1-.04.12,0l.94,1.54s.01.06,0,.08c-.01.02-.04.03-.06.03Zm-.94-.4s.01,0,.02,0l.76.21-.78-1.28-.78,1.28.76-.21s.01,0,.02,0Z"/>
          </g>
          <g>
            <rect class="cls-6" x="135.5" y="212.49" width=".52" height="1.3"/>
            <path class="cls-6" d="m136.02,213.87h-.52s-.07-.03-.07-.07v-1.3s.03-.07.07-.07h.52s.07.03.07.07v1.3s-.03.07-.07.07Zm-.45-.15h.37v-1.15h-.37v1.15Z"/>
          </g>
        </g>
        <g>
          <g>
            <rect class="cls-6" x="76.34" y="192.47" width=".49" height="6.7"/>
            <path class="cls-6" d="m76.82,199.24h-.49s-.07-.03-.07-.07v-6.7s.03-.07.07-.07h.49s.07.03.07.07v6.7s-.03.07-.07.07Zm-.42-.15h.34v-6.55h-.34v6.55Z"/>
          </g>
          <g>
            <rect class="cls-6" x="75.28" y="193.5" width="2.59" height=".49"/>
            <path class="cls-6" d="m77.87,194.06h-2.59s-.07-.03-.07-.07v-.49s.03-.07.07-.07h2.59s.07.03.07.07v.49s-.03.07-.07.07Zm-2.52-.15h2.44v-.34h-2.44v.34Z"/>
          </g>
          <g>
            <path class="cls-6" d="m79.61,200.46c-.4,0-.88-.11-1.2-.56-.44-.61,0-1.39.45-2.22.59-1.07.94-1.81.4-2.37-.12-.12-.38-.24-.76-.2-.36.04-1.06.28-1.7,1.36l-.42-.25c.74-1.27,1.61-1.55,2.06-1.6.46-.06.91.07,1.17.34.84.86.22,1.97-.32,2.95-.38.69-.74,1.34-.49,1.7.44.6,1.41.26,1.42.25l.17.46s-.37.13-.78.13Z"/>
            <path class="cls-6" d="m79.61,200.54c-.55,0-.98-.2-1.26-.59-.47-.64-.02-1.45.45-2.3.58-1.04.92-1.77.41-2.29-.1-.11-.35-.22-.7-.17-.35.04-1.03.27-1.65,1.33,0,.02-.03.03-.04.03-.02,0-.04,0-.06,0l-.42-.25s-.03-.03-.03-.04c0-.02,0-.04,0-.06.76-1.29,1.65-1.58,2.12-1.64.49-.06.96.08,1.23.36.88.9.25,2.03-.31,3.04-.37.67-.72,1.3-.49,1.62.4.55,1.3.24,1.34.23.04-.01.08,0,.09.04l.17.46s0,.04,0,.06c0,.02-.02.03-.04.04-.09.03-.41.13-.8.13Zm-.95-5.5c.32,0,.54.11.65.23.58.59.22,1.36-.39,2.46-.45.81-.87,1.58-.46,2.14.25.35.64.53,1.14.53.3,0,.56-.06.69-.1l-.12-.32c-.24.07-1.04.24-1.44-.3-.29-.39.09-1.06.48-1.77.53-.96,1.13-2.04.33-2.87-.24-.25-.67-.37-1.11-.32-.43.05-1.25.32-1.97,1.5l.3.17c.64-1.06,1.35-1.29,1.72-1.34.06,0,.12-.01.17-.01Z"/>
          </g>
        </g>
        <g>
          <g>
            <path class="cls-6" d="m56.31,177.53c-1.66,0-3.01-1.35-3.01-3.01h.5c0,1.38,1.12,2.5,2.5,2.5s2.5-1.12,2.5-2.5h.5c0,1.66-1.35,3.01-3.01,3.01Z"/>
            <path class="cls-6" d="m56.31,177.6c-1.7,0-3.08-1.38-3.08-3.08,0-.04.03-.07.07-.07h.51s.07.03.07.07c0,1.34,1.09,2.43,2.43,2.43s2.43-1.09,2.43-2.43c0-.04.03-.07.07-.07h.5s.07.03.07.07c0,1.7-1.38,3.08-3.08,3.08Zm-2.94-3.01c.04,1.59,1.34,2.87,2.94,2.87s2.9-1.28,2.94-2.87h-.36c-.04,1.39-1.18,2.5-2.57,2.5s-2.53-1.12-2.57-2.5h-.36Z"/>
          </g>
          <g>
            <rect class="cls-6" x="56.06" y="177.28" width=".5" height="3.01"/>
            <path class="cls-6" d="m56.56,180.36h-.51s-.07-.03-.07-.07v-3.01s.03-.07.07-.07h.51s.07.03.07.07v3.01s-.03.07-.07.07Zm-.43-.14h.36v-2.86h-.36v2.86Z"/>
          </g>
          <g>
            <rect class="cls-6" x="54.81" y="178.13" width="3.01" height=".5"/>
            <path class="cls-6" d="m57.81,178.71h-3.01s-.07-.03-.07-.07v-.51s.03-.07.07-.07h3.01s.07.03.07.07v.51s-.03.07-.07.07Zm-2.93-.14h2.86v-.36h-2.86v.36Z"/>
          </g>
          <g>
            <path class="cls-6" d="m56.31,176.36c-1.01,0-1.83-.82-1.83-1.83s.82-1.83,1.83-1.83,1.83.82,1.83,1.83-.82,1.83-1.83,1.83Zm0-3.16c-.73,0-1.33.6-1.33,1.33s.6,1.33,1.33,1.33,1.33-.6,1.33-1.33-.6-1.33-1.33-1.33Z"/>
            <path class="cls-6" d="m56.31,176.43c-1.05,0-1.9-.85-1.9-1.9s.85-1.9,1.9-1.9,1.9.85,1.9,1.9-.85,1.9-1.9,1.9Zm0-3.67c-.97,0-1.76.79-1.76,1.76s.79,1.76,1.76,1.76,1.76-.79,1.76-1.76-.79-1.76-1.76-1.76Zm0,3.16c-.77,0-1.4-.63-1.4-1.4s.63-1.4,1.4-1.4,1.4.63,1.4,1.4-.63,1.4-1.4,1.4Zm0-2.66c-.69,0-1.26.56-1.26,1.26s.56,1.26,1.26,1.26,1.26-.56,1.26-1.26-.56-1.26-1.26-1.26Z"/>
          </g>
        </g>
        <g>
          <path class="cls-6" d="m193.9,78.14c-.65,0-1.17-.53-1.17-1.17s.53-1.17,1.17-1.17,1.17.53,1.17,1.17-.53,1.17-1.17,1.17Zm0-1.67c-.27,0-.5.22-.5.5s.22.5.5.5.5-.22.5-.5-.22-.5-.5-.5Z"/>
          <path class="cls-6" d="m197.77,78.14c-.65,0-1.17-.53-1.17-1.17s.53-1.17,1.17-1.17,1.18.53,1.18,1.17-.53,1.17-1.18,1.17Zm0-1.67c-.27,0-.5.22-.5.5s.22.5.5.5.5-.22.5-.5-.22-.5-.5-.5Z"/>
          <path class="cls-6" d="m197.79,76.5l-.42-.53c.36-.28.86-1.36.57-2.19-.23-.67-.92-1-2.05-1s-1.82.34-2.05,1c-.29.83.21,1.91.57,2.19l-.42.53c-.58-.46-1.18-1.83-.79-2.94.23-.67.88-1.46,2.69-1.46s2.46.79,2.69,1.46c.39,1.11-.21,2.49-.79,2.94Z"/>
        </g>
        <g>
          <path class="cls-6" d="m157.21,54.71c-.82,0-1.48-.66-1.48-1.48s.66-1.48,1.48-1.48,1.48.66,1.48,1.48-.66,1.48-1.48,1.48Zm0-2.28c-.44,0-.8.36-.8.8s.36.8.8.8.8-.36.8-.8-.36-.8-.8-.8Z"/>
          <rect class="cls-6" x="156.91" y="46.61" width=".68" height="5.48"/>
          <rect class="cls-6" x="157.04" y="47.79" width="3.03" height=".68" transform="translate(13.58 128.37) rotate(-45.85)"/>
          <rect class="cls-6" x="158.22" y="48.79" width=".68" height="3.02" transform="translate(9.78 124.7) rotate(-44.17)"/>
        </g>
        <g>
          <rect class="cls-6" x="197.06" y="83.83" width="3.41" height=".68"/>
          <rect class="cls-6" x="198.43" y="82.42" width=".68" height="3.41"/>
          <path class="cls-6" d="m200.34,83.11c-1.93-.01-3.49-1.19-3.49-2.63,0-1.44,1.57-2.62,3.49-2.63h.74s-.53.38-.53.38c-.81.6-1.26,1.4-1.26,2.25,0,.85.45,1.65,1.26,2.25l.53.39h-.74Z"/>
        </g>
        <g>
          <g>
            <path class="cls-6" d="m103.78,215.21c-1.32,0-2.4-1.08-2.4-2.4s1.08-2.4,2.4-2.4,2.4,1.08,2.4,2.4-1.08,2.4-2.4,2.4Zm0-4.25c-1.02,0-1.85.83-1.85,1.85s.83,1.85,1.85,1.85,1.85-.83,1.85-1.85-.83-1.85-1.85-1.85Z"/>
            <path class="cls-6" d="m103.78,215.28c-1.36,0-2.47-1.11-2.47-2.47s1.11-2.47,2.47-2.47,2.47,1.11,2.47,2.47-1.11,2.47-2.47,2.47Zm0-4.79c-1.28,0-2.33,1.04-2.33,2.33s1.04,2.33,2.33,2.33,2.33-1.04,2.33-2.33-1.04-2.33-2.33-2.33Zm0,4.25c-1.06,0-1.92-.86-1.92-1.92s.86-1.92,1.92-1.92,1.92.86,1.92,1.92-.86,1.92-1.92,1.92Zm0-3.7c-.98,0-1.78.8-1.78,1.78s.8,1.78,1.78,1.78,1.78-.8,1.78-1.78-.8-1.78-1.78-1.78Z"/>
          </g>
          <g>
            <rect class="cls-6" x="103.51" y="207.44" width=".55" height="3.26"/>
            <path class="cls-6" d="m104.06,210.76h-.55s-.07-.03-.07-.07v-3.26s.03-.07.07-.07h.55s.07.03.07.07v3.26s-.03.07-.07.07Zm-.48-.14h.41v-3.12h-.41v3.12Z"/>
          </g>
          <g>
            <polygon class="cls-6" points="105.39 209.58 103.78 209.14 102.17 209.58 103.78 206.94 105.39 209.58"/>
            <path class="cls-6" d="m105.39,209.65s-.01,0-.02,0l-1.59-.44-1.59.44s-.06,0-.07-.02c-.02-.02-.02-.05,0-.08l1.61-2.64s.09-.04.12,0l1.61,2.64s.01.05,0,.08c-.01.02-.03.03-.05.03Zm-1.61-.58s.01,0,.02,0l1.44.4-1.46-2.4-1.46,2.4,1.44-.4s.01,0,.02,0Z"/>
          </g>
          <g>
            <path class="cls-6" d="m103.78,213.82c-.55,0-1.01-.45-1.01-1.01s.45-1.01,1.01-1.01,1.01.45,1.01,1.01-.45,1.01-1.01,1.01Zm0-1.47c-.25,0-.46.21-.46.46s.21.46.46.46.46-.21.46-.46-.21-.46-.46-.46Z"/>
            <path class="cls-6" d="m103.78,213.89c-.59,0-1.08-.48-1.08-1.08s.48-1.08,1.08-1.08,1.08.48,1.08,1.08-.48,1.08-1.08,1.08Zm0-2.01c-.52,0-.94.42-.94.94s.42.94.94.94.94-.42.94-.94-.42-.94-.94-.94Zm0,1.47c-.29,0-.53-.24-.53-.53s.24-.53.53-.53.53.24.53.53-.24.53-.53.53Zm0-.92c-.22,0-.39.17-.39.39s.18.39.39.39.39-.17.39-.39-.18-.39-.39-.39Z"/>
          </g>
        </g>
      </g>
      <g>
        <line class="cls-14" x1="206.51" y1="76" x2="205.38" y2="71.03"/>
        <line class="cls-14" x1="201.54" y1="70.35" x2="204.25" y2="70.58"/>
        <line class="cls-14" x1="183.24" y1="54.09" x2="186.63" y2="53.86"/>
        <line class="cls-14" x1="161.78" y1="43.47" x2="159.29" y2="39.85"/>
        <line class="cls-14" x1="70.72" y1="60.86" x2="71.62" y2="57.02"/>
        <line class="cls-14" x1="60.1" y1="72.84" x2="53.1" y2="77.13"/>
        <line class="cls-14" x1="51.74" y1="79.17" x2="54.9" y2="79.17"/>
        <line class="cls-14" x1="41.57" y1="101.08" x2="44.51" y2="100.86"/>
        <line class="cls-14" x1="50.61" y1="179.94" x2="52.65" y2="178.36"/>
        <line class="cls-14" x1="72.98" y1="204.79" x2="74.11" y2="202.53"/>
        <line class="cls-14" x1="103.26" y1="221.06" x2="101.45" y2="217.67"/>
        <line class="cls-14" x1="130.82" y1="225.35" x2="133.76" y2="222.87"/>
        <line class="cls-14" x1="185.73" y1="205.7" x2="188.44" y2="206.37"/>
      </g>
    </g>
  </g>
</svg>