<?xml version="1.0" encoding="UTF-8"?>
<svg id="_レイヤー_2" data-name="レイヤー 2" xmlns="http://www.w3.org/2000/svg" viewBox="0 0 19.78 19.84">
  <defs>
    <style>
      .cls-1 {
        fill: #b56e6c;
        stroke-width: 0px;
      }
    </style>
  </defs>
  <g id="_固定" data-name="固定">
    <g>
      <path class="cls-1" d="m7.95,19.84c-2.12,0-4.12-.83-5.62-2.33C-.78,14.41-.78,9.37,2.33,6.27c1.5-1.5,3.5-2.33,5.62-2.33s4.12.83,5.62,2.33c1.5,1.5,2.33,3.5,2.33,5.62s-.83,4.12-2.33,5.62c-1.5,1.5-3.5,2.33-5.62,2.33Zm0-14.59c-1.77,0-3.44.69-4.7,1.94-2.59,2.59-2.59,6.8,0,9.39,1.25,1.25,2.92,1.94,4.7,1.94s3.44-.69,4.7-1.94c1.25-1.25,1.94-2.92,1.94-4.69s-.69-3.44-1.94-4.69c-1.25-1.25-2.92-1.94-4.7-1.94Z"/>
      <g>
        <polygon class="cls-1" points="13.56 7.19 12.64 6.27 18.79 .06 19.71 .99 13.56 7.19"/>
        <rect class="cls-1" x="14.64" y="0" width="5.14" height="1.31"/>
        <rect class="cls-1" x="18.46" y=".66" width="1.31" height="4.48"/>
      </g>
    </g>
  </g>
</svg>