<?xml version="1.0" encoding="UTF-8"?>
<svg id="_レイヤー_2" data-name="レイヤー 2" xmlns="http://www.w3.org/2000/svg" viewBox="0 0 10.74 18.32">
  <defs>
    <style>
      .cls-1 {
        fill: #222;
        stroke-width: 0px;
      }
    </style>
  </defs>
  <g id="design">
    <g>
      <g>
        <path class="cls-1" d="m5.37,18.17C2.49,18.17.15,15.83.15,12.95s2.34-5.22,5.22-5.22,5.22,2.34,5.22,5.22-2.34,5.22-5.22,5.22Zm0-9.25c-2.22,0-4.03,1.81-4.03,4.03s1.81,4.03,4.03,4.03,4.03-1.81,4.03-4.03-1.81-4.03-4.03-4.03Z"/>
        <path class="cls-1" d="m5.37,18.32c-2.96,0-5.37-2.41-5.37-5.37s2.41-5.37,5.37-5.37,5.37,2.41,5.37,5.37-2.41,5.37-5.37,5.37Zm0-10.44C2.58,7.88.3,10.15.3,12.95s2.27,5.07,5.07,5.07,5.07-2.27,5.07-5.07-2.27-5.07-5.07-5.07Zm0,9.25c-2.3,0-4.18-1.88-4.18-4.18s1.88-4.18,4.18-4.18,4.18,1.88,4.18,4.18-1.88,4.18-4.18,4.18Zm0-8.06c-2.14,0-3.88,1.74-3.88,3.88s1.74,3.88,3.88,3.88,3.88-1.74,3.88-3.88-1.74-3.88-3.88-3.88Z"/>
      </g>
      <g>
        <rect class="cls-1" x="4.78" y="1.23" width="1.19" height="7.1"/>
        <path class="cls-1" d="m5.97,8.48h-1.19c-.08,0-.15-.07-.15-.15V1.23c0-.08.07-.15.15-.15h1.19c.08,0,.15.07.15.15v7.1c0,.08-.07.15-.15.15Zm-1.04-.3h.89V1.38h-.89v6.8Z"/>
      </g>
      <g>
        <polygon class="cls-1" points="8.88 5.9 5.37 4.94 1.87 5.9 5.37 .15 8.88 5.9"/>
        <path class="cls-1" d="m8.88,6.05s-.03,0-.04,0l-3.46-.96-3.47.96c-.06.02-.12,0-.16-.05-.04-.05-.04-.12,0-.17L5.24.07c.05-.09.2-.09.26,0l3.5,5.76c.03.05.03.12,0,.17-.03.04-.07.06-.12.06ZM5.37.43l-3.18,5.22,3.14-.87s.05,0,.08,0l3.14.87L5.37.43Z"/>
      </g>
      <g>
        <path class="cls-1" d="m5.37,15.14c-1.21,0-2.19-.98-2.19-2.19s.98-2.19,2.19-2.19,2.19.98,2.19,2.19-.98,2.19-2.19,2.19Zm0-3.19c-.55,0-1,.45-1,1s.45,1,1,1,1-.45,1-1-.45-1-1-1Z"/>
        <path class="cls-1" d="m5.37,15.29c-1.29,0-2.34-1.05-2.34-2.34s1.05-2.34,2.34-2.34,2.34,1.05,2.34,2.34-1.05,2.34-2.34,2.34Zm0-4.38c-1.13,0-2.04.92-2.04,2.04s.92,2.04,2.04,2.04,2.04-.92,2.04-2.04-.92-2.04-2.04-2.04Zm0,3.19c-.63,0-1.15-.52-1.15-1.15s.52-1.15,1.15-1.15,1.15.52,1.15,1.15-.52,1.15-1.15,1.15Zm0-2c-.47,0-.85.38-.85.85s.38.85.85.85.85-.38.85-.85-.38-.85-.85-.85Z"/>
      </g>
    </g>
  </g>
</svg>