<?xml version="1.0" encoding="UTF-8"?>
<svg id="_レイヤー_2" data-name="レイヤー 2" xmlns="http://www.w3.org/2000/svg" viewBox="0 0 98.44 6.44">
  <defs>
    <style>
      .cls-1 {
        fill: #d8e2e7;
        stroke-width: 0px;
      }
    </style>
  </defs>
  <g id="_固定" data-name="固定">
    <g>
      <path class="cls-1" d="m92.88,3.22c0-.74-.6-1.33-1.33-1.33s-1.33.6-1.33,1.33.6,1.33,1.33,1.33,1.33-.6,1.33-1.33Z"/>
      <path class="cls-1" d="m3.12,3.22c0-.86-.7-1.56-1.56-1.56s-1.56.7-1.56,1.56.7,1.56,1.56,1.56,1.56-.7,1.56-1.56Z"/>
      <path class="cls-1" d="m98.44,3.22h0c-.28.97-1.64,1.08-1.92,1.09.08.23.12.46.12.66,0,1.14-1.15,1.44-1.23,1.47,0,0-.47-3.03-4.49-3.22,0,0,3.73,0,4.49-3.22,0,0,1.67.45,1.11,2.13,0,0,1.64.03,1.92,1.09Z"/>
      <path class="cls-1" d="m.18,3.22s51.27.94,65.31.94,25.43-.42,25.43-.94-11.38-.94-25.43-.94S.18,3.22.18,3.22Z"/>
    </g>
  </g>
</svg>