<?xml version="1.0" encoding="UTF-8"?>
<svg id="_レイヤー_2" data-name="レイヤー 2" xmlns="http://www.w3.org/2000/svg" viewBox="0 0 449.82 178.98">
  <defs>
    <style>
      .cls-1 {
        fill: #4e4e76;
        stroke-width: 0px;
      }
    </style>
  </defs>
  <g id="_固定" data-name="固定">
    <g>
      <path class="cls-1" d="m49.96,136.89c8.98-3.07,14.68-10.74,14.68-19.5,0-12.93-11.61-22.57-27.83-22.57S0,103.36,0,128.12c0,15.78,13.59,29.36,28.05,29.36l.87-1.1c-16,1.1-25.64-15.12-25.64-29.8,0-17.09,13.15-30.9,33.75-30.9,13.36,0,23.66,7.45,23.66,21.03,0,9.64-6.57,19.94-14.68,19.94h-10.96v-17.97c0-3.51,1.53-4.82,3.51-5.26h-10.52c1.97.44,3.5,1.75,3.5,5.04v40.76c0,3.29-1.53,4.6-3.5,5.26h19.94c13.58,0,18.19-7.89,18.19-14.02,0-6.57-4.17-12.93-16.22-13.59Zm-2.19,26.73h-12.71v-26.07h12.71c9.64,0,13.8,5.92,13.8,12.93s-4.16,13.15-13.8,13.15Z"/>
      <path class="cls-1" d="m139.81,173.94c-3.51,1.53-6.13,2.63-10.74,2.63-14.9,0-26.51-12.93-41.85-13.37v-44.92c0-3.51,1.53-4.82,3.51-5.26h-10.52c1.97.44,3.51,1.75,3.51,5.26v40.54c0,3.29-1.53,4.82-3.51,5.26h7.45c15.34,0,23.88,14.9,37.69,14.9,6.13,0,10.3-2.19,14.68-4.38l-.22-.66Z"/>
      <path class="cls-1" d="m131.43,113.22c1.55.51,4.06,1.36,4.06,4.09v21.99c0,7.67-3.87,12.96-13.52,12.96-6.76,0-12.75-3.92-12.75-12.96v-21.99c0-2.56,1.16-3.58,2.9-4.09h-9.07c1.73.51,2.9,1.53,2.9,4.09v22.16c0,6.48,3.28,13.98,16.03,13.98,9.27,0,14.29-4.77,14.29-13.98v-22.16c0-2.56,2.51-3.58,4.05-4.09h-8.88Z"/>
      <path class="cls-1" d="m158.61,163.3v-24.54h10.96c3.29,0,4.6,1.32,5.26,3.29v-7.45c-.66,1.75-1.97,3.29-5.26,3.29h-10.96v-23.88h15.12c6.13,0,8.77,4.38,10.08,6.57l-1.97-7.45h-30.02c1.75.66,3.29,1.97,3.29,5.26v40.54c0,3.51-1.53,4.82-3.29,5.26h30.02l1.97-7.45c-1.31,2.19-3.95,6.57-10.08,6.57h-15.12Z"/>
      <path class="cls-1" d="m201.33,113.61c1.75.66,3.29,1.97,3.29,5.48h0v40.32h0c0,3.51-1.53,4.82-3.29,5.26h10.08c-1.75-.44-3.29-1.75-3.29-5.04v-14.9h10.08c14.68,0,19.5-8.77,19.5-15.56,0-7.45-5.04-15.56-19.5-15.56h-16.87Zm16.87,30.24h-10.08v-29.36h10.08c10.08,0,15.12,6.57,15.12,14.68s-5.04,14.68-15.12,14.68Z"/>
      <path class="cls-1" d="m321.4,173.17c-4.17,2.63-7.67,3.94-13.81,3.94-19.94,0-23.88-28.27-37.69-32.65,12.06-.66,16.22-9.64,16.22-15.34,0-7.45-4.82-15.56-19.5-15.56h-16.87c1.75.44,3.29,1.75,3.29,5.26v40.54c0,3.51-1.53,4.82-3.29,5.26h10.3c-1.75-.44-3.29-1.75-3.29-5.04v-14.9h8.77c18.18,0,16,34.18,38.78,34.18,8.55,0,12.71-2.19,17.53-4.6l-.43-1.1Zm-54.56-29.36h-10.08v-29.36h10.08c10.08,0,15.12,6.57,15.12,14.68,0,9.42-6.57,14.68-15.12,14.68Z"/>
      <path class="cls-1" d="m307.2,147.94v-30.33c0-2.45,1.56-3.43,3.34-3.91h-10.23c1.77.49,3.33,1.47,3.33,3.91h0v30.17h0c0,2.61-1.56,3.59-3.33,3.91h10.23c-1.78-.33-3.34-1.3-3.34-3.75h0Z"/>
      <path class="cls-1" d="m428.13,101.7c-15.78,0-30.67,8.74-46.24,8.74-7.67,0-14.24-1.75-19.94-6.99l-.22.87c5.04,5.24,13.59,7.21,21.48,7.65v47.85c0,3.5-1.53,4.59-3.29,5.02h10.08c-1.75-.44-3.29-1.75-3.29-4.81v-48.06c13.37,0,31.99-8.74,45.14-8.74,6.57,0,12.93,1.09,17.09,7.43l.88-.44c-4.38-5.46-10.74-8.52-21.7-8.52Z"/>
      <path class="cls-1" d="m356.46,113.69c1.75.66,4.38,1.98,4.38,5.27v37.98l-30.02-43.25h-7.89c1.75.66,4.38,1.76,4.38,5.27v40.61c0,3.51-2.63,4.83-4.38,5.27h9.64c-1.75-.44-4.38-1.76-4.38-5.27v-43.25h0l33.53,48.52v-45.88c.22-3.29,2.63-4.61,4.6-5.27h-9.86Z"/>
      <g>
        <path class="cls-1" d="m101.31,48.43c0-12.27-14.24-21.47-20.38-26.51-3.94-3.51-8.98-7.45-8.98-12.93,0-4.6,3.29-8.33,9.42-8.33,6.79,0,11.39,6.35,12.27,10.74V1.32c-.43.66-1.09.88-1.75.88-1.97,0-6.79-2.19-10.3-2.19-5.04,0-10.52,2.41-10.52,9.64,0,5.7,5.26,10.96,8.11,14.02,7.45,7.67,17.53,15.34,18.84,25.2v2.63c0,9.2-5.26,17.97-17.52,19.28h-2.63c-10.08,0-19.5-7.23-19.5-19.06,0-8.98,5.48-19.06,17.75-19.06h1.31l.22-.22c-1.09,0-1.97-.22-2.85-.22-8.55,0-19.06,5.04-19.06,18.41,0,10.96,8.11,19.28,19.28,21.04,1.75.44,3.73.44,5.69.44,9.42-.88,20.6-6.57,20.6-22.13v-1.53Z"/>
        <path class="cls-1" d="m143.24,20.64h-35.28l-1.75,7.48c1.1-2.2,3.73-6.6,9.86-6.6h7.67v45.07c0,3.52-1.53,4.84-3.29,5.28h10.08c-1.75-.44-3.29-1.76-3.29-5.06V21.52h7.89c6.13,0,8.77,4.4,9.86,6.6l-1.75-7.48Z"/>
        <path class="cls-1" d="m235.92,80.47c-8.98,5.92-13.15,5.92-19.5,5.92-17.31,0-36.59-15.56-57.19-15.56v-24.54h10.74c3.72,0,4.82,1.53,5.47,3.29v-7.45c-.65,1.97-1.75,3.29-5.47,3.29h-10.74v-23.67h15.12c6.35,0,8.76,4.38,9.86,6.57l-1.75-7.45h-30.24c1.97.44,3.51,1.75,3.51,5.26v40.54c0,3.29-1.54,4.6-3.51,5.26h8.11c19.72,0,34.18,16.65,53.24,17.09,5.7,0,12.06-.66,22.79-8.11l-.44-.44Z"/>
        <path class="cls-1" d="m202.15,61.08V24.93c0-2.63,1.46-3.69,3.13-4.21h-9.6c1.67.53,3.13,1.58,3.13,4.21h0v32.46h0c0,2.81-1.46,3.86-3.13,4.21h28.57l1.67-5.97c-1.04,1.76-3.54,5.44-9.38,5.44h-14.39Z"/>
        <path class="cls-1" d="m239.42,61.11V24.97c0-2.63,1.46-3.69,3.13-4.21h-9.6c1.67.53,3.13,1.58,3.13,4.21h0v32.46h0c0,2.81-1.46,3.86-3.13,4.21h28.57l1.67-5.97c-1.04,1.76-3.54,5.44-9.38,5.44h-14.39Z"/>
        <path class="cls-1" d="m307.72,57.48l-16.14-36.76-16.56,36.93c-1.24,2.08-2.9,3.64-4.55,3.99h9.52c-1.66-.35-5.18-1.56-3.31-5.9l4.76-10.23h17.59l5.18,11.96c.83,1.91-.62,3.81-2.28,4.16h9.94c-1.66-.35-3.11-1.73-4.14-4.16Zm-26.07-12.66l8.48-19.07,8.48,19.07h-16.97Z"/>
        <path class="cls-1" d="m388.02,80.75c-4.17,2.65-7.67,3.97-13.81,3.97-19.94,0-23.88-28.47-37.69-32.88,12.06-.66,16.22-9.71,16.22-15.45,0-7.5-4.82-15.67-19.5-15.67h-16.87c1.75.44,3.29,1.76,3.29,5.3v40.83c0,3.53-1.53,4.86-3.29,5.3h10.3c-1.75-.44-3.29-1.76-3.29-5.08v-15.01h8.77c18.18,0,16,34.43,38.78,34.43,8.55,0,12.71-2.21,17.53-4.64l-.43-1.1Zm-54.56-29.57h-10.08v-29.57h10.08c10.08,0,15.12,6.62,15.12,14.78,0,9.49-6.57,14.79-15.12,14.79Z"/>
      </g>
    </g>
  </g>
</svg>