<?xml version="1.0" encoding="UTF-8"?>
<svg id="_レイヤー_2" data-name="レイヤー 2" xmlns="http://www.w3.org/2000/svg" xmlns:xlink="http://www.w3.org/1999/xlink" viewBox="0 0 431.81 368.23">
  <defs>
    <style>
      .cls-1 {
        fill: #fff;
        stroke-width: 0px;
      }

      .cls-2 {
        filter: url(#drop-shadow-1);
      }
    </style>
    <filter id="drop-shadow-1" filterUnits="userSpaceOnUse">
      <feOffset dx="0" dy="0"/>
      <feGaussianBlur result="blur" stdDeviation="5.67"/>
      <feFlood flood-color="#231815" flood-opacity=".88"/>
      <feComposite in2="blur" operator="in"/>
      <feComposite in="SourceGraphic"/>
    </filter>
  </defs>
  <g id="_タイトル" data-name="タイトル">
    <g class="cls-2">
      <path class="cls-1" d="m108.08,167.12c14.3-4.88,23.37-17.1,23.37-31.05,0-20.58-18.48-35.93-44.3-35.93s-58.61,13.61-58.61,53.03c0,25.12,21.64,46.75,44.66,46.75l1.39-1.74c-25.47,1.74-40.82-24.07-40.82-47.45,0-27.21,20.94-49.19,53.73-49.19,21.28,0,37.68,11.86,37.68,33.49,0,15.35-10.47,31.75-23.38,31.75h-17.44v-28.61c0-5.58,2.44-7.68,5.58-8.37h-16.74c3.13.7,5.57,2.79,5.57,8.02v64.89c0,5.23-2.44,7.33-5.57,8.37h31.74c21.63,0,28.96-12.56,28.96-22.33,0-10.47-6.64-20.58-25.82-21.63Zm-3.49,42.56h-20.23v-41.52h20.23c15.35,0,21.98,9.42,21.98,20.58s-6.63,20.93-21.98,20.93Z"/>
      <path class="cls-1" d="m251.13,226.11c-5.58,2.44-9.77,4.19-17.1,4.19-23.72,0-42.21-20.58-66.63-21.28v-71.52c0-5.58,2.44-7.68,5.58-8.37h-16.75c3.14.7,5.58,2.79,5.58,8.37v64.54c0,5.23-2.44,7.68-5.58,8.37h11.87c24.42,0,38.02,23.72,60,23.72,9.77,0,16.39-3.49,23.38-6.98l-.35-1.05Z"/>
      <path class="cls-1" d="m240.12,129.44c2.46.81,6.46,2.17,6.46,6.51v35.01c0,12.21-6.16,20.63-21.53,20.63-10.76,0-20.29-6.24-20.29-20.63v-35.01c0-4.07,1.84-5.7,4.61-6.51h-14.45c2.76.81,4.61,2.44,4.61,6.51v35.28c0,10.31,5.22,22.26,25.51,22.26,14.76,0,22.75-7.6,22.75-22.26v-35.28c0-4.07,4-5.7,6.46-6.51h-14.15Z"/>
      <path class="cls-1" d="m283.39,209.17v-39.07h17.44c5.23,0,7.33,2.09,8.37,5.23v-11.86c-1.05,2.79-3.14,5.23-8.37,5.23h-17.44v-38.03h24.07c9.77,0,13.96,6.98,16.05,10.46l-3.14-11.86h-47.79c2.79,1.05,5.23,3.14,5.23,8.37v64.54c0,5.58-2.44,7.68-5.23,8.37h47.79l3.14-11.86c-2.09,3.49-6.28,10.47-16.05,10.47h-24.07Z"/>
      <path class="cls-1" d="m36.17,264.33c2.79,1.05,5.23,3.14,5.23,8.72h0v64.19h0c0,5.58-2.44,7.68-5.23,8.37h16.04c-2.79-.7-5.23-2.79-5.23-8.03v-23.72h16.05c23.38,0,31.05-13.96,31.05-24.77,0-11.86-8.02-24.77-31.05-24.77h-26.86Zm26.86,48.14h-16.05v-46.75h16.05c16.05,0,24.08,10.47,24.08,23.37s-8.02,23.37-24.08,23.37Z"/>
      <path class="cls-1" d="m227.34,359.16c-6.63,4.19-12.21,6.28-21.99,6.28-31.74,0-38.03-45.01-60-51.98,19.19-1.05,25.82-15.35,25.82-24.42,0-11.86-7.67-24.77-31.05-24.77h-26.86c2.79.7,5.23,2.79,5.23,8.37v64.54c0,5.58-2.44,7.68-5.23,8.37h16.39c-2.79-.7-5.23-2.79-5.23-8.02v-23.72h13.96c28.95,0,25.47,54.42,61.74,54.42,13.61,0,20.23-3.49,27.91-7.33l-.69-1.74Zm-86.87-46.75h-16.05v-46.75h16.05c16.05,0,24.08,10.46,24.08,23.37,0,15-10.47,23.38-24.08,23.38Z"/>
      <path class="cls-1" d="m204.74,318.99v-48.3c0-3.9,2.48-5.45,5.31-6.23h-16.29c2.83.78,5.3,2.34,5.3,6.23h0v48.04h0c0,4.15-2.48,5.71-5.3,6.23h16.29c-2.83-.52-5.31-2.08-5.31-5.97h0Z"/>
      <path class="cls-1" d="m397.27,245.38c-25.12,0-48.84,13.91-73.61,13.91-12.21,0-22.68-2.78-31.74-11.13l-.35,1.39c8.03,8.35,21.64,11.48,34.19,12.18v76.18c0,5.57-2.44,7.3-5.23,8h16.04c-2.79-.7-5.23-2.78-5.23-7.65v-76.52c21.29,0,50.94-13.91,71.87-13.91,10.47,0,20.58,1.74,27.21,11.83l1.4-.7c-6.98-8.7-17.1-13.57-34.54-13.57Z"/>
      <path class="cls-1" d="m283.17,264.47c2.79,1.05,6.98,3.15,6.98,8.39v60.47l-47.79-68.86h-12.56c2.79,1.05,6.98,2.79,6.98,8.39v64.66c0,5.59-4.18,7.69-6.98,8.39h15.35c-2.79-.7-6.98-2.8-6.98-8.39v-68.86h0l53.38,77.25v-73.05c.35-5.24,4.18-7.34,7.33-8.39h-15.7Z"/>
      <g>
        <path class="cls-1" d="m51.79,55.03c0-13.94-16.19-24.4-23.16-30.13-4.48-3.98-10.21-8.47-10.21-14.69,0-5.23,3.74-9.46,10.71-9.46,7.72,0,12.95,7.22,13.94,12.2V1.49c-.49.75-1.24,1-1.99,1-2.24,0-7.71-2.49-11.7-2.49-5.73,0-11.96,2.74-11.96,10.96,0,6.47,5.98,12.45,9.21,15.94,8.47,8.71,19.92,17.43,21.41,28.64v2.99c0,10.46-5.97,20.42-19.92,21.91h-2.99c-11.45,0-22.16-8.22-22.16-21.66,0-10.21,6.23-21.66,20.17-21.66h1.49l.25-.25c-1.24,0-2.24-.25-3.24-.25-9.71,0-21.66,5.73-21.66,20.92,0,12.45,9.21,21.91,21.91,23.91,1.99.5,4.24.5,6.47.5,10.71-1,23.41-7.47,23.41-25.15v-1.74Z"/>
        <path class="cls-1" d="m99.44,23.46h-40.09l-1.99,8.5c1.25-2.5,4.24-7.5,11.21-7.5h8.71v51.22c0,4-1.74,5.5-3.74,6h11.46c-1.99-.5-3.74-2-3.74-5.75V24.46h8.96c6.97,0,9.96,5,11.21,7.5l-1.99-8.5Z"/>
        <path class="cls-1" d="m204.76,91.45c-10.21,6.72-14.94,6.72-22.16,6.72-19.67,0-41.59-17.68-64.99-17.68v-27.89h12.21c4.23,0,5.48,1.74,6.22,3.73v-8.47c-.74,2.24-1.99,3.74-6.22,3.74h-12.21v-26.89h17.19c7.22,0,9.96,4.98,11.21,7.47l-1.99-8.47h-34.36c2.24.5,3.99,1.99,3.99,5.98v46.07c0,3.73-1.75,5.23-3.99,5.98h9.21c22.41,0,38.84,18.92,60.51,19.42,6.48,0,13.7-.75,25.9-9.21l-.5-.5Z"/>
        <path class="cls-1" d="m166.39,69.41V28.33c0-2.99,1.66-4.19,3.56-4.79h-10.91c1.9.6,3.56,1.79,3.56,4.79h0v36.89h0c0,3.19-1.66,4.39-3.56,4.78h32.47l1.9-6.78c-1.18,2-4.03,6.18-10.66,6.18h-16.36Z"/>
        <path class="cls-1" d="m208.74,69.45V28.37c0-2.99,1.66-4.19,3.56-4.79h-10.91c1.9.6,3.56,1.79,3.56,4.79h0v36.89h0c0,3.19-1.66,4.39-3.56,4.78h32.47l1.9-6.78c-1.18,2-4.03,6.18-10.66,6.18h-16.36Z"/>
        <path class="cls-1" d="m286.37,65.32l-18.34-41.78-18.82,41.97c-1.41,2.36-3.29,4.14-5.17,4.53h10.82c-1.88-.39-5.88-1.77-3.76-6.7l5.41-11.63h19.99l5.88,13.6c.94,2.17-.71,4.34-2.59,4.73h11.29c-1.88-.39-3.53-1.97-4.71-4.73Zm-29.63-14.39l9.64-21.68,9.64,21.68h-19.28Z"/>
        <path class="cls-1" d="m377.62,91.76c-4.74,3.01-8.71,4.51-15.69,4.51-22.66,0-27.14-32.35-42.83-37.37,13.7-.75,18.43-11.04,18.43-17.56,0-8.53-5.48-17.81-22.16-17.81h-19.17c1.99.5,3.74,2.01,3.74,6.02v46.4c0,4.01-1.74,5.52-3.74,6.02h11.7c-1.99-.5-3.74-2.01-3.74-5.77v-17.05h9.96c20.66,0,18.18,39.13,44.07,39.13,9.71,0,14.44-2.51,19.92-5.27l-.49-1.25Zm-62.01-33.61h-11.46V24.55h11.46c11.46,0,17.19,7.52,17.19,16.8,0,10.79-7.47,16.81-17.19,16.81Z"/>
      </g>
    </g>
  </g>
</svg>