<?xml version="1.0" encoding="UTF-8"?>
<svg id="_レイヤー_2" data-name="レイヤー 2" xmlns="http://www.w3.org/2000/svg" xmlns:xlink="http://www.w3.org/1999/xlink" viewBox="0 0 281.03 231.16">
  <defs>
    <style>
      .cls-1 {
        fill: none;
      }

      .cls-1, .cls-2 {
        stroke-width: 0px;
      }

      .cls-2 {
        fill: #39385d;
      }

      .cls-3 {
        clip-path: url(#clippath);
      }
    </style>
    <clipPath id="clippath">
      <path class="cls-1" d="m0,0h281.03v231.16H20c-11.04,0-20-8.96-20-20V0h0Z"/>
    </clipPath>
  </defs>
  <g id="design">
    <g id="Graphic_element" data-name="Graphic element">
      <g class="cls-3">
        <g>
          <path class="cls-2" d="m50.53,292.28c-17.83,0-35.13-3.49-51.41-10.38-15.73-6.65-29.85-16.17-41.98-28.3-12.13-12.13-21.65-26.25-28.3-41.98-6.89-16.28-10.38-33.58-10.38-51.41s3.49-35.13,10.38-51.41c6.65-15.73,16.18-29.85,28.3-41.98C-30.73,54.69-16.6,45.16-.88,38.51c16.28-6.89,33.58-10.38,51.41-10.38s35.13,3.49,51.41,10.38c15.73,6.65,29.85,16.18,41.98,28.3,12.13,12.13,21.65,26.25,28.3,41.98,6.89,16.28,10.38,33.58,10.38,51.41s-3.49,35.13-10.38,51.41c-6.65,15.73-16.18,29.85-28.3,41.98-12.13,12.13-26.25,21.65-41.98,28.3-16.28,6.89-33.58,10.38-51.41,10.38Zm0-263.59c-17.75,0-34.98,3.48-51.19,10.34-15.66,6.62-29.73,16.11-41.8,28.19-12.08,12.08-21.56,26.14-28.19,41.8-6.86,16.21-10.34,33.44-10.34,51.19s3.48,34.98,10.34,51.19c6.62,15.66,16.11,29.73,28.19,41.8,12.08,12.08,26.14,21.56,41.8,28.19,16.21,6.86,33.44,10.34,51.19,10.34s34.98-3.48,51.19-10.34c15.66-6.62,29.73-16.11,41.8-28.19,12.08-12.08,21.56-26.14,28.19-41.8,6.86-16.21,10.34-33.44,10.34-51.19s-3.48-34.98-10.34-51.19c-6.62-15.66-16.11-29.73-28.19-41.8-12.08-12.08-26.14-21.56-41.8-28.19-16.21-6.86-33.44-10.34-51.19-10.34Z"/>
          <path class="cls-2" d="m50.53,160.02c-18,0-32.64-14.64-32.64-32.64s14.64-32.64,32.64-32.64,32.64,14.64,32.64,32.64-14.64,32.64-32.64,32.64Zm0-64.73c-17.69,0-32.08,14.39-32.08,32.08s14.39,32.08,32.08,32.08,32.08-14.39,32.08-32.08-14.39-32.08-32.08-32.08Z"/>
          <path class="cls-2" d="m50.53,310.7c-20.32,0-40.02-3.98-58.58-11.83-17.92-7.58-34.01-18.43-47.84-32.25-13.82-13.82-24.67-29.92-32.25-47.84-7.85-18.55-11.83-38.26-11.83-58.58s3.98-40.02,11.83-58.58c7.58-17.92,18.43-34.01,32.25-47.84,13.82-13.82,29.92-24.67,47.84-32.25C10.51,13.69,30.22,9.71,50.53,9.71s40.02,3.98,58.58,11.83c17.92,7.58,34.01,18.43,47.84,32.25,13.82,13.82,24.67,29.92,32.25,47.84,7.85,18.55,11.83,38.26,11.83,58.58s-3.98,40.02-11.83,58.58c-7.58,17.92-18.43,34.01-32.25,47.84-13.82,13.82-29.92,24.67-47.84,32.25-18.55,7.85-38.26,11.83-58.58,11.83Zm0-300.43c-20.24,0-39.88,3.96-58.36,11.78-17.85,7.55-33.89,18.36-47.66,32.13-13.77,13.77-24.58,29.8-32.13,47.66-7.82,18.48-11.78,38.12-11.78,58.36s3.96,39.88,11.78,58.36c7.55,17.85,18.36,33.89,32.13,47.66,13.77,13.77,29.8,24.58,47.66,32.13,18.48,7.82,38.12,11.78,58.36,11.78s39.88-3.96,58.36-11.78c17.85-7.55,33.89-18.36,47.66-32.13,13.77-13.77,24.58-29.8,32.13-47.66,7.82-18.48,11.78-38.12,11.78-58.36s-3.96-39.88-11.78-58.36c-7.55-17.85-18.36-33.89-32.13-47.66-13.77-13.77-29.8-24.58-47.66-32.13-18.48-7.82-38.12-11.78-58.36-11.78Z"/>
          <path class="cls-2" d="m50.53,304.52c-19.48,0-38.38-3.82-56.18-11.34-17.19-7.27-32.62-17.67-45.87-30.93-13.25-13.25-23.66-28.69-30.93-45.87-7.53-17.79-11.34-36.69-11.34-56.18s3.82-38.38,11.34-56.18c7.27-17.19,17.67-32.62,30.93-45.87,13.25-13.25,28.69-23.66,45.87-30.93,17.79-7.53,36.69-11.34,56.18-11.34s38.38,3.82,56.18,11.34c17.19,7.27,32.62,17.67,45.87,30.93,13.25,13.25,23.66,28.69,30.93,45.87,7.53,17.79,11.34,36.69,11.34,56.18s-3.82,38.38-11.34,56.18c-7.27,17.19-17.67,32.62-30.93,45.87-13.25,13.25-28.69,23.66-45.87,30.93-17.79,7.53-36.69,11.34-56.18,11.34Zm0-288.08c-19.41,0-38.23,3.8-55.96,11.3-17.12,7.24-32.49,17.61-45.7,30.81-13.2,13.2-23.57,28.58-30.81,45.7-7.5,17.72-11.3,36.55-11.3,55.96s3.8,38.23,11.3,55.96c7.24,17.12,17.61,32.49,30.81,45.7,13.2,13.2,28.58,23.57,45.7,30.81,17.72,7.5,36.55,11.3,55.96,11.3s38.23-3.8,55.96-11.3c17.12-7.24,32.49-17.61,45.7-30.81,13.2-13.2,23.57-28.58,30.81-45.7,7.5-17.72,11.3-36.55,11.3-55.96s-3.8-38.23-11.3-55.96c-7.24-17.12-17.61-32.49-30.81-45.7-13.2-13.2-28.58-23.57-45.7-30.81-17.72-7.5-36.55-11.3-55.96-11.3Z"/>
          <path class="cls-2" d="m50.53,300.07c-18.88,0-37.2-3.7-54.44-10.99-16.65-7.04-31.61-17.13-44.46-29.97-12.84-12.84-22.93-27.8-29.97-44.46-7.29-17.24-10.99-35.56-10.99-54.44s3.7-37.2,10.99-54.44c7.04-16.65,17.13-31.61,29.97-44.46,12.84-12.84,27.8-22.93,44.46-29.97,17.24-7.29,35.56-10.99,54.44-10.99s37.2,3.7,54.44,10.99c16.65,7.04,31.61,17.13,44.46,29.97,12.84,12.84,22.93,27.8,29.97,44.46,7.29,17.24,10.99,35.56,10.99,54.44s-3.7,37.2-10.99,54.44c-7.04,16.65-17.13,31.61-29.97,44.46-12.84,12.84-27.8,22.93-44.46,29.97-17.24,7.29-35.56,10.99-54.44,10.99Zm0-279.17c-18.81,0-37.05,3.68-54.22,10.95-16.59,7.02-31.49,17.06-44.28,29.85-12.79,12.79-22.84,27.69-29.85,44.28-7.26,17.17-10.95,35.42-10.95,54.22s3.68,37.05,10.95,54.22c7.02,16.59,17.06,31.49,29.85,44.28,12.79,12.79,27.69,22.84,44.28,29.85,17.17,7.26,35.42,10.95,54.22,10.95s37.05-3.68,54.22-10.95c16.59-7.02,31.49-17.06,44.28-29.85,12.79-12.79,22.84-27.69,29.85-44.28,7.26-17.17,10.95-35.42,10.95-54.22s-3.68-37.05-10.95-54.22c-7.02-16.59-17.06-31.49-29.85-44.28-12.79-12.79-27.69-22.84-44.28-29.85-17.17-7.26-35.42-10.95-54.22-10.95Z"/>
          <path class="cls-2" d="m190.1,158.11s-.08,0-.11-.02c-16.22-7.14-74.21-30.43-139.45-30.43s-123.23,23.29-139.45,30.43c-.14.06-.31,0-.37-.14-.06-.14,0-.31.14-.37,16.24-7.15,74.32-30.47,139.68-30.47s123.43,23.33,139.68,30.47c.14.06.2.23.14.37-.05.1-.15.17-.26.17Z"/>
          <path class="cls-2" d="m50.53,218.59c-27.12,0-52.62-10.56-71.8-29.74-19.18-19.18-29.74-44.68-29.74-71.8,0-17.33,4.44-34.44,12.85-49.48,8.15-14.58,19.89-27.05,33.96-36.07.13-.08.3-.05.38.08.08.13.05.3-.08.38-13.99,8.97-25.67,21.38-33.78,35.87-8.36,14.95-12.78,31.97-12.78,49.21,0,26.98,10.5,52.34,29.58,71.41,19.07,19.07,44.44,29.58,71.41,29.58s52.34-10.5,71.41-29.58c19.07-19.07,29.58-44.44,29.58-71.41,0-17.27-4.43-34.31-12.82-49.28-8.13-14.51-19.84-26.92-33.88-35.89-.13-.08-.17-.25-.08-.38.08-.13.25-.17.38-.08,14.11,9.01,25.89,21.49,34.06,36.09,8.43,15.05,12.89,32.19,12.89,49.55,0,27.12-10.56,52.62-29.74,71.8-19.18,19.18-44.68,29.74-71.8,29.74Z"/>
          <path class="cls-2" d="m50.53,300.07c-.15,0-.28-.12-.28-.28V20.62c0-.15.12-.28.28-.28s.28.12.28.28v279.17c0,.15-.12.28-.28.28Z"/>
          <path class="cls-2" d="m190.12,160.48H-89.05c-.15,0-.28-.12-.28-.28s.12-.28.28-.28H190.12c.15,0,.28.12.28.28s-.12.28-.28.28Z"/>
          <path class="cls-2" d="m120.24,281.45c-.1,0-.19-.05-.24-.14L-19.62,39.49c-.08-.13-.03-.3.1-.38.13-.08.3-.03.38.1l139.61,241.81c.08.13.03.3-.1.38-.04.03-.09.04-.14.04Z"/>
          <path class="cls-2" d="m-19.17,281.45s-.1-.01-.14-.04c-.13-.08-.18-.25-.1-.38L120.2,39.22c.08-.13.25-.18.38-.1.13.08.18.25.1.38L-18.93,281.31c-.05.09-.15.14-.24.14Z"/>
          <path class="cls-2" d="m-70.14,230.39c-.1,0-.19-.05-.24-.14-.08-.13-.03-.3.1-.38L171.34,90.37c.13-.08.3-.03.38.1.08.13.03.3-.1.38L-70,230.35s-.09.04-.14.04Z"/>
          <path class="cls-2" d="m171.33,230.46s-.1-.01-.14-.04L-70.69,90.77c-.13-.08-.18-.25-.1-.38.08-.13.25-.18.38-.1l241.89,139.65c.13.08.18.25.1.38-.05.09-.15.14-.24.14Z"/>
          <path class="cls-2" d="m50.53,257.19c-37.86,0-70.65-10.92-97.46-32.46-21.8-17.52-34.77-38.13-41.8-52.34-.07-.14-.01-.31.13-.37.14-.07.3-.01.37.13,7.01,14.15,19.93,34.69,41.65,52.15,26.7,21.46,59.37,32.34,97.11,32.34s70.35-10.86,97.04-32.29c21.73-17.44,34.66-37.97,41.68-52.12.07-.14.24-.19.37-.13.14.07.19.24.13.37-7.04,14.2-20.02,34.81-41.83,52.31-26.79,21.51-59.56,32.41-97.39,32.41Z"/>
          <g>
            <path class="cls-2" d="m15.09,148.18c-.13,0-.25-.09-.27-.22l-.34-1.67-1.62.54c-.13.04-.26,0-.33-.12-.07-.11-.04-.26.06-.35l1.28-1.13-1.28-1.13c-.1-.09-.12-.23-.06-.35.07-.11.2-.17.33-.12l1.62.54.34-1.67c.03-.13.14-.22.27-.22s.25.09.27.22l.34,1.67,1.62-.54c.13-.04.26,0,.33.12.07.11.04.26-.06.35l-1.28,1.13,1.28,1.13c.1.09.12.23.06.35-.07.12-.2.17-.33.12l-1.62-.54-.34,1.67c-.03.13-.14.22-.27.22Zm-.4-2.54s.1.01.14.04c.07.04.12.11.13.19l.13.63.13-.63c.02-.08.06-.15.13-.19.07-.04.15-.05.23-.02l.61.21-.48-.43c-.06-.05-.09-.13-.09-.21s.03-.16.09-.21l.48-.43-.61.21c-.08.03-.16.02-.23-.02-.07-.04-.12-.11-.13-.19l-.13-.63-.13.63c-.02.08-.06.15-.13.19-.07.04-.15.05-.23.02l-.61-.21.48.43c.06.05.09.13.09.21s-.03.16-.09.21l-.48.43.61-.21s.06-.01.09-.01Z"/>
            <path class="cls-2" d="m5.74,133.36c-.13,0-.25-.09-.27-.22l-.34-1.67-1.62.54c-.13.04-.26,0-.33-.12-.07-.11-.04-.26.06-.35l1.28-1.13-1.28-1.13c-.1-.09-.12-.23-.06-.35.07-.11.2-.17.33-.12l1.62.54.34-1.67c.03-.13.14-.22.27-.22h0c.13,0,.25.09.27.22l.34,1.67,1.62-.54c.13-.04.26.01.33.12.07.11.04.26-.06.35l-1.28,1.13,1.28,1.13c.1.09.12.23.06.35-.07.11-.2.17-.33.12l-1.62-.54-.34,1.67c-.03.13-.14.22-.27.22Zm-.4-2.54s.1.01.14.04c.07.04.12.11.13.19l.13.63.13-.63c.02-.08.06-.15.13-.19.07-.04.15-.05.23-.02l.61.21-.48-.43c-.06-.05-.09-.13-.09-.21s.03-.16.09-.21l.48-.43-.61.21c-.08.03-.16.02-.23-.02-.07-.04-.12-.11-.13-.19l-.13-.63-.13.63c-.02.08-.06.15-.13.19-.07.04-.15.05-.23.02l-.61-.21.48.43c.06.05.09.13.09.21s-.03.16-.09.21l-.48.43.61-.2s.06-.01.09-.01Z"/>
            <path class="cls-2" d="m10.37,120.35c-.13,0-.25-.09-.27-.22l-.34-1.67-1.62.54c-.13.04-.26,0-.33-.12-.07-.11-.04-.26.06-.35l1.28-1.13-1.28-1.13c-.1-.09-.12-.23-.06-.35.07-.11.2-.17.33-.12l1.62.54.34-1.67c.03-.13.14-.22.27-.22s.25.09.27.22l.34,1.67,1.62-.54c.13-.04.26.01.33.12.07.11.04.26-.06.35l-1.28,1.13,1.28,1.13c.1.09.12.23.06.35-.07.11-.2.17-.33.12l-1.62-.54-.34,1.67c-.03.13-.14.22-.27.22Zm-.4-2.54s.1.01.14.04c.07.04.12.11.13.19l.13.63.13-.63c.02-.08.06-.15.13-.19.07-.04.15-.05.23-.02l.61.21-.48-.43c-.06-.05-.09-.13-.09-.21s.03-.16.09-.21l.48-.43-.61.21c-.08.03-.16.02-.23-.02-.07-.04-.12-.11-.13-.19l-.13-.63-.13.63c-.02.08-.06.15-.13.19-.07.04-.15.05-.23.02l-.61-.21.48.43c.06.05.09.13.09.21s-.03.16-.09.21l-.48.43.61-.21s.06-.01.09-.01Z"/>
            <path class="cls-2" d="m-1.36,221.26c-.13,0-.25-.09-.27-.22l-.34-1.67-1.62.54c-.13.04-.26,0-.33-.12-.07-.11-.04-.26.06-.35l1.28-1.13-1.28-1.13c-.1-.09-.12-.23-.06-.35.07-.11.2-.17.33-.12l1.62.54.34-1.67c.03-.13.14-.22.27-.22s.25.09.27.22l.34,1.67,1.62-.54c.13-.04.26,0,.33.12.07.11.04.26-.06.35l-1.28,1.13,1.28,1.13c.1.09.12.23.06.35-.07.12-.2.17-.33.12l-1.62-.54-.34,1.67c-.03.13-.14.22-.27.22Zm-.4-2.54s.1.01.14.04c.07.04.12.11.13.19l.13.63.13-.63c.02-.08.06-.15.13-.19.07-.04.15-.05.23-.02l.61.21-.48-.43c-.06-.05-.09-.13-.09-.21s.03-.16.09-.21l.48-.43-.61.21c-.08.03-.16.02-.23-.02-.07-.04-.12-.11-.13-.19l-.13-.63-.13.63c-.02.08-.06.15-.13.19-.07.04-.15.05-.23.02l-.61-.21.48.43c.06.05.09.13.09.21s-.03.16-.09.21l-.48.43.61-.21s.06-.01.09-.01Z"/>
            <path class="cls-2" d="m4.1,203.52c-.13,0-.25-.09-.27-.22l-.34-1.67-1.62.54c-.13.04-.26,0-.33-.12-.07-.11-.04-.26.06-.35l1.28-1.13-1.28-1.13c-.1-.09-.12-.23-.06-.35.07-.11.2-.17.33-.12l1.62.54.34-1.67c.03-.13.14-.22.27-.22h0c.13,0,.25.09.27.22l.34,1.67,1.62-.54c.13-.04.26.01.33.12.07.11.04.26-.06.35l-1.28,1.13,1.28,1.13c.1.09.12.23.06.35-.07.11-.2.17-.33.12l-1.62-.54-.34,1.67c-.03.13-.14.22-.27.22Zm-.4-2.54s.1.01.14.04c.07.04.12.11.13.19l.13.63.13-.63c.02-.08.06-.15.13-.19.07-.04.15-.05.23-.02l.61.21-.48-.43c-.06-.05-.09-.13-.09-.21s.03-.16.09-.21l.48-.43-.61.21c-.08.03-.16.02-.23-.02-.07-.04-.12-.11-.13-.19l-.13-.63-.13.63c-.02.08-.06.15-.13.19-.07.04-.15.05-.23.02l-.61-.21.48.43c.06.05.09.13.09.21s-.03.16-.09.21l-.48.43.61-.21s.06-.01.09-.01Z"/>
            <path class="cls-2" d="m31.17,209.96c-.13,0-.25-.09-.27-.22l-.34-1.67-1.62.54c-.12.04-.26,0-.33-.12-.07-.11-.04-.26.06-.35l1.28-1.13-1.28-1.13c-.1-.09-.12-.23-.06-.35.07-.11.2-.17.33-.12l1.62.54.34-1.67c.03-.13.14-.22.27-.22s.25.09.27.22l.34,1.67,1.62-.54c.13-.04.26.01.33.12.07.11.04.26-.06.35l-1.28,1.13,1.28,1.13c.1.09.12.23.06.35-.07.11-.2.17-.33.12l-1.62-.54-.34,1.67c-.03.13-.14.22-.27.22Zm-.4-2.54s.1.01.14.04c.07.04.12.11.13.19l.13.63.13-.63c.02-.08.06-.15.13-.19.07-.04.15-.05.23-.02l.61.21-.48-.43c-.06-.05-.09-.13-.09-.21s.03-.16.09-.21l.48-.43-.61.21c-.08.03-.16.02-.23-.02-.07-.04-.12-.11-.13-.19l-.13-.63-.13.63c-.02.08-.06.15-.13.19-.07.04-.15.05-.23.02l-.61-.21.48.43c.06.05.09.13.09.21s-.03.16-.09.21l-.48.43.61-.21s.06-.01.09-.01Z"/>
            <path class="cls-2" d="m74.24,190.45c-.13,0-.25-.09-.27-.22l-.34-1.67-1.62.54c-.12.04-.26,0-.33-.12-.07-.11-.04-.26.06-.35l1.28-1.13-1.28-1.13c-.1-.09-.12-.23-.06-.35.07-.11.2-.17.33-.12l1.62.54.34-1.67c.03-.13.14-.22.27-.22s.25.09.27.22l.34,1.67,1.62-.54c.13-.04.26,0,.33.12.07.11.04.26-.06.35l-1.28,1.13,1.28,1.13c.1.09.12.23.06.35-.07.11-.2.17-.33.12l-1.62-.54-.34,1.67c-.03.13-.14.22-.27.22Zm-.4-2.54s.1.01.14.04c.07.04.12.11.13.19l.13.63.13-.63c.02-.08.06-.15.13-.19.07-.04.15-.05.23-.02l.61.21-.48-.43c-.06-.05-.09-.13-.09-.21s.03-.16.09-.21l.48-.43-.61.21c-.08.03-.16.02-.23-.02-.07-.04-.12-.11-.13-.19l-.13-.63-.13.63c-.02.08-.06.15-.13.19-.07.04-.15.05-.23.02l-.61-.21.48.43c.06.05.09.13.09.21s-.03.16-.09.21l-.48.43.61-.21s.06-.01.09-.01Z"/>
            <path class="cls-2" d="m107.69,222.12c-.13,0-.25-.09-.27-.22l-.34-1.67-1.62.54c-.13.04-.26,0-.33-.12-.07-.11-.04-.26.06-.35l1.28-1.13-1.28-1.13c-.1-.09-.12-.23-.06-.35.07-.11.2-.17.33-.12l1.62.54.34-1.67c.03-.13.14-.22.27-.22s.25.09.27.22l.34,1.67,1.62-.54c.13-.04.26.01.33.12.07.11.04.26-.06.35l-1.28,1.13,1.28,1.13c.1.09.12.23.06.35-.07.11-.2.17-.33.12l-1.62-.54-.34,1.67c-.03.13-.14.22-.27.22Zm-.4-2.54s.1.01.14.04c.07.04.12.11.13.19l.13.63.13-.63c.02-.08.06-.15.13-.19.07-.04.15-.05.23-.02l.61.21-.48-.43c-.06-.05-.09-.13-.09-.21s.03-.16.09-.21l.48-.43-.61.21c-.08.03-.16.02-.23-.02s-.12-.11-.13-.19l-.13-.63-.13.63c-.02.08-.06.15-.13.19-.07.04-.15.05-.23.02l-.61-.21.48.43c.06.05.09.13.09.21s-.03.16-.09.21l-.48.43.61-.21s.06-.01.09-.01Z"/>
            <path class="cls-2" d="m151.8,184.48c-.13,0-.25-.09-.27-.22l-.34-1.67-1.62.54c-.13.04-.26,0-.33-.12-.07-.11-.04-.26.06-.35l1.28-1.13-1.28-1.13c-.1-.09-.12-.23-.06-.35.07-.11.2-.17.33-.12l1.62.54.34-1.67c.03-.13.14-.22.27-.22h0c.13,0,.25.09.27.22l.34,1.67,1.62-.54c.13-.04.26.01.33.12s.04.26-.06.35l-1.28,1.13,1.28,1.13c.1.09.12.23.06.35-.07.11-.2.17-.33.12l-1.62-.54-.34,1.67c-.03.13-.14.22-.27.22Zm-.4-2.54s.1.01.14.04c.07.04.12.11.13.19l.13.63.13-.63c.02-.08.06-.15.13-.19.07-.04.15-.05.23-.02l.61.21-.48-.43c-.06-.05-.09-.13-.09-.21s.03-.16.09-.21l.48-.43-.61.21c-.08.03-.16.02-.23-.02-.07-.04-.12-.11-.13-.19l-.13-.63-.13.63c-.02.08-.06.15-.13.19-.07.04-.15.05-.23.02l-.61-.21.48.43c.06.05.09.13.09.21s-.03.16-.09.21l-.48.43.61-.21s.06-.01.09-.01Z"/>
            <path class="cls-2" d="m168.35,154.25h0c-.13,0-.25-.09-.27-.22l-.34-1.67-1.62.54c-.12.04-.26,0-.33-.12-.07-.11-.04-.26.06-.35l1.28-1.13-1.28-1.13c-.1-.09-.12-.23-.06-.35.07-.11.2-.17.33-.12l1.62.54.34-1.67c.03-.13.14-.22.27-.22s.25.09.27.22l.34,1.67,1.62-.54c.13-.04.26.01.33.12.07.11.04.26-.06.35l-1.28,1.13,1.28,1.13c.1.09.12.23.06.35-.07.11-.2.17-.33.12l-1.62-.54-.34,1.67c-.03.13-.14.22-.27.22Zm-.4-2.54s.1.01.14.04c.07.04.12.11.13.19l.13.63.13-.63c.02-.08.06-.15.13-.19.07-.04.15-.05.23-.02l.61.21-.48-.43c-.06-.05-.09-.13-.09-.21s.03-.16.09-.21l.48-.43-.61.21c-.08.03-.16.02-.23-.02s-.12-.11-.13-.19l-.13-.63-.13.63c-.02.08-.06.15-.13.19-.07.04-.15.05-.23.02l-.61-.21.48.43c.06.05.09.13.09.21s-.03.16-.09.21l-.48.43.61-.21s.06-.01.09-.01Z"/>
            <path class="cls-2" d="m153.77,97.17c-.13,0-.25-.09-.27-.22l-.34-1.67-1.62.54c-.13.04-.26,0-.33-.12-.07-.11-.04-.26.06-.35l1.28-1.13-1.28-1.13c-.1-.09-.12-.23-.06-.35.07-.11.2-.17.33-.12l1.62.54.34-1.67c.03-.13.14-.22.27-.22s.25.09.27.22l.34,1.67,1.62-.54c.13-.04.26.01.33.12.07.11.04.26-.06.35l-1.28,1.13,1.28,1.13c.1.09.12.23.06.35-.07.11-.2.17-.33.12l-1.62-.54-.34,1.67c-.03.13-.14.22-.27.22Zm-.4-2.54s.1.01.14.04c.07.04.12.11.13.19l.13.63.13-.63c.02-.08.06-.15.13-.19.07-.04.15-.05.23-.02l.61.21-.48-.43c-.06-.05-.09-.13-.09-.21s.03-.16.09-.21l.48-.43-.61.21c-.08.03-.16.02-.23-.02s-.12-.11-.13-.19l-.13-.63-.13.63c-.02.08-.06.15-.13.19-.07.04-.15.05-.23.02l-.61-.21.48.43c.06.05.09.13.09.21s-.03.16-.09.21l-.48.43.61-.21s.06-.01.09-.01Z"/>
            <path class="cls-2" d="m129.6,129.81h0c-.13,0-.25-.09-.27-.22l-.34-1.67-1.62.54c-.13.04-.26,0-.33-.12-.07-.11-.04-.26.06-.35l1.28-1.13-1.28-1.13c-.1-.09-.12-.23-.06-.35.07-.11.2-.17.33-.12l1.62.54.34-1.67c.03-.13.14-.22.27-.22s.25.09.27.22l.34,1.67,1.62-.54c.13-.04.26.01.33.12.07.11.04.26-.06.35l-1.28,1.13,1.28,1.13c.1.09.12.23.06.35-.07.12-.2.17-.33.12l-1.62-.54-.34,1.67c-.03.13-.14.22-.27.22Zm-.4-2.54s.1.01.14.04c.07.04.12.11.13.19l.13.63.13-.63c.02-.08.06-.15.13-.19.07-.04.15-.05.23-.02l.61.21-.48-.43c-.06-.05-.09-.13-.09-.21s.03-.16.09-.21l.48-.43-.61.21c-.08.03-.16.02-.23-.02s-.12-.11-.13-.19l-.13-.63-.13.63c-.02.08-.06.15-.13.19-.07.04-.15.05-.23.02l-.61-.21.48.43c.06.05.09.13.09.21s-.03.16-.09.21l-.48.43.61-.21s.06-.01.09-.01Z"/>
            <path class="cls-2" d="m95.86,91.89c-.13,0-.25-.09-.27-.22l-.34-1.67-1.62.54c-.12.04-.26,0-.33-.12-.07-.11-.04-.26.06-.35l1.28-1.13-1.28-1.13c-.1-.09-.12-.23-.06-.35.07-.11.2-.17.33-.12l1.62.54.34-1.67c.03-.13.14-.22.27-.22s.25.09.27.22l.34,1.67,1.62-.54c.13-.04.26,0,.33.12.07.11.04.26-.06.35l-1.28,1.13,1.28,1.13c.1.09.12.23.06.35-.07.11-.2.17-.33.12l-1.62-.54-.34,1.67c-.03.13-.14.22-.27.22Zm-.4-2.54s.1.01.14.04c.07.04.12.11.13.19l.13.63.13-.63c.02-.08.06-.15.13-.19.07-.04.15-.05.23-.02l.61.21-.48-.43c-.06-.05-.09-.13-.09-.21s.03-.16.09-.21l.48-.43-.61.21c-.08.03-.16.02-.23-.02-.07-.04-.12-.11-.13-.19l-.13-.63-.13.63c-.02.08-.06.15-.13.19-.07.04-.15.05-.23.02l-.61-.21.48.43c.06.05.09.13.09.21s-.03.16-.09.21l-.48.43.61-.21s.06-.01.09-.01Z"/>
            <path class="cls-2" d="m93.59,155.13c-.13,0-.25-.09-.27-.22l-.34-1.67-1.62.54c-.12.04-.26,0-.33-.12-.07-.11-.04-.26.06-.35l1.28-1.13-1.28-1.13c-.1-.09-.12-.23-.06-.35.07-.11.2-.17.33-.12l1.62.54.34-1.67c.03-.13.14-.22.27-.22s.25.09.27.22l.34,1.67,1.62-.54c.13-.04.26,0,.33.12.07.11.04.26-.06.35l-1.28,1.13,1.28,1.13c.1.09.12.23.06.35-.07.11-.2.17-.33.12l-1.62-.54-.34,1.67c-.03.13-.14.22-.27.22Zm-.4-2.54s.1.01.14.04c.07.04.12.11.13.19l.13.63.13-.63c.02-.08.06-.15.13-.19.07-.04.15-.05.23-.02l.61.21-.48-.43c-.06-.05-.09-.13-.09-.21s.03-.16.09-.21l.48-.43-.61.21c-.08.03-.16.02-.23-.02s-.12-.11-.13-.19l-.13-.63-.13.63c-.02.08-.06.15-.13.19-.07.04-.15.05-.23.02l-.61-.21.48.43c.06.05.09.13.09.21s-.03.16-.09.21l-.48.43.61-.21s.06-.01.09-.01Z"/>
            <path class="cls-2" d="m73.84,69.48c-.13,0-.25-.09-.27-.22l-.34-1.67-1.62.54c-.13.04-.26,0-.33-.12-.07-.11-.04-.26.06-.35l1.28-1.13-1.28-1.13c-.1-.09-.12-.23-.06-.35.07-.11.2-.17.33-.12l1.62.54.34-1.67c.03-.13.14-.22.27-.22s.25.09.27.22l.34,1.67,1.62-.54c.13-.04.26,0,.33.12.07.11.04.26-.06.35l-1.28,1.13,1.28,1.13c.1.09.12.23.06.35-.07.11-.2.17-.33.12l-1.62-.54-.34,1.67c-.03.13-.14.22-.27.22Zm-.4-2.54s.1.01.14.04c.07.04.12.11.13.19l.13.63.13-.63c.02-.08.06-.15.13-.19.07-.04.15-.05.23-.02l.61.21-.48-.43c-.06-.05-.09-.13-.09-.21s.03-.16.09-.21l.48-.43-.61.21c-.08.03-.16.02-.23-.02s-.12-.11-.13-.19l-.13-.63-.13.63c-.02.08-.06.15-.13.19-.07.04-.15.05-.23.02l-.61-.21.48.43c.06.05.09.13.09.21s-.03.16-.09.21l-.48.43.61-.21s.06-.01.09-.01Z"/>
            <path class="cls-2" d="m61.29,50.18c-.13,0-.25-.09-.27-.22l-.34-1.67-1.62.54c-.13.04-.26,0-.33-.12-.07-.11-.04-.26.06-.35l1.28-1.13-1.28-1.13c-.1-.09-.12-.23-.06-.35.07-.11.2-.17.33-.12l1.62.54.34-1.67c.03-.13.14-.22.27-.22h0c.13,0,.25.09.27.22l.34,1.67,1.62-.54c.13-.04.26,0,.33.12.07.11.04.26-.06.35l-1.28,1.13,1.28,1.13c.1.09.12.23.06.35-.07.11-.2.17-.33.12l-1.62-.54-.34,1.67c-.03.13-.14.22-.27.22Zm-.4-2.54s.1.01.14.04c.07.04.12.11.13.19l.13.63.13-.63c.02-.08.06-.15.13-.19.07-.04.15-.05.23-.02l.61.21-.48-.43c-.06-.05-.09-.13-.09-.21s.03-.16.09-.21l.48-.43-.61.21c-.08.03-.16.02-.23-.02-.07-.04-.12-.11-.13-.19l-.13-.63-.13.63c-.02.08-.06.15-.13.19-.07.04-.15.05-.23.02l-.61-.21.48.43c.06.05.09.13.09.21s-.03.16-.09.21l-.48.43.61-.21s.06-.01.09-.01Z"/>
            <path class="cls-2" d="m79.64,32.24c-.13,0-.25-.09-.27-.22l-.34-1.67-1.62.54c-.13.04-.26,0-.33-.12-.07-.11-.04-.26.06-.35l1.28-1.13-1.28-1.13c-.1-.09-.12-.23-.06-.35.07-.11.2-.17.33-.12l1.62.54.34-1.67c.03-.13.14-.22.27-.22s.25.09.27.22l.34,1.67,1.62-.54c.13-.04.26.01.33.12.07.11.04.26-.06.35l-1.28,1.13,1.28,1.13c.1.09.12.23.06.35-.07.11-.2.17-.33.12l-1.62-.54-.34,1.67c-.03.13-.14.22-.27.22Zm-.4-2.54s.1.01.14.04c.07.04.12.11.13.19l.13.63.13-.63c.02-.08.06-.15.13-.19.07-.04.15-.05.23-.02l.61.21-.48-.43c-.06-.05-.09-.13-.09-.21s.03-.16.09-.21l.48-.43-.61.21c-.08.03-.16.02-.23-.02-.07-.04-.12-.11-.13-.19l-.13-.63-.13.63c-.02.08-.06.15-.13.19-.07.04-.15.05-.23.02l-.61-.21.48.43c.06.05.09.13.09.21s-.03.16-.09.21l-.48.43.61-.21s.06-.01.09-.01Z"/>
            <path class="cls-2" d="m19.37,46.31c-.13,0-.25-.09-.27-.22l-.34-1.67-1.62.54c-.13.04-.26,0-.33-.12-.07-.11-.04-.26.06-.35l1.28-1.13-1.28-1.13c-.1-.09-.12-.23-.06-.35.07-.11.2-.17.33-.12l1.62.54.34-1.67c.03-.13.14-.22.27-.22s.25.09.27.22l.34,1.67,1.62-.54c.13-.04.26.01.33.12.07.11.04.26-.06.35l-1.28,1.13,1.28,1.13c.1.09.12.23.06.35-.07.11-.2.17-.33.12l-1.62-.54-.34,1.67c-.03.13-.14.22-.27.22Zm-.4-2.54s.1.01.14.04c.07.04.12.11.13.19l.13.63.13-.63c.02-.08.06-.15.13-.19.07-.04.15-.05.23-.02l.61.21-.48-.43c-.06-.05-.09-.13-.09-.21s.03-.16.09-.21l.48-.43-.61.21c-.08.03-.16.02-.23-.02s-.12-.11-.13-.19l-.13-.63-.13.63c-.02.08-.06.15-.13.19-.07.04-.15.05-.23.02l-.61-.21.48.43c.06.05.09.13.09.21s-.03.16-.09.21l-.48.43.61-.21s.06-.01.09-.01Z"/>
            <path class="cls-2" d="m57.88,131.43c-.13,0-.25-.09-.27-.22l-.34-1.67-1.62.54c-.13.04-.26,0-.33-.12-.07-.11-.04-.26.06-.35l1.28-1.13-1.28-1.13c-.1-.09-.12-.23-.06-.35.07-.11.2-.17.33-.12l1.62.54.34-1.67c.03-.13.14-.22.27-.22s.25.09.27.22l.34,1.67,1.62-.54c.13-.04.26.01.33.12.07.11.04.26-.06.35l-1.28,1.13,1.28,1.13c.1.09.12.23.06.35-.07.11-.2.17-.33.12l-1.62-.54-.34,1.67c-.03.13-.14.22-.27.22Zm-.4-2.54s.1.01.14.04c.07.04.12.11.13.19l.13.63.13-.63c.02-.08.06-.15.13-.19.07-.04.15-.05.23-.02l.61.21-.48-.43c-.06-.05-.09-.13-.09-.21s.03-.16.09-.21l.48-.43-.61.21c-.08.03-.16.02-.23-.02-.07-.04-.12-.11-.13-.19l-.13-.63-.13.63c-.02.08-.06.15-.13.19-.07.04-.15.05-.23.02l-.61-.21.48.43c.06.05.09.13.09.21s-.03.16-.09.21l-.48.43.61-.21s.06-.01.09-.01Z"/>
            <path class="cls-2" d="m154.02,228.58h0c-.13,0-.25-.09-.27-.22l-.34-1.67-1.62.54c-.13.04-.26,0-.33-.12-.07-.11-.04-.26.06-.35l1.28-1.13-1.28-1.13c-.1-.09-.12-.23-.06-.35.07-.11.2-.17.33-.12l1.62.54.34-1.67c.03-.13.14-.22.27-.22s.25.09.27.22l.34,1.67,1.62-.54c.13-.04.26.01.33.12.07.11.04.26-.06.35l-1.28,1.13,1.28,1.13c.1.09.12.23.06.35-.07.11-.2.17-.33.12l-1.62-.54-.34,1.67c-.03.13-.14.22-.27.22Zm-.4-2.54s.1.01.14.04c.07.04.12.11.13.19l.13.63.13-.63c.02-.08.06-.15.13-.19s.15-.05.23-.02l.61.2-.48-.43c-.06-.05-.09-.13-.09-.21s.03-.16.09-.21l.48-.43-.61.21c-.08.03-.16.02-.23-.02-.07-.04-.12-.11-.13-.19l-.13-.63-.13.63c-.02.08-.06.15-.13.19-.07.04-.15.05-.23.02l-.61-.21.48.43c.06.05.09.13.09.21s-.03.16-.09.21l-.48.43.61-.21s.06-.01.09-.01Z"/>
            <path class="cls-2" d="m153.38,198.95c-.13,0-.25-.09-.27-.22l-.34-1.67-1.62.54c-.13.04-.26,0-.33-.12-.07-.11-.04-.26.06-.35l1.28-1.13-1.28-1.13c-.1-.09-.12-.23-.06-.35.07-.11.2-.17.33-.12l1.62.54.34-1.67c.03-.13.14-.22.27-.22s.25.09.27.22l.34,1.67,1.62-.54c.13-.04.26,0,.33.12.07.11.04.26-.06.35l-1.28,1.13,1.28,1.13c.1.09.12.23.06.35-.07.11-.2.17-.33.12l-1.62-.54-.34,1.67c-.03.13-.14.22-.27.22Zm-.4-2.54s.1.01.14.04c.07.04.12.11.13.19l.13.63.13-.63c.02-.08.06-.15.13-.19.07-.04.15-.05.23-.02l.61.21-.48-.43c-.06-.05-.09-.13-.09-.21s.03-.16.09-.21l.48-.43-.61.21c-.08.03-.16.02-.23-.02-.07-.04-.12-.11-.13-.19l-.13-.63-.13.63c-.02.08-.06.15-.13.19-.07.04-.15.05-.23.02l-.61-.21.48.43c.06.05.09.13.09.21s-.03.16-.09.21l-.48.43.61-.21s.06-.01.09-.01Z"/>
            <path class="cls-2" d="m135.45,219.01c-.13,0-.25-.09-.27-.22l-.34-1.67-1.62.54c-.13.04-.26,0-.33-.12-.07-.11-.04-.26.06-.35l1.28-1.13-1.28-1.13c-.1-.09-.12-.23-.06-.35.07-.11.2-.17.33-.12l1.62.54.34-1.67c.03-.13.14-.22.27-.22s.25.09.27.22l.34,1.67,1.62-.54c.13-.04.26,0,.33.12.07.11.04.26-.06.35l-1.28,1.13,1.28,1.13c.1.09.12.23.06.35-.07.11-.2.17-.33.12l-1.62-.54-.34,1.67c-.03.13-.14.22-.27.22Zm-.4-2.54s.1.01.14.04c.07.04.12.11.13.19l.13.63.13-.63c.02-.08.06-.15.13-.19.07-.04.15-.05.23-.02l.61.21-.48-.43c-.06-.05-.09-.13-.09-.21s.03-.16.09-.21l.48-.43-.61.21c-.08.03-.16.02-.23-.02s-.12-.11-.13-.19l-.13-.63-.13.63c-.02.08-.06.15-.13.19-.07.04-.15.05-.23.02l-.61-.21.48.43c.06.05.09.13.09.21s-.03.16-.09.21l-.48.43.61-.21s.06-.01.09-.01Z"/>
            <path class="cls-2" d="m26.85,163.92c-.15,0-.28-.12-.28-.28,0-.66-.71-.96-.73-.98-.1-.04-.17-.15-.17-.26,0-.11.07-.21.17-.26.03-.01.73-.32.73-.98,0-.15.12-.28.28-.28s.28.12.28.28c0,.66.71.96.74.98.1.04.17.15.17.26,0,.11-.07.21-.17.26-.03.01-.73.32-.73.97,0,.15-.12.28-.28.28Zm-.37-1.51c.13.1.26.22.37.38.11-.16.25-.28.37-.38-.13-.1-.26-.22-.37-.38-.11.16-.25.28-.37.38Z"/>
            <path class="cls-2" d="m145.2,200.98c-.15,0-.28-.12-.28-.28,0-.66-.71-.96-.74-.98-.1-.04-.17-.15-.17-.26,0-.11.07-.21.17-.26.03-.01.73-.32.73-.97,0-.15.12-.28.28-.28s.28.12.28.28c0,.66.71.96.73.98.1.04.17.15.17.26,0,.11-.07.21-.17.26-.03.01-.73.32-.73.98,0,.15-.12.28-.28.28Zm-.37-1.51c.13.1.26.22.37.38.11-.16.25-.28.37-.38-.13-.1-.26-.22-.37-.38-.11.16-.25.28-.37.38Z"/>
            <path class="cls-2" d="m163.33,221.99c-.15,0-.28-.12-.28-.28,0-.66-.7-.96-.73-.98-.1-.04-.17-.15-.17-.26,0-.11.07-.21.17-.26.03-.01.73-.32.73-.98,0-.15.12-.28.28-.28s.28.12.28.28c0,.66.71.96.74.98.1.04.17.15.17.26,0,.11-.07.21-.17.26-.03.01-.73.32-.73.97,0,.15-.12.28-.28.28Zm-.37-1.51c.13.1.26.22.37.38.11-.16.25-.28.37-.38-.13-.1-.26-.22-.37-.38-.11.16-.25.28-.37.38Z"/>
            <path class="cls-2" d="m155.7,128.73c-.15,0-.28-.12-.28-.28,0-.66-.71-.96-.74-.98-.1-.04-.17-.15-.17-.26,0-.11.07-.21.17-.26.03-.01.73-.32.73-.97,0-.15.12-.28.28-.28s.28.12.28.28c0,.66.71.96.74.98.1.04.17.15.17.26,0,.11-.07.21-.17.26-.03.01-.73.32-.73.98,0,.15-.12.28-.28.28Zm-.37-1.51c.13.1.26.22.37.38.11-.16.25-.28.37-.38-.13-.1-.26-.22-.37-.38-.11.16-.25.28-.37.38Z"/>
            <path class="cls-2" d="m119.1,106.02c-.15,0-.28-.12-.28-.28,0-.66-.71-.96-.74-.98-.1-.04-.17-.15-.17-.26,0-.11.07-.21.17-.26.03-.01.73-.32.73-.97,0-.15.12-.28.28-.28s.28.12.28.28c0,.66.71.96.73.98.1.04.17.15.17.26,0,.11-.07.21-.17.26-.03.01-.73.32-.73.98,0,.15-.12.28-.28.28Zm-.37-1.51c.13.1.26.22.37.38.11-.16.25-.28.37-.38-.13-.1-.26-.22-.37-.38-.11.16-.25.28-.37.38Z"/>
            <path class="cls-2" d="m113.44,82.97c-.15,0-.28-.12-.28-.28,0-.66-.73-.97-.73-.98-.1-.04-.17-.14-.17-.26s.07-.21.17-.26c.03-.01.73-.32.73-.98,0-.15.12-.28.28-.28s.28.12.28.28c0,.66.73.97.73.98.1.04.17.14.17.26s-.07.21-.17.26c-.03.01-.73.32-.73.98,0,.15-.12.28-.28.28Zm-.37-1.51c.13.1.26.22.37.38.11-.16.25-.28.37-.38-.13-.1-.26-.22-.37-.38-.11.16-.25.28-.37.38Z"/>
            <path class="cls-2" d="m94.5,104.98c-.15,0-.28-.12-.28-.28,0-.66-.73-.97-.73-.98-.1-.04-.17-.14-.17-.26s.07-.21.17-.26c.03-.01.73-.32.73-.98,0-.15.12-.28.28-.28s.28.12.28.28c0,.66.73.97.73.98.1.04.17.14.17.26s-.07.21-.17.26c-.03.01-.73.32-.73.98,0,.15-.12.28-.28.28Zm-.37-1.51c.13.1.26.22.37.38.11-.16.25-.28.37-.38-.13-.1-.26-.22-.37-.38-.11.16-.25.28-.37.38Z"/>
            <path class="cls-2" d="m123.08,169.65c-.15,0-.28-.12-.28-.28,0-.66-.71-.96-.74-.98-.1-.04-.17-.15-.17-.26,0-.11.07-.21.17-.26.03-.01.73-.32.73-.97,0-.15.12-.28.28-.28s.28.12.28.28c0,.66.71.96.73.98.1.04.17.15.17.26,0,.11-.07.21-.17.26-.03.01-.73.32-.73.98,0,.15-.12.28-.28.28Zm-.37-1.51c.13.1.26.22.37.38.11-.16.25-.28.37-.38-.13-.1-.26-.22-.37-.38-.11.16-.25.28-.37.38Z"/>
            <path class="cls-2" d="m105.37,175.49c-.15,0-.28-.12-.28-.28,0-.66-.71-.96-.74-.98-.1-.04-.17-.15-.17-.26,0-.11.07-.21.17-.26.03-.01.73-.32.73-.97,0-.15.12-.28.28-.28s.28.12.28.28c0,.66.71.96.74.98.1.04.17.15.17.26,0,.11-.07.21-.17.26-.03.01-.73.32-.73.98,0,.15-.12.28-.28.28Zm-.37-1.51c.13.1.26.22.37.38.11-.16.25-.28.37-.38-.13-.1-.26-.22-.37-.38-.11.16-.25.28-.37.38Z"/>
            <path class="cls-2" d="m82.9,173.78c-.15,0-.28-.12-.28-.28,0-.66-.71-.96-.74-.98-.1-.04-.17-.15-.17-.26,0-.11.07-.21.17-.26.03-.01.73-.32.73-.97,0-.15.12-.28.28-.28s.28.12.28.28c0,.66.7.96.73.98.1.04.17.15.17.26,0,.11-.07.21-.17.26-.03.01-.73.32-.73.98,0,.15-.12.28-.28.28Zm-.37-1.51c.13.1.26.22.37.38.11-.16.25-.28.37-.38-.13-.1-.26-.22-.37-.38-.11.16-.25.28-.37.38Z"/>
            <path class="cls-2" d="m97.07,125.34c-.15,0-.28-.12-.28-.28,0-.66-.71-.96-.74-.98-.1-.04-.17-.15-.17-.26,0-.11.07-.21.17-.26.03-.01.73-.32.73-.97,0-.15.12-.28.28-.28s.28.12.28.28c0,.66.71.96.74.98.1.04.17.15.17.26,0,.11-.07.21-.17.26-.03.01-.73.32-.73.98,0,.15-.12.28-.28.28Zm-.37-1.51c.13.1.26.22.37.38.11-.16.25-.28.37-.38-.13-.1-.26-.22-.37-.38-.11.16-.25.28-.37.38Z"/>
            <path class="cls-2" d="m34.16,96.73c-.15,0-.28-.12-.28-.28,0-.66-.71-.96-.74-.98-.1-.04-.17-.15-.17-.26,0-.11.07-.21.17-.26.03-.01.73-.32.73-.97,0-.15.12-.28.28-.28s.28.12.28.28c0,.66.7.96.73.98.1.04.17.15.17.26,0,.11-.07.21-.17.26-.03.01-.73.32-.73.98,0,.15-.12.28-.28.28Zm-.37-1.51c.13.1.26.22.37.38.11-.16.25-.28.37-.38-.13-.1-.26-.22-.37-.38-.11.16-.25.28-.37.38Z"/>
            <path class="cls-2" d="m30.93,108.94c-.15,0-.28-.12-.28-.28,0-.66-.71-.96-.74-.98-.1-.04-.17-.15-.17-.26,0-.11.07-.21.17-.26.03-.01.73-.32.73-.97,0-.15.12-.28.28-.28s.28.12.28.28c0,.66.71.96.74.98.1.04.17.15.17.26,0,.11-.07.21-.17.26-.03.01-.73.32-.73.98,0,.15-.12.28-.28.28Zm-.37-1.51c.13.1.26.22.37.38.11-.16.25-.28.37-.38-.13-.1-.26-.22-.37-.38-.11.16-.25.28-.37.38Z"/>
            <path class="cls-2" d="m45.41,181.42c-.15,0-.28-.12-.28-.28,0-.66-.71-.96-.74-.98-.1-.04-.17-.15-.17-.26,0-.11.07-.21.17-.26.03-.01.73-.32.73-.98,0-.15.12-.28.28-.28s.28.12.28.28c0,.66.71.96.74.98.1.04.17.15.17.26,0,.11-.07.21-.17.26-.03.01-.73.32-.73.97,0,.15-.12.28-.28.28Zm-.37-1.51c.13.1.26.22.37.38.11-.16.25-.28.37-.38-.13-.1-.26-.22-.37-.38-.11.16-.25.28-.37.38Z"/>
            <path class="cls-2" d="m56.33,175.95c-.15,0-.28-.12-.28-.28,0-.66-.71-.96-.74-.98-.1-.04-.17-.15-.17-.26,0-.11.07-.21.17-.26.03-.01.73-.32.73-.98,0-.15.12-.28.28-.28s.28.12.28.28c0,.66.73.97.73.98.1.04.17.14.17.26s-.07.21-.17.26c-.03.01-.73.32-.73.97,0,.15-.12.28-.28.28Zm-.37-1.51c.13.1.26.22.37.38.11-.16.25-.28.37-.38-.13-.1-.26-.22-.37-.38-.11.16-.25.28-.37.38Z"/>
            <path class="cls-2" d="m83.8,198.17c-.15,0-.28-.12-.28-.28,0-.66-.73-.97-.73-.98-.1-.04-.17-.14-.17-.26s.07-.21.17-.26c.03-.01.73-.32.73-.98,0-.15.12-.28.28-.28s.28.12.28.28c0,.66.73.97.73.98.1.04.17.14.17.26s-.07.21-.17.26c-.03.01-.73.32-.73.98,0,.15-.12.28-.28.28Zm-.37-1.51c.13.1.26.22.37.38.11-.16.25-.28.37-.38-.13-.1-.26-.22-.37-.38-.11.16-.25.28-.37.38Z"/>
            <path class="cls-2" d="m86.29,191.92c-.15,0-.28-.12-.28-.28,0-.66-.71-.96-.74-.98-.1-.04-.17-.15-.17-.26,0-.11.07-.21.17-.26.03-.01.73-.32.73-.97,0-.15.12-.28.28-.28s.28.12.28.28c0,.66.7.96.73.98.1.04.17.15.17.26,0,.11-.07.21-.17.26-.03.01-.73.32-.73.98,0,.15-.12.28-.28.28Zm-.37-1.51c.13.1.26.22.37.38.11-.16.25-.28.37-.38-.13-.1-.26-.22-.37-.38-.11.16-.25.28-.37.38Z"/>
            <path class="cls-2" d="m64.36,206.57c-.15,0-.28-.12-.28-.28,0-.66-.71-.96-.74-.98-.1-.04-.17-.15-.17-.26,0-.11.07-.21.17-.26.03-.01.73-.32.73-.97,0-.15.12-.28.28-.28s.28.12.28.28c0,.66.71.96.73.98.1.04.17.15.17.26,0,.11-.07.21-.17.26-.03.01-.73.32-.73.98,0,.15-.12.28-.28.28Zm-.37-1.51c.13.1.26.22.37.38.11-.16.25-.28.37-.38-.13-.1-.26-.22-.37-.38-.11.16-.25.28-.37.38Z"/>
            <path class="cls-2" d="m22.58,183.35c-.15,0-.28-.12-.28-.28,0-.66-.7-.96-.73-.98-.1-.04-.17-.15-.17-.26,0-.11.07-.21.17-.26.03-.01.73-.32.73-.98,0-.15.12-.28.28-.28s.28.12.28.28c0,.66.71.96.74.98.1.04.17.15.17.26,0,.11-.07.21-.17.26-.03.01-.73.32-.73.97,0,.15-.12.28-.28.28Zm-.37-1.51c.13.1.26.22.37.38.11-.16.25-.28.37-.38-.13-.1-.26-.22-.37-.38-.11.16-.25.28-.37.38Z"/>
            <path class="cls-2" d="m8.95,180.88c-.15,0-.28-.12-.28-.28,0-.66-.71-.96-.74-.98-.1-.04-.17-.15-.17-.26,0-.11.07-.21.17-.26.03-.01.73-.32.73-.97,0-.15.12-.28.28-.28s.28.12.28.28c0,.66.71.96.73.98.1.04.17.15.17.26,0,.11-.07.21-.17.26-.03.01-.73.32-.73.98,0,.15-.12.28-.28.28Zm-.37-1.51c.13.1.26.22.37.38.11-.16.25-.28.37-.38-.13-.1-.26-.22-.37-.38-.11.16-.25.28-.37.38Z"/>
            <path class="cls-2" d="m-.26,174.71c-.15,0-.28-.12-.28-.28,0-.66-.71-.96-.74-.98-.1-.04-.17-.15-.17-.26,0-.11.07-.21.17-.26.03-.01.73-.32.73-.97,0-.15.12-.28.28-.28s.28.12.28.28c0,.66.71.96.73.98.1.04.17.15.17.26,0,.11-.07.21-.17.26-.03.01-.73.32-.73.98,0,.15-.12.28-.28.28Zm-.37-1.51c.13.1.26.22.37.38.11-.16.25-.28.37-.38-.13-.1-.26-.22-.37-.38-.11.16-.25.28-.37.38Z"/>
            <path class="cls-2" d="m10.91,40.36c-.15,0-.28-.12-.28-.28,0-.66-.71-.96-.74-.98-.1-.04-.17-.15-.17-.26,0-.11.07-.21.17-.26.03-.01.73-.32.73-.97,0-.15.12-.28.28-.28s.28.12.28.28c0,.66.71.96.73.98.1.04.17.15.17.26,0,.11-.07.21-.17.26-.03.01-.73.32-.73.98,0,.15-.12.28-.28.28Zm-.37-1.51c.13.1.26.22.37.38.11-.16.25-.28.37-.38-.13-.1-.26-.22-.37-.38-.11.16-.25.28-.37.38Z"/>
            <path class="cls-2" d="m83.83,55.25c-.15,0-.28-.12-.28-.28,0-.66-.73-.97-.73-.98-.1-.04-.17-.14-.17-.26s.07-.21.17-.26c.03-.01.73-.32.73-.98,0-.15.12-.28.28-.28s.28.12.28.28c0,.66.71.96.74.98.1.04.17.15.17.26,0,.11-.07.21-.17.26-.03.01-.73.32-.73.98,0,.15-.12.28-.28.28Zm-.37-1.51c.13.1.26.22.37.38.11-.16.25-.28.37-.38-.13-.1-.26-.22-.37-.38-.11.16-.25.28-.37.38Z"/>
            <path class="cls-2" d="m24.05,102.82c-.15,0-.28-.12-.28-.28,0-.66-.71-.96-.74-.98-.1-.04-.17-.15-.17-.26,0-.11.07-.21.17-.26.03-.01.73-.32.73-.98,0-.15.12-.28.28-.28s.28.12.28.28c0,.66.71.96.74.98.1.04.17.15.17.26,0,.11-.07.21-.17.26-.03.01-.73.32-.73.97,0,.15-.12.28-.28.28Zm-.37-1.51c.13.1.26.22.37.38.11-.16.25-.28.37-.38-.13-.1-.26-.22-.37-.38-.11.16-.25.28-.37.38Z"/>
          </g>
          <g>
            <path class="cls-2" d="m194.23,152.02c-.15,0-.27-.11-.28-.26,0-.15.11-.29.26-.29l6.25-.36c.15-.02.29.11.29.26s-.11.29-.26.29l-6.25.36s-.01,0-.02,0Z"/>
            <path class="cls-2" d="m193.63,144.75c-.14,0-.26-.11-.28-.25-.02-.15.09-.29.25-.31l6.22-.68c.15-.01.29.09.31.25.02.15-.09.29-.25.31l-6.22.68s-.02,0-.03,0Z"/>
            <path class="cls-2" d="m192.38,135.98c-.13,0-.25-.1-.27-.23-.03-.15.08-.3.23-.32l6.17-1.06c.15-.03.3.08.32.23.03.15-.08.3-.23.32l-6.17,1.06s-.03,0-.05,0Z"/>
            <path class="cls-2" d="m190.96,128.83c-.13,0-.24-.09-.27-.22-.03-.15.06-.3.21-.33l6.11-1.37c.15-.03.3.06.33.21.03.15-.06.3-.21.33l-6.11,1.37s-.04,0-.06,0Z"/>
            <path class="cls-2" d="m188.76,120.26c-.12,0-.23-.08-.27-.2-.04-.15.04-.3.19-.35l6.01-1.75c.15-.04.3.04.35.19.04.15-.04.3-.19.35l-6.01,1.75s-.05.01-.08.01Z"/>
            <path class="cls-2" d="m186.55,113.3c-.12,0-.22-.07-.26-.19-.05-.15.03-.3.17-.35l5.91-2.05c.14-.05.3.03.35.17.05.15-.03.3-.17.35l-5.91,2.05s-.06.02-.09.02Z"/>
            <path class="cls-2" d="m183.41,105.03c-.11,0-.21-.06-.26-.17-.06-.14,0-.31.15-.36l5.78-2.41c.14-.06.31,0,.36.15.06.14,0,.31-.15.36l-5.78,2.41s-.07.02-.11.02Z"/>
            <path class="cls-2" d="m180.44,98.36c-.1,0-.2-.06-.25-.16-.07-.14,0-.31.13-.37l5.64-2.7c.14-.07.31,0,.37.13.07.14,0,.31-.13.37l-5.64,2.7s-.08.03-.12.03Z"/>
            <path class="cls-2" d="m176.35,90.51c-.1,0-.19-.05-.24-.14-.07-.13-.03-.3.11-.38l5.47-3.05c.13-.07.3-.03.38.11.07.13.03.3-.11.38l-5.47,3.05s-.09.04-.14.04Z"/>
            <path class="cls-2" d="m172.63,84.23c-.09,0-.18-.05-.24-.13-.08-.13-.04-.3.09-.38l5.31-3.32c.13-.08.3-.04.38.09.08.13.04.3-.09.38l-5.31,3.32s-.1.04-.15.04Z"/>
            <path class="cls-2" d="m167.7,76.88c-.09,0-.17-.04-.23-.12-.09-.13-.06-.3.06-.39l5.09-3.64c.13-.09.3-.06.39.06.09.13.06.3-.06.39l-5.09,3.64s-.11.05-.16.05Z"/>
            <path class="cls-2" d="m163.31,71.05c-.08,0-.16-.04-.22-.11-.1-.12-.08-.3.04-.39l4.9-3.89c.12-.1.3-.08.39.05.1.12.08.3-.04.39l-4.9,3.89c-.05.04-.11.06-.17.06Z"/>
            <path class="cls-2" d="m157.61,64.28c-.08,0-.15-.03-.21-.09-.1-.11-.09-.29.02-.39l4.65-4.18c.11-.1.29-.09.39.02.1.11.09.29-.02.39l-4.65,4.18c-.05.05-.12.07-.19.07Z"/>
            <path class="cls-2" d="m152.6,58.97c-.07,0-.14-.03-.2-.08-.11-.11-.11-.29,0-.39l4.44-4.41c.11-.11.29-.11.39,0,.11.11.11.29,0,.39l-4.44,4.41c-.05.05-.13.08-.2.08Z"/>
            <path class="cls-2" d="m146.15,52.9c-.07,0-.13-.02-.19-.07-.11-.1-.13-.28-.02-.39l4.16-4.68c.1-.12.28-.13.39-.02.11.1.13.28.02.39l-4.16,4.68c-.06.06-.13.09-.21.09Z"/>
            <path class="cls-2" d="m140.58,48.19c-.06,0-.12-.02-.17-.06-.12-.1-.14-.27-.04-.39l3.92-4.88c.1-.12.27-.14.39-.04.12.1.14.27.04.39l-3.92,4.88c-.06.07-.14.1-.22.1Z"/>
            <path class="cls-2" d="m133.5,42.87c-.06,0-.11-.02-.16-.05-.13-.09-.16-.26-.07-.39l3.61-5.11c.09-.13.26-.16.39-.07s.16.26.07.39l-3.61,5.11c-.05.08-.14.12-.23.12Z"/>
            <path class="cls-2" d="m127.44,38.81c-.05,0-.1-.01-.15-.04-.13-.08-.17-.25-.09-.38l3.35-5.29c.08-.13.25-.17.38-.09.13.08.17.25.09.38l-3.35,5.29c-.05.08-.14.13-.24.13Z"/>
            <path class="cls-2" d="m119.83,34.28s-.09-.01-.13-.03c-.13-.07-.18-.24-.11-.38l3.02-5.48c.07-.13.24-.18.38-.11.13.07.18.24.11.38l-3.02,5.48c-.05.09-.15.14-.24.14Z"/>
            <path class="cls-2" d="m113.35,30.92s-.08,0-.12-.03c-.14-.07-.2-.23-.13-.37l2.73-5.63c.07-.14.23-.2.37-.13.14.07.2.23.13.37l-2.73,5.63c-.05.1-.15.16-.25.16Z"/>
            <path class="cls-2" d="m105.27,27.32s-.07,0-.11-.02c-.14-.06-.21-.22-.15-.36l2.38-5.79c.06-.14.22-.21.36-.15.14.06.21.22.15.36l-2.38,5.79c-.04.11-.15.17-.26.17Z"/>
            <path class="cls-2" d="m98.45,24.72s-.06,0-.09-.02c-.15-.05-.22-.21-.17-.36l2.08-5.9c.05-.15.21-.22.36-.17.15.05.22.21.17.36l-2.08,5.9c-.04.11-.15.19-.26.19Z"/>
            <path class="cls-2" d="m90.02,22.05s-.05,0-.08-.01c-.15-.04-.23-.2-.19-.34l1.71-6.02c.04-.15.2-.23.34-.19.15.04.23.2.19.34l-1.71,6.02c-.03.12-.15.2-.27.2Z"/>
            <path class="cls-2" d="m82.95,20.23s-.04,0-.06,0c-.15-.03-.24-.18-.21-.33l1.4-6.1c.03-.15.18-.24.33-.21.15.03.24.18.21.33l-1.4,6.1c-.03.13-.14.22-.27.22Z"/>
            <path class="cls-2" d="m74.27,18.5s-.03,0-.05,0c-.15-.03-.25-.17-.23-.32l1.02-6.18c.03-.15.17-.25.32-.23.15.03.25.17.23.32l-1.02,6.18c-.02.14-.14.23-.27.23Z"/>
            <path class="cls-2" d="m67.04,17.49s-.02,0-.03,0c-.15-.02-.26-.16-.25-.31l.71-6.22c.02-.15.16-.26.31-.25.15.02.26.16.25.31l-.71,6.22c-.02.14-.14.25-.28.25Z"/>
            <path class="cls-2" d="m58.22,16.73s0,0-.01,0c-.15,0-.27-.14-.26-.29l.33-6.25c0-.15.14-.27.29-.26.15,0,.27.14.26.29l-.33,6.25c0,.15-.13.26-.28.26Z"/>
            <path class="cls-2" d="m50.52,16.53h0c-.15,0-.28-.13-.28-.28l.02-6.26c0-.15.12-.28.28-.28.17,0,.28.13.28.28l-.02,6.26c0,.15-.12.28-.28.28Z"/>
            <path class="cls-2" d="m42.07,16.79c-.15,0-.27-.11-.28-.26l-.36-6.25c0-.15.11-.29.26-.29.16-.01.29.11.29.26l.36,6.25c0,.15-.11.29-.26.29,0,0-.01,0-.02,0Z"/>
            <path class="cls-2" d="m34.8,17.39c-.14,0-.26-.11-.28-.25l-.68-6.22c-.02-.15.09-.29.25-.31.15-.01.29.09.31.25l.68,6.22c.02.15-.09.29-.25.31-.01,0-.02,0-.03,0Z"/>
            <path class="cls-2" d="m26.03,18.64c-.13,0-.25-.1-.27-.23l-1.06-6.17c-.03-.15.08-.3.23-.32.15-.03.3.08.32.23l1.06,6.17c.03.15-.08.3-.23.32-.02,0-.03,0-.05,0Z"/>
            <path class="cls-2" d="m18.88,20.06c-.13,0-.24-.09-.27-.22l-1.37-6.11c-.03-.15.06-.3.21-.33.15-.03.3.06.33.21l1.37,6.11c.03.15-.06.3-.21.33-.02,0-.04,0-.06,0Z"/>
            <path class="cls-2" d="m10.3,22.26c-.12,0-.23-.08-.27-.2l-1.75-6.01c-.04-.15.04-.3.19-.35.15-.04.3.04.35.19l1.75,6.01c.04.15-.04.3-.19.35-.03,0-.05.01-.08.01Z"/>
            <path class="cls-2" d="m3.35,24.47c-.12,0-.22-.07-.26-.19l-2.05-5.91c-.05-.15.03-.3.17-.35.14-.05.3.03.35.17l2.05,5.91c.05.15-.03.3-.17.35-.03.01-.06.02-.09.02Z"/>
            <path class="cls-2" d="m182.22,232.8s-.09-.01-.13-.03l-5.48-3.02c-.13-.07-.18-.24-.11-.38s.24-.18.38-.11l5.48,3.02c.13.07.18.24.11.38-.05.09-.15.14-.24.14Z"/>
            <path class="cls-2" d="m185.72,226.04s-.08,0-.12-.03l-5.63-2.73c-.14-.07-.2-.23-.13-.37.07-.14.23-.2.37-.13l5.63,2.73c.14.07.2.23.13.37-.05.1-.15.16-.25.16Z"/>
            <path class="cls-2" d="m189.49,217.6s-.07,0-.11-.02l-5.79-2.38c-.14-.06-.21-.22-.15-.36.06-.14.22-.21.36-.15l5.79,2.38c.14.06.21.22.15.36-.04.11-.15.17-.26.17Z"/>
            <path class="cls-2" d="m192.2,210.49s-.06,0-.09-.02l-5.9-2.08c-.15-.05-.22-.21-.17-.36.05-.15.21-.22.36-.17l5.9,2.08c.15.05.22.21.17.36-.04.11-.15.19-.26.19Z"/>
            <path class="cls-2" d="m194.99,201.68s-.05,0-.08-.01l-6.02-1.71c-.15-.04-.23-.2-.19-.34.04-.15.2-.23.34-.19l6.02,1.71c.15.04.23.2.19.34-.03.12-.15.2-.27.2Z"/>
            <path class="cls-2" d="m196.89,194.3s-.04,0-.06,0l-6.1-1.4c-.15-.03-.24-.18-.21-.33.03-.15.18-.24.33-.21l6.1,1.4c.15.03.24.18.21.33-.03.13-.14.22-.27.22Z"/>
            <path class="cls-2" d="m198.69,185.24s-.03,0-.05,0l-6.17-1.02c-.15-.03-.25-.17-.23-.32.03-.15.17-.25.32-.23l6.17,1.02c.15.03.25.17.23.32-.02.14-.14.23-.27.23Z"/>
            <path class="cls-2" d="m199.75,177.7s-.02,0-.03,0l-6.22-.71c-.15-.02-.26-.16-.25-.31.02-.15.16-.26.31-.25l6.22.71c.15.02.26.16.25.31-.02.14-.14.25-.28.25Z"/>
            <path class="cls-2" d="m200.54,168.5s0,0-.01,0l-6.25-.33c-.15,0-.27-.14-.26-.29,0-.15.14-.27.29-.26l6.25.33c.15,0,.27.14.26.29,0,.15-.13.26-.28.26Z"/>
            <path class="cls-2" d="m200.75,160.49h0l-6.26-.02c-.15,0-.28-.13-.28-.28,0-.15.12-.28.28-.28h0l6.26.02c.15,0,.28.13.28.28,0,.15-.12.28-.28.28Z"/>
          </g>
          <g>
            <path class="cls-2" d="m190.19,159.74c-.15,0-.28-.12-.28-.28,0-.15.12-.28.28-.28l4.33-.02h0c.15,0,.28.12.28.28,0,.15-.12.28-.28.28l-4.33.02h0Z"/>
            <path class="cls-2" d="m190.2,158.43c-.15,0-.28-.12-.28-.27,0-.15.12-.28.27-.28l4.33-.06h0c.15,0,.28.12.28.27,0,.15-.12.28-.27.28l-4.33.06h0Z"/>
            <path class="cls-2" d="m190.13,157.32c-.15,0-.28-.12-.28-.27,0-.15.12-.28.27-.28l4.32-.1c.16.01.28.12.28.27,0,.15-.12.28-.27.28l-4.32.1h0Z"/>
            <path class="cls-2" d="m190.14,156.01c-.15,0-.27-.12-.28-.27,0-.15.12-.28.27-.29l4.32-.14c.16,0,.28.12.29.27,0,.15-.12.28-.27.29l-4.32.14h0Z"/>
            <path class="cls-2" d="m190.07,154.9c-.15,0-.27-.12-.28-.27,0-.15.11-.28.27-.29l4.32-.17c.15,0,.28.11.29.27,0,.15-.11.28-.27.29l-4.32.17s0,0-.01,0Z"/>
            <path class="cls-2" d="m190.08,153.59c-.15,0-.27-.12-.28-.26,0-.15.11-.28.26-.29l4.32-.21c.16,0,.28.11.29.26,0,.15-.11.28-.26.29l-4.32.21s0,0-.01,0Z"/>
            <path class="cls-2" d="m189.96,152.49c-.15,0-.27-.11-.28-.26,0-.15.11-.29.26-.29l4.32-.24c.15-.01.29.11.29.26,0,.15-.11.29-.26.29l-4.32.24s-.01,0-.02,0Z"/>
            <path class="cls-2" d="m189.91,151.18c-.15,0-.27-.11-.28-.26-.01-.15.11-.29.26-.3l4.32-.28c.15,0,.29.11.3.26.01.15-.11.29-.26.3l-4.32.28s-.01,0-.02,0Z"/>
            <path class="cls-2" d="m189.78,150.08c-.14,0-.27-.11-.28-.26-.01-.15.1-.29.26-.3l4.31-.32c.15,0,.29.1.3.26.01.15-.1.29-.26.3l-4.31.32s-.01,0-.02,0Z"/>
            <path class="cls-2" d="m189.73,148.77c-.14,0-.27-.11-.28-.26-.01-.15.1-.29.25-.3l4.31-.36c.15-.01.29.1.3.25.01.15-.1.29-.25.3l-4.31.36s-.02,0-.02,0Z"/>
            <path class="cls-2" d="m189.6,147.66c-.14,0-.26-.11-.28-.25-.01-.15.1-.29.25-.3l4.31-.39c.15-.02.29.1.3.25.01.15-.1.29-.25.3l-4.31.39s-.02,0-.03,0Z"/>
            <path class="cls-2" d="m189.55,146.35c-.14,0-.26-.11-.28-.25-.02-.15.1-.29.25-.31l4.3-.43c.15-.01.29.1.31.25.02.15-.1.29-.25.31l-4.3.43s-.02,0-.03,0Z"/>
            <path class="cls-2" d="m189.37,145.26c-.14,0-.26-.11-.28-.25-.02-.15.09-.29.25-.31l4.3-.47c.15-.01.29.09.31.25.02.15-.09.29-.25.31l-4.3.47s-.02,0-.03,0Z"/>
            <path class="cls-2" d="m189.25,143.95c-.14,0-.26-.1-.28-.25-.02-.15.09-.29.24-.31l4.3-.51c.15-.02.29.09.31.24.02.15-.09.29-.24.31l-4.3.51s-.02,0-.03,0Z"/>
            <path class="cls-2" d="m189.06,142.86c-.14,0-.26-.1-.28-.24-.02-.15.09-.29.24-.31l4.29-.54c.16-.02.29.09.31.24.02.15-.09.29-.24.31l-4.29.54s-.02,0-.04,0Z"/>
            <path class="cls-2" d="m188.94,141.55c-.14,0-.26-.1-.28-.24-.02-.15.09-.29.24-.31l4.29-.58c.15-.02.29.09.31.24.02.15-.09.29-.24.31l-4.29.58s-.03,0-.04,0Z"/>
            <path class="cls-2" d="m188.76,140.46c-.14,0-.26-.1-.28-.24-.02-.15.08-.29.24-.32l4.28-.61c.16-.02.29.08.32.24.02.15-.08.29-.24.32l-4.28.61s-.03,0-.04,0Z"/>
            <path class="cls-2" d="m188.64,139.16c-.14,0-.25-.1-.28-.24-.02-.15.08-.29.23-.32l4.28-.66c.15-.02.29.08.32.23.02.15-.08.29-.23.32l-4.28.66s-.03,0-.04,0Z"/>
            <path class="cls-2" d="m188.39,138.07c-.13,0-.25-.1-.27-.23-.02-.15.08-.3.23-.32l4.27-.69c.15-.02.29.08.32.23.02.15-.08.3-.23.32l-4.27.69s-.03,0-.04,0Z"/>
            <path class="cls-2" d="m188.21,136.77c-.13,0-.25-.1-.27-.23-.03-.15.08-.3.23-.32l4.26-.73c.15-.03.3.08.32.23.03.15-.08.3-.23.32l-4.26.73s-.03,0-.05,0Z"/>
            <path class="cls-2" d="m187.97,135.69c-.13,0-.25-.09-.27-.23-.03-.15.07-.3.23-.32l4.26-.76c.15-.03.3.07.32.23.03.15-.07.3-.23.32l-4.26.76s-.03,0-.05,0Z"/>
            <path class="cls-2" d="m187.79,134.39c-.13,0-.25-.09-.27-.23-.03-.15.07-.3.22-.33l4.25-.8c.15-.03.3.07.33.22.03.15-.07.3-.22.33l-4.25.8s-.03,0-.05,0Z"/>
            <path class="cls-2" d="m187.54,133.31c-.13,0-.25-.09-.27-.22-.03-.15.07-.3.22-.33l4.24-.84c.15-.03.3.07.33.22.03.15-.07.3-.22.33l-4.24.84s-.04,0-.05,0Z"/>
            <path class="cls-2" d="m187.35,132.02c-.13,0-.25-.09-.27-.22-.03-.15.07-.3.22-.33l4.24-.88c.15-.03.3.07.33.22.03.15-.07.3-.22.33l-4.24.88s-.04,0-.06,0Z"/>
            <path class="cls-2" d="m187.05,130.95c-.13,0-.24-.09-.27-.22-.03-.15.06-.3.21-.33l4.23-.91c.15-.03.3.06.33.21.03.15-.06.3-.21.33l-4.23.91s-.04,0-.06,0Z"/>
            <path class="cls-2" d="m186.8,129.66c-.13,0-.24-.09-.27-.22-.03-.15.06-.3.21-.33l4.22-.95c.15-.03.3.06.33.21.03.15-.06.3-.21.33l-4.22.95s-.04,0-.06,0Z"/>
            <path class="cls-2" d="m186.5,128.59c-.13,0-.24-.09-.27-.22-.03-.15.06-.3.21-.33l4.21-.98c.15-.04.3.06.33.21.03.15-.06.3-.21.33l-4.21.98s-.04,0-.06,0Z"/>
            <path class="cls-2" d="m186.26,127.3c-.13,0-.24-.09-.27-.21-.04-.15.06-.3.2-.34l4.2-1.02c.15-.04.3.06.34.2.04.15-.06.3-.2.34l-4.2,1.02s-.04,0-.07,0Z"/>
            <path class="cls-2" d="m185.96,126.23c-.12,0-.24-.08-.27-.21-.04-.15.05-.3.2-.34l4.19-1.06c.15-.04.3.05.34.2.04.15-.05.3-.2.34l-4.19,1.06s-.05,0-.07,0Z"/>
            <path class="cls-2" d="m185.68,124.95c-.12,0-.24-.08-.27-.21-.04-.15.05-.3.2-.34l4.18-1.1c.15-.04.3.05.34.2.04.15-.05.3-.2.34l-4.18,1.1s-.05,0-.07,0Z"/>
            <path class="cls-2" d="m185.33,123.9c-.12,0-.24-.08-.27-.21-.04-.15.05-.3.2-.34l4.18-1.13c.15-.04.3.05.34.2.04.15-.05.3-.2.34l-4.18,1.13s-.05,0-.07,0Z"/>
            <path class="cls-2" d="m185.02,122.63c-.12,0-.23-.08-.27-.2-.04-.15.04-.3.19-.34l4.16-1.17c.15-.04.3.04.34.19.04.15-.04.3-.19.34l-4.16,1.17s-.05.01-.08.01Z"/>
            <path class="cls-2" d="m184.67,121.58c-.12,0-.23-.08-.27-.2-.04-.15.04-.3.19-.35l4.15-1.2c.15-.04.3.04.34.19.04.15-.04.3-.19.35l-4.15,1.2s-.05.01-.08.01Z"/>
            <path class="cls-2" d="m184.36,120.3c-.12,0-.23-.08-.27-.2-.04-.15.04-.3.19-.35l4.14-1.24c.15-.04.3.04.35.19.04.15-.04.3-.19.35l-4.14,1.24s-.05.01-.08.01Z"/>
            <path class="cls-2" d="m184.01,119.25c-.12,0-.23-.08-.27-.2-.05-.15.04-.3.18-.35l4.13-1.28c.15-.05.3.04.35.18s-.04.3-.18.35l-4.13,1.28s-.06.01-.08.01Z"/>
            <path class="cls-2" d="m183.65,117.99c-.12,0-.23-.08-.27-.19-.05-.15.03-.3.18-.35l4.12-1.31c.15-.05.3.03.35.18.05.15-.03.3-.18.35l-4.12,1.31s-.06.01-.08.01Z"/>
            <path class="cls-2" d="m183.25,116.96c-.12,0-.23-.07-.26-.19-.05-.15.03-.3.18-.35l4.11-1.35c.15-.05.3.03.35.18.05.15-.03.3-.18.35l-4.11,1.35s-.06.01-.09.01Z"/>
            <path class="cls-2" d="m182.88,115.7c-.12,0-.22-.07-.26-.19-.05-.15.03-.3.17-.35l4.1-1.39c.15-.05.3.03.35.17.05.15-.03.3-.17.35l-4.1,1.39s-.06.01-.09.01Z"/>
            <path class="cls-2" d="m182.48,114.67c-.12,0-.22-.07-.26-.19-.05-.15.03-.3.17-.35l4.09-1.42c.15-.05.3.03.35.17.05.15-.03.3-.17.35l-4.09,1.42s-.06.02-.09.02Z"/>
            <path class="cls-2" d="m182.1,113.41c-.11,0-.22-.07-.26-.18-.05-.14.02-.3.17-.36l4.07-1.46c.15-.05.3.02.36.17.05.14-.02.3-.17.36l-4.07,1.46s-.06.02-.09.02Z"/>
            <path class="cls-2" d="m181.7,112.38c-.11,0-.22-.07-.26-.18-.05-.14.02-.3.17-.36l4.06-1.49c.14-.05.3.02.36.17.05.14-.02.3-.17.36l-4.06,1.49s-.06.02-.1.02Z"/>
            <path class="cls-2" d="m181.26,111.14c-.11,0-.22-.07-.26-.18-.05-.14.02-.3.16-.36l4.05-1.53c.14-.06.3.02.36.16.05.14-.02.3-.16.36l-4.05,1.53s-.07.02-.1.02Z"/>
            <path class="cls-2" d="m180.81,110.13c-.11,0-.22-.07-.26-.18-.06-.14.02-.3.16-.36l4.03-1.56c.14-.06.3.02.36.16.06.14-.02.3-.16.36l-4.03,1.56s-.07.02-.1.02Z"/>
            <path class="cls-2" d="m180.38,108.89c-.11,0-.22-.07-.26-.18-.06-.14.01-.31.16-.36l4.02-1.6c.14-.06.31.01.36.16.06.14-.01.31-.16.36l-4.02,1.6s-.07.02-.1.02Z"/>
            <path class="cls-2" d="m179.92,107.88c-.11,0-.21-.07-.26-.17-.06-.14.01-.31.15-.36l4.01-1.63c.14-.06.31.01.36.15.06.14-.01.31-.15.36l-4.01,1.63s-.07.02-.1.02Z"/>
            <path class="cls-2" d="m179.49,106.64c-.11,0-.21-.06-.26-.17-.06-.14,0-.31.15-.36l3.99-1.67c.14-.06.31,0,.36.15.06.14,0,.31-.15.36l-3.99,1.67s-.07.02-.11.02Z"/>
            <path class="cls-2" d="m179.01,105.64c-.11,0-.21-.06-.26-.17-.06-.14,0-.31.15-.37l3.98-1.7c.14-.06.31,0,.37.15.06.14,0,.31-.15.37l-3.98,1.7s-.07.02-.11.02Z"/>
            <path class="cls-2" d="m178.52,104.43c-.11,0-.21-.06-.26-.17-.06-.14,0-.31.14-.37l3.96-1.74c.14-.06.31,0,.37.14.06.14,0,.31-.14.37l-3.96,1.74s-.07.02-.11.02Z"/>
            <path class="cls-2" d="m178.02,103.44c-.11,0-.21-.06-.25-.16-.06-.14,0-.31.14-.37l3.95-1.77c.14-.06.31,0,.37.14.06.14,0,.31-.14.37l-3.95,1.77s-.08.02-.11.02Z"/>
            <path class="cls-2" d="m177.52,102.22c-.11,0-.21-.06-.25-.16-.06-.14,0-.31.14-.37l3.93-1.81c.14-.06.31,0,.37.14.06.14,0,.31-.14.37l-3.93,1.81s-.08.03-.12.03Z"/>
            <path class="cls-2" d="m177.02,101.23c-.1,0-.2-.06-.25-.16-.07-.14,0-.31.13-.37l3.92-1.84c.14-.06.31,0,.37.13.07.14,0,.31-.13.37l-3.92,1.84s-.08.03-.12.03Z"/>
            <path class="cls-2" d="m176.53,100.02c-.1,0-.2-.06-.25-.16-.07-.14,0-.31.13-.37l3.9-1.87c.14-.07.31,0,.37.13.07.14,0,.31-.13.37l-3.9,1.87s-.08.03-.12.03Z"/>
            <path class="cls-2" d="m175.98,99.05c-.1,0-.2-.06-.25-.16-.07-.14-.01-.31.13-.37l3.88-1.91c.14-.07.31-.01.37.13.07.14.01.31-.13.37l-3.88,1.91s-.08.03-.12.03Z"/>
            <path class="cls-2" d="m175.43,97.86c-.1,0-.2-.06-.25-.15-.07-.14-.01-.3.12-.37l3.87-1.94c.14-.07.3-.01.37.12.07.14.01.3-.12.37l-3.87,1.94s-.08.03-.12.03Z"/>
            <path class="cls-2" d="m174.88,96.9c-.1,0-.2-.06-.25-.15-.07-.14-.02-.31.12-.37l3.85-1.97c.14-.07.3-.02.37.12.07.14.02.31-.12.37l-3.85,1.97s-.08.03-.13.03Z"/>
            <path class="cls-2" d="m174.33,95.71c-.1,0-.2-.05-.25-.15-.07-.14-.02-.3.12-.38l3.83-2.01c.14-.07.3-.02.38.12.07.14.02.3-.12.38l-3.83,2.01s-.09.03-.13.03Z"/>
            <path class="cls-2" d="m173.78,94.75c-.1,0-.2-.05-.25-.15-.07-.14-.02-.3.11-.38l3.81-2.04c.14-.07.3-.02.38.11.07.14.02.3-.11.38l-3.81,2.04s-.09.03-.13.03Z"/>
            <path class="cls-2" d="m173.21,93.57c-.1,0-.19-.05-.24-.14-.07-.13-.02-.3.11-.38l3.8-2.08c.13-.07.3-.02.38.11.07.13.02.3-.11.38l-3.8,2.08s-.09.03-.13.03Z"/>
            <path class="cls-2" d="m172.61,92.63c-.1,0-.19-.05-.24-.14-.07-.13-.03-.3.11-.38l3.78-2.1c.13-.07.3-.03.38.11.07.13.03.3-.11.38l-3.78,2.1s-.09.04-.14.04Z"/>
            <path class="cls-2" d="m172,91.47c-.1,0-.19-.05-.24-.14-.08-.13-.03-.3.1-.38l3.76-2.14c.13-.07.3-.03.38.1.08.13.03.3-.1.38l-3.76,2.14s-.09.04-.14.04Z"/>
            <path class="cls-2" d="m171.41,90.53c-.1,0-.19-.05-.24-.14-.08-.13-.03-.3.1-.38l3.74-2.17c.13-.08.3-.03.38.1.08.13.03.3-.1.38l-3.74,2.17s-.09.04-.14.04Z"/>
            <path class="cls-2" d="m170.8,89.37c-.1,0-.19-.05-.24-.14-.08-.13-.03-.3.1-.38l3.72-2.21c.13-.08.3-.03.38.1.08.13.03.3-.1.38l-3.72,2.21s-.09.04-.14.04Z"/>
            <path class="cls-2" d="m170.2,88.44c-.09,0-.19-.05-.24-.13-.08-.13-.04-.3.09-.38l3.7-2.23c.13-.08.3-.04.38.09.08.13.04.3-.09.38l-3.7,2.23s-.09.04-.14.04Z"/>
            <path class="cls-2" d="m169.55,87.3c-.09,0-.18-.05-.24-.13-.08-.13-.04-.3.09-.38l3.68-2.27c.13-.08.3-.04.38.09.08.13.04.3-.09.38l-3.68,2.27s-.1.04-.15.04Z"/>
            <path class="cls-2" d="m168.91,86.39c-.09,0-.18-.05-.24-.13-.08-.13-.04-.3.09-.38l3.66-2.3c.13-.08.3-.04.38.09.08.13.04.3-.09.38l-3.66,2.3s-.1.04-.15.04Z"/>
            <path class="cls-2" d="m168.25,85.26c-.09,0-.18-.05-.23-.13-.08-.13-.05-.3.08-.38l3.64-2.33c.13-.08.3-.05.38.08.08.13.05.3-.08.38l-3.64,2.33s-.1.04-.15.04Z"/>
            <path class="cls-2" d="m167.61,84.36c-.09,0-.18-.04-.23-.13-.08-.13-.05-.3.08-.39l3.62-2.36c.13-.08.3-.05.39.08.08.13.05.3-.08.39l-3.62,2.36s-.1.05-.15.05Z"/>
            <path class="cls-2" d="m166.94,83.23c-.09,0-.18-.04-.23-.12-.09-.13-.05-.3.08-.39l3.6-2.4c.13-.09.3-.05.39.08.09.13.05.3-.08.39l-3.6,2.4s-.1.05-.15.05Z"/>
            <path class="cls-2" d="m166.3,82.32c-.09,0-.18-.04-.23-.12-.09-.13-.05-.3.07-.39l3.58-2.42c.13-.09.3-.05.39.07.09.13.05.3-.07.39l-3.58,2.42s-.1.05-.16.05Z"/>
            <path class="cls-2" d="m165.58,81.23c-.09,0-.18-.04-.23-.12-.09-.13-.06-.3.07-.39l3.56-2.46c.13-.09.3-.06.39.07.09.13.06.3-.07.39l-3.56,2.46s-.1.05-.16.05Z"/>
            <path class="cls-2" d="m164.9,80.35c-.09,0-.17-.04-.23-.12-.09-.13-.06-.3.07-.39l3.54-2.49c.13-.09.3-.06.39.07.09.13.06.3-.07.39l-3.54,2.49s-.1.05-.16.05Z"/>
            <path class="cls-2" d="m164.18,79.26c-.09,0-.17-.04-.23-.12-.09-.13-.06-.3.06-.39l3.52-2.52c.13-.09.3-.06.39.06.09.13.06.3-.06.39l-3.52,2.52s-.11.05-.16.05Z"/>
            <path class="cls-2" d="m163.5,78.38c-.09,0-.17-.04-.23-.11-.09-.12-.06-.3.06-.39l3.5-2.55c.12-.09.3-.06.39.06.09.12.06.3-.06.39l-3.5,2.55s-.11.05-.16.05Z"/>
            <path class="cls-2" d="m162.78,77.29c-.09,0-.17-.04-.22-.11-.09-.12-.07-.3.06-.39l3.47-2.58c.12-.09.3-.07.39.06.09.12.07.3-.06.39l-3.47,2.58s-.11.06-.17.06Z"/>
            <path class="cls-2" d="m162.07,76.43c-.08,0-.17-.04-.22-.11-.09-.12-.07-.3.05-.39l3.45-2.61c.12-.09.3-.07.39.05.09.12.07.3-.05.39l-3.45,2.61c-.05.04-.11.06-.17.06Z"/>
            <path class="cls-2" d="m161.3,75.37c-.08,0-.17-.04-.22-.11-.09-.12-.07-.3.05-.39l3.43-2.64c.12-.09.3-.07.39.05.09.12.07.3-.05.39l-3.43,2.64c-.05.04-.11.06-.17.06Z"/>
            <path class="cls-2" d="m160.58,74.53c-.08,0-.16-.04-.22-.11-.09-.12-.07-.3.05-.39l3.41-2.67c.12-.09.3-.07.39.05.09.12.07.3-.05.39l-3.41,2.67c-.05.04-.11.06-.17.06Z"/>
            <path class="cls-2" d="m159.81,73.47c-.08,0-.16-.04-.22-.1-.1-.12-.08-.3.04-.39l3.38-2.7c.12-.1.3-.08.39.04.1.12.08.3-.04.39l-3.38,2.7c-.05.04-.11.06-.17.06Z"/>
            <path class="cls-2" d="m159.09,72.63c-.08,0-.16-.04-.22-.1-.1-.12-.08-.3.04-.39l3.36-2.72c.12-.1.29-.08.39.04.1.12.08.3-.04.39l-3.36,2.72c-.05.04-.11.06-.18.06Z"/>
            <path class="cls-2" d="m158.31,71.57c-.08,0-.16-.03-.21-.1-.1-.12-.08-.29.04-.39l3.34-2.75c.12-.1.29-.08.39.04.1.12.08.29-.04.39l-3.34,2.75c-.05.04-.11.06-.18.06Z"/>
            <path class="cls-2" d="m157.55,70.76c-.08,0-.16-.03-.21-.1-.1-.12-.08-.29.03-.39l3.31-2.78c.12-.1.29-.08.39.03.1.12.08.29-.03.39l-3.31,2.78c-.05.04-.12.07-.18.07Z"/>
            <path class="cls-2" d="m156.73,69.74c-.08,0-.16-.03-.21-.1-.1-.12-.09-.29.03-.39l3.29-2.81c.12-.1.29-.09.39.03.1.12.09.29-.03.39l-3.29,2.81c-.05.04-.12.07-.18.07Z"/>
            <path class="cls-2" d="m155.97,68.93c-.08,0-.16-.03-.21-.1-.1-.12-.09-.29.03-.39l3.26-2.84c.12-.1.29-.09.39.03.1.12.09.29-.03.39l-3.26,2.84c-.05.05-.12.07-.18.07Z"/>
            <path class="cls-2" d="m155.14,67.91c-.08,0-.15-.03-.21-.09-.1-.12-.09-.29.02-.39l3.24-2.87c.12-.1.29-.09.39.02.1.12.09.29-.02.39l-3.24,2.87c-.05.05-.12.07-.18.07Z"/>
            <path class="cls-2" d="m154.38,67.11c-.08,0-.15-.03-.21-.09-.1-.11-.09-.29.02-.39l3.22-2.89c.11-.1.29-.09.39.02.1.11.09.29-.02.39l-3.22,2.89c-.05.05-.12.07-.19.07Z"/>
            <path class="cls-2" d="m153.54,66.1c-.08,0-.15-.03-.21-.09-.1-.11-.1-.29.02-.39l3.19-2.92c.11-.1.29-.1.39.02.1.11.1.29-.02.39l-3.19,2.92c-.05.05-.12.07-.19.07Z"/>
            <path class="cls-2" d="m152.74,65.33c-.07,0-.15-.03-.2-.09-.1-.11-.1-.29.01-.39l3.17-2.95c.11-.1.29-.1.39.01.1.11.1.29-.01.39l-3.17,2.95c-.05.05-.12.07-.19.07Z"/>
            <path class="cls-2" d="m151.87,64.35c-.07,0-.15-.03-.2-.09-.11-.11-.1-.29.01-.39l3.14-2.98c.11-.11.29-.1.39.01.11.11.1.29-.01.39l-3.14,2.98c-.05.05-.12.08-.19.08Z"/>
            <path class="cls-2" d="m151.07,63.58c-.07,0-.15-.03-.2-.09-.11-.11-.1-.29,0-.39l3.11-3c.11-.11.29-.1.39,0,.11.11.1.29,0,.39l-3.11,3c-.05.05-.12.08-.19.08Z"/>
            <path class="cls-2" d="m150.2,62.6c-.07,0-.14-.03-.2-.08-.11-.11-.11-.29,0-.39l3.09-3.03c.11-.11.29-.11.39,0,.11.11.11.29,0,.39l-3.09,3.03c-.05.05-.12.08-.2.08Z"/>
            <path class="cls-2" d="m149.4,61.83c-.07,0-.14-.03-.2-.08-.11-.11-.11-.29,0-.39l3.06-3.06c.11-.11.28-.11.39,0,.11.11.11.29,0,.39l-3.06,3.06c-.05.05-.13.08-.2.08Z"/>
            <path class="cls-2" d="m148.49,60.89c-.07,0-.14-.03-.2-.08-.11-.11-.11-.28,0-.39l3.03-3.08c.11-.11.28-.11.39,0,.11.11.11.28,0,.39l-3.03,3.08c-.05.06-.13.08-.2.08Z"/>
            <path class="cls-2" d="m147.66,60.16c-.07,0-.14-.03-.19-.08-.11-.11-.11-.28,0-.39l3.01-3.11c.11-.11.28-.11.39,0,.11.11.11.28,0,.39l-3.01,3.11c-.05.06-.13.08-.2.08Z"/>
            <path class="cls-2" d="m146.74,59.22c-.07,0-.14-.03-.19-.08-.11-.11-.12-.28-.01-.39l2.98-3.14c.11-.11.28-.12.39,0,.11.11.12.28,0,.39l-2.98,3.14c-.05.06-.13.09-.2.09Z"/>
            <path class="cls-2" d="m145.91,58.49c-.07,0-.14-.02-.19-.08-.11-.11-.12-.28-.01-.39l2.96-3.16c.11-.11.28-.12.39-.01.11.11.12.28.01.39l-2.96,3.16c-.05.06-.13.09-.2.09Z"/>
            <path class="cls-2" d="m144.99,57.55c-.07,0-.13-.02-.19-.07-.11-.1-.12-.28-.02-.39l2.93-3.19c.1-.11.28-.12.39-.02.11.1.12.28.02.39l-2.93,3.19c-.05.06-.13.09-.21.09Z"/>
            <path class="cls-2" d="m144.14,56.84c-.07,0-.13-.02-.19-.07-.11-.1-.12-.28-.02-.39l2.9-3.21c.1-.11.28-.12.39-.02.11.1.12.28.02.39l-2.9,3.21c-.05.06-.13.09-.21.09Z"/>
            <path class="cls-2" d="m143.18,55.94c-.07,0-.13-.02-.18-.07-.12-.1-.13-.28-.02-.39l2.87-3.24c.1-.11.28-.13.39-.02.12.1.13.28.02.39l-2.87,3.24c-.06.06-.13.09-.21.09Z"/>
            <path class="cls-2" d="m142.31,55.25c-.06,0-.13-.02-.18-.07-.12-.1-.13-.28-.03-.39l2.84-3.26c.1-.12.28-.13.39-.03.12.1.13.28.03.39l-2.84,3.26c-.06.06-.13.1-.21.1Z"/>
            <path class="cls-2" d="m141.36,54.36c-.06,0-.13-.02-.18-.07-.12-.1-.13-.28-.03-.39l2.81-3.29c.1-.12.28-.13.39-.03.12.1.13.28.03.39l-2.81,3.29c-.06.06-.13.1-.21.1Z"/>
            <path class="cls-2" d="m140.49,53.67c-.06,0-.13-.02-.18-.07-.12-.1-.13-.27-.03-.39l2.79-3.31c.1-.12.28-.13.39-.03.12.1.13.27.03.39l-2.79,3.31c-.06.07-.13.1-.21.1Z"/>
            <path class="cls-2" d="m139.53,52.78c-.06,0-.13-.02-.18-.06-.12-.1-.14-.27-.04-.39l2.76-3.33c.1-.12.27-.14.39-.04.12.1.14.27.04.39l-2.76,3.33c-.06.07-.13.1-.21.1Z"/>
            <path class="cls-2" d="m138.63,52.12c-.06,0-.12-.02-.18-.06-.12-.1-.14-.27-.04-.39l2.73-3.35c.1-.12.27-.14.39-.04.12.1.14.27.04.39l-2.73,3.35c-.06.07-.14.1-.22.1Z"/>
            <path class="cls-2" d="m137.63,51.28c-.06,0-.12-.02-.17-.06-.12-.1-.14-.27-.04-.39l2.7-3.38c.1-.12.27-.14.39-.04.12.1.14.27.04.39l-2.7,3.38c-.06.07-.14.1-.22.1Z"/>
            <path class="cls-2" d="m136.73,50.63c-.06,0-.12-.02-.17-.06-.12-.1-.14-.27-.05-.39l2.67-3.4c.09-.12.27-.14.39-.05.12.1.14.27.05.39l-2.67,3.4c-.05.07-.14.11-.22.11Z"/>
            <path class="cls-2" d="m135.73,49.78c-.06,0-.12-.02-.17-.06-.12-.09-.14-.27-.05-.39l2.64-3.43c.09-.12.27-.14.39-.05.12.09.14.27.05.39l-2.64,3.43c-.05.07-.14.11-.22.11Z"/>
            <path class="cls-2" d="m134.83,49.13c-.06,0-.12-.02-.17-.06-.12-.09-.15-.27-.05-.39l2.61-3.45c.09-.12.27-.15.39-.05.12.09.15.27.05.39l-2.61,3.45c-.05.07-.14.11-.22.11Z"/>
            <path class="cls-2" d="m133.82,48.3c-.06,0-.12-.02-.17-.06-.12-.09-.15-.27-.06-.39l2.58-3.47c.09-.12.27-.15.39-.06.12.09.15.27.06.39l-2.58,3.47c-.05.07-.14.11-.22.11Z"/>
            <path class="cls-2" d="m132.88,47.7c-.06,0-.11-.02-.16-.05-.12-.09-.15-.27-.06-.39l2.55-3.49c.09-.12.27-.15.39-.06.12.09.15.27.06.39l-2.55,3.49c-.05.07-.14.11-.22.11Z"/>
            <path class="cls-2" d="m131.84,46.9c-.06,0-.11-.02-.16-.05-.13-.09-.15-.26-.06-.39l2.52-3.52c.09-.13.26-.15.39-.06.13.09.15.26.06.39l-2.52,3.52c-.05.08-.14.12-.23.12Z"/>
            <path class="cls-2" d="m130.91,46.3c-.06,0-.11-.02-.16-.05-.13-.09-.16-.26-.07-.39l2.49-3.54c.09-.13.26-.16.39-.07.13.09.16.26.07.39l-2.49,3.54c-.05.08-.14.12-.23.12Z"/>
            <path class="cls-2" d="m129.87,45.5c-.05,0-.11-.02-.16-.05-.13-.09-.16-.26-.07-.39l2.46-3.56c.09-.13.26-.16.39-.07.13.09.16.26.07.39l-2.46,3.56c-.05.08-.14.12-.23.12Z"/>
            <path class="cls-2" d="m128.94,44.89c-.05,0-.11-.02-.16-.05-.13-.09-.16-.26-.07-.39l2.43-3.58c.09-.13.26-.16.39-.07.13.09.16.26.07.39l-2.43,3.58c-.05.08-.14.12-.23.12Z"/>
            <path class="cls-2" d="m127.88,44.13c-.05,0-.11-.02-.15-.05-.13-.09-.16-.26-.08-.39l2.4-3.6c.09-.13.26-.16.39-.08.13.09.16.26.08.39l-2.4,3.6c-.05.08-.14.12-.23.12Z"/>
            <path class="cls-2" d="m126.92,43.57c-.05,0-.11-.01-.15-.05-.13-.08-.16-.26-.08-.39l2.37-3.62c.08-.13.26-.17.39-.08.13.08.16.26.08.39l-2.37,3.62c-.05.08-.14.13-.23.13Z"/>
            <path class="cls-2" d="m125.84,42.83c-.05,0-.1-.01-.15-.04-.13-.08-.17-.26-.08-.38l2.34-3.64c.08-.13.26-.17.38-.08.13.08.17.26.08.38l-2.34,3.64c-.05.08-.14.13-.23.13Z"/>
            <path class="cls-2" d="m124.88,42.27c-.05,0-.1-.01-.15-.04-.13-.08-.17-.25-.09-.38l2.31-3.66c.08-.13.25-.17.38-.09.13.08.17.25.09.38l-2.31,3.66c-.05.08-.14.13-.24.13Z"/>
            <path class="cls-2" d="m123.81,41.52s-.1-.01-.15-.04c-.13-.08-.17-.25-.09-.38l2.27-3.68c.08-.13.25-.17.38-.09.13.08.17.25.09.38l-2.27,3.68c-.05.09-.14.13-.24.13Z"/>
            <path class="cls-2" d="m122.84,40.97s-.1-.01-.14-.04c-.13-.08-.17-.25-.09-.38l2.24-3.7c.08-.13.25-.17.38-.09.13.08.17.25.09.38l-2.24,3.7c-.05.09-.14.13-.24.13Z"/>
            <path class="cls-2" d="m121.73,40.28s-.1-.01-.14-.04c-.13-.08-.18-.25-.1-.38l2.21-3.72c.08-.13.25-.18.38-.1.13.08.18.25.1.38l-2.21,3.72c-.05.09-.14.14-.24.14Z"/>
            <path class="cls-2" d="m120.75,39.76s-.1-.01-.14-.04c-.13-.08-.18-.25-.1-.38l2.18-3.74c.08-.13.25-.18.38-.1.13.08.18.25.1.38l-2.18,3.74c-.05.09-.15.14-.24.14Z"/>
            <path class="cls-2" d="m119.64,39.07s-.09-.01-.14-.04c-.13-.08-.18-.25-.1-.38l2.14-3.76c.08-.13.25-.18.38-.1.13.08.18.25.1.38l-2.14,3.76c-.05.09-.15.14-.24.14Z"/>
            <path class="cls-2" d="m118.65,38.56s-.09-.01-.14-.04c-.13-.08-.18-.24-.11-.38l2.11-3.77c.08-.13.25-.18.38-.11.13.08.18.24.11.38l-2.11,3.77c-.05.09-.15.14-.24.14Z"/>
            <path class="cls-2" d="m117.54,37.86s-.09-.01-.13-.03c-.13-.07-.18-.24-.11-.38l2.08-3.79c.07-.13.24-.18.38-.11.13.07.18.24.11.38l-2.08,3.79c-.05.09-.15.14-.24.14Z"/>
            <path class="cls-2" d="m116.54,37.38s-.09-.01-.13-.03c-.14-.07-.19-.24-.11-.38l2.05-3.81c.07-.14.24-.19.38-.11.14.07.19.24.11.38l-2.05,3.81c-.05.09-.15.15-.25.15Z"/>
            <path class="cls-2" d="m115.4,36.74s-.09-.01-.13-.03c-.14-.07-.19-.24-.12-.38l2.01-3.83c.07-.14.24-.19.38-.12.14.07.19.24.12.38l-2.01,3.83c-.05.09-.15.15-.25.15Z"/>
            <path class="cls-2" d="m114.39,36.28s-.09,0-.13-.03c-.14-.07-.19-.24-.12-.38l1.98-3.85c.07-.14.24-.19.38-.12.14.07.19.24.12.38l-1.98,3.85c-.05.1-.15.15-.25.15Z"/>
            <path class="cls-2" d="m113.25,35.64s-.08,0-.13-.03c-.14-.07-.19-.24-.12-.37l1.94-3.86c.07-.14.24-.19.37-.12.14.07.19.24.12.37l-1.94,3.86c-.05.1-.15.15-.25.15Z"/>
            <path class="cls-2" d="m112.24,35.18s-.08,0-.12-.03c-.14-.07-.19-.24-.13-.37l1.91-3.88c.07-.14.24-.19.37-.13.14.07.19.24.13.37l-1.91,3.88c-.05.1-.15.16-.25.16Z"/>
            <path class="cls-2" d="m111.09,34.54s-.08,0-.12-.03c-.14-.07-.2-.23-.13-.37l1.88-3.9c.07-.14.23-.2.37-.13.14.07.2.23.13.37l-1.88,3.9c-.05.1-.15.16-.25.16Z"/>
            <path class="cls-2" d="m110.06,34.12s-.08,0-.12-.03c-.14-.07-.2-.23-.13-.37l1.85-3.91c.07-.14.23-.2.37-.13.14.07.2.23.13.37l-1.85,3.91c-.05.1-.15.16-.25.16Z"/>
            <path class="cls-2" d="m108.89,33.54s-.08,0-.12-.03c-.14-.06-.2-.23-.14-.37l1.81-3.93c.06-.14.23-.2.37-.14.14.06.2.23.14.37l-1.81,3.93c-.05.1-.15.16-.25.16Z"/>
            <path class="cls-2" d="m107.86,33.13s-.08,0-.11-.02c-.14-.06-.2-.23-.14-.37l1.78-3.94c.06-.14.23-.2.37-.14.14.06.2.23.14.37l-1.78,3.94c-.05.1-.15.16-.25.16Z"/>
            <path class="cls-2" d="m106.69,32.54s-.08,0-.11-.02c-.14-.06-.2-.23-.14-.37l1.74-3.96c.06-.14.23-.21.37-.14.14.06.2.23.14.37l-1.74,3.96c-.05.1-.15.17-.26.17Z"/>
            <path class="cls-2" d="m105.66,32.13s-.07,0-.11-.02c-.14-.06-.21-.22-.15-.37l1.71-3.97c.06-.14.22-.21.37-.15.14.06.21.22.15.37l-1.71,3.97c-.05.11-.15.17-.26.17Z"/>
            <path class="cls-2" d="m104.47,31.57s-.07,0-.11-.02c-.14-.06-.21-.22-.15-.36l1.67-3.99c.06-.14.22-.21.36-.15.14.06.21.22.15.36l-1.67,3.99c-.04.11-.15.17-.26.17Z"/>
            <path class="cls-2" d="m103.42,31.21s-.07,0-.11-.02c-.14-.06-.21-.22-.15-.36l1.64-4c.06-.14.22-.21.36-.15.14.06.21.22.15.36l-1.64,4c-.04.11-.15.17-.26.17Z"/>
            <path class="cls-2" d="m102.22,30.68s-.07,0-.1-.02c-.14-.06-.21-.22-.16-.36l1.6-4.02c.06-.14.22-.21.36-.16.14.06.21.22.16.36l-1.6,4.02c-.04.11-.15.18-.26.18Z"/>
            <path class="cls-2" d="m101.17,30.32s-.07,0-.1-.02c-.14-.06-.21-.22-.16-.36l1.57-4.03c.06-.14.22-.21.36-.16.14.06.21.22.16.36l-1.57,4.03c-.04.11-.15.18-.26.18Z"/>
            <path class="cls-2" d="m99.97,29.8s-.07,0-.1-.02c-.14-.05-.22-.22-.16-.36l1.53-4.05c.05-.14.22-.22.36-.16.14.05.22.22.16.36l-1.53,4.05c-.04.11-.15.18-.26.18Z"/>
            <path class="cls-2" d="m98.93,29.43s-.06,0-.1-.02c-.14-.05-.22-.21-.16-.36l1.5-4.06c.05-.14.21-.22.36-.16.14.05.22.21.16.36l-1.5,4.06c-.04.11-.15.18-.26.18Z"/>
            <path class="cls-2" d="m97.71,28.95s-.06,0-.09-.02c-.14-.05-.22-.21-.17-.36l1.46-4.07c.05-.14.21-.22.36-.17.14.05.22.21.17.36l-1.46,4.07c-.04.11-.15.18-.26.18Z"/>
            <path class="cls-2" d="m96.64,28.64s-.06,0-.09-.02c-.15-.05-.22-.21-.17-.36l1.43-4.08c.05-.15.21-.22.36-.17.15.05.22.21.17.36l-1.43,4.08c-.04.11-.15.19-.26.19Z"/>
            <path class="cls-2" d="m95.42,28.18s-.06,0-.09-.01c-.15-.05-.22-.21-.17-.35l1.39-4.1c.05-.15.21-.22.35-.17.15.05.22.21.17.35l-1.39,4.1c-.04.12-.15.19-.26.19Z"/>
            <path class="cls-2" d="m94.35,27.87s-.06,0-.09-.01c-.15-.05-.23-.21-.18-.35l1.36-4.11c.05-.15.21-.23.35-.18.15.05.23.21.18.35l-1.36,4.11c-.04.12-.15.19-.26.19Z"/>
            <path class="cls-2" d="m93.13,27.4s-.06,0-.08-.01c-.15-.05-.23-.2-.18-.35l1.32-4.12c.05-.15.2-.23.35-.18.15.05.23.2.18.35l-1.32,4.12c-.04.12-.15.19-.27.19Z"/>
            <path class="cls-2" d="m92.06,27.09s-.06,0-.08-.01c-.15-.05-.23-.2-.18-.35l1.28-4.13c.05-.15.2-.23.35-.18.15.05.23.2.18.35l-1.28,4.13c-.04.12-.15.2-.27.2Z"/>
            <path class="cls-2" d="m90.82,26.69s-.05,0-.08-.01c-.15-.04-.23-.2-.19-.35l1.25-4.14c.04-.15.2-.23.35-.19.15.04.23.2.19.35l-1.25,4.14c-.04.12-.15.2-.27.2Z"/>
            <path class="cls-2" d="m89.74,26.43s-.05,0-.08-.01c-.15-.04-.23-.2-.19-.35l1.21-4.15c.04-.15.2-.23.35-.19.15.04.23.2.19.35l-1.21,4.15c-.04.12-.15.2-.27.2Z"/>
            <path class="cls-2" d="m88.49,26.03s-.05,0-.08-.01c-.15-.04-.23-.2-.19-.34l1.17-4.16c.04-.15.2-.23.34-.19.15.04.23.2.19.34l-1.17,4.16c-.03.12-.15.2-.27.2Z"/>
            <path class="cls-2" d="m87.41,25.77s-.05,0-.07,0c-.15-.04-.24-.19-.2-.34l1.14-4.17c.04-.15.19-.24.34-.2.15.04.24.19.2.34l-1.14,4.17c-.03.12-.15.21-.27.21Z"/>
            <path class="cls-2" d="m86.16,25.37s-.05,0-.07,0c-.15-.04-.24-.19-.2-.34l1.1-4.18c.04-.15.19-.24.34-.2.15.04.24.19.2.34l-1.1,4.18c-.03.12-.15.21-.27.21Z"/>
            <path class="cls-2" d="m85.08,25.13s-.05,0-.07,0c-.15-.04-.24-.19-.2-.34l1.07-4.19c.04-.15.19-.24.34-.2.15.04.24.19.2.34l-1.07,4.19c-.03.13-.15.21-.27.21Z"/>
            <path class="cls-2" d="m83.82,24.79s-.04,0-.07,0c-.15-.04-.24-.19-.2-.34l1.03-4.2c.04-.15.19-.24.34-.2.15.04.24.19.2.34l-1.03,4.2c-.03.13-.15.21-.27.21Z"/>
            <path class="cls-2" d="m82.73,24.58s-.04,0-.06,0c-.15-.04-.24-.19-.21-.34l.99-4.21c.04-.15.19-.24.34-.21.15.04.24.19.21.34l-.99,4.21c-.03.13-.14.21-.27.21Z"/>
            <path class="cls-2" d="m81.46,24.24s-.04,0-.06,0c-.15-.03-.24-.18-.21-.33l.95-4.22c.03-.15.18-.25.33-.21.15.03.24.18.21.33l-.95,4.22c-.03.13-.14.22-.27.22Z"/>
            <path class="cls-2" d="m80.37,24.04s-.04,0-.06,0c-.15-.03-.25-.18-.21-.33l.92-4.23c.03-.15.18-.24.33-.21.15.03.25.18.21.33l-.92,4.23c-.03.13-.14.22-.27.22Z"/>
            <path class="cls-2" d="m79.1,23.7s-.04,0-.06,0c-.15-.03-.25-.18-.22-.33l.88-4.24c.03-.15.18-.25.33-.22.15.03.25.18.22.33l-.88,4.24c-.03.13-.14.22-.27.22Z"/>
            <path class="cls-2" d="m78.01,23.53s-.04,0-.05,0c-.15-.03-.25-.18-.22-.33l.85-4.24c.03-.15.18-.25.33-.22.15.03.25.18.22.33l-.85,4.24c-.03.13-.14.22-.27.22Z"/>
            <path class="cls-2" d="m76.73,23.25s-.03,0-.05,0c-.15-.03-.25-.17-.22-.33l.81-4.25c.03-.15.17-.25.33-.22.15.03.25.17.22.33l-.81,4.25c-.03.13-.14.23-.27.23Z"/>
            <path class="cls-2" d="m75.63,23.11s-.03,0-.05,0c-.15-.03-.25-.17-.22-.32l.77-4.26c.03-.15.17-.25.32-.22.15.03.25.17.22.32l-.77,4.26c-.02.13-.14.23-.27.23Z"/>
            <path class="cls-2" d="m74.35,22.83s-.03,0-.05,0c-.15-.03-.25-.17-.23-.32l.73-4.26c.03-.15.17-.25.32-.23.15.03.25.17.23.32l-.73,4.26c-.02.14-.14.23-.27.23Z"/>
            <path class="cls-2" d="m73.25,22.68s-.03,0-.05,0c-.15-.02-.25-.17-.23-.32l.7-4.27c.02-.15.17-.26.32-.23.15.02.25.17.23.32l-.7,4.27c-.02.14-.14.23-.27.23Z"/>
            <path class="cls-2" d="m71.96,22.4s-.03,0-.04,0c-.15-.02-.26-.17-.23-.32l.66-4.28c.02-.15.16-.26.32-.23.15.02.26.17.23.32l-.66,4.28c-.02.14-.14.24-.28.24Z"/>
            <path class="cls-2" d="m70.86,22.3s-.03,0-.04,0c-.15-.02-.26-.16-.24-.32l.62-4.28c.02-.15.16-.26.32-.24.15.02.26.16.24.32l-.62,4.28c-.02.14-.14.24-.28.24Z"/>
            <path class="cls-2" d="m69.57,22.09s-.03,0-.04,0c-.15-.02-.26-.16-.24-.31l.58-4.29c.02-.15.16-.26.31-.24.15.02.26.16.24.31l-.58,4.29c-.02.14-.14.24-.28.24Z"/>
            <path class="cls-2" d="m68.46,22s-.02,0-.04,0c-.15-.02-.26-.16-.24-.31l.55-4.29c.02-.15.16-.26.31-.24.15.02.26.16.24.31l-.55,4.29c-.02.14-.14.24-.28.24Z"/>
            <path class="cls-2" d="m67.17,21.78s-.02,0-.03,0c-.15-.02-.26-.16-.24-.31l.51-4.3c.02-.15.15-.26.31-.24.15.02.26.16.24.31l-.51,4.3c-.02.14-.14.25-.28.25Z"/>
            <path class="cls-2" d="m66.06,21.69s-.02,0-.03,0c-.15-.02-.26-.15-.25-.31l.48-4.3c.02-.15.16-.26.31-.25.15.02.26.15.25.31l-.48,4.3c-.02.14-.14.25-.28.25Z"/>
            <path class="cls-2" d="m64.77,21.48s-.02,0-.03,0c-.15-.02-.26-.15-.25-.31l.44-4.3c.02-.15.15-.27.31-.25.15.02.26.15.25.31l-.44,4.3c-.01.14-.14.25-.28.25Z"/>
            <path class="cls-2" d="m63.66,21.45s-.02,0-.03,0c-.15-.01-.27-.15-.25-.3l.4-4.31c.01-.15.15-.27.3-.25.15.01.27.15.25.3l-.4,4.31c-.01.14-.13.25-.28.25Z"/>
            <path class="cls-2" d="m62.36,21.3s-.02,0-.02,0c-.15-.01-.27-.15-.25-.3l.36-4.31c.01-.15.15-.27.3-.25.15.01.27.15.25.3l-.36,4.31c-.01.15-.13.26-.28.26Z"/>
            <path class="cls-2" d="m61.25,21.26s-.01,0-.02,0c-.15-.01-.27-.15-.26-.3l.33-4.31c.01-.15.14-.27.3-.26.15.01.27.15.26.3l-.33,4.31c-.01.15-.13.26-.28.26Z"/>
            <path class="cls-2" d="m59.94,21.12s-.01,0-.02,0c-.15-.01-.27-.14-.26-.3l.29-4.32c.01-.15.15-.27.3-.26.15.01.27.14.26.3l-.29,4.32c0,.15-.13.26-.28.26Z"/>
            <path class="cls-2" d="m58.84,21.08s-.01,0-.02,0c-.15,0-.27-.14-.26-.29l.25-4.32c0-.15.15-.27.29-.26.15,0,.27.14.26.29l-.25,4.32c0,.15-.13.26-.28.26Z"/>
            <path class="cls-2" d="m57.53,20.94s0,0-.01,0c-.15,0-.27-.14-.26-.29l.21-4.32c0-.15.14-.27.29-.26.15,0,.27.14.26.29l-.21,4.32c0,.15-.13.26-.28.26Z"/>
            <path class="cls-2" d="m56.42,20.96s0,0-.01,0c-.15,0-.27-.14-.27-.29l.18-4.32c0-.15.14-.28.29-.27.15,0,.27.14.27.29l-.18,4.32c0,.15-.13.27-.28.27Z"/>
            <path class="cls-2" d="m55.11,20.88h0c-.15,0-.27-.13-.27-.29l.14-4.32c0-.15.13-.26.29-.27.15,0,.27.13.27.29l-.14,4.32c0,.15-.13.27-.28.27Z"/>
            <path class="cls-2" d="m54,20.9h0c-.15,0-.28-.13-.27-.29l.11-4.32c0-.15.13-.29.29-.27.15,0,.28.13.27.29l-.11,4.32c0,.15-.13.27-.28.27Z"/>
            <path class="cls-2" d="m52.69,20.82h0c-.15,0-.28-.13-.27-.28l.07-4.33c0-.15.14-.28.28-.27.15,0,.28.13.27.28l-.07,4.33c0,.15-.13.27-.28.27Z"/>
            <path class="cls-2" d="m51.59,20.84h0c-.15,0-.28-.13-.28-.28l.03-4.33c0-.15.13-.28.28-.28h0c.15,0,.28.13.28.28l-.03,4.33c0,.15-.13.28-.28.28Z"/>
            <path class="cls-2" d="m50.54,20.77c-.15,0-.28-.12-.28-.28v-4.33c0-.15.12-.28.27-.28h0c.15,0,.28.12.28.28v4.33c0,.15-.12.28-.27.28h0Z"/>
            <path class="cls-2" d="m49.17,20.85c-.15,0-.28-.12-.28-.28l-.04-4.33c0-.15.12-.28.28-.28h0c.15,0,.28.12.28.28l.04,4.33c0,.15-.12.28-.28.28h0Z"/>
            <path class="cls-2" d="m47.86,20.83c-.15,0-.28-.12-.28-.27l-.08-4.32c0-.15.12-.28.27-.28.15,0,.28.12.28.27l.08,4.32c0,.15-.12.28-.27.28h0Z"/>
            <path class="cls-2" d="m46.75,20.91c-.15,0-.27-.12-.28-.27l-.12-4.32c0-.15.12-.28.27-.29.17,0,.28.12.29.27l.12,4.32c0,.15-.12.28-.27.29h0Z"/>
            <path class="cls-2" d="m45.44,20.89c-.15,0-.27-.12-.28-.27l-.15-4.32c0-.15.11-.28.27-.29.15-.01.28.11.29.27l.15,4.32c0,.15-.11.28-.27.29,0,0,0,0-.01,0Z"/>
            <path class="cls-2" d="m44.33,20.97c-.15,0-.27-.12-.28-.27l-.19-4.32c0-.15.11-.28.27-.29.15,0,.28.11.29.27l.19,4.32c0,.15-.11.28-.27.29,0,0,0,0-.01,0Z"/>
            <path class="cls-2" d="m43.02,20.97c-.15,0-.27-.12-.28-.26l-.23-4.32c0-.15.11-.28.26-.29.16,0,.28.11.29.26l.23,4.32c0,.15-.11.28-.26.29,0,0-.01,0-.02,0Z"/>
            <path class="cls-2" d="m41.92,21.1c-.15,0-.27-.11-.28-.26l-.26-4.32c0-.15.11-.29.26-.29.15,0,.29.11.3.26l.26,4.32c0,.15-.11.29-.26.29,0,0-.01,0-.02,0Z"/>
            <path class="cls-2" d="m40.61,21.15c-.14,0-.27-.11-.28-.26l-.3-4.32c-.01-.15.1-.29.26-.3.15,0,.29.11.3.26l.3,4.32c.01.15-.1.29-.26.3,0,0-.01,0-.02,0Z"/>
            <path class="cls-2" d="m39.51,21.29c-.14,0-.27-.11-.28-.26l-.34-4.31c-.01-.15.1-.29.26-.3.15-.01.29.1.3.26l.34,4.31c.01.15-.1.29-.26.3,0,0-.01,0-.02,0Z"/>
            <path class="cls-2" d="m38.2,21.34c-.14,0-.26-.11-.28-.25l-.38-4.31c-.01-.15.1-.29.25-.3.15-.01.29.1.3.25l.38,4.31c.01.15-.1.29-.25.3,0,0-.02,0-.02,0Z"/>
            <path class="cls-2" d="m37.1,21.47c-.14,0-.26-.11-.28-.25l-.41-4.31c-.01-.15.1-.29.25-.3.16-.02.29.1.3.25l.41,4.31c.01.15-.1.29-.25.3,0,0-.02,0-.03,0Z"/>
            <path class="cls-2" d="m35.79,21.54c-.14,0-.26-.11-.28-.25l-.45-4.3c-.02-.15.1-.29.25-.31.16-.02.29.1.31.25l.45,4.3c.02.15-.1.29-.25.31,0,0-.02,0-.03,0Z"/>
            <path class="cls-2" d="m34.69,21.73c-.14,0-.26-.11-.28-.25l-.49-4.3c-.02-.15.09-.29.25-.31.15-.02.29.09.31.25l.49,4.3c.02.15-.09.29-.25.31-.01,0-.02,0-.03,0Z"/>
            <path class="cls-2" d="m33.39,21.85c-.14,0-.26-.1-.28-.24l-.53-4.29c-.02-.15.09-.29.24-.31.15-.02.29.09.31.24l.53,4.29c.02.15-.09.29-.24.31-.01,0-.02,0-.03,0Z"/>
            <path class="cls-2" d="m32.29,22.04c-.14,0-.26-.1-.28-.24l-.56-4.29c-.02-.15.09-.29.24-.31.15-.02.29.09.31.24l.56,4.29c.02.15-.09.29-.24.31-.01,0-.02,0-.04,0Z"/>
            <path class="cls-2" d="m30.99,22.15c-.14,0-.26-.1-.28-.24l-.6-4.28c-.02-.15.08-.29.24-.31.15-.02.29.09.31.24l.6,4.28c.02.15-.08.29-.24.31-.01,0-.03,0-.04,0Z"/>
            <path class="cls-2" d="m29.9,22.34c-.14,0-.25-.1-.28-.24l-.63-4.28c-.02-.15.08-.29.23-.32.15-.03.29.08.32.23l.63,4.28c.02.15-.08.29-.23.32-.01,0-.03,0-.04,0Z"/>
            <path class="cls-2" d="m28.59,22.49c-.13,0-.25-.1-.27-.24l-.67-4.27c-.02-.15.08-.29.23-.32.15-.02.29.08.32.23l.67,4.27c.02.15-.08.29-.23.32-.01,0-.03,0-.04,0Z"/>
            <path class="cls-2" d="m27.51,22.73c-.13,0-.25-.1-.27-.23l-.71-4.27c-.03-.15.08-.3.23-.32.15-.03.3.08.32.23l.71,4.27c.03.15-.08.3-.23.32-.02,0-.03,0-.05,0Z"/>
            <path class="cls-2" d="m26.21,22.92c-.13,0-.25-.1-.27-.23l-.75-4.26c-.03-.15.07-.3.23-.32.15-.03.3.07.32.23l.75,4.26c.03.15-.07.3-.23.32-.02,0-.03,0-.05,0Z"/>
            <path class="cls-2" d="m25.13,23.16c-.13,0-.25-.09-.27-.23l-.78-4.25c-.03-.15.07-.3.22-.32.15-.03.3.07.32.22l.78,4.25c.03.15-.07.3-.22.32-.02,0-.03,0-.05,0Z"/>
            <path class="cls-2" d="m23.83,23.34c-.13,0-.25-.09-.27-.23l-.82-4.25c-.03-.15.07-.3.22-.33.15-.03.3.07.33.22l.82,4.25c.03.15-.07.3-.22.33-.02,0-.04,0-.05,0Z"/>
            <path class="cls-2" d="m22.75,23.58c-.13,0-.25-.09-.27-.22l-.86-4.24c-.03-.15.07-.3.22-.33.15-.03.3.07.33.22l.86,4.24c.03.15-.07.3-.22.33-.02,0-.04,0-.06,0Z"/>
            <path class="cls-2" d="m21.46,23.81c-.13,0-.24-.09-.27-.22l-.9-4.23c-.03-.15.06-.3.21-.33.15-.03.3.06.33.22l.9,4.23c.03.15-.06.3-.21.33-.02,0-.04,0-.06,0Z"/>
            <path class="cls-2" d="m20.39,24.11c-.13,0-.24-.09-.27-.22l-.93-4.22c-.03-.15.06-.3.21-.33.15-.03.3.06.33.21l.93,4.22c.03.15-.06.3-.21.33-.02,0-.04,0-.06,0Z"/>
            <path class="cls-2" d="m19.1,24.36c-.13,0-.24-.09-.27-.22l-.97-4.22c-.03-.15.06-.3.21-.33.15-.04.3.06.33.21l.97,4.22c.03.15-.06.3-.21.33-.02,0-.04,0-.06,0Z"/>
            <path class="cls-2" d="m18.04,24.65c-.13,0-.24-.09-.27-.21l-1-4.21c-.04-.15.06-.3.21-.34.15-.03.3.06.34.21l1,4.21c.04.15-.06.3-.21.34-.02,0-.04,0-.06,0Z"/>
            <path class="cls-2" d="m16.75,24.9c-.12,0-.24-.08-.27-.21l-1.04-4.2c-.04-.15.05-.3.2-.34.15-.04.3.05.34.2l1.04,4.2c.04.15-.05.3-.2.34-.02,0-.05,0-.07,0Z"/>
            <path class="cls-2" d="m15.68,25.2c-.12,0-.24-.08-.27-.21l-1.08-4.19c-.04-.15.05-.3.2-.34.15-.04.3.05.34.2l1.08,4.19c.04.15-.05.3-.2.34-.02,0-.05,0-.07,0Z"/>
            <path class="cls-2" d="m14.41,25.5c-.12,0-.24-.08-.27-.21l-1.12-4.18c-.04-.15.05-.3.2-.34.15-.04.3.05.34.2l1.12,4.18c.04.15-.05.3-.2.34-.02,0-.05,0-.07,0Z"/>
            <path class="cls-2" d="m13.35,25.85c-.12,0-.23-.08-.27-.2l-1.15-4.17c-.04-.15.05-.3.19-.34.15-.04.3.05.34.19l1.15,4.17c.04.15-.05.3-.19.34-.02,0-.05,0-.07,0Z"/>
            <path class="cls-2" d="m12.08,26.16c-.12,0-.23-.08-.27-.2l-1.19-4.16c-.04-.15.04-.3.19-.34.15-.04.3.04.34.19l1.19,4.16c.04.15-.04.3-.19.34-.03,0-.05.01-.08.01Z"/>
            <path class="cls-2" d="m11.03,26.51c-.12,0-.23-.08-.27-.2l-1.22-4.15c-.04-.15.04-.3.19-.35.15-.04.3.04.35.19l1.22,4.15c.04.15-.04.3-.19.35-.03,0-.05.01-.08.01Z"/>
            <path class="cls-2" d="m9.75,26.82c-.12,0-.23-.08-.27-.2l-1.26-4.14c-.04-.15.04-.3.19-.35.15-.05.3.04.35.19l1.26,4.14c.04.15-.04.3-.19.35-.03,0-.05.01-.08.01Z"/>
            <path class="cls-2" d="m8.71,27.19c-.12,0-.23-.08-.27-.2l-1.29-4.13c-.05-.15.04-.3.18-.35.15-.05.3.04.35.18l1.29,4.13c.05.15-.04.3-.18.35-.03,0-.06.01-.08.01Z"/>
            <path class="cls-2" d="m7.45,27.56c-.12,0-.23-.07-.27-.19l-1.33-4.12c-.05-.15.03-.3.18-.35.15-.05.3.03.35.18l1.33,4.12c.05.15-.03.3-.18.35-.03,0-.06.01-.09.01Z"/>
            <path class="cls-2" d="m6.42,27.96c-.12,0-.23-.07-.26-.19l-1.37-4.1c-.05-.15.03-.3.18-.35.15-.05.3.03.35.18l1.37,4.1c.05.15-.03.3-.18.35-.03,0-.06.01-.09.01Z"/>
            <path class="cls-2" d="m5.16,28.34c-.12,0-.22-.07-.26-.19l-1.4-4.09c-.05-.15.03-.3.17-.35.15-.05.3.03.35.17l1.4,4.09c.05.15-.03.3-.17.35-.03.01-.06.02-.09.02Z"/>
            <path class="cls-2" d="m4.13,28.74c-.11,0-.22-.07-.26-.19l-1.44-4.08c-.05-.15.03-.3.17-.36.15-.05.3.03.36.17l1.44,4.08c.05.15-.03.3-.17.36-.03.01-.06.02-.09.02Z"/>
            <path class="cls-2" d="m2.87,29.11c-.11,0-.22-.07-.26-.18l-1.48-4.07c-.05-.14.02-.3.17-.36.14-.05.3.02.36.17l1.48,4.07c.05.14-.02.3-.17.36-.03.01-.06.02-.09.02Z"/>
            <path class="cls-2" d="m1.85,29.54c-.11,0-.22-.07-.26-.18L.08,25.31c-.05-.14.02-.3.16-.36.14-.05.3.02.36.16l1.51,4.05c.05.14-.02.3-.16.36-.03.01-.06.02-.1.02Z"/>
            <path class="cls-2" d="m.61,29.98c-.11,0-.22-.07-.26-.18l-1.55-4.04c-.05-.14.02-.3.16-.36.14-.06.3.02.36.16l1.55,4.04c.05.14-.02.3-.16.36-.03.01-.07.02-.1.02Z"/>
            <path class="cls-2" d="m174.68,233.43s-.1-.01-.14-.04l-3.73-2.19c-.13-.08-.18-.25-.1-.38.08-.13.25-.18.38-.1l3.73,2.19c.13.08.18.25.1.38-.05.09-.14.14-.24.14Z"/>
            <path class="cls-2" d="m175.4,232.29s-.1-.01-.14-.04l-3.75-2.16c-.13-.08-.18-.25-.1-.38.08-.13.25-.18.38-.1l3.75,2.16c.13.08.18.25.1.38-.05.09-.15.14-.24.14Z"/>
            <path class="cls-2" d="m175.92,231.27s-.09-.01-.14-.04l-3.77-2.13c-.13-.08-.18-.25-.11-.38.08-.13.25-.18.38-.11l3.77,2.13c.13.08.18.25.11.38-.05.09-.15.14-.24.14Z"/>
            <path class="cls-2" d="m176.64,230.12s-.09-.01-.13-.03l-3.79-2.09c-.13-.07-.18-.24-.11-.38.07-.13.24-.18.38-.11l3.79,2.09c.13.07.18.24.11.38-.05.09-.15.14-.24.14Z"/>
            <path class="cls-2" d="m177.17,229.11s-.09-.01-.13-.03l-3.8-2.06c-.14-.07-.19-.24-.11-.38.07-.13.24-.19.38-.11l3.8,2.06c.14.07.19.24.11.38-.05.09-.15.15-.25.15Z"/>
            <path class="cls-2" d="m177.82,227.93s-.09-.01-.13-.03l-3.82-2.03c-.14-.07-.19-.24-.12-.38.07-.14.24-.19.38-.12l3.82,2.03c.14.07.19.24.12.38-.05.09-.15.15-.25.15Z"/>
            <path class="cls-2" d="m178.3,226.89s-.09,0-.13-.03l-3.84-2c-.14-.07-.19-.24-.12-.38.07-.14.24-.19.38-.12l3.84,2c.14.07.19.24.12.38-.05.1-.15.15-.25.15Z"/>
            <path class="cls-2" d="m178.96,225.71s-.09,0-.13-.03l-3.86-1.96c-.14-.07-.19-.24-.12-.37.07-.14.24-.19.37-.12l3.86,1.96c.14.07.19.24.12.37-.05.1-.15.15-.25.15Z"/>
            <path class="cls-2" d="m179.44,224.67s-.08,0-.12-.03l-3.87-1.93c-.14-.07-.19-.24-.12-.37.07-.14.24-.19.37-.12l3.87,1.93c.14.07.19.24.12.37-.05.1-.15.15-.25.15Z"/>
            <path class="cls-2" d="m180.1,223.49s-.08,0-.12-.03l-3.89-1.89c-.14-.07-.2-.23-.13-.37.07-.14.23-.2.37-.13l3.89,1.89c.14.07.2.23.13.37-.05.1-.15.16-.25.16Z"/>
            <path class="cls-2" d="m180.55,222.44s-.08,0-.12-.03l-3.9-1.86c-.14-.07-.2-.23-.13-.37.07-.14.23-.2.37-.13l3.9,1.86c.14.07.2.23.13.37-.05.1-.15.16-.25.16Z"/>
            <path class="cls-2" d="m181.15,221.23s-.08,0-.12-.03l-3.92-1.83c-.14-.06-.2-.23-.13-.37s.23-.2.37-.13l3.92,1.83c.14.06.2.23.13.37-.05.1-.15.16-.25.16Z"/>
            <path class="cls-2" d="m181.58,220.17s-.08,0-.12-.03l-3.94-1.8c-.14-.06-.2-.23-.14-.37.06-.14.23-.2.37-.14l3.94,1.8c.14.06.2.23.14.37-.05.1-.15.16-.25.16Z"/>
            <path class="cls-2" d="m182.18,218.96s-.08,0-.11-.02l-3.95-1.76c-.14-.06-.2-.23-.14-.37.06-.14.23-.2.37-.14l3.95,1.76c.14.06.2.23.14.37-.05.1-.15.17-.25.17Z"/>
            <path class="cls-2" d="m182.61,217.9s-.07,0-.11-.02l-3.97-1.73c-.14-.06-.21-.23-.14-.37.06-.14.23-.2.37-.14l3.97,1.73c.14.06.21.23.14.37-.05.1-.15.17-.26.17Z"/>
            <path class="cls-2" d="m183.21,216.69s-.07,0-.11-.02l-3.98-1.69c-.14-.06-.21-.22-.15-.37.06-.14.22-.21.37-.15l3.98,1.69c.14.06.21.22.15.37-.05.11-.15.17-.26.17Z"/>
            <path class="cls-2" d="m183.59,215.61s-.07,0-.11-.02l-4-1.66c-.14-.06-.21-.22-.15-.36.06-.14.22-.21.36-.15l4,1.66c.14.06.21.22.15.36-.04.11-.15.17-.26.17Z"/>
            <path class="cls-2" d="m184.13,214.37s-.07,0-.1-.02l-4.01-1.62c-.14-.06-.21-.22-.15-.36.06-.14.22-.21.36-.15l4.01,1.62c.14.06.21.22.15.36-.04.11-.15.17-.26.17Z"/>
            <path class="cls-2" d="m184.5,213.29s-.07,0-.1-.02l-4.02-1.59c-.14-.06-.21-.22-.16-.36.06-.14.22-.21.36-.16l4.02,1.59c.14.06.21.22.16.36-.04.11-.15.18-.26.18Z"/>
            <path class="cls-2" d="m185.04,212.05s-.07,0-.1-.02l-4.04-1.55c-.14-.06-.22-.22-.16-.36.06-.14.22-.21.36-.16l4.04,1.55c.14.06.22.22.16.36-.04.11-.15.18-.26.18Z"/>
            <path class="cls-2" d="m185.42,210.97s-.07,0-.1-.02l-4.05-1.52c-.14-.05-.22-.21-.16-.36.05-.14.21-.22.36-.16l4.05,1.52c.14.05.22.21.16.36-.04.11-.15.18-.26.18Z"/>
            <path class="cls-2" d="m185.94,209.72s-.06,0-.1-.02l-4.07-1.48c-.14-.05-.22-.21-.17-.36.05-.14.21-.22.36-.17l4.07,1.48c.14.05.22.21.17.36-.04.11-.15.18-.26.18Z"/>
            <path class="cls-2" d="m186.26,208.63s-.06,0-.09-.02l-4.08-1.45c-.15-.05-.22-.21-.17-.36.05-.15.21-.22.36-.17l4.08,1.45c.15.05.22.21.17.36-.04.11-.15.19-.26.19Z"/>
            <path class="cls-2" d="m186.74,207.36s-.06,0-.09-.02l-4.09-1.41c-.15-.05-.22-.21-.17-.35.05-.15.21-.22.35-.17l4.09,1.41c.15.05.22.21.17.35-.04.12-.15.19-.26.19Z"/>
            <path class="cls-2" d="m187.06,206.26s-.06,0-.09-.01l-4.1-1.37c-.15-.05-.22-.21-.18-.35.05-.15.21-.22.35-.18l4.1,1.37c.15.05.22.21.18.35-.04.12-.15.19-.26.19Z"/>
            <path class="cls-2" d="m187.54,205s-.06,0-.09-.01l-4.11-1.34c-.15-.05-.23-.2-.18-.35.05-.15.2-.23.35-.18l4.11,1.34c.15.05.23.2.18.35-.04.12-.15.19-.26.19Z"/>
            <path class="cls-2" d="m187.86,203.9s-.06,0-.08-.01l-4.12-1.3c-.15-.05-.23-.2-.18-.35.05-.15.2-.23.35-.18l4.12,1.3c.15.05.23.2.18.35-.04.12-.15.19-.27.19Z"/>
            <path class="cls-2" d="m188.31,202.63s-.05,0-.08-.01l-4.14-1.26c-.15-.05-.23-.2-.19-.35.04-.15.2-.23.35-.19l4.14,1.26c.15.05.23.2.19.35-.04.12-.15.2-.27.2Z"/>
            <path class="cls-2" d="m188.57,201.51s-.05,0-.08-.01l-4.15-1.23c-.15-.04-.23-.2-.19-.35.04-.15.2-.23.35-.19l4.15,1.23c.15.04.23.2.19.35-.04.12-.15.2-.27.2Z"/>
            <path class="cls-2" d="m188.99,200.23s-.05,0-.08-.01l-4.16-1.19c-.15-.04-.23-.2-.19-.34.04-.15.2-.23.34-.19l4.16,1.19c.15.04.23.2.19.34-.04.12-.15.2-.27.2Z"/>
            <path class="cls-2" d="m189.25,199.12s-.05,0-.07-.01l-4.17-1.16c-.15-.04-.24-.19-.19-.34.04-.15.19-.24.34-.19l4.17,1.16c.15.04.24.19.19.34-.03.12-.15.2-.27.2Z"/>
            <path class="cls-2" d="m189.67,197.83s-.05,0-.07,0l-4.18-1.12c-.15-.04-.24-.19-.2-.34.04-.15.19-.24.34-.2l4.18,1.12c.15.04.24.19.2.34-.03.12-.15.21-.27.21Z"/>
            <path class="cls-2" d="m189.93,196.72s-.05,0-.07,0l-4.19-1.09c-.15-.04-.24-.19-.2-.34.04-.15.19-.24.34-.2l4.19,1.09c.15.04.24.19.2.34-.03.13-.15.21-.27.21Z"/>
            <path class="cls-2" d="m190.3,195.42s-.04,0-.07,0l-4.2-1.05c-.15-.04-.24-.19-.2-.34.04-.15.19-.24.34-.2l4.2,1.05c.15.04.24.19.2.34-.03.13-.15.21-.27.21Z"/>
            <path class="cls-2" d="m190.51,194.29s-.04,0-.07,0l-4.21-1.01c-.15-.04-.24-.19-.21-.34.04-.15.18-.24.34-.21l4.21,1.01c.15.04.24.19.21.34-.03.13-.14.21-.27.21Z"/>
            <path class="cls-2" d="m190.86,192.99s-.04,0-.06,0l-4.22-.97c-.15-.03-.24-.18-.21-.33.03-.15.18-.24.33-.21l4.22.97c.15.03.24.18.21.33-.03.13-.14.22-.27.22Z"/>
            <path class="cls-2" d="m191.07,191.86s-.04,0-.06,0l-4.22-.94c-.15-.03-.24-.18-.21-.33.03-.15.18-.24.33-.21l4.22.94c.15.03.24.18.21.33-.03.13-.14.22-.27.22Z"/>
            <path class="cls-2" d="m191.42,190.56s-.04,0-.06,0l-4.23-.9c-.15-.03-.25-.18-.21-.33.03-.15.18-.25.33-.21l4.23.9c.15.03.25.18.21.33-.03.13-.14.22-.27.22Z"/>
            <path class="cls-2" d="m191.62,189.43s-.04,0-.06,0l-4.24-.86c-.15-.03-.25-.18-.22-.33.03-.15.18-.25.33-.22l4.24.86c.15.03.25.18.22.33-.03.13-.14.22-.27.22Z"/>
            <path class="cls-2" d="m191.91,188.11s-.04,0-.05,0l-4.25-.82c-.15-.03-.25-.18-.22-.33.03-.15.17-.25.33-.22l4.25.82c.15.03.25.18.22.33-.03.13-.14.23-.27.23Z"/>
            <path class="cls-2" d="m192.06,186.98s-.03,0-.05,0l-4.25-.79c-.15-.03-.25-.17-.22-.32s.17-.25.32-.22l4.25.79c.15.03.25.17.22.32-.03.13-.14.23-.27.23Z"/>
            <path class="cls-2" d="m192.35,185.66s-.03,0-.05,0l-4.26-.75c-.15-.03-.25-.17-.23-.32.03-.15.17-.26.32-.23l4.26.75c.15.03.25.17.23.32-.02.13-.14.23-.27.23Z"/>
            <path class="cls-2" d="m192.5,184.52s-.03,0-.05,0l-4.27-.72c-.15-.03-.25-.17-.23-.32.03-.15.17-.25.32-.23l4.27.72c.15.03.25.17.23.32-.02.14-.14.23-.27.23Z"/>
            <path class="cls-2" d="m192.79,183.2s-.03,0-.04,0l-4.27-.68c-.15-.02-.26-.17-.23-.32.02-.15.17-.26.32-.23l4.27.68c.15.02.26.17.23.32-.02.14-.14.24-.27.24Z"/>
            <path class="cls-2" d="m192.92,182.07s-.03,0-.04,0l-4.28-.64c-.15-.02-.26-.16-.23-.32.02-.15.17-.26.32-.23l4.28.64c.15.02.26.16.23.32-.02.14-.14.24-.28.24Z"/>
            <path class="cls-2" d="m193.14,180.73s-.03,0-.04,0l-4.28-.6c-.15-.02-.26-.16-.24-.31.02-.15.16-.26.31-.24l4.28.6c.15.02.26.16.24.31-.02.14-.14.24-.28.24Z"/>
            <path class="cls-2" d="m193.24,179.6s-.02,0-.04,0l-4.29-.57c-.15-.02-.26-.16-.24-.31.02-.15.16-.27.31-.24l4.29.57c.15.02.26.16.24.31-.02.14-.14.24-.28.24Z"/>
            <path class="cls-2" d="m193.45,178.26s-.02,0-.03,0l-4.29-.53c-.15-.02-.26-.16-.24-.31s.16-.26.31-.24l4.29.53c.15.02.26.16.24.31-.02.14-.14.24-.28.24Z"/>
            <path class="cls-2" d="m193.55,177.12s-.02,0-.03,0l-4.3-.49c-.15-.02-.26-.16-.24-.31.02-.15.15-.26.31-.24l4.3.49c.15.02.26.16.24.31-.02.14-.14.25-.28.25Z"/>
            <path class="cls-2" d="m193.77,175.79s-.02,0-.03,0l-4.3-.45c-.15-.02-.26-.15-.25-.31.02-.15.15-.26.31-.25l4.3.45c.15.02.26.15.25.31-.02.14-.14.25-.28.25Z"/>
            <path class="cls-2" d="m193.83,174.65s-.02,0-.03,0l-4.31-.42c-.15-.01-.27-.15-.25-.3.02-.15.15-.27.3-.25l4.31.42c.15.01.27.15.25.3-.01.14-.14.25-.28.25Z"/>
            <path class="cls-2" d="m193.99,173.3s-.02,0-.02,0l-4.31-.38c-.15-.01-.27-.15-.25-.3.01-.15.15-.27.3-.25l4.31.38c.15.01.27.15.25.3-.01.14-.13.25-.28.25Z"/>
            <path class="cls-2" d="m194.02,172.16s-.02,0-.02,0l-4.31-.35c-.15-.01-.27-.15-.26-.3.01-.15.15-.27.3-.26l4.31.35c.15.01.27.15.26.3-.01.15-.13.26-.28.26Z"/>
            <path class="cls-2" d="m194.17,170.82s-.01,0-.02,0l-4.31-.31c-.15-.01-.27-.14-.26-.3.01-.15.15-.27.3-.26l4.31.31c.15.01.27.14.26.3-.01.15-.13.26-.28.26Z"/>
            <path class="cls-2" d="m194.21,169.68s-.01,0-.02,0l-4.32-.27c-.15,0-.27-.14-.26-.3,0-.15.14-.27.3-.26l4.32.27c.15,0,.27.14.26.3,0,.15-.13.26-.28.26Z"/>
            <path class="cls-2" d="m194.36,168.33s-.01,0-.02,0l-4.32-.23c-.15,0-.27-.14-.26-.29,0-.15.14-.27.29-.26l4.32.23c.15,0,.27.14.26.29,0,.15-.13.26-.28.26Z"/>
            <path class="cls-2" d="m194.37,167.19s0,0-.01,0l-4.32-.2c-.15,0-.27-.14-.27-.29,0-.15.13-.28.29-.27l4.32.2c.15,0,.27.14.27.29,0,.15-.13.27-.28.27Z"/>
            <path class="cls-2" d="m194.45,165.84s0,0-.01,0l-4.32-.16c-.15,0-.27-.13-.27-.29,0-.15.14-.29.29-.27l4.32.16c.15,0,.27.13.27.29,0,.15-.13.27-.28.27Z"/>
            <path class="cls-2" d="m194.43,164.7h0l-4.32-.12c-.15,0-.27-.13-.27-.29s.14-.27.29-.27l4.32.12c.15,0,.27.13.27.29,0,.15-.13.27-.28.27Z"/>
            <path class="cls-2" d="m194.51,163.35h0l-4.32-.08c-.15,0-.28-.13-.27-.28,0-.15.14-.27.28-.27l4.32.08c.15,0,.28.13.27.28,0,.15-.13.27-.28.27Z"/>
            <path class="cls-2" d="m194.49,162.21h0l-4.33-.05c-.15,0-.28-.13-.28-.28,0-.15.11-.27.28-.28l4.33.05c.15,0,.28.13.28.28,0,.15-.13.28-.28.28Z"/>
            <path class="cls-2" d="m194.57,160.86h-4.33c-.15-.01-.28-.14-.28-.29,0-.15.12-.28.28-.28h4.33c.15.01.28.14.28.29,0,.15-.12.28-.28.28Z"/>
          </g>
        </g>
        <g>
          <g>
            <g>
              <g>
                <path class="cls-2" d="m192.1,51.88h-13.01c-.17,0-.31-.14-.31-.31s.14-.31.31-.31h13.01c.17,0,.31.14.31.31s-.14.31-.31.31Z"/>
                <path class="cls-2" d="m259.33,51.88h-13.01c-.17,0-.31-.14-.31-.31s.14-.31.31-.31h13.01c.17,0,.31.14.31.31s-.14.31-.31.31Z"/>
              </g>
              <g>
                <path class="cls-2" d="m219.21,22.5c-.17,0-.31-.14-.31-.31v-10.75c0-.17.14-.31.31-.31s.31.14.31.31v10.75c0,.17-.14.31-.31.31Z"/>
                <path class="cls-2" d="m219.21,92c-.17,0-.31-.14-.31-.31v-10.75c0-.17.14-.31.31-.31s.31.14.31.31v10.75c0,.17-.14.31-.31.31Z"/>
              </g>
            </g>
            <g>
              <g>
                <path class="cls-2" d="m195.64,28.32c-.08,0-.16-.03-.22-.09l-2.97-2.97c-.12-.12-.12-.31,0-.43s.31-.12.43,0l2.97,2.97c.12.12.12.31,0,.43-.06.06-.14.09-.22.09Z"/>
                <path class="cls-2" d="m245.78,78.45c-.08,0-.16-.03-.22-.09l-2.97-2.97c-.12-.12-.12-.31,0-.43.12-.12.31-.12.43,0l2.97,2.97c.12.12.12.31,0,.43-.06.06-.14.09-.22.09Z"/>
              </g>
              <path class="cls-2" d="m242.81,28.32c-.08,0-.16-.03-.22-.09-.12-.12-.12-.31,0-.43l2.97-2.97c.12-.12.31-.12.43,0,.12.12.12.31,0,.43l-2.97,2.97c-.06.06-.14.09-.22.09Z"/>
              <path class="cls-2" d="m192.67,78.45c-.08,0-.16-.03-.22-.09-.12-.12-.12-.31,0-.43l2.97-2.97c.12-.12.31-.12.43,0s.12.31,0,.43l-2.97,2.97c-.06.06-.14.09-.22.09Z"/>
            </g>
          </g>
          <path class="cls-2" d="m226.32,78.43c-.12,0-.24-.08-.29-.2l-6.83-17.57-6.83,17.57c-.06.15-.21.23-.36.18-.15-.04-.25-.19-.22-.34l2.87-18.63-14.7,11.8c-.12.1-.3.09-.41-.02-.11-.11-.12-.29-.02-.41l11.8-14.7-18.63,2.87c-.16.02-.3-.07-.34-.22-.04-.15.04-.31.18-.36l17.57-6.83-17.57-6.83c-.15-.06-.23-.21-.18-.36.04-.15.19-.25.34-.22l18.63,2.87-11.8-14.7c-.1-.12-.09-.3.02-.41.11-.11.29-.12.41-.02l14.7,11.8-2.87-18.63c-.02-.15.07-.3.22-.34.15-.04.31.04.36.18l6.83,17.57,6.83-17.57c.06-.15.21-.23.36-.18.15.04.25.19.22.34l-2.87,18.63,14.7-11.8c.12-.1.3-.09.41.02.11.11.12.29.02.41l-11.8,14.7,18.63-2.87c.15-.02.3.07.34.22.04.15-.04.31-.18.36l-17.57,6.83,17.57,6.83c.15.06.23.21.18.36-.04.15-.19.25-.34.22l-18.63-2.87,11.8,14.7c.1.12.09.3-.02.41-.11.11-.29.12-.41.02l-14.7-11.8,2.87,18.63c.02.15-.07.3-.22.34-.03,0-.05.01-.08.01Zm-7.11-18.92c.13,0,.24.08.29.2l6.1,15.7-2.56-16.64c-.02-.12.04-.25.15-.31.11-.06.25-.05.34.03l13.13,10.54-10.54-13.13c-.08-.1-.09-.24-.03-.34s.19-.17.31-.15l16.64,2.56-15.7-6.1c-.12-.05-.2-.16-.2-.29s.08-.24.2-.29l15.7-6.1-16.64,2.56c-.13.02-.25-.04-.31-.15s-.05-.25.03-.34l10.54-13.13-13.13,10.54c-.1.08-.24.09-.34.03-.11-.06-.17-.19-.15-.31l2.56-16.64-6.1,15.7c-.05.12-.16.2-.29.2s-.24-.08-.29-.2l-6.1-15.7,2.56,16.64c.02.12-.04.25-.15.31-.11.06-.25.05-.34-.03l-13.13-10.54,10.54,13.13c.08.1.09.24.03.34s-.19.17-.31.15l-16.64-2.56,15.7,6.1c.12.05.2.16.2.29s-.08.24-.2.29l-15.7,6.1,16.64-2.56c.12-.02.25.04.31.15.06.11.05.25-.03.34l-10.54,13.13,13.13-10.54c.1-.08.24-.09.34-.03.11.06.17.19.15.31l-2.56,16.64,6.1-15.7c.05-.12.16-.2.29-.2Z"/>
        </g>
      </g>
    </g>
  </g>
</svg>