<?xml version="1.0" encoding="UTF-8"?>
<svg id="_レイヤー_2" data-name="レイヤー 2" xmlns="http://www.w3.org/2000/svg" viewBox="0 0 10.85 16.83">
  <defs>
    <style>
      .cls-1 {
        fill: #39385d;
        stroke-width: 0px;
      }
    </style>
  </defs>
  <g id="design">
    <g>
      <g>
        <rect class="cls-1" x="2.32" y=".15" width="1.01" height="13.85"/>
        <path class="cls-1" d="m3.33,14.15h-1.01c-.08,0-.15-.07-.15-.15V.15c0-.08.07-.15.15-.15h1.01c.08,0,.15.07.15.15v13.85c0,.08-.07.15-.15.15Zm-.86-.3h.71V.3h-.71v13.55Z"/>
      </g>
      <g>
        <rect class="cls-1" x=".15" y="2.28" width="5.35" height="1.01"/>
        <path class="cls-1" d="m5.5,3.44H.15c-.08,0-.15-.07-.15-.15v-1.01c0-.08.07-.15.15-.15h5.35c.08,0,.15.07.15.15v1.01c0,.08-.07.15-.15.15ZM.3,3.14h5.05v-.71H.3v.71Z"/>
      </g>
      <g>
        <path class="cls-1" d="m9.08,16.68c-.84,0-1.82-.24-2.49-1.15-.91-1.25-.01-2.88.94-4.59,1.23-2.21,1.95-3.75.82-4.91-.24-.25-.79-.5-1.58-.4-.75.09-2.2.58-3.51,2.82l-.87-.51c1.54-2.62,3.33-3.2,4.26-3.31.96-.12,1.89.15,2.43.7,1.73,1.78.46,4.07-.66,6.1-.79,1.43-1.54,2.78-1,3.51.91,1.24,2.92.53,2.94.53l.34.95c-.06.02-.76.27-1.61.27Z"/>
        <path class="cls-1" d="m9.08,16.83c-1.13,0-2.03-.42-2.61-1.21-.97-1.33-.05-2.99.93-4.75,1.2-2.16,1.9-3.65.85-4.73-.22-.22-.73-.44-1.46-.36-.72.09-2.12.56-3.4,2.75-.04.07-.13.09-.21.05l-.87-.51s-.06-.05-.07-.09c0-.04,0-.08.02-.11,1.57-2.67,3.41-3.27,4.38-3.38,1-.13,1.98.16,2.55.75,1.81,1.86.51,4.21-.64,6.28-.77,1.39-1.49,2.69-1.01,3.35.84,1.15,2.75.48,2.77.47.04-.01.08-.01.12,0,.04.02.06.05.08.08l.34.95c.03.08-.01.16-.09.19-.03.01-.77.28-1.67.28Zm-1.97-11.37c.65,0,1.11.23,1.35.47,1.2,1.23.46,2.81-.8,5.08-.93,1.68-1.8,3.26-.95,4.43.53.72,1.32,1.08,2.36,1.08.63,0,1.17-.14,1.42-.21l-.24-.67c-.5.14-2.14.51-2.97-.62-.59-.81.18-2.2.99-3.67,1.1-1.98,2.34-4.23.69-5.92-.5-.52-1.38-.76-2.3-.66-.89.11-2.59.66-4.08,3.11l.61.36c1.33-2.19,2.79-2.67,3.55-2.76.12-.02.25-.02.36-.02Z"/>
      </g>
    </g>
  </g>
</svg>