<?xml version="1.0" encoding="UTF-8"?>
<svg id="_レイヤー_2" data-name="レイヤー 2" xmlns="http://www.w3.org/2000/svg" viewBox="0 0 24.32 26">
  <defs>
    <style>
      .cls-1 {
        fill: none;
        stroke: #39385d;
        stroke-miterlimit: 10;
      }

      .cls-2 {
        fill: #39385d;
        stroke-width: 0px;
      }
    </style>
  </defs>
  <g id="design">
    <g>
      <path class="cls-1" d="m20.26,19.8l3.27,3.78c.42.48.36,1.21-.12,1.63h0c-.48.42-1.21.36-1.63-.12l-3.27-3.78"/>
      <circle class="cls-1" cx="12" cy="12" r="11.5"/>
      <path class="cls-2" d="m18.4,17.07c-.13-.16-.12-.23.03-.36,1.58-1.41,1.61-3.82-.02-5.16-.57-.47-.75-.93-.71-1.62.04-.84.1-1.69-.06-2.52-.44-2.25-1.75-3.81-3.93-4.5-2.17-.69-4.12-.15-5.76,1.44,0,0-.72.81-1.06,1.47-.41.82-.61,1.69-.6,2.6,0,.74-.01,1.49,0,2.23,0,.25-.08.4-.28.53-.75.49-1.28,1.16-1.51,2.03-.35,1.36,0,2.52,1.03,3.48.15.14.2.21.04.41-.79.95-1.2,2.06-1.2,3.3,0,.11,0,.21,0,.32.08.05.17.08.23.15.06.06.13.11.2.16.16.12.32.23.47.36.08.07.15.14.22.22-.16-.34-.21-.72-.16-1.09,0-.02-.01-.03-.01-.05.02-1.91,1.18-3.54,2.9-4.07.12-.04.22-.08.32.08.84,1.38,1.69,2.76,2.53,4.14h1.85c.62-1.01,1.23-2.01,1.85-3.01.22-.36.46-.72.67-1.09.09-.17.19-.18.36-.13,1.77.58,2.95,2.28,2.88,4.14,0,.03,0,.05-.01.08.02.19.02.39.02.58,0,0,0,.01,0,.02,0,.11-.03.22-.07.32-.02.05-.04.1-.07.15h.16c.12,0,.24,0,.37,0,0-.02,0-.04,0-.07,0-.22.06-.42.17-.61.06-.08.13-.16.19-.25.06-.06.14-.09.21-.14,0-.01,0-.03,0-.04.03-1.32-.36-2.49-1.21-3.51Zm-5.6,1.9c-.24.4-.48.79-.72,1.19-.07.11-.12.07-.17,0-.26-.42-.52-.85-.81-1.32.58,0,1.1,0,1.62,0,.11,0,.15.05.09.15Zm1.62-2.64c-.29.46-.57.93-.85,1.39-.07.12-.16.15-.29.15-.44,0-.87,0-1.31,0-.42,0-.83,0-1.25,0-.14,0-.24-.04-.32-.16-.28-.48-.57-.95-.86-1.42-.08-.12-.12-.22.09-.22.71,0,1.02-.36,1.07-1.05.01-.21.02-.51.19-.6.15-.08.41.05.62.08.46.06.91.04,1.35-.08.19-.05.28-.03.32.19.06.35.18.69.25,1.04.04.2.15.28.33.31.18.03.37.09.55.1.23.02.2.12.11.26Zm.27-4.7c-.44,1.26-1.65,2.07-2.94,1.95-1.33-.12-2.37-1.09-2.58-2.43-.12-.77-.02-1.54-.05-2.31,0-.12.07-.16.16-.19.94-.31,1.79-.79,2.54-1.43.13-.11.21-.08.33.02.74.62,1.57,1.1,2.49,1.4.15.05.2.12.19.28-.01.33,0,.65,0,.98,0,.58.05,1.17-.15,1.73Zm2.6,4.45c-.81-.58-1.76-.78-2.72-.94-.21-.04-.3-.12-.37-.33-.18-.53-.17-.9.35-1.31.88-.7,1.25-1.7,1.25-2.84,0-.62,0-1.25,0-1.87,0-.5-.21-.83-.69-.99-1.14-.38-2.13-1-2.95-1.87-.13-.14-.2-.13-.33,0-.82.86-1.79,1.48-2.93,1.86-.51.17-.71.48-.72,1.03,0,.62,0,1.25,0,1.87.01,1.3.54,2.33,1.58,3.11.17.13.24.24.15.43-.04.11-.08.23-.09.34-.02.44-.29.57-.68.63-.92.13-1.8.38-2.56.95-.13.1-.19.02-.28-.04-1.23-.9-1.31-2.85-.15-3.84.29-.24.59-.47.9-.69.13-.09.18-.18.18-.34,0-.94,0-1.88,0-2.83,0-2.33,1.54-4.23,3.82-4.72,2.49-.54,5.04,1.11,5.59,3.6.17.79.09,1.58.12,2.27,0,.61,0,1.13,0,1.64,0,.18.06.29.2.39.28.2.56.41.83.63,1.18.97,1.15,2.9-.05,3.85-.16.12-.26.13-.43,0Z"/>
      <path class="cls-2" d="m10.97,20.45s.41.79,1.05.79c.57,0,.94-.7.94-.7,0,0-2-.11-1.99-.09Z"/>
    </g>
  </g>
</svg>