<?xml version="1.0" encoding="UTF-8"?>
<svg id="_レイヤー_2" data-name="レイヤー 2" xmlns="http://www.w3.org/2000/svg" viewBox="0 0 15.24 13.18">
  <defs>
    <style>
      .cls-1 {
        fill: #F17424;
        stroke-width: 0px;
      }
    </style>
  </defs>
  <g id="design">
    <path class="cls-1" d="m8.33,13.18h-1.41c0-6.83-1.42-9.78-2.27-10.93-.63-.86-1.61-1.08-2.44-.54-.81.52-1.04,1.61-.51,2.42l-1.18.77C-.44,3.43-.02,1.47,1.44.52,2.88-.43,4.71-.05,5.78,1.41c.63.86,1.33,2.24,1.84,4.44.51-2.19,1.2-3.57,1.84-4.44C10.53-.05,12.36-.42,13.81.52c1.46.95,1.87,2.91.92,4.37l-1.18-.77c.52-.81.3-1.89-.51-2.42-.82-.54-1.8-.32-2.44.54-.85,1.15-2.27,4.11-2.27,10.93Z"/>
  </g>
</svg>
