<svg xmlns="http://www.w3.org/2000/svg" viewBox="0 0 15.29 20.17"><defs><style>.cls-1{fill:#39385d;stroke:#39385d;stroke-linecap:round;stroke-linejoin:round;stroke-width:0.6px;}</style></defs><g id="Layer_2" data-name="Layer 2"><g id="デザイン"><path class="cls-1" d="M1.61,19.87a5.06,5.06,0,0,1-.67-.3,1.43,1.43,0,0,1-.63-1.21V16.57c0-4.8,0-9.6,0-14.39A1.67,1.67,0,0,1,1.65.3h9.44l.21.17C12.48,1.65,13.66,2.82,14.83,4a.59.59,0,0,1,.15.33c0,.45,0,.9,0,1.36V18.19a1.54,1.54,0,0,1-1.27,1.66l0,0Zm9.1-19H1.93a.93.93,0,0,0-1,1V18.25a.93.93,0,0,0,1,1H13.34a.93.93,0,0,0,1-1V4.58H11.13c-.33,0-.42-.09-.42-.43V.91ZM13.87,4,11.33,1.43V4Z"/><path class="cls-1" d="M7.67,7H3.07a.29.29,0,0,1-.27-.3A.29.29,0,0,1,3,6.41a.74.74,0,0,1,.21,0h8.87c.31,0,.46.1.46.3s-.15.31-.46.31Z"/><path class="cls-1" d="M7.67,10.07H3.07a.3.3,0,0,1,0-.6h9.27a.3.3,0,0,1,.25.3.29.29,0,0,1-.27.3H7.67Z"/><path class="cls-1" d="M7.69,12.53h4.62a.3.3,0,0,1,.27.31.28.28,0,0,1-.27.29H3.06a.3.3,0,0,1,0-.6H7.69Z"/><path class="cls-1" d="M6.47,16.2H3.24a1,1,0,0,1-.17,0,.3.3,0,0,1,0-.6h6.8a.3.3,0,0,1,0,.6c-.12,0-.24,0-.36,0Z"/></g></g></svg>