<?xml version="1.0" encoding="UTF-8"?>
<svg id="_レイヤー_2" data-name="レイヤー 2" xmlns="http://www.w3.org/2000/svg" viewBox="0 0 15.45 16.25">
  <defs>
    <style>
      .cls-1 {
        fill: #F17424;
        stroke-width: 0px;
      }
    </style>
  </defs>
  <g id="design">
    <g>
      <g>
        <path class="cls-1" d="m7.72,10.25c-3.4,0-6.17-2.77-6.17-6.17h1.07c0,2.81,2.29,5.1,5.1,5.1s5.1-2.29,5.1-5.1h1.07c0,3.4-2.77,6.17-6.17,6.17Z"/>
        <path class="cls-1" d="m7.73,10.4c-3.49,0-6.32-2.84-6.32-6.32,0-.08.07-.15.15-.15h1.07c.08,0,.15.07.15.15,0,2.73,2.22,4.95,4.95,4.95s4.95-2.22,4.95-4.95c0-.08.07-.15.15-.15h1.07c.08,0,.15.07.15.15,0,3.48-2.84,6.32-6.32,6.32ZM1.71,4.23c.08,3.25,2.75,5.87,6.02,5.87s5.94-2.62,6.02-5.87h-.77c-.08,2.82-2.4,5.1-5.25,5.1S2.56,7.05,2.48,4.23h-.77Z"/>
      </g>
      <g>
        <rect class="cls-1" x="7.19" y="9.71" width="1.07" height="6.39"/>
        <path class="cls-1" d="m8.26,16.25h-1.07c-.08,0-.15-.07-.15-.15v-6.39c0-.08.07-.15.15-.15h1.07c.08,0,.15.07.15.15v6.39c0,.08-.07.15-.15.15Zm-.92-.3h.77v-6.09h-.77v6.09Z"/>
      </g>
      <g>
        <rect class="cls-1" x="4.53" y="11.52" width="6.39" height="1.07"/>
        <path class="cls-1" d="m10.92,12.75h-6.39c-.08,0-.15-.07-.15-.15v-1.07c0-.08.07-.15.15-.15h6.39c.08,0,.15.07.15.15v1.07c0,.08-.07.15-.15.15Zm-6.24-.3h6.09v-.77h-6.09v.77Z"/>
      </g>
      <g>
        <polygon class="cls-1" points="4.03 3.34 2.09 2.8 .15 3.34 2.09 .15 4.03 3.34"/>
        <path class="cls-1" d="m4.03,3.49s-.03,0-.04,0l-1.9-.52L.19,3.48c-.06.02-.12,0-.16-.05-.04-.05-.04-.12,0-.17L1.96.07c.05-.09.2-.09.26,0l1.94,3.19c.03.05.03.12,0,.17-.03.04-.07.06-.12.06Zm-1.94-.84s.03,0,.04,0l1.58.43L2.09.44.48,3.09l1.58-.43s.03,0,.04,0Z"/>
      </g>
      <g>
        <rect class="cls-1" x="1.55" y="1.39" width="1.07" height="2.69"/>
        <path class="cls-1" d="m2.63,4.23h-1.07c-.08,0-.15-.07-.15-.15V1.39c0-.08.07-.15.15-.15h1.07c.08,0,.15.07.15.15v2.69c0,.08-.07.15-.15.15Zm-.92-.3h.77V1.54h-.77v2.39Z"/>
      </g>
      <g>
        <polygon class="cls-1" points="9.67 3.34 7.72 2.8 5.78 3.34 7.72 .15 9.67 3.34"/>
        <path class="cls-1" d="m5.78,3.49s-.09-.02-.12-.06c-.04-.05-.04-.12,0-.17L7.6.07s.08-.07.13-.07h0c.05,0,.1.03.13.07l1.94,3.19c.03.05.03.12,0,.17-.04.05-.1.07-.16.05l-1.9-.52-1.9.52s-.03,0-.04,0ZM7.73.44l-1.62,2.65,1.58-.43s.05,0,.08,0l1.58.43L7.73.44Z"/>
      </g>
      <g>
        <rect class="cls-1" x="7.19" y="1.39" width="1.07" height="8.32"/>
        <path class="cls-1" d="m8.26,9.86h-1.07c-.08,0-.15-.07-.15-.15V1.39c0-.08.07-.15.15-.15h1.07c.08,0,.15.07.15.15v8.32c0,.08-.07.15-.15.15Zm-.92-.3h.77V1.54h-.77v8.02Z"/>
      </g>
      <g>
        <polygon class="cls-1" points="15.3 3.34 13.36 2.8 11.42 3.34 13.36 .15 15.3 3.34"/>
        <path class="cls-1" d="m15.3,3.49s-.03,0-.04,0l-1.9-.52-1.9.52c-.06.02-.12,0-.16-.05-.04-.05-.04-.12,0-.17L13.23.07c.05-.09.2-.09.26,0l1.94,3.19c.03.05.03.12,0,.17-.03.04-.07.06-.12.06Zm-1.94-.84s.03,0,.04,0l1.58.43-1.62-2.65-1.62,2.65,1.58-.43s.03,0,.04,0Z"/>
      </g>
      <g>
        <rect class="cls-1" x="12.82" y="1.39" width="1.07" height="2.69"/>
        <path class="cls-1" d="m13.9,4.23h-1.07c-.08,0-.15-.07-.15-.15V1.39c0-.08.07-.15.15-.15h1.07c.08,0,.15.07.15.15v2.69c0,.08-.07.15-.15.15Zm-.92-.3h.77V1.54h-.77v2.39Z"/>
      </g>
    </g>
  </g>
</svg>
