<?xml version="1.0" encoding="UTF-8"?>
<svg id="_レイヤー_2" data-name="レイヤー 2" xmlns="http://www.w3.org/2000/svg" xmlns:xlink="http://www.w3.org/1999/xlink" viewBox="0 0 322.99 97.21">
  <defs>
    <style>
      .cls-1 {
        fill: url(#_新規グラデーションスウォッチ_1);
      }

      .cls-1, .cls-2, .cls-3, .cls-4, .cls-5, .cls-6, .cls-7, .cls-8, .cls-9, .cls-10, .cls-11, .cls-12, .cls-13, .cls-14, .cls-15, .cls-16, .cls-17, .cls-18 {
        stroke-width: 0px;
      }

      .cls-2 {
        fill: url(#_新規グラデーションスウォッチ_1-2);
      }

      .cls-19 {
        opacity: .5;
      }

      .cls-3 {
        fill: url(#_新規グラデーションスウォッチ_1-9);
      }

      .cls-4 {
        fill: url(#_新規グラデーションスウォッチ_1-16);
      }

      .cls-5 {
        fill: url(#_新規グラデーションスウォッチ_1-3);
      }

      .cls-6 {
        fill: url(#_新規グラデーションスウォッチ_1-10);
      }

      .cls-7 {
        fill: url(#_新規グラデーションスウォッチ_1-15);
      }

      .cls-8 {
        fill: url(#_新規グラデーションスウォッチ_1-4);
      }

      .cls-9 {
        fill: url(#_新規グラデーションスウォッチ_1-8);
      }

      .cls-10 {
        fill: url(#_新規グラデーションスウォッチ_1-13);
      }

      .cls-11 {
        fill: url(#_新規グラデーションスウォッチ_1-12);
      }

      .cls-12 {
        fill: url(#_新規グラデーションスウォッチ_1-6);
      }

      .cls-13 {
        fill: url(#_新規グラデーションスウォッチ_1-17);
      }

      .cls-14 {
        fill: #39395c;
      }

      .cls-15 {
        fill: url(#_新規グラデーションスウォッチ_1-11);
      }

      .cls-16 {
        fill: url(#_新規グラデーションスウォッチ_1-5);
      }

      .cls-17 {
        fill: url(#_新規グラデーションスウォッチ_1-14);
      }

      .cls-18 {
        fill: url(#_新規グラデーションスウォッチ_1-7);
      }
    </style>
    <linearGradient id="_新規グラデーションスウォッチ_1" data-name="新規グラデーションスウォッチ 1" x1="-45.87" y1="131.69" x2="75.92" y2="-109" gradientUnits="userSpaceOnUse">
      <stop offset="0" stop-color="#c9ddf1"/>
      <stop offset=".06" stop-color="#c1daef" stop-opacity=".97"/>
      <stop offset=".15" stop-color="#add2ec" stop-opacity=".89"/>
      <stop offset=".26" stop-color="#8cc5e6" stop-opacity=".75"/>
      <stop offset=".38" stop-color="#5fb2df" stop-opacity=".57"/>
      <stop offset=".52" stop-color="#259cd5" stop-opacity=".33"/>
      <stop offset=".54" stop-color="#1e99d4" stop-opacity=".3"/>
      <stop offset=".76" stop-color="#0075bb"/>
      <stop offset=".96" stop-color="#005b94"/>
    </linearGradient>
    <linearGradient id="_新規グラデーションスウォッチ_1-2" data-name="新規グラデーションスウォッチ 1" x1="-13.47" y1="148.09" x2="108.33" y2="-92.6" xlink:href="#_新規グラデーションスウォッチ_1"/>
    <linearGradient id="_新規グラデーションスウォッチ_1-3" data-name="新規グラデーションスウォッチ 1" x1="17.81" y1="163.92" x2="139.61" y2="-76.77" xlink:href="#_新規グラデーションスウォッチ_1"/>
    <linearGradient id="_新規グラデーションスウォッチ_1-4" data-name="新規グラデーションスウォッチ 1" x1="46.05" y1="178.2" x2="167.84" y2="-62.48" xlink:href="#_新規グラデーションスウォッチ_1"/>
    <linearGradient id="_新規グラデーションスウォッチ_1-5" data-name="新規グラデーションスウォッチ 1" x1="76.24" y1="193.48" x2="198.03" y2="-47.21" xlink:href="#_新規グラデーションスウォッチ_1"/>
    <linearGradient id="_新規グラデーションスウォッチ_1-6" data-name="新規グラデーションスウォッチ 1" x1="109.12" y1="210.12" x2="230.91" y2="-30.57" xlink:href="#_新規グラデーションスウォッチ_1"/>
    <linearGradient id="_新規グラデーションスウォッチ_1-7" data-name="新規グラデーションスウォッチ 1" x1="151.69" y1="231.66" x2="273.48" y2="-9.03" xlink:href="#_新規グラデーションスウォッチ_1"/>
    <linearGradient id="_新規グラデーションスウォッチ_1-8" data-name="新規グラデーションスウォッチ 1" x1="176.87" y1="244.4" x2="298.66" y2="3.71" xlink:href="#_新規グラデーションスウォッチ_1"/>
    <linearGradient id="_新規グラデーションスウォッチ_1-9" data-name="新規グラデーションスウォッチ 1" x1="-7.84" y1="150.93" x2="113.95" y2="-89.75" xlink:href="#_新規グラデーションスウォッチ_1"/>
    <linearGradient id="_新規グラデーションスウォッチ_1-10" data-name="新規グラデーションスウォッチ 1" x1="11.47" y1="160.71" x2="133.26" y2="-79.98" xlink:href="#_新規グラデーションスウォッチ_1"/>
    <linearGradient id="_新規グラデーションスウォッチ_1-11" data-name="新規グラデーションスウォッチ 1" x1="38.02" y1="174.14" x2="159.81" y2="-66.55" xlink:href="#_新規グラデーションスウォッチ_1"/>
    <linearGradient id="_新規グラデーションスウォッチ_1-12" data-name="新規グラデーションスウォッチ 1" x1="71.48" y1="191.07" x2="193.27" y2="-49.62" xlink:href="#_新規グラデーションスウォッチ_1"/>
    <linearGradient id="_新規グラデーションスウォッチ_1-13" data-name="新規グラデーションスウォッチ 1" x1="111.85" y1="211.5" x2="233.64" y2="-29.19" xlink:href="#_新規グラデーションスウォッチ_1"/>
    <linearGradient id="_新規グラデーションスウォッチ_1-14" data-name="新規グラデーションスウォッチ 1" x1="130.99" y1="221.18" x2="252.78" y2="-19.5" xlink:href="#_新規グラデーションスウォッチ_1"/>
    <linearGradient id="_新規グラデーションスウォッチ_1-15" data-name="新規グラデーションスウォッチ 1" x1="152.75" y1="232.2" x2="274.55" y2="-8.49" xlink:href="#_新規グラデーションスウォッチ_1"/>
    <linearGradient id="_新規グラデーションスウォッチ_1-16" data-name="新規グラデーションスウォッチ 1" x1="187.55" y1="249.81" x2="309.35" y2="9.12" xlink:href="#_新規グラデーションスウォッチ_1"/>
    <linearGradient id="_新規グラデーションスウォッチ_1-17" data-name="新規グラデーションスウォッチ 1" x1="212.73" y1="262.55" x2="334.53" y2="21.86" xlink:href="#_新規グラデーションスウォッチ_1"/>
  </defs>
  <g id="design">
    <g>
      <g>
        <path class="cls-14" d="m13.62,19.88v9.82c0,1.86.1,3.24.31,4.14.21.9.6,1.65,1.16,2.23.49.51,1.06.89,1.71,1.13.65.25,1.5.4,2.56.45v.63H1.89v-.63c1.06-.05,1.91-.21,2.56-.45.65-.25,1.22-.62,1.71-1.13.58-.58.98-1.32,1.18-2.21.2-.89.3-2.28.3-4.16V9.54c0-1.57-.07-2.78-.21-3.62s-.37-1.54-.7-2.06c-.47-.73-1.08-1.27-1.8-1.63-.73-.36-1.68-.57-2.84-.64h-.19v-.63h16.49c2.88,0,5,.15,6.37.44,1.37.29,2.62.88,3.75,1.75,2.59,1.97,3.88,4.59,3.88,7.88s-1.31,5.78-3.94,7.33c-1.37.8-3.03,1.29-4.98,1.45-.62.05-2.11.08-4.48.08h-5.36Zm0-.88h2.68c1.8,0,3.19-.13,4.17-.4.98-.26,1.85-.75,2.61-1.46,1.79-1.62,2.68-3.78,2.68-6.48,0-1.49-.26-2.87-.78-4.12-.52-1.25-1.26-2.26-2.23-3.05-1.11-.93-2.43-1.48-3.96-1.64-.42-.04-1.38-.05-2.87-.05h-2.3v17.2Z"/>
        <path class="cls-14" d="m64.62.96l.46,9.02-.63.03c-.24-1.53-.63-2.8-1.18-3.8-.55-1-1.34-1.89-2.38-2.65-.86-.64-1.87-1.09-3.04-1.35-1.17-.26-2.72-.4-4.65-.4h-6.26v16.41h1.64c1.66,0,2.91-.11,3.75-.33.84-.22,1.52-.61,2.05-1.18.51-.53.89-1.15,1.13-1.87.25-.72.45-1.78.62-3.19l.63.03-.11,14.66h-.63c-.16-1.4-.41-2.53-.72-3.39-.32-.86-.76-1.59-1.33-2.19-.55-.58-1.26-1.01-2.13-1.29s-1.99-.41-3.34-.41h-1.56v6.26c0,2.5.06,4.32.19,5.46.13,1.14.37,2.09.74,2.86.62,1.31,1.56,2.27,2.83,2.88,1.27.61,2.94.92,5.02.92,2.19,0,4.02-.28,5.5-.83,1.48-.56,2.68-1.42,3.61-2.58.66-.78,1.19-1.68,1.6-2.68.41-1,.79-2.32,1.13-3.96l.63.03-.36,10.88h-32.62v-.63c1.04-.05,1.88-.2,2.53-.44.65-.24,1.23-.62,1.74-1.15.56-.58.95-1.33,1.16-2.23.21-.9.31-2.28.31-4.14V9.54c0-1.86-.1-3.24-.31-4.14-.21-.9-.6-1.65-1.16-2.23-.49-.53-1.06-.91-1.71-1.15-.65-.24-1.5-.38-2.56-.44v-.63h29.39Z"/>
        <path class="cls-14" d="m84.93,20.02v9.68c0,1.86.1,3.24.31,4.14.21.9.6,1.65,1.16,2.23.49.51,1.06.89,1.71,1.13.65.25,1.5.4,2.56.45v.63h-17.47v-.63c1.06-.05,1.91-.21,2.56-.45.65-.25,1.22-.62,1.71-1.13.58-.58.98-1.32,1.18-2.21.2-.89.3-2.28.3-4.16V9.54c0-1.88-.1-3.26-.3-4.16-.2-.89-.59-1.63-1.18-2.21-.49-.53-1.07-.91-1.72-1.15-.66-.24-1.5-.38-2.54-.44v-.63h13.18c2.21,0,3.66,0,4.35.03,2.83.13,5.04.51,6.64,1.15,1.8.73,3.2,1.82,4.2,3.27.99,1.45,1.49,3.13,1.49,5.04,0,2.84-1.08,5.12-3.23,6.84-.66.51-1.38.93-2.17,1.26s-1.85.64-3.19.93c1.09.46,1.91.93,2.43,1.42.42.38.8.86,1.15,1.44.35.57.87,1.59,1.56,3.05,1.62,3.34,2.85,5.77,3.68,7.31.83,1.54,1.53,2.66,2.09,3.35.46.57.9.96,1.33,1.18.43.22,1.02.36,1.76.44v.63h-9.08c-.46-1-.75-1.64-.88-1.91l-1.91-4.35c-1.15-2.61-2.31-4.91-3.47-6.92-1.17-1.99-2.23-3.34-3.2-4.07-.49-.36-1.02-.62-1.59-.78-.56-.15-1.26-.23-2.08-.23h-1.34Zm0-.6h1.04c2.26,0,3.88-.13,4.85-.38.98-.25,1.89-.78,2.75-1.59,1.91-1.82,2.87-4.08,2.87-6.78,0-1.44-.28-2.79-.83-4.06-.56-1.27-1.33-2.31-2.31-3.13-.77-.62-1.68-1.05-2.73-1.3-1.06-.25-2.56-.37-4.51-.37h-1.12v17.61Z"/>
        <path class="cls-14" d="m113.8,38.17l.08-11.29.63.03c.77,2.87,1.68,5.14,2.73,6.79,1.99,3.06,4.48,4.58,7.49,4.58,2.1,0,3.83-.7,5.2-2.11,1.37-1.4,2.05-3.18,2.05-5.33,0-.93-.15-1.88-.45-2.84-.3-.97-.71-1.8-1.22-2.49-.53-.71-1.27-1.39-2.23-2.05s-2.42-1.49-4.39-2.49c-1.73-.88-3.06-1.61-3.98-2.21s-1.66-1.21-2.23-1.83c-1.57-1.71-2.35-3.8-2.35-6.26,0-1.51.31-2.97.92-4.38.61-1.4,1.46-2.61,2.56-3.61,1.93-1.79,4.22-2.68,6.86-2.68.86,0,1.65.09,2.38.26.73.17,1.7.52,2.93,1.03.91.36,1.53.6,1.86.7.33.1.62.15.88.15.64,0,1.07-.46,1.29-1.39h.63l.19,10.86h-.63c-.49-1.73-.91-3.06-1.27-3.98-.36-.92-.78-1.77-1.27-2.56-.89-1.42-1.87-2.47-2.95-3.16-1.07-.68-2.31-1.03-3.71-1.03-2.04,0-3.65.69-4.83,2.08-.49.57-.88,1.23-1.16,2-.28.77-.42,1.53-.42,2.3,0,3.05,1.96,5.5,5.87,7.36l3.85,1.86c2.97,1.41,5.11,2.96,6.42,4.65,1.49,1.9,2.24,4.11,2.24,6.62,0,1.67-.34,3.27-1.01,4.8-.95,2.13-2.37,3.77-4.27,4.92-1.9,1.15-4.13,1.73-6.7,1.73-2.35,0-4.61-.46-6.78-1.39-1.13-.49-1.8-.77-2.02-.85-.22-.07-.46-.11-.74-.11-.88,0-1.48.44-1.8,1.31h-.63Z"/>
        <path class="cls-14" d="m144.12,19.87c0-3.06.66-5.91,1.97-8.52,1.31-2.62,3.23-4.9,5.74-6.85,1.88-1.44,3.9-2.55,6.07-3.32,2.17-.78,4.36-1.16,6.56-1.16,2.81,0,5.52.62,8.15,1.85,2.62,1.23,4.92,2.97,6.89,5.21,3.21,3.65,4.81,7.8,4.81,12.45,0,2.34-.42,4.59-1.26,6.76-.84,2.17-2.06,4.15-3.66,5.94-1.97,2.23-4.3,3.95-6.99,5.17-2.69,1.22-5.5,1.83-8.44,1.83s-5.67-.59-8.31-1.78c-2.64-1.19-4.92-2.86-6.84-5.04-1.51-1.7-2.67-3.62-3.49-5.79-.81-2.16-1.22-4.41-1.22-6.75Zm6.62.41c0,5.29,1.44,9.75,4.32,13.38,1.29,1.62,2.67,2.81,4.12,3.54,1.45.74,3.12,1.11,5.02,1.11s3.6-.36,5.04-1.09c1.45-.73,2.83-1.92,4.14-3.56,2.88-3.65,4.32-8.15,4.32-13.49,0-2.94-.4-5.71-1.19-8.33-.79-2.62-1.91-4.84-3.35-6.66-1.17-1.5-2.47-2.58-3.9-3.27-1.43-.68-3.12-1.03-5.07-1.03s-3.6.34-5.02,1.01c-1.41.67-2.72,1.77-3.92,3.28-1.44,1.81-2.55,4.02-3.34,6.65-.78,2.63-1.18,5.45-1.18,8.46Z"/>
        <path class="cls-14" d="m195.45,5.91v23.79c0,1.88.1,3.26.31,4.16.21.89.6,1.63,1.16,2.21.51.53,1.09.91,1.74,1.15.65.24,1.49.38,2.53.44v.63h-12.61v-.63c1.04-.05,1.88-.2,2.53-.44.65-.24,1.23-.62,1.74-1.15.56-.58.95-1.33,1.16-2.23s.31-2.28.31-4.14V9.52c0-1.84-.1-3.21-.31-4.12s-.6-1.65-1.16-2.23c-.49-.53-1.06-.91-1.71-1.15-.65-.24-1.5-.38-2.56-.44v-.63h10.53l22.2,28.33V9.54c0-1.88-.1-3.26-.31-4.16-.21-.89-.6-1.63-1.16-2.21-.51-.53-1.09-.91-1.74-1.15-.65-.24-1.49-.38-2.53-.44v-.63h12.61v.63c-1.82,0-3.24.53-4.27,1.59-.56.58-.95,1.33-1.16,2.23s-.31,2.27-.31,4.12v28.77h-1.23l-25.76-32.38Z"/>
        <path class="cls-14" d="m269.68,38.28h-17.96v-.63c1.62-.15,2.75-.42,3.39-.82,1.13-.71,1.7-1.7,1.7-2.95,0-.75-.26-1.75-.77-3.01l-.46-1.15-2.62-6.45h-12.03l-1.42,3.77-.68,1.7c-.82,2.01-1.23,3.58-1.23,4.73,0,.67.15,1.3.45,1.89.3.58.71,1.06,1.22,1.42.71.49,1.62.78,2.73.88v.63h-12.25v-.63c.97-.05,1.81-.29,2.54-.71.73-.42,1.44-1.09,2.13-2.02.58-.75,1.15-1.71,1.71-2.88.56-1.18,1.29-2.94,2.2-5.29L248.32.96h1.56l11.89,28.74c.89,2.17,1.6,3.72,2.13,4.65.53.93,1.1,1.63,1.72,2.11.44.33.94.58,1.5.75.56.17,1.41.32,2.54.45v.63Zm-17.17-16.13l-5.74-14.16-5.41,14.16h11.16Z"/>
        <path class="cls-14" d="m274.29,38.28v-.66c1.84,0,3.26-.52,4.27-1.56.56-.58.95-1.33,1.16-2.23s.31-2.28.31-4.14V9.54c0-1.93-.11-3.36-.34-4.28-.23-.92-.65-1.67-1.27-2.26-.51-.47-1.08-.82-1.71-1.04s-1.44-.35-2.42-.38v-.63h17.47v.63c-1,.05-1.82.19-2.46.41s-1.2.57-1.7,1.04c-.62.6-1.04,1.36-1.26,2.27-.22.91-.33,2.32-.33,4.24v15.78c0,2.42.06,4.23.19,5.41.13,1.19.37,2.15.74,2.9.64,1.31,1.59,2.27,2.84,2.88,1.26.61,2.93.92,5,.92s4-.29,5.48-.86,2.7-1.46,3.65-2.67c.64-.82,1.16-1.75,1.57-2.79s.79-2.41,1.13-4.1l.66.05-.36,11.21h-32.65Z"/>
        <path class="cls-14" d="m39.95,96.28h-17.96v-.63c1.62-.15,2.75-.42,3.39-.82,1.13-.71,1.7-1.7,1.7-2.95,0-.75-.26-1.75-.77-3.01l-.46-1.15-2.62-6.45h-12.03l-1.42,3.77-.68,1.7c-.82,2.01-1.23,3.58-1.23,4.73,0,.67.15,1.3.45,1.89.3.58.71,1.06,1.22,1.42.71.49,1.62.78,2.73.88v.63H0v-.63c.97-.05,1.81-.29,2.54-.71.73-.42,1.44-1.09,2.13-2.02.58-.75,1.15-1.71,1.71-2.88.56-1.18,1.29-2.94,2.2-5.29l10.01-25.79h1.56l11.89,28.74c.89,2.17,1.6,3.72,2.13,4.65.53.93,1.1,1.63,1.72,2.11.44.33.94.58,1.5.75.56.17,1.41.32,2.54.45v.63Zm-17.17-16.13l-5.74-14.16-5.41,14.16h11.16Z"/>
        <path class="cls-14" d="m56.29,77.88v9.82c0,1.86.1,3.24.31,4.14s.6,1.65,1.16,2.23c.49.51,1.06.89,1.71,1.13s1.5.4,2.56.45v.63h-17.47v-.63c1.06-.05,1.91-.21,2.56-.45s1.22-.62,1.71-1.13c.58-.58.98-1.32,1.18-2.21.2-.89.3-2.28.3-4.16v-20.15c0-1.57-.07-2.78-.21-3.62s-.37-1.54-.7-2.06c-.47-.73-1.08-1.27-1.8-1.63s-1.68-.57-2.84-.64h-.19v-.63h16.49c2.88,0,5,.15,6.37.44,1.37.29,2.62.88,3.75,1.75,2.59,1.97,3.88,4.59,3.88,7.88s-1.31,5.78-3.94,7.33c-1.37.8-3.03,1.29-4.98,1.45-.62.05-2.11.08-4.48.08h-5.36Zm0-.88h2.68c1.8,0,3.19-.13,4.17-.4.98-.26,1.85-.75,2.61-1.46,1.79-1.62,2.68-3.78,2.68-6.48,0-1.49-.26-2.87-.78-4.12-.52-1.25-1.26-2.26-2.23-3.05-1.11-.93-2.43-1.48-3.96-1.64-.42-.04-1.38-.05-2.87-.05h-2.3v17.2Z"/>
        <path class="cls-14" d="m89.64,77.88v9.82c0,1.86.1,3.24.31,4.14s.6,1.65,1.16,2.23c.49.51,1.06.89,1.71,1.13s1.5.4,2.56.45v.63h-17.47v-.63c1.06-.05,1.91-.21,2.56-.45s1.22-.62,1.71-1.13c.58-.58.98-1.32,1.18-2.21.2-.89.3-2.28.3-4.16v-20.15c0-1.57-.07-2.78-.21-3.62s-.37-1.54-.7-2.06c-.47-.73-1.08-1.27-1.8-1.63s-1.68-.57-2.84-.64h-.19v-.63h16.49c2.88,0,5,.15,6.37.44,1.37.29,2.62.88,3.75,1.75,2.59,1.97,3.88,4.59,3.88,7.88s-1.31,5.78-3.94,7.33c-1.37.8-3.03,1.29-4.98,1.45-.62.05-2.11.08-4.48.08h-5.36Zm0-.88h2.68c1.8,0,3.19-.13,4.17-.4.98-.26,1.85-.75,2.61-1.46,1.79-1.62,2.68-3.78,2.68-6.48,0-1.49-.26-2.87-.78-4.12-.52-1.25-1.26-2.26-2.23-3.05-1.11-.93-2.43-1.48-3.96-1.64-.42-.04-1.38-.05-2.87-.05h-2.3v17.2Z"/>
        <path class="cls-14" d="m122.98,78.02v9.68c0,1.86.1,3.24.31,4.14.21.9.6,1.65,1.16,2.23.49.51,1.06.89,1.71,1.13.65.25,1.5.4,2.56.45v.63h-17.47v-.63c1.06-.05,1.91-.21,2.56-.45.65-.25,1.22-.62,1.71-1.13.58-.58.97-1.32,1.18-2.21.2-.89.3-2.28.3-4.16v-20.15c0-1.88-.1-3.26-.3-4.16-.2-.89-.59-1.63-1.18-2.21-.49-.53-1.07-.91-1.72-1.15-.66-.24-1.5-.38-2.54-.44v-.63h13.18c2.21,0,3.65,0,4.35.03,2.83.13,5.04.51,6.64,1.15,1.8.73,3.2,1.82,4.2,3.27.99,1.45,1.49,3.13,1.49,5.04,0,2.84-1.08,5.12-3.23,6.84-.66.51-1.38.93-2.17,1.26s-1.86.64-3.19.93c1.09.46,1.9.93,2.43,1.42.42.38.8.86,1.15,1.44.35.57.87,1.59,1.56,3.05,1.62,3.34,2.85,5.77,3.68,7.31.83,1.54,1.53,2.66,2.09,3.35.46.57.9.96,1.33,1.18.43.22,1.02.36,1.76.44v.63h-9.08c-.46-1-.75-1.64-.88-1.91l-1.91-4.35c-1.15-2.61-2.31-4.91-3.47-6.92-1.17-1.99-2.23-3.34-3.2-4.07-.49-.36-1.02-.62-1.59-.78-.57-.15-1.26-.23-2.08-.23h-1.34Zm0-.6h1.04c2.26,0,3.88-.13,4.85-.38.97-.25,1.89-.78,2.75-1.59,1.91-1.82,2.87-4.08,2.87-6.78,0-1.44-.28-2.79-.83-4.06-.56-1.27-1.33-2.31-2.31-3.13-.77-.62-1.68-1.05-2.73-1.3-1.06-.25-2.56-.37-4.51-.37h-1.12v17.61Z"/>
        <path class="cls-14" d="m190.29,96.28h-17.96v-.63c1.62-.15,2.75-.42,3.39-.82,1.13-.71,1.7-1.7,1.7-2.95,0-.75-.26-1.75-.77-3.01l-.46-1.15-2.62-6.45h-12.03l-1.42,3.77-.68,1.7c-.82,2.01-1.23,3.58-1.23,4.73,0,.67.15,1.3.45,1.89.3.58.71,1.06,1.22,1.42.71.49,1.62.78,2.73.88v.63h-12.25v-.63c.97-.05,1.81-.29,2.54-.71.73-.42,1.44-1.09,2.13-2.02.58-.75,1.15-1.71,1.71-2.88.56-1.18,1.29-2.94,2.2-5.29l10.01-25.79h1.56l11.89,28.74c.89,2.17,1.6,3.72,2.13,4.65.53.93,1.1,1.63,1.72,2.11.44.33.94.58,1.5.75.56.17,1.41.32,2.54.45v.63Zm-17.17-16.13l-5.74-14.16-5.41,14.16h11.16Z"/>
        <path class="cls-14" d="m212.37,58.96v.63c-1.04.05-1.88.2-2.53.44-.65.24-1.23.62-1.74,1.15-.71.73-1.15,1.74-1.31,3.04-.11.97-.16,2.08-.16,3.34v20.15c0,1.51.07,2.71.22,3.58s.38,1.58.71,2.11c.47.73,1.08,1.27,1.83,1.63s1.74.57,2.98.64v.63h-17.47v-.63c1.06-.05,1.91-.21,2.56-.45s1.22-.62,1.71-1.13c.58-.58.98-1.32,1.18-2.21.2-.89.3-2.28.3-4.16v-20.15c0-1.88-.1-3.26-.3-4.16-.2-.89-.59-1.63-1.18-2.21-.49-.53-1.07-.91-1.72-1.15-.66-.24-1.5-.38-2.54-.44v-.63h17.47Z"/>
        <path class="cls-14" d="m218.48,96.17l.08-11.29.63.03c.77,2.87,1.68,5.14,2.73,6.79,1.99,3.06,4.48,4.58,7.49,4.58,2.1,0,3.83-.7,5.2-2.11,1.37-1.4,2.05-3.18,2.05-5.33,0-.93-.15-1.88-.45-2.84-.3-.97-.71-1.8-1.22-2.49-.53-.71-1.27-1.39-2.23-2.05s-2.42-1.49-4.39-2.49c-1.73-.88-3.06-1.61-3.98-2.21s-1.66-1.21-2.23-1.83c-1.57-1.71-2.35-3.8-2.35-6.26,0-1.51.31-2.97.92-4.38.61-1.4,1.46-2.61,2.56-3.61,1.93-1.79,4.22-2.68,6.86-2.68.86,0,1.65.09,2.38.26.73.17,1.7.52,2.93,1.03.91.36,1.53.6,1.86.7.33.1.62.15.88.15.64,0,1.07-.46,1.29-1.39h.63l.19,10.86h-.63c-.49-1.73-.91-3.06-1.27-3.98-.36-.92-.78-1.77-1.27-2.56-.89-1.42-1.87-2.47-2.95-3.16-1.07-.68-2.31-1.03-3.71-1.03-2.04,0-3.65.69-4.83,2.08-.49.57-.88,1.23-1.16,2-.28.77-.42,1.53-.42,2.3,0,3.05,1.96,5.5,5.87,7.36l3.85,1.86c2.97,1.41,5.11,2.96,6.42,4.65,1.49,1.9,2.24,4.11,2.24,6.62,0,1.67-.34,3.27-1.01,4.8-.95,2.13-2.37,3.77-4.27,4.92-1.9,1.15-4.13,1.73-6.7,1.73-2.35,0-4.61-.46-6.78-1.39-1.13-.49-1.8-.77-2.02-.85-.22-.07-.46-.11-.74-.11-.88,0-1.48.44-1.8,1.31h-.63Z"/>
        <path class="cls-14" d="m285.37,96.28h-17.96v-.63c1.62-.15,2.75-.42,3.39-.82,1.13-.71,1.7-1.7,1.7-2.95,0-.75-.26-1.75-.77-3.01l-.46-1.15-2.62-6.45h-12.03l-1.42,3.77-.68,1.7c-.82,2.01-1.23,3.58-1.23,4.73,0,.67.15,1.3.45,1.89.3.58.71,1.06,1.22,1.42.71.49,1.62.78,2.73.88v.63h-12.25v-.63c.97-.05,1.81-.29,2.54-.71.73-.42,1.44-1.09,2.13-2.02.58-.75,1.15-1.71,1.71-2.88.56-1.18,1.29-2.94,2.2-5.29l10.01-25.79h1.56l11.89,28.74c.89,2.17,1.6,3.72,2.13,4.65.53.93,1.1,1.63,1.72,2.11.44.33.94.58,1.5.75.56.17,1.41.32,2.54.45v.63Zm-17.17-16.13l-5.74-14.16-5.41,14.16h11.16Z"/>
        <path class="cls-14" d="m289.99,96.28v-.66c1.84,0,3.26-.52,4.27-1.56.57-.58.95-1.33,1.16-2.23.21-.9.31-2.28.31-4.14v-20.15c0-1.93-.11-3.36-.34-4.28-.23-.92-.65-1.67-1.27-2.26-.51-.47-1.08-.82-1.71-1.04s-1.44-.35-2.42-.38v-.63h17.47v.63c-1,.05-1.82.19-2.46.41-.64.22-1.2.57-1.7,1.04-.62.6-1.04,1.36-1.26,2.27-.22.91-.33,2.32-.33,4.24v15.78c0,2.42.06,4.23.19,5.41.13,1.19.37,2.15.74,2.9.64,1.31,1.59,2.27,2.84,2.88,1.26.61,2.93.92,5,.92s4-.29,5.48-.86c1.49-.57,2.7-1.46,3.65-2.67.64-.82,1.16-1.75,1.57-2.79s.79-2.41,1.13-4.1l.66.05-.36,11.21h-32.65Z"/>
      </g>
      <g class="cls-19">
        <path class="cls-1" d="m13.62,19.88v9.82c0,1.86.1,3.24.31,4.14.21.9.6,1.65,1.16,2.23.49.51,1.06.89,1.71,1.13.65.25,1.5.4,2.56.45v.63H1.89v-.63c1.06-.05,1.91-.21,2.56-.45.65-.25,1.22-.62,1.71-1.13.58-.58.98-1.32,1.18-2.21.2-.89.3-2.28.3-4.16V9.54c0-1.57-.07-2.78-.21-3.62s-.37-1.54-.7-2.06c-.47-.73-1.08-1.27-1.8-1.63-.73-.36-1.68-.57-2.84-.64h-.19v-.63h16.49c2.88,0,5,.15,6.37.44,1.37.29,2.62.88,3.75,1.75,2.59,1.97,3.88,4.59,3.88,7.88s-1.31,5.78-3.94,7.33c-1.37.8-3.03,1.29-4.98,1.45-.62.05-2.11.08-4.48.08h-5.36Zm0-.88h2.68c1.8,0,3.19-.13,4.17-.4.98-.26,1.85-.75,2.61-1.46,1.79-1.62,2.68-3.78,2.68-6.48,0-1.49-.26-2.87-.78-4.12-.52-1.25-1.26-2.26-2.23-3.05-1.11-.93-2.43-1.48-3.96-1.64-.42-.04-1.38-.05-2.87-.05h-2.3v17.2Z"/>
        <path class="cls-2" d="m64.62.96l.46,9.02-.63.03c-.24-1.53-.63-2.8-1.18-3.8-.55-1-1.34-1.89-2.38-2.65-.86-.64-1.87-1.09-3.04-1.35-1.17-.26-2.72-.4-4.65-.4h-6.26v16.41h1.64c1.66,0,2.91-.11,3.75-.33.84-.22,1.52-.61,2.05-1.18.51-.53.89-1.15,1.13-1.87.25-.72.45-1.78.62-3.19l.63.03-.11,14.66h-.63c-.16-1.4-.41-2.53-.72-3.39-.32-.86-.76-1.59-1.33-2.19-.55-.58-1.26-1.01-2.13-1.29s-1.99-.41-3.34-.41h-1.56v6.26c0,2.5.06,4.32.19,5.46.13,1.14.37,2.09.74,2.86.62,1.31,1.56,2.27,2.83,2.88,1.27.61,2.94.92,5.02.92,2.19,0,4.02-.28,5.5-.83,1.48-.56,2.68-1.42,3.61-2.58.66-.78,1.19-1.68,1.6-2.68.41-1,.79-2.32,1.13-3.96l.63.03-.36,10.88h-32.62v-.63c1.04-.05,1.88-.2,2.53-.44.65-.24,1.23-.62,1.74-1.15.56-.58.95-1.33,1.16-2.23.21-.9.31-2.28.31-4.14V9.54c0-1.86-.1-3.24-.31-4.14-.21-.9-.6-1.65-1.16-2.23-.49-.53-1.06-.91-1.71-1.15-.65-.24-1.5-.38-2.56-.44v-.63h29.39Z"/>
        <path class="cls-5" d="m84.93,20.02v9.68c0,1.86.1,3.24.31,4.14.21.9.6,1.65,1.16,2.23.49.51,1.06.89,1.71,1.13.65.25,1.5.4,2.56.45v.63h-17.47v-.63c1.06-.05,1.91-.21,2.56-.45.65-.25,1.22-.62,1.71-1.13.58-.58.98-1.32,1.18-2.21.2-.89.3-2.28.3-4.16V9.54c0-1.88-.1-3.26-.3-4.16-.2-.89-.59-1.63-1.18-2.21-.49-.53-1.07-.91-1.72-1.15-.66-.24-1.5-.38-2.54-.44v-.63h13.18c2.21,0,3.66,0,4.35.03,2.83.13,5.04.51,6.64,1.15,1.8.73,3.2,1.82,4.2,3.27.99,1.45,1.49,3.13,1.49,5.04,0,2.84-1.08,5.12-3.23,6.84-.66.51-1.38.93-2.17,1.26s-1.85.64-3.19.93c1.09.46,1.91.93,2.43,1.42.42.38.8.86,1.15,1.44.35.57.87,1.59,1.56,3.05,1.62,3.34,2.85,5.77,3.68,7.31.83,1.54,1.53,2.66,2.09,3.35.46.57.9.96,1.33,1.18.43.22,1.02.36,1.76.44v.63h-9.08c-.46-1-.75-1.64-.88-1.91l-1.91-4.35c-1.15-2.61-2.31-4.91-3.47-6.92-1.17-1.99-2.23-3.34-3.2-4.07-.49-.36-1.02-.62-1.59-.78-.56-.15-1.26-.23-2.08-.23h-1.34Zm0-.6h1.04c2.26,0,3.88-.13,4.85-.38.98-.25,1.89-.78,2.75-1.59,1.91-1.82,2.87-4.08,2.87-6.78,0-1.44-.28-2.79-.83-4.06-.56-1.27-1.33-2.31-2.31-3.13-.77-.62-1.68-1.05-2.73-1.3-1.06-.25-2.56-.37-4.51-.37h-1.12v17.61Z"/>
        <path class="cls-8" d="m113.8,38.17l.08-11.29.63.03c.77,2.87,1.68,5.14,2.73,6.79,1.99,3.06,4.48,4.58,7.49,4.58,2.1,0,3.83-.7,5.2-2.11,1.37-1.4,2.05-3.18,2.05-5.33,0-.93-.15-1.88-.45-2.84-.3-.97-.71-1.8-1.22-2.49-.53-.71-1.27-1.39-2.23-2.05s-2.42-1.49-4.39-2.49c-1.73-.88-3.06-1.61-3.98-2.21s-1.66-1.21-2.23-1.83c-1.57-1.71-2.35-3.8-2.35-6.26,0-1.51.31-2.97.92-4.38.61-1.4,1.46-2.61,2.56-3.61,1.93-1.79,4.22-2.68,6.86-2.68.86,0,1.65.09,2.38.26.73.17,1.7.52,2.93,1.03.91.36,1.53.6,1.86.7.33.1.62.15.88.15.64,0,1.07-.46,1.29-1.39h.63l.19,10.86h-.63c-.49-1.73-.91-3.06-1.27-3.98-.36-.92-.78-1.77-1.27-2.56-.89-1.42-1.87-2.47-2.95-3.16-1.07-.68-2.31-1.03-3.71-1.03-2.04,0-3.65.69-4.83,2.08-.49.57-.88,1.23-1.16,2-.28.77-.42,1.53-.42,2.3,0,3.05,1.96,5.5,5.87,7.36l3.85,1.86c2.97,1.41,5.11,2.96,6.42,4.65,1.49,1.9,2.24,4.11,2.24,6.62,0,1.67-.34,3.27-1.01,4.8-.95,2.13-2.37,3.77-4.27,4.92-1.9,1.15-4.13,1.73-6.7,1.73-2.35,0-4.61-.46-6.78-1.39-1.13-.49-1.8-.77-2.02-.85-.22-.07-.46-.11-.74-.11-.88,0-1.48.44-1.8,1.31h-.63Z"/>
        <path class="cls-16" d="m144.12,19.87c0-3.06.66-5.91,1.97-8.52,1.31-2.62,3.23-4.9,5.74-6.85,1.88-1.44,3.9-2.55,6.07-3.32,2.17-.78,4.36-1.16,6.56-1.16,2.81,0,5.52.62,8.15,1.85,2.62,1.23,4.92,2.97,6.89,5.21,3.21,3.65,4.81,7.8,4.81,12.45,0,2.34-.42,4.59-1.26,6.76-.84,2.17-2.06,4.15-3.66,5.94-1.97,2.23-4.3,3.95-6.99,5.17-2.69,1.22-5.5,1.83-8.44,1.83s-5.67-.59-8.31-1.78c-2.64-1.19-4.92-2.86-6.84-5.04-1.51-1.7-2.67-3.62-3.49-5.79-.81-2.16-1.22-4.41-1.22-6.75Zm6.62.41c0,5.29,1.44,9.75,4.32,13.38,1.29,1.62,2.67,2.81,4.12,3.54,1.45.74,3.12,1.11,5.02,1.11s3.6-.36,5.04-1.09c1.45-.73,2.83-1.92,4.14-3.56,2.88-3.65,4.32-8.15,4.32-13.49,0-2.94-.4-5.71-1.19-8.33-.79-2.62-1.91-4.84-3.35-6.66-1.17-1.5-2.47-2.58-3.9-3.27-1.43-.68-3.12-1.03-5.07-1.03s-3.6.34-5.02,1.01c-1.41.67-2.72,1.77-3.92,3.28-1.44,1.81-2.55,4.02-3.34,6.65-.78,2.63-1.18,5.45-1.18,8.46Z"/>
        <path class="cls-12" d="m195.45,5.91v23.79c0,1.88.1,3.26.31,4.16.21.89.6,1.63,1.16,2.21.51.53,1.09.91,1.74,1.15.65.24,1.49.38,2.53.44v.63h-12.61v-.63c1.04-.05,1.88-.2,2.53-.44.65-.24,1.23-.62,1.74-1.15.56-.58.95-1.33,1.16-2.23s.31-2.28.31-4.14V9.52c0-1.84-.1-3.21-.31-4.12s-.6-1.65-1.16-2.23c-.49-.53-1.06-.91-1.71-1.15-.65-.24-1.5-.38-2.56-.44v-.63h10.53l22.2,28.33V9.54c0-1.88-.1-3.26-.31-4.16-.21-.89-.6-1.63-1.16-2.21-.51-.53-1.09-.91-1.74-1.15-.65-.24-1.49-.38-2.53-.44v-.63h12.61v.63c-1.82,0-3.24.53-4.27,1.59-.56.58-.95,1.33-1.16,2.23s-.31,2.27-.31,4.12v28.77h-1.23l-25.76-32.38Z"/>
        <path class="cls-18" d="m269.68,38.28h-17.96v-.63c1.62-.15,2.75-.42,3.39-.82,1.13-.71,1.7-1.7,1.7-2.95,0-.75-.26-1.75-.77-3.01l-.46-1.15-2.62-6.45h-12.03l-1.42,3.77-.68,1.7c-.82,2.01-1.23,3.58-1.23,4.73,0,.67.15,1.3.45,1.89.3.58.71,1.06,1.22,1.42.71.49,1.62.78,2.73.88v.63h-12.25v-.63c.97-.05,1.81-.29,2.54-.71.73-.42,1.44-1.09,2.13-2.02.58-.75,1.15-1.71,1.71-2.88.56-1.18,1.29-2.94,2.2-5.29L248.32.96h1.56l11.89,28.74c.89,2.17,1.6,3.72,2.13,4.65.53.93,1.1,1.63,1.72,2.11.44.33.94.58,1.5.75.56.17,1.41.32,2.54.45v.63Zm-17.17-16.13l-5.74-14.16-5.41,14.16h11.16Z"/>
        <path class="cls-9" d="m274.29,38.28v-.66c1.84,0,3.26-.52,4.27-1.56.56-.58.95-1.33,1.16-2.23s.31-2.28.31-4.14V9.54c0-1.93-.11-3.36-.34-4.28-.23-.92-.65-1.67-1.27-2.26-.51-.47-1.08-.82-1.71-1.04s-1.44-.35-2.42-.38v-.63h17.47v.63c-1,.05-1.82.19-2.46.41s-1.2.57-1.7,1.04c-.62.6-1.04,1.36-1.26,2.27-.22.91-.33,2.32-.33,4.24v15.78c0,2.42.06,4.23.19,5.41.13,1.19.37,2.15.74,2.9.64,1.31,1.59,2.27,2.84,2.88,1.26.61,2.93.92,5,.92s4-.29,5.48-.86,2.7-1.46,3.65-2.67c.64-.82,1.16-1.75,1.57-2.79s.79-2.41,1.13-4.1l.66.05-.36,11.21h-32.65Z"/>
        <path class="cls-3" d="m39.95,96.28h-17.96v-.63c1.62-.15,2.75-.42,3.39-.82,1.13-.71,1.7-1.7,1.7-2.95,0-.75-.26-1.75-.77-3.01l-.46-1.15-2.62-6.45h-12.03l-1.42,3.77-.68,1.7c-.82,2.01-1.23,3.58-1.23,4.73,0,.67.15,1.3.45,1.89.3.58.71,1.06,1.22,1.42.71.49,1.62.78,2.73.88v.63H0v-.63c.97-.05,1.81-.29,2.54-.71.73-.42,1.44-1.09,2.13-2.02.58-.75,1.15-1.71,1.71-2.88.56-1.18,1.29-2.94,2.2-5.29l10.01-25.79h1.56l11.89,28.74c.89,2.17,1.6,3.72,2.13,4.65.53.93,1.1,1.63,1.72,2.11.44.33.94.58,1.5.75.56.17,1.41.32,2.54.45v.63Zm-17.17-16.13l-5.74-14.16-5.41,14.16h11.16Z"/>
        <path class="cls-6" d="m56.29,77.88v9.82c0,1.86.1,3.24.31,4.14s.6,1.65,1.16,2.23c.49.51,1.06.89,1.71,1.13s1.5.4,2.56.45v.63h-17.47v-.63c1.06-.05,1.91-.21,2.56-.45s1.22-.62,1.71-1.13c.58-.58.98-1.32,1.18-2.21.2-.89.3-2.28.3-4.16v-20.15c0-1.57-.07-2.78-.21-3.62s-.37-1.54-.7-2.06c-.47-.73-1.08-1.27-1.8-1.63s-1.68-.57-2.84-.64h-.19v-.63h16.49c2.88,0,5,.15,6.37.44,1.37.29,2.62.88,3.75,1.75,2.59,1.97,3.88,4.59,3.88,7.88s-1.31,5.78-3.94,7.33c-1.37.8-3.03,1.29-4.98,1.45-.62.05-2.11.08-4.48.08h-5.36Zm0-.88h2.68c1.8,0,3.19-.13,4.17-.4.98-.26,1.85-.75,2.61-1.46,1.79-1.62,2.68-3.78,2.68-6.48,0-1.49-.26-2.87-.78-4.12-.52-1.25-1.26-2.26-2.23-3.05-1.11-.93-2.43-1.48-3.96-1.64-.42-.04-1.38-.05-2.87-.05h-2.3v17.2Z"/>
        <path class="cls-15" d="m89.64,77.88v9.82c0,1.86.1,3.24.31,4.14s.6,1.65,1.16,2.23c.49.51,1.06.89,1.71,1.13s1.5.4,2.56.45v.63h-17.47v-.63c1.06-.05,1.91-.21,2.56-.45s1.22-.62,1.71-1.13c.58-.58.98-1.32,1.18-2.21.2-.89.3-2.28.3-4.16v-20.15c0-1.57-.07-2.78-.21-3.62s-.37-1.54-.7-2.06c-.47-.73-1.08-1.27-1.8-1.63s-1.68-.57-2.84-.64h-.19v-.63h16.49c2.88,0,5,.15,6.37.44,1.37.29,2.62.88,3.75,1.75,2.59,1.97,3.88,4.59,3.88,7.88s-1.31,5.78-3.94,7.33c-1.37.8-3.03,1.29-4.98,1.45-.62.05-2.11.08-4.48.08h-5.36Zm0-.88h2.68c1.8,0,3.19-.13,4.17-.4.98-.26,1.85-.75,2.61-1.46,1.79-1.62,2.68-3.78,2.68-6.48,0-1.49-.26-2.87-.78-4.12-.52-1.25-1.26-2.26-2.23-3.05-1.11-.93-2.43-1.48-3.96-1.64-.42-.04-1.38-.05-2.87-.05h-2.3v17.2Z"/>
        <path class="cls-11" d="m122.98,78.02v9.68c0,1.86.1,3.24.31,4.14.21.9.6,1.65,1.16,2.23.49.51,1.06.89,1.71,1.13.65.25,1.5.4,2.56.45v.63h-17.47v-.63c1.06-.05,1.91-.21,2.56-.45.65-.25,1.22-.62,1.71-1.13.58-.58.97-1.32,1.18-2.21.2-.89.3-2.28.3-4.16v-20.15c0-1.88-.1-3.26-.3-4.16-.2-.89-.59-1.63-1.18-2.21-.49-.53-1.07-.91-1.72-1.15-.66-.24-1.5-.38-2.54-.44v-.63h13.18c2.21,0,3.65,0,4.35.03,2.83.13,5.04.51,6.64,1.15,1.8.73,3.2,1.82,4.2,3.27.99,1.45,1.49,3.13,1.49,5.04,0,2.84-1.08,5.12-3.23,6.84-.66.51-1.38.93-2.17,1.26s-1.86.64-3.19.93c1.09.46,1.9.93,2.43,1.42.42.38.8.86,1.15,1.44.35.57.87,1.59,1.56,3.05,1.62,3.34,2.85,5.77,3.68,7.31.83,1.54,1.53,2.66,2.09,3.35.46.57.9.96,1.33,1.18.43.22,1.02.36,1.76.44v.63h-9.08c-.46-1-.75-1.64-.88-1.91l-1.91-4.35c-1.15-2.61-2.31-4.91-3.47-6.92-1.17-1.99-2.23-3.34-3.2-4.07-.49-.36-1.02-.62-1.59-.78-.57-.15-1.26-.23-2.08-.23h-1.34Zm0-.6h1.04c2.26,0,3.88-.13,4.85-.38.97-.25,1.89-.78,2.75-1.59,1.91-1.82,2.87-4.08,2.87-6.78,0-1.44-.28-2.79-.83-4.06-.56-1.27-1.33-2.31-2.31-3.13-.77-.62-1.68-1.05-2.73-1.3-1.06-.25-2.56-.37-4.51-.37h-1.12v17.61Z"/>
        <path class="cls-10" d="m190.29,96.28h-17.96v-.63c1.62-.15,2.75-.42,3.39-.82,1.13-.71,1.7-1.7,1.7-2.95,0-.75-.26-1.75-.77-3.01l-.46-1.15-2.62-6.45h-12.03l-1.42,3.77-.68,1.7c-.82,2.01-1.23,3.58-1.23,4.73,0,.67.15,1.3.45,1.89.3.58.71,1.06,1.22,1.42.71.49,1.62.78,2.73.88v.63h-12.25v-.63c.97-.05,1.81-.29,2.54-.71.73-.42,1.44-1.09,2.13-2.02.58-.75,1.15-1.71,1.71-2.88.56-1.18,1.29-2.94,2.2-5.29l10.01-25.79h1.56l11.89,28.74c.89,2.17,1.6,3.72,2.13,4.65.53.93,1.1,1.63,1.72,2.11.44.33.94.58,1.5.75.56.17,1.41.32,2.54.45v.63Zm-17.17-16.13l-5.74-14.16-5.41,14.16h11.16Z"/>
        <path class="cls-17" d="m212.37,58.96v.63c-1.04.05-1.88.2-2.53.44-.65.24-1.23.62-1.74,1.15-.71.73-1.15,1.74-1.31,3.04-.11.97-.16,2.08-.16,3.34v20.15c0,1.51.07,2.71.22,3.58s.38,1.58.71,2.11c.47.73,1.08,1.27,1.83,1.63s1.74.57,2.98.64v.63h-17.47v-.63c1.06-.05,1.91-.21,2.56-.45s1.22-.62,1.71-1.13c.58-.58.98-1.32,1.18-2.21.2-.89.3-2.28.3-4.16v-20.15c0-1.88-.1-3.26-.3-4.16-.2-.89-.59-1.63-1.18-2.21-.49-.53-1.07-.91-1.72-1.15-.66-.24-1.5-.38-2.54-.44v-.63h17.47Z"/>
        <path class="cls-7" d="m218.48,96.17l.08-11.29.63.03c.77,2.87,1.68,5.14,2.73,6.79,1.99,3.06,4.48,4.58,7.49,4.58,2.1,0,3.83-.7,5.2-2.11,1.37-1.4,2.05-3.18,2.05-5.33,0-.93-.15-1.88-.45-2.84-.3-.97-.71-1.8-1.22-2.49-.53-.71-1.27-1.39-2.23-2.05s-2.42-1.49-4.39-2.49c-1.73-.88-3.06-1.61-3.98-2.21s-1.66-1.21-2.23-1.83c-1.57-1.71-2.35-3.8-2.35-6.26,0-1.51.31-2.97.92-4.38.61-1.4,1.46-2.61,2.56-3.61,1.93-1.79,4.22-2.68,6.86-2.68.86,0,1.65.09,2.38.26.73.17,1.7.52,2.93,1.03.91.36,1.53.6,1.86.7.33.1.62.15.88.15.64,0,1.07-.46,1.29-1.39h.63l.19,10.86h-.63c-.49-1.73-.91-3.06-1.27-3.98-.36-.92-.78-1.77-1.27-2.56-.89-1.42-1.87-2.47-2.95-3.16-1.07-.68-2.31-1.03-3.71-1.03-2.04,0-3.65.69-4.83,2.08-.49.57-.88,1.23-1.16,2-.28.77-.42,1.53-.42,2.3,0,3.05,1.96,5.5,5.87,7.36l3.85,1.86c2.97,1.41,5.11,2.96,6.42,4.65,1.49,1.9,2.24,4.11,2.24,6.62,0,1.67-.34,3.27-1.01,4.8-.95,2.13-2.37,3.77-4.27,4.92-1.9,1.15-4.13,1.73-6.7,1.73-2.35,0-4.61-.46-6.78-1.39-1.13-.49-1.8-.77-2.02-.85-.22-.07-.46-.11-.74-.11-.88,0-1.48.44-1.8,1.31h-.63Z"/>
        <path class="cls-4" d="m285.37,96.28h-17.96v-.63c1.62-.15,2.75-.42,3.39-.82,1.13-.71,1.7-1.7,1.7-2.95,0-.75-.26-1.75-.77-3.01l-.46-1.15-2.62-6.45h-12.03l-1.42,3.77-.68,1.7c-.82,2.01-1.23,3.58-1.23,4.73,0,.67.15,1.3.45,1.89.3.58.71,1.06,1.22,1.42.71.49,1.62.78,2.73.88v.63h-12.25v-.63c.97-.05,1.81-.29,2.54-.71.73-.42,1.44-1.09,2.13-2.02.58-.75,1.15-1.71,1.71-2.88.56-1.18,1.29-2.94,2.2-5.29l10.01-25.79h1.56l11.89,28.74c.89,2.17,1.6,3.72,2.13,4.65.53.93,1.1,1.63,1.72,2.11.44.33.94.58,1.5.75.56.17,1.41.32,2.54.45v.63Zm-17.17-16.13l-5.74-14.16-5.41,14.16h11.16Z"/>
        <path class="cls-13" d="m289.99,96.28v-.66c1.84,0,3.26-.52,4.27-1.56.57-.58.95-1.33,1.16-2.23.21-.9.31-2.28.31-4.14v-20.15c0-1.93-.11-3.36-.34-4.28-.23-.92-.65-1.67-1.27-2.26-.51-.47-1.08-.82-1.71-1.04s-1.44-.35-2.42-.38v-.63h17.47v.63c-1,.05-1.82.19-2.46.41-.64.22-1.2.57-1.7,1.04-.62.6-1.04,1.36-1.26,2.27-.22.91-.33,2.32-.33,4.24v15.78c0,2.42.06,4.23.19,5.41.13,1.19.37,2.15.74,2.9.64,1.31,1.59,2.27,2.84,2.88,1.26.61,2.93.92,5,.92s4-.29,5.48-.86c1.49-.57,2.7-1.46,3.65-2.67.64-.82,1.16-1.75,1.57-2.79s.79-2.41,1.13-4.1l.66.05-.36,11.21h-32.65Z"/>
      </g>
    </g>
  </g>
</svg>