<svg xmlns="http://www.w3.org/2000/svg" xmlns:xlink="http://www.w3.org/1999/xlink" viewBox="0 0 74.55 86.5"><defs><style>.cls-1,.cls-2,.cls-3,.cls-4,.cls-5{stroke-miterlimit:10;}.cls-1,.cls-2,.cls-3{stroke-width:0.5px;}.cls-1{fill:url(#Dull_Brass);stroke:url(#Gold_Radial);}.cls-2{fill:url(#White_Gold);}.cls-2,.cls-3{stroke:url(#Gold_Radial-3);}.cls-3{fill:url(#名称未設定グラデーション_20);}.cls-4,.cls-5{fill:none;}.cls-4{stroke:url(#Gold_Radial-5);}.cls-5{stroke:url(#Gold_Radial-6);}.cls-6,.cls-7,.cls-8{fill:#93640f;}.cls-6{stroke:#93640f;stroke-linecap:round;stroke-linejoin:round;stroke-width:0.07px;}.cls-7{font-size:9.63px;font-family:TrajanPro-Regular, TrajanPro Regular;letter-spacing:0.13em;}</style><linearGradient id="Dull_Brass" x1="-2118.82" y1="2849.16" x2="-2032.82" y2="2849.16" gradientTransform="translate(2886.43 2119.07) rotate(90)" gradientUnits="userSpaceOnUse"><stop offset="0.01" stop-color="#ebc17d"/><stop offset="0.19" stop-color="#dfb77c"/><stop offset="0.6" stop-color="#c08329"/><stop offset="0.87" stop-color="#eabe81"/><stop offset="1" stop-color="#eedcc3"/></linearGradient><radialGradient id="Gold_Radial" cx="-8.92" cy="126.32" r="41.04" gradientTransform="translate(45.92 -82.36) scale(0.97 0.99)" gradientUnits="userSpaceOnUse"><stop offset="0" stop-color="#fffbcc"/><stop offset="0.11" stop-color="#fbf2bb"/><stop offset="0.34" stop-color="#f0d98e"/><stop offset="0.37" stop-color="#eed688"/><stop offset="0.69" stop-color="#ebbb10"/><stop offset="1" stop-color="#c3922e"/></radialGradient><linearGradient id="White_Gold" x1="3.71" y1="43.25" x2="71.34" y2="43.25" gradientUnits="userSpaceOnUse"><stop offset="0.01" stop-color="#dee3e6"/><stop offset="0.25" stop-color="#fffde5"/><stop offset="0.4" stop-color="#f0ecd8"/><stop offset="0.6" stop-color="#d6cdc1"/><stop offset="0.79" stop-color="#ededee"/><stop offset="1" stop-color="#d8d5bb"/></linearGradient><radialGradient id="Gold_Radial-3" cx="-8.66" cy="126.32" r="38.09" xlink:href="#Gold_Radial"/><linearGradient id="名称未設定グラデーション_20" x1="3.71" y1="43.25" x2="71.34" y2="43.25" gradientUnits="userSpaceOnUse"><stop offset="0.01" stop-color="#dee3e6"/><stop offset="0.25" stop-color="#fffde5"/><stop offset="0.47" stop-color="#f2ecda"/><stop offset="0.6" stop-color="#e8dfd1"/><stop offset="0.79" stop-color="#ededee"/><stop offset="1" stop-color="#d8d5bb"/></linearGradient><radialGradient id="Gold_Radial-5" cx="37.78" cy="28.89" r="16.03" gradientTransform="matrix(1, 0, 0, 1, 0, 0)" xlink:href="#Gold_Radial"/><radialGradient id="Gold_Radial-6" cx="37.78" cy="60.28" r="16.03" gradientTransform="matrix(1, 0, 0, 1, 0, 0)" xlink:href="#Gold_Radial"/></defs><g id="Layer_2" data-name="Layer 2"><g id="デザイン"><path class="cls-1" d="M.25,22.93a2.79,2.79,0,0,1,1.3-2.07L36.1.53a2.69,2.69,0,0,1,2.38,0L73.05,20.86a2.76,2.76,0,0,1,1.25,2.07V63.57a2.72,2.72,0,0,1-1.24,2.07L38.54,86a2.53,2.53,0,0,1-2.36,0L1.56,65.64A2.8,2.8,0,0,1,.25,63.57Z"/><path class="cls-1" d="M.25,22.93a2.79,2.79,0,0,1,1.3-2.07L36.1.53a2.69,2.69,0,0,1,2.38,0L73.05,20.86a2.76,2.76,0,0,1,1.25,2.07V63.57a2.72,2.72,0,0,1-1.24,2.07L38.54,86a2.53,2.53,0,0,1-2.36,0L1.56,65.64A2.8,2.8,0,0,1,.25,63.57Z"/><polygon class="cls-2" points="3.71 63.47 3.71 23.04 37.55 2.92 71.34 23.03 71.34 63.46 37.49 83.58 3.71 63.47"/><polygon class="cls-3" points="3.71 63.47 3.71 23.04 37.55 2.92 71.34 23.03 71.34 63.46 37.49 83.58 3.71 63.47"/><line class="cls-4" x1="15.13" y1="28.89" x2="60.44" y2="28.89"/><line class="cls-5" x1="15.13" y1="60.28" x2="60.44" y2="60.28"/><path class="cls-6" d="M25.63,68.31a1.72,1.72,0,0,1,.06-.53,2.75,2.75,0,0,1,.22-.58l-.2.1-.05,0c-.27.19-.51.38-.73.56s-.4.36-.58.54a6.7,6.7,0,0,0-.45.53,4.08,4.08,0,0,0-.34.57.09.09,0,0,1-.07,0,0,0,0,0,1,0,0,.91.91,0,0,1,.16-.49c.13-.2.29-.44.49-.7l.14-.19.15-.18-.16.07-1.71.9s-.05,0-.06,0,0,0,0,0a.05.05,0,0,1,0,0l.81-.42L24.2,68l.36-.19,0,0c.31-.36.65-.73,1-1.11l.38-.39c.11-.12.21-.22.31-.31l.3-.28.31-.3.29-.27,0,0h0l-.16,0c-.23,0-.5.09-.81.13l-.94.12c-.33,0-.67.1-1,.17a7.14,7.14,0,0,0-.91.22,3.81,3.81,0,0,0-.73.31,1,1,0,0,0-.44.42q-.13.26.24.36a1.54,1.54,0,0,0,.46,0,4,4,0,0,0,.58,0,6.23,6.23,0,0,0,.62-.15,5,5,0,0,0,.56-.22,2.47,2.47,0,0,0,.43-.29.69.69,0,0,0,.22-.36s0,0,.06,0,0,0,0,.06a.9.9,0,0,1-.24.39,1.86,1.86,0,0,1-.46.32,3.34,3.34,0,0,1-.58.23l-.62.15c-.22,0-.42,0-.6,0a2.31,2.31,0,0,1-.49,0,.62.62,0,0,1-.31-.18.26.26,0,0,1,0-.31,1.17,1.17,0,0,1,.48-.45,3.37,3.37,0,0,1,.74-.33,7.73,7.73,0,0,1,.92-.23c.33-.07.66-.12,1-.17l.95-.12c.3,0,.57-.08.8-.13l.18,0,.14,0h.05l0,0,.21-.17a.4.4,0,0,1,.12-.07h.05a0,0,0,0,1,0,0,.19.19,0,0,1-.1.17,1,1,0,0,1-.28.13l0,0h0l-.49.42-.31.3-.29.28c-.09.1-.2.21-.31.31l-.37.39-.46.5c-.14.15-.28.31-.43.46v0l.05,0,.67-.32.14-.07.23-.16.17-.12.13-.18.14-.18a.05.05,0,0,1,.08,0,0,0,0,0,1,0,.07l-.12.14.58-.38q.7-.47,1.26-.78a10.68,10.68,0,0,1,1-.48,3.46,3.46,0,0,1,.69-.23,1.17,1.17,0,0,1,.46,0l0,0a.09.09,0,0,1,0,.06,1,1,0,0,1-.3.2l-.69.36-1.71.84-1.31.66-.16.06a3.2,3.2,0,0,0-.28.64,1.34,1.34,0,0,0-.07.54.74.74,0,0,0,.08.3.6.6,0,0,0,.18.21.75.75,0,0,0,.31.09,1.27,1.27,0,0,0,.45-.06,3.28,3.28,0,0,0,.47-.16l.57-.25.62-.3.61-.34h0l0,0s0,.07,0,.08l-.61.32a6,6,0,0,1-.62.31l-.57.26-.47.16a1.43,1.43,0,0,1-.48.06.8.8,0,0,1-.36-.11.52.52,0,0,1-.21-.23A.9.9,0,0,1,25.63,68.31Zm-.41-.77-.32.17-.28.14c-.22.25-.41.49-.57.7s-.28.39-.37.55l0,.06,0-.06a4.63,4.63,0,0,1,.6-.74,8.71,8.71,0,0,1,.81-.73Zm2.29-1.23,1.69-.86.56-.28a2.22,2.22,0,0,0,.33-.18l.05,0h0a.93.93,0,0,0-.42,0,3.57,3.57,0,0,0-.57.2l-.64.31-.63.36-.55.34-.38.25-.68.46h0l.64-.31Z"/><path class="cls-6" d="M28.74,68.26a.35.35,0,0,1,.09-.11.42.42,0,0,0,.11-.13.56.56,0,0,0,0-.12l-.13.09-.13.08s0,0-.07,0,0,0,0-.07l.1-.06.1-.06L29,67.8s0,0,0,0h0s0,0,0,0,0,0,.05,0a.69.69,0,0,1,0,.13l0,.12.37-.22a.27.27,0,0,1,.27,0,.07.07,0,0,1,0,.06.1.1,0,0,1,0,.09,1,1,0,0,1-.05.16.35.35,0,0,0,0,.12.07.07,0,0,0,0,.08h.1a2.36,2.36,0,0,0,.43-.16,3,3,0,0,0,.47-.27s.06,0,.07,0,0,0,0,.06a3.07,3.07,0,0,1-.48.29,2,2,0,0,1-.49.17c-.1,0-.16,0-.19,0a.22.22,0,0,1,0-.14.67.67,0,0,1,.05-.19,1.16,1.16,0,0,0,.06-.16s-.05,0-.11,0l-.2.09-.22.14-.16.13a.6.6,0,0,1-.08.08.17.17,0,0,1-.06.06.06.06,0,0,1-.06,0S28.72,68.3,28.74,68.26Z"/><path class="cls-6" d="M30.54,68.27a.17.17,0,0,1-.07-.17.29.29,0,0,1,.08-.19.69.69,0,0,1,.17-.17,1,1,0,0,1,.18-.11H31s0,0,0,0a0,0,0,0,1,0,.06l-.15.13-.18.13a.23.23,0,0,0-.05.2s.06.06.13.06a.44.44,0,0,0,.24-.07.21.21,0,0,1-.07-.18.57.57,0,0,1,.07-.22,1.19,1.19,0,0,1,.15-.18.27.27,0,0,1,.17-.07h0l0,0a.19.19,0,0,1,0,.15.49.49,0,0,1-.06.17,1,1,0,0,1-.11.17.24.24,0,0,1-.08.09.4.4,0,0,0,.2,0L31.6,68l.26-.12.18-.1s.06,0,.06,0,0,0,0,0a.87.87,0,0,1-.2.12,1.39,1.39,0,0,1-.28.12,1.71,1.71,0,0,1-.3.09.72.72,0,0,1-.25,0,.53.53,0,0,1-.32.12A.33.33,0,0,1,30.54,68.27Zm.73-.68a.17.17,0,0,0-.11.06.42.42,0,0,0-.11.15A.52.52,0,0,0,31,68a.1.1,0,0,0,.05.12l.11-.13a.51.51,0,0,0,.09-.16.27.27,0,0,0,.05-.13S31.29,67.6,31.27,67.59Z"/><path class="cls-6" d="M32.55,68.23a.09.09,0,0,1-.08-.09.38.38,0,0,1,0-.2l-.12.13-.14.11-.14.06a.17.17,0,0,1-.12,0l0,0a.18.18,0,0,1,0-.11A.28.28,0,0,1,32,68s0,0,0,0v0l0,0-.07,0-.05,0s-.06,0-.06,0a.06.06,0,0,1,0,0l0,0a.27.27,0,0,0,.1-.06l.11-.08,0,0,0,0h0l0,0s0,0,0,0,0,0,0,0,0,0,0,0a.91.91,0,0,1-.07.14A.58.58,0,0,0,32,68l0,.07v0s0,0,0,0h0s.11,0,.22-.1a1.23,1.23,0,0,0,.25-.27h.09a0,0,0,0,1,0,0v0l0,.1,0,.11a.11.11,0,0,0,0,.08,0,0,0,0,0,0,0,.22.22,0,0,0,.16,0,2.39,2.39,0,0,0,.22-.16,1.8,1.8,0,0,0,.2-.19.76.76,0,0,0,.14-.21.06.06,0,0,1,.07,0,0,0,0,0,1,0,.06.78.78,0,0,1-.13.18,1.51,1.51,0,0,1-.21.23,1.43,1.43,0,0,1-.26.19A.34.34,0,0,1,32.55,68.23Z"/><path class="cls-6" d="M34.37,67.15H34.3s0,0,0,0,0,0,0,0h0a3.61,3.61,0,0,1,.46-.1l.57-.09c.18-.15.34-.27.47-.36l.29-.19a.1.1,0,0,1,.09,0s0,.05-.06.08a1.85,1.85,0,0,0-.26.16,2.68,2.68,0,0,0-.35.28l.46,0,.43,0h0a.05.05,0,0,1,0,0s0,0-.06,0h-.06l-.5,0a3.86,3.86,0,0,0-.49.06l-.16.13-.15.16a2.53,2.53,0,0,0-.29.32,1.65,1.65,0,0,0-.16.22.29.29,0,0,0-.06.15.25.25,0,0,0,0,.08c0,.06.05.09.12.1a1,1,0,0,0,.29,0l.38-.09.39-.14.34-.15.21-.12a.06.06,0,0,1,.08,0s0,0,0,.07a1.49,1.49,0,0,1-.31.18,4.53,4.53,0,0,1-.49.2,3.23,3.23,0,0,1-.51.14.87.87,0,0,1-.39,0,.35.35,0,0,1-.14-.06.23.23,0,0,1-.06-.13,1,1,0,0,1,.06-.21,1.14,1.14,0,0,1,.15-.23,1.73,1.73,0,0,1,.17-.21l.17-.18a1.36,1.36,0,0,0,.12-.12.52.52,0,0,1,.11-.1l-.45.07Z"/><path class="cls-6" d="M36.93,67.3l-.13.09-.27.2-.2.37.18-.13.26-.15a1.59,1.59,0,0,1,.27-.12.64.64,0,0,1,.2,0,.13.13,0,0,1,.15.12.2.2,0,0,1-.06.16L37.2,68s-.05.08,0,.1.07,0,.18,0l.18-.08.21-.1.22-.11a1.6,1.6,0,0,0,.19-.11s0,0,.07,0,0,0,0,0l-.14.1-.22.12-.25.13-.25.1a.5.5,0,0,1-.19,0c-.06,0-.09,0-.11-.05s0-.06,0-.11l.08-.13a1.13,1.13,0,0,0,.1-.13.66.66,0,0,0,.06-.12s0,0-.12,0a1.14,1.14,0,0,0-.28.11c-.11.05-.22.12-.34.19a2,2,0,0,0-.3.22s0,0,0,0,0,0,0-.06a.82.82,0,0,1,.06-.19,1,1,0,0,1,.1-.21l-.17.11s-.06,0-.07,0,0,0,0,0l0,0,.16-.1.16-.11a3.39,3.39,0,0,1,.27-.39,3.87,3.87,0,0,1,.32-.37,2.32,2.32,0,0,1,.25-.22l.23-.16a.82.82,0,0,1,.19-.09.18.18,0,0,1,.16,0q.11.08-.09.33A3.58,3.58,0,0,1,36.93,67.3Zm.87-.94s0,0-.07,0a1.08,1.08,0,0,0-.18.11,2.74,2.74,0,0,0-.55.46,2.93,2.93,0,0,0-.36.45l.19-.12.32-.23.34-.27a3,3,0,0,0,.25-.24C37.8,66.45,37.82,66.39,37.8,66.36Z"/><path class="cls-6" d="M37.79,67.72a.43.43,0,0,1,.14-.19.45.45,0,0,1,.2-.11.43.43,0,0,1,.16,0,.1.1,0,0,1,.08.08.18.18,0,0,1,0,.13l-.15.12-.18.09-.12,0A.34.34,0,0,0,38,68a.6.6,0,0,0,.27,0,2.19,2.19,0,0,0,.55-.17,4.68,4.68,0,0,0,.46-.27s0,0,.07,0a0,0,0,0,1,0,.07,2.5,2.5,0,0,1-.24.16l-.3.15-.32.11a1.81,1.81,0,0,1-.31,0,.64.64,0,0,1-.2,0,.46.46,0,0,1-.15-.09.25.25,0,0,1-.08-.14A.3.3,0,0,1,37.79,67.72Zm.48-.22a.3.3,0,0,0-.26.09.44.44,0,0,0-.15.22l.09,0,.14-.07.12-.09S38.27,67.53,38.27,67.5Z"/><path class="cls-6" d="M40.81,68.07a.22.22,0,0,1-.11-.1.15.15,0,0,1,0-.13,1.68,1.68,0,0,1-.37.21.34.34,0,0,1-.23,0,.2.2,0,0,1,0-.16.41.41,0,0,1,.17-.29s.06,0,.08,0,0,0,0,.08-.17.2-.12.29,0,0,.09,0l.15-.07.17-.11.17-.12.09-.07a.05.05,0,0,1,0,0s0,0,0,0,0,0,0,.06-.1.14-.09.17,0,.06.07.07A.33.33,0,0,0,41,68l.15,0,.32-.14a2.31,2.31,0,0,0,.36-.2s0,0,0,0a.05.05,0,0,1,0,0s0,0,0,0a2,2,0,0,1-.28.19,2.1,2.1,0,0,1-.3.15,1.09,1.09,0,0,1-.28.08A.46.46,0,0,1,40.81,68.07Z"/><path class="cls-6" d="M41.79,67.93l.1-.11a.42.42,0,0,0,.11-.13.56.56,0,0,0,0-.12l-.14.09-.13.08a.07.07,0,0,1-.07,0s0-.06,0-.07l.1-.06.1-.06.08-.06s0,0,0,0h0s0,0,0,0,0,0,0,0a.25.25,0,0,1,0,.14.43.43,0,0,1,0,.11l.37-.21a.25.25,0,0,1,.26,0,.05.05,0,0,1,0,.06.11.11,0,0,1,0,.08c0,.06,0,.12-.05.17l0,.12a.1.1,0,0,0,0,.07s.06,0,.11,0a2.36,2.36,0,0,0,.43-.16,3.59,3.59,0,0,0,.47-.27s0,0,.07,0,0,0,0,.06a3.5,3.5,0,0,1-.49.29,1.84,1.84,0,0,1-.48.17c-.1,0-.16,0-.19,0a.19.19,0,0,1,0-.15.45.45,0,0,1,.05-.18.9.9,0,0,0,0-.16s0,0-.1,0l-.2.09-.22.14-.16.12-.08.09a.17.17,0,0,1-.06.06.06.06,0,0,1-.06,0S41.78,68,41.79,67.93Z"/><path class="cls-6" d="M43.57,67.94a.14.14,0,0,1,0-.14.61.61,0,0,1,.07-.14l-.1.06-.07,0s0,0-.06,0,0,0,0-.06l.14-.07.08-.06.08,0,.12-.08s0,0,.07,0,0,0,0,.07a.38.38,0,0,0-.11.11.41.41,0,0,0-.07.11c0,.06-.05.11,0,.13l.09,0,.13,0,.11,0a2.84,2.84,0,0,0,.32-.14l.35-.17s0,0,0,0h0s0,.06,0,.08l-.23.13-.34.16a1.89,1.89,0,0,1-.35.1C43.68,68,43.61,68,43.57,67.94Zm.33-.76a0,0,0,0,1,0,0s0,0,0,0L44,67a.48.48,0,0,0,.09-.11s0,0,0,0,0,0,0,.06a.69.69,0,0,1-.19.24A.05.05,0,0,1,43.9,67.18Z"/><path class="cls-6" d="M44.81,67.51a.45.45,0,0,1-.14.1l-.13.08s-.07,0-.08,0a.06.06,0,0,1,0-.06l.21-.14a.54.54,0,0,0,.18-.14s0,0,0,0a0,0,0,0,1,0,0c-.06.18-.11.31-.13.38s0,.1,0,.1l.19-.18.35-.37c.14-.13.28-.26.43-.38a1.08,1.08,0,0,1,.39-.21,0,0,0,0,1,.05,0s0,0,0,0a2,2,0,0,0-.44.29,5.49,5.49,0,0,0-.43.4l-.36.38a.67.67,0,0,1-.2.17s0,0-.06,0a.27.27,0,0,1,0-.13l0-.17Z"/><path class="cls-6" d="M45.61,67.52a.45.45,0,0,1,.15-.19.44.44,0,0,1,.2-.11.38.38,0,0,1,.15,0s.08,0,.08.08a.14.14,0,0,1,0,.13l-.15.12-.17.09-.12,0a.34.34,0,0,0,.16.15.48.48,0,0,0,.27,0,2.25,2.25,0,0,0,.54-.17,3.74,3.74,0,0,0,.46-.27.06.06,0,0,1,.08,0s0,0,0,.08a1.25,1.25,0,0,1-.24.15l-.29.15-.32.11A1.92,1.92,0,0,1,46,68a.58.58,0,0,1-.19,0,.38.38,0,0,1-.15-.09.34.34,0,0,1-.09-.14A.4.4,0,0,1,45.61,67.52Zm.48-.22a.28.28,0,0,0-.25.09.61.61,0,0,0-.16.22l.1,0,.13-.07L46,67.4A.14.14,0,0,0,46.09,67.3Z"/><path class="cls-6" d="M47.4,67.81a.11.11,0,0,1,0-.11.31.31,0,0,1,.05-.12.41.41,0,0,1,.09-.1.59.59,0,0,1,.08-.08.24.24,0,0,1-.2,0l-.07,0-.08.06-.09,0h0s0,0,0,0,0,0,0,0l.12-.09.12-.09a.11.11,0,0,1,.09-.1s.07,0,.07,0a.08.08,0,0,1,0,0s0,0-.05.06.05,0,.11,0l.19,0s0,0,0,0a.07.07,0,0,1,0,.06l-.1.08-.11.1-.09.11s0,.06,0,.08.06,0,.15,0a1,1,0,0,0,.3-.09l.34-.14a1.5,1.5,0,0,0,.29-.16h0a.05.05,0,0,1,0,0s0,.06,0,.07a3.39,3.39,0,0,1-.38.2,3,3,0,0,1-.37.14,1.49,1.49,0,0,1-.25.07A.19.19,0,0,1,47.4,67.81Z"/><path class="cls-6" d="M48.39,67.82c.1.1.18.14.25.1a.31.31,0,0,0,.18-.19,1.85,1.85,0,0,0,.14-.57h0l-.22.19a1.66,1.66,0,0,1-.31.21s-.06,0-.07,0a0,0,0,0,1,0,0,.05.05,0,0,1,0,0l.38-.26L49,67c0-.06.08-.08.1-.07s0,.06,0,.14a2.81,2.81,0,0,1-.1.49,1,1,0,0,1-.15.32.31.31,0,0,1-.23.11.48.48,0,0,1-.29-.13s-.06-.07,0-.1S48.34,67.77,48.39,67.82Z"/><path class="cls-6" d="M49.17,67.69a.2.2,0,0,1,0-.17.56.56,0,0,1,.07-.16.53.53,0,0,1,.14-.12.48.48,0,0,1,.16-.08l.11,0,.09,0a.09.09,0,0,1,0,.06.17.17,0,0,1-.06.12.55.55,0,0,1-.14.12,1,1,0,0,1-.17.1l-.14,0a.31.31,0,0,0,.22.18,1.15,1.15,0,0,0,.39,0,2.17,2.17,0,0,0,.48-.06l.53-.13a4.56,4.56,0,0,0,.49-.19,2.13,2.13,0,0,0,.4-.2s0,0,.07,0,0,0,0,0a1.63,1.63,0,0,1-.36.21,4.53,4.53,0,0,1-.49.2,5.12,5.12,0,0,1-.56.15,3.69,3.69,0,0,1-.53.07,1.48,1.48,0,0,1-.44,0A.44.44,0,0,1,49.17,67.69Zm.47-.43s0,0-.07,0a.66.66,0,0,0-.2.11.37.37,0,0,0-.13.2l.08,0,.14-.08a.38.38,0,0,0,.13-.09A.1.1,0,0,0,49.64,67.26Z"/><path class="cls-6" d="M52.15,67.91s0-.06,0-.07a.46.46,0,0,0,.18-.21s0,0,.06,0,0,0,0,.06l-.09.14a.52.52,0,0,1-.11.1A.08.08,0,0,1,52.15,67.91Z"/><path class="cls-6" d="M28.31,71.47l0,0,0,0h0l-.07,0,0,0s-.05.08-.07.13a.25.25,0,0,0,0,.12c0,.06,0,.09.1.11a.72.72,0,0,0,.25,0,1.51,1.51,0,0,0,.33-.07l.35-.12a2.09,2.09,0,0,0,.3-.14.73.73,0,0,0,.19-.11s.07,0,.09,0,0,0,0,.07a1.16,1.16,0,0,1-.27.17,4.08,4.08,0,0,1-.42.18,2.78,2.78,0,0,1-.46.11.87.87,0,0,1-.36,0A.34.34,0,0,1,28,72a.16.16,0,0,1-.06-.13s0-.05,0-.08l0-.1a3.07,3.07,0,0,1-.36.2l-.43.21-.47.18a4.42,4.42,0,0,1-.48.15h0s0,0,0,0a.11.11,0,0,1,0,0s0,0,0,0a5.9,5.9,0,0,0,.95-.32,7.2,7.2,0,0,0,.92-.47l0,0,0-.07a4.59,4.59,0,0,1,.4-.48,6.63,6.63,0,0,1,.54-.52A5.52,5.52,0,0,1,29.6,70a1.57,1.57,0,0,1,.47-.27h0c.05,0,.08,0,.08.05a.46.46,0,0,1-.12.21,2.8,2.8,0,0,1-.3.3l-.26.23-.38.32-.43.34Zm1.39-1.24.18-.16.12-.14,0-.05,0,0,0,0a2.38,2.38,0,0,0-.51.32c-.18.13-.34.27-.5.41s-.3.29-.43.43-.23.25-.32.35l.11-.08.32-.24.39-.31.37-.3Z"/><path class="cls-6" d="M29.35,72a.14.14,0,0,1,0-.14.61.61,0,0,1,.07-.14l-.1.06a.15.15,0,0,0-.07,0s-.05,0-.06,0,0-.05,0-.06l.13-.07.09-.06.08,0,.12-.08s0,0,.07,0a0,0,0,0,1,0,.07l-.12.11-.07.11c0,.07,0,.11,0,.13s0,0,.08,0a.32.32,0,0,0,.13,0l.12,0,.32-.13.34-.18,0,0,0,0a.07.07,0,0,1,0,.08l-.24.13a1.75,1.75,0,0,1-.34.15,1.62,1.62,0,0,1-.34.1C29.45,72,29.38,72,29.35,72Zm.33-.75s0,0,0,0,0,0,0,0l.09-.09.08-.12s0,0,.06,0,0,0,0,.06a.63.63,0,0,1-.2.24S29.7,71.24,29.68,71.21Z"/><path class="cls-6" d="M30.59,71.54l-.14.1-.14.08s-.06,0-.07,0a.06.06,0,0,1,0-.06l.21-.13a.7.7,0,0,0,.18-.14s0,0,0,0a0,0,0,0,1,0,0c-.07.18-.11.31-.13.38s0,.1,0,.1l.18-.18.36-.37.43-.37a1.08,1.08,0,0,1,.4-.22s0,0,0,0,0,0,0,0a1.91,1.91,0,0,0-.45.28l-.44.4-.35.38a.83.83,0,0,1-.2.17s-.06,0-.07,0a.28.28,0,0,1,0-.13.55.55,0,0,1,0-.17A.44.44,0,0,1,30.59,71.54Z"/><path class="cls-6" d="M31.32,71.82a.26.26,0,0,1,0-.17.35.35,0,0,1,.08-.16.44.44,0,0,1,.14-.13.56.56,0,0,1,.16-.07l.11,0,.08,0a.09.09,0,0,1,0,.06.13.13,0,0,1,0,.12l-.15.12a1,1,0,0,1-.17.1l-.13.05a.28.28,0,0,0,.21.18A1.15,1.15,0,0,0,32,72a2.17,2.17,0,0,0,.48-.06A4.56,4.56,0,0,0,33,71.8a3.68,3.68,0,0,0,.5-.18,2.36,2.36,0,0,0,.39-.2s.06,0,.08,0,0,0,0,.06a2.05,2.05,0,0,1-.35.2c-.16.07-.32.14-.5.2a5.09,5.09,0,0,1-.56.14,3.69,3.69,0,0,1-.53.07,1.2,1.2,0,0,1-.44-.06A.43.43,0,0,1,31.32,71.82Zm.48-.43s0,0-.08,0a.58.58,0,0,0-.2.11.39.39,0,0,0-.13.2l.08,0,.14-.08.13-.09S31.8,71.41,31.8,71.39Z"/><path class="cls-6" d="M34.09,73.2c-.06,0-.07-.14,0-.26a.59.59,0,0,1,.14-.22l.24-.21.31-.21a3.79,3.79,0,0,1,.34-.2l.25-.12,0-.06.1-.25v0l-.07.06a.6.6,0,0,1-.21.13.18.18,0,0,1-.19,0,.22.22,0,0,1-.07-.21.47.47,0,0,1,.13-.24s.07,0,.1,0,0,0,0,.09a.28.28,0,0,0-.11.21.12.12,0,0,0,.05.11.32.32,0,0,0,.22-.07,1,1,0,0,0,.24-.22h0s0,0,0,0a.06.06,0,0,1,.06,0v0a0,0,0,0,0,0,0h0a.45.45,0,0,1,0,.16l-.1.26v.06l.17-.08.45-.22.38-.19s0,0,0,0,0,.06,0,.07l-.45.24-.55.26-.13,0,0,.1-.18.3a1.21,1.21,0,0,1-.21.31,1.3,1.3,0,0,1-.31.31.68.68,0,0,1-.33.15.28.28,0,0,1-.15,0A.16.16,0,0,1,34.09,73.2Zm.25-.06a1,1,0,0,0,.3-.14,1.38,1.38,0,0,0,.29-.3,2.43,2.43,0,0,0,.14-.2c0-.06.07-.12.12-.2l.08-.18-.1.06a5.58,5.58,0,0,0-.65.39.92.92,0,0,0-.36.39.49.49,0,0,0,0,.12l0,0S34.24,73.17,34.34,73.14Z"/><path class="cls-6" d="M36.41,71.82a.16.16,0,0,1-.07-.17.31.31,0,0,1,.08-.19,1.29,1.29,0,0,1,.17-.16,1,1,0,0,1,.18-.11h0s0,0,0,0a0,0,0,0,1,0,.06l-.15.12-.17.14a.2.2,0,0,0-.06.19c0,.05.06.07.13.07a.55.55,0,0,0,.24-.07.24.24,0,0,1-.07-.18.57.57,0,0,1,.07-.22.65.65,0,0,1,.15-.18.23.23,0,0,1,.18-.06h0l0,0a.19.19,0,0,1,0,.15.64.64,0,0,1-.06.18l-.11.16a.24.24,0,0,1-.08.09.51.51,0,0,0,.2,0l.26-.09.26-.11.18-.11s.06,0,.06,0,0,0,0,.06a1,1,0,0,1-.2.12l-.28.12-.3.08a.72.72,0,0,1-.25,0,.61.61,0,0,1-.32.12A.27.27,0,0,1,36.41,71.82Zm.74-.67a.17.17,0,0,0-.12.06.76.76,0,0,0-.11.14.58.58,0,0,0-.06.17.1.1,0,0,0,0,.12l.11-.13a.86.86,0,0,0,.1-.16.38.38,0,0,0,0-.13S37.16,71.16,37.15,71.15Z"/><path class="cls-6" d="M38.55,71.85a.18.18,0,0,1-.13-.09.22.22,0,0,1,0-.16,1.18,1.18,0,0,1-.34.17.2.2,0,0,1-.19,0,.24.24,0,0,1,0-.28l-.15.11s-.08,0-.09,0,0,0,0-.06l.16-.09a.69.69,0,0,0,.12-.1l0,0s.07,0,.1,0,0,0,0,.09l0,0c-.08.14-.1.24-.05.29s.11,0,.21,0a1.27,1.27,0,0,0,.29-.18c.05,0,.08-.07.09-.07a.05.05,0,0,1,0,0s0,0,0,0a.16.16,0,0,0,0,.06.25.25,0,0,0-.07.18s0,.06.09.07a.47.47,0,0,0,.16,0l.16,0,.14-.07.14-.07.14-.09.19-.11s.06,0,.06,0a0,0,0,0,1,0,0,2.48,2.48,0,0,1-.26.19,2,2,0,0,1-.29.15,1.43,1.43,0,0,1-.27.09A.51.51,0,0,1,38.55,71.85Z"/><path class="cls-6" d="M39.9,71.83a.2.2,0,0,1,0-.21,1.24,1.24,0,0,1,.17-.23h0a.64.64,0,0,1-.06-.11.76.76,0,0,0,0-.11l-.31.21-.18.12h0s0,0,0,0a.05.05,0,0,1,0,0l.08-.05.1-.07.14-.1L40,71v0a.45.45,0,0,1,.11-.23.81.81,0,0,1,.19-.18.85.85,0,0,1,.22-.13.54.54,0,0,1,.18,0s0,0,0,.08a.4.4,0,0,1-.11.15l-.17.14-.2.16-.17.13a.5.5,0,0,0,.12.28s0,.06,0,.06l-.14.15a.25.25,0,0,0-.07.17s0,.05.09.05l.19,0,.26-.09.28-.12.25-.12.2-.11s0,0,0,0l0,0a0,0,0,0,1,0,0l0,0-.3.16-.43.2a1.71,1.71,0,0,1-.41.12C40,71.9,39.94,71.88,39.9,71.83Zm.71-1.31a.68.68,0,0,0-.3.16.58.58,0,0,0-.22.26l.13-.12.13-.1.12-.09Z"/><path class="cls-6" d="M43.1,71.19l0,0,0,0h0l-.07,0,0,0a.54.54,0,0,0-.07.13.27.27,0,0,0,0,.12.12.12,0,0,0,.11.1.52.52,0,0,0,.25,0,2.46,2.46,0,0,0,.33-.07l.35-.12.3-.14a.73.73,0,0,0,.19-.11s.07,0,.09,0,0,0,0,.07a1.16,1.16,0,0,1-.27.17,2.41,2.41,0,0,1-.43.17,2.5,2.5,0,0,1-.45.12.84.84,0,0,1-.36,0,.21.21,0,0,1-.12,0,.18.18,0,0,1-.06-.13s0,0,0-.09l0-.09a8.66,8.66,0,0,1-.79.4l-.47.19a4.42,4.42,0,0,1-.48.15h0s0,0,0,0a.06.06,0,0,1,0,0s0,0,0,0a5.9,5.9,0,0,0,1-.32,6.13,6.13,0,0,0,.92-.48h0l0-.07a4.59,4.59,0,0,1,.4-.48,6.75,6.75,0,0,1,.54-.53c.18-.16.37-.31.56-.45a1.75,1.75,0,0,1,.47-.26h0c.05,0,.08,0,.08.05a.46.46,0,0,1-.12.21,4.18,4.18,0,0,1-.3.3l-.26.23c-.12.1-.25.2-.38.32l-.43.33C43.35,71,43.22,71.11,43.1,71.19ZM44.5,70l.17-.16.13-.14,0-.05,0,0h0a3.57,3.57,0,0,0-.51.32c-.18.14-.34.28-.5.42s-.3.29-.43.42l-.32.35.1-.07.33-.24.39-.32.36-.29Z"/><path class="cls-6" d="M44.14,71.68a.14.14,0,0,1,0-.14.61.61,0,0,1,.07-.14l-.1.06a.13.13,0,0,0-.08,0s0,0-.06,0,0,0,0-.06l.13-.07.09-.06.07-.05.13-.08s.05,0,.07,0a.06.06,0,0,1,0,.07.68.68,0,0,0-.12.11l-.07.11c0,.07-.05.11,0,.13a.13.13,0,0,0,.08,0,.32.32,0,0,0,.13,0l.12,0,.32-.13.34-.18,0,0,0,0s0,0,0,.07l-.24.14a2.07,2.07,0,0,1-.34.15,1.81,1.81,0,0,1-.34.1C44.25,71.74,44.18,71.73,44.14,71.68Zm.34-.75a.06.06,0,0,1,0,0s0,0,0,0l.09-.1.09-.11s0,0,0,0,.05,0,0,.06a.61.61,0,0,1-.2.24A0,0,0,0,1,44.48,70.93Z"/><path class="cls-6" d="M44.51,73.22a2.1,2.1,0,0,1,.34-.56q.32-.47.9-1.23a.17.17,0,0,1,0-.1.36.36,0,0,1,0-.09.12.12,0,0,1,.05,0s0,0,.06,0l.23-.28c.09-.11.16-.2.23-.27l-.31.2-.36.23-.32.19-.19.12s0,0-.09,0,0-.06,0-.07l.69-.42.72-.47.18-.21.23-.25a2.55,2.55,0,0,1,.24-.23.46.46,0,0,1,.22-.1h.05q.09.06,0,.18a2,2,0,0,1-.25.26,2.62,2.62,0,0,1-.34.24l-.24.16c-.1.11-.21.25-.32.39l-.29.38,0,.06-.05.14a.59.59,0,0,0,.27,0,1.81,1.81,0,0,0,.31,0,1.92,1.92,0,0,0,.31-.11,2,2,0,0,0,.29-.16s0,0,.06,0,0,0,0,.07a2.25,2.25,0,0,1-.31.16,2.3,2.3,0,0,1-.34.12,1.87,1.87,0,0,1-.32,0,.61.61,0,0,1-.28,0,3,3,0,0,1-.22.49l-.29.5a4,4,0,0,1-.25.37c-.08.12-.16.21-.23.3l-.12.09-.11.06a.11.11,0,0,1-.1,0,.19.19,0,0,1-.05-.09Zm.3-.09a2.67,2.67,0,0,0,.23-.29,4,4,0,0,0,.26-.37c.08-.14.17-.28.24-.42s.15-.27.21-.4l.06-.16-.44.59c-.15.2-.28.37-.39.53l-.27.41-.1.18v0l0,0,.06,0A.57.57,0,0,0,44.81,73.13Zm2.53-3.31,0-.07a0,0,0,0,1,0,0,1.05,1.05,0,0,0-.21.13,2.52,2.52,0,0,0-.44.44l.17-.14c.06,0,.13-.09.18-.14l.15-.12Z"/><path class="cls-6" d="M46.69,71.53a.21.21,0,0,1,0-.17.35.35,0,0,1,.08-.16.44.44,0,0,1,.14-.13.48.48,0,0,1,.16-.08h.1a.15.15,0,0,1,.09,0,.09.09,0,0,1,0,.06.16.16,0,0,1-.05.12l-.15.12a.56.56,0,0,1-.17.09l-.14.06a.37.37,0,0,0,.22.18,1.48,1.48,0,0,0,.39,0,3,3,0,0,0,.48-.06l.53-.13a3.12,3.12,0,0,0,.49-.18,2.13,2.13,0,0,0,.4-.2s.06,0,.08,0,0,0,0,.05a1.42,1.42,0,0,1-.36.21,3.12,3.12,0,0,1-.49.19,5.12,5.12,0,0,1-.56.15,3.69,3.69,0,0,1-.53.07,1.42,1.42,0,0,1-.44-.06A.4.4,0,0,1,46.69,71.53Zm.48-.44s0,0-.08,0a.58.58,0,0,0-.2.11.34.34,0,0,0-.13.2l.08,0,.14-.08.13-.09A.12.12,0,0,0,47.17,71.09Z"/><path class="cls-6" d="M49.57,71.69c0-.11.06-.16.16-.15l0,0a0,0,0,0,1,0,0l0,0,0,0s0,.06-.06.06S49.56,71.72,49.57,71.69Z"/><text class="cls-7" transform="translate(20.45 41.81)">SOLAR<tspan x="-3.35" y="12">RETURN</tspan></text><path class="cls-8" d="M36.79,11.28l0,.05h0l0,.06h0l0,0,.05,0v.05a.2.2,0,0,1,0-.05l.06.05,0,0h0l0-.07h0a.29.29,0,0,1,0-.06s0,0,0,0l0,0a.1.1,0,0,1,0,0v0s0,0,0,0l-.06-.05h0Z"/><path class="cls-8" d="M43.16,18.69l.09-.07a.39.39,0,0,0,.08-.14s0-.06,0-.16v-.14a.34.34,0,0,1,.09-.21.2.2,0,0,0,.06-.09v-.13a.86.86,0,0,0,0-.18l0-.08v0s0,0,0-.08a.42.42,0,0,1,0-.22.39.39,0,0,0,0-.16.57.57,0,0,0,0-.14v-.05s0-.1,0-.15a.21.21,0,0,0,0-.06.08.08,0,0,1,0-.08.29.29,0,0,0,0-.16.31.31,0,0,0,0-.09.66.66,0,0,0-.18-.29l-.1-.09a.28.28,0,0,1-.1-.12s0,0,0-.06a.13.13,0,0,0,0-.06,2.44,2.44,0,0,0-.26-.33l0,0s0,0,0,0v0a.3.3,0,0,0,0-.15.74.74,0,0,0,0-.21.77.77,0,0,0,0-.1v0l0-.12a.38.38,0,0,0,0-.08v0a.19.19,0,0,0,0-.07l0-.11v-.16l0-.08s0,0,0-.08a.39.39,0,0,1,0-.18l0-.08s0-.06,0-.06a.3.3,0,0,0,.09-.1.44.44,0,0,0,.07-.17.52.52,0,0,0,0-.14s0,0,0-.07a.12.12,0,0,1,0-.1.88.88,0,0,0,0-.15.53.53,0,0,0,0-.22V12.7a.21.21,0,0,0,0-.06v0a.26.26,0,0,0,0-.07l0-.06,0-.14a.62.62,0,0,0,0-.14,1.55,1.55,0,0,0-.23-.39,1.48,1.48,0,0,1-.08-.13.84.84,0,0,0-.13-.17.67.67,0,0,0-.19-.14c-.05,0-.05,0-.09,0h-.22l-.16,0-.06,0-.05,0-.09,0-.16.06-.3.13s-.09,0-.09.05h0l-.33.21a3.17,3.17,0,0,0-.34.3.3.3,0,0,1-.09.07l-.17.12A14.06,14.06,0,0,0,38.85,14a11.74,11.74,0,0,0-.78,1l-.27.42,0,.05,0,0v0s0-.1-.07-.2v0h0a0,0,0,0,0,0,0h0l0-.06,0-.16h0v-.09h0a0,0,0,0,0,0,0s0,0,0,0l.09,0H38l0,0s0,0,0,0h0v0s0,0,0,0h0l-.11,0-.12,0s-.07,0-.05.05h0v0l0,.13c0,.06,0,.07,0,.14v0h0l0,0-.16-.1-.06,0a0,0,0,0,0,0-.05,0,0,0,0,0-.05,0h0l0,0h0l-.05,0h0l0,0H37A.07.07,0,0,0,37,15,.06.06,0,0,0,37,15s.05,0,.06,0h0l.08,0,.05,0h0s0,0,0,0h0a0,0,0,0,0,.08,0h0l0,0,.19.12h0a.07.07,0,0,0,0,.05h0v.07l0,.06,0,.05v.05s0,0,0,0l-.08.14v0a.64.64,0,0,1-.06.11l-.11.22v.11a.22.22,0,0,1,0,.06h0l-.07,0-.06,0h0v0h0l0-.06,0,0h0l-.08.07h0s0,0,0,0v0s0,0,0,0h0l-.06-.06s0,0,0,0l.06.06s0,0,0,0h0l0,0,0,.05h0l0,0,.05,0h0v0s0,0,0,0h0l.06.05,0,0,0,0s-.05-.05,0-.05h.06l.06,0h0v0a1.88,1.88,0,0,0-.13.49.15.15,0,0,1,0,.08v.28a1,1,0,0,1-.16-.29L37,16.7l0-.05s0-.08,0-.16l0,0v0a2.39,2.39,0,0,0-.17-.44l-.16-.18a1.51,1.51,0,0,0-.2-.17.5.5,0,0,0-.18-.09h-.08l-.18,0-.06,0h0l0-.07,0-.08h.07a.08.08,0,0,0,0,0h0l.19.08.16.07,0,0h0a.06.06,0,0,0,0,.06.06.06,0,0,0,.08-.05h0l.11,0h0a0,0,0,0,0,.07,0,.07.07,0,0,0,0-.06.05.05,0,0,0-.06,0s0,0,0,0a0,0,0,0,0,0,0v0h-.08s0,0,0,0h0l0,0a.06.06,0,0,0-.08,0h0l0,0-.16-.07h0L36,15.37l0,0s0,0,0-.06a.08.08,0,0,0-.08-.06.07.07,0,0,0-.08,0h0a.65.65,0,0,0-.21-.07s0,0,0,0,0,0,0,0h0l0-.07h0s0,0,0,0l0,0h0s0,0,0,0l0-.08,0,0h0v0s0,0,0,0,0-.06,0-.07h0l.11-.11.05,0h0a0,0,0,0,0,0,0s0-.07,0-.08h0a.06.06,0,0,0,0,.07.47.47,0,0,1-.09.09l-.08.08h-.1a0,0,0,0,0,0,0,0,0,0,0,0,0,0,.08.08,0,0,0,0,.08l0,0h.06l0,0a.76.76,0,0,0,.07.13v0a0,0,0,0,0,0,0l0,0s0,0,0,0v0h0v0s0,0,0,.06h0v.1c0,.06,0,.13,0,.16h-.05a.07.07,0,0,0,0,.05h0l-.05,0L35,15.46l0,0h0s0,0,0,0,0,0-.05,0,0,.05,0,.06l0,0a.05.05,0,0,0,0,0H35l.11,0,0,0,.09,0,.08,0h0l0,0-.15.25v0h0s-.05,0-.05,0a0,0,0,0,0,0,0,.05.05,0,0,0,.05-.07s0,0,0,0l.13-.2v0l0,0v0h0a.08.08,0,0,0,.08,0h0l0,0h.13a.23.23,0,0,0-.15.07.93.93,0,0,0-.14.14l-.09.11a.21.21,0,0,0-.06.08.12.12,0,0,0,0,.08.41.41,0,0,1,0,.08.41.41,0,0,0,0,.09.33.33,0,0,0,0,.17.64.64,0,0,0,.1.27l.06.06,0,0,.09.06c.05,0,.06.07,0,.17a.25.25,0,0,0,0,.08v0s0,0,.09,0,0,0,.05,0h0v0a.06.06,0,0,0,0,.05s0,0,0,0,0,0,0,.06,0,0,.06.07a.33.33,0,0,0,0,.06s.08,0,.15,0l.11,0s0,0,0,0v0l0,.09a1.16,1.16,0,0,1,0,.16v0a.13.13,0,0,0,0,.06v0s0,0,0,0l0,0s0,0,0,0a.05.05,0,0,0,0,0s0,0,0,0h0v.08h0a.13.13,0,0,0-.07.05.06.06,0,0,0,0,0s0,0,0,0v0h0l-.08.05h0l0,0h0a.05.05,0,0,0,0,0h0l-.12.07-.27.17-.07,0s0,0,0,.05h0l0,.07a.89.89,0,0,1-.05.1l0,0V19l0,0v0s-.06.15-.08.21v0s0,0,0,0a0,0,0,0,0-.06,0,.05.05,0,0,0,0,.05s0,0,0,0v0c0,.06,0,.14,0,.21a.77.77,0,0,1,0,.1V20h0s0,0,0,0a0,0,0,0,0,0,0v0l-.12.14h0s-.05,0,0,.06l0,0a0,0,0,0,0,0,0,.06.06,0,0,0,0,0s0,0,0-.05l.08-.09s0,0,0,0h0v.16a.34.34,0,0,0,0,.09.18.18,0,0,0,0,.09.51.51,0,0,0,0,.14c0,.08,0,.09,0,.12s0,0,0,.1l0,.05v.19l0,.06v.08l0,.06v.05l0,.06v.13l0,0v.09l0,.06v.17l0,.1,0,.16s0,.09,0,.1v.11a.22.22,0,0,1,0,.06.28.28,0,0,1,0,.08.9.9,0,0,0,0,.16V23a1.62,1.62,0,0,1,0,.18s0,.11,0,.15v0a.46.46,0,0,0,0,.1v.05a.45.45,0,0,1,0,.11.17.17,0,0,1,0,.07v0s0,.06,0,.09V24s0,0,0,.07v0s0,.08,0,.12a.22.22,0,0,1,0,.14c0,.06,0,.08,0,.14v.14s0,.09,0,.11,0,0,0,0h0a1.36,1.36,0,0,0,.17-.17.39.39,0,0,0,0-.09s0,0,0,0l0-.07,0,0v0l0,0a.21.21,0,0,1,0-.06l0-.06,0-.05v-.06l0-.05a.45.45,0,0,0,0-.11l0-.09,0-.07s0,0,.15-.16l.11-.11v0a.35.35,0,0,0,0-.17.22.22,0,0,0,0-.08c0-.05-.07-.09-.16-.16L36.23,23,36.17,23s0,0,0-.08v-.11s0-.08,0-.1v-.09h0s0,0,0,0a.08.08,0,0,0,0,.07s0,0,0,0h.1l0,0v0a.1.1,0,0,1,0,0h0a1.41,1.41,0,0,1,.18-.14.76.76,0,0,1,.14-.11l.27-.18h0s.05,0,.05,0a0,0,0,0,0,0,0s0,0,0,0,.08-.13.13-.21l.1-.21.07-.12h0s0,0,.06,0a.13.13,0,0,0,0,0,.09.09,0,0,0-.07-.1,0,0,0,0,0-.05,0h0l-.07-.13h0v0l0,0h0l.4.16h0l.22.08,0,0,.11,0,.1,0h0l.07,0,.08,0h0a.09.09,0,0,0-.06.06v0a.05.05,0,0,0,0,0,.06.06,0,0,0,.08,0,.07.07,0,0,0,0-.11v0h.29a1.1,1.1,0,0,0,.27-.15,1,1,0,0,0,.2-.16l.22-.22,0,0,.05,0h0l.06,0,.08,0,0,0s0,0,0,0a.11.11,0,0,0,0,.08l0,0h.06s0,0,0,0v.06l0,.09s0,.1,0,.12,0,.13,0,.16l0,.06L40,22v.15l0,0v.12l0,.05s0,0,0,0a0,0,0,0,0,0,.06h0s0,0,.12.17l.17.25h0s0,0,0,0l-.06.09c-.09.1-.13.16-.17.21l0,0h0a.11.11,0,0,0-.06,0l-.05-.06c-.09-.12-.13-.17-.33-.46l-.17-.24s0,0,0,0a0,0,0,0,0,0,0,0,0,0,0,0,0-.05h0l0-.08s0-.07,0-.08v-.11s0-.07,0-.09v-.16h0a0,0,0,0,0,0-.08s-.06,0-.07,0,0,0,0,0a0,0,0,0,0,0,0s0,0,0,0V22a.7.7,0,0,0,0,.16v0c0,.05,0,.13,0,.19v0h0a0,0,0,0,0,0,0l0,0s0,0,0,0l.16.24.05.07c.08.11.16.22.3.39l0,0h0s0,0,0,.05,0,0,0,.05a.1.1,0,0,0,.09,0s0,0,0,0a.06.06,0,0,0,0-.07h0v0l0,0,.19-.23s0,0,0,0h0a0,0,0,0,0,0,0s0,0,0,0h0s0,0,0,0l0-.06,0-.05-.17-.25,0,0h0a0,0,0,0,0,0-.05l0,0s0,0,0-.06v-.05l0-.06,0-.06,0-.07L40,22v0l0-.05v-.1l0-.08a1.31,1.31,0,0,1-.05-.15c0-.06,0-.07,0-.12v-.05h0a.07.07,0,0,0,0-.06v0l0,0h-.07s0,0-.13-.05l-.08-.05-.06,0-.06,0,0,0a.61.61,0,0,0,.16-.25.87.87,0,0,0,0-.27c0-.07,0-.08,0-.09a.15.15,0,0,1,0-.07c0-.05,0-.05,0-.15s0-.07,0-.14a.24.24,0,0,0,0-.07h0s0,0,0,0l0,0s0,0,0,0v0a0,0,0,0,0,0,0,0,0,0,0,0,0,0,0,0,0,0,0,0,0h0l.23-.05.08,0h0a.06.06,0,0,0,0-.06h0s0,0,0,0l.07-.14v0h0s0,0,0,0h0s0,0,0,0a.06.06,0,0,0,0,0v0a.12.12,0,0,0-.07,0h0l0-.05,0,0,0,0,0-.05a0,0,0,0,0,0,0h0l.12,0,0,0,.15,0h0l.18.05.19,0,.08,0h.11l.12.12c.13.12.13.13.13.14v0s0,0,0,0h0l0,0,0,.06a.5.5,0,0,1-.1.14H41.1a.08.08,0,0,0-.06.08.09.09,0,0,0,.07.1,0,0,0,0,0,0,0s.06,0,.07-.05h.26l.12,0h.06l.1,0,.1,0s0,.05.08.05a.09.09,0,0,0,.09-.07v0a.09.09,0,0,0-.05-.07.1.1,0,0,0-.1,0h0l-.06-.06c-.1-.1-.22-.2-.36-.32l0,0v0a.05.05,0,0,0-.06-.06s0,0,0,0h0l-.21-.2h.06l.11,0h.08l.1,0,.14,0,.24.06h.3a2.06,2.06,0,0,0,.3-.17.47.47,0,0,0,.09-.1,1.2,1.2,0,0,1,.31-.27.6.6,0,0,0,.14-.12A.15.15,0,0,0,43,19a.4.4,0,0,1,0-.15.85.85,0,0,1,.09-.19Zm-7.41-3.1h0l-.21,0-.05,0a.14.14,0,0,0,0-.06h0v-.2c0-.07,0-.07,0-.07h.07l0,0,.05,0,0,0c.06,0,.08,0,.08,0h0a.16.16,0,0,0,0,.09l0,0h0a.21.21,0,0,1,0,.06s0,.07,0,.09ZM41.34,20h0a.05.05,0,0,0,0,0h0l.15.13a2.72,2.72,0,0,0,.26.24s0,0,0,.05h0l-.09,0h0l-.12,0h-.1l-.19,0s0,0,0,0,0,0,0,0v0h0l0,0a1.16,1.16,0,0,0,.11-.16Zm1.35-3.07s0,0-.07.16l0,.09a.16.16,0,0,0,0,.18l0,.06s0,0,0,0h-.09l-.18,0h-.11l-.16,0h-.22l-.08,0h0a.43.43,0,0,1-.26-.18.16.16,0,0,1,0-.14.29.29,0,0,1,.1-.09l.13,0h0a1.4,1.4,0,0,1,.29,0h.22l.17,0h0l.07,0ZM41.15,16l-.1-.08c-.07,0-.09-.06-.1-.08a.17.17,0,0,1-.05-.13s0,0,0,0a.07.07,0,0,1,.05,0l.11-.05.12,0h.31l.32,0H42a.27.27,0,0,0,0,.08.34.34,0,0,0,0,.08v.06a.93.93,0,0,0,.07.15l.07.1v0s0,0-.1,0h-.59a.6.6,0,0,1-.19,0C41.21,16.06,41.19,16.06,41.15,16Zm.34,1.41s0,0,0,0a.53.53,0,0,1,0,.12.13.13,0,0,1-.09.1,1.1,1.1,0,0,1-.37,0s-.06,0-.06,0h-.06l-.17,0-.06,0h-.09l-.06,0-.07,0,0,0s0,0,0,0l.1,0,.07,0,.1,0,.07,0a.93.93,0,0,1,.38-.06l.1,0A.48.48,0,0,1,41.49,17.44Zm0-2.14.09.1-.11,0-.18,0H41l-.27.05a.55.55,0,0,1-.26,0,.18.18,0,0,1-.14-.17.12.12,0,0,1,0-.12.4.4,0,0,1,.2-.12h.08l.12,0H41l.15,0h.08S41.34,15.19,41.48,15.3ZM41.42,15h.15v0l0,0a2.18,2.18,0,0,0,.21.26s0,0,0,0h0s0,0-.18-.14S41.41,15.05,41.42,15Zm-1,.79h.16a.27.27,0,0,1,.23.12.16.16,0,0,1,0,.15s0,0-.11,0l-.4.13-.45.16,0,0-.08,0a.31.31,0,0,1-.12.05.57.57,0,0,0-.18.09.11.11,0,0,1-.1,0l-.07,0s0,0,.09-.12a2.77,2.77,0,0,1,.53-.46,1.71,1.71,0,0,1,.26-.14l0,0,.1,0Zm-.86.86,0,0a.6.6,0,0,1,.14-.07l.18-.09,0,0h0l.16-.06a2.76,2.76,0,0,1,.36-.11h0l.11,0h.23a.33.33,0,0,1,.19.06s.05,0,.05,0a.18.18,0,0,1,0,.11.11.11,0,0,1-.09.12,1.77,1.77,0,0,1-.3.06H39.65a.41.41,0,0,1-.15-.05S39.49,16.71,39.53,16.69Zm2.57-1.37a.65.65,0,0,1-.22-.14.87.87,0,0,1-.13-.15h.07c.07,0,.07,0,.08,0l.08.13.12.11h0ZM42,14.63h-.27s-.05,0-.11,0l-.09-.08a.26.26,0,0,1-.08-.11.3.3,0,0,0-.08-.12l-.07-.09v0l0,0,.15,0h0l.12,0,.13,0h.18l0,.07a.28.28,0,0,1-.06.09.18.18,0,0,0-.05.07.11.11,0,0,0,0,.06.21.21,0,0,0,0,.11.23.23,0,0,0,.08.09C42,14.6,42,14.63,42,14.63Zm0-1.19a.21.21,0,0,0,0,.07l0,.1v.18s0,.07,0,.09,0,0,0,0l-.09,0H41.7l-.24,0c-.1,0-.12,0-.17,0s0,0,0-.06a.13.13,0,0,0,0-.08c0-.08-.05-.11,0-.13l0,0,.09,0,.16,0h.1l.16,0H42S42,13.42,42,13.44Zm-.69,1s0,0,0,.07a.21.21,0,0,1,0,.16.14.14,0,0,1-.08.09l-.13,0H41l-.22,0h-.08l-.24,0h-.06l-.07,0H40.3l-.13,0-.11,0-.14,0h0a1.46,1.46,0,0,1,.15-.2l.22-.22.23-.17.08-.05h0l.1-.06h0a1.14,1.14,0,0,1,.22-.07h0c.08,0,.09,0,.12,0A.24.24,0,0,1,41.27,14.39ZM39.9,15.5s.06,0,.11.09a.7.7,0,0,1,.08.12.06.06,0,0,1,0,0,1.24,1.24,0,0,1-.23.15l-.07,0-.06,0-.37.25a.69.69,0,0,0-.12.14c0,.08-.07.09-.08.11a1.51,1.51,0,0,1-.35.24l0,0-.2.1s0,0,0,0,0-.05,0-.14a1.25,1.25,0,0,1,.07-.26.69.69,0,0,1,0-.08,1.32,1.32,0,0,1,.26-.36,1.88,1.88,0,0,1,.26-.22l.1-.06h0l.06,0,.07,0,.17-.09.23-.07ZM38.7,17l.21-.08.28-.08h0l.11,0,.1,0,.19,0h.65a1.77,1.77,0,0,1,.32,0H41a.48.48,0,0,1,.14.05.17.17,0,0,1,.09.07,0,0,0,0,1,0,.05.37.37,0,0,1-.15.17.28.28,0,0,1-.11.07l-.14,0h-.19l-.1,0h-.11l-.08,0-.08,0-.16,0H40l-.1,0h-.21a1.49,1.49,0,0,1-.36,0h-.51c-.28,0-.43-.05-.46-.09s0,0,0-.05a.58.58,0,0,1,.06-.15A.64.64,0,0,1,38.7,17Zm-.31.65.09,0h0l.1,0h0l.13,0h.07l.07,0,.13,0h.2l.15,0h.11a.37.37,0,0,1,.16,0l.22.1,0,0h0l.06,0,.09.05.08,0,.35.17.15.08h0l.05,0,0,0,.07,0,.07,0h0l0,0,.19.07,0,0,.19.1h0l.14.09a.44.44,0,0,1,.11.12.22.22,0,0,1,0,.2s0,.07,0,.08v0a.79.79,0,0,1-.08.13.14.14,0,0,1-.09,0,1.53,1.53,0,0,1-.32-.21l-.34-.24a1.74,1.74,0,0,0-.28-.19.93.93,0,0,0-.22-.13l-.05,0,0,0,0,0h-.13l0,0h0l0,0H39.9L39.52,18l-.33-.1-.06,0-.06,0-.07,0,0,0-.08,0h-.07a1.08,1.08,0,0,1-.19-.08l-.1,0-.06,0h0l0,0h0Zm3.25.79-.1,0a.19.19,0,0,1-.11,0l-.21-.11-.07,0-.06,0L41,18.15l-.08,0,0,0-.05,0,0,0,0,0,0,0,0,0,0,0,0,0,0,0-.05,0-.11-.05-.06,0-.3-.15-.07,0h0a.38.38,0,0,1,.15,0,.33.33,0,0,1,.14,0h0l.18,0h.19l.06,0,.29.07.26.07h0l.23.08.13.09s0,0,0,0l.06.06.09.11a.09.09,0,0,1,0,.11A.31.31,0,0,1,41.64,18.39Zm.94-1.71s0,0,0,0h-.69a1,1,0,0,1-.37-.06s0,0-.05-.07a.11.11,0,0,0,0-.05l0-.1a1.32,1.32,0,0,1,0-.13s0,0,.07-.05a1,1,0,0,1,.26-.06h.79v.11a1,1,0,0,0,0,.24A.5.5,0,0,0,42.58,16.68Zm-.16-.78,0,0a.05.05,0,0,1,0,0,0,0,0,0,1,0,0,0,0,0,0,1-.06,0l-.12-.15a1,1,0,0,1-.12-.19.22.22,0,0,1,0-.1s0,0,0,0h0s0,0,0,0,0,0,0,.06l0,.06v0A1.18,1.18,0,0,0,42.42,15.9Zm-.14-3.17a2.3,2.3,0,0,1,0,.23,1,1,0,0,1,0,.23s0,.05,0,.05h-.34l-.13,0h0l-.1,0h-.06l-.11,0h-.16l0,0a.41.41,0,0,1-.11-.12s0-.06,0-.08a.2.2,0,0,1,.09-.1l.07,0h0a2.32,2.32,0,0,1,.35-.14l.18,0h.09l.09,0h.3Zm-1.45-.16a2.07,2.07,0,0,1,.37-.27l.14-.07h0a1.33,1.33,0,0,1,.3-.07h.22l.08,0c.06,0,.07,0,.08,0a2,2,0,0,1,.17.26s0,.05,0,.06h-.07l-.16,0-.06,0H41l-.06,0h0a.24.24,0,0,1-.14-.12.08.08,0,0,1,0-.06S40.79,12.6,40.83,12.57Zm0,.73c.06,0,.08,0,.1,0a.13.13,0,0,1,0,.07s0,.06-.09.07a.49.49,0,0,1-.21,0h-.07s0-.08,0-.12a.14.14,0,0,1,.11-.06A.48.48,0,0,1,40.79,13.3ZM40.3,13l.17-.12h0l.08.11a.14.14,0,0,1,0,.07s0,.07-.1.14a.82.82,0,0,1-.24.13h-.13L40,13.25A1.59,1.59,0,0,1,40.3,13Zm-1.81,2s0-.07.08-.08h0a.11.11,0,0,1,.08.09.42.42,0,0,1,0,.12s-.08,0-.14,0l0,0A.89.89,0,0,1,38.49,15Zm-.6,1a.16.16,0,0,1,0-.09.16.16,0,0,1,.06-.08s0,0,0,0a.34.34,0,0,1,0,.11A.36.36,0,0,1,38,16l-.07.07h0A.17.17,0,0,1,37.89,16ZM35.1,19.72h0l0,0,0,0a.18.18,0,0,0-.05.07s0,0,0,.06v0S35,20,35,20s0,0,0,0,0,0,0,0,0-.21,0-.3a1.76,1.76,0,0,1,0-.19v-.06h0s0,0,0,0v0s0,0,0,0a1.07,1.07,0,0,1,.07-.15h0l0-.05,0-.12,0,0h0v0h0l0,0,0-.05h0s0-.06,0-.06h0v.12c0,.06,0,.12,0,.2v.29h0a0,0,0,0,0,0,0s0,0,0,0,0,0,0,0-.08.2-.09.24Zm1-.1-.16,0h-.18a1.51,1.51,0,0,0-.3,0h-.12l-.07,0-.13.07h0v0l.09-.23s0,0,0,0,0,0,0-.05,0,0,0,0h0v-.15c0-.19,0-.29,0-.44v-.05s0,0,0,0l.08-.05.05,0,0,0h0l.1-.06.12-.09h0a.06.06,0,0,0,.08,0s0,0,0,0v0l.06,0s0,0,0,0h.05a.09.09,0,0,0,.06-.06,0,0,0,0,0,0-.05l0,0,0,0s0,0,0-.05v0l0,0a.08.08,0,0,0,0-.1h0v-.21l0,0v-.09a.51.51,0,0,0,0-.09H36a.42.42,0,0,1,.13.21.24.24,0,0,0,0,.09v.1c0,.06,0,.13,0,.3v.41s0,.06,0,.09v.14a10.13,10.13,0,0,0,0,.29.94.94,0,0,1,0,.22v.12a.22.22,0,0,1,0,.1C36.2,19.61,36.18,19.62,36.09,19.62Zm1.19,1.59v0l0,0,0,.08v0a.11.11,0,0,0,0,.08l0,0,0,0a.22.22,0,0,0,0,.06l-.09.16-.06.1v.07l0,0,0,0,0,.05s0,0,0,0h0a.06.06,0,0,0-.05.06h0l0,0-.06,0a5.21,5.21,0,0,0-.49.37l0,0h0a0,0,0,0,0,0,0,.09.09,0,0,0-.11,0l0,0,0,0h0v-.11c0-.09,0-.21,0-.36V22c0-.06,0-.2,0-.31v-.3a.15.15,0,0,1,0-.06h0a.23.23,0,0,0,.11,0v0h0l0,.05a0,0,0,0,0,0,0s0,0,0,0,0,0,.07.05,0,0,.05,0h0l0,0h0v0a.06.06,0,0,0,0,.06h0s0,0,.05,0a.06.06,0,0,0,0-.07.07.07,0,0,0-.06,0h0l0,0v0a.17.17,0,0,0,0-.07l0,0,0,0h0s0,0,0,0v0h0l0,0a.8.8,0,0,0,.17-.18v-.08s0-.08,0-.09h.06l.08,0,.06,0,.1.06a2.1,2.1,0,0,0,.32.17l0,0s0,0,0,.05Zm.59-1.31h0a.49.49,0,0,1-.21,0l-.11,0-.35-.09H37v-.29a.08.08,0,0,0,0,0,.18.18,0,0,0,0-.07v0h0s0,.05,0,.07a.33.33,0,0,0,.16.17l.06,0h.33l.09.11.13.15S37.88,19.88,37.87,19.9Zm.38-3.34a.88.88,0,0,0,0,.16.2.2,0,0,1,0,.09s0,0,0,0-.09-.07-.13-.14a.45.45,0,0,1-.06-.12s0,0,0,0h0a1,1,0,0,0,0,.18.4.4,0,0,0,.12.21s0,0,0,.05a.27.27,0,0,1,0,.15.39.39,0,0,0,0,.13v0s0,0-.11.06l-.13,0a.17.17,0,0,1-.1,0,.1.1,0,0,1-.06-.05v-.09a1,1,0,0,0,0-.18c0-.07,0-.15,0-.17s0-.08,0-.1a1.08,1.08,0,0,1,.07-.18.67.67,0,0,0,.06-.15.91.91,0,0,1,.08-.23l0,0,.06,0a.47.47,0,0,0,.1-.1.43.43,0,0,0,.07-.2v-.16s0,0,0-.06l0,0a1,1,0,0,1,.11-.2.78.78,0,0,1,.12-.19h0l.15,0a.26.26,0,0,0,.18-.07.43.43,0,0,0,.13-.25v0a1.69,1.69,0,0,0,0-.25v-.09l0,0a3.17,3.17,0,0,1,.31-.32,3.08,3.08,0,0,1,.61-.45l0,0h0a1,1,0,0,1,.22-.12.12.12,0,0,0,.07-.05l0,0h.07l.07,0a.19.19,0,0,0,.1.05.57.57,0,0,0,.16,0h.08s0,0,0,0l-.09,0,0,0h0l0,0-.06,0-.07,0-.28.14L40,14l0,0a5.23,5.23,0,0,0-.51.31.91.91,0,0,0-.17.16.69.69,0,0,0,0,.1v0l0,0a1.45,1.45,0,0,1,.23-.19,2.53,2.53,0,0,1,.34-.21h0l.15-.09.23-.1,0,0,.18-.07,0,0,.17-.07.09,0a.3.3,0,0,1,.11,0h0a.14.14,0,0,1,.1.07A.49.49,0,0,1,41,14s0,.08,0,.11,0,.06-.12.09l-.23.09h0l0,0,0,0a1.65,1.65,0,0,0-.31.18,1,1,0,0,0-.37.36.08.08,0,0,0,0,0v0h0a.13.13,0,0,0-.12.07s0,0,0,.06v0l-.09.07c-.18.14-.52.43-.62.53l-.38.37A1.29,1.29,0,0,0,38.25,16.56Zm2,3,0,0h0s0,0,0,0v.08s0,0,0,0,0,0,0,0a.28.28,0,0,1,0,.07l0,.06a.17.17,0,0,0,0,.05h0a0,0,0,0,0,0,0l0,0h0l-.06,0h0l-.11,0h0s0,0,0,0a.06.06,0,0,0-.07,0h0l0-.08v0a.13.13,0,0,0,0-.08s0,0,0,0a.08.08,0,0,0,0-.05h-.07a1,1,0,0,0-.08-.19,3.34,3.34,0,0,0-.28-.46c-.11-.16-.13-.2-.18-.26l0-.06,0,0,.2.13,0,0h0l.07,0,.17.08,0,0,0,0,0,0h0l.29.11,0,0,.1,0s0,0,0,0v0A.8.8,0,0,0,40.2,19.57Zm.28-.14h0l-.11,0h-.09l0,0h-.07L40,19.27h0l-.11,0-.18-.08h0l0,0h0L39.38,19,39.26,19a2.29,2.29,0,0,1-.54-.41.53.53,0,0,1-.13-.19c0-.08-.05-.11-.08-.16s-.1-.2-.11-.22a.87.87,0,0,1-.06-.21s0,0,0,0l.27.2.06.05.08.06.06,0,.34.27.43.34.55.43.29.24C40.5,19.42,40.5,19.43,40.48,19.43Zm1.18.21a.62.62,0,0,1-.18,0l-.2,0h-.37l0,0-.27-.21-.24-.18c-.39-.28-.54-.4-.62-.47l-.24-.19-.2-.16,0,0,0,0,0,0-.06,0-.08-.07L39,18l-.13-.1s0,0,.07,0a1.57,1.57,0,0,1,.31.09l.23.09,0,0,.09,0h.08l0,0,0,0,0,0,.06,0,.07,0,.07,0,.52.26.14.07,0,0a3.21,3.21,0,0,1,.47.34l.24.21c.18.16.41.38.41.39S41.71,19.64,41.66,19.64Zm.57-.64a.33.33,0,0,0-.07.13.16.16,0,0,0,0,.1c0,.05,0,.05,0,.06a.51.51,0,0,0-.22.15v0l-.08-.05s-.07-.06-.07-.07a0,0,0,0,1,0,0,.1.1,0,0,1,0-.08l.06-.08a.5.5,0,0,0,0-.19.22.22,0,0,1,0-.14s0,0,0,0H42l0,0,.09,0a.49.49,0,0,1,.13.08Zm.29-.72a1.19,1.19,0,0,0-.08.34.32.32,0,0,0,0,.14,0,0,0,0,1,0,0l0,0h0l-.17-.09L42,18.6s0,0-.06-.05l0-.15v-.2a.14.14,0,0,1,.11-.11h.12a1.77,1.77,0,0,1,.36.11l.1,0Zm.24-.64a.17.17,0,0,0-.06.08.93.93,0,0,0-.05.1.78.78,0,0,0,0,.22s0,0,0,0l-.13,0-.08,0h-.11l-.09,0h0l-.07,0L42,17.89h0l-.13-.07h0l-.08,0a.13.13,0,0,1,0-.05.23.23,0,0,1,0-.12.39.39,0,0,1,0-.09v0a.13.13,0,0,1,.12-.06H42l.2,0h.2l.08,0h.08l.07,0,.11,0,.08,0Z"/><path class="cls-8" d="M36.75,11.91h.07s0,0-.06.08,0,.05,0,0l.07-.06h0a0,0,0,0,1,0,0s0,0,0,.08a.86.86,0,0,1,0,.16v0a2,2,0,0,1,0-.25s0,0,0,0L37,12l0,0,0,0,0,0,0,0h0l.19,0h.06l-.27,0h0v0l.05-.05,0,0,0,0-.08.07h0v-.06a1.48,1.48,0,0,1,0-.22v0a1.62,1.62,0,0,1,0,.22v0h0l0,0,0,0,0,0,0,0,0,0v0s0,0-.07,0a.59.59,0,0,1-.18,0h.18Z"/><path class="cls-8" d="M35.65,13.82l0,0h.07l.2.06.07,0h0s0,0,0,0h.26l.18,0h0l0,0h.09l.19.06h.08l.11,0s0,0,0,0,0,0,0,0h.06l0,0,0,0v0s0,0,0,0a.06.06,0,0,0,0,0,.1.1,0,0,0,.15,0h0l0,0,0,0h0a.06.06,0,0,0,0,0s0,0,0,.05a.07.07,0,0,0,.09,0v0h.07l.08,0h.1l0,0s0,0,.05,0a.06.06,0,0,0,0-.09l0,0h0s0,0,0,0h-.26v0a.13.13,0,0,0,0-.06h0s0,0,0,0l0-.05v0h0v0s0-.06-.06-.08h-.1l0,0s0,0,0-.06v0a.06.06,0,0,0,0-.06h0v0s0-.1,0-.17v0h0l0,0v0h0l0,0a.21.21,0,0,1,0-.07.14.14,0,0,1,0,0h.09a.11.11,0,0,0,0-.12l0,0s0,0,0,0l0-.13v0a.45.45,0,0,1,0-.08v0l0-.14a.53.53,0,0,0,0-.12v-.4s0,0,0,0a.05.05,0,0,0,0,0,.07.07,0,0,0,0-.06.06.06,0,0,0,0,0l0,0h-.06l0,0a.11.11,0,0,0,0,.08s0,0,0,0l0,0h0v0q0,.1-.06.24l0,.08v.27a.17.17,0,0,0,0,.08v0l0,.15,0,.06h-.07a.57.57,0,0,1,0-.12l-.06-.15h0v0s0,0,0-.06,0,0,0-.06l0,0H37l0,0a2.72,2.72,0,0,0-.24-.24l0-.05v0a0,0,0,0,0,0,0,.05.05,0,0,0-.09,0s0,0,0,.06,0,0,0,0h0l.13.13.16.17,0,0h0s0,0,0,.06v.05a.1.1,0,0,0,0,0h.07v0a.33.33,0,0,1,0,.06c0,.05,0,.08.05.15l0,.06h0a.07.07,0,0,0,0,.08l0,0h0l0,0a.56.56,0,0,1,0,.08v0h0v0s0,0,0,0h-.07l-.07,0-.1,0,0,0-.08,0s0,0,0,0a.13.13,0,0,0,0-.07h-.08s0,0,0,0v.07a.08.08,0,0,0,0,0h0v0l0,.06v.06s0,0,0,0,0,0,0,0h-.23l-.13,0h-.07v0h0l0,0a.53.53,0,0,0,.09-.11h0s0,0,0,0a.08.08,0,0,0,0,0s0,0,0,0a.15.15,0,0,1,0-.07c0-.06,0-.09,0-.12a.21.21,0,0,1,0-.08s0,0,0,0a0,0,0,0,0,0,0h0l0,0-.05-.07,0,0h0a.07.07,0,0,0,0-.05h-.07l0,0-.22-.14,0,0h0s0,0,0,0,0,0,0,.05h.05l0,0,.17.12c.09,0,.09,0,.09.06v0h0l0,0,.06.09s0,0,0,0v0l0,0h0v0c0,.1,0,.14,0,.18s0,0,0,0l0,0v0h0l-.09.11,0,0h0s0,0,0,0l-.07,0-.16,0-.09,0h0s0,0-.06,0S35.61,13.82,35.65,13.82Zm1,.08a.13.13,0,0,0,0-.08.19.19,0,0,0,0-.07s0,0,0,0h0a.08.08,0,0,0,0-.05h0l.06,0h0l.06,0h0l.06,0h.06a0,0,0,0,0,0,0h0v0a.91.91,0,0,1,0,.2h0a.09.09,0,0,0-.05,0h-.13L36.75,14h0l-.07,0h0a.08.08,0,0,0,0-.05h0Z"/><path class="cls-8" d="M36.15,12.67h0l.06-.06h0v0s0,0,0,0v0l.06.05h0l0,0s0,0,0,0h0s0,0,0-.05l0,0,0,0-.06.05v0h0l0-.05h0l0,0s0,0,0,0h0l0,.05Z"/><path class="cls-8" d="M38.17,13.59h.08a.12.12,0,0,0,0-.12c0-.05,0-.07-.09-.07h0a.1.1,0,0,0-.06.05v.07S38.15,13.57,38.17,13.59Z"/><path class="cls-8" d="M37.67,13.7v0s0,0,0,0a.44.44,0,0,1-.08-.07l0,0v0l.06.07s0,0,0,0h0a.33.33,0,0,1-.06.08l0,0,0,0,.08-.06s0,0,0,0v0l.09.07,0,0v0l-.07-.08s0,0,0,0h0l.08-.1,0,0-.08.06V13.7Z"/><path class="cls-8" d="M38,14.21h0s0,0,0,0a.08.08,0,0,0,0-.09h-.06l0,0a.09.09,0,0,0,0,.05v0A.08.08,0,0,0,38,14.21Z"/><path class="cls-8" d="M36.06,14.54l0,0h0l.1-.09s0,0,0,0v0l.09.08,0,0a0,0,0,0,0,0,0,.3.3,0,0,1-.07-.09h0s0,0,0,0h0l.07-.08,0,0,0,0-.08.06v0h0s0,0,0,0l-.1-.08h0a.07.07,0,0,0,0,0l.06.08h0s0,0,0,0,0,0,0,0Z"/><path class="cls-8" d="M36.64,15h0a.11.11,0,0,0,0,0v0l.08-.08.08-.09-.17.15h0l-.05,0h0v0a1.39,1.39,0,0,0,0-.17v0s0,.08,0,.17,0,.05,0,.05l0,0h0l-.09-.08-.09-.08.08.09c0,.05.07.09.08.09h0a.11.11,0,0,0,0,0v0h0s0,0,0,0,0,0,0,.06h0l-.14.15s0,0,.08-.06l.08-.08h0l.06,0s0,0,0,0,0,.16,0,.18h0v-.22h0l.05,0h0a.5.5,0,0,1,.08.08l.09.07-.08-.09-.08-.08v0S36.64,15,36.64,15Z"/><path class="cls-8" d="M37.15,15.54h0a.09.09,0,0,0,.06-.06s0,0,0,0a.06.06,0,0,0,0,0,0,0,0,0,0,0,0,.12.12,0,0,0-.08,0s0,0,0,0a.09.09,0,0,0,0,.11S37.11,15.53,37.15,15.54Z"/><path class="cls-8" d="M34.43,15.85l.06,0a.11.11,0,0,0,0-.06s0,0,0,0a.08.08,0,0,0-.1-.05h0a.09.09,0,0,0,0,.15A.11.11,0,0,0,34.43,15.85Z"/><path class="cls-8" d="M34,16.16h0a.07.07,0,0,0,0-.11s0,0-.06,0a.1.1,0,0,0-.05,0,.09.09,0,0,0,0,.07A.06.06,0,0,0,34,16.16Z"/><path class="cls-8" d="M33.52,18.54l0,0a.07.07,0,0,0,0-.05s0,0,0,0l.12,0h.08s0,0,0,0h0s0,0,0,0,0,0,0,0,0,0,0,0l.12,0h.25l0,0a.09.09,0,0,0,.07,0l.06,0,0,0V18.2l0,0,.19-.16,0,0h0a0,0,0,0,0,.06,0s0,0,0,0h0l0,0L35,17.8l0,0s0,0,0,0v0s0-.07-.06-.07h0l0,0s0,0,0,0h0v0s0,0,0,0h0l0,0,0,0h0a.12.12,0,0,1-.06.05v-.07l0-.08a1,1,0,0,0-.06-.15L34.67,17l-.05-.13v0l-.07-.19,0,0v0h0a.06.06,0,0,0,0-.08h0l0,0a0,0,0,0,1,0,0h0a.11.11,0,0,0,0-.06.07.07,0,0,0,0-.06.08.08,0,0,0-.07,0h0s0,0,0,.05,0,0,0,0v0l0,0v0l0,0,0,0a.06.06,0,0,0,0,0s0,0,0,.06v.82c0,.05,0,.13,0,.17v.07h0s0,0,0,0h0l0,0-.09.15,0,.06v0h0s0,0,0,0a0,0,0,0,0,0,0v0h0l-.23.19h0s0,0,0,0,0,0,0,0l0,0,0,0h-.1a.11.11,0,0,0-.06.1.13.13,0,0,0,0,.05A.09.09,0,0,0,33.52,18.54ZM35,17.65s0,0,0,0l0,0S35,17.63,35,17.65Zm-1.38.69,0,0h0s0,0,0,0v0l0,0a1.57,1.57,0,0,0,.19-.15l0,0h0V18s0,0,0-.06l0-.08,0-.06a.14.14,0,0,1,0-.05s0,0,0,0h0a0,0,0,0,0,0-.06s0,0,0,0v-.07a.31.31,0,0,1,0-.09v-.2c0-.07,0-.14,0-.2v-.14a.46.46,0,0,0,0-.1V16.7a.25.25,0,0,0,0-.09v-.08h0s.05,0,0-.06,0,0,0,0,0,0,0,0,0,0,0,0h.08s0,0,0,0l0,0s0,0,0,0,0,0,0,0,0,0,0,0h0l0,0,.06.16a1.27,1.27,0,0,0,.06.16l.11.28a2.65,2.65,0,0,0,.13.31s0,0,0,0h0l-.06-.06h0l.06.07h0s0,0,0,0h0l-.05.06h0l0,0,0,0h0v0h0s0,0,0,0,0,0,0,0h0a.09.09,0,0,0,0,.07s0,0,0,0l-.12.1,0,0a0,0,0,0,0-.06,0,.06.06,0,0,0,0,.05h0l0,0-.12.1-.1.08h0a.1.1,0,0,0-.1,0l-.05,0s0,0,0,.06h0l-.06,0-.09,0-.13,0-.08,0h-.11l0,0h-.06l-.12,0h-.05Z"/><path class="cls-8" d="M33.6,17.16s0,0,0,0h0a0,0,0,0,1,0,0l-.06.07h0l.08-.06a.06.06,0,0,1,0,0v0s0,0,0,0a.25.25,0,0,1,.08.07h0l0,0a.3.3,0,0,1-.07-.09h0s0,0,0,0a.5.5,0,0,1,.06-.08s0,0,0,0h0s-.08.06-.08.07,0,0,0-.05h0a.1.1,0,0,1,0,0l-.06-.05s0,0,0,0h0s0,0,0,0Z"/><path class="cls-8" d="M33.28,18.05a.05.05,0,0,0,0-.08h0s0,0,0,0l0,0s0,0,0,0A0,0,0,0,0,33.28,18.05Z"/><path class="cls-8" d="M34.81,18.5h0l-.15.13-.13.1h0v-.15h0s0,0,0,0v.08s0,0,0,0l0,0-.17-.16-.07-.07h0l.19.22,0,.07s0,0,0,0h0l0,0,0,0-.16.17s-.06.06,0,.06l0,0,.22-.18h0a.42.42,0,0,1,0,.13v0h0a.77.77,0,0,1,0-.15h0a1.36,1.36,0,0,1,.18.17l.08.07h0s-.09-.11-.13-.15l-.1-.13v0a0,0,0,0,1,0,0h0s0,0,0,0a1.29,1.29,0,0,1,.16-.18Z"/><polygon class="cls-8" points="34.49 18.54 34.49 18.54 34.49 18.54 34.49 18.54"/><path class="cls-8" d="M33,19a.21.21,0,0,0,.11,0s0,0,.06-.07a.19.19,0,0,0,0-.08.11.11,0,0,0,0-.08l0,0a.11.11,0,0,0-.08,0H33a.14.14,0,0,0-.08.1.28.28,0,0,0,0,.09A.15.15,0,0,0,33,19Z"/><path class="cls-8" d="M32.46,19h0a.08.08,0,0,0,.07-.07.06.06,0,0,0,0,0,.1.1,0,0,0-.07-.08h0a.09.09,0,0,0-.07.09.09.09,0,0,0,0,.07S32.43,18.94,32.46,19Z"/><polygon class="cls-8" points="34.22 18.79 34.22 18.79 34.22 18.79 34.22 18.79"/><polygon class="cls-8" points="34.74 18.81 34.74 18.81 34.74 18.81 34.74 18.81"/><polygon class="cls-8" points="34.15 19.1 34.16 19.1 34.16 19.09 34.16 19.1 34.15 19.1"/><path class="cls-8" d="M32.89,20.22h0s.06,0,.07,0a.09.09,0,0,0,0-.06.09.09,0,0,0,0-.07l0,0L33,20l.09-.18,0,0h.06l0,0,.08.09,0,0h0a.14.14,0,0,0,0,.06.1.1,0,0,0,.09,0h0l.07.05.1.07,0,0h0a.05.05,0,0,0,.08.05h.08v0s0,.06.06.06h0a.08.08,0,0,0,0-.09.06.06,0,0,0-.09,0h0l-.06,0s0,0,0,0a.07.07,0,0,0,0-.06h-.06l0,0L33.46,20l0,0V19.9l0,0h-.07l-.06-.06-.08-.1h0a.07.07,0,0,0,0-.06.11.11,0,0,0,0-.06,0,0,0,0,1,0,0l0-.08.08-.12s0-.05,0-.05h0s0,0,0,0,0,0,0,0,0,0,0,0,0,0,0,0a0,0,0,0,0,0,0h0l0,0a.07.07,0,0,0,0,.05h0l0,.06a1.46,1.46,0,0,0-.11.18l0,0h-.07L33,19.51,33,19.45h0a.07.07,0,0,0,0-.11.05.05,0,0,0-.06,0,.06.06,0,0,0,0,.06.06.06,0,0,0,.07,0h0l0,0,0,.07,0,0h0a.08.08,0,0,0,0,.08.05.05,0,0,0,0,.06h0v0S33,19.9,33,20v0h0s0,0-.06,0a.13.13,0,0,0,0,.05A.11.11,0,0,0,32.89,20.22Z"/><path class="cls-8" d="M34.4,19.51s0,0,0,0,0,0,0,0a.1.1,0,0,0,0-.05h-.07a.09.09,0,0,0-.06.08.07.07,0,0,0,0,.06.08.08,0,0,0,0,0h.08A.07.07,0,0,0,34.4,19.51Z"/><path class="cls-8" d="M33.8,19.54s0,0,0,0a0,0,0,0,0,0,.05,0,0,0,0,0,0,0v0a0,0,0,0,0,0-.05Z"/><path class="cls-8" d="M32.69,21.1a0,0,0,0,0,.06,0,0,0,0,0,0,0,0v0a.25.25,0,0,0,0-.07v-.06l0,0s0,0,0,0a0,0,0,0,0,0,0l0,0s0,0,0,0l0,0,0,0,0,0v0h0v0l-.09-.15h0l0,0s0,0,0,0l-.05,0,0-.05h0v0h0v0h0l0,0,.05-.06,0,0-.08.07,0,0h0s0,0,0,0h0a.55.55,0,0,1,0-.12v0a.17.17,0,0,0,0,.07v.05H32.4l0-.05-.05,0v0l0,0h0l-.15-.09-.08,0v0a.12.12,0,0,0,0-.09.06.06,0,0,0-.07,0l0,0h0v0l-.05-.1,0-.09h0a.09.09,0,0,0,0-.05v0l0,0h0s0,0,0,0a0,0,0,0,0,0,0,.08.08,0,0,0,0,.05l0,0h0v0l.07.16,0,0v0a.1.1,0,0,0,0,.11h.14l.14.1,0,0,.05,0,0,0h0v0h-.09c-.06,0-.05,0,0,0h.07v0a0,0,0,0,0,0,0h0l-.09.1h0l0,0,0,0h.07v0a.19.19,0,0,0,0,.08v0c0-.06,0-.11,0-.11h0l.18.31,0,0v0h0s0,0,0,0,0,0,0,.06a.08.08,0,0,0,0,0h0a.22.22,0,0,0,0,.08.43.43,0,0,0,0,.05v0h0a.05.05,0,0,0,0,0H32.6l0,0H32.5a.11.11,0,0,0-.08.09v.05h0l0,0-.05.05,0,0h0a0,0,0,0,0,0,.08s.05,0,.05,0v0l0,0,.06-.05,0,0h0a.1.1,0,0,0,.09,0,.12.12,0,0,0,.07-.1s0,0,0,0h0S32.68,21.09,32.69,21.1Z"/><path class="cls-8" d="M40.54,20.1l-.18,0h.17s0,0,0,0a.2.2,0,0,0,0,.05s0,0,0,0l0,0s0,0,0,0a.57.57,0,0,1,0,.13.22.22,0,0,0,0,.06v0a.84.84,0,0,1,0-.21s0,0,0,0l0,0v0c0-.05,0-.05,0-.06s0,0,0,0h.19l-.19,0h0l0,0,0,0,0,0a.07.07,0,0,0,0,0h0s0,0,0,0a1.09,1.09,0,0,1,0-.18V20c0,.06,0,.06,0,.07l0,0,0,0v0c0,.05,0,.05,0,.06Z"/><path class="cls-8" d="M34.29,20l0,0a0,0,0,0,0,0,.05,0,0,0,0,0,.05,0s0,0,0,0a0,0,0,0,0,0,0S34.31,20,34.29,20Z"/><path class="cls-8" d="M31.8,21.19,32,21h0a.09.09,0,0,0,.12,0,.07.07,0,0,0,0-.06s0,0,0,0a.1.1,0,0,0,0,0H32a.08.08,0,0,0,0,.07,0,0,0,0,0,0,0h0l-.09.08c-.08.09-.41.42-.42.42h0a.06.06,0,0,0-.06,0s0,0,0,0v0l-.06.06-.11.11-.05.06h0s0,0-.06,0H31s-.06,0-.06,0h0s0,0,0,0h0s0,0,0,0V21.8h0a.07.07,0,0,0,.06-.07.06.06,0,0,0,0-.06h0a.59.59,0,0,0,0-.08H31l0-.05s0,0,0,0a.06.06,0,0,0,0,0l0,0v0l0-.06.1-.17,0-.06.05-.08c0-.06.14-.22.19-.29l.11-.16.05-.08h.05l0,0v0a.06.06,0,0,0-.06-.05h0s0,0,0,.07,0,0,0,0v0l0,0-.18.26s-.08.14-.12.19-.15.23-.2.33l0,.08v0H31a.1.1,0,0,0-.05.13h0v0l0,0a.08.08,0,0,0,0,0h-.05a.07.07,0,0,0,0,.07.05.05,0,0,0,0,.05s0,0,0,.05v.05h0s0,0,0,0,0,0,0,0a1.43,1.43,0,0,0-.19.26s0,0,0,0,0,0,0,0a.07.07,0,0,0,0,.05h0v0s0,.1,0,.13v.1c0,.05,0,.05,0,.05h0v0s0,0,0,0l-.07-.06,0,0v0l.07.07h0l-.05.06v0l0,0,.06,0a0,0,0,0,1,0,0v.13s0,.11,0,.15v0h0l0,0a0,0,0,0,0,0,0v0h0l0,0h0a0,0,0,0,0-.06,0s0,0,0,0a0,0,0,0,0,.06,0s0,0,0,0v0h0l0,0h0a0,0,0,0,0,.07,0,0,0,0,0,0,0-.05s0,0,0,0v-.2l0-.1v0l.07.05h0c-.06-.07-.07-.08-.06-.08h0s0,0,0,0,0,0,0-.06v0l0,0s0,0,0,0v-.24l0-.07h0l0,0v-.06l.15-.21c.07-.08.07-.09.08-.09s0,0,0,0v0s0,0,0,0H31s0,0,0,0h0s0,0,0,0a0,0,0,0,1,0,0l0,0h0v0l0,0V22l.11.34c0,.05,0,.12,0,.16a.44.44,0,0,1,0,.08h0a.15.15,0,0,0,0,.09.11.11,0,0,0,.1.09.11.11,0,0,0,.09-.05s0,0,0,0,0,0,0-.07,0,0-.07,0h0v0l0-.05v0l0-.05v-.09l0-.07v0a2.34,2.34,0,0,0-.09-.24l0-.06v0h0v0s0,0,0,0a.85.85,0,0,0,.16-.17l0,0h.06a.05.05,0,0,0,0,0v0h0l0,0C31.56,21.42,31.6,21.39,31.8,21.19Z"/><path class="cls-8" d="M41.78,21.39h-.11a.05.05,0,0,0,0,0,0,0,0,0,0,0,0s0,0,0,0h0l0,0,0,0h-.06s0,0-.06,0,0,0,0,0,0,0,0,0l0,0h0a.05.05,0,0,0-.07,0s0,0,0,0h0v0H41.1v0L41,21.46v0s0,0,0,0h0v0a.05.05,0,0,0,0,0h0a.11.11,0,0,0,0-.05l0-.13v0h0s0,0,0,0,0,0,0,0h0v0s0,0,.05,0h0l0,0h0a0,0,0,0,0,0,.07h0s0,0,0,0,0,0,0,0,0,0,0,0v0h0a.14.14,0,0,0,0-.06.07.07,0,0,0,0-.08h-.05a.09.09,0,0,0-.06,0,0,0,0,0,0,0,0,.06.06,0,0,0,0,.05h0v0h0a0,0,0,0,0,0,0,0,0,0,0,0,0,0v0l0,0,0,.05,0,0h0a.06.06,0,0,0-.06,0h0L40.28,21l-.05,0s0,0,0,0,0,0,0,0h0s0-.08,0-.1v0h0s0,0,0-.05v0l-.05,0h0v-.07h0s0,0,0,0h0s0,0,0,0l0,0H40l0,0,0,0a.08.08,0,0,0,0,.07.06.06,0,0,0,.06,0h0a0,0,0,0,0,0,0,.08.08,0,0,0,0,0,0,0,0,0,0,.06,0s0,0,0,0h0l0,0h0v0a.28.28,0,0,0,0,.09v0h0a0,0,0,0,0,0,0s0,0,0,0h0l0,0,.3.21,0,0h0a.08.08,0,0,0,0,.1h0s0,0,0,0,0,0,0,0a.05.05,0,0,0,0,.08.06.06,0,0,0,0,0,0,0,0,0,0,0,0s0,0,0,0l0,0,.07,0s0,0,0,0h0s0,0,0,0a0,0,0,0,0,0,.06s0,0,.06,0h0l0,0a1,1,0,0,0,.1.15s0,0,0,0a.08.08,0,0,0,0,0h0l0,0v0l0,0h0a.05.05,0,0,0,.05,0s0,0,0,0v0h0l0,0v0l0,0h.07s0,0,0,0a.06.06,0,0,0,0-.06v0h.06s0,0,0,0l0,0h.05v0a0,0,0,0,0,0,0s0,0,0,0l0,.11,0,0h0a.06.06,0,0,0,0,.11.06.06,0,0,0,.06,0v-.07s0-.07,0-.11l0,0h0l0,0a0,0,0,0,0,0,0A.06.06,0,0,0,41.78,21.39Zm-1.67-.71v0H40l0,0h0a0,0,0,0,0,0-.05l0,0h.09s0,0,0,0v0Zm.73.62v.06a0,0,0,0,1,0,0h0l-.09.05,0,0h0s0,0,0,0a0,0,0,0,1,0,0,.43.43,0,0,1,0-.05h0a.07.07,0,0,0,.05-.09.07.07,0,0,0,0-.05h0a.45.45,0,0,1,0-.09v0h0l0,0v.06h0v.07Z"/><path class="cls-8" d="M34.17,22.21h-.06s0,0,0,0a0,0,0,0,1,0,0,.1.1,0,0,0-.05,0H34l0,0a5.23,5.23,0,0,0-.45-.35l0,0v0a.08.08,0,0,0,0,0h0l-.15-.15-.19-.19s0,0,0-.07v0s0,0,0-.05h0l0,0,.28-.27,0-.05h.07l0,0s0,0,0,0a.09.09,0,0,0,0,0h0v0h.06a.06.06,0,0,0,0,0s0,0,0,0h0a0,0,0,0,0,0,0,0,0,0,0,0,0,0v0h0s0,0,0,0a.12.12,0,0,0,0,.05v.07l0,0h0l-.1.09c-.15.16-.25.25-.25.25h0l0,0a.09.09,0,0,0-.09.06s0,0,0,0,0,0,0,0a.12.12,0,0,0,.05.05h0v0s0,0,0,0,0,0,0,0,0,0,0,.05,0,0,0,0a.29.29,0,0,0,0,.1l0,0s0,0,0,0a0,0,0,0,0,0,0,.28.28,0,0,1,0,.06v.47a.51.51,0,0,0,0,.1h0a.09.09,0,0,0-.06,0,.08.08,0,0,1,0,0,.14.14,0,0,0,0,.06.11.11,0,0,0,.06,0,.06.06,0,0,0,.05,0,.07.07,0,0,0,0-.06s0,0,0,0h0l.06-.05.13-.14,0,0h0s0,0,0,0h.07a.07.07,0,0,0,0,0h.08l.09,0v0s0,0,0,0h0s0,0,0,0h.19l.16,0h.07c.1,0,.1,0,.11,0a.09.09,0,0,0,.06,0,.08.08,0,0,0,.08,0l0,0s0,0,0,0a0,0,0,0,0,0,0s0,0,0,0h0s.06,0,0-.07A.05.05,0,0,0,34.17,22.21Zm-.25,0v0s0,0,0,0h-.11l-.27,0h-.11s0,0,0,0h-.07l-.08,0-.07,0s0,0,0,0a.09.09,0,0,0,0-.08.1.1,0,0,0-.15.11s0,0,0,0a2.11,2.11,0,0,1-.19.23h0v-.06a1.38,1.38,0,0,0,0-.2v0a1.11,1.11,0,0,1,0-.17v-.09s0,0,0,0,0,0,0,0a0,0,0,0,0,0,0v0h0a.85.85,0,0,0,0-.09v0h0s0,0,0,0a0,0,0,0,0,0-.05s0,0,0,0a.1.1,0,0,1,0,0h0l0,0h0l.19.19c.17.17.19.19.19.2a0,0,0,0,0,0,0h0l0,0,.4.33,0,0A0,0,0,0,1,33.92,22.17Z"/><path class="cls-8" d="M41.65,20.74l0,0,0,0-.08.07s0,0,0,0h0s0,0,0,0l-.08-.07h0v0l.07.07s0,0,0,0h0s0,0,0,0l-.07.08h0l0,0,.08-.06v0s0,0,0,0l.08.06s0,0,0,0l-.06-.08s0,0,0,0h0s0,0,0,0Z"/><path class="cls-8" d="M35.08,21s0,0,0,0a0,0,0,0,0,0,0s0,0,0,0h0l0,0c0,.08-.07.21-.09.29s0,.08,0,.16v0a0,0,0,0,1,0,0h0l0,0h0l0-.06c-.07-.08-.16-.19-.29-.32l0,0s0-.06,0-.06h0l0,0-.1-.12,0-.05h0a.1.1,0,0,0-.09-.14h0a.1.1,0,0,0-.05.06.08.08,0,0,0,0,.08.1.1,0,0,0,.07,0l0,0h0l.06.07.07.09,0,0h0v0s0,0,0,0h0a2.44,2.44,0,0,0,.32.37l.06.06v.07a.18.18,0,0,0,.07.05s0,0,0,.05V22h0a.06.06,0,0,0,0,.08s0,0,0,0,0,0,0,.09v.47h0a0,0,0,0,0,0,0,0,0,0,0,0,0,.06l0,0s0,0,.05,0a.05.05,0,0,0,0,0s0,0,0-.06h0v0a.17.17,0,0,1,0-.07v0a.23.23,0,0,0,0-.07v0a.9.9,0,0,1,0-.13l0-.17v0h0s0,0,0,0,0,0,0,0a.08.08,0,0,0,0,0h0v-.16h0l0,0a.06.06,0,0,0,0,0,.11.11,0,0,0,0-.09h0a.17.17,0,0,1,0-.05l0-.11,0-.06,0,0v-.12l0,0v0l0,0s0,0,0,0h0a.05.05,0,0,0,.05,0,0,0,0,0,0,0-.05A.05.05,0,0,0,35.08,21Z"/><path class="cls-8" d="M42.71,21.4l0,0-.06.05a.87.87,0,0,1-.16.13h0v0l0,0-.16-.14,0,0,0,0,.11.13,0,.07h0l0,.06a.71.71,0,0,1-.12.13l0,0,0,0,.16-.14,0,0v0s0,0,0,0l.18.15,0,0s0,0,0,0l-.13-.15c0-.05,0-.05,0-.06h0s0,0,0,0,0,0,0-.06A.77.77,0,0,1,42.71,21.4Z"/><path class="cls-8" d="M32.4,21.59h0a.13.13,0,0,0-.09.1s0,.06,0,.07v0a.15.15,0,0,0,.1.09h.07a.2.2,0,0,0,.09-.06.22.22,0,0,0,0-.08.18.18,0,0,0,0-.11A.12.12,0,0,0,32.4,21.59Z"/><path class="cls-8" d="M38,22.13l0,0h0v0h0v0h0a1.57,1.57,0,0,1,.16-.18v0l0,0L38,22s0,0,0,0h0a.08.08,0,0,0,0,0v0a0,0,0,0,1,0,0h0l0,0-.13-.11,0,0a.07.07,0,0,0,0,0l.13.15v0s0,0,0,0h-.06s0,0,0,0h0v0h0l0,0-.11.13,0,0s0,0,0,0a1.83,1.83,0,0,1,.16-.13l0,0h0a.43.43,0,0,1,0,.05v0s0,0,0,0h0l0,0,.14.13h0l0,0A1.06,1.06,0,0,1,38,22.13Z"/><path class="cls-8" d="M31.92,22.13h0v0h0l.09-.1h0L31.9,22h0l0,0h0V22s0-.06,0-.07V22s0,.05,0,.05h0l0,0h0l-.05,0,0,0h0l.09.1a.08.08,0,0,0,0,0h0s0,0,0,0l-.09.09s0,0,0,0l.05-.05h.06v.13h0s0,0,0-.07,0-.06,0-.07h0s0,0,.1.08h0L32,22.22l0,0v0Z"/><path class="cls-8" d="M38.42,22.38a.14.14,0,0,0,.09,0s0,0,.05-.06a.08.08,0,0,0,0-.07s0-.05-.05-.05h0l-.05,0s0,0,0,0a.15.15,0,0,0,0,.07A.1.1,0,0,0,38.42,22.38Z"/><path class="cls-8" d="M42.8,22.24l0,0h0s0,0,0,0,0,0,0,0,0,0,0,0a.08.08,0,0,0,0,.05s.08,0,.1,0A.1.1,0,0,0,42.8,22.24Z"/><path class="cls-8" d="M43.35,22.57s0-.06,0-.08a.13.13,0,0,0-.1-.1s-.06,0-.08,0a.29.29,0,0,0-.09.09v.05a.13.13,0,0,0,0,.1l0,0h.11A.14.14,0,0,0,43.35,22.57Z"/><path class="cls-8" d="M41.71,22.53s0,0,0,0h0s0,0,0,0l.06-.07s0,0,0,0l0,0-.08.06s0,0,0-.05v0s0,0,0,0l-.07-.06,0,0,0,0a.33.33,0,0,1,.06.08s0,0,0,0h0s0,0,0,0l-.08.08v0l0,0,.09-.06v.05s0-.05,0-.05l.08.06,0,0h0Z"/><path class="cls-8" d="M41,22.48H41a.16.16,0,0,0-.11.1v.07a.15.15,0,0,0,0,.08.07.07,0,0,0,.06,0H41a.14.14,0,0,0,.09-.14A.14.14,0,0,0,41,22.48Z"/><path class="cls-8" d="M33.64,22.82s0,0,0,0h0a1.15,1.15,0,0,1,.15-.19l0,0,0,0-.18.15s0,0,0,0v-.06c0-.05,0-.05,0,0v0h0l-.18-.16,0,0,0,0a.86.86,0,0,1,.13.14s0,0,0,0h0a1.65,1.65,0,0,1-.15.17l0,0,0,0a1.14,1.14,0,0,1,.17-.15h0v0c0,.09,0,.09,0,0v-.06s0,0,0,0h0l.17.14,0,0,0,0A1.33,1.33,0,0,1,33.64,22.82Z"/><path class="cls-8" d="M32.13,22.68a.09.09,0,0,0-.06.11.07.07,0,0,0,.07.07.09.09,0,0,0,.1-.05s0,0,0,0,0,0,0,0A.08.08,0,0,0,32.13,22.68Z"/><path class="cls-8" d="M37.65,22.82l-.06,0v0l-.17-.07s0,0,0,0h0s0,0,0,0a0,0,0,0,0,0,.07l0,0,0,0h0l0,0,.08,0h.06l0,0v0a.08.08,0,0,0,0,.07h0v.16h0l0,0s0,0,0,0h0v0h0a0,0,0,0,0,0,.09.06.06,0,0,0,.07,0,.05.05,0,0,0,0,0s0,0,0,0v0h0a0,0,0,0,0,0-.06h0V23h0a.1.1,0,0,0,.07,0,.13.13,0,0,0,0-.06.1.1,0,0,0,0-.07Z"/><path class="cls-8" d="M34.46,22.76h0v0l-.08.05v0h0v0s0,0-.06,0l0,0h0l0,0,.05.06h0l-.05.07h0l.07-.05v0h0s0,0,.06,0l0,0,0,0,0-.06h0S34.45,22.76,34.46,22.76Z"/><path class="cls-8" d="M42.42,23.06h-.05l.06-.07,0,0,0,0-.07.06h0s0,0,0,0,0-.14,0-.17v0s0,0,0,0a1.21,1.21,0,0,1,0,.19s0,0,0,0L42.23,23l0,0,0,0,0,0s0,0,0,0h0l-.28,0h.27s0,0,0,0l-.06.07,0,0,0,0,.07-.06h0s0,0,0,0v0a.71.71,0,0,1,0,.15s0,.05,0,0v-.26h0l.05,0,0,0v0l-.07-.07h.05Z"/><path class="cls-8" d="M38.45,23h0a0,0,0,0,1,0,0h0l0,0s0,0,0-.12v0s0,.14,0,.15h0l0,0h0l0,0h-.1c.08,0,.1,0,.1,0v0l0,0h0l0,0s0,0,0,.07v.05a1,1,0,0,1,0-.11h0l0,0,0,0v0l0,0s0,0,.09,0h-.08Z"/><path class="cls-8" d="M43.57,23.23v0h0v0h0v0h0l.13-.15,0,0,0,0-.15.13h0a.43.43,0,0,1,0-.05v.05h0l0,0-.12-.1,0,0s0,0,0,0l.13.15h0a0,0,0,0,1,0,0h0s0,0,0,0h.05v0s0,0,0,0h0l0,0-.11.12v0l0,0a.54.54,0,0,1,.13-.1h.06v0h0l0,0h0l.16.14h0l-.05-.06Z"/><path class="cls-8" d="M39.12,23s0,0-.06,0a.09.09,0,0,0-.06.14.11.11,0,0,0,.09,0,.09.09,0,0,0,.08-.12S39.15,23,39.12,23Z"/><path class="cls-8" d="M32.93,23.23H33s0,0,0,0h0s0,0,0,0v0l.1-.12,0,0,0,0-.12.1,0,0s0,0,0-.06v0s0,0,0,0h0L32.71,23l0,0,0,0,.13.15h-.07s0,0,0,0h0s0,0,0,0h0l-.12.15,0,0s0,0,0,0l.15-.12h0s0,0,0,0v.05h0c0-.06,0-.08,0-.08l.17.14s0,0,0,0,0,0,0,0A.64.64,0,0,1,32.93,23.23Z"/><path class="cls-8" d="M31.3,23.16s0,0,0,0h0a.31.31,0,0,1,.05-.07h0l-.07.05a0,0,0,0,1,0,0v0h0l-.06-.05,0,0,0,0a.31.31,0,0,1,0,.07h0s0,0,0,0l-.06.07v0l0,0,.06,0v0h0s0,0,0,0l.07.06,0,0v0Z"/><path class="cls-8" d="M40.88,23.17a.06.06,0,0,0-.06,0,.1.1,0,0,0-.06,0v0a.07.07,0,0,0,0,0s0,0,0,0h0s.07,0,.08-.05A.1.1,0,0,0,40.88,23.17Z"/><path class="cls-8" d="M30,23.2h-.08a.08.08,0,0,0-.05.1.08.08,0,0,0,.06.08h0a.08.08,0,0,0,.08-.05.07.07,0,0,0,0-.05.09.09,0,0,0,0-.05Z"/><path class="cls-8" d="M35.23,23.29s0,0,0,0v.05s0,0,0,0a.06.06,0,0,0,0,0,.08.08,0,0,0,.06,0,.09.09,0,0,0,0-.07A.07.07,0,0,0,35.23,23.29Z"/><path class="cls-8" d="M35.77,19.09h0a.13.13,0,0,0-.09.1.14.14,0,0,0,0,.09.13.13,0,0,0,.07.09h.12a.14.14,0,0,0,.08-.09v-.09A.14.14,0,0,0,35.77,19.09Z"/><path class="cls-8" d="M39.58,19.26l0,0a.05.05,0,0,0,.06.07.08.08,0,0,0,0,0S39.61,19.24,39.58,19.26Z"/></g></g></svg>