<?xml version="1.0" encoding="UTF-8"?>
<svg xmlns="http://www.w3.org/2000/svg" viewBox="0 0 40 50">
  <defs>
    <style>
      .cls-1 {
        fill: #39385d;
      }

      .cls-2 {
        fill: none;
      }
    </style>
  </defs>
  <g id="レイヤー_2" data-name="レイヤー 2">
    <g id="レイヤー_1-2" data-name="レイヤー 1">
      <path class="cls-1" d="M17.76,19.6H13.84c-1.26,7-5,11.89-12.18,14-.27-1.25-.52-2.38-.77-3.53,6.19-2.16,9.64-6.35,9.44-12.81-.19-6-3.49-9.93-9.42-11.88L1.6,1.89a13.91,13.91,0,0,1,9.12,6.17,31.35,31.35,0,0,1,2.78,6.61c.3.88.53,1.29,1.48,1.22s1.7,0,2.75,0V1.18h3.64V15.87a25.11,25.11,0,0,0,3.29,0c.34-.05.76-.68.85-1.11,1.4-6.22,4.87-10.58,11.05-12.59.26-.08.54-.12.95-.22.27,1.17.51,2.25.78,3.43-6.21,2.1-9.68,6.31-9.49,12.91C29,23.91,32,27.53,38.26,30.07c-.23,1.09-.47,2.22-.7,3.33-5.89-.72-10.41-5.83-12.27-13.84H21.5c0,.61-.07,1.07-.07,1.53,0,4,0,8.05,0,12.08a1.84,1.84,0,0,0,1.28,2,7,7,0,0,1,3.52,9.54,7.26,7.26,0,0,1-9.72,3.56,7.05,7.05,0,0,1-4.23-6.71,6.79,6.79,0,0,1,4.33-6.47,1.71,1.71,0,0,0,1.2-1.88c0-4,0-8.06,0-12.08Zm5.47,22.11a3.67,3.67,0,0,0-7.34-.23,3.67,3.67,0,1,0,7.34.23Z"/>
      <rect class="cls-2" width="40" height="50"/>
    </g>
  </g>
</svg>