<?xml version="1.0" encoding="UTF-8"?>
<svg id="_レイヤー_2" data-name="レイヤー 2" xmlns="http://www.w3.org/2000/svg" viewBox="0 0 13.94 21.62">
  <defs>
    <style>
      .cls-1 {
        fill: #a29381;
        stroke-width: 0px;
      }
    </style>
  </defs>
  <g id="_固定" data-name="固定">
    <g>
      <rect class="cls-1" x="2.98" y=".19" width="1.3" height="17.79"/>
      <path class="cls-1" d="m4.28,18.18h-1.3c-.11,0-.19-.09-.19-.19V.19c0-.11.09-.19.19-.19h1.3c.11,0,.19.09.19.19v17.79c0,.11-.09.19-.19.19Zm-1.1-.39h.91V.39h-.91v17.41Z"/>
      <g>
        <rect class="cls-1" x=".19" y="2.93" width="6.88" height="1.3"/>
        <path class="cls-1" d="m7.07,4.43H.19c-.11,0-.19-.09-.19-.19v-1.3c0-.11.09-.19.19-.19h6.88c.11,0,.19.09.19.19v1.3c0,.11-.09.19-.19.19Zm-6.68-.39h6.49v-.91H.39v.91Z"/>
      </g>
      <g>
        <path class="cls-1" d="m11.67,21.43c-1.08,0-2.34-.3-3.19-1.48-1.17-1.61-.02-3.7,1.21-5.9,1.58-2.84,2.5-4.82,1.06-6.3-.31-.32-1.02-.64-2.03-.52-.96.12-2.82.74-4.51,3.62l-1.12-.66c1.97-3.36,4.28-4.11,5.48-4.25,1.23-.15,2.43.2,3.12.9,2.23,2.28.59,5.23-.85,7.84-1.02,1.84-1.98,3.57-1.29,4.51,1.16,1.6,3.76.69,3.78.68l.44,1.22c-.07.03-.98.34-2.07.34Z"/>
        <path class="cls-1" d="m11.67,21.62c-1.45,0-2.61-.54-3.35-1.55-1.25-1.71-.06-3.85,1.19-6.11,1.53-2.77,2.44-4.69,1.09-6.08-.28-.28-.93-.58-1.87-.46-.93.11-2.73.72-4.37,3.53-.03.04-.07.08-.12.09-.05.01-.1,0-.15-.02l-1.12-.66s-.08-.07-.09-.12c-.01-.05,0-.1.02-.15,2.02-3.43,4.39-4.2,5.62-4.35,1.29-.16,2.55.21,3.28.96,2.33,2.39.65,5.4-.82,8.06-.99,1.78-1.92,3.46-1.3,4.3,1.06,1.46,3.46.64,3.56.61.1-.04.21.02.25.12l.44,1.22s.02.1,0,.15c-.02.05-.06.08-.11.1-.24.08-1.1.35-2.14.35Zm-2.53-14.61c.84,0,1.44.29,1.74.6,1.54,1.58.59,3.61-1.03,6.53-1.19,2.15-2.32,4.19-1.22,5.7.68.93,1.7,1.4,3.04,1.4.8,0,1.49-.17,1.83-.27l-.31-.86c-.64.18-2.76.65-3.82-.8-.76-1.04.23-2.82,1.28-4.71,1.41-2.55,3.01-5.43.88-7.61-.65-.67-1.78-.98-2.96-.84-1.14.14-3.33.85-5.24,3.99l.79.46c1.7-2.81,3.58-3.43,4.56-3.55.16-.02.31-.03.46-.03Z"/>
      </g>
    </g>
  </g>
</svg>