<?xml version="1.0" encoding="UTF-8"?>
<svg id="_レイヤー_2" data-name="レイヤー 2" xmlns="http://www.w3.org/2000/svg" viewBox="0 0 14.34 24.52">
  <defs>
    <style>
      .cls-1 {
        fill: #719aa7;
        stroke-width: 0px;
      }
    </style>
  </defs>
  <g id="_固定" data-name="固定">
    <g>
      <path class="cls-1" d="m7.17,17.34c-3.95,0-7.17-3.22-7.17-7.17S3.22,3,7.17,3s7.17,3.22,7.17,7.17-3.22,7.17-7.17,7.17Zm0-12.99c-3.21,0-5.82,2.61-5.82,5.82s2.61,5.82,5.82,5.82,5.82-2.61,5.82-5.82-2.61-5.82-5.82-5.82Z"/>
      <path class="cls-1" d="m7.23,4.42C4.25,4.42,1.82,2.44,1.82,0h1.36c0,1.69,1.82,3.07,4.05,3.07s4.05-1.38,4.05-3.07h1.36c0,2.44-2.43,4.42-5.41,4.42Z"/>
      <rect class="cls-1" x="6.49" y="16.66" width="1.36" height="7.85"/>
      <rect class="cls-1" x="3.3" y="19.91" width="7.85" height="1.36"/>
    </g>
  </g>
</svg>