<?xml version="1.0" encoding="UTF-8"?>
<svg id="_レイヤー_2" data-name="レイヤー 2" xmlns="http://www.w3.org/2000/svg" viewBox="0 0 85.68 6.44">
  <defs>
    <style>
      .cls-1 {
        fill: #F5D09B;
        stroke-width: 0px;
      }
    </style>
  </defs>
  <g id="_固定" data-name="固定">
    <g>
      <path class="cls-1" d="m80.84,3.22c0-.64-.52-1.16-1.16-1.16s-1.16.52-1.16,1.16.52,1.16,1.16,1.16,1.16-.52,1.16-1.16Z"/>
      <path class="cls-1" d="m2.72,3.22c0-.75-.61-1.36-1.36-1.36s-1.36.61-1.36,1.36.61,1.36,1.36,1.36,1.36-.61,1.36-1.36Z"/>
      <path class="cls-1" d="m85.68,3.22h0c-.24.97-1.43,1.08-1.67,1.09.07.23.1.46.1.66,0,1.14-1,1.44-1.07,1.47,0,0-.41-3.03-3.91-3.22,0,0,3.25,0,3.91-3.22,0,0,1.46.45.97,2.13,0,0,1.42.03,1.67,1.09Z"/>
      <path class="cls-1" d="m.16,3.22s44.62.94,56.84.94,22.13-.42,22.13-.94-9.91-.94-22.13-.94S.16,3.22.16,3.22Z"/>
    </g>
  </g>
</svg>
