<?xml version="1.0" encoding="UTF-8"?>
<svg id="_レイヤー_2" data-name="レイヤー 2" xmlns="http://www.w3.org/2000/svg" viewBox="0 0 85.08 6.44">
  <defs>
    <style>
      .cls-1 {
        fill: #F5D09B;
        stroke-width: 0px;
      }
    </style>
  </defs>
  <g id="_固定" data-name="固定">
    <g>
      <path class="cls-1" d="m4.81,3.22c0-.64.52-1.15,1.15-1.15s1.15.52,1.15,1.15-.52,1.15-1.15,1.15-1.15-.52-1.15-1.15Z"/>
      <path class="cls-1" d="m82.36,3.25c0-.75.61-1.36,1.36-1.36s1.36.61,1.36,1.36-.61,1.36-1.36,1.36-1.36-.61-1.36-1.36Z"/>
      <path class="cls-1" d="m0,3.22h0c.24.97,1.42,1.08,1.66,1.09-.07.23-.1.46-.1.66,0,1.14.99,1.44,1.06,1.47,0,0,.41-3.03,3.88-3.22,0,0-3.23,0-3.88-3.22,0,0-1.45.45-.96,2.13,0,0-1.41.03-1.66,1.09Z"/>
      <path class="cls-1" d="m84.92,3.22s-44.3-.94-56.44-.94-21.97.42-21.97.94,9.84.94,21.97.94,56.44-.94,56.44-.94Z"/>
    </g>
  </g>
</svg>
