<?xml version="1.0" encoding="UTF-8"?>
<svg id="_レイヤー_2" data-name="レイヤー 2" xmlns="http://www.w3.org/2000/svg" viewBox="0 0 249.45 34.85">
  <defs>
    <style>
      .cls-1 {
        fill: #aec3d0;
        stroke-width: 0px;
      }
    </style>
  </defs>
  <g id="_装飾" data-name="装飾">
    <g>
      <g>
        <g>
          <path class="cls-1" d="m249.45,2.7s-1.15-6.09-9.02.04c0,0,7.42,6.19,9.02-.04Zm-1.81.03c0,.16-.13.29-.3.29-.17,0-.3-.13-.3-.29,0-.16.13-.29.3-.29.17,0,.3.13.3.29Zm-5.26.01s.51-1.83,4.12-.02c0,0-3.37,1.88-4.12.02Z"/>
          <path class="cls-1" d="m239.85,3.57c-.46,0-.83-.36-.83-.8h0c0-.45.37-.81.83-.81h0c.46,0,.83.36.83.8h0c0,.45-.37.81-.83.81h0Z"/>
          <path class="cls-1" d="m233.48,3.59c-.46,0-.83-.36-.83-.8h0c0-.45.37-.81.83-.81h0c.46,0,.83.36.83.8h0c0,.45-.37.81-.83.81h0Z"/>
          <path class="cls-1" d="m236.66,4.91s2.84-2.14,2.81-2.15c.02-.01-2.83-2.13-2.83-2.13-.33.7-2.83,2.15-2.82,2.15-.04.02,2.5,1.43,2.84,2.13Z"/>
          <path class="cls-1" d="m162.7,2.75c-5.12-3.99-5.87-.02-5.87-.02,1.04,4.05,5.87.02,5.87.02Zm-4.5-.19c.11,0,.2.09.19.19,0,.11-.09.19-.2.19-.11,0-.2-.09-.19-.19s.09-.19.2-.19Zm.55.19c2.35-1.18,2.68.01,2.68.01-.49,1.21-2.68-.01-2.68-.01Z"/>
          <path class="cls-1" d="m163.08,3.3c.3,0,.54-.23.54-.52h0c0-.29-.24-.53-.54-.53h0c-.3,0-.54.23-.54.52h0c0,.29.24.53.54.53h0Z"/>
        </g>
        <rect class="cls-1" x="163.62" y="2.5" width="69.86" height=".57"/>
      </g>
      <g>
        <path class="cls-1" d="m124.91,30.27s-.06-.03-.17-.09c-.06-.03-.12-.07-.2-.13-.08-.05-.16-.13-.25-.21-.17-.17-.36-.41-.51-.73-.15-.32-.26-.71-.31-1.16-.1-.9.02-2.03.38-3.28.18-.62.42-1.28.74-1.94.16-.33.34-.66.55-.98.22-.33.44-.67.67-1.02.92-1.38,1.94-2.89,3.21-4.34.64-.73,1.34-1.44,2.12-2.09.39-.32.81-.63,1.25-.92.44-.28.9-.54,1.38-.76.48-.23.99-.4,1.51-.55.26-.08.53-.12.8-.18.27-.04.54-.08.83-.1,1.13-.11,2.29-.11,3.43.09.57.09,1.12.26,1.64.47.53.21,1,.52,1.4.88.4.37.7.81.84,1.3.15.48.09,1-.11,1.46-.03.08-.07.16-.12.23-.05.07-.09.15-.14.22-.12.14-.22.28-.37.4-.26.26-.59.45-.92.64-.69.34-1.47.53-2.26.62-.79.08-1.6.07-2.39,0-.77-.07-1.53-.26-2.26-.5-1.48-.49-2.87-1.17-4.18-1.87-1.31-.71-2.55-1.46-3.73-2.2-2.35-1.48-4.47-2.91-6.35-4.15-1.88-1.24-3.52-2.31-4.88-3.14-1.31-.9-2.93-2-4.9-3.13-.99-.56-2.06-1.13-3.25-1.65-1.19-.51-2.48-.98-3.92-1.22-.72-.12-1.48-.18-2.25-.12-.78.06-1.57.25-2.32.59-.19.08-.36.19-.55.29-.18.11-.35.22-.52.34-.16.13-.32.25-.49.4-.16.15-.32.31-.46.51-.28.37-.46.84-.5,1.32-.04.48.05.95.21,1.37.33.85.9,1.54,1.54,2.13.65.59,1.39,1.1,2.22,1.46.4.21.83.34,1.25.5.21.07.43.12.65.18l.33.09c.11.03.22.05.33.07.22.04.44.09.66.13.22.03.45.06.67.09l.34.04.34.03c.23.02.45.03.68.05,2.66.12,5.22-.21,7.64-.62.61-.1,1.2-.22,1.79-.33.15-.03.3-.06.45-.09.16-.03.31-.07.46-.11.3-.08.59-.17.88-.27,1.14-.4,2.19-.86,3.22-1.32,2.04-.93,3.94-1.86,5.74-2.7,1.79-.84,3.48-1.59,5.04-2.21,1.56-.62,3.01-1.1,4.3-1.42,1.3-.32,2.45-.45,3.38-.41.94.04,1.65.27,2.08.51.11.06.2.11.28.17.08.05.14.09.19.14.1.08.15.12.15.12,0,0-.05-.04-.14-.13-.05-.04-.11-.09-.18-.15-.07-.06-.16-.12-.27-.18-.42-.27-1.13-.55-2.09-.65-.96-.1-2.14-.02-3.48.24-1.33.26-2.82.68-4.43,1.24-1.61.56-3.33,1.25-5.17,2.03-1.83.78-3.77,1.66-5.81,2.53-1.02.43-2.08.87-3.16,1.22-.27.09-.54.17-.81.24-.14.03-.27.06-.4.09l-.43.08c-.59.11-1.18.21-1.78.3-2.39.38-4.88.68-7.39.56-.21-.02-.42-.03-.64-.05l-.32-.02-.31-.04c-.21-.03-.42-.05-.62-.08-.2-.04-.41-.08-.61-.12-.1-.02-.2-.04-.3-.06l-.3-.08c-.2-.06-.4-.1-.59-.16-.38-.14-.77-.25-1.12-.43-.73-.31-1.38-.75-1.95-1.25-.56-.5-1.04-1.09-1.3-1.71-.12-.31-.19-.63-.17-.92.02-.3.12-.58.29-.83.08-.13.19-.24.31-.36.12-.11.27-.23.4-.34.14-.1.28-.2.43-.3.15-.08.3-.18.45-.25,1.24-.62,2.68-.69,4.01-.51,1.34.18,2.61.59,3.78,1.04,1.17.46,2.25.98,3.25,1.49,1.99,1.03,3.66,2.05,5.02,2.88,1.31.9,2.89,2.04,4.71,3.36,1.82,1.32,3.88,2.83,6.21,4.39,1.16.78,2.4,1.57,3.72,2.33,1.33.75,2.74,1.49,4.31,2.04.79.27,1.62.49,2.5.59.86.08,1.73.1,2.63.02.89-.1,1.8-.3,2.66-.72.42-.23.84-.47,1.2-.82.19-.16.34-.36.51-.55.07-.1.14-.21.21-.32.07-.1.12-.22.18-.34.31-.69.39-1.5.17-2.21-.21-.72-.64-1.33-1.16-1.81-.52-.47-1.12-.84-1.74-1.08-.62-.25-1.26-.43-1.9-.53-1.27-.21-2.53-.19-3.73-.05-.3.02-.6.08-.91.13-.3.07-.6.13-.89.22-.58.17-1.14.38-1.66.64-.52.26-1.02.55-1.48.87-.46.32-.89.66-1.3,1.02-.81.71-1.52,1.48-2.15,2.25-1.26,1.55-2.23,3.11-3.09,4.54-.21.36-.42.7-.63,1.04-.21.35-.39.71-.54,1.06-.3.7-.51,1.39-.66,2.03-.3,1.3-.36,2.46-.2,3.39.08.46.22.86.39,1.18.17.32.38.56.57.72.1.08.18.15.26.2.08.05.15.09.21.12.12.05.17.08.17.08Z"/>
        <path class="cls-1" d="m124.93,30.27s.06-.03.17-.08c.06-.02.13-.07.21-.12.08-.05.17-.12.26-.2.19-.16.4-.4.57-.72.17-.32.31-.72.39-1.18.16-.93.1-2.09-.2-3.39-.15-.65-.36-1.33-.66-2.03-.15-.35-.32-.71-.54-1.06-.2-.34-.41-.69-.63-1.04-.86-1.43-1.83-2.99-3.09-4.54-.63-.77-1.34-1.54-2.15-2.25-.41-.35-.84-.7-1.3-1.02-.47-.32-.96-.61-1.48-.87-.52-.26-1.08-.47-1.66-.64-.29-.09-.59-.15-.89-.22-.3-.05-.61-.1-.91-.13-1.2-.14-2.46-.16-3.73.05-.64.1-1.28.28-1.9.53-.62.25-1.22.61-1.74,1.08-.52.47-.95,1.09-1.16,1.81-.22.71-.15,1.52.17,2.21.05.12.1.24.18.34.07.11.13.22.21.32.16.19.32.39.51.55.36.35.78.59,1.2.82.86.42,1.77.62,2.66.72.89.09,1.77.06,2.63-.02.88-.1,1.72-.32,2.5-.59,1.57-.55,2.99-1.28,4.31-2.04,1.32-.76,2.56-1.55,3.72-2.33,2.32-1.56,4.38-3.07,6.21-4.39,1.82-1.32,3.4-2.46,4.71-3.36,1.35-.83,3.02-1.85,5.02-2.88,1-.51,2.08-1.03,3.25-1.49,1.17-.45,2.43-.86,3.78-1.04,1.33-.18,2.77-.11,4.01.51.16.07.3.17.45.25.15.09.29.2.43.3.13.11.28.23.4.34.12.11.22.23.31.36.18.25.27.53.29.83.02.3-.05.61-.17.92-.26.62-.73,1.21-1.3,1.71-.57.5-1.22.94-1.95,1.25-.35.18-.74.3-1.12.43-.19.06-.39.11-.59.16l-.3.08c-.1.02-.2.04-.3.06-.2.04-.41.08-.61.12-.21.03-.42.05-.62.08l-.31.04-.32.02c-.21.02-.42.03-.64.05-2.52.12-5.01-.18-7.39-.56-.6-.09-1.19-.2-1.78-.3l-.43-.08c-.13-.03-.27-.06-.4-.09-.27-.07-.54-.15-.81-.24-1.08-.35-2.13-.79-3.16-1.22-2.04-.87-3.98-1.75-5.81-2.53-1.83-.78-3.56-1.48-5.17-2.03-1.61-.56-3.09-.98-4.43-1.24-1.33-.26-2.52-.34-3.48-.24-.96.1-1.67.38-2.09.65-.11.06-.2.13-.27.18-.08.05-.14.1-.18.15-.09.08-.14.13-.14.13,0,0,.05-.04.15-.12.05-.04.11-.09.19-.14.08-.05.17-.11.28-.17.43-.24,1.14-.47,2.08-.51.94-.05,2.09.09,3.38.41,1.3.32,2.74.8,4.3,1.42,1.56.62,3.25,1.37,5.04,2.21,1.8.84,3.7,1.77,5.74,2.7,1.02.46,2.08.93,3.22,1.32.28.1.58.19.88.27.15.04.3.08.46.11.15.03.3.06.45.09.59.12,1.19.23,1.79.33,2.42.42,4.98.75,7.64.62.23-.02.45-.03.68-.05l.34-.03.34-.04c.22-.03.45-.06.67-.09.22-.04.44-.09.66-.13.11-.02.22-.04.33-.07l.33-.09c.22-.06.43-.11.65-.18.42-.16.85-.29,1.25-.5.82-.36,1.57-.87,2.22-1.46.64-.59,1.21-1.29,1.54-2.13.16-.42.25-.89.21-1.37-.04-.48-.22-.95-.5-1.32-.13-.19-.29-.35-.46-.51-.16-.14-.32-.26-.49-.4-.17-.12-.34-.23-.52-.34-.18-.1-.36-.21-.55-.29-.75-.35-1.54-.53-2.32-.59-.78-.06-1.53,0-2.25.12-1.44.24-2.74.72-3.92,1.22-1.18.52-2.26,1.08-3.25,1.65-1.97,1.13-3.59,2.23-4.9,3.13-1.36.84-3,1.9-4.88,3.14-1.88,1.24-4,2.67-6.35,4.15-1.18.74-2.42,1.49-3.73,2.2-1.31.71-2.7,1.39-4.18,1.87-.74.24-1.5.43-2.26.5-.79.06-1.6.08-2.39,0-.79-.09-1.57-.28-2.26-.62-.33-.18-.66-.38-.92-.64-.14-.12-.25-.26-.37-.4-.05-.07-.09-.15-.14-.22-.05-.07-.09-.15-.12-.23-.21-.46-.26-.98-.11-1.46.14-.48.44-.93.84-1.3.4-.37.87-.67,1.4-.88.52-.22,1.07-.38,1.64-.47,1.13-.2,2.3-.2,3.43-.09.29.02.56.06.83.1.27.05.54.1.8.18.52.14,1.03.32,1.51.55.48.22.94.48,1.38.76.44.29.85.59,1.25.92.79.65,1.49,1.36,2.12,2.09,1.27,1.46,2.29,2.96,3.21,4.34.23.35.45.69.67,1.02.21.32.39.65.55.98.32.66.56,1.31.74,1.94.36,1.25.48,2.37.38,3.28-.05.45-.16.85-.31,1.16-.15.32-.33.56-.51.73-.09.08-.17.16-.25.21-.08.06-.14.1-.2.13-.11.06-.17.09-.17.09Z"/>
      </g>
      <g>
        <path class="cls-1" d="m125.07,29.99c-3.58,4.16-.13,4.86-.13,4.86,3.56-.79.13-4.86.13-4.86Zm-.25,3.72c0-.09.08-.16.17-.16s.16.08.16.17-.08.16-.17.16-.16-.08-.16-.17Zm.17-.45c-.99-1.97.06-2.22.06-2.22,1.05.43-.06,2.22-.06,2.22Z"/>
        <path class="cls-1" d="m125.56,29.68c0-.25-.19-.45-.45-.46h0c-.25,0-.46.19-.47.44h0c0,.25.19.45.45.46h0c.25,0,.46-.19.47-.44h0Z"/>
      </g>
      <g>
        <g>
          <path class="cls-1" d="m9.02,2.73c-7.87-6.13-9.02-.04-9.02-.04,1.6,6.22,9.02.04,9.02.04Zm-6.91-.29c.17,0,.3.13.3.29,0,.16-.14.29-.3.29-.17,0-.3-.13-.3-.29,0-.16.14-.29.3-.29Zm.84.29c3.61-1.82,4.12.02,4.12.02-.75,1.87-4.12-.02-4.12-.02Z"/>
          <path class="cls-1" d="m9.6,3.57c.46,0,.83-.36.83-.8h0c0-.45-.37-.81-.83-.81h0c-.46,0-.83.36-.83.8h0c0,.45.37.81.83.81h0Z"/>
          <path class="cls-1" d="m15.97,3.59c.46,0,.83-.36.83-.8h0c0-.45-.37-.81-.83-.81h0c-.46,0-.83.36-.83.8h0c0,.45.37.81.83.81h0Z"/>
          <path class="cls-1" d="m12.79,4.91s-2.84-2.14-2.81-2.15c-.02-.01,2.83-2.13,2.83-2.13.33.7,2.83,2.15,2.82,2.15.04.02-2.5,1.43-2.84,2.13Z"/>
          <path class="cls-1" d="m92.62,2.73s-.75-3.97-5.87.02c0,0,4.83,4.03,5.87-.02Zm-1.18.02c0,.11-.09.19-.19.19-.11,0-.2-.08-.2-.19,0-.11.09-.19.19-.19.11,0,.2.08.2.19Zm-3.43,0s.33-1.19,2.68-.01c0,0-2.19,1.23-2.68.01Z"/>
          <path class="cls-1" d="m86.37,3.3c-.3,0-.54-.23-.54-.52h0c0-.29.24-.53.54-.53h0c.3,0,.54.23.54.52h0c0,.29-.24.53-.54.53h0Z"/>
        </g>
        <rect class="cls-1" x="15.97" y="2.5" width="69.86" height=".57"/>
      </g>
    </g>
  </g>
</svg>