<svg xmlns="http://www.w3.org/2000/svg" viewBox="0 0 268.6 20.46"><g id="Layer_2" data-name="Layer 2"><g id="固定"><path d="M4.81,9.35A1.15,1.15,0,1,1,6,10.5,1.14,1.14,0,0,1,4.81,9.35Z" transform="translate(0 -0.83)" fill="#77a5be"/><path d="M82.36,9.38a1.36,1.36,0,1,1,1.36,1.36A1.36,1.36,0,0,1,82.36,9.38Z" transform="translate(0 -0.83)" fill="#77a5be"/><path d="M0,9.35H0c.24,1,1.42,1.07,1.66,1.08a2.24,2.24,0,0,0-.1.65,1.53,1.53,0,0,0,1.06,1.48A3.91,3.91,0,0,1,6.5,9.35,4,4,0,0,1,2.62,6.13a1.61,1.61,0,0,0-1,2.13S.25,8.3,0,9.35Z" transform="translate(0 -0.83)" fill="#77a5be"/><path d="M84.92,9.35s-44.31-.94-56.44-.94-22,.42-22,.94,9.84.94,22,.94S84.92,9.35,84.92,9.35Z" transform="translate(0 -0.83)" fill="#77a5be"/><path d="M263.76,9.35a1.16,1.16,0,1,0-1.16,1.16A1.16,1.16,0,0,0,263.76,9.35Z" transform="translate(0 -0.83)" fill="#77a5be"/><path d="M185.64,9.35a1.36,1.36,0,1,0-1.36,1.36A1.36,1.36,0,0,0,185.64,9.35Z" transform="translate(0 -0.83)" fill="#77a5be"/><path d="M268.6,9.35h0c-.24,1-1.43,1.07-1.67,1.08a2.24,2.24,0,0,1,.1.65A1.54,1.54,0,0,1,266,12.57a3.92,3.92,0,0,0-3.91-3.22A4,4,0,0,0,266,6.13a1.6,1.6,0,0,1,1,2.13S268.35,8.3,268.6,9.35Z" transform="translate(0 -0.83)" fill="#77a5be"/><path d="M183.08,9.35s44.62.94,56.84.94,22.13-.42,22.13-.94-9.91-.94-22.13-.94S183.08,9.35,183.08,9.35Z" transform="translate(0 -0.83)" fill="#77a5be"/><path d="M114.38,5.64a6.67,6.67,0,0,1,1.7.49,2.84,2.84,0,0,1,1,.68,1.8,1.8,0,0,1,.38.72,1,1,0,0,1-.07.61.62.62,0,0,1-.41.32.85.85,0,0,1-.63-.16,3.4,3.4,0,0,0-.49-.91,8.17,8.17,0,0,0-.78-.88,6.56,6.56,0,0,0-.87-.69Zm1,7.86a.49.49,0,0,0,.27-.06,1.08,1.08,0,0,0,.23-.36,3.17,3.17,0,0,0,.21-.41l.28-.64c.12-.29.31-.72.56-1.3s.58-1.37,1-2.36L119.6,4.5l.4.1c-.18.49-.37,1.05-.58,1.68l-.66,1.92c-.23.65-.45,1.28-.65,1.88s-.39,1.12-.53,1.56-.25.75-.3.94a6.32,6.32,0,0,0-.22.91,4.1,4.1,0,0,0-.08.81,3.28,3.28,0,0,0,.15.94,11.33,11.33,0,0,1,.27,1.11,6.34,6.34,0,0,1,.08,1.43,1.83,1.83,0,0,1-.3,1,.9.9,0,0,1-.76.37.49.49,0,0,1-.44-.26,1.56,1.56,0,0,1-.2-.74,16.51,16.51,0,0,0,.15-1.87,7.55,7.55,0,0,0-.1-1.39,1.09,1.09,0,0,0-.33-.68,1.2,1.2,0,0,0-.41-.2,2.79,2.79,0,0,0-.55-.08V13.5h.86ZM115.92,1a6.43,6.43,0,0,1,1.73.54,3.49,3.49,0,0,1,1,.72A1.53,1.53,0,0,1,119,3a1,1,0,0,1-.07.61.58.58,0,0,1-.42.31,1,1,0,0,1-.65-.14,3.8,3.8,0,0,0-.51-.94,7.64,7.64,0,0,0-.8-.92,7.81,7.81,0,0,0-.87-.74Zm2.5,9.62H130.7l.86-1.14.91.78c.24.21.46.42.65.62a.45.45,0,0,1-.5.32h-14Zm4.24-9.8,2,.68a.54.54,0,0,1-.25.27,1,1,0,0,1-.51.09A17.48,17.48,0,0,1,122,5.45a12.55,12.55,0,0,1-2.48,2.63l-.26-.22A14.07,14.07,0,0,0,120.55,6a21.65,21.65,0,0,0,1.2-2.41A20.61,20.61,0,0,0,122.66.86ZM123,6.4c-.1.59-.21,1.32-.34,2.21s-.29,1.84-.46,2.86-.35,2-.53,3-.35,1.87-.49,2.66a1.2,1.2,0,0,1-.53.15,3.87,3.87,0,0,1-.85-.09c.18-.88.38-1.84.58-2.87s.39-2.08.57-3.13.34-2,.5-3,.27-1.77.37-2.48l1.46.68Zm-2.18,8.66h9.62l.86-1.22.59.52.52.48c.18.17.34.34.49.5,0,.2-.22.3-.52.3H120.84ZM122,3.72H130l.94-1.16.6.49.55.48.53.47c0,.21-.22.32-.54.32H122Zm.42,2.68h7.48V7h-7.48Zm3.14,0h1.16c-.06.61-.12,1.32-.2,2.11s-.17,1.61-.27,2.44-.2,1.63-.29,2.4-.18,1.44-.26,2h-1.28c.09-.59.19-1.27.31-2s.22-1.58.33-2.42.2-1.65.29-2.43S125.54,7,125.6,6.4Zm3.82,0h-.22l.74-.82,1.48,1.26a.6.6,0,0,1-.28.19,3.58,3.58,0,0,1-.54.13c0,1.57-.11,3-.2,4.25s-.21,2.36-.34,3.29a16.78,16.78,0,0,1-.47,2.29,3.24,3.24,0,0,1-.63,1.27,2.33,2.33,0,0,1-1,.67,3.53,3.53,0,0,1-1.23.21,2.06,2.06,0,0,0-.07-.53.72.72,0,0,0-.27-.37,1.92,1.92,0,0,0-.75-.3l-1.09-.22,0-.36c.28,0,.59,0,1,.08l1,.1c.31,0,.53,0,.67,0a1.48,1.48,0,0,0,.48-.06,1,1,0,0,0,.32-.22,3.68,3.68,0,0,0,.65-1.76,37,37,0,0,0,.46-3.73C129.25,10.26,129.35,8.45,129.42,6.4Z" transform="translate(0 -0.83)" fill="#3379a6"/><path d="M136.42,17.64h15.16l1-1.3c.24.2.46.38.67.53s.42.32.64.51l.61.52q-.09.3-.54.3H136.6Zm.88-15h13.36l1-1.28.68.53c.2.15.41.32.62.51l.58.52c0,.21-.21.32-.52.32h-15.6Zm.86,7H150l1-1.24.64.53.6.49c.21.17.4.34.58.5,0,.21-.22.32-.52.32h-14Zm6.58-7h1.38v15.2h-1.38Z" transform="translate(0 -0.83)" fill="#3379a6"/><path d="M158.3,18.06h15.54l1-1.26.63.51.58.49c.2.17.39.35.57.52-.06.21-.23.32-.54.32H158.48ZM163,8.76l1.92.84a.8.8,0,0,1-.27.24.77.77,0,0,1-.51,0A14,14,0,0,1,162,12.8a12,12,0,0,1-2.56,2.06l-.24-.24a12.17,12.17,0,0,0,2.09-2.52A18.36,18.36,0,0,0,163,8.76Zm-1.88,5.7h11l.9-1.18.61.5.56.47.53.47c-.06.21-.24.32-.54.32H161.3Zm.48-12.4V1.38l1.44.68H173v.56H163V8.84s-.06.09-.17.16a2.38,2.38,0,0,1-.42.19,1.6,1.6,0,0,1-.53.09h-.22Zm.4,9.26h10.56l.94-1.18.62.49.55.47.53.5q-.09.3-.54.3H162Zm.2-6.5h10.6V5.4h-10.6Zm0,2.84h10.6v.58h-10.6ZM167,8.82,169,9a.58.58,0,0,1-.19.35,1.09,1.09,0,0,1-.53.21v8.7H167Zm5.22-6.76H172l.72-.84,1.66,1.26a1.06,1.06,0,0,1-.32.23,2.27,2.27,0,0,1-.52.17v5.8s-.07.09-.2.16a2.75,2.75,0,0,1-.46.18,1.84,1.84,0,0,1-.48.08h-.2Z" transform="translate(0 -0.83)" fill="#3379a6"/><path d="M100.35,14.41c-3.88,0-7-2.56-7-5.7h1.3c0,2.43,2.57,4.4,5.74,4.4s5.73-2,5.73-4.4h1.3C107.38,11.85,104.23,14.41,100.35,14.41Z" transform="translate(0 -0.83)" fill="#3379a6"/><rect x="99.73" y="12.93" width="1.3" height="7.53" fill="#3379a6"/><rect x="96.67" y="16.05" width="7.53" height="1.3" fill="#3379a6"/><rect x="93.31" y="1.06" width="1.3" height="6.85" fill="#3379a6"/><rect x="94.37" y="1.06" width="1.02" height="2.95" transform="translate(26 67.01) rotate(-45)" fill="#3379a6"/><polygon points="92.44 3.07 91.67 2.28 93.91 0 94.69 0.79 92.44 3.07" fill="#3379a6"/><rect x="99.69" y="1.06" width="1.3" height="11.87" fill="#3379a6"/><rect x="106.08" y="1.06" width="1.3" height="6.89" fill="#3379a6"/><rect x="100.75" y="1.07" width="1.02" height="2.95" transform="translate(27.86 71.52) rotate(-45)" fill="#3379a6"/><polygon points="98.82 3.08 98.04 2.29 100.29 0.01 101.07 0.8 98.82 3.08" fill="#3379a6"/><rect x="107.13" y="1.08" width="1.02" height="2.95" transform="translate(29.72 76.03) rotate(-45)" fill="#3379a6"/><polygon points="105.2 3.09 104.42 2.3 106.67 0.02 107.44 0.81 105.2 3.09" fill="#3379a6"/></g></g></svg>