<svg xmlns="http://www.w3.org/2000/svg" viewBox="0 0 268.6 20.42"><g id="Layer_2" data-name="Layer 2"><g id="固定"><path d="M4.81,9.35A1.15,1.15,0,1,1,6,10.5,1.14,1.14,0,0,1,4.81,9.35Z" transform="translate(0 -0.87)" fill="#60a5a1"/><path d="M82.36,9.38a1.36,1.36,0,1,1,1.36,1.36A1.36,1.36,0,0,1,82.36,9.38Z" transform="translate(0 -0.87)" fill="#60a5a1"/><path d="M0,9.35H0c.24,1,1.42,1.07,1.66,1.08a2.24,2.24,0,0,0-.1.65,1.53,1.53,0,0,0,1.06,1.48A3.91,3.91,0,0,1,6.5,9.35,4,4,0,0,1,2.62,6.13a1.61,1.61,0,0,0-1,2.13S.25,8.3,0,9.35Z" transform="translate(0 -0.87)" fill="#60a5a1"/><path d="M84.92,9.35s-44.31-.94-56.44-.94-22,.42-22,.94,9.84.94,22,.94S84.92,9.35,84.92,9.35Z" transform="translate(0 -0.87)" fill="#60a5a1"/><path d="M263.76,9.35a1.16,1.16,0,1,0-1.16,1.16A1.16,1.16,0,0,0,263.76,9.35Z" transform="translate(0 -0.87)" fill="#60a5a1"/><path d="M185.64,9.35a1.36,1.36,0,1,0-1.36,1.36A1.36,1.36,0,0,0,185.64,9.35Z" transform="translate(0 -0.87)" fill="#60a5a1"/><path d="M268.6,9.35h0c-.24,1-1.43,1.07-1.67,1.08a2.24,2.24,0,0,1,.1.65A1.54,1.54,0,0,1,266,12.57a3.92,3.92,0,0,0-3.91-3.22A4,4,0,0,0,266,6.13a1.6,1.6,0,0,1,1,2.13S268.35,8.3,268.6,9.35Z" transform="translate(0 -0.87)" fill="#60a5a1"/><path d="M183.08,9.35s44.62.94,56.84.94,22.13-.42,22.13-.94-9.91-.94-22.13-.94S183.08,9.35,183.08,9.35Z" transform="translate(0 -0.87)" fill="#60a5a1"/><path d="M122,2.82h2.16c0,1.29,0,2.52-.1,3.68a29.51,29.51,0,0,1-.34,3.28,12.57,12.57,0,0,1-.86,2.91,9.8,9.8,0,0,1-1.66,2.55,11.74,11.74,0,0,1-2.74,2.18,22.25,22.25,0,0,1-4.12,1.84l-.2-.34a17.7,17.7,0,0,0,3.95-2.47,10.29,10.29,0,0,0,2.32-2.8,11,11,0,0,0,1.14-3.18,22.57,22.57,0,0,0,.38-3.6C121.94,5.6,122,4.25,122,2.82Zm-7.54,0H129l1.24-1.56.81.63.75.59.72.6c-.06.21-.25.32-.58.32H114.62Zm.74,5.86h13.26l1.22-1.54c.29.24.55.45.79.63l.74.58c.26.21.49.4.69.59a.39.39,0,0,1-.18.22.8.8,0,0,1-.36.08h-16Zm9,.14a10.29,10.29,0,0,0,.81,2.42,9.55,9.55,0,0,0,1.58,2.32,11.72,11.72,0,0,0,2.56,2.09,18.29,18.29,0,0,0,3.73,1.73l0,.24a2.25,2.25,0,0,0-1.18.51,2,2,0,0,0-.58,1.19,12.65,12.65,0,0,1-3.25-2.19,11.39,11.39,0,0,1-2.11-2.64,12.72,12.72,0,0,1-1.23-2.83,19.34,19.34,0,0,1-.63-2.76Z" transform="translate(0 -0.87)" fill="#60a5a1"/><path d="M136.32,17.74h14.76l1.26-1.6.83.64.77.6c.26.21.5.42.72.62-.06.2-.24.3-.56.3H136.5Zm.86-15.14h13L151.46,1l.81.64.75.6.72.6c-.06.21-.24.32-.54.32H137.34Zm.8,7.1H149.6l1.22-1.52.78.61.72.57c.25.2.48.4.7.6,0,.21-.22.32-.54.32H138.14Zm6.4-7.06h2.06V17.9h-2.06Z" transform="translate(0 -0.87)" fill="#60a5a1"/><path d="M158.24,18.08H173.5l1.14-1.52.74.61.68.57a7.5,7.5,0,0,1,.64.6c-.06.21-.24.32-.54.32H158.4Zm4.42-9.42,2.5,1a.65.65,0,0,1-.28.26.87.87,0,0,1-.52.06A13.89,13.89,0,0,1,162,13.07a11.76,11.76,0,0,1-2.83,2l-.22-.2A14.85,14.85,0,0,0,161,12.21,17.62,17.62,0,0,0,162.66,8.66Zm-1.56,5.88H172l1.08-1.44.71.58.65.56.62.56c-.06.21-.24.32-.56.32H161.26ZM161.42,2V1.14l2.12.86h9.18v.58H163.4V8.66c0,.07-.09.15-.25.24a4.94,4.94,0,0,1-.63.27,2.4,2.4,0,0,1-.8.13h-.3Zm.4,9.44h10.42L173.36,10c.28.21.52.41.73.58l.65.56c.22.2.43.39.62.58q-.09.3-.54.3h-13Zm.46-6.66h10.36v.58H162.28Zm0,2.86h10.36v.58H162.28Zm4.42,1.1,2.72.24a.61.61,0,0,1-.17.37,1,1,0,0,1-.55.21v8.78h-2ZM171.78,2h-.2l1-1.06L174.6,2.5a.92.92,0,0,1-.29.24,1.73,1.73,0,0,1-.53.18V8.56s-.1.1-.28.18a5.27,5.27,0,0,1-.67.22,2.75,2.75,0,0,1-.71.1h-.34Z" transform="translate(0 -0.87)" fill="#60a5a1"/><path d="M100.52,21.29A3.25,3.25,0,1,1,103.77,18,3.26,3.26,0,0,1,100.52,21.29Zm0-5.17A1.92,1.92,0,1,0,102.44,18,1.93,1.93,0,0,0,100.52,16.12Z" transform="translate(0 -0.87)" fill="#60a5a1"/><path d="M108,14.29c-2.51,0-4.48-2.95-4.48-6.71s2-6.71,4.48-6.71V2.2c-1.71,0-3.15,2.47-3.15,5.38S106.25,13,108,13Z" transform="translate(0 -0.87)" fill="#60a5a1"/><path d="M93.08,14.29V13c1.71,0,3.15-2.46,3.15-5.38S94.79,2.2,93.08,2.2V.87c2.52,0,4.49,2.95,4.49,6.71S95.6,14.29,93.08,14.29Z" transform="translate(0 -0.87)" fill="#60a5a1"/><rect x="99.91" y="3.4" width="1.33" height="11.19" fill="#60a5a1"/><rect x="96.9" y="6.04" width="7.24" height="1.33" fill="#60a5a1"/></g></g></svg>