<svg xmlns="http://www.w3.org/2000/svg" viewBox="0 0 268.6 24.38"><g id="Layer_2" data-name="Layer 2"><g id="固定"><path d="M4.81,9.35A1.15,1.15,0,1,1,6,10.5,1.14,1.14,0,0,1,4.81,9.35Z" fill="#60a5a1"/><path d="M82.36,9.38a1.36,1.36,0,1,1,1.36,1.36A1.36,1.36,0,0,1,82.36,9.38Z" fill="#60a5a1"/><path d="M0,9.35H0c.24,1,1.42,1.07,1.66,1.08a2.24,2.24,0,0,0-.1.65,1.53,1.53,0,0,0,1.06,1.48A3.91,3.91,0,0,1,6.5,9.35,4,4,0,0,1,2.62,6.13a1.61,1.61,0,0,0-1,2.13S.25,8.3,0,9.35Z" fill="#60a5a1"/><path d="M84.92,9.35s-44.31-.94-56.44-.94-22,.42-22,.94,9.84.94,22,.94S84.92,9.35,84.92,9.35Z" fill="#60a5a1"/><path d="M263.76,9.35a1.16,1.16,0,1,0-1.16,1.16A1.16,1.16,0,0,0,263.76,9.35Z" fill="#60a5a1"/><path d="M185.64,9.35a1.36,1.36,0,1,0-1.36,1.36A1.36,1.36,0,0,0,185.64,9.35Z" fill="#60a5a1"/><path d="M268.6,9.35h0c-.24,1-1.43,1.07-1.67,1.08a2.24,2.24,0,0,1,.1.65A1.54,1.54,0,0,1,266,12.57a3.92,3.92,0,0,0-3.91-3.22A4,4,0,0,0,266,6.13a1.6,1.6,0,0,1,1,2.13S268.35,8.3,268.6,9.35Z" fill="#60a5a1"/><path d="M183.08,9.35s44.62.94,56.84.94,22.13-.42,22.13-.94-9.91-.94-22.13-.94S183.08,9.35,183.08,9.35Z" fill="#60a5a1"/><text transform="translate(113.44 17.6)" font-size="20" fill="#60a5a1" font-family="NotoSerifJP-Medium, NotoSerifJP Medium-83pv-RKSJ-H" font-weight="500" letter-spacing="0.1em">天王星</text><path d="M100.52,21.29A3.25,3.25,0,1,1,103.77,18,3.26,3.26,0,0,1,100.52,21.29Zm0-5.17A1.92,1.92,0,1,0,102.44,18,1.93,1.93,0,0,0,100.52,16.12Z" fill="#60a5a1"/><path d="M108,14.29c-2.51,0-4.48-2.95-4.48-6.71s2-6.71,4.48-6.71V2.2c-1.71,0-3.15,2.47-3.15,5.38S106.25,13,108,13Z" fill="#60a5a1"/><path d="M93.08,14.29V13c1.71,0,3.15-2.46,3.15-5.38S94.79,2.2,93.08,2.2V.87c2.52,0,4.49,2.95,4.49,6.71S95.6,14.29,93.08,14.29Z" fill="#60a5a1"/><rect x="99.91" y="4.27" width="1.33" height="11.19" fill="#60a5a1"/><rect x="96.9" y="6.92" width="7.24" height="1.33" fill="#60a5a1"/></g></g></svg>