<svg xmlns="http://www.w3.org/2000/svg" viewBox="0 0 268.6 24.38"><g id="Layer_2" data-name="Layer 2"><g id="固定"><path d="M4.81,9.35A1.15,1.15,0,1,1,6,10.5,1.14,1.14,0,0,1,4.81,9.35Z" fill="#77a5be"/><path d="M82.36,9.38a1.36,1.36,0,1,1,1.36,1.36A1.36,1.36,0,0,1,82.36,9.38Z" fill="#77a5be"/><path d="M0,9.35H0c.24,1,1.42,1.07,1.66,1.08a2.24,2.24,0,0,0-.1.65,1.53,1.53,0,0,0,1.06,1.48A3.91,3.91,0,0,1,6.5,9.35,4,4,0,0,1,2.62,6.13a1.61,1.61,0,0,0-1,2.13S.25,8.3,0,9.35Z" fill="#77a5be"/><path d="M84.92,9.35s-44.31-.94-56.44-.94-22,.42-22,.94,9.84.94,22,.94S84.92,9.35,84.92,9.35Z" fill="#77a5be"/><path d="M263.76,9.35a1.16,1.16,0,1,0-1.16,1.16A1.16,1.16,0,0,0,263.76,9.35Z" fill="#77a5be"/><path d="M185.64,9.35a1.36,1.36,0,1,0-1.36,1.36A1.36,1.36,0,0,0,185.64,9.35Z" fill="#77a5be"/><path d="M268.6,9.35h0c-.24,1-1.43,1.07-1.67,1.08a2.24,2.24,0,0,1,.1.65A1.54,1.54,0,0,1,266,12.57a3.92,3.92,0,0,0-3.91-3.22A4,4,0,0,0,266,6.13a1.6,1.6,0,0,1,1,2.13S268.35,8.3,268.6,9.35Z" fill="#77a5be"/><path d="M183.08,9.35s44.62.94,56.84.94,22.13-.42,22.13-.94-9.91-.94-22.13-.94S183.08,9.35,183.08,9.35Z" fill="#77a5be"/><text transform="translate(113.44 17.6)" font-size="20" fill="#3379a6" font-family="NotoSerifJP-Medium, NotoSerifJP Medium-83pv-RKSJ-H" font-weight="500" letter-spacing="0.1em">海王星</text><path d="M100.35,14.41c-3.88,0-7-2.56-7-5.7h1.3c0,2.43,2.57,4.4,5.74,4.4s5.73-2,5.73-4.4h1.3C107.38,11.85,104.23,14.41,100.35,14.41Z" fill="#3379a6"/><rect x="99.73" y="13.76" width="1.3" height="7.53" fill="#3379a6"/><rect x="96.67" y="16.88" width="7.53" height="1.3" fill="#3379a6"/><rect x="93.31" y="1.89" width="1.3" height="6.85" fill="#3379a6"/><rect x="94.37" y="1.06" width="1.02" height="2.95" transform="translate(26 67.84) rotate(-45)" fill="#3379a6"/><polygon points="92.44 3.9 91.67 3.11 93.91 0.83 94.69 1.62 92.44 3.9" fill="#3379a6"/><rect x="99.69" y="1.89" width="1.3" height="11.87" fill="#3379a6"/><rect x="106.08" y="1.89" width="1.3" height="6.89" fill="#3379a6"/><rect x="100.75" y="1.07" width="1.02" height="2.95" transform="translate(27.86 72.35) rotate(-45)" fill="#3379a6"/><polygon points="98.82 3.91 98.04 3.12 100.29 0.84 101.07 1.63 98.82 3.91" fill="#3379a6"/><rect x="107.13" y="1.08" width="1.02" height="2.95" transform="translate(29.72 76.86) rotate(-45)" fill="#3379a6"/><polygon points="105.2 3.92 104.42 3.13 106.67 0.85 107.44 1.64 105.2 3.92" fill="#3379a6"/></g></g></svg>