<svg xmlns="http://www.w3.org/2000/svg" viewBox="0 0 268.6 24.38"><g id="Layer_2" data-name="Layer 2"><g id="固定"><path d="M4.81,9.35A1.15,1.15,0,1,1,6,10.5,1.14,1.14,0,0,1,4.81,9.35Z" fill="#9892a6"/><path d="M82.36,9.38a1.36,1.36,0,1,1,1.36,1.36A1.36,1.36,0,0,1,82.36,9.38Z" fill="#9892a6"/><path d="M0,9.35H0c.24,1,1.42,1.07,1.66,1.08a2.24,2.24,0,0,0-.1.65,1.53,1.53,0,0,0,1.06,1.48A3.91,3.91,0,0,1,6.5,9.35,4,4,0,0,1,2.62,6.13a1.61,1.61,0,0,0-1,2.13S.25,8.3,0,9.35Z" fill="#9892a6"/><path d="M84.92,9.35s-44.31-.94-56.44-.94-22,.42-22,.94,9.84.94,22,.94S84.92,9.35,84.92,9.35Z" fill="#9892a6"/><path d="M263.76,9.35a1.16,1.16,0,1,0-1.16,1.16A1.16,1.16,0,0,0,263.76,9.35Z" fill="#9892a6"/><path d="M185.64,9.35a1.36,1.36,0,1,0-1.36,1.36A1.36,1.36,0,0,0,185.64,9.35Z" fill="#9892a6"/><path d="M268.6,9.35h0c-.24,1-1.43,1.07-1.67,1.08a2.24,2.24,0,0,1,.1.65A1.54,1.54,0,0,1,266,12.57a3.92,3.92,0,0,0-3.91-3.22A4,4,0,0,0,266,6.13a1.6,1.6,0,0,1,1,2.13S268.35,8.3,268.6,9.35Z" fill="#9892a6"/><path d="M183.08,9.35s44.62.94,56.84.94,22.13-.42,22.13-.94-9.91-.94-22.13-.94S183.08,9.35,183.08,9.35Z" fill="#9892a6"/><text transform="translate(113.44 17.6)" font-size="20" fill="#9892a6" font-family="NotoSerifJP-Medium, NotoSerifJP Medium-83pv-RKSJ-H" font-weight="500" letter-spacing="0.1em">冥王星</text><polyline points="95.8 1.08 95.8 10.64 95.8 19.73 106.38 19.73" fill="none" stroke="#9892a6" stroke-miterlimit="10" stroke-width="1.3"/><path d="M95.32,1.69a18,18,0,0,1,2.5-.22c5.87-.18,8.55,1.09,8.48,5-.06,3.35-2.26,5.37-8.48,5-.74,0-1.24,0-1.78-.07l-.33,0-.13,0-.12,0-.08,0" fill="none" stroke="#9892a6" stroke-miterlimit="10" stroke-width="1.3"/></g></g></svg>