<svg xmlns="http://www.w3.org/2000/svg" viewBox="0 0 249.45 34.85"><g id="Layer_2" data-name="Layer 2"><g id="装飾"><path d="M249.45,32.15s-1.15,6.09-9,0C240.43,32.12,247.85,25.93,249.45,32.15Zm-1.81,0a.29.29,0,0,0-.3-.3.3.3,0,0,0-.3.29.29.29,0,0,0,.3.3A.3.3,0,0,0,247.64,32.12Zm-5.26,0s.51,1.84,4.12,0C246.5,32.12,243.13,30.24,242.38,32.1Z" fill="#eddac4"/><path d="M239.85,31.28a.82.82,0,0,0-.83.8h0a.8.8,0,0,0,.82.81h0a.82.82,0,0,0,.83-.8h0a.81.81,0,0,0-.82-.81Z" fill="#eddac4"/><path d="M233.48,31.25a.82.82,0,0,0-.83.81h0a.82.82,0,0,0,.82.81h0a.82.82,0,0,0,.83-.81h0a.82.82,0,0,0-.82-.81Z" fill="#eddac4"/><path d="M236.66,29.94s2.84,2.13,2.81,2.14-2.83,2.13-2.83,2.13c-.33-.7-2.83-2.14-2.82-2.15S236.32,30.63,236.66,29.94Z" fill="#eddac4"/><path d="M162.7,32.1c-5.13,4-5.88,0-5.88,0C157.87,28.07,162.7,32.1,162.7,32.1Zm-4.5.19a.19.19,0,1,0,0-.38.19.19,0,0,0-.2.19A.2.2,0,0,0,158.2,32.29Zm.55-.19c2.35,1.18,2.68,0,2.68,0C160.94,30.87,158.75,32.1,158.75,32.1Z" fill="#eddac4"/><path d="M163.08,31.55a.54.54,0,0,1,.54.53h0a.53.53,0,0,1-.54.52h0a.53.53,0,0,1-.54-.52h0a.54.54,0,0,1,.54-.53Z" fill="#eddac4"/><rect x="163.62" y="31.78" width="69.86" height="0.57" fill="#eddac4"/><path d="M124.91,4.58l-.17.09-.2.13c-.08,0-.15.13-.25.21a2.57,2.57,0,0,0-.5.73,3.7,3.7,0,0,0-.31,1.16,8.69,8.69,0,0,0,.38,3.28,12.34,12.34,0,0,0,.74,1.94,7.78,7.78,0,0,0,.55,1l.67,1A39.34,39.34,0,0,0,129,18.45a17.48,17.48,0,0,0,2.12,2.09,11.94,11.94,0,0,0,2.63,1.68,8.78,8.78,0,0,0,1.51.55,7.13,7.13,0,0,0,.8.18c.27,0,.54.08.83.1a12.65,12.65,0,0,0,3.42-.09,7.26,7.26,0,0,0,1.65-.48,4.44,4.44,0,0,0,1.39-.88,2.84,2.84,0,0,0,.84-1.29,2.1,2.1,0,0,0-.11-1.46,1.67,1.67,0,0,0-.12-.23l-.14-.22a2.83,2.83,0,0,0-.37-.4,4.31,4.31,0,0,0-.92-.64,6.89,6.89,0,0,0-2.26-.62,13.74,13.74,0,0,0-2.4,0,11.15,11.15,0,0,0-2.26.5,26,26,0,0,0-4.18,1.88c-1.31.71-2.55,1.46-3.73,2.19-2.36,1.48-4.47,2.91-6.35,4.15s-3.53,2.31-4.88,3.15-2.94,2-4.9,3.13a33.91,33.91,0,0,1-3.25,1.64,17,17,0,0,1-3.92,1.23,8.89,8.89,0,0,1-2.26.11,6.51,6.51,0,0,1-2.32-.59c-.19-.08-.36-.19-.54-.28l-.52-.34c-.16-.13-.32-.25-.49-.4a3.08,3.08,0,0,1-.45-.5,2.6,2.6,0,0,1-.5-1.32,3.13,3.13,0,0,1,.21-1.37,5.81,5.81,0,0,1,1.55-2.13,8.09,8.09,0,0,1,2.21-1.46,11.23,11.23,0,0,1,1.25-.5l.65-.18.33-.09.33-.07.66-.13.67-.09.34,0,.33,0,.68-.05a35.15,35.15,0,0,1,7.64.63q.92.15,1.8.33l.44.09.47.11q.45.12.87.27c1.14.4,2.2.86,3.22,1.32,2,.93,3.95,1.87,5.74,2.7s3.48,1.59,5.05,2.21a33.55,33.55,0,0,0,4.3,1.42,11.86,11.86,0,0,0,3.38.41,4.79,4.79,0,0,0,2.08-.51l.28-.17.19-.13.15-.12-.14.13-.19.14a1.57,1.57,0,0,1-.27.19,4.89,4.89,0,0,1-2.09.65,12.45,12.45,0,0,1-3.47-.24,32.19,32.19,0,0,1-4.43-1.24c-1.61-.56-3.34-1.25-5.17-2s-3.76-1.66-5.81-2.53c-1-.43-2.07-.87-3.16-1.22q-.4-.13-.81-.24l-.4-.09-.44-.07L114,26.83a36.2,36.2,0,0,0-7.4-.56l-.63.05-.32,0-.31,0-.63.08-.61.12-.3.06-.3.08-.59.16a10,10,0,0,0-1.12.44,7.07,7.07,0,0,0-1.95,1.25,5,5,0,0,0-1.3,1.71,2.18,2.18,0,0,0-.16.92,1.57,1.57,0,0,0,.29.83,2.58,2.58,0,0,0,.31.36l.4.34c.14.1.28.2.43.29a5.05,5.05,0,0,0,.45.25,6.87,6.87,0,0,0,4,.51,16.74,16.74,0,0,0,3.77-1c1.17-.46,2.25-1,3.25-1.49,2-1,3.67-2.05,5-2.88s2.89-2,4.71-3.36,3.88-2.83,6.21-4.39c1.16-.78,2.39-1.58,3.71-2.34a26.47,26.47,0,0,1,4.32-2,11.85,11.85,0,0,1,2.5-.59,14.42,14.42,0,0,1,2.63,0,8.3,8.3,0,0,1,2.66.72,5.32,5.32,0,0,1,1.2.82,4.59,4.59,0,0,1,.51.56,3.45,3.45,0,0,1,.2.32,1.38,1.38,0,0,1,.18.34,3.18,3.18,0,0,1,.17,2.21,4.07,4.07,0,0,1-1.16,1.8,5.54,5.54,0,0,1-1.75,1.08,7.63,7.63,0,0,1-1.89.53,13.42,13.42,0,0,1-3.74.05c-.29,0-.6-.08-.9-.13s-.6-.13-.89-.22a10,10,0,0,1-1.66-.64,12,12,0,0,1-1.48-.87,15.11,15.11,0,0,1-1.31-1,19.74,19.74,0,0,1-2.15-2.26,38.11,38.11,0,0,1-3.09-4.53l-.63-1.05a8.73,8.73,0,0,1-.53-1.06,12,12,0,0,1-.66-2,8.83,8.83,0,0,1-.21-3.39,4.06,4.06,0,0,1,.39-1.19,2.78,2.78,0,0,1,.57-.72,1.93,1.93,0,0,1,.27-.19,1.16,1.16,0,0,1,.2-.12Z" fill="#eddac4"/><path d="M124.93,4.58l.17.08a1.2,1.2,0,0,1,.21.12,2.77,2.77,0,0,1,.26.19,2.59,2.59,0,0,1,.57.72,4.06,4.06,0,0,1,.39,1.19,8.8,8.8,0,0,1-.2,3.39,13,13,0,0,1-.67,2,8.73,8.73,0,0,1-.53,1.06l-.63,1.05a38.11,38.11,0,0,1-3.09,4.53,18.91,18.91,0,0,1-2.15,2.26c-.41.35-.84.69-1.3,1a12.11,12.11,0,0,1-1.49.87,10,10,0,0,1-1.66.64c-.29.09-.59.15-.88.22s-.61.1-.91.13a13.43,13.43,0,0,1-3.74-.05,7.75,7.75,0,0,1-1.89-.53,5.49,5.49,0,0,1-1.74-1.08,3.91,3.91,0,0,1-1.16-1.8,3.18,3.18,0,0,1,.16-2.21,1.83,1.83,0,0,1,.18-.34,3.53,3.53,0,0,1,.21-.32,3.84,3.84,0,0,1,.5-.56,5.32,5.32,0,0,1,1.2-.82,8.3,8.3,0,0,1,2.66-.72,14.41,14.41,0,0,1,2.63,0,11.7,11.7,0,0,1,2.5.59,26.47,26.47,0,0,1,4.32,2c1.32.76,2.55,1.56,3.72,2.34,2.32,1.56,4.38,3.07,6.2,4.39s3.41,2.46,4.71,3.36,3,1.85,5,2.88c1,.51,2.08,1,3.25,1.49a16.68,16.68,0,0,0,3.78,1,6.84,6.84,0,0,0,4-.51A4,4,0,0,0,150,33c.15-.09.29-.19.43-.29l.4-.34a2,2,0,0,0,.31-.36,1.67,1.67,0,0,0,.3-.83,2.2,2.2,0,0,0-.17-.92,5,5,0,0,0-1.3-1.71,7.07,7.07,0,0,0-2-1.25,10,10,0,0,0-1.12-.44l-.59-.16-.29-.08-.31-.06-.61-.12-.62-.08-.32,0-.31,0-.64-.05a36.05,36.05,0,0,0-7.39.56l-1.78.31-.43.07-.41.09q-.41.11-.81.24c-1.08.35-2.14.79-3.16,1.22-2,.87-4,1.75-5.81,2.53s-3.56,1.48-5.17,2a32.19,32.19,0,0,1-4.43,1.24,12.45,12.45,0,0,1-3.47.24,4.89,4.89,0,0,1-2.09-.65A1.57,1.57,0,0,1,108,34l-.19-.14-.14-.13.15.12L108,34l.28.17a4.79,4.79,0,0,0,2.08.51,11.86,11.86,0,0,0,3.38-.41A34.17,34.17,0,0,0,118,32.8c1.56-.62,3.24-1.37,5-2.21s3.7-1.77,5.74-2.7c1-.46,2.08-.92,3.22-1.32.28-.1.58-.19.88-.27l.46-.11.44-.09q.88-.18,1.8-.33a35.2,35.2,0,0,1,7.64-.63l.68.05.33,0,.34,0,.67.09.67.13.33.07.32.09c.22.06.44.11.65.18a11.23,11.23,0,0,1,1.25.5,8.29,8.29,0,0,1,2.22,1.46,5.9,5.9,0,0,1,1.54,2.13,3.13,3.13,0,0,1,.21,1.37,2.6,2.6,0,0,1-.5,1.32,3.08,3.08,0,0,1-.45.5,6.12,6.12,0,0,1-.49.4l-.51.34c-.19.09-.36.2-.55.28a6.46,6.46,0,0,1-2.32.59,8.81,8.81,0,0,1-2.25-.11,16.9,16.9,0,0,1-3.93-1.23,32.57,32.57,0,0,1-3.24-1.64c-2-1.13-3.59-2.23-4.9-3.13s-3-1.9-4.88-3.15-4-2.67-6.36-4.15c-1.17-.73-2.41-1.48-3.73-2.19a26.24,26.24,0,0,0-4.17-1.88,11.1,11.1,0,0,0-2.27-.5,13.63,13.63,0,0,0-2.39,0,6.89,6.89,0,0,0-2.26.62,4.14,4.14,0,0,0-.93.64,2.29,2.29,0,0,0-.36.4,1.7,1.7,0,0,0-.15.22,1,1,0,0,0-.11.23,2.05,2.05,0,0,0-.12,1.46,2.84,2.84,0,0,0,.84,1.29,4.38,4.38,0,0,0,1.4.88,7,7,0,0,0,1.64.48,12.65,12.65,0,0,0,3.42.09c.29,0,.56-.06.83-.1a7.13,7.13,0,0,0,.8-.18,8.78,8.78,0,0,0,1.51-.55,10.93,10.93,0,0,0,1.39-.76,12.43,12.43,0,0,0,1.24-.92,18.33,18.33,0,0,0,2.13-2.09A40.5,40.5,0,0,0,124,14.11l.67-1a7.78,7.78,0,0,0,.55-1,12.34,12.34,0,0,0,.74-1.94,8.69,8.69,0,0,0,.38-3.28A3.7,3.7,0,0,0,126,5.74a2.38,2.38,0,0,0-.5-.73,2.14,2.14,0,0,0-.25-.21l-.2-.13Z" fill="#eddac4"/><path d="M125.07,4.86C121.49.7,124.94,0,124.94,0,128.5.79,125.07,4.86,125.07,4.86Zm-.25-3.72a.17.17,0,0,0,.17.16A.17.17,0,1,0,125,1,.17.17,0,0,0,124.82,1.14Zm.18.45c-1,2,.06,2.22.06,2.22C126.11,3.38,125,1.59,125,1.59Z" fill="#eddac4"/><path d="M125.56,5.16a.46.46,0,0,1-.45.46h0a.45.45,0,0,1-.47-.43h0a.45.45,0,0,1,.44-.46h0a.46.46,0,0,1,.48.43Z" fill="#eddac4"/><path d="M9,32.12c-7.87,6.12-9,0-9,0C1.6,25.93,9,32.12,9,32.12Zm-6.91.29a.29.29,0,0,0,.3-.3.3.3,0,0,0-.3-.29.3.3,0,1,0,0,.59ZM3,32.12c3.61,1.82,4.12,0,4.12,0C6.32,30.24,3,32.12,3,32.12Z" fill="#eddac4"/><path d="M9.6,31.28a.82.82,0,0,1,.83.8h0a.8.8,0,0,1-.82.81h0a.82.82,0,0,1-.83-.8h0a.8.8,0,0,1,.82-.81Z" fill="#eddac4"/><path d="M16,31.25a.82.82,0,0,1,.83.81h0a.82.82,0,0,1-.82.81h0a.83.83,0,0,1-.84-.81h0a.83.83,0,0,1,.83-.81Z" fill="#eddac4"/><path d="M12.79,29.94S10,32.07,10,32.08s2.83,2.13,2.83,2.13c.33-.7,2.82-2.14,2.82-2.15S13.13,30.63,12.79,29.94Z" fill="#eddac4"/><path d="M92.62,32.12s-.75,4-5.87,0C86.75,32.1,91.58,28.07,92.62,32.12Zm-1.17,0a.19.19,0,0,0-.2-.19.18.18,0,0,0-.19.19.19.19,0,0,0,.19.19A.2.2,0,0,0,91.45,32.1Zm-3.43,0s.33,1.19,2.68,0C90.7,32.1,88.51,30.87,88,32.09Z" fill="#eddac4"/><path d="M86.37,31.55a.53.53,0,0,0-.54.53h0a.53.53,0,0,0,.54.52h0a.53.53,0,0,0,.54-.52h0a.54.54,0,0,0-.54-.53Z" fill="#eddac4"/><rect x="15.97" y="31.78" width="69.86" height="0.57" fill="#eddac4"/></g></g></svg>