<?xml version="1.0" encoding="UTF-8"?>
<svg id="_レイヤー_2" data-name="レイヤー 2" xmlns="http://www.w3.org/2000/svg" viewBox="0 0 22.29 22.93">
  <defs>
    <style>
      .cls-1 {
        fill: #748f9f;
        stroke-width: 0px;
      }
    </style>
  </defs>
  <g id="_固定" data-name="固定">
    <g>
      <path class="cls-1" d="m21.64,16.33c-.23-.13-.49-.23-.76-.3-.13-.03-.27-.06-.41-.08h-.01s0,0,0,0h0s-.03,0-.03,0c-.02,0-.03,0-.05,0-.02,0-.03,0-.05,0h-.03s0,0-.01,0h-.01s-.03,0-.05,0c0,0-.02,0-.03,0h-.03s-.04,0-.05,0c-.02,0-.04,0-.05,0-.07,0-.14,0-.21,0-.02,0-.04,0-.05,0h-.03s-.01,0-.01,0h-.01s-.04,0-.05,0c0,0-.02,0-.03,0h-.03s-.04,0-.05,0c-.02,0-.04,0-.05,0h-.03s-.01,0-.01,0h-.01s-.04,0-.05,0c0,0-.02,0-.03,0h-.03s-.04,0-.05.01c-.02,0-.04,0-.05,0h-.03s-.02,0-.03,0c-.14.03-.28.06-.42.1h-.01s-.01,0-.01,0h-.03s-.03.02-.05.02c-.02,0-.03.01-.05.02-.02,0-.03.01-.05.02-.03.01-.07.02-.1.03-.02,0-.03.01-.05.02-.02,0-.03.01-.05.02-.07.02-.14.05-.21.08-.02,0-.03.01-.05.02-.02,0-.03.01-.05.02-.02,0-.03.01-.05.02h-.03s-.03.02-.03.02c-.14.06-.27.12-.4.18-.13.07-.27.13-.4.21h-.02s-.02.03-.02.03c-.02,0-.03.02-.05.03-.02,0-.03.02-.05.03-.02,0-.03.02-.05.03-.02,0-.03.02-.05.03-.02,0-.03.02-.05.03-.03.02-.06.04-.1.06-.02,0-.03.02-.05.03-.02,0-.03.02-.05.03-.02,0-.03.02-.05.03-.02,0-.03.02-.05.03-.03.02-.06.04-.1.06-.03.02-.06.04-.1.06l-.02.02-.02.02s-.03.02-.05.03c-.02.01-.03.02-.05.03-.02.01-.03.02-.05.03-.03.02-.06.04-.1.06-.03.02-.06.04-.1.06-.51.34-1.02.69-1.53,1.06-.51.37-1.03.74-1.55,1.1-.13.09-.26.18-.4.27-.13.09-.27.18-.4.27-.03.02-.07.04-.1.07-.03.02-.07.04-.1.07-.03.02-.07.04-.1.07-.03.02-.07.04-.1.06-.14.09-.28.17-.42.25-.14.08-.28.16-.43.24-.14.08-.29.16-.44.23-.15.07-.3.15-.45.21-.08.03-.15.07-.23.1-.04.02-.08.03-.11.05-.02,0-.04.02-.06.02-.02,0-.04.02-.06.02-.02,0-.03.01-.05.02-.02,0-.03.01-.05.02-.02,0-.03.01-.05.02h-.03s-.02.02-.03.02c-.07.03-.13.05-.2.07-.02,0-.03.01-.05.02h-.03s-.03.02-.03.02c-.03.01-.07.02-.1.03,0,0-.02,0-.03,0h-.03s-.03.02-.05.02c-.02,0-.03.01-.05.02h-.01s-.01,0-.01,0h-.03s-.07.03-.1.04c0,0-.02,0-.03,0h-.03s-.03.02-.05.02c-.02,0-.03,0-.05.01-.02,0-.03,0-.05.01-.03,0-.07.02-.1.03-.14.04-.27.07-.41.08-.07,0-.14.01-.2.01-.07,0-.13,0-.2-.02,0,0-.02,0-.02,0h-.01s0,0,0,0h0s-.03,0-.05-.01c-.02,0-.03-.01-.05-.02-.01,0-.03-.01-.04-.02-.01,0-.03-.01-.04-.02h0s0,0,0,0h0s-.01-.01-.02-.02c0,0,0,0,0,0h0s0-.01,0-.01h0s0,0,0,0c-.01,0-.02-.02-.03-.03-.02-.02-.03-.05-.05-.07,0-.01,0-.03-.01-.04,0-.01,0-.03,0-.04,0-.03,0-.05,0-.08,0-.03.02-.06.03-.08.01-.03.03-.06.05-.08,0-.01.02-.03.03-.04,0,0,.01-.01.02-.02l.02-.02s.04-.05.07-.08c.02-.03.05-.05.07-.08.05-.05.09-.1.14-.15.05-.05.1-.1.15-.15.1-.1.2-.19.3-.29.1-.1.2-.2.29-.3.05-.05.09-.11.14-.16.01-.01.02-.03.03-.04l.02-.02.02-.02s.02-.03.03-.04c0,0,.01-.01.02-.02,0,0,.01-.01.02-.02l.02-.02s0-.01.01-.02c0-.01.02-.03.03-.04.02-.03.04-.06.05-.09,0-.02.02-.03.02-.05,0,0,0-.02.01-.02h0s0-.02,0-.02v-.02s.02-.02.02-.02c0,0,0-.02,0-.03h0s0-.02,0-.03v-.03s.01,0,.01-.01h0s0-.03,0-.03c0,0,0,0,0-.01,0,0,0-.02,0-.03,0-.04.02-.07.02-.11,0-.04,0-.07,0-.11,0-.04,0-.07,0-.11,0-.07-.03-.15-.06-.21-.02-.03-.04-.07-.06-.1-.02-.03-.05-.06-.07-.08-.05-.05-.11-.09-.18-.13-.06-.03-.13-.06-.2-.08-.03-.01-.07-.02-.1-.03-.02,0-.03,0-.05-.01h-.03s-.02,0-.03,0c-.03,0-.07,0-.1-.01-.03,0-.07,0-.1,0-.03,0-.07,0-.1,0-.03,0-.07,0-.1,0-.07,0-.14.02-.2.04h-.03s-.02.01-.02.02c0,0,0,0-.01,0h-.01s-.02.01-.02.01h-.01s-.01,0-.01,0h-.02s-.02.01-.02.02h-.02c-.06.03-.12.06-.19.09s-.12.06-.18.09c-.01,0-.03.02-.04.02-.01,0-.03.02-.04.02-.01,0-.03.02-.04.02-.01,0-.03.02-.04.02-.06.03-.11.07-.17.1-.06.03-.11.07-.17.1-.11.07-.22.14-.33.21-.05.03-.11.07-.16.1-.03.02-.05.03-.08.05-.03.02-.05.03-.08.05-.05.03-.11.07-.16.1-.05.03-.11.07-.16.1-.21.14-.43.28-.63.42-.05.04-.1.07-.16.11-.03.02-.05.04-.08.05-.03.02-.05.04-.08.05-.05.04-.1.07-.15.11-.05.04-.1.07-.15.11-.4.29-.79.59-1.16.89.83-.65,1.74-1.27,2.71-1.86.03-.02.06-.04.09-.06.03-.02.06-.04.09-.06.06-.04.12-.08.18-.11.12-.08.25-.15.37-.23.12-.07.25-.15.38-.21.13-.07.26-.13.4-.18.03-.01.07-.03.1-.04h.03s.02-.02.03-.02h.03s.01-.01.01-.01c0,0,0,0,.01,0,.07-.02.14-.04.21-.05.07,0,.14-.01.22-.01.07,0,.15,0,.22.02.07.01.14.03.21.06.07.03.13.06.19.1.06.04.11.09.15.14.02.03.04.06.05.09.01.03.03.06.03.1,0,.03.01.07.02.1,0,.04,0,.07,0,.11,0,.04,0,.07-.02.11,0,.04-.02.07-.03.1-.01.03-.03.07-.04.1v.03s-.02.02-.02.02c0,0,0,.02-.01.02h0s0,.02,0,.02c-.02.03-.04.06-.06.1-.02.03-.04.06-.06.09-.09.12-.19.24-.3.35-.11.11-.22.22-.33.33-.11.11-.23.22-.34.33-.03.03-.06.06-.08.08-.03.03-.06.06-.08.09-.03.03-.05.06-.08.09-.03.03-.05.06-.08.09-.02.03-.05.07-.07.1-.02.04-.05.07-.06.12,0,.02-.02.04-.02.07,0,.01,0,.02,0,.03,0,.01,0,.02,0,.04,0,.01,0,.02,0,.04,0,0,0,.01,0,.02v.02s.01.05.02.07h0s0,.01,0,.02v.02s.02.02.02.02c0,0,0,.01,0,.02.01.02.03.04.04.06.01.02.03.03.05.05.02.02.03.03.05.04.02.01.04.03.06.04.02.01.04.02.06.03.04.02.08.03.12.04.01,0,.02,0,.03,0,.01,0,.02,0,.03,0,.01,0,.02,0,.03,0h.02s0,0,0,0h0s.08.01.13.01c.08,0,.17,0,.25,0,.08,0,.17-.02.25-.04.04,0,.08-.02.12-.03.04,0,.08-.02.12-.03.04-.01.08-.02.12-.03.04-.01.08-.02.12-.03h.03s.02-.01.03-.02c.02,0,.04-.01.06-.02.02,0,.04-.01.06-.02.02,0,.04-.01.06-.02.02,0,.04-.01.06-.02.02,0,.04-.01.06-.02.04-.01.08-.03.12-.04,0,0,.02,0,.03-.01h.03s.04-.02.06-.03c.04-.01.08-.03.12-.04.02,0,.04-.01.06-.02,0,0,.02,0,.03-.01h.03s.04-.03.06-.03h.03s.01-.02.01-.02h.01s.08-.04.12-.05h.01s.01-.01.01-.01h.03s.04-.03.06-.04h.03s.01-.02.01-.02h.01s.04-.02.06-.03c.02,0,.04-.02.06-.03h.01s.01-.01.01-.01h.03s.04-.03.06-.04h.03s.01-.02.01-.02h.01s.08-.04.11-.06c.15-.07.3-.15.45-.22.04-.02.07-.04.11-.06.02,0,.04-.02.06-.03.02,0,.04-.02.06-.03.02-.01.04-.02.06-.03.02-.01.04-.02.06-.03.04-.02.07-.04.11-.06.03-.02.06-.04.1-.05.03-.02.06-.04.09-.05l.05-.03.05-.03s.06-.04.09-.06c.06-.04.12-.07.19-.11.03-.02.06-.04.09-.06.03-.02.06-.04.09-.06.03-.02.06-.04.09-.06l.05-.03h.02s.02-.03.02-.03c.03-.02.06-.04.09-.06.02,0,.03-.02.05-.03.02,0,.03-.02.05-.03.06-.04.12-.08.18-.12.03-.02.06-.04.09-.06.03-.02.06-.04.09-.06.03-.02.06-.04.09-.06.03-.02.06-.04.09-.06.06-.04.12-.08.18-.12.12-.08.23-.16.35-.25.23-.16.46-.33.69-.49.45-.33.9-.66,1.35-.98.45-.32.9-.62,1.35-.91.03-.02.06-.04.09-.05.01,0,.03-.02.04-.03.01,0,.03-.02.04-.03.03-.02.06-.03.09-.05.03-.02.06-.03.09-.05.11-.07.23-.13.35-.2.23-.13.47-.24.71-.34.24-.1.48-.19.73-.26.25-.07.5-.13.75-.16.13-.02.25-.03.38-.03h.01s.01,0,.01,0h.02s.03,0,.05,0c.02,0,.03,0,.05,0,.02,0,.03,0,.05,0,.02,0,.03,0,.05,0h.02s.02,0,.02,0c.02,0,.03,0,.05,0,.02,0,.03,0,.05,0,.25.01.49.06.73.12.12.03.23.08.35.12.11.05.22.1.33.16.21.12.41.26.59.41-.19-.17-.41-.33-.64-.46Z"/>
      <path class="cls-1" d="m16.92.42s-.06-.09-.09-.13c-.02-.02-.03-.04-.05-.06-.02-.02-.04-.04-.06-.06-.04-.04-.08-.08-.13-.11-.03-.02-.04-.04-.07-.05-.02-.02-.23.03-.23.03,0,0,0,0,0,0-1.88.61-3.63,1.5-5.2,2.6-.39.42-.77.88-1.13,1.38,0,0,.23-.41.68-1.06-1.73,1.3-3.24,2.87-4.45,4.65-.2.46-.39.95-.55,1.46,0,0,.07-.38.26-1.02-1.36,2.12-2.32,4.52-2.78,7.08-.05.3-.11.59-.16.88,0,0-1.75,4.22-1.76,4.26L0,22.85c-.03.06.04.11.09.07.53-.49,1.53-1.03,1.82-1.18.03-.02.04-.06,0-.09-.07-.05-.13-.11-.19-.17l-.1-.07c-.14-.1-.18-.29-.11-.44l.07-.15c.04-.09.08-.17.12-.26.01-.02.55-1.29.99-2.31l1.76-3.84c.07-.13.14-.27.21-.4l.11-.2s.03-.07.05-.1l.05-.1.22-.4.23-.4.06-.1.03-.05.03-.05.12-.2c.08-.13.16-.27.24-.4l.12-.2.06-.1s.04-.07.06-.1l.25-.4c.34-.53.7-1.05,1.07-1.57.75-1.04,1.58-2.06,2.5-3.05.46-.5.94-.99,1.45-1.48.13-.12.26-.24.38-.36l.05-.05.05-.05.1-.09.1-.09.05-.04.05-.04.2-.18.05-.04.05-.04.1-.09.1-.09.05-.04.05-.04.21-.18-.21.19-.05.05-.05.05-.1.09-.1.09s-.07.06-.1.1l-.2.19-.2.19-.1.1-.1.1-.19.19-.19.19-.09.1s-.06.06-.09.1l-.18.19s-.06.07-.09.1l-.09.1-.09.1s-.06.07-.09.1c-.24.26-.47.52-.69.79-.9,1.06-1.7,2.14-2.41,3.24-.09.14-.18.27-.26.41l-.13.21-.06.1s-.04.07-.06.1l-.25.42-.24.42c-.32.56-.62,1.12-.9,1.68l-.21.42s-.03.07-.05.11l-.05.11-.1.21-.05.11-.02.05-.02.05-.1.21-.1.21-.05.11-.05.11-.18.43s-.03.07-.04.11l-.04.11-.09.21-.09.21-.08.21-.08.21-.04.11-.02.05-.02.05s.08-.02.13-.03c.04-.01.09-.02.13-.03.09-.02.17-.05.26-.08.17-.06.34-.12.52-.19.34-.15.7-.33,1.05-.54.71-.43,1.42-.98,2.13-1.63-.05.02-.09.03-.14.05-.05.02-.09.03-.14.04-.09.03-.19.06-.28.09-.19.06-.38.11-.58.16-.1.02-.2.05-.29.07-.1.02-.2.05-.3.07-.2.04-.4.08-.6.11,0,0,.1-.04.27-.1.09-.03.19-.08.31-.13.12-.05.26-.11.41-.17.15-.06.31-.14.48-.22.08-.04.17-.08.26-.12.09-.04.18-.09.27-.13.09-.05.19-.09.28-.14.05-.02.09-.05.14-.07.05-.03.1-.05.15-.08.19-.1.39-.21.59-.33.15-.09.27-.18.37-.28.03-.04.07-.07.1-.1.03-.03.06-.07.1-.1.07-.07.13-.13.19-.19.06-.06.13-.12.19-.18.02-.01.03-.03.05-.04.02-.01.03-.03.05-.04.03-.03.06-.06.09-.09.06-.06.12-.12.18-.18.03-.03.06-.06.09-.09.02-.01.03-.03.05-.04.02-.01.03-.03.05-.04.12-.12.24-.24.36-.38.12-.13.25-.28.37-.43.06-.08.13-.16.19-.25.07-.09.13-.18.2-.27.07-.09.14-.19.21-.3.04-.05.07-.11.11-.16.04-.05.07-.11.11-.17.07-.12.15-.24.23-.36.02-.03.04-.06.06-.1.01-.02.02-.03.03-.05.01-.02.02-.03.03-.05.04-.07.09-.14.13-.21.02-.03.04-.06.06-.09.02-.03.04-.06.06-.09.04-.06.08-.11.13-.17.04-.06.09-.11.13-.17.04-.06.09-.11.13-.17-.14.06-.28.13-.42.19-.14.06-.28.12-.41.18-.07.03-.14.06-.2.09-.07.03-.13.06-.2.09-.13.06-.26.11-.39.17-.25.11-.5.21-.73.31-.23.1-.45.18-.65.26-.1.04-.2.08-.29.11-.09.04-.18.07-.26.1-.08.03-.16.06-.23.09-.07.03-.13.05-.19.07-.23.09-.36.14-.36.14.97-.43,1.8-.84,2.52-1.22.72-.38,1.32-.73,1.82-1.03.05-.03.1-.06.14-.09.05-.03.09-.06.13-.1.09-.06.17-.13.24-.2.04-.03.07-.07.11-.1.04-.03.07-.07.1-.11.06-.07.12-.15.17-.22.38-.55.74-1.09,1.06-1.6.04-.06.08-.13.12-.19.02-.03.04-.06.06-.09.02-.03.04-.06.06-.09.04-.06.08-.12.11-.19.04-.06.08-.12.11-.18.02-.03.04-.06.05-.09.02-.03.04-.06.05-.09.04-.06.07-.12.1-.18.03-.06.07-.12.1-.18.02-.03.03-.06.05-.09.02-.03.03-.06.05-.09-.14.03-.27.07-.4.1-.13.03-.25.06-.37.09-.12.03-.23.06-.33.08-.1.02-.2.05-.29.07-.18.04-.32.07-.42.1-.05.01-.09.02-.11.03-.03,0-.04,0-.04,0,.65-.37,1.19-.74,1.61-1.05.05-.04.1-.08.15-.12.05-.04.1-.07.14-.11.05-.04.09-.07.13-.1.04-.03.08-.07.12-.1.08-.06.15-.12.21-.18.06-.05.12-.1.17-.15.05-.04.09-.09.13-.14.02-.02.03-.05.05-.07.01-.02.03-.05.04-.08.12-.3.21-.59.26-.85.05-.26.07-.51.05-.73-.02-.22-.08-.42-.19-.6ZM1.5,21.67c-.02.09-.11.16-.2.14-.09-.02-.16-.11-.14-.2.02-.09.11-.16.2-.14.09.02.16.11.14.2Z"/>
    </g>
  </g>
</svg>