<?xml version="1.0" encoding="UTF-8"?>
<svg id="_レイヤー_2" data-name="レイヤー 2" xmlns="http://www.w3.org/2000/svg" viewBox="0 0 9.34 12.3">
  <defs>
    <style>
      .cls-1 {
        fill: #748f9f;
        stroke-width: 0px;
      }
    </style>
  </defs>
  <g id="_アスペクト" data-name="アスペクト">
    <path class="cls-1" d="m6.15,12.3c-3.39,0-6.15-2.76-6.15-6.15S2.76,0,6.15,0c.71,0,1.41.13,2.1.37l1.09.4-1.09.4c-2.09.76-3.5,2.76-3.5,4.98s1.41,4.22,3.5,4.98l1.1.4-1.1.4c-.68.25-1.39.37-2.1.37ZM6.15.85C3.23.85.85,3.23.85,6.15s2.38,5.31,5.31,5.31c.24,0,.48-.02.72-.05-1.81-1.1-2.97-3.09-2.97-5.26S5.06,2,6.87.9c-.24-.03-.48-.05-.72-.05Z"/>
  </g>
</svg>