<?xml version="1.0" encoding="UTF-8"?>
<svg id="_レイヤー_2" data-name="レイヤー 2" xmlns="http://www.w3.org/2000/svg" viewBox="0 0 71.93 3.42">
  <defs>
    <style>
      .cls-1 {
        fill: #9fa0a0;
        stroke-width: 0px;
      }
    </style>
  </defs>
  <g id="_装飾" data-name="装飾">
    <g>
      <g>
        <path class="cls-1" d="m35.97,2c-.78.58.02,1.42.02,1.42,0,0,.78-.86-.02-1.42Z"/>
        <path class="cls-1" d="m35.72,1.86c-.9-.38-1.22.73-1.22.73,0,0,1.13.24,1.22-.73Z"/>
        <path class="cls-1" d="m35.72,1.57c-.11-.97-1.24-.7-1.24-.7,0,0,.36,1.1,1.24.7Z"/>
        <path class="cls-1" d="m35.96,1.42c.78-.58-.02-1.42-.02-1.42,0,0-.78.86.02,1.42Z"/>
        <path class="cls-1" d="m36.21,1.57c.9.38,1.22-.73,1.22-.73,0,0-1.13-.24-1.22.73Z"/>
        <path class="cls-1" d="m36.22,1.85c.11.97,1.24.7,1.24.7,0,0-.36-1.1-1.24-.7Z"/>
      </g>
      <path class="cls-1" d="m.04,1.67c2.8,0,5.6-.02,8.4-.04l8.4-.06,4.2-.06c1.4-.03,2.8-.06,4.2-.08,1.4-.03,2.8-.02,4.2-.01l1.05.02c.35.02.7.03,1.05.05.7.04,1.4.11,2.1.22-.7.12-1.4.18-2.1.22-.35.03-.7.03-1.05.05l-1.05.02c-1.4,0-2.8.01-4.2-.01-1.4-.02-2.8-.05-4.2-.08l-4.2-.06-8.4-.06c-2.8-.02-5.6-.04-8.4-.04C.02,1.76,0,1.74,0,1.71c0-.02.02-.04.04-.04Z"/>
      <path class="cls-1" d="m71.89,1.67c-2.8,0-5.6-.02-8.4-.04l-8.4-.06-4.2-.06c-1.4-.03-2.8-.06-4.2-.08-1.4-.03-2.8-.02-4.2-.01l-1.05.02c-.35.02-.7.03-1.05.05-.7.04-1.4.11-2.1.22.7.12,1.4.18,2.1.22.35.03.7.03,1.05.05l1.05.02c1.4,0,2.8.01,4.2-.01,1.4-.02,2.8-.05,4.2-.08l4.2-.06,8.4-.06c2.8-.02,5.6-.04,8.4-.04.02,0,.04-.02.04-.04,0-.02-.02-.04-.04-.04Z"/>
    </g>
  </g>
</svg>