<?xml version="1.0" encoding="UTF-8"?>
<svg id="_レイヤー_2" data-name="レイヤー 2" xmlns="http://www.w3.org/2000/svg" viewBox="0 0 13.08 16.44">
  <defs>
    <style>
      .cls-1 {
        fill: #222;
        stroke-width: 0px;
      }
    </style>
  </defs>
  <g id="design">
    <g>
      <g>
        <path class="cls-1" d="m6.54,10.44C3.02,10.44.15,7.57.15,4.05h1.07c0,2.93,2.39,5.32,5.32,5.32s5.32-2.39,5.32-5.32h1.07c0,3.52-2.87,6.39-6.39,6.39Z"/>
        <path class="cls-1" d="m6.54,10.59C2.93,10.59,0,7.65,0,4.05c0-.08.07-.15.15-.15h1.07c.08,0,.15.07.15.15,0,2.85,2.32,5.17,5.17,5.17s5.17-2.32,5.17-5.17c0-.08.07-.15.15-.15h1.07c.08,0,.15.07.15.15,0,3.61-2.93,6.54-6.54,6.54ZM.3,4.2c.08,3.37,2.85,6.09,6.24,6.09s6.16-2.72,6.24-6.09h-.77c-.08,2.95-2.5,5.32-5.46,5.32S1.16,7.14,1.08,4.2H.3Z"/>
      </g>
      <g>
        <rect class="cls-1" x="6" y="9.9" width="1.07" height="6.39"/>
        <path class="cls-1" d="m7.08,16.44h-1.07c-.08,0-.15-.07-.15-.15v-6.39c0-.08.07-.15.15-.15h1.07c.08,0,.15.07.15.15v6.39c0,.08-.07.15-.15.15Zm-.92-.3h.77v-6.09h-.77v6.09Z"/>
      </g>
      <g>
        <rect class="cls-1" x="3.35" y="11.71" width="6.39" height="1.07"/>
        <path class="cls-1" d="m9.73,12.93H3.35c-.08,0-.15-.07-.15-.15v-1.07c0-.08.07-.15.15-.15h6.39c.08,0,.15.07.15.15v1.07c0,.08-.07.15-.15.15Zm-6.24-.3h6.09v-.77H3.5v.77Z"/>
      </g>
      <g>
        <path class="cls-1" d="m6.54,7.94c-2.15,0-3.9-1.75-3.9-3.9S4.39.15,6.54.15s3.9,1.75,3.9,3.9-1.75,3.9-3.9,3.9Zm0-6.72c-1.56,0-2.82,1.27-2.82,2.82s1.27,2.82,2.82,2.82,2.82-1.27,2.82-2.82-1.27-2.82-2.82-2.82Z"/>
        <path class="cls-1" d="m6.54,8.09c-2.23,0-4.05-1.82-4.05-4.05S4.31,0,6.54,0s4.05,1.82,4.05,4.05-1.82,4.05-4.05,4.05ZM6.54.3c-2.07,0-3.75,1.68-3.75,3.75s1.68,3.75,3.75,3.75,3.75-1.68,3.75-3.75S8.61.3,6.54.3Zm0,6.72c-1.64,0-2.97-1.33-2.97-2.97s1.33-2.97,2.97-2.97,2.97,1.33,2.97,2.97-1.33,2.97-2.97,2.97Zm0-5.65c-1.47,0-2.67,1.2-2.67,2.67s1.2,2.67,2.67,2.67,2.67-1.2,2.67-2.67-1.2-2.67-2.67-2.67Z"/>
      </g>
    </g>
  </g>
</svg>