<?xml version="1.0" encoding="UTF-8"?>
<svg id="_レイヤー_2" data-name="レイヤー 2" xmlns="http://www.w3.org/2000/svg" viewBox="0 0 56.37 6.44">
  <defs>
    <style>
      .cls-1 {
        fill: #ddd6e4;
        stroke-width: 0px;
      }
    </style>
  </defs>
  <g id="_固定" data-name="固定">
    <g>
      <path class="cls-1" d="m4.81,3.22c0-.64.52-1.15,1.15-1.15s1.15.52,1.15,1.15-.52,1.15-1.15,1.15-1.15-.52-1.15-1.15Z"/>
      <path class="cls-1" d="m53.65,3.25c0-.75.61-1.36,1.36-1.36s1.36.61,1.36,1.36-.61,1.36-1.36,1.36-1.36-.61-1.36-1.36Z"/>
      <path class="cls-1" d="m0,3.22h0c.24.97,1.42,1.08,1.66,1.09-.07.23-.1.46-.1.66,0,1.14.99,1.44,1.06,1.47,0,0,.41-3.03,3.88-3.22,0,0-3.23,0-3.88-3.22,0,0-1.45.45-.96,2.13,0,0-1.41.03-1.66,1.09Z"/>
      <path class="cls-1" d="m56.32,3.22s-28.15-.94-35.86-.94-13.96.42-13.96.94,6.25.94,13.96.94,35.86-.94,35.86-.94Z"/>
    </g>
  </g>
</svg>