<?xml version="1.0" encoding="UTF-8"?>
<svg id="_レイヤー_2" data-name="レイヤー 2" xmlns="http://www.w3.org/2000/svg" viewBox="0 0 120.33 29.89">
  <defs>
    <style>
      .cls-1 {
        fill: #aec3d0;
        stroke-width: 0px;
      }
    </style>
  </defs>
  <g id="_装飾" data-name="装飾">
    <g>
      <polygon class="cls-1" points="96.44 15.66 0 15.11 0 14.71 96.44 14.15 96.44 15.66"/>
      <polygon class="cls-1" points="98.39 16.38 99.4 14.94 98.33 13.54 100.08 13.69 100.76 12.07 101.5 13.66 103.25 13.44 102.24 14.88 103.31 16.28 101.55 16.12 100.87 17.75 100.13 16.15 98.39 16.38"/>
      <path class="cls-1" d="m117.37,4.03c1.03,0,2.01.19,2.96.46-5.68.1-10.25,4.72-10.25,10.42s4.58,10.32,10.25,10.42c-.95.27-1.92.46-2.96.46-6.01,0-10.88-4.87-10.88-10.88s4.87-10.88,10.88-10.88Z"/>
      <g>
        <polygon class="cls-1" points="85.23 24.48 87.58 22.6 84.77 23.69 84.32 20.71 83.86 23.69 81.05 22.6 83.4 24.48 81.05 26.36 83.86 25.27 84.32 28.24 84.77 25.27 87.58 26.36 85.23 24.48"/>
        <polygon class="cls-1" points="64.54 26.71 65.8 25.7 64.29 26.29 64.04 24.68 63.8 26.29 62.28 25.7 63.55 26.71 62.28 27.73 63.8 27.14 64.04 28.75 64.29 27.14 65.8 27.73 64.54 26.71"/>
        <polygon class="cls-1" points="55.21 22.74 56 22.1 55.06 22.47 54.9 21.47 54.75 22.47 53.8 22.1 54.59 22.74 53.8 23.38 54.75 23.01 54.9 24.01 55.06 23.01 56 23.38 55.21 22.74"/>
        <polygon class="cls-1" points="73.96 22.3 75.23 21.29 73.72 21.88 73.47 20.27 73.22 21.88 71.71 21.29 72.98 22.3 71.71 23.32 73.22 22.73 73.47 24.34 73.72 22.73 75.23 23.32 73.96 22.3"/>
        <polygon class="cls-1" points="43.47 21.91 44.63 20.97 43.24 21.52 43.01 20.04 42.78 21.52 41.39 20.97 42.56 21.91 41.39 22.85 42.78 22.3 43.01 23.79 43.24 22.3 44.63 22.85 43.47 21.91"/>
        <polygon class="cls-1" points="96.68 27.85 97.95 26.83 96.43 27.42 96.19 25.82 95.94 27.42 94.43 26.83 95.7 27.85 94.43 28.87 95.94 28.28 96.19 29.89 96.43 28.28 97.95 28.87 96.68 27.85"/>
        <polygon class="cls-1" points="92.72 20.82 93.52 20.18 92.57 20.55 92.42 19.54 92.26 20.55 91.31 20.18 92.11 20.82 91.31 21.45 92.26 21.08 92.42 22.09 92.57 21.08 93.52 21.45 92.72 20.82"/>
      </g>
      <g>
        <polygon class="cls-1" points="95.87 3.81 98.21 5.7 95.41 4.6 94.95 7.58 94.5 4.6 91.69 5.7 94.04 3.81 91.69 1.93 94.5 3.02 94.95 .05 95.41 3.02 98.21 1.93 95.87 3.81"/>
        <polygon class="cls-1" points="53.37 7.09 54.63 8.1 53.12 7.51 52.87 9.12 52.63 7.51 51.11 8.1 52.38 7.09 51.11 6.07 52.63 6.66 52.87 5.05 53.12 6.66 54.63 6.07 53.37 7.09"/>
        <polygon class="cls-1" points="73.85 1.27 74.65 1.91 73.7 1.54 73.55 2.54 73.39 1.54 72.45 1.91 73.24 1.27 72.45 .64 73.39 1 73.55 0 73.7 1 74.65 .64 73.85 1.27"/>
        <polygon class="cls-1" points="66.81 8.79 68.08 9.81 66.57 9.22 66.32 10.83 66.07 9.22 64.56 9.81 65.83 8.79 64.56 7.77 66.07 8.37 66.32 6.76 66.57 8.37 68.08 7.77 66.81 8.79"/>
        <polygon class="cls-1" points="30.55 8.26 31.72 9.19 30.32 8.65 30.1 10.13 29.87 8.65 28.47 9.19 29.64 8.26 28.47 7.32 29.87 7.86 30.1 6.38 30.32 7.86 31.72 7.32 30.55 8.26"/>
        <polygon class="cls-1" points="81.36 4.38 82.63 5.4 81.11 4.81 80.87 6.42 80.62 4.81 79.1 5.4 80.37 4.38 79.1 3.37 80.62 3.96 80.87 2.35 81.11 3.96 82.63 3.37 81.36 4.38"/>
        <polygon class="cls-1" points="14.97 20.62 15.76 21.25 14.82 20.88 14.66 21.89 14.51 20.88 13.56 21.25 14.35 20.62 13.56 19.98 14.51 20.35 14.66 19.34 14.82 20.35 15.76 19.98 14.97 20.62"/>
      </g>
    </g>
  </g>
</svg>