<?xml version="1.0" encoding="UTF-8"?>
<svg id="_レイヤー_2" data-name="レイヤー 2" xmlns="http://www.w3.org/2000/svg" viewBox="0 0 30.89 22.12">
  <defs>
    <style>
      .cls-1 {
        fill: #39385d;
        stroke-width: 0px;
      }
    </style>
  </defs>
  <g id="design">
    <g>
      <path class="cls-1" d="m3.82,7.48c-.41-.47-.97-.66-1.56-.78-.41-.09-.71-.47-.65-.88.23-1.71.47-3.42.7-5.13C2.37.26,2.76-.04,3.19,0c.1,0,.2.03.31.04,8.77,1.21,17.54,2.41,26.31,3.61.41.06.77.17,1,.54.03.1.05.19.08.29-.79,5.73-1.58,11.46-2.36,17.18-.03.02-.08.02-.1.05-.25.32-.55.44-.97.38-8.88-1.23-17.77-2.45-26.65-3.66-.39-.05-.64-.24-.8-.57,0-.13-.03-.25,0-.38.23-1.69.46-3.37.7-5.06.02-.12.07-.24.11-.36.24-.28.54-.38.92-.34.61.07,1.19-.05,1.68-.44.06-.05.13-.1.19-.14.05-.07.09-.14.14-.21,0-.01,0-.03,0-.04.07-.03.16-.04.2-.09.7-.94.79-2.32-.08-3.27-.02-.02-.04-.04-.06-.05Zm5.3-3.38s-.06-.04-.1-.06c-.42-.48-.07-1.03-.1-1.53-1.69-.23-3.37-.46-5.06-.7-.15,1.1-.3,2.19-.45,3.27-.02.16.05.21.17.25.19.07.38.13.56.19.02,0,.03,0,.05,0,.09.09.17.19.27.26.49.35.88.77,1.16,1.31.16.3.31.6.46.9,0,.04.02.08.03.12,0,.08,0,.17.01.25.17.96.07,1.89-.38,2.75-.69,1.31-1.79,2.08-3.25,2.29-.21.03-.24.11-.26.27-.13.94-.26,1.88-.39,2.82-.02.12-.03.23-.05.34l5.02.69c.04-.3.08-.59.12-.88.06-.4.43-.71.83-.67.42.04.79.34.8.74,0,.35-.03.7-.05,1.05,6.15.85,12.31,1.69,18.47,2.54.69-5.02,1.38-10.03,2.07-15.03-6.16-.85-12.3-1.69-18.45-2.54-.04.29-.07.56-.11.82-.06.4-.35.63-.69.72-.21.05-.51.05-.69-.19Z"/>
      <path class="cls-1" d="m15.59,16.16c.1-.16.18-.33.3-.47,1.16-1.32,2.34-2.64,3.5-3.96,1.43-1.62,2.86-3.26,4.3-4.88.21-.23.41-.49.79-.48.57.01.95.44.87,1.01-.06.47-.46.65-.71.95-1,1.18-2.04,2.33-3.07,3.49-1.49,1.68-2.99,3.35-4.49,5.02-.28.32-.69.43-.99.27-.35-.19-.56-.59-.51-.95Z"/>
      <path class="cls-1" d="m15.13,7.54c-.02-.8.66-1.27,1.13-1.86.53-.1,1.04-.35,1.6-.25,1.67.29,2.46,1.43,2.26,2.87-.21,1.49-1.36,2.25-2.76,2.17-1.53-.08-2.49-1.71-2.22-2.94Zm1.66.3c-.07.48.23.88.69.94.45.06.95-.28.98-.72.03-.49-.22-.86-.78-.95-.45-.08-.89.32-.89.73Z"/>
      <path class="cls-1" d="m20.89,15.21c.11-1.29,1.41-2.35,2.73-2.16,1.64.23,2.46,1.48,2.26,2.87-.21,1.47-1.46,2.29-2.83,2.16-1.35-.13-2.44-1.57-2.17-2.87Zm2.36,1.19c.45.06.95-.28.98-.72.03-.5-.22-.86-.78-.95-.45-.07-.86.33-.89.73-.04.48.23.88.7.94Z"/>
      <path class="cls-1" d="m7.51,12.53c.04-.29.08-.57.12-.86.06-.42.42-.74.83-.71.4.03.84.35.8.75-.07.71-.16,1.41-.29,2.11-.07.37-.61.59-1.03.47-.32-.09-.61-.47-.56-.85.04-.31.08-.61.13-.92h0Z"/>
      <path class="cls-1" d="m8.2,7.51c.04-.3.08-.59.12-.89.06-.4.42-.71.83-.68.4.03.84.35.8.75-.07.71-.16,1.41-.29,2.11-.07.38-.6.59-1.03.47-.32-.09-.61-.46-.56-.84.04-.31.08-.61.13-.92Z"/>
    </g>
  </g>
</svg>