<?xml version="1.0" encoding="UTF-8"?>
<svg id="_レイヤー_2" data-name="レイヤー 2" xmlns="http://www.w3.org/2000/svg" viewBox="0 0 9.16 19.72">
  <defs>
    <style>
      .cls-1 {
        fill: #fff;
        fill-rule: evenodd;
        stroke-width: 0px;
      }
    </style>
  </defs>
  <g id="_デザイン" data-name="デザイン">
    <path class="cls-1" d="m2.02,9.94v9.53c0,.14.11.25.25.25h3.54c.14,0,.25-.11.25-.25v-9.69h2.57c.13,0,.24-.1.25-.23l.25-2.92c.01-.14-.1-.27-.25-.27h-2.81v-2.07c0-.49.39-.88.88-.88h1.98c.14,0,.25-.11.25-.25V.25c0-.14-.11-.25-.25-.25h-3.34c-1.96,0-3.55,1.59-3.55,3.55v2.81H.25c-.14,0-.25.11-.25.25v2.92c0,.14.11.25.25.25h1.77v.16Z"/>
  </g>
</svg>