<?xml version="1.0" encoding="UTF-8"?>
<svg id="_レイヤー_2" data-name="レイヤー 2" xmlns="http://www.w3.org/2000/svg" viewBox="0 0 21.23 21.23">
  <defs>
    <style>
      .cls-1 {
        fill: #fff;
        stroke-width: 0px;
      }
    </style>
  </defs>
  <g id="_デザイン" data-name="デザイン">
    <path class="cls-1" d="m17.47,4.94c0,.68-.55,1.23-1.23,1.23s-1.23-.55-1.23-1.23.55-1.23,1.23-1.23,1.23.55,1.23,1.23Zm-1.53,5.52c0,2.85-2.32,5.17-5.17,5.17s-5.17-2.32-5.17-5.17,2.32-5.17,5.17-5.17,5.17,2.32,5.17,5.17Zm-1.86,0c0-1.83-1.49-3.31-3.31-3.31s-3.31,1.49-3.31,3.31,1.49,3.31,3.31,3.31,3.31-1.49,3.31-3.31Zm7.16-4.16c0-3.48-2.83-6.31-6.31-6.31H6.31C2.83,0,0,2.82,0,6.31v8.61c0,3.48,2.83,6.31,6.31,6.31h8.61c3.48,0,6.31-2.82,6.31-6.31V6.31Zm-2.07,8.52c0,2.39-1.94,4.33-4.33,4.33H6.4c-2.39,0-4.33-1.94-4.33-4.33V6.4c0-2.39,1.94-4.33,4.33-4.33h8.42c2.39,0,4.33,1.94,4.33,4.33v8.42Z"/>
  </g>
</svg>