<?xml version="1.0" encoding="UTF-8"?>
<svg id="_レイヤー_2" data-name="レイヤー 2" xmlns="http://www.w3.org/2000/svg" viewBox="0 0 533.57 245.54">
  <defs>
    <style>
      .cls-1, .cls-2, .cls-3, .cls-4, .cls-5, .cls-6, .cls-7, .cls-8, .cls-9, .cls-10, .cls-11, .cls-12, .cls-13, .cls-14, .cls-15, .cls-16, .cls-17 {
        stroke-width: 0px;
      }

      .cls-1, .cls-2, .cls-3, .cls-4, .cls-5, .cls-18, .cls-7, .cls-19, .cls-10, .cls-11, .cls-13, .cls-17 {
        fill-rule: evenodd;
      }

      .cls-1, .cls-6 {
        fill: #3b6888;
      }

      .cls-2, .cls-14 {
        fill: #7984a4;
      }

      .cls-3 {
        fill: #525269;
      }

      .cls-20 {
        stroke: #39385d;
      }

      .cls-20, .cls-21 {
        fill: none;
        stroke-miterlimit: 10;
      }

      .cls-4 {
        fill: #39385d;
      }

      .cls-5 {
        fill: #4b7a97;
      }

      .cls-18, .cls-19 {
        fill: #f3f3f5;
        stroke-width: 1.5px;
      }

      .cls-18, .cls-19, .cls-22, .cls-23 {
        stroke-linejoin: round;
      }

      .cls-18, .cls-23 {
        stroke: #3b6888;
      }

      .cls-7 {
        fill: #43769a;
      }

      .cls-19 {
        stroke: #717e9a;
      }

      .cls-8 {
        fill: #3580a4;
      }

      .cls-22 {
        stroke: #3677a6;
      }

      .cls-22, .cls-23, .cls-16 {
        fill: #efeff1;
      }

      .cls-9 {
        fill: #598eb3;
        opacity: .04;
      }

      .cls-10 {
        fill: #cbc9cf;
      }

      .cls-11 {
        fill: #616e83;
      }

      .cls-12 {
        fill: #302f5d;
        opacity: .03;
      }

      .cls-13 {
        fill: #386280;
      }

      .cls-21 {
        stroke: #ab9b93;
      }

      .cls-15 {
        fill: #a1928b;
      }

      .cls-17 {
        fill: #c4af96;
      }
    </style>
  </defs>
  <g id="design">
    <g>
      <circle class="cls-12" cx="161.01" cy="145.66" r="84.28"/>
      <path class="cls-16" d="m150.49,61.1s-1.37,5.38-3.31,9.84c-3.43-.34-11.53.34-16.56,2.63s-7.08,13.13-6.62,17.81,7.65,18.27,7.65,18.27l3.2,6.74-1.14,24.09,1.83.23c-.11,9.93,5.48,14.96,10.96,18.73l7.08,20.78-9.93,5.71-2.28.57-2.97,1.94-1.03,1.6s2.17,10.85,2.28,11.99c.11,1.14,1.94,7.08,2.17,8.34.23,1.26,2.28,3.2,2.51,3.54s1.48-.34,2.85-.8.69-12.45.69-12.45l.8-8.11,7.76-1.83,7.65,24.09,6.05,16.79.34,2.09s.28,1.29.48,2.85,2.07,3.38,2.07,3.38l2.31.12,8.56.1s9.34-.39,9.63-.49,3.99-.97,4.28-1.27.19-2.63,0-3.41-5.35-1.85-5.35-1.85c0,0-5.94-1.17-6.37-1.11s-2.78-.45-2.78-.45l-3.41-.78s-.97-.88-1.44-1.83l-2.97-35.85-.34-7.54s18.61-8.79,21.92-10.96,2.85-7.19,2.85-9.48-3.31-6.28-3.31-6.28l-9.36-10.5-9.71-10.85-1.03-1.6,1.03.11.69-.69-.57-6.62.57-.23,1.83.34h1.94l2.06-.46,2.97-2.51,11.76-16.9,5.6-8.68s.34-3.2.34-4.45-1.48-2.51-1.48-2.51l-2.63-.8c-.2-1.19.67-2.57,1.55-3.39s1.79-1.97,1.39-3.1c-.37-1.07-1.68-1.44-2.79-1.65-2.29-.44-4.62-.87-6.94-.66s-4.68,1.17-6.07,3.04c-.41.55-.73,1.16-1.23,1.63s-1.25.75-1.87.45c-.58-3.59-1.21-7.26-3.04-10.4-1.83-3.14-5.15-5.67-8.79-5.51-1.74.08-4.48-.24-5.86-.66l2.98-7.88c3.19.43,6.82.53,9.26-1.38s4.47-5.32,5.54-7.13c1.06-1.81,4.15-10.33,4.15-10.33,0,0,3.3-8.94-.21-13.31s-8.52-8.41-13.63-9.48c-5.11-1.06-14.16-.85-18.1,3.19-3.94,4.05-9.8,9.48-11.61,15.44-1.81,5.96-3.3,10.22-2.88,12.88s1.92,5.96,3.09,6.07c1.17.11,2.94,1.02,4.93.78Z"/>
      <circle class="cls-9" cx="371.49" cy="117.86" r="78.74"/>
      <path class="cls-16" d="m380.1,43.16c.32-1.85.64-3.72,1.44-5.41.8-1.69,2.16-3.21,3.95-3.77,3.1-.97,6.26,1.1,8.85,3.06,3.73,2.82,7.47,5.66,10.72,9.03s6,7.31,7.39,11.78c1.97,6.33,1.15,13.46,4.2,19.34,1.15,2.21,2.82,4.16,3.74,6.47,1.15,2.87,1.07,6.07.97,9.16-.13,4.21-.27,8.43-.4,12.64l-2.06,6.62,1.61,33.1s5.23.26,5.98.38,3.54.29,4.46.33,3,.29,3.5.42,1.88.58,2.17.88,1.33.83,1.62,1.58,1.96,3.71,1.88,4.46-.42,1.71-.79,1.75-1.46.21-1.46.21l-.67.75s-.5.75-.75.75-1.92-.5-2.08-.58-1.75-1.75-1.96-2.04-.67-1.21-.92-1.29-.83-.08-2.08-.21-7.58-.21-7.58-.21c0,0-.04.42.17.62s2,1.67,2,1.67c0,0,2.62,1.92,2.62,2.38s-.21,1.71-.62,1.83-1.75.58-2.04.5-2.54-1.12-2.54-1.12l-5.83-3.21-3-2.67s-1.38-3.21-1.54-4.21h-21.58s-5.48,2.03-8.75,2.3c-3.27.27-11.68.96-21.25-.31-9.57-1.27-18.06-2.38-20.48-3.73-.04,1.54.38,4.07.38,4.07l.61,9.34.08,7.8.08,6.76-.08,10.6.08,6.15.19,1.34.54,2.07.92,4.19-1.31.85s-6.38,2.34-7.53,2.69-7.49,2-8.41,2.19-5.99,1.34-7.03,1.27c-1.04-.08-2.65-.42-2.65-.42l-.92-1.04.04-1.77.96-1.23,3.88-3.57,9.91-6.3-.08-2.38s-1.81-13.41-2.07-14.91-1.19-5.11-1.19-5.11l-2.69,5.26s-6.65,13.33-7.3,14.56c-.65,1.23-4,7.38-4.34,7.53s-1.84-.19-1.84-.19c0,0-6.69-2.8-10.18-4.61s-10.57-5.72-11.33-6.69-2.34-3.53,1.11-4.34c3.46-.81,5.72-.15,5.72-.15l4.69.54,6.99,1.15,6.72-17.64,8.34-23.21.5-4.38s.85-6.45,2.8-8.34,4.11-3.57,7.8-4.11c3.69-.54,8.72-1.08,10.57-1.27,1.84-.19,9.57-.69,11.07-.81s5.15-.08,5.15-.08l-4.15-7.91s-5.03-11.41-5.38-12.33-2.38-6.61-2.38-6.61c0,0-3.11-2.15-3.96-2.69s-4.88-3.5-5.92-5.84c-1.04-2.34-1.38-4.65-1.38-4.65l-.73-1s-.88-1.65-.73-2.31.04-1,.04-1l-1.11-1.11s-.35-1.19.31-2.11,3.04-3.15,3.04-3.15l.12-.92-.38-2.73-.31-1.96s.04-1.58,1.31-1.27c1.27.31,2.54,1.15,2.54,1.15l7.91,3.46.61,1.92.48,2.43,4.06,1.99s3.77,3,3.88,3.38.88,5.42.88,5.42c0,0-.27,5.26-.35,5.88s-.04,2.88.38,3.77,7.42,15.25,7.42,15.25l2.67,5.06,2.21-1.79,8.91-9.57,1.65-2.15s-.42-3.96-.23-4.88,2.38-4.69,2.38-4.69l9.26-10.1,2.57-2.5-2-7.68-4-1.5s-7.91-2.8-9.18-3.34-4.46-1.5-4.34-4.92,1.61-6.53,1.61-6.53l-.15-.65-1.69-1.27-1.38-1.42,1.08-.96,3.3-1.38,2.08-5.85Z"/>
      <path class="cls-10" d="m312.66,164.74l11.29,6.68,1.43-2.54.95,2.54s3.66.16,4.93.16,7.31.16,8.58-.79c0,0-.48-21.78-1.11-24.32,0,0,8.58,2.54,11.45,2.86s17.17,1.59,20.19,1.59,13.03-.16,17.01-2.07c3.97-1.91,10.97-6.68,11.92-12.4l-21.94-14.47-8.74.16s-25.59.79-26.86.95-14.94,1.11-17.64,5.88-2.7,10.49-2.86,12.4c-1.11,2.7-8.58,23.37-8.58,23.37Z"/>
      <g>
        <path class="cls-23" d="m484.13,86.99l4.33,1.71-4.33,1.71-1.71,4.33-1.71-4.33-4.33-1.71,4.33-1.71,1.71-4.33,1.71,4.33Z"/>
        <path class="cls-21" d="m371.82,238.75l3.04,1.2-3.04,1.2-1.2,3.04-1.2-3.04-3.04-1.2,3.04-1.2,1.2-3.04,1.2,3.04Z"/>
        <path class="cls-23" d="m50.62,212.24l2.92,1.15-2.92,1.15-1.15,2.92-1.15-2.92-2.92-1.15,2.92-1.15,1.15-2.92,1.15,2.92Z"/>
        <path class="cls-15" d="m54.9,4.33l4.33,1.71-4.33,1.71-1.71,4.33-1.71-4.33-4.33-1.71,4.33-1.71,1.71-4.33,1.71,4.33Z"/>
        <path class="cls-6" d="m533.57,26.84l-3.46,4.49-3.46-4.49,3.46-4.49,3.46,4.49Z"/>
        <path class="cls-8" d="m431.95,189.4l-3.46,4.49-3.46-4.49,3.46-4.49,3.46,4.49Z"/>
        <path class="cls-8" d="m83.74,146.12l-3.46,4.49-3.46-4.49,3.46-4.49,3.46,4.49Z"/>
        <path class="cls-14" d="m513.57,226.94l3.61,1.42-3.61,1.42-1.42,3.61-1.42-3.61-3.61-1.42,3.61-1.42,1.42-3.61,1.42,3.61Z"/>
        <circle class="cls-22" cx="403.44" cy="6.12" r="2.23"/>
        <circle class="cls-20" cx="3.44" cy="77.57" r="2.94"/>
        <circle class="cls-14" cx="292.79" cy="105.29" r="2.98"/>
      </g>
      <g>
        <path class="cls-7" d="m330.71,195.92s-.67-.22-1.51-.55c-.32-.12-.66-.25-.99-.4-1.23-.54-2.42-1.14-2.42-1.14-.22-.1-.33-.35-.23-.58.09-.22.36-.33.58-.23,0,0,1.26.44,2.49.96.34.14.67.3.97.44.81.39,1.44.71,1.44.71.22.09.32.34.23.56-.09.22-.34.32-.56.23Z"/>
        <path class="cls-7" d="m326.77,197.41s-.46-.21-1.03-.5c-.22-.11-.45-.23-.67-.37-.82-.5-1.6-1.06-1.6-1.06-.21-.12-.28-.39-.15-.6.12-.21.39-.28.6-.16,0,0,.87.41,1.7.88.23.13.45.27.65.41.54.36.94.66.94.66.2.12.27.38.15.59-.12.2-.38.27-.59.15Z"/>
        <path class="cls-7" d="m303.44,181.97s.14.44.27,1.01c.05.21.11.45.15.68.14.86.21,1.73.21,1.73.04.24-.12.47-.36.51-.24.04-.47-.12-.51-.35,0,0-.24-.84-.41-1.7-.05-.23-.08-.47-.1-.69-.07-.59-.1-1.04-.1-1.04-.04-.23.11-.45.35-.5.23-.04.46.11.5.35Z"/>
        <path class="cls-7" d="m300.55,181.39s.09.42.18.97c.03.2.07.43.08.65.07.82.05,1.64.05,1.64.02.24-.16.46-.4.48-.24.02-.46-.15-.48-.4,0,0-.17-.8-.25-1.62-.02-.22-.04-.45-.04-.65-.02-.55,0-.99,0-.99-.02-.23.15-.44.39-.47.24-.02.44.15.47.39Z"/>
        <path class="cls-7" d="m340.97,196.94s-4.24,1.59-9.08,3.27c-1.29.45-2.62.9-3.92,1.32-3.7,1.21-7.19,2.23-8.9,2.53-1.92.33-3.12.22-3.87-.02-1.39-.44-1.46-1.33-1.46-1.33-.04-.24.13-.46.37-.5.24-.04.46.13.5.37,0,0,.16.52,1.32.7.67.1,1.63.08,2.98-.17,1.33-.25,3.77-1,6.56-1.89,1.95-.63,4.08-1.33,6.1-2,4.85-1.61,9.14-3.08,9.14-3.08.22-.08.47.04.55.26.08.22-.04.47-.26.55Z"/>
        <path class="cls-7" d="m312.16,195.07s-2.65-1.17-6.02-2.7c-1.88-.85-3.99-1.81-6-2.75-3.62-1.7-6.88-3.31-7.92-3.9-1.28-.73-2.24-1.62-2.91-2.43-.82-1-1.21-1.91-1.25-2.34-.03-.24.15-.46.39-.49.24-.03.46.15.49.39.05.42.55,1.32,1.48,2.28.59.6,1.35,1.22,2.3,1.74.38.21,1.06.55,1.94.97,1.8.87,4.45,2.1,7.15,3.37,1.85.87,3.71,1.76,5.36,2.54,3.06,1.45,5.36,2.55,5.36,2.55.21.1.31.35.21.57-.1.21-.36.31-.57.21Z"/>
        <path class="cls-7" d="m310.9,195.97c.17-.18.51-.73.97-1.54.59-1.02,1.35-2.44,2.22-4.09.11-.21.38-.3.59-.19.21.11.3.38.18.59-.86,1.67-1.62,3.1-2.2,4.13-.55.98-.97,1.62-1.16,1.8-.18.17-.56.28-1.12.21-1.24-.16-3.73-1.11-6.62-2.43-3.08-1.41-6.64-3.22-9.64-4.89-2.84-1.58-5.18-3.03-6.18-3.85-1.65-1.38-2.11-2.79-1.72-3.87.21-.59.69-1.12,1.43-1.51.95-.5,2.38-.79,4.22-.71,1.66.07,3.74.31,5.81.6,4.34.61,8.59,1.47,8.59,1.47.23.04.38.27.34.5-.05.23-.27.38-.5.34,0,0-4.24-.79-8.56-1.35-2.04-.27-4.09-.48-5.72-.54-2.01-.07-3.46.3-4.21.99-.88.81-.5,2,1.02,3.26,1.75,1.46,7.82,4.88,13.25,7.55,2.93,1.44,5.68,2.67,7.46,3.22.53.17.97.27,1.3.3.1,0,.22,0,.26,0Z"/>
        <path class="cls-7" d="m341.28,198.52c0-.25-.12-.88-.31-1.79-.25-1.15-.63-2.71-1.1-4.52-.06-.24.08-.48.32-.54.23-.06.47.08.53.32.48,1.81.88,3.39,1.14,4.54.25,1.1.37,1.85.35,2.11-.02.25-.23.59-.69.91-1.02.72-3.51,1.68-6.54,2.65-3.23,1.03-7.09,2.07-10.43,2.86-3.17.74-5.87,1.24-7.16,1.3-2.15.08-3.44-.65-3.87-1.71-.24-.58-.24-1.29.04-2.08.37-1.01,1.23-2.18,2.65-3.36,1.27-1.06,2.98-2.29,4.71-3.46,3.62-2.46,7.35-4.69,7.35-4.69.2-.12.46-.06.59.14.12.2.06.47-.14.59,0,0-3.67,2.26-7.25,4.75-1.69,1.17-3.35,2.39-4.6,3.44-1.54,1.3-2.36,2.55-2.46,3.56-.11,1.19.97,1.82,2.94,1.73,2.27-.09,9.07-1.63,14.89-3.3,3.14-.9,6-1.84,7.69-2.62.51-.23.9-.45,1.16-.65.08-.06.16-.15.19-.18Z"/>
        <path class="cls-11" d="m306.53,182.21s.7,1.69,2.07,3.54c.5.68,1.1,1.39,1.79,2.04,1.04.98,2.29,1.84,3.8,2.26.24.06.38.3.31.53-.06.23-.3.38-.53.31-2.14-.52-3.88-1.77-5.17-3.2-.58-.63-1.06-1.3-1.47-1.94-1.12-1.76-1.61-3.26-1.61-3.26-.08-.22.04-.47.25-.55.22-.08.47.03.55.25Z"/>
        <path class="cls-11" d="m328.81,191.25s1.65.78,3.91,1.23c.83.17,1.75.29,2.7.31,1.42.03,2.93-.17,4.34-.88.22-.11.48-.03.59.18.11.21.03.48-.18.59-1.93,1.06-4.06,1.29-5.98,1.11-.85-.08-1.66-.25-2.39-.45-2.01-.55-3.38-1.34-3.38-1.34-.21-.11-.29-.37-.18-.58.11-.21.37-.29.58-.18Z"/>
        <path class="cls-17" d="m358.57,122.26s-4.03-7.33-7.72-15.82c-1.54-3.55-3.02-7.3-4.14-10.8-.81-.52-4.38-2.89-6.94-5.1-1.24-1.07-2.24-2.12-2.64-2.91-.62-1.24-1.04-2.31-1.29-3.2-.31-1.12-.34-1.97-.19-2.48.16-.52,1.29-2.06,2.46-3.25.6-.61,1.21-1.13,1.68-1.4.27-.15.51-.22.7-.23.77-.03,1.6.51,1.97,1.39.27.64.31,1.45-.11,2.31-.28.56-.74,1.27-1.24,1.98-.98,1.38-2.09,2.71-2.09,2.71-.15.19-.43.21-.62.06-.19-.15-.21-.43-.06-.62,0,0,1.08-1.31,2.03-2.67.46-.66.89-1.33,1.15-1.86.28-.57.26-1.11.08-1.54-.21-.49-.64-.82-1.07-.8-.15,0-.35.15-.59.33-.47.35-1.03.9-1.55,1.48-.86.96-1.65,1.99-1.77,2.39-.12.4-.04,1.05.21,1.92.24.83.64,1.84,1.24,3,.46.9,1.83,2.14,3.36,3.36,2.75,2.2,6.05,4.32,6.05,4.32.11.07.19.17.22.29,1.09,3.52,2.57,7.31,4.11,10.9,3.61,8.47,7.53,15.82,7.53,15.82.11.21.04.47-.17.58-.21.11-.47.04-.58-.17Z"/>
        <path class="cls-7" d="m387.87,148.74c.21.1.31.34.22.56-.09.22-.35.33-.57.24-.18-.07-.36-.24-.51-.5-.14-.25-.26-.62-.36-1.04-.31-1.36-.39-3.33-.39-3.33,0-.15.07-.3.18-.4.89-.74,1.82-1.79,2.69-2.85.66-.81,1.29-1.63,1.82-2.37,1.02-1.39,1.72-2.45,1.72-2.45.07-.12.19-.2.32-.22.14-.03.27,0,.39.08.33.23.97.61,1.66,1,1.22.7,2.58,1.45,2.58,1.45.21.11.29.37.18.58-.11.21-.37.29-.58.18,0,0-1.39-.7-2.64-1.37-.49-.26-.95-.52-1.31-.72-.29.45-.79,1.22-1.44,2.11-.54.75-1.18,1.6-1.87,2.42-.86,1.04-1.8,2.04-2.7,2.78.01.47.06,1.54.2,2.48.07.45.15.87.28,1.16.04.09.16.16.12.21Z"/>
        <path class="cls-7" d="m379.98,124.5s-1.38.43-2.95,1.4c-.57.35-1.17.79-1.74,1.29-1.22,1.08-2.32,2.52-2.67,4.5-.04.24-.26.4-.5.37-.24-.04-.4-.26-.37-.5.31-2.24,1.45-3.95,2.81-5.17.62-.56,1.29-1.01,1.93-1.38,1.74-.99,3.26-1.34,3.26-1.34.23-.06.46.08.52.3.06.23-.08.46-.3.52Z"/>
        <path class="cls-11" d="m339.96,171.58s-2.22.45-5.02.7c-1.08.09-2.24.15-3.39.14-2.12-.01-4.2-.25-5.67-.82-.23-.08-.34-.34-.26-.56.08-.23.34-.34.56-.26,1.4.49,3.37.6,5.36.58,1.12-.01,2.26-.07,3.31-.14,2.75-.18,4.96-.48,4.96-.48.23-.04.45.12.49.35.04.23-.12.45-.35.49Z"/>
        <path class="cls-11" d="m323.71,171.67s-1.93-.89-4.2-2.09c-.89-.47-1.83-1-2.73-1.53-1.96-1.16-3.71-2.35-4.35-3.05-.17-.18-.16-.45.02-.62.18-.17.46-.16.62.02.5.52,1.71,1.27,3.13,2.1,1,.58,2.1,1.19,3.15,1.77.85.47,1.66.93,2.38,1.33,1.39.78,2.38,1.32,2.38,1.32.21.11.29.36.19.57-.11.21-.36.3-.57.19Z"/>
        <path class="cls-4" d="m404.23,32.09s-5.11-3.05-8.75-3.52c0,0-5.65-1.25-10.92,2.67-5.28,3.92-5.06,7.62-4.75,9.14.32,1.52,2.58,4.06,5.58,4.13,0,0-1.36-3.23-1.35-4.58,0-1.35.22-2.09,1.08-2.05.86.03,1.01.51,1.41,1.79.4,1.28,1.19,3.11,2.75,4.51,1.56,1.4,4.53,2.74,4.53,2.74,0,0,3.16-1.77,5.96-.87,0,0,4.26-7.64,4.61-9.49.34-1.85-.16-4.47-.16-4.47Z"/>
        <path class="cls-4" d="m411.65,36.62s4.58,4.25,5.54,8.1c.97,3.85.59,8.07.08,10.41-.51,2.35.06,5.13,1.99,7.28,1.93,2.15,6.99,7.03,7.35,9.64.36,2.62.27,4.68-.74,7.26-1.02,2.57-1.63,5.59-.38,7.35,1.25,1.76,5.08,4.33,6.37,7.39,1.29,3.06,2.23,7.3-.12,11.25-2.35,3.96-7.54,8.88-12.83,6.75,0,0-1.64-19.72-2.01-22.97-.37-3.25-2.14-8.08-4.7-9.81-2.57-1.73-5.06-2.72-6.24-3.68-1.18-.96-2.64-2.88-3.48-5.44-.84-2.56-1.29-5.38-1.29-5.38,0,0,6.81-.73,8.38-5.79,0,0,1.73-4.03-.04-6.96-1.76-2.94-1.93-2.6-1.93-2.6,0,0,3.98-11.25,4.04-12.83Z"/>
        <path class="cls-4" d="m336.53,70.64l-.84-4.63c-.05-.29-.02-.58.08-.85.1-.27.28-.51.51-.69.23-.19.51-.3.79-.34.28-.04.58,0,.86.11h0c1.05.44,2.43,1.02,3.84,1.63,2.22.96,4.51,1.97,5.73,2.51.35.16.65.39.89.68.23.29.39.64.46,1.01l.56,3.04c.05.24-.11.47-.35.52-.24.05-.47-.11-.52-.35l-.63-3.03c-.05-.22-.15-.42-.29-.59-.14-.17-.31-.3-.52-.38-1.23-.51-3.54-1.47-5.77-2.42-1.41-.6-2.78-1.2-3.83-1.66-.1-.04-.21-.06-.31-.05-.11.01-.21.05-.3.12-.09.07-.16.16-.2.26-.04.1-.06.21-.04.32l.7,4.66c.04.23-.12.45-.35.49-.23.04-.45-.12-.49-.35Z"/>
        <path class="cls-4" d="m350.83,79.62l2.55,11.23c.07.3.05.6-.05.89-.09.28-.26.54-.49.74-.23.2-.51.33-.8.38-.29.05-.6.02-.89-.09l-10.35-4.02c-.28-.11-.52-.28-.71-.51-.19-.22-.33-.49-.39-.78l-.41-1.91c-.05-.24.09-.47.33-.52.24-.05.47.09.53.33l.45,1.9c.04.14.1.27.2.38.09.11.21.19.35.24l10.4,3.88c.1.04.21.05.31.03.1-.02.2-.06.28-.13.08-.07.14-.16.18-.26.03-.1.04-.21.02-.31l-2.33-11.28c-.05-.23.1-.46.33-.51.23-.05.46.1.51.33Z"/>
        <path class="cls-4" d="m412.12,36.45s2.66,2.41,4.48,5.74c.78,1.42,1.4,3.01,1.61,4.64.47,3.66-.63,7.34-.42,10.62.09,1.42.44,2.76,1.33,3.99,2.05,2.81,5.1,5.18,6.87,7.94.88,1.37,1.45,2.84,1.48,4.49.03,1.78-.4,3.53-.88,5.19-.51,1.76-1.1,3.4-1.21,4.85-.06.8.03,1.53.39,2.18.51.91,1.31,1.63,2.2,2.42,1.17,1.05,2.49,2.21,3.57,3.95.88,1.41,1.6,3.19,1.97,5.6.59,3.81-1.21,7.93-4,10.88-3.04,3.21-7.26,5.02-10.81,3.66-.23-.09-.34-.34-.25-.57.09-.23.34-.34.57-.25,3.24,1.22,7.05-.54,9.81-3.48,2.58-2.75,4.26-6.56,3.7-10.08-.36-2.25-1.03-3.91-1.86-5.21-1.03-1.64-2.29-2.72-3.4-3.71-.99-.88-1.87-1.69-2.43-2.69-.47-.83-.6-1.76-.53-2.78.09-1.25.51-2.63.95-4.1.56-1.84,1.16-3.82,1.13-5.85-.02-1.44-.54-2.72-1.3-3.93-1.75-2.74-4.77-5.11-6.8-7.91-1-1.39-1.41-2.92-1.5-4.53-.19-3.26.94-6.92.49-10.56-.24-1.92-1.09-3.77-2.06-5.34-1.66-2.68-3.67-4.53-3.67-4.53-.17-.16-.19-.43-.03-.6.16-.17.43-.19.6-.03Z"/>
        <path class="cls-2" d="m374.25,51.56c.18.27.6.58,1.05.89.94.63,2.07,1.18,2.07,1.18.25.12.36.42.25.67,0,0-1.09,2.52-1.65,5.09-.27,1.22-.43,2.45-.26,3.4.06.33.4.65.87,1.01.82.63,2.06,1.28,3.48,1.93,5.19,2.35,12.86,4.53,12.86,4.53.16.04.28.17.33.33l2.04,7.46c.07.23-.07.48-.3.54-.23.07-.47-.07-.54-.3l-2.04-7.18c-1.39-.39-8.08-2.32-12.78-4.41-1.83-.82-3.37-1.67-4.2-2.46-.46-.44-.72-.87-.79-1.27-.18-1.07-.03-2.45.28-3.82.45-2,1.21-3.97,1.56-4.83-.7-.38-2.07-1.16-2.74-1.83-.27-.26-.43-.53-.49-.75-.07-.25-.03-.47.11-.67.19-.27.69-.64,1.32-.99,1.02-.57,2.38-1.15,2.88-1.36,0,0,2.15-6.37,2.15-6.37.07-.22.32-.35.54-.27.23.07.35.32.27.54l-2.13,6.6c-.04.13-.14.24-.27.29,0,0-1.38.58-2.55,1.2-.56.3-1.08.59-1.31.84Z"/>
        <path class="cls-4" d="m384.82,43.95c-.55-1.08-1.06-2.71-1.21-4.02-.07-.62-.05-1.18.06-1.58.1-.36.28-.62.52-.78.73-.48,1.3-.39,1.72-.1.32.22.57.58.73.95.2.44.29.88.31.99.57,1.97,1.55,3.42,2.6,4.48,2.1,2.1,4.47,2.65,4.47,2.65.23.05.37.28.32.51-.05.23-.28.38-.51.32,0,0-2.62-.57-4.93-2.84-1.17-1.15-2.26-2.73-2.9-4.88,0-.02-.01-.04-.01-.06,0,0-.12-.75-.5-1.18-.07-.08-.15-.15-.26-.17-.14-.03-.3.03-.49.16-.04.03-.06.09-.08.15-.04.1-.06.23-.07.36-.05.57.07,1.34.27,2.12.28,1.11.73,2.25,1.17,2.9.16.24.15.45.1.61-.06.18-.2.35-.46.44-.17.06-.46.08-.84.03-.62-.08-1.53-.36-2.45-.86-1.5-.82-2.99-2.22-3.25-4.23-.32-2.5,1.16-6.12,4.46-8.75,2.24-1.79,5.33-3.12,9.24-3.33,1.99-.1,4.23.29,6.3,1.01,2.22.77,4.23,1.91,5.53,3.18.17.17.18.45,0,.62-.17.17-.45.18-.62,0-1.22-1.18-3.13-2.23-5.22-2.93-1.95-.66-4.06-1.02-5.94-.91-3.66.22-6.55,1.49-8.64,3.17-2.94,2.36-4.33,5.55-4.03,7.79.13,1.06.71,1.89,1.42,2.54,1.03.93,2.35,1.46,3.19,1.61Z"/>
        <path class="cls-4" d="m401.66,64.91s.06,3.56,1.95,6.98c1.04,1.88,2.65,3.72,5.12,4.87.31.1,2.74.95,4.99,3.46,1.15,1.28,2.25,3,3,5.27.75,2.29,1.48,9.31,2.08,17.77,1.18,16.62,1.94,38.84,2.11,41.45.02.24-.17.45-.41.47-.24.02-.45-.17-.47-.41-.18-2.6-1.11-24.82-2.31-41.43-.61-8.34-1.26-15.26-2-17.52-.69-2.12-1.7-3.72-2.77-4.92-2.19-2.47-4.55-3.21-4.55-3.21-.02,0-.04-.01-.07-.02-2.69-1.27-4.43-3.27-5.55-5.33-1.98-3.64-2-7.41-2-7.41,0-.24.19-.43.42-.43.24,0,.43.19.43.42Z"/>
        <path class="cls-4" d="m405.96,76.47s-3.79.3-7.2,1.22c-1.71.46-3.32,1.06-4.29,1.88-1.18,1-3.07,2.98-5.02,5.14-2.9,3.21-5.96,6.81-7.06,8.24-.89,1.14-1.36,2.71-1.46,4.34-.11,1.59.14,3.24.72,4.63.79,1.91,1.54,3.02,1.9,4.08.23.67.32,1.33.2,2.13-.1.64-.73,2.35-1.56,4.36-1.71,4.16-4.22,9.68-4.22,9.68-.1.22-.36.32-.58.22-.22-.1-.32-.36-.22-.58,0,0,2.46-5.52,4.13-9.68.77-1.92,1.37-3.53,1.46-4.14.09-.62.02-1.13-.17-1.65-.36-1.05-1.11-2.13-1.91-4-.65-1.52-.93-3.34-.82-5.1.11-1.85.67-3.63,1.68-4.93,1.11-1.43,4.19-5.06,7.14-8.28,2-2.19,3.95-4.19,5.16-5.2,1.06-.88,2.82-1.55,4.69-2.03,3.5-.9,7.38-1.17,7.38-1.17.24-.02.44.16.46.39.02.24-.16.44-.39.46Z"/>
        <path class="cls-11" d="m406.28,122.75s-3.21,9.38-8.25,17.1c-2.57,3.93-5.61,7.42-8.93,9.1-1.93.97-4.72,1.63-8.02,2.01-3.61.42-7.85.51-12.25.37-12.01-.39-25.22-2.54-30.18-4.62-.23-.09-.33-.35-.24-.57.09-.22.35-.33.57-.24,4.91,2.02,17.99,4.04,29.87,4.37,4.34.12,8.52.02,12.09-.39,3.16-.36,5.82-.97,7.67-1.89,3.18-1.59,6.09-4.94,8.57-8.69,5.03-7.6,8.28-16.83,8.28-16.83.08-.22.32-.34.54-.26.23.08.34.32.27.54Z"/>
        <path class="cls-11" d="m398.71,136.64l-21.23-14.07c-1.8-.02-20.1-.14-34.08.96-6.3.5-11.7,1.22-14.27,2.36-4.07,1.79-6.39,5.02-6.93,11.53-.58,6.97.85,17.59,4.41,34.03,0,0,0,.01,0,.02,0,0,1.33,7.85,2.1,13.77.36,2.72.59,5.03.54,6.02-.01.24-.22.43-.46.42-.24-.01-.43-.22-.41-.46.05-.96-.2-3.21-.55-5.85-.78-5.77-2.09-13.39-2.14-13.72-3.64-16.56-5.11-27.28-4.54-34.31.57-7.03,3.15-10.48,7.55-12.43,2.63-1.16,8.17-1.95,14.62-2.45,14.75-1.14,34.31-.86,34.31-.86.09,0,.18.03.26.08l21.29,14.25c.2.13.25.4.12.59-.13.2-.4.25-.59.12Z"/>
        <path class="cls-11" d="m339.65,191.63s.02-3.96,0-9.55c-.01-2.86-.04-6.14-.07-9.55-.04-4.26-.09-8.7-.21-12.72-.19-6.32-.5-11.6-1.12-13.45-.08-.23.05-.48.28-.56.23-.08.48.05.56.28.79,2.3,1.25,9.89,1.45,18.24.09,3.62.13,7.39.14,10.93.02,8.92-.16,16.38-.16,16.38,0,.24-.2.43-.43.42-.24,0-.43-.2-.42-.43Z"/>
        <path class="cls-4" d="m417.14,96.9s-1.86.49-4.24,1.08c-.9.22-1.86.46-2.83.68-3.55.81-7.12,1.54-7.12,1.54-.24.05-.47-.09-.53-.33-.05-.24.09-.47.33-.53,0,0,3.53-.91,7.08-1.74.97-.23,1.94-.44,2.84-.64,2.4-.52,4.28-.9,4.28-.9.23-.05.46.09.51.32.05.23-.09.46-.32.51Z"/>
        <path class="cls-17" d="m401.76,93.83s1.52,9.13,3.42,20.12c1.14,6.55,2.41,13.76,3.59,20.09,1.59,8.56,2.98,15.51,3.68,16.95.71,1.47,2.2,2.75,3.85,3.84,3.1,2.05,6.81,3.43,7.67,3.97.2.13.45.15.71.12.42-.05.85-.25,1.16-.54.25-.23.43-.51.44-.82,0-.27-.12-.55-.41-.82-.57-.56-1.4-1.24-2.26-1.91-1.75-1.37-3.61-2.66-3.61-2.66-.2-.14-.25-.41-.11-.61.14-.2.41-.25.61-.11,0,0,1.89,1.3,3.66,2.67.89.69,1.75,1.39,2.34,1.96.52.5.71,1.02.7,1.51-.01.56-.29,1.08-.73,1.49-.82.76-2.17,1.07-3.02.54-.86-.54-4.59-1.9-7.71-3.95-1.82-1.19-3.43-2.62-4.22-4.23-.72-1.46-2.21-8.5-3.82-17.2-1.17-6.33-2.42-13.56-3.52-20.12-1.84-11-3.27-20.15-3.27-20.15-.04-.23.12-.45.35-.49.23-.04.45.12.49.35Z"/>
        <path class="cls-17" d="m420.41,144.54s3.69.36,7.23.65c1.81.15,3.59.28,4.81.32,1.61.06,2.85.38,3.8.86,1.35.69,2.17,1.71,2.72,2.88.48,1.03.89,1.86,1.15,2.64.23.69.36,1.33.34,2.02-.02.67-.31,1.09-.7,1.37-.62.43-1.55.44-1.98.4-.24-.02-.42-.23-.4-.47.02-.24.23-.42.47-.4.26.02.79.03,1.21-.17.26-.12.47-.35.47-.74,0-.57-.12-1.1-.33-1.68-.27-.74-.67-1.54-1.15-2.52-.47-.97-1.15-1.81-2.28-2.37-.85-.42-1.94-.68-3.36-.73-1.23-.05-3.03-.2-4.86-.38-3.55-.35-7.24-.81-7.24-.81-.23-.03-.4-.24-.38-.47.03-.23.24-.4.47-.38Z"/>
        <path class="cls-17" d="m434.9,149.75s1.07,1.52,1.95,3.04c.48.82.9,1.65,1.08,2.24.31.98-.11,1.66-.8,2.03-.83.45-2.14.38-2.96-.23-.42-.31-.91-.87-1.37-1.47-.61-.81-1.17-1.69-1.43-2.12-.88,0-3.55-.04-5.98-.15-1.8-.08-3.48-.2-4.24-.38-.24-.05-.39-.29-.34-.52.05-.24.29-.39.52-.34.58.12,1.73.19,3.05.24,3.16.12,7.29.08,7.29.08.19,0,.36.1.46.26,0,0,.73,1.2,1.53,2.27.39.51.8,1,1.15,1.27.42.32,1.04.41,1.54.28.23-.06.44-.16.56-.34.1-.15.11-.35.04-.59-.16-.54-.53-1.3-.95-2.06-.82-1.51-1.82-3.03-1.82-3.03-.13-.2-.08-.46.11-.59.2-.13.46-.08.59.11Z"/>
        <path class="cls-17" d="m380.84,101.84s-1.88,2.18-4.19,4.71c-.92,1.01-1.91,2.07-2.87,3.07-1.54,1.61-3.01,3.08-3.97,3.98-.6.57-1.04.92-1.21.98-.22.09-.48,0-.57-.23-.09-.22.01-.48.23-.58.07-.03.21-.17.42-.36.46-.42,1.14-1.12,1.94-1.98.85-.9,1.84-1.97,2.86-3.06.63-.68,1.28-1.38,1.91-2.04,2.55-2.71,4.82-5.07,4.82-5.07.16-.17.43-.19.6-.03s.19.43.03.6Z"/>
        <path class="cls-17" d="m367.99,115.45s-4.69-9.02-7.95-15.68c-1.09-2.23-2.03-4.2-2.57-5.47-.34-.8-.53-1.36-.55-1.57-.1-1.07.52-6.11.25-9.97-.11-1.64-.35-3.06-.95-3.77-1.08-1.29-2.99-2.77-4.8-3.81-.93-.54-1.83-.96-2.58-1.17-.41-.12-.76-.17-1.03-.12-.84.16-1,1.02-.14,2.29.68,1.01,1.96,2.22,4.05,3.57.2.13.26.4.13.61-.13.2-.4.26-.61.13-2.88-1.83-4.32-3.47-4.84-4.68-.37-.86-.31-1.56-.01-2.05.25-.42.68-.7,1.23-.81.38-.08.89-.03,1.47.13.81.22,1.8.66,2.81,1.24,1.92,1.09,3.95,2.65,5.1,4,.7.83,1.08,2.46,1.22,4.37.27,3.85-.35,8.88-.24,9.94.02.17.2.61.47,1.25.54,1.26,1.45,3.22,2.52,5.44,3.2,6.67,7.78,15.74,7.78,15.74.11.21.02.47-.19.58-.21.11-.47.02-.57-.19Z"/>
        <path class="cls-17" d="m335.46,82.05s-.98-.96-1.29-2.06c-.17-.6-.15-1.24.23-1.82.37-.58,1.07-1.49,1.85-2.36.46-.51.95-1.01,1.42-1.42.48-.41.94-.74,1.32-.92.37-.17.69-.21.94-.16.83.19,2.05.99,2.08,2.22.02.69-.32,1.57-1.44,2.55-.18.16-.46.15-.62-.03-.16-.18-.15-.46.03-.62.8-.74,1.1-1.35,1.07-1.86-.02-.33-.2-.59-.43-.79-.28-.25-.63-.41-.92-.46-.04,0-.08.02-.13.03-.09.03-.18.08-.28.14-.41.24-.9.67-1.4,1.15-1.06,1.02-2.16,2.33-2.66,3.07-.22.32-.23.68-.14,1.02.22.9.98,1.7.98,1.7.17.17.17.44,0,.6-.17.17-.44.17-.6,0Z"/>
        <path class="cls-17" d="m334.21,78.23s-.83-.64-1.16-1.62c-.2-.6-.22-1.31.2-2.08.55-.99,1.48-2.08,2.43-2.9.83-.71,1.68-1.21,2.28-1.34.85-.18,1.69.36,2.1,1.21.35.73.38,1.63-.14,2.32-.14.2-.41.24-.61.1-.2-.14-.24-.42-.1-.61.29-.42.22-.96,0-1.38-.22-.41-.6-.75-1.02-.64-.59.14-1.43.78-2.23,1.55-.71.68-1.39,1.46-1.82,2.2-.28.47-.29.92-.18,1.3.21.73.79,1.23.79,1.23.18.15.21.42.07.6-.15.18-.42.21-.6.07Z"/>
        <path class="cls-11" d="m321.68,141.41s-2.35,6.76-5.24,14.78c-1.15,3.19-2.39,6.58-3.59,9.82-3.01,8.14-5.78,15.36-6.28,16.31-.11.21-.38.3-.59.18-.21-.11-.3-.38-.18-.59.2-.39.77-1.85,1.57-4,1.05-2.8,2.49-6.76,4.04-11.04.87-2.4,1.78-4.91,2.68-7.37,1.19-3.25,2.36-6.42,3.39-9.2,1.97-5.34,3.4-9.19,3.4-9.19.08-.22.33-.34.55-.26.22.08.34.33.25.55Z"/>
        <path class="cls-11" d="m314.1,190.35c.98-1.93,2.09-4.19,3.22-6.49.71-1.45,1.43-2.91,2.14-4.33,2.89-5.77,5.44-10.78,5.44-10.78.11-.22.37-.31.59-.2.22.11.31.37.2.59,0,0-2.39,5.1-5.26,10.88-.71,1.42-1.45,2.88-2.19,4.31-1.18,2.28-2.36,4.5-3.39,6.42-.11.21-.37.29-.58.18-.21-.11-.29-.37-.18-.58Z"/>
        <path class="cls-4" d="m411.02,148.68s-2.82.06-6.41.09c-1.35.01-2.81.03-4.28.02-5.34-.01-10.69-.1-10.69-.1-.24,0-.44-.2-.44-.44,0-.24.2-.44.44-.44,0,0,5.34-.09,10.69-.11,1.46,0,2.92,0,4.27.02,3.6.03,6.41.09,6.41.09.24,0,.43.19.43.43,0,.24-.19.43-.43.43Z"/>
        <path class="cls-4" d="m398.4,52.19c1.62-1.44,5.23-1.8,5.59.18.33,1.83-.56,3.8-2.81,3.26-.32-.08-.63.15-.64.48-.04,1.51-.1,5.28.31,8.77.46,3.96.62,2.82.62,2.82l13.52,4.87,1.62-23.62s-2.31-10.02-4.49-12.49-4.64-2.71-7.47-4.39c-2.82-1.69-13.1,4.8-13.1,4.8,0,0-.14,10.42,2.48,10.51,0,0,2.64,5.33,4.37,4.81Z"/>
      </g>
      <g>
        <path class="cls-17" d="m176.24,210.54s.25,3.75.59,7.9c.15,1.77.31,3.61.49,5.26.31,2.91.64,5.27.82,5.74.34.85,1.12,1.74,2.6,2.35,1.15.47,2.73.76,4.86.72.27,0,.48-.22.48-.49,0-.27-.22-.48-.49-.48-1.95,0-3.4-.29-4.44-.73-1.11-.48-1.73-1.12-1.97-1.76-.13-.34-.29-1.73-.49-3.59-.19-1.74-.4-3.88-.62-5.99-.46-4.57-.9-9-.9-9-.02-.26-.25-.45-.51-.43-.26.02-.45.25-.43.51Z"/>
        <path class="cls-2" d="m135.52,140.69s-.82,12.71,10.95,18.71l6.85,21.13,8.35-4.44,8.4,11.42-13.25,3.49,7.33,23.89,12.37-4.68-1.62-24.6s16.49-6.43,21.99-10.95c4.14-3.4,4.71-10.57-.69-16.39-3.52-3.8-19.6-22.16-19.6-22.16l-41.08,4.59Z"/>
        <path class="cls-4" d="m135.46,140.22c-.23.03-.41.21-.43.44.01,0-.37,5.63,2.81,11.24,1.63,2.88,4.19,5.75,8.21,7.85l6.76,20.94c.05.15.16.27.31.33.15.06.31.05.45-.02l7.93-4.21,7.62,10.38-12.45,3.26c-.15.04-.28.14-.36.28-.07.14-.09.3-.04.45l7.31,23.89c.05.16.16.29.31.36.15.07.32.08.47.02l12.38-4.68c.25-.09.4-.34.39-.6l-1.6-24.17c1.59-.63,7.62-3.07,13.16-5.81,3.42-1.69,6.66-3.5,8.57-5.08,2.43-2,3.71-5.21,3.39-8.73-.25-2.79-1.52-5.78-4.03-8.48-1.07-1.16-3.32-3.67-5.92-6.59-5.92-6.68-13.69-15.53-13.69-15.53-.12-.13-.29-.2-.46-.18l-41.08,4.63h0Zm.51.91l40.41-4.47c1.2,1.37,8.1,9.27,13.48,15.35,2.6,2.94,4.85,5.46,5.93,6.62,2.31,2.5,3.49,5.25,3.72,7.83.28,3.12-.84,5.98-2.99,7.74-1.87,1.53-5.03,3.28-8.36,4.93-6.41,3.16-13.48,5.91-13.48,5.91-.24.09-.39.33-.37.59l1.58,24.16-11.37,4.31-6.98-22.7,12.66-3.35c.18-.05.33-.18.39-.36.06-.18.03-.37-.08-.52l-8.42-11.41c-.16-.22-.46-.29-.7-.16l-7.77,4.15-6.68-20.51c-.04-.13-.13-.23-.25-.3-3.93-2-6.42-4.76-8-7.53-2.54-4.46-2.73-8.94-2.72-10.29h0Z"/>
        <path class="cls-17" d="m188.19,45.94s-1.58,4.79-3.62,9.15c-1.02,2.17-2.15,4.24-3.28,5.52-1.75,2.01-4.19,3.17-7,3.44-2.46.24-5.19-.19-7.99-1.32-.25-.1-.53.02-.63.26-.1.25.01.53.26.63,2.95,1.25,5.85,1.75,8.46,1.53,3.12-.26,5.83-1.54,7.79-3.76,1.18-1.36,2.38-3.53,3.42-5.83,2.01-4.45,3.49-9.35,3.49-9.35.08-.25-.06-.51-.31-.59-.25-.08-.51.06-.59.31Z"/>
        <path class="cls-17" d="m169.55,64.52s-.5,1.07-1.11,2.44c-.23.52-.47,1.08-.7,1.65-.84,2.08-1.59,4.18-1.59,4.18-.1.25.02.53.27.63.25.1.53-.02.63-.27,0,0,.94-2.03,1.79-4.1.23-.56.45-1.14.65-1.66.53-1.41.92-2.52.92-2.52.1-.24-.02-.52-.26-.62-.24-.1-.51.02-.61.26Z"/>
        <path class="cls-17" d="m150.58,60.97s-.56,1.27-1.24,2.91c-.25.62-.53,1.28-.79,1.96-.95,2.46-1.81,4.95-1.81,4.95-.1.25.02.53.28.63.25.1.53-.03.63-.28,0,0,1.05-2.42,2.02-4.87.26-.67.51-1.35.74-1.97.61-1.67,1.05-2.98,1.05-2.98.1-.24-.02-.52-.27-.61-.25-.09-.52.03-.61.27Z"/>
        <path class="cls-1" d="m182.55,36.73s-10.97,8.5-23.64,7.25c0,0-3.47-6.21-6.78-1.7-3.31,4.51.38,6.75,2.82,7.52,0,0,.25,7.01.61,10.01,0,0-5.84,2.22-9.88.35-4.04-1.86-3.86-10.07-1.23-16.51,2.63-6.44,8.14-18.34,19.47-20.96,11.33-2.63,20.86,3.7,24.32,8.84,2.59,3.85,2.62,9.96.54,14.33l-6.21-9.13Z"/>
        <path class="cls-4" d="m182.43,37.41l5.92,8.73c.1.15.27.23.45.22.18-.01.34-.12.41-.29,1.06-2.22,1.6-4.88,1.55-7.48-.05-2.7-.74-5.33-2.1-7.37-1.99-2.96-5.94-6.33-11.1-8.22-4-1.47-8.72-2.05-13.78-.88-4.23.98-7.68,3.21-10.48,5.98-4.83,4.78-7.72,11.16-9.41,15.31-1.41,3.48-2.13,7.45-1.9,10.72.23,3.12,1.35,5.6,3.44,6.56,1.3.6,2.77.81,4.19.79,3.2-.02,6.14-1.14,6.14-1.14.25-.09.4-.35.37-.61-.12-1.01-.23-2.47-.32-3.97-.18-2.94-.3-6-.3-6,0-.24-.17-.45-.4-.52-1.26-.39-2.91-1.19-3.52-2.58-.45-1.03-.28-2.36.98-4.07.82-1.13,1.63-1.5,2.4-1.41.74.09,1.4.57,1.95,1.1.92.89,1.52,1.94,1.52,1.94.08.15.24.25.41.27,4.58.44,8.93-.36,12.65-1.59,5.54-1.83,9.65-4.59,10.92-5.51h0Zm.52-.94c-.07-.11-.19-.18-.32-.2-.13-.02-.27.01-.37.09,0,0-4.51,3.47-11.07,5.61-3.52,1.15-7.64,1.91-11.96,1.52-.25-.4-.81-1.23-1.55-1.95-.72-.69-1.61-1.28-2.57-1.4-1.07-.14-2.27.27-3.42,1.83-1.59,2.16-1.68,3.87-1.11,5.17.68,1.55,2.37,2.56,3.82,3.08.04.92.13,3.31.27,5.64.07,1.3.16,2.58.27,3.57-.88.29-3.03.9-5.32.91-1.25,0-2.55-.17-3.69-.69-1.75-.81-2.56-2.95-2.74-5.57-.22-3.1.47-6.88,1.82-10.18,1.64-4.04,4.44-10.27,9.13-14.93,2.65-2.63,5.91-4.76,9.91-5.7,4.83-1.13,9.33-.58,13.15.8,4.91,1.78,8.7,4.96,10.6,7.77,1.27,1.88,1.89,4.31,1.95,6.8.05,2.13-.32,4.3-1.07,6.2,0,0-5.71-8.36-5.71-8.36h0Z"/>
        <path class="cls-5" d="m146.66,71.2s.99,3.49,3.67,5.98c1.58,1.47,3.75,2.59,6.61,2.51,2.55-.1,4.53-.86,6.03-1.83,3.04-1.96,4.13-4.76,4.13-4.76.1-.25-.02-.53-.27-.63-.25-.1-.53.02-.63.27,0,0-1.06,2.49-3.83,4.2-1.37.85-3.18,1.51-5.48,1.57-2.5.1-4.4-.89-5.81-2.15-2.51-2.25-3.53-5.42-3.53-5.42-.07-.25-.34-.39-.59-.32-.25.08-.39.34-.32.59Z"/>
        <path class="cls-5" d="m166.67,73.39s3.01-.03,5.97.26c1.4.14,2.8.34,3.85.67.88.27,1.84.89,2.78,1.81,1.07,1.05,2.12,2.49,2.98,4.28,1.1,2.3,1.89,5.18,2.06,8.57,0,.27.23.48.5.47.27-.01.48-.24.46-.5-.13-4.42-1.3-8.03-2.86-10.68-.87-1.47-1.86-2.65-2.87-3.51-.92-.79-1.86-1.3-2.71-1.56-1.12-.33-2.6-.53-4.09-.64-3.03-.23-6.09-.11-6.09-.11-.26,0-.47.22-.46.48,0,.26.22.47.48.46Z"/>
        <path class="cls-5" d="m147.12,70.49s-5.06-.34-9.86.31c-2.43.33-4.79.91-6.42,1.89-2.63,1.58-4.89,4.95-6.19,8.9-1.14,3.45-1.55,7.33-.89,10.81.46,2.4,1.52,5.37,2.76,8.29,2.52,5.95,5.74,11.67,5.74,11.67.07.13.2.23.35.27s.31.02.44-.06l12.71-7.75c.22-.13.31-.4.22-.64l-4.85-12.53c-.1-.25-.38-.37-.63-.28-.25.1-.37.38-.28.63l4.61,12.15-11.87,7.14c-.83-1.53-3.31-6.21-5.35-11.06-1.19-2.84-2.24-5.72-2.68-8.05-.63-3.29-.25-6.96.81-10.23,1.19-3.68,3.23-6.85,5.66-8.34,1.52-.93,3.73-1.47,6-1.8,4.7-.67,9.66-.39,9.66-.39.26.02.48-.18.5-.44.01-.26-.18-.48-.44-.5Z"/>
        <path class="cls-2" d="m177.66,119.06s1.06-1.42,2.38-3.24c.5-.69,1.03-1.43,1.55-2.19,1.91-2.76,3.74-5.57,3.74-5.57.15-.22.1-.52-.12-.67-.22-.15-.52-.1-.68.12,0,0-2,2.69-3.92,5.44-.53.75-1.04,1.51-1.51,2.21-1.26,1.87-2.22,3.36-2.22,3.36-.15.21-.1.51.12.66.22.15.51.1.66-.12Z"/>
        <path class="cls-2" d="m193.96,94.74s-.68-.2-1.17-.66c-.26-.24-.46-.57-.41-1,.04-.29.12-.52.28-.68.24-.25.63-.35,1.14-.38.93-.06,2.21.12,3.85.38,1.77.28,2.71.45,3.51.71.67.22,1.23.51,2.11,1.01.88.5,1.2,1.55,1.06,3-.14,1.48-.76,3.33-1.87,5.48-.6,1.17-3.24,5.1-6.22,9.42-4.12,5.98-8.88,12.71-9.85,13.84-1.02,1.2-2.27,2.02-3.7,2.37-1.34.33-2.83.23-4.41-.36-.25-.09-.53.03-.62.28-.1.25.03.53.28.62,1.78.68,3.47.79,4.99.43,1.63-.38,3.08-1.31,4.26-2.67.98-1.13,5.85-7.86,10.02-13.86,3.04-4.37,5.71-8.36,6.31-9.54,1.18-2.32,1.82-4.33,1.96-5.91.18-2.01-.43-3.41-1.66-4.09-.96-.53-1.58-.84-2.32-1.08-.84-.27-1.83-.43-3.69-.71-2.21-.33-3.83-.5-4.84-.22-.93.25-1.45.81-1.57,1.84-.07.63.14,1.14.47,1.54.66.81,1.84,1.14,1.84,1.14.25.07.51-.07.58-.33.07-.25-.07-.51-.33-.58Z"/>
        <path class="cls-5" d="m175.83,109.5s.21,3.44.52,7.82c.12,1.65.24,3.43.39,5.21.53,6.51,1.14,13.02,1.14,13.02.02.27.25.47.52.44.27-.02.47-.25.45-.52,0,0-.42-6.52-.92-13.04-.14-1.78-.29-3.56-.43-5.21-.39-4.38-.72-7.81-.72-7.81-.02-.26-.25-.45-.51-.43-.26.02-.45.25-.43.51Z"/>
        <path class="cls-5" d="m177.92,135.34h-.01c-.06.01-.19.03-.39.05-.67.08-2.08.23-3.99.44-5.56.61-15.42,1.67-23.94,2.61-7.1.78-13.27,1.49-15.27,1.71l1.06-22.86c.01-.26-.19-.48-.45-.5-.26-.01-.48.19-.49.45l-1.31,23.54c0,.17.06.34.19.45.12.12.29.17.46.16,0,0,7.29-.8,15.95-1.78,8.52-.97,18.36-2.13,23.92-2.78,1.91-.22,3.31-.39,3.99-.48.2-.02.34-.04.41-.05.03,0,.05,0,.06-.01.06-.01.1-.03.11-.03.28-.12.29-.36.29-.45,0-.13-.04-.34-.31-.44-.09-.04-.19-.04-.27-.02Z"/>
        <path class="cls-2" d="m185.67,88.71s-2.18-.67-4.33-.71c-1.1-.02-2.19.14-3.01.6-1.25.69-2.16,1.52-2.9,2.45-1.1,1.38-1.81,3-2.69,4.71-.54.52-4.41,4.3-8.74,8.57-5.08,5.01-10.8,10.7-12.57,12.47l-5.44-12.06c-.11-.24-.4-.35-.64-.25-.24.11-.35.4-.24.64l5.65,12.84c.07.16.22.28.4.32.18.03.36-.02.49-.15,0,0,7.09-6.93,13.21-12.95,4.67-4.6,8.76-8.68,8.76-8.68.04-.04.08-.09.1-.14.85-1.69,1.51-3.28,2.58-4.64.65-.83,1.45-1.58,2.56-2.21.68-.39,1.59-.5,2.5-.5,2.02,0,4.06.61,4.06.61.25.08.51-.07.59-.31.07-.25-.07-.51-.32-.59Z"/>
        <path class="cls-2" d="m132.55,112.61s3.32,6.77,6.17,11.78c1.24,2.18,2.39,4.02,3.15,4.87,1.98,2.2,4.37,3.16,6.97,3.06,3.18-.13,6.69-1.88,10.09-4.96,2.49-2.27,5.42-5.18,8.26-8.11,6.12-6.31,11.82-12.68,11.82-12.68.18-.2.16-.5-.04-.68-.2-.18-.5-.16-.68.03,0,0-5.75,6.3-11.9,12.56-2.84,2.89-5.77,5.77-8.26,8.01-3.15,2.85-6.39,4.52-9.34,4.65-2.26.1-4.34-.73-6.07-2.64-.92-1.01-2.44-3.53-3.99-6.29-2.63-4.67-5.33-10.02-5.33-10.02-.12-.23-.4-.33-.63-.21-.23.12-.33.4-.21.63Z"/>
        <path class="cls-2" d="m183.64,91.99s-.56-.1-1.23-.05c-.27.02-.56.08-.83.17-.59.2-1.08.53-1.3.99-.13.23-.05.53.18.66.23.13.53.05.66-.18.1-.16.31-.21.53-.28.23-.08.49-.11.74-.16.64-.12,1.21-.21,1.21-.21.26,0,.48-.2.49-.46,0-.26-.19-.48-.45-.49Z"/>
        <path class="cls-4" d="m183.51,93.98l5.56-8.32c.19-.28.44-.5.74-.65.29-.15.62-.22.95-.2,1.21.06,3.07.15,5.06.23,2.75.12,5.75.23,7.6.3.07,0,.15.02.21.06.06.04.11.09.15.16.03.07.05.14.04.22,0,.07-.03.15-.08.21l-3.99,5.49c-.16.21-.11.52.1.68.22.16.52.11.68-.1l4.08-5.43c.17-.22.26-.48.29-.75.03-.27-.02-.54-.13-.79-.12-.25-.3-.46-.53-.61-.22-.15-.49-.24-.77-.25-1.85-.09-4.84-.25-7.59-.38-1.99-.09-3.85-.17-5.06-.22-.54-.02-1.07.1-1.54.34-.46.24-.87.6-1.16,1.06l-5.39,8.42c-.14.22-.08.51.14.65.22.14.51.08.65-.14Z"/>
        <path class="cls-2" d="m196.69,99.11c-.22.04-.39.23-.4.46,0,.27.21.49.47.5.06,0,.19-.02.36-.09.29-.13.84-.47,1.27-.99.4-.47.68-1.08.65-1.77-.03-.64-.42-1.15-.95-1.51-.87-.6-2.13-.8-2.13-.8,0,0-.01,0-.02,0-.84-.11-2.3-.32-4.02-.55-1.26-.17-2.65-.35-4.03-.53-4.1-.52-8.08-.98-8.08-.98-.26-.04-.5.15-.53.4-.03.26.15.5.4.53,0,0,2.1.33,4.83.74,1.51.22,3.2.48,4.83.7,2.71.37,5.24.67,6.47.8.13.02,1.04.16,1.68.58.25.17.48.37.51.67.02.33-.08.62-.24.87-.3.48-.77.82-1.02.94-.02,0-.05,0-.05.02Z"/>
        <path class="cls-2" d="m186.15,98.73s2.65.45,5.34.87c.73.11,1.46.22,2.14.32,1.51.21,2.77.37,3.2.44.21.03.37.2.49.41.14.24.22.54.22.84,0,.5-.26.99-.92,1.01-.27,0-.48.23-.47.5,0,.27.23.48.49.47.48,0,.86-.14,1.16-.35.51-.36.77-.97.8-1.61.02-.59-.16-1.2-.48-1.65-.27-.39-.66-.65-1.1-.73-.54-.1-2.33-.39-4.3-.67-1.08-.15-2.21-.29-3.22-.41-1.81-.22-3.23-.38-3.23-.38-.26-.04-.5.14-.53.4-.04.26.15.5.4.53Z"/>
        <path class="cls-2" d="m185.11,102.3s4.46.47,7.73.93c1.51.21,2.76.41,3.13.57.38.16.4.62.28,1.04-.12.45-.44.88-.91,1.06-.37.14-1.42.29-2.84.42-1.92.17-4.49.27-7,.15-2.41-.12-4.78-.42-6.47-1.08-.25-.1-.53.02-.63.27-.1.25.02.53.27.63,2.16.88,5.39,1.26,8.48,1.34,4.03.11,7.8-.3,8.62-.61,1.02-.39,1.65-1.42,1.72-2.38.06-.84-.29-1.59-1.06-1.92-.42-.17-1.78-.4-3.45-.6-3.3-.4-7.79-.77-7.79-.77-.26-.02-.49.17-.51.43-.02.26.17.49.42.51Z"/>
        <path class="cls-2" d="m198.2,96.99s.22.15.53.3c.11.06.24.12.37.16.48.16.98.24.98.24.25.09.53-.04.62-.29.09-.25-.04-.53-.29-.62,0,0-.43-.26-.9-.45-.13-.05-.26-.08-.38-.11-.34-.08-.6-.11-.6-.11-.25-.09-.51.04-.6.28-.09.24.04.52.28.61Z"/>
        <path class="cls-2" d="m197.53,100.21s.15.11.37.22c.08.04.17.08.26.11.35.1.71.1.71.1.25.08.53-.06.61-.32.08-.26-.06-.53-.32-.61,0,0-.3-.2-.64-.32-.09-.03-.19-.05-.28-.06-.25-.04-.43-.03-.43-.03-.25-.08-.51.06-.59.31-.08.25.06.51.31.59Z"/>
        <path class="cls-4" d="m142.71,187.1s11.03-5.91,20.56-11.07c7.27-3.94,13.68-7.43,13.68-7.43.23-.13.35-.39.29-.65-.05-.26-.28-.45-.54-.46,0,0-6.8-.44-15.4-2.51-4.66-1.12-9.85-2.71-14.78-4.98-.24-.11-.53,0-.64.24-.11.24,0,.53.23.64,4.97,2.34,10.22,4,14.93,5.16,5.91,1.46,10.99,2.15,13.63,2.44-2.38,1.29-6.97,3.79-11.96,6.53-9.5,5.21-20.45,11.26-20.45,11.26-.23.12-.31.41-.19.64.13.23.41.31.64.19Z"/>
        <path class="cls-17" d="m160.47,176.08c-8.91,4.74-18.21,10.19-18.21,10.19-.23.12-.31.41-.19.64.13.23.41.31.64.19,0,0,9.59-5.14,18.61-10.01-.15-.11-.69-.83-.85-1Z"/>
        <path class="cls-4" d="m161.11,176.89s1.04,1.46,2.4,3.29c.51.69,1.07,1.43,1.64,2.16,1.94,2.48,3.97,4.9,4.38,5.27.19.18.5.18.69-.02.18-.19.17-.5-.02-.68-.31-.3-1.52-1.92-2.95-3.79-.64-.84-1.32-1.73-1.98-2.58-1.78-2.27-3.4-4.22-3.4-4.22-.16-.21-.45-.25-.66-.09-.21.16-.25.45-.09.66Z"/>
        <path class="cls-4" d="m175.63,185.39s-4.51.96-9.88,2.23c-2.13.5-4.39,1.06-6.56,1.62-4.99,1.28-9.5,2.55-10.87,3.15-.25.1-.36.39-.26.63.1.25.39.36.63.26.83-.34,2.8-.89,5.33-1.54,1.95-.5,4.21-1.06,6.54-1.63,1.45-.36,2.93-.72,4.36-1.07,5.82-1.45,10.91-2.72,10.91-2.72.25-.06.41-.31.35-.57-.06-.25-.31-.41-.57-.35Z"/>
        <path class="cls-17" d="m147.98,192.75s-.25.94-.48,2.27c-.08.47-.16.99-.21,1.53-.12,1.29-.12,2.71.01,3.91.02.27.26.46.52.44.27-.02.46-.26.44-.52-.04-.69,0-1.45.06-2.22.05-.71.14-1.42.21-2.09.06-.57.11-1.11.16-1.57.11-.94.19-1.57.19-1.57.05-.26-.11-.5-.37-.56-.26-.05-.51.11-.56.37Z"/>
        <path class="cls-13" d="m142.64,186.42s-1.4,8.29.43,10.96c2.3,3.34,4.87,3.07,4.87,3.07,0,0-.21,8.9-.19,10.99.02,2.09-3.66,3.54-5.11.53-1.45-3.01-5.35-17.92-5.34-22.17,0,0,1.68-3.61,5.34-3.39Z"/>
        <path class="cls-4" d="m143.11,186.5c.02-.14-.01-.27-.1-.38-.08-.11-.21-.17-.34-.18-1.42-.09-2.58.35-3.48.95-1.6,1.08-2.36,2.7-2.36,2.7-.03.07-.05.14-.05.22-.01,2.1.9,6.78,2.01,11.36,1.17,4.8,2.56,9.5,3.3,11.06.8,1.65,2.16,2.17,3.4,2.03,1.53-.17,2.85-1.4,2.84-2.83,0-.62,0-1.86.03-3.28.04-3.33.13-7.69.13-7.69,0-.16-.06-.32-.18-.43-.12-.11-.28-.16-.44-.15,0,0-1.08.1-2.42-.82-.62-.42-1.29-1.05-1.94-1.99-.6-.87-.81-2.41-.87-4.01-.1-3.13.46-6.57.46-6.57h0Zm-1.02.4c-.17,1.12-.51,3.74-.46,6.19.04,1.84.32,3.59,1.01,4.59.93,1.36,1.9,2.17,2.75,2.64.8.45,1.5.61,1.98.67-.03,1.11-.1,3.68-.14,6.04-.04,1.88-.07,3.63-.06,4.41,0,.86-.86,1.53-1.78,1.63-.81.09-1.67-.28-2.19-1.36-.74-1.52-2.11-6.12-3.29-10.81-1.1-4.4-2.04-8.87-2.07-10.98.17-.33.8-1.43,1.94-2.21.62-.43,1.39-.76,2.33-.81h0Z"/>
        <g>
          <path class="cls-13" d="m170.79,234s7.83,3.07,10.82,1.82c3.74-1.56,4-4.14,4-4.14,0,0,8.67,2.02,10.72,2.44,2.05.41,2.72,4.31-.52,5.11-3.24.8-18.63,1.57-22.79.69,0,0-3.19-2.38-2.22-5.92Z"/>
          <path class="cls-4" d="m170.97,233.55c-.12-.05-.26-.04-.38.02-.12.06-.21.17-.24.31-.39,1.38-.2,2.6.21,3.6.73,1.79,2.16,2.86,2.16,2.86.06.04.13.08.2.09,2.05.44,6.82.5,11.54.35,4.94-.16,9.83-.56,11.5-.97,1.78-.44,2.57-1.67,2.69-2.91.15-1.54-.79-3.08-2.19-3.36-.61-.12-1.82-.39-3.21-.7-3.25-.73-7.5-1.7-7.5-1.7-.16-.04-.32,0-.46.09-.13.09-.22.24-.23.4,0,0-.13,1.08-1.3,2.2-.54.52-1.3,1.05-2.35,1.49-.98.41-2.52.3-4.11.03-3.09-.54-6.33-1.79-6.33-1.79h0Zm.19,1.09c1.06.39,3.56,1.27,5.96,1.72,1.81.34,3.58.42,4.7-.04,1.53-.63,2.51-1.42,3.15-2.16.6-.69.9-1.35,1.06-1.8,1.08.25,3.58.85,5.88,1.38,1.83.42,3.54.81,4.31.96.84.17,1.32,1.15,1.23,2.08-.08.81-.62,1.58-1.78,1.87-1.64.41-6.42.81-11.26,1-4.53.18-9.1.18-11.17-.22-.29-.24-1.24-1.08-1.77-2.35-.29-.69-.46-1.52-.32-2.45h0Z"/>
        </g>
        <path class="cls-17" d="m163.65,215.6s.84,2.41,1.96,5.46c.42,1.15.87,2.39,1.35,3.62,1.61,4.24,3.31,8.45,3.51,9,.09.25.37.38.62.29.25-.09.38-.37.29-.62-.19-.55-1.71-4.84-3.31-9.09-.47-1.24-.95-2.47-1.39-3.61-1.19-3.03-2.15-5.39-2.15-5.39-.09-.24-.36-.37-.61-.27-.24.09-.37.37-.27.61Z"/>
        <path class="cls-4" d="m164.26,215.88s1.63-.56,3.69-1.32c.78-.28,1.61-.59,2.45-.92,3.04-1.19,6.05-2.46,6.05-2.46.25-.1.37-.38.28-.63-.1-.25-.38-.37-.63-.28,0,0-3.08,1.08-6.13,2.25-.84.32-1.66.65-2.43.96-2.04.83-3.62,1.5-3.62,1.5-.24.09-.36.37-.27.61.09.24.37.36.61.27Z"/>
        <path class="cls-3" d="m192.24,86.84c.48.31.55,1.05.15,1.67-.39.61-1.1.86-1.58.56-.48-.31-.55-1.05-.15-1.67.39-.61,1.1-.86,1.58-.56Z"/>
      </g>
      <polygon class="cls-19" points="340.31 23.09 293.31 23.09 293.31 53.9 324.44 53.9 336.51 60.97 333.94 53.9 340.31 53.9 340.31 23.09"/>
      <polygon class="cls-18" points="204.26 43.4 251.27 43.4 251.27 74.21 218.23 74.21 204.41 82.29 208.73 74.21 204.26 74.21 204.26 43.4"/>
    </g>
  </g>
</svg>