<?xml version="1.0" encoding="UTF-8"?>
<svg id="_レイヤー_2" data-name="レイヤー 2" xmlns="http://www.w3.org/2000/svg" viewBox="0 0 229.88 23.82">
  <defs>
    <style>
      .cls-1 {
        fill: #1e66c7;
        stroke-width: 0px;
      }
    </style>
  </defs>
  <g id="_デザイン" data-name="デザイン">
    <g>
      <path class="cls-1" d="m5.82,19.62l2.1-.8c.3-.12.6-.25.7-.25.08,0,.12.03.12.12,0,.28-.55.7-.85.9l-1.87,1.25-2.32,1.25c-.17.1-.97.42-1.07.5-.43.33-.53.4-.75.4-.27,0-.48-.15-.85-.58-.73-.85-.78-.9-.78-1.22s.2-.58.38-.58c.08,0,.35.2.4.25.17.08.47.2.67.2.17,0,.38-.08.65-.15l1.25-.38.85-.38v-1.32l.05-5.25-1.4.33c-.17.05-.9.28-1.05.28-.47,0-1.52-.95-1.52-1.47,0-.25.15-.43.32-.43.07,0,.57.2.65.23.22.1.65.1.77.1.05,0,.45-.02.8-.08l1.25-.2.23-.05v-.52l-.02-.8c-.03-.8-.12-.92-.28-1.1-.22.05-.7.15-1,.15-.25,0-.32-.05-.92-.55-.42.38-1.62,1.45-2.17,1.45-.08,0-.15-.05-.15-.12,0-.17.5-.7.7-.92,1.97-2.2,3.9-6.05,3.9-7.2,0-.1,0-.25-.15-.47-.05-.08-.27-.35-.27-.4,0-.2.18-.45.5-.45.2,0,1.87.62,1.87,1.15,0,.17-.35.87-.4,1.02.8.33,1.77.9,1.9,1,.85.5,1.12.82,1.12,1.5s-.22,1.15-.57,1.15c-.3,0-.4-.15-.77-.67-.17-.25-1.12-1.38-2.1-2.08-.85,1.8-2.12,3.45-2.72,4.22.2.07.3.1.5.1.6,0,2.12-.4,2.37-.47.22-.05,1.15-.42,1.35-.42.08,0,1.2.02,1.2.75,0,.6-.55.65-1.25.75-.9.1-1,.1-1.33.2.3.38.3.65.3.7,0,.07-.07.38-.07.42-.03.08-.03.35-.03.4l-.08.92.43-.08c.2-.02.67-.2.87-.25.28-.08.5-.15.77-.15.35,0,1.17.17,1.17.77,0,.55-.5.6-.67.62-.15,0-.87.05-1,.08l-1.33.2-.32.08-.07,6.35ZM1.1,15.57c.12,0,2.67.97,2.67,2.62,0,.37-.15,1.02-.72,1.02-.53,0-.65-.53-.8-1.08-.17-.65-.38-1.05-.77-1.65-.08-.12-.5-.72-.5-.77-.02-.1.05-.15.12-.15Zm5.8.65c.08-.23.35-1.03.35-1.53,0-.12-.2-.62-.2-.72,0-.2.2-.35.42-.35.57,0,1.47.8,1.47,1.25,0,.22-.08.32-.75,1.07-.2.22-1,1.25-1.17,1.42-.07.05-.3.25-.42.25-.1,0-.1-.08-.1-.17,0-.03.35-1.1.4-1.22Zm12.12,6.02l-2.55.02-4.45.38c-.92.08-1.02.12-1.4.2-.12.03-1.1.22-1.23.22-.37,0-.42-.07-1.05-.72-.53-.55-.6-.62-.6-1,0-.25.15-.4.32-.4.15,0,.73.3.85.35.33.12.8.17,1.1.17.27,0,.32-.02.45-.05.03-.12.03-.35.03-.52l-.15-2.85c0-.17-.15-1.33-.3-1.7-.05-.1-.35-.53-.35-.65s.17-.4.57-.4c.3,0,.6.15.7.2.47.3.52.33.67.33.1,0,.65-.05.77-.08l5.97-.62c.45-.05.62-.1.8-.15.17-.05.62-.17.7-.17.3,0,.52.2.88.5.32.22.55.4.55.72,0,.15-.35.85-.4,1l-.77,3.4-.08.38.03.05c.27-.02,1-.12,1.17-.12.4,0,1.37.35,1.37,1.2,0,.4-.35.58-.6.58-.1,0-.55-.05-.62-.05l-2.4-.2ZM13.3,3.9s.08.2.08.3c0,.05-.1,1.3-.08,1.55.18-.03.98-.33,1.15-.33.27,0,1.23.67,1.23,1.1,0,.17-.03.23-.25.78-.05.1-.38,1.37-.45,1.6.2.32.2.55.2.6,0,.5-.53.5-.77.5-.05,0-.32-.03-.38-.03l-.65.08-.17.03-.05,2.17.75-.08c.1-.02.55-.12.65-.12.38,0,1.15.2,1.15.83,0,.38-.22.58-.77.58-.17,0-.92-.03-1.08-.03l-2.05.2c-.3.02-.57.08-.82.12-.12.05-.67.33-.77.33-.25,0-.87-.6-.87-1.05,0-.12.07-.62.07-.73.02-.17.02-.42.02-.52l.08-4.55s0-3-.25-3.6c-.02-.1-.35-.5-.35-.6,0,0,0-.4.55-.4.15,0,.47.02.72.2.3.2.33.23.47.23.38,0,2-.28,2.45-.33.27-.05,1.6-.35,1.75-.35.35,0,1.02.35,1.02.75,0,.17-.18.4-.43.5-.1.05-.65.08-.75.1l-1.07.12-.33.05Zm-2.52,5.32c.48-.05,2.52-.38,2.95-.42.05-.27.23-1.65.23-1.85,0-.15-.25-.12-.43-.1l-2.32.35-.38.1c-.02.12-.02.2-.02.42l-.03,1.5Zm1.1-3.2c.17-.02.17-.1.17-.32l.02-.92c.03-.73-.12-.7-.4-.65l-.73.1-.15.02c0,.15-.03,1.83,0,1.88,0,.05.1.05.2.02l.88-.12Zm-.15,4.25l-.75.12-.15.05-.02,1.88v.2l.1.02.65-.1.35-.08.02-.33.02-1.37v-.4h-.22Zm.27,11.12l1.35-.1c.05-.4.05-.5.05-.72l-.1-2.5c-.05-1.2-.1-1.23-.47-1.17l-.7.07c-.4.05-.4.1-.4.83,0,.3.07,1.62.1,1.9.03.53.03.88.03,1.7h.15Zm2.62-.45l.02.22c.12,0,.7-.05.8-.05.23,0,.3-.03.45-.08l.15-1.6.18-2.22v-.62h-.23l-1.32.15-.12.03.08,4.17Zm4.95-14.97c.23-.05,1.2-.42,1.42-.42.3,0,1.22.22,1.22.88,0,.6-.72.6-1.02.6-.62,0-.92.05-2.05.2-.12.02-1.3.17-1.32.17-.1,0-.18-.03-.48-.12-.77,1.02-1.47,1.95-1.97,1.95-.1,0-.12-.05-.12-.1,0-.15.65-1.17.75-1.4.37-.75,1.47-3.4,1.47-4.45,0-.17-.05-.35-.2-.55-.05-.05-.12-.12-.12-.2,0-.1.17-.45.55-.45.45,0,1.62.57,1.62,1.05,0,.17-.37.85-.42,1-.5,1.17-.52,1.25-.95,2.02.57.08,1.42-.12,1.62-.17Zm-.27,5.87c-.12,0-1.8.25-1.82.25-.45,0-1.3-.85-1.3-1.33,0-.08.07-.42.3-.42.07,0,.12.03.35.15.35.2.65.22,1.05.22.17,0,.88,0,1.47-.12.2-.05,1.07-.33,1.27-.33.55,0,1.35.25,1.35.85s-.55.62-.7.62c-.05,0-.35-.02-.4-.02l-1.57.12Zm-2.1,9.15h.88c.52,0,.6-.03.75-.8l.32-1.8c.05-.32.25-1.6.25-1.77,0-.27-.12-.25-.42-.22l-.97.08c-.08,0-.35.02-.35.05,0,.05-.1.85-.1.95v.17l-.47,3.32.12.03Z"/>
      <path class="cls-1" d="m32.63,22.32l1.17-1.42c.17-.23,1.1-1.45,1.15-1.55l1.1-1.7s1.38-2.55,1.38-3.4c0-.17-.03-.28-.2-.6-.05-.1-.17-.3-.17-.42,0-.25.32-.3.47-.3.75,0,1.9.85,1.9,1.25,0,.05,0,.22-.17.58l-.72,1.37c-.1.17-.58.97-.65,1.12.15.08.3.12.7.3l3.37,1.42.12-4.07.03-2.57c0-.3-.03-1.3-.25-1.6l-2.62.4c-.15.02-.8.2-.92.2-.32,0-1.07-.52-1.47-1.07-.23-.33-.2-.5-.15-.88q.4,0,.75.2c.42.27.92.35,1.27.35.23,0,.52-.05.75-.05l1.82-.23,3.4-.5,1.32-.23c.37-.08.52-.1,1.12-.27.33-.1.52-.12.75-.12.72,0,1.37.27,1.37.88,0,.37-.27.47-.48.5-.12.03-1.42.15-1.45.15h-.27l-3.6.45c.2.38.25.52.25.67s-.1.8-.1.95l-.1,1.92.03.17.35-.02,2.05-.28c.4-.05.75-.1,1.47-.3.27-.08.55-.15.7-.15.2,0,1.38.17,1.38.95,0,.42-.27.45-.85.5l-1.67.15-3.17.35-.27-.03-.05,1.92v1.85l.05.47,2.35.88,2.3.67,4.35,1.07c.15.05.77.17.9.23.12.02.17.05.62.22-.27.35-.38.38-1.12.55l-1.7.38c-.23.05-1.15.17-1.32.17-.35,0-.85-.2-1.1-.33l-1.65-.82-4.1-1.95-3.37-1.58c-.27-.12-1.9-.9-2.4-1.05-.12.15-.57.85-.67.97-.1.15-.6.8-.67.85l-1.32,1.3c-1.12,1.12-1.82,1.47-1.9,1.47-.02,0-.05,0-.17-.17l.12-.2Zm8.77-17.07c.08-.03.45-.05.53-.08.17,0,.17-.17.17-.25,0-2.02-.28-2.32-.45-2.5-.27-.3-.52-.55-.7-.83.25-.25.4-.4.73-.4.25,0,2.1.4,2.1,1.12,0,.18-.15.92-.17,1.1-.05.32-.07,1.25-.05,1.5l3.05-.27,2.57-.25c.3-.03.6-.05,1.25-.25.18-.05.65-.2.75-.2.45,0,1.17.85,1.6,1.38.53.6.55.62.55.9,0,.33-.2.4-.9.65-.17.05-.47.17-.7.3l-1.77.95c-.1.05-.47.33-.57.33-.07,0-.17-.05-.17-.17,0-.15.2-.38.37-.67l.88-1.45c.08-.12.2-.32.2-.47,0-.05-.08-.15-.25-.15-.03,0-.33.05-.35.05-.23,0-1.3.1-1.52.12l-5.37.47-7.67,1.05-.38-.08c-.02.28-.3,3.32-1.15,3.32-.5,0-.75-.77-.75-1.35,0-.22,0-.38.4-1.2.45-.92.47-1.45.52-2.5.02-.47.02-.52.17-.52s.3.17.67,1.02c.57.08.62.05,2.27-.15l4.15-.52Z"/>
      <path class="cls-1" d="m72.56,6.4l.05-.15.27-1.95c.02-.25.05-.92.05-1.22,0-.35-.02-.5-.35-.9-.5-.65-.55-.7-.55-.88,0-.27.45-.38.7-.38.35,0,1,.35,1.47.62.52.3.72.42.72.7l-.15.82-.55,3.17,5.02-.45c.25-.03.48-.08,1.08-.25.38-.1.42-.12.52-.12.28,0,.8.33,1.45,1,.17.12.6.4.6.9,0,.2-.12.55-.17.7,0,.05-.1.27-.1.33l-.23,2.57-.15,2.87-.23,6.5c0,.15-.27,3.05-1.32,3.05-.33,0-.58-.28-.7-.45-.2-.22-.55-.7-.7-.8l-1.7-1.3c-.15-.1-.27-.17-.47-.55.08-.02.2-.05.27-.05.12,0,1.37.3,1.62.35.47.1.82.1.85.1.42,0,.45-.33.48-.7l.15-1.75.27-6.55.05-4-.05-.35c-.12-.23-.15-.28-.85-.28-.4,0-3.9.25-5.97.45-.32,1.5-.48,1.95-.87,3.07l3.3,1.97.6.4,1.47,1.17c.45.38.9,1.22.9,2.02,0,.65-.35.88-.58.88-.33,0-.4-.1-1.05-.95-.7-.9-.77-1-1.57-1.85l-1.77-1.55-1.6-1.22-.05-.03c-.27.52-.68,1.15-.7,1.2l-1.08,1.5c-.12.12-2.45,2.9-4.1,2.87l-.05-.2c.2-.23,1.22-1.05,1.42-1.22.75-.75,1.87-2.27,2.15-2.77.07-.12.45-.73.48-.78l.8-1.7c.25-.53.52-1.85.7-2.72l-4.42.5c-.12.03-.77.12-.9.12-.12.03-.22.03-.4,0l-.07.62-.03,3.85v5.97l-.08,1.92c-.05,1-.37,1.65-.8,1.65-.57,0-.85-.9-.82-1.35l.07-2.1.12-5.47-.02-1.72-.05-2.67c0-.48-.12-.92-.28-1.33-.07-.17-.52-1.05-.52-1.12,0-.05,0-.1.07-.25.23-.1.32-.12.45-.12.2,0,.28.02,1.02.47.42.25.62.33,1.25.33.88,0,1.02,0,2.67-.18l2.92-.3Z"/>
      <path class="cls-1" d="m109.4,14.35l.95.58,1.82,1,.3.12,2.25.92c.92.38,1.32.58,1.5.95-.75.33-1.72.33-2.62.33-.25,0-1.3,0-1.47-.03-.2,0-.35-.08-.8-.47l-3.85-3.27-1.12-.85-1.8-1.42c-.28-.22-.65-.52-.83-.58-.17.1-.35.23-.77.6l-1.52,1.42-.87.73-1.65,1.2s-1.95,1.25-2.62,1.52l-2.1.83c-.05.03-.87.25-.98.25-.07,0-.12-.03-.27-.17.07-.15.2-.23.35-.33,2.22-1.17,4.25-2.27,6.35-4.22.75-.7,2.47-2.5,2.47-3.3,0-.22-.08-.3-.25-.52.02-.22.02-.42.52-.42s2.22.72,2.22,1.42c0,.15-.08.3-.15.42.3.15.67.38.73.42l4.22,2.87Zm-7.77-9.77c.25-.03,1.45-.15,1.72-.17-.02-.2-.02-1.2-.05-1.42-.02-.25-.07-.8-.38-1.02-.6-.42-.67-.48-.67-.62,0-.33.35-.5.6-.5.42,0,2.6.65,2.6,1.15,0,.15-.3.9-.35,1.08-.05.25-.12.72-.17,1.22.2-.03,1.47-.12,1.55-.12l3.65-.12c.33,0,1.8-.22,2.15-.22.67,0,1.5.77,1.75,1.02.67.65.9.92.9,1.27,0,.65-.42.67-.7.7-1.02.05-1.12.02-2.05.22-.25.03-1.42.38-1.7.38-.12,0-.25-.05-.25-.17,0-.22,1.72-1.38,1.72-1.77,0-.17-.87-.25-.97-.25l-2.62.05-3.62.15-2.77.2c-.45.03-1.82.2-2.27.28l-2.5.38c-.12,0-.6.08-.7.08-.15.6-.38,1.42-.8,2.4-.35.83-.57,1.25-1,1.25-.55,0-.85-.9-.85-1.27,0-.3.08-.55.5-1.22.92-1.42.97-2.27.97-2.38s-.12-.67-.12-.8c0-.22.23-.27.33-.27.35,0,.77.33,1.02.92.48.05.7,0,1.62-.08l3.47-.3Zm-5.9,7.05c0-.25,3.35-3.02,3.35-3.65,0-.08-.1-.62-.1-.7,0-.2.2-.35.57-.35.33,0,.42.08,1.38.82.2.15.35.35.35.6,0,.27-.08.35-.77.77-.28.17-1.38,1-1.6,1.15-.38.25-2.65,1.6-3.12,1.5-.05-.12-.05-.15-.05-.15Zm13.27,9.52c-.67,1.77-.97,2.1-1.5,2.1-.17,0-.3-.07-.48-.17-.07-.02-.5-.15-.6-.17-.23-.02-.5-.05-.73-.05h-.9l-2.82.17c-.28.03-.58.08-1.1.17-.15.23-.62.5-.8.5-.15,0-.65-.08-.75-1.1l-.3-3.15c-.12-1.32-.3-1.52-.55-1.85-.32-.42-.37-.47-.37-.6,0-.17.17-.38.42-.38.38,0,1.22.45,1.6.67.55.03.7,0,.97-.02l4.97-.55c.38-.05.75-.12,1.12-.22.57-.17.65-.2.82-.2.32,0,.6.12.7.23.12.08.72.52.85.62.6.42.9.62.9,1.07,0,.1,0,.22-.27.47-.2.18-.38.33-.55.75l-.65,1.7Zm-1-2.47c.07-.25.12-.47.12-.6,0-.18-.1-.28-.42-.28-.38,0-1.72.1-2.35.17l-2.7.3-1.47.23c-.1.02-.55.1-.65.1l.25,2.65c0,.1.08.6.08.7.1,0,1.4-.1,1.57-.12l2.65-.2c.25-.03,1.35-.05,1.58-.08.27-.03.32-.03.4-.03.28-.67.33-.75.38-.95l.58-1.9Zm1.62-10.47c.95.4,2.22,1.27,2.22,2.32,0,.45-.25.83-.62.83-.3,0-.62-.22-.75-.35l-1.57-1.5c-1.15-1.08-2.27-1.65-2.95-2.02-.12-.05-.4-.2-.4-.35,0-.05.02-.05.08-.15.87-.03,2.37.55,2.42.55l1.57.67Z"/>
      <path class="cls-1" d="m129.12,9.77v-2.4c0-.07-.02-1.62-.15-2.12-.02-.15-.3-.75-.3-.88,0-.2.23-.3.4-.3.22,0,1.7.47,1.7,1.42,0,.12-.1.62-.1.72-.03.1-.03.15-.03.6l-.07,2.75.02.17,4.02-.35c.4-.03,1.42-.12,1.75-.12.35-.03.38-.1.38-.88l.03-2.35c0-.77.02-1.62-.18-2.27-.05-.15-.37-.75-.37-.88,0-.17.17-.35.5-.35.23,0,1.95.35,1.95,1.4,0,.17-.03.22-.1.7-.05.17-.02.22-.05.67l-.12,3.6.03.15.22.02,1.33-.12c.62-.05.7-.07,1.45-.22.1-.03.35-.08.55-.08.42,0,1.58.48,1.58,1.22,0,.25-.08.33-.25.45-.2.12-.28.12-.98.1l-2.07-.1-1.92.08-.05.08-.25,2.25c-.02.28-.45,2.15-.52,2.37l-.58,1.55c-1.02,2.75-4.47,5.95-5.3,5.95-.1,0-.18-.08-.18-.15,0-.12.05-.17.48-.58,2-1.95,3.57-4.97,3.9-6.47l.42-1.95.25-2.15.05-.77-2.6.12-2.95.22-.37.05-.1.1.03,3.07c0,.52,0,1.92-.65,1.92-.12,0-.6-.02-.82-.87-.12-.45-.12-.67-.1-1.3l.12-2.62-.05-.15-2.1.22c-.23.03-1.15.23-1.35.23-.72,0-1.55-.9-1.55-1.33,0-.17.15-.33.42-.33.23,0,1.23.1,1.42.1,0,0,2.8-.12,3.1-.15l.12-.08Z"/>
      <path class="cls-1" d="m167.2,11.05l-1.42,1.55-1.6,1.62-2.05,1.8-2.07,1.67-.35.25-1.42,1c-.22.18-1.22.8-1.42.95-.1.08-.52.42-.62.5-.17.12-.32.2-.52.2-.72,0-2.1-1.2-2.1-1.75,0-.22.23-.28.4-.28.12,0,.75.05.87.05.3,0,2.62-1,5.12-2.88,4.6-3.45,8.5-7.57,9.52-8.82.25-.3.4-.45.57-.45.12,0,.2.12.2.25,0,.15-.48.95-.55,1.08l-1.15,1.62-1.4,1.62Zm-12.9-5.92c-.17-.15-.33-.28-.5-.42-.08-.05-.17-.12-.17-.22,0-.15.15-.18.22-.18.3,0,4.6.55,4.6,2.75,0,.25-.15.88-.7.88-.33,0-.5-.15-.88-.5l-1.45-1.38-1.12-.92Z"/>
      <path class="cls-1" d="m188.04,7l-3.52.37c-.17.03-.95.23-1.1.23-.75,0-1.77-1.2-1.77-1.75,0-.15.12-.3.3-.3.15,0,.72.2.85.22.17.05,1.22.1,1.45.1.27,0,2.17-.15,2.6-.17,1.4-.1,8.07-.45,8.87-.53.23-.02,1.2-.2,1.4-.2.6,0,1.77.92,1.77,1.33,0,.25-.15.42-.55.95-.48.6-2.1,3.45-2.45,4.02-2.87,4.6-5.37,6.75-8.05,8.75-1.17.88-2.72,1.77-3.15,1.77-.07,0-.2,0-.2-.15,0-.17.05-.22.55-.57,1.07-.75,5.12-3.8,8.62-9.42,1.42-2.3,2.57-4.62,2.57-4.92,0-.17-.05-.15-.52-.15l-1.82.03-5.85.4Zm12.72-7c1.45,0,2.47,1.12,2.47,2.42s-1.1,2.42-2.47,2.42c-1.52,0-2.45-1.3-2.45-2.37,0-1.27.95-2.47,2.45-2.47Zm1.45,2.42c0-.78-.62-1.42-1.45-1.42-.67,0-1.45.47-1.45,1.5,0,.5.52,1.35,1.47,1.35.75,0,1.42-.62,1.42-1.42Z"/>
      <path class="cls-1" d="m211.14,18.55c1.3-2.35,2.15-4.45,2.87-8.15.23-1.22.42-2.42.42-2.77s-.12-.75-.15-.82c-.03-.1-.18-.53-.18-.6,0-.25.32-.28.43-.28.65,0,1.85.92,1.85,1.5,0,.22-.02.3-.25.92-.08.17-.5,2.22-.62,2.65-1,3.85-2.55,6.7-4.2,8.5-.22.25-.77.88-1,.88-.1,0-.12-.08-.12-.15,0-.1.8-1.4.95-1.67Zm8.82-6.72v-4.5c0-.47-.07-2.65-.2-3.07-.1-.25-.2-.45-.25-.55-.2-.33-.23-.35-.23-.47,0-.2.27-.25.42-.25.43,0,2.05.65,2.05,1.47,0,.2-.15,1.02-.15,1.2-.2,1.62-.2,3.15-.25,8.55l-.03,2.17c0,.55,0,1.6.03,2.1.02.3.02.33.1.38,3-1.38,5.9-4.07,7.32-6,.2-.27.52-.75.75-1.02.05-.08.15-.17.25-.17.07,0,.1.1.1.17,0,.1-1.1,3.92-6.8,7.97-.23.17-1.3.87-1.47,1.05-.38.35-.53.48-.73.48-.52,0-1.22-1.38-1.22-1.62,0-.15.17-.75.2-.88.03-.32.05-.5.05-.62l.05-6.37Z"/>
    </g>
  </g>
</svg>