<?xml version="1.0" encoding="UTF-8"?>
<svg id="_レイヤー_2" data-name="レイヤー 2" xmlns="http://www.w3.org/2000/svg" xmlns:xlink="http://www.w3.org/1999/xlink" viewBox="0 0 435.69 39.21">
  <defs>
    <style>
      .cls-1 {
        fill: url(#_新規グラデーションスウォッチ_1);
      }

      .cls-1, .cls-2, .cls-3, .cls-4, .cls-5, .cls-6, .cls-7, .cls-8, .cls-9, .cls-10, .cls-11 {
        stroke-width: 0px;
      }

      .cls-2 {
        fill: url(#_新規グラデーションスウォッチ_1-2);
      }

      .cls-12 {
        opacity: .5;
      }

      .cls-3 {
        fill: url(#_新規グラデーションスウォッチ_1-9);
      }

      .cls-4 {
        fill: url(#_新規グラデーションスウォッチ_1-3);
      }

      .cls-5 {
        fill: url(#_新規グラデーションスウォッチ_1-10);
      }

      .cls-6 {
        fill: url(#_新規グラデーションスウォッチ_1-4);
      }

      .cls-7 {
        fill: url(#_新規グラデーションスウォッチ_1-8);
      }

      .cls-8 {
        fill: url(#_新規グラデーションスウォッチ_1-6);
      }

      .cls-9 {
        fill: #39385d;
      }

      .cls-10 {
        fill: url(#_新規グラデーションスウォッチ_1-5);
      }

      .cls-11 {
        fill: url(#_新規グラデーションスウォッチ_1-7);
      }
    </style>
    <linearGradient id="_新規グラデーションスウォッチ_1" data-name="新規グラデーションスウォッチ 1" x1="-3.24" y1="110.67" x2="29.76" y2="-45.33" gradientUnits="userSpaceOnUse">
      <stop offset="0" stop-color="#c9ddf1"/>
      <stop offset=".06" stop-color="#c1daef" stop-opacity=".97"/>
      <stop offset=".15" stop-color="#add2ec" stop-opacity=".89"/>
      <stop offset=".26" stop-color="#8cc5e6" stop-opacity=".75"/>
      <stop offset=".38" stop-color="#5fb2df" stop-opacity=".57"/>
      <stop offset=".52" stop-color="#259cd5" stop-opacity=".33"/>
      <stop offset=".54" stop-color="#1e99d4" stop-opacity=".3"/>
      <stop offset=".76" stop-color="#0075bb"/>
      <stop offset=".96" stop-color="#005b94"/>
    </linearGradient>
    <linearGradient id="_新規グラデーションスウォッチ_1-2" data-name="新規グラデーションスウォッチ 1" x1="38.95" y1="119.6" x2="71.95" y2="-36.4" xlink:href="#_新規グラデーションスウォッチ_1"/>
    <linearGradient id="_新規グラデーションスウォッチ_1-3" data-name="新規グラデーションスウォッチ 1" x1="83.82" y1="129.09" x2="116.82" y2="-26.91" xlink:href="#_新規グラデーションスウォッチ_1"/>
    <linearGradient id="_新規グラデーションスウォッチ_1-4" data-name="新規グラデーションスウォッチ 1" x1="126.09" y1="138.03" x2="159.09" y2="-17.97" xlink:href="#_新規グラデーションスウォッチ_1"/>
    <linearGradient id="_新規グラデーションスウォッチ_1-5" data-name="新規グラデーションスウォッチ 1" x1="185.38" y1="150.57" x2="218.38" y2="-5.43" xlink:href="#_新規グラデーションスウォッチ_1"/>
    <linearGradient id="_新規グラデーションスウォッチ_1-6" data-name="新規グラデーションスウォッチ 1" x1="235.24" y1="161.12" x2="268.24" y2="5.12" xlink:href="#_新規グラデーションスウォッチ_1"/>
    <linearGradient id="_新規グラデーションスウォッチ_1-7" data-name="新規グラデーションスウォッチ 1" x1="274" y1="169.35" x2="307" y2="13.35" xlink:href="#_新規グラデーションスウォッチ_1"/>
    <linearGradient id="_新規グラデーションスウォッチ_1-8" data-name="新規グラデーションスウォッチ 1" x1="305.41" y1="175.96" x2="338.41" y2="19.96" xlink:href="#_新規グラデーションスウォッチ_1"/>
    <linearGradient id="_新規グラデーションスウォッチ_1-9" data-name="新規グラデーションスウォッチ 1" x1="335.23" y1="182.27" x2="368.23" y2="26.27" xlink:href="#_新規グラデーションスウォッチ_1"/>
    <linearGradient id="_新規グラデーションスウォッチ_1-10" data-name="新規グラデーションスウォッチ 1" x1="380.11" y1="191.76" x2="413.11" y2="35.76" xlink:href="#_新規グラデーションスウォッチ_1"/>
  </defs>
  <g id="design">
    <g>
      <g>
        <path class="cls-9" d="m0,38.28v-.63c1.06-.05,1.91-.21,2.56-.45.65-.25,1.22-.62,1.71-1.13.58-.58.98-1.32,1.18-2.21.2-.89.3-2.28.3-4.16V9.54c0-1.88-.1-3.26-.3-4.16-.2-.89-.59-1.63-1.18-2.21-.49-.53-1.07-.91-1.72-1.15-.66-.24-1.5-.38-2.54-.44v-.63h17.96c1.82,0,3.02.02,3.58.05,2.08.16,3.8.66,5.17,1.48,1.18.73,2.1,1.69,2.75,2.87.65,1.19.97,2.52.97,3.99,0,2.39-.74,4.35-2.21,5.88-.53.57-1.13,1.03-1.8,1.41-.67.37-1.65.79-2.93,1.24,1.75.29,3.11.61,4.07.96.97.35,1.84.83,2.62,1.45,1.17.95,2.07,2.13,2.72,3.54.65,1.41.97,2.94.97,4.58s-.33,3.18-1,4.55c-.67,1.38-1.59,2.48-2.78,3.32-1.08.75-2.36,1.27-3.84,1.56-1.49.29-3.58.44-6.28.44H0ZM11.73,1.8v16.24h2.21c1.04,0,2.11-.07,3.23-.22.97-.15,1.75-.32,2.34-.52.59-.2,1.13-.47,1.63-.82.93-.69,1.65-1.58,2.15-2.67.5-1.08.75-2.28.75-3.6,0-1.39-.26-2.7-.78-3.95-.52-1.25-1.21-2.22-2.06-2.91-.75-.6-1.6-1.01-2.56-1.23s-2.41-.33-4.36-.33h-2.54Zm0,17.09v11.27c0,1.37.1,2.47.29,3.31.19.84.51,1.55.94,2.13.93,1.22,2.52,1.83,4.79,1.83,2.93,0,5.25-.8,6.96-2.41,1.7-1.6,2.56-3.79,2.56-6.56,0-1.59-.26-3.06-.79-4.42-.53-1.36-1.24-2.4-2.13-3.13-1.64-1.35-4.21-2.02-7.71-2.02h-4.89Z"/>
        <path class="cls-9" d="m40,19.87c0-3.06.66-5.91,1.97-8.52,1.31-2.62,3.23-4.9,5.74-6.85,1.88-1.44,3.9-2.55,6.07-3.32,2.17-.78,4.36-1.16,6.56-1.16,2.81,0,5.52.62,8.15,1.85,2.62,1.23,4.92,2.97,6.89,5.21,3.21,3.65,4.81,7.8,4.81,12.45,0,2.34-.42,4.59-1.26,6.76-.84,2.17-2.06,4.15-3.66,5.94-1.97,2.23-4.3,3.95-6.99,5.17-2.69,1.22-5.5,1.83-8.44,1.83s-5.67-.59-8.31-1.78c-2.64-1.19-4.92-2.86-6.84-5.04-1.51-1.7-2.68-3.62-3.49-5.79-.81-2.16-1.22-4.41-1.22-6.75Zm6.62.41c0,5.29,1.44,9.75,4.32,13.38,1.29,1.62,2.67,2.81,4.12,3.54,1.45.74,3.12,1.11,5.02,1.11s3.6-.36,5.04-1.09c1.45-.73,2.83-1.92,4.14-3.56,2.88-3.65,4.32-8.15,4.32-13.49,0-2.94-.4-5.71-1.19-8.33-.79-2.62-1.91-4.84-3.35-6.66-1.17-1.5-2.47-2.58-3.9-3.27-1.43-.68-3.12-1.03-5.07-1.03s-3.61.34-5.02,1.01c-1.41.67-2.72,1.77-3.92,3.28-1.44,1.81-2.55,4.02-3.34,6.65-.78,2.63-1.18,5.45-1.18,8.46Z"/>
        <path class="cls-9" d="m86.88,19.87c0-3.06.66-5.91,1.97-8.52,1.31-2.62,3.23-4.9,5.74-6.85,1.88-1.44,3.9-2.55,6.07-3.32,2.17-.78,4.36-1.16,6.56-1.16,2.81,0,5.52.62,8.15,1.85,2.62,1.23,4.92,2.97,6.89,5.21,3.21,3.65,4.81,7.8,4.81,12.45,0,2.34-.42,4.59-1.26,6.76-.84,2.17-2.06,4.15-3.66,5.94-1.97,2.23-4.3,3.95-6.99,5.17-2.69,1.22-5.5,1.83-8.44,1.83s-5.67-.59-8.31-1.78c-2.64-1.19-4.92-2.86-6.84-5.04-1.51-1.7-2.68-3.62-3.49-5.79-.81-2.16-1.22-4.41-1.22-6.75Zm6.62.41c0,5.29,1.44,9.75,4.32,13.38,1.29,1.62,2.67,2.81,4.12,3.54,1.45.74,3.12,1.11,5.02,1.11s3.6-.36,5.04-1.09c1.45-.73,2.83-1.92,4.14-3.56,2.88-3.65,4.32-8.15,4.32-13.49,0-2.94-.4-5.71-1.19-8.33-.79-2.62-1.91-4.84-3.35-6.66-1.17-1.5-2.47-2.58-3.9-3.27-1.43-.68-3.12-1.03-5.07-1.03s-3.61.34-5.02,1.01c-1.41.67-2.72,1.77-3.92,3.28-1.44,1.81-2.55,4.02-3.34,6.65-.78,2.63-1.18,5.45-1.18,8.46Z"/>
        <path class="cls-9" d="m143.07,19.25l11.57-11.48c1.15-1.13,1.86-1.9,2.15-2.31.28-.41.42-.86.42-1.35,0-.89-.44-1.57-1.31-2.02-.46-.22-1.22-.38-2.3-.49v-.63h11.79v.63c-.8.07-1.47.21-2.01.4-.54.19-1.13.52-1.76.97-.71.51-1.93,1.6-3.66,3.25l-8.86,8.5,12.61,16.08,1.56,2c1.15,1.42,2.34,2.53,3.58,3.34.75.49,1.4.84,1.97,1.05.57.21,1.28.37,2.13.48v.63h-18.07v-.63c1.37-.11,2.35-.34,2.95-.68.6-.35.9-.86.9-1.53,0-.73-.37-1.66-1.12-2.79-.36-.55-1.05-1.49-2.05-2.84-1-1.35-1.85-2.44-2.54-3.28l-6.15-7.63-1.78,1.75v9.05c0,1.86.1,3.24.31,4.14.21.9.6,1.65,1.16,2.23.49.51,1.06.89,1.71,1.13.65.25,1.5.4,2.56.45v.63h-17.47v-.63c1.06-.05,1.91-.21,2.56-.45.65-.25,1.22-.62,1.71-1.13.58-.58.98-1.32,1.18-2.21.2-.89.3-2.28.3-4.16V9.54c0-1.88-.1-3.26-.3-4.16-.2-.89-.59-1.63-1.18-2.21-.49-.53-1.07-.91-1.72-1.15-.66-.24-1.5-.38-2.54-.44v-.63h17.47v.63c-1.04.05-1.88.2-2.53.44-.65.24-1.23.62-1.74,1.15-.56.58-.95,1.33-1.16,2.23-.21.9-.31,2.28-.31,4.14v9.71Z"/>
        <path class="cls-9" d="m236.69,1.59c-1.04.05-1.87.2-2.5.42-.63.23-1.21.61-1.74,1.13-.4.38-.7.81-.9,1.27-.2.46-.34,1.05-.41,1.76-.13.95-.19,2.07-.19,3.36v20.15c0,1.88.11,3.27.33,4.18.22.91.61,1.64,1.18,2.19,1,.97,2.42,1.5,4.24,1.59v.63h-17.47v-.63c1.06-.05,1.91-.21,2.56-.45.65-.25,1.23-.62,1.74-1.13.56-.58.95-1.33,1.16-2.23.21-.9.31-2.28.31-4.14V5.25l-14.08,33.03h-.57l-14-32.54v23.95c0,1.88.1,3.26.31,4.16.21.89.6,1.63,1.16,2.21.51.53,1.09.91,1.74,1.15.65.24,1.49.38,2.53.44v.63h-12.61v-.63c1.04-.05,1.88-.2,2.53-.44.65-.24,1.23-.62,1.74-1.15.56-.58.95-1.33,1.16-2.23.21-.9.31-2.28.31-4.14V9.54c0-.84-.03-1.63-.08-2.38-.09-1.35-.3-2.33-.63-2.95-.46-.86-1.08-1.49-1.87-1.9s-1.85-.65-3.16-.72v-.63h11.87l11.84,29.23L225.45.96h11.24v.63Z"/>
        <path class="cls-9" d="m281.27,38.28h-17.96v-.63c1.62-.15,2.75-.42,3.39-.82,1.13-.71,1.7-1.7,1.7-2.95,0-.75-.26-1.75-.77-3.01l-.46-1.15-2.62-6.45h-12.03l-1.42,3.77-.68,1.7c-.82,2.01-1.23,3.58-1.23,4.73,0,.67.15,1.3.45,1.89.3.58.71,1.06,1.22,1.42.71.49,1.62.78,2.73.88v.63h-12.25v-.63c.97-.05,1.81-.29,2.54-.71.73-.42,1.44-1.09,2.13-2.02.58-.75,1.15-1.71,1.71-2.88.56-1.18,1.29-2.94,2.2-5.29l10.01-25.79h1.56l11.89,28.74c.89,2.17,1.6,3.72,2.13,4.65.53.93,1.1,1.63,1.72,2.11.44.33.94.58,1.5.75.56.17,1.41.32,2.54.45v.63Zm-17.17-16.13l-5.74-14.16-5.41,14.16h11.16Z"/>
        <path class="cls-9" d="m297.61,19.25l11.57-11.48c1.15-1.13,1.86-1.9,2.15-2.31s.42-.86.42-1.35c0-.89-.44-1.57-1.31-2.02-.46-.22-1.22-.38-2.3-.49v-.63h11.79v.63c-.8.07-1.47.21-2.01.4s-1.13.52-1.76.97c-.71.51-1.93,1.6-3.66,3.25l-8.86,8.5,12.61,16.08,1.56,2c1.15,1.42,2.34,2.53,3.58,3.34.75.49,1.4.84,1.97,1.05.56.21,1.28.37,2.13.48v.63h-18.07v-.63c1.37-.11,2.35-.34,2.95-.68.6-.35.9-.86.9-1.53,0-.73-.37-1.66-1.12-2.79-.36-.55-1.05-1.49-2.05-2.84-1-1.35-1.85-2.44-2.54-3.28l-6.15-7.63-1.78,1.75v9.05c0,1.86.1,3.24.31,4.14s.6,1.65,1.16,2.23c.49.51,1.06.89,1.71,1.13s1.5.4,2.56.45v.63h-17.47v-.63c1.06-.05,1.91-.21,2.56-.45s1.22-.62,1.71-1.13c.58-.58.98-1.32,1.18-2.21.2-.89.3-2.28.3-4.16V9.54c0-1.88-.1-3.26-.3-4.16-.2-.89-.59-1.63-1.18-2.21-.49-.53-1.07-.91-1.72-1.15-.66-.24-1.5-.38-2.54-.44v-.63h17.47v.63c-1.04.05-1.88.2-2.53.44-.65.24-1.23.62-1.74,1.15-.56.58-.95,1.33-1.16,2.23s-.31,2.28-.31,4.14v9.71Z"/>
        <path class="cls-9" d="m347.22.96v.63c-1.04.05-1.88.2-2.53.44-.65.24-1.23.62-1.74,1.15-.71.73-1.15,1.74-1.31,3.04-.11.97-.16,2.08-.16,3.34v20.15c0,1.51.07,2.71.22,3.58s.38,1.58.71,2.11c.47.73,1.08,1.27,1.83,1.63s1.74.57,2.98.64v.63h-17.47v-.63c1.06-.05,1.91-.21,2.56-.45s1.22-.62,1.71-1.13c.58-.58.98-1.32,1.18-2.21.2-.89.3-2.28.3-4.16V9.54c0-1.88-.1-3.26-.3-4.16-.2-.89-.59-1.63-1.18-2.21-.49-.53-1.07-.91-1.72-1.15-.66-.24-1.5-.38-2.54-.44v-.63h17.47Z"/>
        <path class="cls-9" d="m359.57,5.91v23.79c0,1.88.1,3.26.31,4.16.21.89.6,1.63,1.16,2.21.51.53,1.09.91,1.74,1.15.65.24,1.49.38,2.53.44v.63h-12.61v-.63c1.04-.05,1.88-.2,2.53-.44.65-.24,1.23-.62,1.74-1.15.57-.58.95-1.33,1.16-2.23.21-.9.31-2.28.31-4.14V9.52c0-1.84-.1-3.21-.31-4.12-.21-.9-.6-1.65-1.16-2.23-.49-.53-1.06-.91-1.71-1.15-.65-.24-1.5-.38-2.56-.44v-.63h10.53l22.2,28.33V9.54c0-1.88-.1-3.26-.31-4.16-.21-.89-.6-1.63-1.16-2.21-.51-.53-1.09-.91-1.74-1.15-.65-.24-1.49-.38-2.53-.44v-.63h12.61v.63c-1.82,0-3.24.53-4.27,1.59-.56.58-.95,1.33-1.16,2.23-.21.9-.31,2.27-.31,4.12v28.77h-1.23l-25.76-32.38Z"/>
        <path class="cls-9" d="m429.53.96l.33,11.89-.63.05c-1.26-4.05-2.87-7.06-4.84-9.04-1.97-1.98-4.35-2.97-7.14-2.97-2.17,0-4.03.44-5.59,1.33-1.56.88-3.01,2.32-4.36,4.31-2.73,4.07-4.1,8.71-4.1,13.95,0,2.5.33,4.85.98,7.07s1.61,4.17,2.87,5.87c2.44,3.28,5.42,4.92,8.94,4.92,1.39,0,2.69-.29,3.91-.88,1.22-.58,2.22-1.39,3.01-2.41,1.08-1.42,1.61-3.11,1.61-5.06,0-1.8-.49-3.11-1.46-3.91-.98-.8-2.58-1.2-4.83-1.2v-.63h17.45v.63c-1.6.15-2.73.37-3.38.67s-1.13.82-1.44,1.54c-.35.8-.52,2.4-.52,4.79,0,.66.04,1.68.11,3.06l.05.63c-.69-.25-1.2-.38-1.53-.38-.4,0-.91.21-1.53.63-1.59,1.09-3.43,1.93-5.52,2.52s-4.31.88-6.64.88c-3.21,0-6.1-.55-8.68-1.64s-4.67-2.66-6.28-4.7c-1.2-1.53-2.13-3.35-2.78-5.47-.65-2.11-.97-4.36-.97-6.73,0-3.26.58-6.3,1.75-9.11,1.17-2.81,2.81-5.12,4.92-6.95,1.73-1.48,3.73-2.62,5.99-3.42,2.26-.8,4.65-1.2,7.16-1.2,1.46,0,2.81.14,4.06.41s2.57.72,3.98,1.34l1.61.74c.4.16.77.25,1.09.25.73,0,1.29-.59,1.67-1.78h.71Z"/>
      </g>
      <g class="cls-12">
        <path class="cls-1" d="m0,38.28v-.63c1.06-.05,1.91-.21,2.56-.45.65-.25,1.22-.62,1.71-1.13.58-.58.98-1.32,1.18-2.21.2-.89.3-2.28.3-4.16V9.54c0-1.88-.1-3.26-.3-4.16-.2-.89-.59-1.63-1.18-2.21-.49-.53-1.07-.91-1.72-1.15-.66-.24-1.5-.38-2.54-.44v-.63h17.96c1.82,0,3.02.02,3.58.05,2.08.16,3.8.66,5.17,1.48,1.18.73,2.1,1.69,2.75,2.87.65,1.19.97,2.52.97,3.99,0,2.39-.74,4.35-2.21,5.88-.53.57-1.13,1.03-1.8,1.41-.67.37-1.65.79-2.93,1.24,1.75.29,3.11.61,4.07.96.97.35,1.84.83,2.62,1.45,1.17.95,2.07,2.13,2.72,3.54.65,1.41.97,2.94.97,4.58s-.33,3.18-1,4.55c-.67,1.38-1.59,2.48-2.78,3.32-1.08.75-2.36,1.27-3.84,1.56-1.49.29-3.58.44-6.28.44H0ZM11.73,1.8v16.24h2.21c1.04,0,2.11-.07,3.23-.22.97-.15,1.75-.32,2.34-.52.59-.2,1.13-.47,1.63-.82.93-.69,1.65-1.58,2.15-2.67.5-1.08.75-2.28.75-3.6,0-1.39-.26-2.7-.78-3.95-.52-1.25-1.21-2.22-2.06-2.91-.75-.6-1.6-1.01-2.56-1.23s-2.41-.33-4.36-.33h-2.54Zm0,17.09v11.27c0,1.37.1,2.47.29,3.31.19.84.51,1.55.94,2.13.93,1.22,2.52,1.83,4.79,1.83,2.93,0,5.25-.8,6.96-2.41,1.7-1.6,2.56-3.79,2.56-6.56,0-1.59-.26-3.06-.79-4.42-.53-1.36-1.24-2.4-2.13-3.13-1.64-1.35-4.21-2.02-7.71-2.02h-4.89Z"/>
        <path class="cls-2" d="m40,19.87c0-3.06.66-5.91,1.97-8.52,1.31-2.62,3.23-4.9,5.74-6.85,1.88-1.44,3.9-2.55,6.07-3.32,2.17-.78,4.36-1.16,6.56-1.16,2.81,0,5.52.62,8.15,1.85,2.62,1.23,4.92,2.97,6.89,5.21,3.21,3.65,4.81,7.8,4.81,12.45,0,2.34-.42,4.59-1.26,6.76-.84,2.17-2.06,4.15-3.66,5.94-1.97,2.23-4.3,3.95-6.99,5.17-2.69,1.22-5.5,1.83-8.44,1.83s-5.67-.59-8.31-1.78c-2.64-1.19-4.92-2.86-6.84-5.04-1.51-1.7-2.68-3.62-3.49-5.79-.81-2.16-1.22-4.41-1.22-6.75Zm6.62.41c0,5.29,1.44,9.75,4.32,13.38,1.29,1.62,2.67,2.81,4.12,3.54,1.45.74,3.12,1.11,5.02,1.11s3.6-.36,5.04-1.09c1.45-.73,2.83-1.92,4.14-3.56,2.88-3.65,4.32-8.15,4.32-13.49,0-2.94-.4-5.71-1.19-8.33-.79-2.62-1.91-4.84-3.35-6.66-1.17-1.5-2.47-2.58-3.9-3.27-1.43-.68-3.12-1.03-5.07-1.03s-3.61.34-5.02,1.01c-1.41.67-2.72,1.77-3.92,3.28-1.44,1.81-2.55,4.02-3.34,6.65-.78,2.63-1.18,5.45-1.18,8.46Z"/>
        <path class="cls-4" d="m86.88,19.87c0-3.06.66-5.91,1.97-8.52,1.31-2.62,3.23-4.9,5.74-6.85,1.88-1.44,3.9-2.55,6.07-3.32,2.17-.78,4.36-1.16,6.56-1.16,2.81,0,5.52.62,8.15,1.85,2.62,1.23,4.92,2.97,6.89,5.21,3.21,3.65,4.81,7.8,4.81,12.45,0,2.34-.42,4.59-1.26,6.76-.84,2.17-2.06,4.15-3.66,5.94-1.97,2.23-4.3,3.95-6.99,5.17-2.69,1.22-5.5,1.83-8.44,1.83s-5.67-.59-8.31-1.78c-2.64-1.19-4.92-2.86-6.84-5.04-1.51-1.7-2.68-3.62-3.49-5.79-.81-2.16-1.22-4.41-1.22-6.75Zm6.62.41c0,5.29,1.44,9.75,4.32,13.38,1.29,1.62,2.67,2.81,4.12,3.54,1.45.74,3.12,1.11,5.02,1.11s3.6-.36,5.04-1.09c1.45-.73,2.83-1.92,4.14-3.56,2.88-3.65,4.32-8.15,4.32-13.49,0-2.94-.4-5.71-1.19-8.33-.79-2.62-1.91-4.84-3.35-6.66-1.17-1.5-2.47-2.58-3.9-3.27-1.43-.68-3.12-1.03-5.07-1.03s-3.61.34-5.02,1.01c-1.41.67-2.72,1.77-3.92,3.28-1.44,1.81-2.55,4.02-3.34,6.65-.78,2.63-1.18,5.45-1.18,8.46Z"/>
        <path class="cls-6" d="m143.07,19.25l11.57-11.48c1.15-1.13,1.86-1.9,2.15-2.31.28-.41.42-.86.42-1.35,0-.89-.44-1.57-1.31-2.02-.46-.22-1.22-.38-2.3-.49v-.63h11.79v.63c-.8.07-1.47.21-2.01.4-.54.19-1.13.52-1.76.97-.71.51-1.93,1.6-3.66,3.25l-8.86,8.5,12.61,16.08,1.56,2c1.15,1.42,2.34,2.53,3.58,3.34.75.49,1.4.84,1.97,1.05.57.21,1.28.37,2.13.48v.63h-18.07v-.63c1.37-.11,2.35-.34,2.95-.68.6-.35.9-.86.9-1.53,0-.73-.37-1.66-1.12-2.79-.36-.55-1.05-1.49-2.05-2.84-1-1.35-1.85-2.44-2.54-3.28l-6.15-7.63-1.78,1.75v9.05c0,1.86.1,3.24.31,4.14.21.9.6,1.65,1.16,2.23.49.51,1.06.89,1.71,1.13.65.25,1.5.4,2.56.45v.63h-17.47v-.63c1.06-.05,1.91-.21,2.56-.45.65-.25,1.22-.62,1.71-1.13.58-.58.98-1.32,1.18-2.21.2-.89.3-2.28.3-4.16V9.54c0-1.88-.1-3.26-.3-4.16-.2-.89-.59-1.63-1.18-2.21-.49-.53-1.07-.91-1.72-1.15-.66-.24-1.5-.38-2.54-.44v-.63h17.47v.63c-1.04.05-1.88.2-2.53.44-.65.24-1.23.62-1.74,1.15-.56.58-.95,1.33-1.16,2.23-.21.9-.31,2.28-.31,4.14v9.71Z"/>
        <path class="cls-10" d="m236.69,1.59c-1.04.05-1.87.2-2.5.42-.63.23-1.21.61-1.74,1.13-.4.38-.7.81-.9,1.27-.2.46-.34,1.05-.41,1.76-.13.95-.19,2.07-.19,3.36v20.15c0,1.88.11,3.27.33,4.18.22.91.61,1.64,1.18,2.19,1,.97,2.42,1.5,4.24,1.59v.63h-17.47v-.63c1.06-.05,1.91-.21,2.56-.45.65-.25,1.23-.62,1.74-1.13.56-.58.95-1.33,1.16-2.23.21-.9.31-2.28.31-4.14V5.25l-14.08,33.03h-.57l-14-32.54v23.95c0,1.88.1,3.26.31,4.16.21.89.6,1.63,1.16,2.21.51.53,1.09.91,1.74,1.15.65.24,1.49.38,2.53.44v.63h-12.61v-.63c1.04-.05,1.88-.2,2.53-.44.65-.24,1.23-.62,1.74-1.15.56-.58.95-1.33,1.16-2.23.21-.9.31-2.28.31-4.14V9.54c0-.84-.03-1.63-.08-2.38-.09-1.35-.3-2.33-.63-2.95-.46-.86-1.08-1.49-1.87-1.9s-1.85-.65-3.16-.72v-.63h11.87l11.84,29.23L225.45.96h11.24v.63Z"/>
        <path class="cls-8" d="m281.27,38.28h-17.96v-.63c1.62-.15,2.75-.42,3.39-.82,1.13-.71,1.7-1.7,1.7-2.95,0-.75-.26-1.75-.77-3.01l-.46-1.15-2.62-6.45h-12.03l-1.42,3.77-.68,1.7c-.82,2.01-1.23,3.58-1.23,4.73,0,.67.15,1.3.45,1.89.3.58.71,1.06,1.22,1.42.71.49,1.62.78,2.73.88v.63h-12.25v-.63c.97-.05,1.81-.29,2.54-.71.73-.42,1.44-1.09,2.13-2.02.58-.75,1.15-1.71,1.71-2.88.56-1.18,1.29-2.94,2.2-5.29l10.01-25.79h1.56l11.89,28.74c.89,2.17,1.6,3.72,2.13,4.65.53.93,1.1,1.63,1.72,2.11.44.33.94.58,1.5.75.56.17,1.41.32,2.54.45v.63Zm-17.17-16.13l-5.74-14.16-5.41,14.16h11.16Z"/>
        <path class="cls-11" d="m297.61,19.25l11.57-11.48c1.15-1.13,1.86-1.9,2.15-2.31s.42-.86.42-1.35c0-.89-.44-1.57-1.31-2.02-.46-.22-1.22-.38-2.3-.49v-.63h11.79v.63c-.8.07-1.47.21-2.01.4s-1.13.52-1.76.97c-.71.51-1.93,1.6-3.66,3.25l-8.86,8.5,12.61,16.08,1.56,2c1.15,1.42,2.34,2.53,3.58,3.34.75.49,1.4.84,1.97,1.05.56.21,1.28.37,2.13.48v.63h-18.07v-.63c1.37-.11,2.35-.34,2.95-.68.6-.35.9-.86.9-1.53,0-.73-.37-1.66-1.12-2.79-.36-.55-1.05-1.49-2.05-2.84-1-1.35-1.85-2.44-2.54-3.28l-6.15-7.63-1.78,1.75v9.05c0,1.86.1,3.24.31,4.14s.6,1.65,1.16,2.23c.49.51,1.06.89,1.71,1.13s1.5.4,2.56.45v.63h-17.47v-.63c1.06-.05,1.91-.21,2.56-.45s1.22-.62,1.71-1.13c.58-.58.98-1.32,1.18-2.21.2-.89.3-2.28.3-4.16V9.54c0-1.88-.1-3.26-.3-4.16-.2-.89-.59-1.63-1.18-2.21-.49-.53-1.07-.91-1.72-1.15-.66-.24-1.5-.38-2.54-.44v-.63h17.47v.63c-1.04.05-1.88.2-2.53.44-.65.24-1.23.62-1.74,1.15-.56.58-.95,1.33-1.16,2.23s-.31,2.28-.31,4.14v9.71Z"/>
        <path class="cls-7" d="m347.22.96v.63c-1.04.05-1.88.2-2.53.44-.65.24-1.23.62-1.74,1.15-.71.73-1.15,1.74-1.31,3.04-.11.97-.16,2.08-.16,3.34v20.15c0,1.51.07,2.71.22,3.58s.38,1.58.71,2.11c.47.73,1.08,1.27,1.83,1.63s1.74.57,2.98.64v.63h-17.47v-.63c1.06-.05,1.91-.21,2.56-.45s1.22-.62,1.71-1.13c.58-.58.98-1.32,1.18-2.21.2-.89.3-2.28.3-4.16V9.54c0-1.88-.1-3.26-.3-4.16-.2-.89-.59-1.63-1.18-2.21-.49-.53-1.07-.91-1.72-1.15-.66-.24-1.5-.38-2.54-.44v-.63h17.47Z"/>
        <path class="cls-3" d="m359.57,5.91v23.79c0,1.88.1,3.26.31,4.16.21.89.6,1.63,1.16,2.21.51.53,1.09.91,1.74,1.15.65.24,1.49.38,2.53.44v.63h-12.61v-.63c1.04-.05,1.88-.2,2.53-.44.65-.24,1.23-.62,1.74-1.15.57-.58.95-1.33,1.16-2.23.21-.9.31-2.28.31-4.14V9.52c0-1.84-.1-3.21-.31-4.12-.21-.9-.6-1.65-1.16-2.23-.49-.53-1.06-.91-1.71-1.15-.65-.24-1.5-.38-2.56-.44v-.63h10.53l22.2,28.33V9.54c0-1.88-.1-3.26-.31-4.16-.21-.89-.6-1.63-1.16-2.21-.51-.53-1.09-.91-1.74-1.15-.65-.24-1.49-.38-2.53-.44v-.63h12.61v.63c-1.82,0-3.24.53-4.27,1.59-.56.58-.95,1.33-1.16,2.23-.21.9-.31,2.27-.31,4.12v28.77h-1.23l-25.76-32.38Z"/>
        <path class="cls-5" d="m429.53.96l.33,11.89-.63.05c-1.26-4.05-2.87-7.06-4.84-9.04-1.97-1.98-4.35-2.97-7.14-2.97-2.17,0-4.03.44-5.59,1.33-1.56.88-3.01,2.32-4.36,4.31-2.73,4.07-4.1,8.71-4.1,13.95,0,2.5.33,4.85.98,7.07s1.61,4.17,2.87,5.87c2.44,3.28,5.42,4.92,8.94,4.92,1.39,0,2.69-.29,3.91-.88,1.22-.58,2.22-1.39,3.01-2.41,1.08-1.42,1.61-3.11,1.61-5.06,0-1.8-.49-3.11-1.46-3.91-.98-.8-2.58-1.2-4.83-1.2v-.63h17.45v.63c-1.6.15-2.73.37-3.38.67s-1.13.82-1.44,1.54c-.35.8-.52,2.4-.52,4.79,0,.66.04,1.68.11,3.06l.05.63c-.69-.25-1.2-.38-1.53-.38-.4,0-.91.21-1.53.63-1.59,1.09-3.43,1.93-5.52,2.52s-4.31.88-6.64.88c-3.21,0-6.1-.55-8.68-1.64s-4.67-2.66-6.28-4.7c-1.2-1.53-2.13-3.35-2.78-5.47-.65-2.11-.97-4.36-.97-6.73,0-3.26.58-6.3,1.75-9.11,1.17-2.81,2.81-5.12,4.92-6.95,1.73-1.48,3.73-2.62,5.99-3.42,2.26-.8,4.65-1.2,7.16-1.2,1.46,0,2.81.14,4.06.41s2.57.72,3.98,1.34l1.61.74c.4.16.77.25,1.09.25.73,0,1.29-.59,1.67-1.78h.71Z"/>
      </g>
    </g>
  </g>
</svg>