<svg xmlns="http://www.w3.org/2000/svg" viewBox="0 0 10.6 11.39"><defs><style>.cls-1{fill:#386280;}.cls-2{opacity:0.5;}</style></defs><g id="Layer_2" data-name="Layer 2"><g id="デザイン"><path class="cls-1" d="M1.68,3.4l0,.05c-.07.13-.06.16.07.23l.5.29a.17.17,0,0,1,0,.19.14.14,0,0,1-.19.06L1.33,3.8a.13.13,0,0,1-.06-.15,2.13,2.13,0,0,1,.14-.38c.12-.22.32-.22.55-.12l.22.11.2.12c.09,0,.09-.11,0-.17l-.35-.42-.13-.14c0-.06,0-.18,0-.21a.15.15,0,0,1,.2,0c.18.21.36.41.52.63a.39.39,0,0,1-.05.51.37.37,0,0,1-.46,0c-.14-.09-.29-.15-.44-.23Z"/><path class="cls-1" d="M1.66,7a3.11,3.11,0,0,1-.33,0c-.12,0-.15-.12-.09-.23a.15.15,0,0,1,.08,0H1.7a.12.12,0,0,0,.14-.08A2.8,2.8,0,0,1,2,6.29a.16.16,0,0,1,.21-.08c.06,0,.09.13.06.21s-.09.17-.13.27l.31,0c.07,0,.12,0,.13.11s0,.17-.12.17H2a.51.51,0,0,0-.05.49c.07.1.1.11.2.06s.32-.2.49-.29a.37.37,0,0,1,.18,0c.07,0,.07.1.06.15a.15.15,0,0,1-.06.09l-.68.4a.18.18,0,0,1-.25,0,.8.8,0,0,1-.28-.44.73.73,0,0,1,0-.39Z"/><path class="cls-1" d="M8.54,3.85a2.26,2.26,0,0,0-.13.2c-.05.09-.12.15-.18.13a.17.17,0,0,1-.1-.24c.08-.14.17-.27.27-.43l-.09-.17-.45,0a.2.2,0,0,1-.2-.11.12.12,0,0,1,0-.16s.08,0,.13,0a.6.6,0,0,0,.19,0c.09,0,.06-.11,0-.17s0-.12,0-.16a.32.32,0,0,1,.16,0s.06,0,.08.07l.08.12a1,1,0,0,0,.21-.37.5.5,0,0,1,.16,0,.12.12,0,0,1,.07.16,1,1,0,0,1-.29.45.43.43,0,0,0,0,.07c.09.15.09.14.25.12H9.2c.1,0,.14.08.11.19s-.11.1-.18.1H8.84c0,.1.06.16.08.23A.11.11,0,0,1,8.83,4c-.07,0-.13,0-.17,0l-.08-.12,0,0Z"/><path class="cls-1" d="M8.86,6.85a.59.59,0,0,1,.39,0c.09.05.13.11.09.2a.14.14,0,0,1-.21.07c-.13-.06-.26,0-.31.08a.34.34,0,0,0-.05.19.36.36,0,0,0,.11.16c.07.07.1.18.06.23s-.14.07-.23,0a.79.79,0,0,1-.24-.31c-.1,0-.2,0-.3,0a.58.58,0,0,1-.34-.28.47.47,0,0,1,0-.43.53.53,0,0,1,.31-.33.48.48,0,0,1,.44,0,.44.44,0,0,1,.29.34ZM8.56,7c0-.16-.09-.24-.26-.25A.25.25,0,0,0,8.07,7a.25.25,0,0,0,.25.24A.26.26,0,0,0,8.56,7Z"/><path class="cls-1" d="M7.74,8.43a.18.18,0,0,1,.19.09.14.14,0,0,1-.08.19,1.2,1.2,0,0,1-.2,0,1,1,0,0,0-.59.39.3.3,0,0,1-.13.09s-.12,0-.14-.06A.25.25,0,0,1,6.8,9a.15.15,0,0,0,0-.19,2.07,2.07,0,0,1-.15-.25.18.18,0,0,0-.18-.11.22.22,0,0,1-.15-.08.16.16,0,0,1,0-.15.29.29,0,0,1,.18-.07,1,1,0,0,0,.68-.42.15.15,0,0,1,.21-.06.14.14,0,0,1,0,.21.16.16,0,0,0,0,.22,1.35,1.35,0,0,1,.15.26A.12.12,0,0,0,7.74,8.43Zm-.38.08-.19-.32-.29.16c0,.1.11.2.17.3h.08Z"/><path class="cls-1" d="M6,2a.37.37,0,0,1-.49.21.42.42,0,0,1-.15-.11c-.05-.07,0-.13,0-.16a.22.22,0,0,1,.15,0c.05,0,.13,0,.14,0a.28.28,0,0,0,0-.18,1.32,1.32,0,0,0-.1-.3.06.06,0,0,0-.06-.05.33.33,0,0,0-.14,0,.08.08,0,0,0-.07.05c-.07.13-.13.27-.2.4A.3.3,0,0,1,5,2c-.07,0-.12,0-.16-.08l-.3-.58A.14.14,0,0,1,4.6,1.1a.15.15,0,0,1,.2.07L5,1.48A2.43,2.43,0,0,0,5.1,1.2a.22.22,0,0,1,.21-.13h.08A.28.28,0,0,0,5.73.92.15.15,0,0,1,6,.88a.14.14,0,0,1,0,.21.26.26,0,0,0,0,.34,1.57,1.57,0,0,1,.1.28.75.75,0,0,1,0,.21A.13.13,0,0,0,6,2Z"/><path class="cls-1" d="M3.35,9.18a.59.59,0,0,1-.57-.59.62.62,0,0,1,.3-.46,3,3,0,0,0,.3-.19c.07-.06.06-.1,0-.13l-.08,0a.15.15,0,0,1-.07-.17.15.15,0,0,1,.14-.11.4.4,0,0,1,.35.24.39.39,0,0,1-.2.49c-.11.08-.23.15-.34.24a.18.18,0,0,0,0,.24.3.3,0,0,0,.25.17.21.21,0,0,0,.22-.13c0-.09.07-.18.1-.27a.13.13,0,0,1,.2-.09.34.34,0,0,1,.16.1A.12.12,0,0,1,4,8.7c-.06,0-.07,0-.09.08A.55.55,0,0,1,3.35,9.18Z"/><path class="cls-1" d="M3.64,1.69,3.55,2c.15.1.17.26,0,.29s-.13.15-.17.25-.05.18-.09.27a.11.11,0,0,1-.09,0,.16.16,0,0,1-.16-.21c0-.09,0-.18.07-.26s.06-.16,0-.23,0-.09,0-.13a.15.15,0,0,1,.18-.11l.09-.3-.08,0a.12.12,0,0,1-.19-.06.12.12,0,0,1,0-.18,2.38,2.38,0,0,1,.41-.23.17.17,0,0,1,.17,0,3.75,3.75,0,0,1,.24.44c0,.05.07.11,0,.16a.21.21,0,0,1-.24,0Z"/><path class="cls-1" d="M9.57,4.78c0,.09,0,.18,0,.26h0l0,0-.07.16a.39.39,0,0,1,.09.39.64.64,0,0,1-.2.27A.24.24,0,0,1,9.14,6C9,5.94,9,5.9,9,5.8s.05-.13.14-.13a.18.18,0,0,0,.15-.17.17.17,0,0,0-.17-.14H8.58c-.1,0-.16-.07-.13-.17a.14.14,0,0,1,.15-.12h.5A.22.22,0,0,0,9.25,5a.13.13,0,0,0,0-.12.23.23,0,0,0-.12-.1C9.05,4.76,9,4.7,9,4.61s.06-.14.18-.12a.42.42,0,0,1,.37.27Z"/><path class="cls-1" d="M1.23,5.15c0,.16,0,.18.17.23a.18.18,0,0,1,.11.13,1.51,1.51,0,0,1,0,.3.15.15,0,0,1-.18.13c-.1,0-.11-.07-.11-.14a.86.86,0,0,1,0-.16.44.44,0,0,1-.29-.47.34.34,0,0,1,.2-.31c.09-.05.1-.13.1-.23s0-.11.07-.12a.22.22,0,0,1,.16,0,.17.17,0,0,1,.06.14c0,.09,0,.19,0,.29s-.07.11-.14.13l-.12,0Z"/><path class="cls-1" d="M5.2,9.63a.67.67,0,0,1-.47-.14.12.12,0,0,1-.05-.19.14.14,0,0,1,.2,0,.66.66,0,0,0,.55,0l.13-.07s.05-.06,0-.09a.17.17,0,0,0-.08-.06c-.11,0-.17-.08-.15-.17s.08-.12.21-.11a.33.33,0,0,1,.3.26.37.37,0,0,1-.17.43A.89.89,0,0,1,5.2,9.63Z"/><path class="cls-1" d="M5.29,8.25a.85.85,0,0,1,.5.12.18.18,0,0,1,.07.19.16.16,0,0,1-.2.07l0,0a.31.31,0,0,0-.28-.06L5,8.59a.11.11,0,0,0-.09.13s0,.06.06.06.18.1.16.19a.2.2,0,0,1-.26.1.37.37,0,0,1-.27-.36.42.42,0,0,1,.24-.36A.83.83,0,0,1,5.29,8.25Z"/><path class="cls-1" d="M6.76,2,7,2a.19.19,0,0,1,.22.11.93.93,0,0,0,.1.2l.22,0c.11,0,.18,0,.19.13a.15.15,0,0,1-.16.17l-.31,0A.15.15,0,0,1,7,2.51a.23.23,0,0,0-.29-.18c-.13,0-.2,0-.25-.15a2.56,2.56,0,0,0-.11-.24.16.16,0,0,1,.06-.2.15.15,0,0,1,.21.07v0Z"/><path class="cls-1" d="M7.23,1.82a2.25,2.25,0,0,1-.26,0s-.12,0-.14-.07a1.76,1.76,0,0,1-.17-.37.21.21,0,0,1,.09-.16.13.13,0,0,1,.18.07,2.6,2.6,0,0,1,.13.24,1.35,1.35,0,0,0,.18,0,.21.21,0,0,1,.23.12l0,.1.05.1.23,0c.09,0,.17.05.17.13a.14.14,0,0,1-.14.17l-.33,0A.18.18,0,0,1,7.32,2C7.3,2,7.26,1.89,7.23,1.82Z"/><path class="cls-1" d="M2.07,4.52a.33.33,0,0,1,0,.13V5.77c0,.1,0,.17-.13.17s-.16,0-.16-.15V4.9c0-.1,0-.2,0-.3a.25.25,0,0,1,.1-.15s.1,0,.15,0v0Z"/><path class="cls-1" d="M5.23,10.46a5.23,5.23,0,1,1,5.23-5.23A5.23,5.23,0,0,1,5.23,10.46ZM5.23.6A4.63,4.63,0,1,0,9.86,5.23,4.64,4.64,0,0,0,5.23.6Z"/><path class="cls-1" d="M5.23,6.61A1.43,1.43,0,1,1,6.66,5.18,1.43,1.43,0,0,1,5.23,6.61Zm0-2.55a1.13,1.13,0,0,0,0,2.25,1.13,1.13,0,1,0,0-2.25Z"/><path class="cls-1" d="M5.48,3.79H5a.14.14,0,0,1-.12-.06.15.15,0,0,1,0-.13l.27-1.12a.16.16,0,0,1,.29,0L5.63,3.6a.15.15,0,0,1,0,.13A.14.14,0,0,1,5.48,3.79Zm-.34-.3h.15l-.08-.32Z"/><path class="cls-1" d="M5.25,8h0a.15.15,0,0,1-.15-.11L4.83,6.76a.16.16,0,0,1,0-.13.17.17,0,0,1,.12,0h.53a.17.17,0,0,1,.12,0,.16.16,0,0,1,0,.13L5.39,7.88A.13.13,0,0,1,5.25,8ZM5.17,6.88l.08.32.07-.32Z"/><path class="cls-1" d="M6.78,5.58a.17.17,0,0,1-.1,0,.17.17,0,0,1,0-.12V4.9a.17.17,0,0,1,0-.12.16.16,0,0,1,.13,0L7.93,5A.15.15,0,0,1,8,5.17a.13.13,0,0,1-.11.14l-1.12.27Zm.15-.49v.15l.32-.07Z"/><path class="cls-1" d="M3.69,5.62h0L2.53,5.34a.14.14,0,0,1-.11-.14.16.16,0,0,1,.11-.15l1.12-.27a.15.15,0,0,1,.13,0,.14.14,0,0,1,.06.12v.54a.13.13,0,0,1-.06.11A.18.18,0,0,1,3.69,5.62ZM3.21,5.2l.33.07V5.12Z"/><path class="cls-1" d="M7.12,7.2a.13.13,0,0,1-.08,0l-1-.6A.12.12,0,0,1,6,6.47a.13.13,0,0,1,0-.12L6.42,6a.14.14,0,0,1,.23,0l.6,1a.15.15,0,0,1-.13.23Zm-.73-.78.28.18L6.5,6.31Z"/><path class="cls-1" d="M3.94,4.44h0a.16.16,0,0,1-.11-.07l-.6-1a.15.15,0,0,1,.21-.21l1,.6a.19.19,0,0,1,.07.11.17.17,0,0,1,0,.13L4,4.4A.15.15,0,0,1,3.94,4.44Zm-.15-.67L4,4.05l.11-.11Z"/><path class="cls-1" d="M3.36,7.23a.16.16,0,0,1-.11-.05.14.14,0,0,1,0-.18l.6-1A.15.15,0,0,1,3.94,6a.16.16,0,0,1,.13,0l.38.38a.14.14,0,0,1,0,.12.14.14,0,0,1-.07.11l-1,.6A.13.13,0,0,1,3.36,7.23ZM4,6.34l-.17.28.28-.17Z"/><path class="cls-1" d="M6.5,4.42a.16.16,0,0,1-.11,0L6,4a.15.15,0,0,1,0-.24l1-.6a.15.15,0,0,1,.21.21l-.6,1a.16.16,0,0,1-.11.07Zm-.14-.5L6.47,4l.18-.29Z"/><g class="cls-2"><path class="cls-1" d="M5.23,6.61A1.43,1.43,0,1,1,6.66,5.18,1.43,1.43,0,0,1,5.23,6.61Zm0-2.55a1.13,1.13,0,0,0,0,2.25,1.13,1.13,0,1,0,0-2.25Z"/><path class="cls-1" d="M5.48,3.79H5a.14.14,0,0,1-.12-.06.15.15,0,0,1,0-.13l.27-1.12a.16.16,0,0,1,.29,0L5.63,3.6a.15.15,0,0,1,0,.13A.14.14,0,0,1,5.48,3.79Zm-.34-.3h.15l-.08-.32Z"/><path class="cls-1" d="M5.25,8h0a.15.15,0,0,1-.15-.11L4.83,6.76a.16.16,0,0,1,0-.13.17.17,0,0,1,.12,0h.53a.17.17,0,0,1,.12,0,.16.16,0,0,1,0,.13L5.39,7.88A.13.13,0,0,1,5.25,8ZM5.17,6.88l.08.32.07-.32Z"/><path class="cls-1" d="M6.78,5.58a.17.17,0,0,1-.1,0,.17.17,0,0,1,0-.12V4.9a.17.17,0,0,1,0-.12.16.16,0,0,1,.13,0L7.93,5A.15.15,0,0,1,8,5.17a.13.13,0,0,1-.11.14l-1.12.27Zm.15-.49v.15l.32-.07Z"/><path class="cls-1" d="M3.69,5.62h0L2.53,5.34a.14.14,0,0,1-.11-.14.16.16,0,0,1,.11-.15l1.12-.27a.15.15,0,0,1,.13,0,.14.14,0,0,1,.06.12v.54a.13.13,0,0,1-.06.11A.18.18,0,0,1,3.69,5.62ZM3.21,5.2l.33.07V5.12Z"/><path class="cls-1" d="M7.12,7.2a.13.13,0,0,1-.08,0l-1-.6A.12.12,0,0,1,6,6.47a.13.13,0,0,1,0-.12L6.42,6a.14.14,0,0,1,.23,0l.6,1a.15.15,0,0,1-.13.23Zm-.73-.78.28.18L6.5,6.31Z"/><path class="cls-1" d="M3.94,4.44h0a.16.16,0,0,1-.11-.07l-.6-1a.15.15,0,0,1,.21-.21l1,.6a.19.19,0,0,1,.07.11.17.17,0,0,1,0,.13L4,4.4A.15.15,0,0,1,3.94,4.44Zm-.15-.67L4,4.05l.11-.11Z"/><path class="cls-1" d="M3.36,7.23a.16.16,0,0,1-.11-.05.14.14,0,0,1,0-.18l.6-1A.15.15,0,0,1,3.94,6a.16.16,0,0,1,.13,0l.38.38a.14.14,0,0,1,0,.12.14.14,0,0,1-.07.11l-1,.6A.13.13,0,0,1,3.36,7.23ZM4,6.34l-.17.28.28-.17Z"/><path class="cls-1" d="M6.5,4.42a.16.16,0,0,1-.11,0L6,4a.15.15,0,0,1,0-.24l1-.6a.15.15,0,0,1,.21.21l-.6,1a.16.16,0,0,1-.11.07Zm-.14-.5L6.47,4l.18-.29Z"/></g><path class="cls-1" d="M9.81,11.39H9.75a.79.79,0,0,1-.55-.27L7.8,9.5l.45-.4,1.41,1.62a.17.17,0,0,0,.13.07.16.16,0,0,0,.14,0,.17.17,0,0,0,.07-.13.19.19,0,0,0-.05-.14L8.55,8.85,9,8.45l1.41,1.63a.76.76,0,0,1,.19.58.81.81,0,0,1-.27.54A.78.78,0,0,1,9.81,11.39Z"/></g></g></svg>