<svg xmlns="http://www.w3.org/2000/svg" viewBox="0 0 11.01 9.88"><defs><style>.cls-1{opacity:0.9;}.cls-2{fill:#386280;}</style></defs><g id="Layer_2" data-name="Layer 2"><g id="バック"><g class="cls-1"><path class="cls-2" d="M4.5,5.19a.86.86,0,0,0,.37.49,2.42,2.42,0,0,0,.36.18H5.3a1.11,1.11,0,0,0,1.09-.35.89.89,0,0,0,.11-1,.53.53,0,0,1,0-.18l0,0,.33-.17v0l.38-.19,0,0c.15,0,.2,0,.2.13s0,.09-.08.1h0a.39.39,0,0,1-.1.08l-.45.22a1.35,1.35,0,0,1,.09.29c0,.06,0,.08.09.08h.68a.17.17,0,0,1,0,.2c0,.07-.12.08-.2.08s-.39,0-.59,0l-.11.36.39.2.16.09a.14.14,0,0,1,.07.19.17.17,0,0,1-.22,0l-.48-.25a.12.12,0,0,0-.16,0c0,.06-.12.1-.17.16A.1.1,0,0,0,6.4,6l.28.44a.22.22,0,0,1,0,.18c-.07.08-.16.1-.25,0s-.19-.28-.28-.42-.07-.07-.14,0l-.22.05c-.07,0-.08,0-.08.09v.51a.16.16,0,0,1-.13.15c-.08,0-.16,0-.19-.09V6.18L5,6.08l0,0-.18.3-.06.07a.61.61,0,0,1-.07.1c-.07.11-.07.12-.2.07s-.11-.1-.06-.19l.18-.32L4.7,6l0,0,0,0-.25-.22,0,0,0,0-.08,0s-.11,0-.09,0l-.1,0h0l-.2.12L3.83,6c-.09,0-.15,0-.19,0a.12.12,0,0,1,0-.19l.52-.28s0,0,0-.09a1,1,0,0,1-.06-.23c0-.06,0-.07-.1-.07a5,5,0,0,1-.55,0,.21.21,0,0,1-.14,0,.15.15,0,0,1,0-.12c0-.06.06-.12.16-.12h.58a.08.08,0,0,0,.09-.07.79.79,0,0,1,.06-.22c0-.06,0-.08,0-.1l-.42-.2-.15-.09c-.07-.06,0-.12,0-.16s.09-.05.14-.06.06,0,.09,0h0L4,4V4l.25.14,0,0c.06,0,.11.06.16,0a1.56,1.56,0,0,1,.22-.23l-.13-.2h0a2.79,2.79,0,0,1-.19-.33c0-.1,0-.13.11-.15s.13,0,.16.06l.07.12,0,.05.12.21,0,0L5,3.78l.28-.07c.09,0,.13,0,.13-.12s0-.32,0-.48S5.44,3,5.55,3a.14.14,0,0,1,.15.15v.49c0,.07,0,.09.1.1l.29.07c.07-.15.24-.26.25-.44l0,0,.06-.12c0-.06.09-.06.15,0a.23.23,0,0,1,.11.08s0,.07,0,.11l0,.07-.15.19v0l0,.06-.06.08L6.3,4a.16.16,0,0,1-.22.08A1.44,1.44,0,0,0,5.47,4a1,1,0,0,0-.84.44c0,.08-.08.16-.13.23v0a.9.9,0,0,0,0,.23,2,2,0,0,0,0,.24Z"/><path class="cls-2" d="M1.77,3.21l0,0c-.08.12-.06.15.07.21l.52.28a.15.15,0,0,1,.06.18A.16.16,0,0,1,2.17,4l-.77-.4a.12.12,0,0,1-.07-.15,1.58,1.58,0,0,1,.16-.35c.12-.21.33-.21.58-.12l.23.11.21.11c.09,0,.09-.1,0-.16l-.37-.39L2,2.5a.14.14,0,0,1,0-.2.15.15,0,0,1,.2,0c.19.2.38.39.55.6a.34.34,0,0,1,0,.48.45.45,0,0,1-.49,0c-.15-.08-.3-.14-.46-.21Z"/><path class="cls-2" d="M1.75,6.57c-.13,0-.24,0-.35,0s-.16-.11-.09-.21a.1.1,0,0,1,.08,0h.4a.13.13,0,0,0,.15-.08,1.56,1.56,0,0,1,.16-.28.18.18,0,0,1,.22-.08.15.15,0,0,1,.05.2,2,2,0,0,1-.13.25l.32,0c.08,0,.13,0,.14.11s0,.15-.12.15h-.5a.41.41,0,0,0,0,.45c.06.1.09.11.2.06s.34-.19.52-.27a.31.31,0,0,1,.19,0C3,6.86,3,6.93,3,7A.18.18,0,0,1,3,7.07l-.72.37a.19.19,0,0,1-.26,0A.86.86,0,0,1,1.67,7a.76.76,0,0,1,.06-.37Z"/><path class="cls-2" d="M9,3.64a1.1,1.1,0,0,0-.14.18c0,.09-.13.15-.19.12s-.16-.12-.1-.21a3.21,3.21,0,0,1,.27-.41l-.09-.17-.47,0a.23.23,0,0,1-.21-.1C8,3,8.05,3,8.09,2.94a.21.21,0,0,1,.14,0,.67.67,0,0,0,.2,0c.09,0,.06-.1,0-.16s0-.12,0-.15a.33.33,0,0,1,.17,0s.06,0,.09.07a1,1,0,0,1,.08.11.75.75,0,0,0,.21-.35,1,1,0,0,1,.17,0,.13.13,0,0,1,.09.16A1,1,0,0,1,9,3l0,.07c.1.14.09.13.26.12a1.21,1.21,0,0,1,.38,0c.11,0,.14.07.12.17a.19.19,0,0,1-.19.09H9.3a.85.85,0,0,1,.08.22c0,.06,0,.11-.09.12s-.14,0-.18,0A1,1,0,0,1,9,3.62l0,0Z"/><path class="cls-2" d="M9.32,6.47a.64.64,0,0,1,.41,0c.1,0,.14.11.1.19a.16.16,0,0,1-.22.07.23.23,0,0,0-.33.07A.3.3,0,0,0,9.22,7a.37.37,0,0,0,.13.15c.07.06.1.17.06.22a.21.21,0,0,1-.25,0,.7.7,0,0,1-.25-.29c-.1,0-.21,0-.31,0a.56.56,0,0,1-.36-.26.43.43,0,0,1,0-.41c0-.15.17-.23.32-.31a.55.55,0,0,1,.47,0,.47.47,0,0,1,.31.32ZM9,6.6c0-.16-.1-.24-.27-.24a.24.24,0,0,0-.25.24.25.25,0,0,0,.26.23A.26.26,0,0,0,9,6.6Z"/><path class="cls-2" d="M8.14,8a.19.19,0,0,1,.2.09.12.12,0,0,1-.07.17.85.85,0,0,1-.22,0,1,1,0,0,0-.62.36.25.25,0,0,1-.14.08s-.13,0-.14,0a.18.18,0,0,1,0-.16c.06-.07,0-.11,0-.18A1.82,1.82,0,0,1,7,8.08.17.17,0,0,0,6.81,8a.2.2,0,0,1-.15-.08.14.14,0,0,1,0-.15.4.4,0,0,1,.19-.07,1,1,0,0,0,.72-.39.14.14,0,0,1,.21,0,.12.12,0,0,1,0,.19c-.07.08,0,.14,0,.21A1.67,1.67,0,0,1,8,7.88C8,8,8.08,8,8.14,8ZM7.75,8l-.2-.31-.31.16c.06.09.11.19.18.28H7.5Z"/><path class="cls-2" d="M6.27,1.89a.41.41,0,0,1-.51.2A.36.36,0,0,1,5.6,2c0-.06,0-.12.05-.15s.1,0,.15,0,.15,0,.16,0a.25.25,0,0,0,0-.17,1.33,1.33,0,0,0-.1-.28.06.06,0,0,0-.06-.05.75.75,0,0,0-.15,0l-.08.05c-.07.12-.13.25-.21.37a.32.32,0,0,1-.14.12.14.14,0,0,1-.16-.08l-.32-.55A.12.12,0,0,1,4.84,1a.17.17,0,0,1,.21.06c.06.09.11.19.17.3.06-.1.11-.18.15-.26A.23.23,0,0,1,5.59,1h.08A.31.31,0,0,0,6,.87a.16.16,0,0,1,.23,0,.12.12,0,0,1,0,.2.24.24,0,0,0,0,.32.88.88,0,0,1,.1.27.41.41,0,0,1,0,.19s0,0,0,.06Z"/><path class="cls-2" d="M3.53,8.67a.58.58,0,0,1-.6-.56.54.54,0,0,1,.32-.43c.1-.06.21-.11.31-.18s.06-.09,0-.12l-.08,0a.13.13,0,0,1-.08-.16.14.14,0,0,1,.15-.1.4.4,0,0,1,.36.22c.08.18,0,.34-.21.46L3.32,8a.15.15,0,0,0-.06.22.32.32,0,0,0,.27.17.23.23,0,0,0,.23-.12c0-.09.07-.18.1-.26a.15.15,0,0,1,.22-.09.86.86,0,0,1,.16.1.11.11,0,0,1-.06.2c-.07,0-.08,0-.09.08A.59.59,0,0,1,3.53,8.67Z"/><path class="cls-2" d="M3.83,1.6l-.09.29c.15.1.17.24,0,.27s-.14.15-.18.24a1.86,1.86,0,0,1-.1.25.11.11,0,0,1-.09.05.15.15,0,0,1-.17-.2,1.69,1.69,0,0,1,.08-.24c0-.09.06-.16-.05-.22a.16.16,0,0,1,0-.12c0-.08.1-.11.2-.11l.08-.28-.08,0a.15.15,0,0,1-.2-.06.11.11,0,0,1,0-.17,3.48,3.48,0,0,1,.43-.22.21.21,0,0,1,.18,0,3,3,0,0,1,.26.42s.07.11,0,.15a.22.22,0,0,1-.25,0Z"/><path class="cls-2" d="M10.07,4.52c0,.08,0,.16,0,.24h0l0,0L10,4.93a.35.35,0,0,1,.1.37.54.54,0,0,1-.21.25.23.23,0,0,1-.24.08c-.11,0-.15-.06-.15-.16s0-.12.15-.12a.18.18,0,0,0,.16-.15.17.17,0,0,0-.18-.13H9c-.11,0-.17-.07-.14-.16a.15.15,0,0,1,.16-.11h.53a.27.27,0,0,0,.15,0,.11.11,0,0,0,0-.12.19.19,0,0,0-.12-.09c-.11,0-.18-.08-.17-.17s.06-.13.19-.11a.45.45,0,0,1,.39.26Z"/><path class="cls-2" d="M1.29,4.87c0,.15,0,.17.19.21a.18.18,0,0,1,.11.13,1.22,1.22,0,0,1,0,.27c0,.09-.08.14-.19.13s-.12-.06-.12-.13V5.33A.43.43,0,0,1,1,4.88a.33.33,0,0,1,.21-.29c.1,0,.1-.13.1-.21a.14.14,0,0,1,.08-.12.25.25,0,0,1,.17,0,.16.16,0,0,1,.06.13,2.45,2.45,0,0,1,0,.27c0,.08-.08.11-.15.13a.31.31,0,0,0-.12,0Z"/><path class="cls-2" d="M5.47,9.1A1,1,0,0,1,5,9c-.08-.06-.1-.13,0-.19a.16.16,0,0,1,.21,0,.8.8,0,0,0,.59,0,.31.31,0,0,0,.13-.06s.05-.06,0-.09a.16.16,0,0,0-.08-.05c-.12,0-.18-.08-.16-.16s.08-.11.22-.11a.35.35,0,0,1,.32.24A.34.34,0,0,1,6,9,1,1,0,0,1,5.47,9.1Z"/><path class="cls-2" d="M5.57,7.8a1,1,0,0,1,.53.1.15.15,0,0,1,.06.18.16.16,0,0,1-.2.07l0,0a.42.42,0,0,0-.29-.06c-.11,0-.23,0-.34,0s-.11.05-.1.12,0,0,.06,0,.19.1.17.18a.22.22,0,0,1-.27.1.35.35,0,0,1-.28-.34.38.38,0,0,1,.25-.35A.86.86,0,0,1,5.57,7.8Z"/><path class="cls-2" d="M7.12,1.93l.19,0c.09,0,.2,0,.23.1a1.18,1.18,0,0,0,.11.19h.24c.11,0,.18,0,.19.12s-.05.14-.17.15l-.32,0a.17.17,0,0,1-.2-.11c0-.14-.14-.19-.3-.17a.22.22,0,0,1-.26-.14,2.4,2.4,0,0,0-.11-.23.13.13,0,0,1,.06-.19A.19.19,0,0,1,7,1.71v0Z"/><path class="cls-2" d="M7.61,1.72a2.62,2.62,0,0,1-.28,0s-.12,0-.14-.07A1.66,1.66,0,0,1,7,1.3a.16.16,0,0,1,.09-.14c.08,0,.15,0,.2.06a2.42,2.42,0,0,1,.12.23l.2,0a.22.22,0,0,1,.24.11l0,.1,0,.09.25,0c.1,0,.17.05.18.12S8.34,2,8.24,2L7.89,2a.17.17,0,0,1-.18-.1Z"/><path class="cls-2" d="M2.18,4.27a.28.28,0,0,1,0,.12V5.45c0,.1-.05.16-.14.16s-.17,0-.17-.14V4.63a1.29,1.29,0,0,1,0-.28A.19.19,0,0,1,2,4.21s.1,0,.16,0v0Z"/><path class="cls-2" d="M5.5,9.88A5.25,5.25,0,0,1,0,4.94,5.25,5.25,0,0,1,5.5,0,5.26,5.26,0,0,1,11,4.94,5.25,5.25,0,0,1,5.5,9.88ZM5.5.57A4.65,4.65,0,0,0,.63,4.94,4.65,4.65,0,0,0,5.5,9.31a4.64,4.64,0,0,0,4.87-4.37A4.64,4.64,0,0,0,5.5.57Z"/></g></g></g></svg>