<svg xmlns="http://www.w3.org/2000/svg" xmlns:xlink="http://www.w3.org/1999/xlink" viewBox="0 0 75.39 70.84"><defs><style>.cls-1{fill:#386280;}.cls-2{fill:url(#新規グラデーションスウォッチ_1);}.cls-3{fill:url(#新規グラデーションスウォッチ_1-2);}</style><linearGradient id="新規グラデーションスウォッチ_1" x1="29.61" y1="87.84" x2="29.61" y2="32.7" gradientUnits="userSpaceOnUse"><stop offset="0" stop-color="#c9ddf1"/><stop offset="0.06" stop-color="#c2daf0" stop-opacity="0.97"/><stop offset="0.15" stop-color="#aed2ec" stop-opacity="0.89"/><stop offset="0.26" stop-color="#8dc5e7" stop-opacity="0.75"/><stop offset="0.38" stop-color="#5fb3df" stop-opacity="0.57"/><stop offset="0.52" stop-color="#269cd5" stop-opacity="0.33"/><stop offset="0.54" stop-color="#1e99d4" stop-opacity="0.3"/><stop offset="0.76" stop-color="#0075bb"/><stop offset="0.96" stop-color="#005b94"/></linearGradient><linearGradient id="新規グラデーションスウォッチ_1-2" x1="67.37" y1="37.84" x2="67.37" y2="4.83" xlink:href="#新規グラデーションスウォッチ_1"/></defs><g id="Layer_2" data-name="Layer 2"><g id="デザイン"><path class="cls-1" d="M59.23,38.68a.68.68,0,0,0-.63-.62l-12.87-1,10.84-7A.67.67,0,0,0,56,28.81L43.54,32l8-10.15a.68.68,0,0,0-.91-1L39.83,28l4.24-12.19a.67.67,0,0,0-1.17-.64L35,25.4l.06-12.91a.68.68,0,0,0-1.32-.22L29.61,24.5,25.48,12.27a.7.7,0,0,0-.76-.45.69.69,0,0,0-.56.67l.05,12.91L16.33,15.18a.68.68,0,0,0-.86-.18.69.69,0,0,0-.32.82L19.4,28,8.62,20.9a.67.67,0,0,0-.87.11.67.67,0,0,0,0,.87l8,10.15L3.19,28.81a.69.69,0,0,0-.79.38.68.68,0,0,0,.26.84l10.83,7-12.87,1a.68.68,0,0,0-.11,1.33L13,42.5,1.2,47.64a.67.67,0,0,0,.32,1.29l12.87-1.12-9.54,8.7a.68.68,0,0,0,.73,1.12l11.8-5.24L11.19,63.72a.67.67,0,0,0,1.05.82l9.46-8.78L19.52,68.48a.67.67,0,0,0,1.26.43l6.1-11.38L29,70.27a.67.67,0,0,0,1.33,0l2.07-12.74,6.1,11.38a.66.66,0,0,0,.81.32.67.67,0,0,0,.45-.75L37.53,55.76,47,64.54a.67.67,0,0,0,1-.82L41.85,52.39l11.8,5.24a.68.68,0,0,0,.73-1.12l-9.54-8.7L57.7,48.93A.67.67,0,0,0,58,47.64L46.19,42.5l12.52-3.11A.68.68,0,0,0,59.23,38.68Zm-15.31,3a.67.67,0,0,0-.51.6.68.68,0,0,0,.4.68l9.86,4.27L43,46.29a.68.68,0,0,0-.52,1.17l7.94,7.24-9.82-4.36a.68.68,0,0,0-.87.95l5.15,9.42L37,53.4a.7.7,0,0,0-.78-.1.69.69,0,0,0-.34.71L37.67,64.6,32.6,55.13a.67.67,0,0,0-.71-.35.68.68,0,0,0-.55.56l-1.73,10.6-1.72-10.6a.68.68,0,0,0-.55-.56h-.12a.68.68,0,0,0-.59.36L21.56,64.6,23.37,54A.69.69,0,0,0,23,53.3a.72.72,0,0,0-.79.1l-7.87,7.31,5.16-9.42a.68.68,0,0,0-.1-.79.69.69,0,0,0-.77-.16L8.84,54.7l7.93-7.24a.67.67,0,0,0,.17-.77.67.67,0,0,0-.68-.4l-10.7.93L15.41,43a.69.69,0,0,0,.41-.68.67.67,0,0,0-.51-.6L4.88,39.08l10.71-.84a.69.69,0,0,0,.61-.51.68.68,0,0,0-.29-.73l-9-5.84,10.4,2.68a.67.67,0,0,0,.74-.28.69.69,0,0,0,0-.79l-6.63-8.45,9,5.92a.68.68,0,0,0,.79,0,.69.69,0,0,0,.23-.76L17.8,19.31l6.56,8.5a.68.68,0,0,0,1.22-.41l0-10.75L29,26.83a.69.69,0,0,0,.64.46.68.68,0,0,0,.64-.46L33.7,16.65,33.65,27.4a.67.67,0,0,0,1.21.41l6.56-8.5L37.89,29.45a.69.69,0,0,0,.23.76.66.66,0,0,0,.78,0l9-5.92-6.63,8.45a.67.67,0,0,0,.7,1.07l10.4-2.68-9,5.84a.67.67,0,0,0,.31,1.24l10.71.84Z"/><path class="cls-1" d="M62.7,19.47a11.39,11.39,0,0,0,3.62,2.44,11.37,11.37,0,0,0,8.52.14.84.84,0,0,0,.55-.79.87.87,0,0,0-.55-.8,9.71,9.71,0,0,1,0-18.12.84.84,0,0,0,.55-.79.87.87,0,0,0-.55-.8A11.4,11.4,0,0,0,62.7,3.34a11.28,11.28,0,0,0-3.34,8.06,11.32,11.32,0,0,0,3.34,8.07ZM70.76,1.7a10.85,10.85,0,0,1,1.4.1A11.41,11.41,0,0,0,69,17.94,11.2,11.2,0,0,0,72.16,21a9.32,9.32,0,0,1-1.4.1,9.7,9.7,0,0,1,0-19.4Z"/><path class="cls-2" d="M59.23,38.68a.68.68,0,0,0-.63-.62l-12.87-1,10.84-7A.67.67,0,0,0,56,28.81L43.54,32l8-10.15a.68.68,0,0,0-.91-1L39.83,28l4.24-12.19a.67.67,0,0,0-1.17-.64L35,25.4l.06-12.91a.68.68,0,0,0-1.32-.22L29.61,24.5,25.48,12.27a.7.7,0,0,0-.76-.45.69.69,0,0,0-.56.67l.05,12.91L16.33,15.18a.68.68,0,0,0-.86-.18.69.69,0,0,0-.32.82L19.4,28,8.62,20.9a.67.67,0,0,0-.87.11.67.67,0,0,0,0,.87l8,10.15L3.19,28.81a.69.69,0,0,0-.79.38.68.68,0,0,0,.26.84l10.83,7-12.87,1a.68.68,0,0,0-.11,1.33L13,42.5,1.2,47.64a.67.67,0,0,0,.32,1.29l12.87-1.12-9.54,8.7a.68.68,0,0,0,.73,1.12l11.8-5.24L11.19,63.72a.67.67,0,0,0,1.05.82l9.46-8.78L19.52,68.48a.67.67,0,0,0,1.26.43l6.1-11.38L29,70.27a.67.67,0,0,0,1.33,0l2.07-12.74,6.1,11.38a.66.66,0,0,0,.81.32.67.67,0,0,0,.45-.75L37.53,55.76,47,64.54a.67.67,0,0,0,1-.82L41.85,52.39l11.8,5.24a.68.68,0,0,0,.73-1.12l-9.54-8.7L57.7,48.93A.67.67,0,0,0,58,47.64L46.19,42.5l12.52-3.11A.68.68,0,0,0,59.23,38.68Zm-15.31,3a.67.67,0,0,0-.51.6.68.68,0,0,0,.4.68l9.86,4.27L43,46.29a.68.68,0,0,0-.52,1.17l7.94,7.24-9.82-4.36a.68.68,0,0,0-.87.95l5.15,9.42L37,53.4a.7.7,0,0,0-.78-.1.69.69,0,0,0-.34.71L37.67,64.6,32.6,55.13a.67.67,0,0,0-.71-.35.68.68,0,0,0-.55.56l-1.73,10.6-1.72-10.6a.68.68,0,0,0-.55-.56h-.12a.68.68,0,0,0-.59.36L21.56,64.6,23.37,54A.69.69,0,0,0,23,53.3a.72.72,0,0,0-.79.1l-7.87,7.31,5.16-9.42a.68.68,0,0,0-.1-.79.69.69,0,0,0-.77-.16L8.84,54.7l7.93-7.24a.67.67,0,0,0,.17-.77.67.67,0,0,0-.68-.4l-10.7.93L15.41,43a.69.69,0,0,0,.41-.68.67.67,0,0,0-.51-.6L4.88,39.08l10.71-.84a.69.69,0,0,0,.61-.51.68.68,0,0,0-.29-.73l-9-5.84,10.4,2.68a.67.67,0,0,0,.74-.28.69.69,0,0,0,0-.79l-6.63-8.45,9,5.92a.68.68,0,0,0,.79,0,.69.69,0,0,0,.23-.76L17.8,19.31l6.56,8.5a.68.68,0,0,0,1.22-.41l0-10.75L29,26.83a.69.69,0,0,0,.64.46.68.68,0,0,0,.64-.46L33.7,16.65,33.65,27.4a.67.67,0,0,0,1.21.41l6.56-8.5L37.89,29.45a.69.69,0,0,0,.23.76.66.66,0,0,0,.78,0l9-5.92-6.63,8.45a.67.67,0,0,0,.7,1.07l10.4-2.68-9,5.84a.67.67,0,0,0,.31,1.24l10.71.84Z"/><path class="cls-3" d="M62.7,19.47a11.39,11.39,0,0,0,3.62,2.44,11.37,11.37,0,0,0,8.52.14.84.84,0,0,0,.55-.79.87.87,0,0,0-.55-.8,9.71,9.71,0,0,1,0-18.12.84.84,0,0,0,.55-.79.87.87,0,0,0-.55-.8A11.4,11.4,0,0,0,62.7,3.34a11.28,11.28,0,0,0-3.34,8.06,11.32,11.32,0,0,0,3.34,8.07ZM70.76,1.7a10.85,10.85,0,0,1,1.4.1A11.41,11.41,0,0,0,69,17.94,11.2,11.2,0,0,0,72.16,21a9.32,9.32,0,0,1-1.4.1,9.7,9.7,0,0,1,0-19.4Z"/></g></g></svg>