<svg xmlns="http://www.w3.org/2000/svg" viewBox="0 0 10.98 11.72"><defs><style>.cls-1{fill:#386280;}</style></defs><g id="Layer_2" data-name="Layer 2"><g id="デザイン"><path class="cls-1" d="M10.15,11.72a.8.8,0,0,1-.62-.28L8.07,9.76l.48-.41L10,11a.19.19,0,0,0,.28,0,.19.19,0,0,0,0-.28L8.85,9.09l.47-.41,1.46,1.68a.82.82,0,0,1-.09,1.16A.79.79,0,0,1,10.15,11.72Z"/><path class="cls-1" d="M5.42,10.83a5.42,5.42,0,1,1,5.41-5.41A5.42,5.42,0,0,1,5.42,10.83ZM5.42.62a4.8,4.8,0,1,0,4.79,4.8A4.8,4.8,0,0,0,5.42.62Z"/><path class="cls-1" d="M8.66,7.84h-.1s0,0,0,0h0l0-.06h0c.42,0,.86-.07.88-.07a.19.19,0,0,0,.14-.09.2.2,0,0,0,0-.17A3.84,3.84,0,0,1,9.43,6.3a3.16,3.16,0,0,0-.19-1.14,1.42,1.42,0,0,0-1.4-1,.93.93,0,0,0-.51.13l-.16,0C6.38,4.3,6,5.49,6,6.31c0,.08,0,.17,0,.26l-.23-.06-.17-.06c-.16-.08-.24-.36-.27-.54a1.78,1.78,0,0,0,.58-1,.73.73,0,0,0,.4-.72.86.86,0,0,0-.07-.33,2.84,2.84,0,0,0,.07-.69c0-.79-.34-1.74-1.95-1.74A1.34,1.34,0,0,0,3.12,2a1.41,1.41,0,0,0-.77,1.33,2,2,0,0,0,.07.59.7.7,0,0,0-.07.33.71.71,0,0,0,.4.72,1.73,1.73,0,0,0,.55.94c0,.18-.1.48-.26.56l-.18.06A2.6,2.6,0,0,0,1,8.11a5,5,0,0,0,.33.47A2,2,0,0,1,3,6.92l.15,0s0,0,0,.06a1.61,1.61,0,0,0,1.14.47h0a1.56,1.56,0,0,0,1.13-.48s0,0,0,0l.15,0,.3.09a2.35,2.35,0,0,1-.09.4.2.2,0,0,0,0,.17A.23.23,0,0,0,6,7.67a7.61,7.61,0,0,0,.91.07h0l0,.06h0s0,0,0,0h0A1.57,1.57,0,0,0,5.33,9.26c0,.31-.09.93-.11,1.35h.4c0-.41.06-1,.1-1.29A1.19,1.19,0,0,1,6.8,8.23s0,0,.08,0a1.08,1.08,0,0,0,.4.28.93.93,0,0,0,.4.09h0a1.09,1.09,0,0,0,.77-.37s0,0,.08,0a1,1,0,0,1,.85.5l.15-.2.1-.13A1.43,1.43,0,0,0,8.66,7.84ZM3.34,2.35a.25.25,0,0,0,.1-.08A.9.9,0,0,1,4.3,1.9c1,0,1.52.42,1.52,1.31,0,.12,0,.24,0,.36a1.39,1.39,0,0,1-.08-.23c-.09-.28-.22-.71-.73-.71a1.46,1.46,0,0,0-.49.08.68.68,0,0,1-.4,0,1.46,1.46,0,0,0-.49-.08c-.51,0-.64.43-.73.71a1.27,1.27,0,0,1-.09.25,2.35,2.35,0,0,1,0-.28A1,1,0,0,1,3.34,2.35Zm-.2,2.39A.2.2,0,0,0,3,4.57s-.18-.05-.18-.34a.44.44,0,0,1,0-.15c.32-.06.42-.39.49-.62s.15-.4.32-.4A1.24,1.24,0,0,1,4,3.12a1,1,0,0,0,.32,0,1,1,0,0,0,.32,0A1.24,1.24,0,0,1,5,3.06c.17,0,.22.09.32.4s.16.56.49.62a.49.49,0,0,1,0,.15c0,.29-.14.33-.17.34a.22.22,0,0,0-.2.17,1.26,1.26,0,0,1-.57.92l-.11.08a.68.68,0,0,1-.47.12.68.68,0,0,1-.47-.12l-.12-.08A1.29,1.29,0,0,1,3.14,4.74ZM4.29,7h0a1.13,1.13,0,0,1-.82-.34,1.34,1.34,0,0,0,.22-.47,1.13,1.13,0,0,0,.61.13,1.21,1.21,0,0,0,.59-.12,1.15,1.15,0,0,0,.22.46A1.15,1.15,0,0,1,4.29,7Zm2,.33a.51.51,0,0,0,0-.13,4,4,0,0,0,.06-.45.19.19,0,0,0,0-.08.48.48,0,0,0,.16.13l0,.05a1.4,1.4,0,0,0,.35.53l-.34,0Zm1-2.59h0a.19.19,0,0,0,.13,0l0,0,.06,0s.07-.07.3-.07a1,1,0,0,1,1,.72A2.08,2.08,0,0,1,9,5.83l-.06,0a1.55,1.55,0,0,1-.72-.22l-.05,0A4,4,0,0,1,7.44,5,.2.2,0,0,0,7.26,5a.21.21,0,0,0-.14.12,1.49,1.49,0,0,1-.66.73l-.06,0c.11-.59.42-1.14.77-1.14ZM6.85,6.56a.2.2,0,0,0-.18-.15s-.1,0-.1-.17a.2.2,0,0,1,0,0,1.77,1.77,0,0,0,.78-.71A4.73,4.73,0,0,0,8,5.91l0,0a1.94,1.94,0,0,0,.78.26.07.07,0,0,1,0,0c0,.13-.06.16-.1.17a.19.19,0,0,0-.17.15.85.85,0,0,1-1.68,0Zm1.65.79a1.28,1.28,0,0,0,.38-.58A.48.48,0,0,0,9,6.64a4.32,4.32,0,0,0,.09.66Zm-.82.83h0A.7.7,0,0,1,7.19,8a.68.68,0,0,0,.11-.35h.09a1,1,0,0,0,.3,0,1.15,1.15,0,0,0,.37-.06A1,1,0,0,0,8.17,8,.69.69,0,0,1,7.68,8.18Z"/></g></g></svg>