<svg xmlns="http://www.w3.org/2000/svg" viewBox="0 0 44 8.72"><defs><style>.cls-1{fill:#fff;}</style></defs><g id="Layer_2" data-name="Layer 2"><g id="バック"><path class="cls-1" d="M25.73,7.22H24.16s0-.06.06-.08a.88.88,0,0,0,.31-.69V2.18c0-.16,0-.16-.15-.16a2.39,2.39,0,0,0-2.26,1.39,3.48,3.48,0,0,0-.23,2.87,3.19,3.19,0,0,0,2,2,3.54,3.54,0,0,0,1.44.26A4.25,4.25,0,0,0,27.19,8a5.16,5.16,0,0,0,.63-.4.12.12,0,0,1,.15,0c.08.07.09.09,0,.15a4.54,4.54,0,0,1-2.89,1,4.46,4.46,0,0,1-3-1.18,3,3,0,0,1-.95-1.93,3.82,3.82,0,0,1,.51-2.43,2.65,2.65,0,0,1,1.85-1.28,4.49,4.49,0,0,1,1-.08s.07,0,.07,0c0-.36,0-.71,0-1.07a.9.9,0,0,0-.31-.56s-.06,0,0-.06,0,0,.07,0c.68,0,1.35,0,2,0a1.28,1.28,0,0,1,.44.09.81.81,0,0,1,.49,1.17,2.13,2.13,0,0,1-.89.94,3.93,3.93,0,0,1-.5.26,2.31,2.31,0,0,0,.46,0l.35-.08s.08,0,.06,0a3.39,3.39,0,0,0,.07,1.1,8.75,8.75,0,0,0,1.11,3.05,5.3,5.3,0,0,0,.39.54c.05.07.09.06.14,0a5.58,5.58,0,0,0,.53-.56s.07-.1.14,0,.09.09,0,.16a6.06,6.06,0,0,1-.55.58c-.08.07-.07.11,0,.17a2.36,2.36,0,0,0,1.71.68c.05,0,.14,0,.14.05s-.08.06-.13.06a2.59,2.59,0,0,1-1.59-.34,4.85,4.85,0,0,1-1.77-1.77,10.35,10.35,0,0,1-1.18-2.81.94.94,0,0,0-.26-.44s0,0,0,.08v.3c0,1.07,0,2.14,0,3.21a.8.8,0,0,0,.29.71A.11.11,0,0,1,25.73,7.22Zm-.31-5.9h0v.94c0,.08,0,.11.11.08A1.3,1.3,0,0,0,26.43,1,.66.66,0,0,0,26,.36a2.15,2.15,0,0,0-.44-.09c-.09,0-.12,0-.12.11C25.43.69,25.42,1,25.42,1.32Zm16.19,0a.18.18,0,0,0,0,.12V5.38A1,1,0,0,0,42,6.2s.05,0,0,0,0,0-.07,0h-.73c-.05,0-.1,0-.05.07A3.08,3.08,0,0,0,42.33,7.5a1.87,1.87,0,0,0,.93.21h.12s.06,0,.07,0,0,0-.06.06l-.36,0a2.69,2.69,0,0,1-1.4-.47,4.91,4.91,0,0,1-1.48-1.66,10,10,0,0,1-1-2.43A.6.6,0,0,0,39.05,3s0,.05,0,.08V5.53a.83.83,0,0,0,.28.68s0,0,0,0,0,0,0,0H37.81l0,0s.06-.07.09-.1a.81.81,0,0,0,.28-.64V1.31a1,1,0,0,0-.32-.74s-.06,0,0-.06,0,0,.07,0c.6,0,1.2,0,1.8,0a.71.71,0,0,1,.7.49.81.81,0,0,1,0,.63,1.83,1.83,0,0,1-1,.93l-.08,0a3,3,0,0,0,.67-.1c.07,0,.12,0,.1.06a3,3,0,0,0,.06.9,8.53,8.53,0,0,0,.74,2.36,2,2,0,0,0,.13.25c0,.1.07.1.14,0a.91.91,0,0,0,.25-.64c0-1.48,0-3,0-4.44a.26.26,0,0,0-.07-.17A1.83,1.83,0,0,0,41,.53c0-.05.07,0,.09,0H42a.15.15,0,0,1,.16.12c.35.92.71,1.84,1.07,2.76a1.24,1.24,0,0,0,.1.2V3.18c0-.6,0-1.19,0-1.79A1,1,0,0,0,43,.58s-.06,0-.05-.07S43,.5,43,.5h.91s.07,0,.08,0,0,0,0,.06a1,1,0,0,0-.39.85V6.09a.26.26,0,0,1,0,.16ZM39,1.55v.7c0,.06,0,.15,0,.18s.13,0,.18-.09a1.28,1.28,0,0,0,.41-1.17.58.58,0,0,0-.51-.5c-.09,0-.11,0-.11.1ZM.73,4.73a1.87,1.87,0,0,1,2.11-1.1,1.28,1.28,0,0,1,.88.67.1.1,0,0,0,.15,0c.07,0,0-.09,0-.12a1.62,1.62,0,0,0-.51-.53,2,2,0,0,0-1.49-.25A2.24,2.24,0,0,0,.2,4.75,2.59,2.59,0,0,0,0,6,2.34,2.34,0,0,0,.47,7.3a2.73,2.73,0,0,0,1.94,1,3.16,3.16,0,0,0,1.22-.13,2.62,2.62,0,0,0,1.52-1,2.88,2.88,0,0,0,.42-2,3.75,3.75,0,0,0-1-2.07A15.1,15.1,0,0,0,3.35,1.81a3.87,3.87,0,0,1-.53-.61A.81.81,0,0,1,2.66.7.49.49,0,0,1,3,.24a.43.43,0,0,1,.52.22,1.61,1.61,0,0,1,.19.5c0,.23.1.46.14.69A.09.09,0,0,0,4,1.73c.07,0,.07-.05.07-.1V1.42A3.92,3.92,0,0,1,4.2.1c0-.06,0-.07,0,0a1.26,1.26,0,0,1-.61,0A4.53,4.53,0,0,0,2.8,0a.93.93,0,0,0-.89.66,1.28,1.28,0,0,0,.22,1.15,5.47,5.47,0,0,0,.66.7A11,11,0,0,1,3.88,3.58a3.51,3.51,0,0,1,.79,2.88,2.05,2.05,0,0,1-.37,1,1.78,1.78,0,0,1-1.24.71,2,2,0,0,1-2-.72A2.38,2.38,0,0,1,.54,5.94,3,3,0,0,1,.73,4.73ZM17.22,2.6a3.4,3.4,0,0,0,.71-.12c.06,0,.09,0,.08.06a3.36,3.36,0,0,0,.06,1,8.49,8.49,0,0,0,.5,1.79,5.05,5.05,0,0,0,1.16,1.84,2,2,0,0,0,1.54.59h0s.09,0,.09,0,0,.06-.07.06l-.33,0a2.59,2.59,0,0,1-1.29-.39,4.65,4.65,0,0,1-1.52-1.6,10,10,0,0,1-1.05-2.56A.71.71,0,0,0,17,3a.21.21,0,0,0,0,.13V5.42a.88.88,0,0,0,.32.82s-.06,0-.09,0H15.83s-.08,0-.09,0,0,0,.06-.07a.84.84,0,0,0,.31-.68V1.31a.94.94,0,0,0-.33-.74s0,0,0-.06,0,0,.08,0c.6,0,1.21,0,1.81,0a.7.7,0,0,1,.73.66,1.05,1.05,0,0,1-.18.65A2,2,0,0,1,17.22,2.6Zm-.24-1v.69c0,.07,0,.16,0,.18s.13,0,.19-.08a1.31,1.31,0,0,0,.39-1.24.57.57,0,0,0-.5-.43c-.08,0-.1,0-.1.09ZM8.79,3.31A5.8,5.8,0,0,1,8.6,5a2.23,2.23,0,0,1-.38.81A1.05,1.05,0,0,1,6.4,5.74,3.34,3.34,0,0,1,6,4.45a6.19,6.19,0,0,1-.08-1,5.29,5.29,0,0,1,.36-2.19A1.77,1.77,0,0,1,6.56.82,1,1,0,0,1,8.18.88,2.61,2.61,0,0,1,8.66,2a2.89,2.89,0,0,1,.08.5A5.09,5.09,0,0,1,8.79,3.31Zm-.89.1a12.18,12.18,0,0,0-.09-1.92A1.68,1.68,0,0,0,7.62.83a.3.3,0,0,0-.56,0,1.54,1.54,0,0,0-.16.5A9.62,9.62,0,0,0,6.78,3c0,.42,0,.83,0,1.25A8.26,8.26,0,0,0,6.9,5.42,1.45,1.45,0,0,0,7.1,6a.28.28,0,0,0,.48,0,1,1,0,0,0,.11-.21A2.84,2.84,0,0,0,7.85,5,13.42,13.42,0,0,0,7.9,3.41ZM34.73,4.77a3.46,3.46,0,0,0,0,.46,1.08,1.08,0,0,0,.65,1,1.52,1.52,0,0,0,.92,0A1,1,0,0,0,37,5.62,1.92,1.92,0,0,0,37.12,5c0-1.18,0-2.36,0-3.54a1,1,0,0,1,.37-.83s.08,0,.06-.08-.07,0-.1,0h-.86s-.08,0-.1,0,0,.05.07.07a.88.88,0,0,1,.35.68q0,1.91,0,3.81a1,1,0,0,1-.13.51.56.56,0,0,1-.54.3.57.57,0,0,1-.53-.33A1.35,1.35,0,0,1,35.6,5V1.2a.73.73,0,0,1,.28-.64s0,0,0-.06,0,0-.06,0H34.49s-.06,0-.07,0,0,0,0,.05a.77.77,0,0,1,.27.65c0,.61,0,1.23,0,1.85Zm-22,1.48s-.06,0-.1,0h-.81s-.09,0-.1,0,0-.06.05-.08a1.67,1.67,0,0,0,.51-1c.16-.74.33-1.48.5-2.22.12-.56.25-1.13.38-1.69a1.15,1.15,0,0,0,0-.41c0-.08,0-.11.08-.12a.8.8,0,0,0,.6-.36s0-.06.06-.06,0,0,0,.07c.13.53.25,1,.37,1.58l.39,1.72c.13.58.27,1.15.4,1.73a1.29,1.29,0,0,0,.42.76s0,0,0,.06,0,0-.07,0H14s0,0-.06,0,0,0,0-.06a.67.67,0,0,0,.2-.68C14.08,5,14,4.47,13.85,4a2.69,2.69,0,0,0-.57-1.13c0-.05-.1-.13-.16-.12s0,.12-.07.18l-.42,1.86c-.05.22-.1.43-.14.64a.79.79,0,0,0,.24.81l0,0Zm.83-3.38-.26-1.13s0,0,0,0c-.06.22-.11.45-.16.67a0,0,0,0,0,0,.06A1.6,1.6,0,0,1,13.59,2.87Zm15.68-.12c0-.14,0-.14.14-.15a.48.48,0,0,1,.5.26s0,.06.06.05,0-.05,0-.08V2.21s0-.07,0-.08,0,0-.07.05a.48.48,0,0,1-.52.25c-.08,0-.11,0-.11-.1V.76c0-.09,0-.11.12-.1a.9.9,0,0,1,.47.25,2.67,2.67,0,0,1,.53.79.53.53,0,0,0,.06.1.18.18,0,0,0,.19,0s0-.06,0-.08A7.45,7.45,0,0,1,30.12.43s-.05-.07-.1,0a1.49,1.49,0,0,1-.59.09h-1.3s-.08,0-.1,0,0,.06,0,.08a.9.9,0,0,1,.32.71V5.46a.92.92,0,0,1-.31.71s-.08,0-.06.08.07,0,.1,0c.5,0,1,0,1.49,0a1.19,1.19,0,0,1,.53.1c.06,0,.08,0,.09,0l.17-.5A7.91,7.91,0,0,1,30.76,5c0-.08,0-.11-.07-.11s-.13,0-.17.11a2.56,2.56,0,0,1-.55.83.69.69,0,0,1-.56.22c-.14,0-.14,0-.14-.14V2.75Zm3.8-.21V.86c0-.14,0-.16.16-.13a.73.73,0,0,1,.33.16,2.43,2.43,0,0,1,.6.85.53.53,0,0,0,.06.1c.05.07.13,0,.2,0s0-.05,0-.08A7.67,7.67,0,0,1,33.9.49c0-.07,0-.07-.11,0a1.11,1.11,0,0,1-.3.08c-.54,0-1.07,0-1.6,0a.9.9,0,0,1-.4-.09c-.07,0-.1,0-.12.06-.08.26-.17.51-.27.76l-.24.53s-.06.07,0,.09a.17.17,0,0,0,.22-.1,3,3,0,0,1,.36-.62A1.09,1.09,0,0,1,32,.73c.14,0,.16,0,.16.13V5.59a.69.69,0,0,1-.26.6s-.05,0,0,.06.05,0,.07,0H33.3s.06,0,.07,0,0,0,0-.06a.72.72,0,0,1-.26-.6c0-.77,0-1.54,0-2.31ZM9.21,6.27c.49,0,1,0,1.48,0a1.11,1.11,0,0,1,.48.09c.08,0,.11,0,.13-.06a6.15,6.15,0,0,1,.31-.85l.2-.42c0-.07,0-.1-.06-.11a.15.15,0,0,0-.17.11,3,3,0,0,1-.41.66.85.85,0,0,1-.77.39c-.14,0-.14,0-.14-.15,0-1.58,0-3.15,0-4.73a.74.74,0,0,1,.28-.64s.05,0,0-.05,0,0-.06,0H9.15s-.06,0-.07,0,0,.05,0,.07a.71.71,0,0,1,.27.61c0,.77,0,1.54,0,2.31s0,1.42,0,2.13a.67.67,0,0,1-.29.59l0,0A.28.28,0,0,0,9.21,6.27Z"/></g></g></svg>