<?xml version="1.0" encoding="UTF-8"?>
<svg id="_レイヤー_2" data-name="レイヤー 2" xmlns="http://www.w3.org/2000/svg" xmlns:xlink="http://www.w3.org/1999/xlink" viewBox="0 0 100.23 100.23">
  <defs>
    <style>
      .cls-1 {
        fill: #39385d;
      }

      .cls-1, .cls-2 {
        stroke-width: 0px;
      }

      .cls-2 {
        fill: url(#_新規グラデーションスウォッチ_1);
        opacity: .5;
      }
    </style>
    <linearGradient id="_新規グラデーションスウォッチ_1" data-name="新規グラデーションスウォッチ 1" x1="-44.14" y1="165.73" x2="87.75" y2="4.03" gradientUnits="userSpaceOnUse">
      <stop offset="0" stop-color="#c9ddf1"/>
      <stop offset=".06" stop-color="#c1daef" stop-opacity=".97"/>
      <stop offset=".15" stop-color="#add2ec" stop-opacity=".89"/>
      <stop offset=".26" stop-color="#8cc5e6" stop-opacity=".75"/>
      <stop offset=".38" stop-color="#5fb2df" stop-opacity=".57"/>
      <stop offset=".52" stop-color="#259cd5" stop-opacity=".33"/>
      <stop offset=".54" stop-color="#1e99d4" stop-opacity=".3"/>
      <stop offset=".76" stop-color="#0075bb"/>
      <stop offset=".96" stop-color="#005b94"/>
    </linearGradient>
  </defs>
  <g id="design">
    <g>
      <g>
        <path class="cls-1" d="m17.75,50.12c0-.49-.4-.89-.89-.89H.89c-.49,0-.89.4-.89.89s.4.89.89.89h15.96c.49,0,.89-.4.89-.89Z"/>
        <path class="cls-1" d="m99.34,49.22h-15.96c-.49,0-.89.4-.89.89s.4.89.89.89h15.96c.49,0,.89-.4.89-.89s-.4-.89-.89-.89Z"/>
        <path class="cls-1" d="m50.12,14.98c.49,0,.89-.4.89-.89V.89c0-.49-.4-.89-.89-.89s-.89.4-.89.89v13.19c0,.49.4.89.89.89Z"/>
        <path class="cls-1" d="m50.12,85.26c-.49,0-.89.4-.89.89v13.19c0,.49.4.89.89.89s.89-.4.89-.89v-13.19c0-.49-.4-.89-.89-.89Z"/>
        <path class="cls-1" d="m20.58,21.84c.17.17.39.26.63.26s.46-.09.63-.26c.35-.35.35-.92,0-1.26l-3.65-3.65c-.35-.35-.92-.35-1.26,0-.17.17-.26.39-.26.63s.09.46.26.63l3.65,3.65Z"/>
        <path class="cls-1" d="m79.7,78.44c-.35-.35-.92-.35-1.26,0-.35.35-.35.92,0,1.26l3.65,3.65c.17.17.39.26.63.26s.46-.09.63-.26c.35-.35.35-.92,0-1.26l-3.65-3.65Z"/>
        <path class="cls-1" d="m79.07,22.11c.24,0,.46-.09.63-.26l3.65-3.65c.17-.17.26-.39.26-.63s-.09-.46-.26-.63c-.35-.35-.92-.35-1.26,0l-3.65,3.65c-.35.35-.35.92,0,1.26.17.17.39.26.63.26Z"/>
        <path class="cls-1" d="m20.58,78.44l-3.65,3.65c-.35.35-.35.92,0,1.26.17.17.39.26.63.26s.46-.09.63-.26l3.65-3.65c.35-.35.35-.92,0-1.26s-.92-.35-1.26,0Z"/>
        <path class="cls-1" d="m61.01,56.41l21.55,3.32c.45.06.88-.22.99-.65.12-.44-.11-.9-.54-1.06l-20.31-7.9,20.31-7.9c.42-.17.66-.62.54-1.06-.12-.44-.54-.72-1-.65l-21.54,3.32,13.64-16.99c.29-.36.26-.87-.06-1.19-.32-.32-.84-.35-1.19-.07l-16.99,13.64,3.32-21.54c.07-.45-.21-.88-.65-1-.44-.12-.9.11-1.07.54l-7.9,20.31-7.89-20.31c-.17-.43-.63-.66-1.06-.54-.44.12-.72.55-.65,1l3.32,21.54-16.99-13.64c-.36-.29-.87-.26-1.19.07s-.35.83-.06,1.19l13.64,16.99-21.54-3.32c-.45-.07-.88.21-1,.65-.12.44.11.9.54,1.06l20.31,7.9-20.31,7.89c-.43.17-.66.62-.54,1.06.12.44.54.72,1,.65l21.54-3.32-13.64,16.99c-.29.36-.26.87.06,1.19.32.32.83.35,1.19.06l16.99-13.64-3.32,21.54c-.07.45.21.88.65,1,.08.02.16.03.24.03.36,0,.69-.22.83-.57l7.9-20.31,7.89,20.31c.13.34.47.57.83.57.05,0,.19-.02.23-.03.44-.12.72-.55.65-1l-3.32-21.54,16.99,13.64c.36.29.87.26,1.19-.06.32-.32.35-.84.06-1.19l-13.64-16.99Zm-2.91-1.68c-.18.32-.15.72.08,1.01l9.97,12.41-12.41-9.97c-.29-.23-.68-.26-1.01-.08-.32.19-.49.54-.44.91l2.42,15.73-5.77-14.84c-.13-.34-.47-.57-.83-.57s-.7.23-.83.57l-5.77,14.84,2.42-15.73c.06-.36-.12-.73-.44-.91-.32-.18-.72-.15-1,.08l-12.41,9.97,9.97-12.41c.23-.28.26-.69.08-1.01-.18-.32-.54-.49-.91-.44l-15.73,2.43,14.84-5.77c.35-.13.57-.46.57-.83s-.22-.7-.57-.83l-14.84-5.77,15.74,2.43c.37.05.72-.12.91-.44.18-.32.15-.72-.08-1.01l-9.97-12.41,12.41,9.97c.29.23.68.26,1.01.08.32-.18.49-.55.44-.91l-2.42-15.73,5.77,14.84c.13.34.47.57.83.57s.7-.23.83-.57l5.77-14.84-2.42,15.73c-.06.37.12.72.44.91.32.18.72.15,1-.08l12.41-9.97-9.97,12.41c-.23.28-.26.69-.08,1.01.18.32.54.49.91.44l15.73-2.42-14.84,5.77c-.34.13-.57.47-.57.83s.23.7.57.83l14.84,5.77-15.74-2.43c-.37-.05-.72.12-.91.44Z"/>
      </g>
      <path class="cls-2" d="m16.86,51.01H.89c-.49,0-.89-.4-.89-.89s.4-.89.89-.89h15.96c.49,0,.89.4.89.89s-.4.89-.89.89Zm82.48-1.79h-15.96c-.49,0-.89.4-.89.89s.4.89.89.89h15.96c.49,0,.89-.4.89-.89s-.4-.89-.89-.89ZM50.12,14.98c.49,0,.89-.4.89-.89V.89c0-.49-.4-.89-.89-.89s-.89.4-.89.89v13.19c0,.49.4.89.89.89Zm0,70.28c-.49,0-.89.4-.89.89v13.19c0,.49.4.89.89.89s.89-.4.89-.89v-13.19c0-.49-.4-.89-.89-.89ZM20.58,21.84c.17.17.39.26.63.26s.46-.09.63-.26c.35-.35.35-.92,0-1.26l-3.65-3.65c-.35-.35-.92-.35-1.26,0-.17.17-.26.39-.26.63s.09.46.26.63l3.65,3.65Zm59.12,56.59c-.35-.35-.92-.35-1.26,0-.35.35-.35.92,0,1.26l3.65,3.65c.17.17.39.26.63.26s.46-.09.63-.26c.35-.35.35-.92,0-1.26l-3.65-3.65Zm-.63-56.33c.24,0,.46-.09.63-.26l3.65-3.65c.17-.17.26-.39.26-.63s-.09-.46-.26-.63c-.35-.35-.92-.35-1.26,0l-3.65,3.65c-.35.35-.35.92,0,1.26.17.17.39.26.63.26Zm-58.49,56.33l-3.65,3.65c-.35.35-.35.92,0,1.26.17.17.39.26.63.26s.46-.09.63-.26l3.65-3.65c.35-.35.35-.92,0-1.26s-.92-.35-1.26,0Zm54.08-5.04c.29.36.26.87-.06,1.19-.32.32-.83.35-1.19.06l-16.99-13.64,3.32,21.54c.07.45-.21.88-.65,1-.04.01-.19.03-.23.03-.37,0-.7-.23-.83-.57l-7.89-20.31-7.9,20.31c-.14.35-.47.57-.83.57-.08,0-.16-.01-.24-.03-.44-.12-.72-.55-.65-1l3.32-21.54-16.99,13.64c-.36.29-.87.26-1.19-.06-.32-.32-.35-.83-.06-1.19l13.64-16.99-21.54,3.32c-.45.06-.88-.22-1-.65-.12-.44.11-.9.54-1.06l20.31-7.89-20.31-7.9c-.43-.17-.66-.62-.54-1.06.12-.44.54-.72,1-.65l21.54,3.32-13.64-16.99c-.29-.36-.26-.87.06-1.19s.83-.35,1.19-.07l16.99,13.64-3.32-21.54c-.07-.45.21-.88.65-1,.44-.12.9.11,1.06.54l7.89,20.31,7.9-20.31c.17-.43.62-.66,1.07-.54.44.12.72.55.65,1l-3.32,21.54,16.99-13.64c.36-.29.87-.26,1.19.07.32.32.35.84.06,1.19l-13.64,16.99,21.54-3.32c.46-.07.88.21,1,.65.12.44-.11.9-.54,1.06l-20.31,7.9,20.31,7.9c.43.17.66.62.54,1.06-.12.44-.54.72-.99.65l-21.55-3.32,13.64,16.99Zm-15.65-19.11l15.74,2.43-14.84-5.77c-.34-.13-.57-.47-.57-.83s.23-.7.57-.83l14.84-5.77-15.73,2.42c-.37.05-.73-.12-.91-.44-.18-.32-.15-.72.08-1.01l9.97-12.41-12.41,9.97c-.29.23-.68.26-1,.08-.32-.19-.49-.54-.44-.91l2.42-15.73-5.77,14.84c-.13.34-.47.57-.83.57s-.7-.23-.83-.57l-5.77-14.84,2.42,15.73c.06.36-.12.73-.44.91-.32.19-.72.16-1.01-.08l-12.41-9.97,9.97,12.41c.23.28.26.69.08,1.01-.18.32-.54.49-.91.44l-15.74-2.43,14.84,5.77c.35.13.57.46.57.83s-.22.7-.57.83l-14.84,5.77,15.73-2.43c.37-.05.73.12.91.44.18.32.15.72-.08,1.01l-9.97,12.41,12.41-9.97c.29-.23.68-.26,1-.08.32.18.49.55.44.91l-2.42,15.73,5.77-14.84c.13-.34.47-.57.83-.57s.7.23.83.57l5.77,14.84-2.42-15.73c-.06-.37.12-.72.44-.91.33-.19.72-.15,1.01.08l12.41,9.97-9.97-12.41c-.23-.29-.26-.69-.08-1.01.18-.32.54-.49.91-.44Z"/>
    </g>
  </g>
</svg>