<?xml version="1.0" encoding="UTF-8"?>
<svg id="_レイヤー_2" data-name="レイヤー 2" xmlns="http://www.w3.org/2000/svg" xmlns:xlink="http://www.w3.org/1999/xlink" viewBox="0 0 253.32 39.21">
  <defs>
    <style>
      .cls-1 {
        fill: url(#_新規グラデーションスウォッチ_1);
      }

      .cls-1, .cls-2, .cls-3, .cls-4, .cls-5, .cls-6, .cls-7 {
        stroke-width: 0px;
      }

      .cls-2 {
        fill: url(#_新規グラデーションスウォッチ_1-2);
      }

      .cls-8 {
        opacity: .5;
      }

      .cls-3 {
        fill: url(#_新規グラデーションスウォッチ_1-3);
      }

      .cls-4 {
        fill: url(#_新規グラデーションスウォッチ_1-4);
      }

      .cls-5 {
        fill: url(#_新規グラデーションスウォッチ_1-6);
      }

      .cls-6 {
        fill: #39395c;
      }

      .cls-7 {
        fill: url(#_新規グラデーションスウォッチ_1-5);
      }
    </style>
    <linearGradient id="_新規グラデーションスウォッチ_1" data-name="新規グラデーションスウォッチ 1" x1="-95.23" y1="100.24" x2="187" y2="-91.23" gradientUnits="userSpaceOnUse">
      <stop offset="0" stop-color="#c9ddf1"/>
      <stop offset=".06" stop-color="#c1daef" stop-opacity=".97"/>
      <stop offset=".15" stop-color="#add2ec" stop-opacity=".89"/>
      <stop offset=".26" stop-color="#8cc5e6" stop-opacity=".75"/>
      <stop offset=".38" stop-color="#5fb2df" stop-opacity=".57"/>
      <stop offset=".52" stop-color="#259cd5" stop-opacity=".33"/>
      <stop offset=".54" stop-color="#1e99d4" stop-opacity=".3"/>
      <stop offset=".76" stop-color="#0075bb"/>
      <stop offset=".96" stop-color="#005b94"/>
    </linearGradient>
    <linearGradient id="_新規グラデーションスウォッチ_1-2" data-name="新規グラデーションスウォッチ 1" x1="-81.86" y1="119.94" x2="200.36" y2="-71.53" xlink:href="#_新規グラデーションスウォッチ_1"/>
    <linearGradient id="_新規グラデーションスウォッチ_1-3" data-name="新規グラデーションスウォッチ 1" x1="-65.49" y1="144.07" x2="216.73" y2="-47.4" xlink:href="#_新規グラデーションスウォッチ_1"/>
    <linearGradient id="_新規グラデーションスウォッチ_1-4" data-name="新規グラデーションスウォッチ 1" x1="-50.14" y1="166.69" x2="232.08" y2="-24.78" xlink:href="#_新規グラデーションスウォッチ_1"/>
    <linearGradient id="_新規グラデーションスウォッチ_1-5" data-name="新規グラデーションスウォッチ 1" x1="-39.75" y1="182.02" x2="242.48" y2="-9.45" xlink:href="#_新規グラデーションスウォッチ_1"/>
    <linearGradient id="_新規グラデーションスウォッチ_1-6" data-name="新規グラデーションスウォッチ 1" x1="-28.07" y1="199.22" x2="254.15" y2="7.75" xlink:href="#_新規グラデーションスウォッチ_1"/>
  </defs>
  <g id="design">
    <g>
      <g>
        <path class="cls-6" d="m47.22,1.59c-1.04.05-1.87.2-2.5.42-.63.23-1.21.61-1.74,1.13-.4.38-.7.81-.9,1.27s-.34,1.05-.41,1.76c-.13.95-.19,2.07-.19,3.36v20.15c0,1.88.11,3.27.33,4.18.22.91.61,1.64,1.18,2.19,1,.97,2.42,1.49,4.24,1.59v.63h-17.47v-.63c1.06-.05,1.91-.21,2.56-.45s1.23-.62,1.74-1.13c.56-.58.95-1.33,1.16-2.23s.31-2.28.31-4.14V5.25l-14.08,33.03h-.57L6.86,5.74v23.95c0,1.88.1,3.26.31,4.16.21.89.6,1.63,1.16,2.21.51.53,1.09.91,1.74,1.15.65.24,1.49.38,2.53.44v.63H0v-.63c1.04-.05,1.88-.2,2.53-.44.65-.24,1.23-.62,1.74-1.15.56-.58.95-1.33,1.16-2.23s.31-2.28.31-4.14V9.54c0-.84-.03-1.63-.08-2.38-.09-1.35-.3-2.33-.63-2.95-.46-.86-1.08-1.49-1.87-1.9s-1.85-.65-3.16-.72v-.63h11.87l11.84,29.23L35.98.96h11.24v.63Z"/>
        <path class="cls-6" d="m62.86,38.28v-.63c1.04-.05,1.89-.2,2.54-.44.66-.24,1.24-.62,1.75-1.15.56-.58.95-1.32,1.15-2.21.2-.89.3-2.28.3-4.16l.03-5.33c0-.77-.16-1.61-.46-2.54-.35-1.08-1.06-2.42-2.13-4.05l-7.08-10.64-1.26-1.91c-.93-1.39-1.84-2.33-2.73-2.84-.46-.27-.91-.46-1.37-.57-.46-.11-1.09-.18-1.91-.22v-.63h17.83v.63c-1.51.09-2.48.23-2.9.41-1.02.44-1.53,1.23-1.53,2.38,0,.42.11.89.34,1.42.23.53.6,1.19,1.11,2l7.41,11.59,6.34-9.9.71-1.12c.67-1.06,1.01-2.1,1.01-3.12,0-1.17-.37-2.07-1.12-2.71-.75-.64-1.8-.96-3.14-.96v-.63h12.58v.63c-.95.11-1.68.27-2.19.48-.51.21-1.03.55-1.56,1.03-1.24,1.17-2.62,2.91-4.13,5.22l-6.23,9.52c-.75,1.13-1.2,1.96-1.37,2.49-.16.53-.25,1.42-.25,2.68v6.7c0,1.95.1,3.35.29,4.2s.58,1.57,1.16,2.17c1,1.06,2.43,1.59,4.29,1.59v.63h-17.47Z"/>
        <path class="cls-6" d="m120.94,19.88v9.82c0,1.86.1,3.24.31,4.14.21.9.6,1.65,1.16,2.23.49.51,1.06.89,1.71,1.13.65.25,1.5.4,2.56.45v.63h-17.47v-.63c1.06-.05,1.91-.21,2.56-.45.65-.25,1.22-.62,1.71-1.13.58-.58.98-1.32,1.18-2.21.2-.89.3-2.28.3-4.16V9.54c0-1.57-.07-2.78-.21-3.62s-.37-1.54-.7-2.06c-.47-.73-1.08-1.27-1.8-1.63-.73-.36-1.68-.57-2.84-.64h-.19v-.63h16.49c2.88,0,5,.15,6.37.44,1.37.29,2.62.88,3.75,1.75,2.59,1.97,3.88,4.59,3.88,7.88s-1.31,5.78-3.94,7.33c-1.37.8-3.03,1.29-4.98,1.45-.62.05-2.11.08-4.48.08h-5.36Zm0-.88h2.68c1.8,0,3.19-.13,4.17-.4.98-.26,1.85-.75,2.61-1.46,1.79-1.62,2.68-3.78,2.68-6.48,0-1.49-.26-2.87-.78-4.12-.52-1.25-1.26-2.26-2.23-3.05-1.11-.93-2.43-1.48-3.96-1.64-.42-.04-1.38-.05-2.87-.05h-2.3v17.2Z"/>
        <path class="cls-6" d="m177.32,38.28h-17.96v-.63c1.62-.15,2.75-.42,3.39-.82,1.13-.71,1.7-1.7,1.7-2.95,0-.75-.26-1.75-.77-3.01l-.46-1.15-2.62-6.45h-12.03l-1.42,3.77-.68,1.7c-.82,2.01-1.23,3.58-1.23,4.73,0,.67.15,1.3.45,1.89.3.58.71,1.06,1.22,1.42.71.49,1.62.78,2.73.88v.63h-12.25v-.63c.97-.05,1.81-.29,2.54-.71.73-.42,1.44-1.09,2.13-2.02.58-.75,1.15-1.71,1.71-2.88s1.29-2.94,2.2-5.29L155.97.96h1.56l11.89,28.74c.89,2.17,1.6,3.72,2.13,4.65s1.1,1.63,1.72,2.11c.44.33.94.58,1.5.75.56.17,1.41.32,2.54.45v.63Zm-17.17-16.13l-5.74-14.16-5.41,14.16h11.16Z"/>
        <path class="cls-6" d="m211.66.96l.33,11.89-.63.05c-1.26-4.05-2.87-7.06-4.84-9.04-1.97-1.98-4.35-2.97-7.14-2.97-2.17,0-4.03.44-5.59,1.33-1.56.88-3.01,2.32-4.36,4.31-2.73,4.07-4.1,8.71-4.1,13.95,0,2.5.33,4.85.98,7.07s1.61,4.17,2.87,5.87c2.44,3.28,5.42,4.92,8.94,4.92,1.39,0,2.69-.29,3.91-.88,1.22-.58,2.22-1.39,3.01-2.41,1.08-1.42,1.61-3.11,1.61-5.06,0-1.8-.49-3.11-1.46-3.91-.98-.8-2.58-1.2-4.83-1.2v-.63h17.45v.63c-1.6.15-2.73.37-3.38.67s-1.13.82-1.44,1.54c-.35.8-.52,2.4-.52,4.79,0,.66.04,1.68.11,3.06l.05.63c-.69-.26-1.2-.38-1.53-.38-.4,0-.91.21-1.53.63-1.59,1.09-3.43,1.93-5.52,2.52-2.1.58-4.31.88-6.64.88-3.21,0-6.1-.55-8.68-1.64s-4.67-2.66-6.28-4.7c-1.2-1.53-2.13-3.35-2.78-5.47-.65-2.11-.97-4.36-.97-6.73,0-3.26.58-6.3,1.75-9.11,1.17-2.81,2.81-5.12,4.92-6.95,1.73-1.48,3.73-2.62,5.99-3.42,2.26-.8,4.65-1.2,7.16-1.2,1.46,0,2.81.14,4.06.41s2.57.72,3.98,1.34l1.61.74c.4.16.77.25,1.09.25.73,0,1.29-.59,1.67-1.78h.71Z"/>
        <path class="cls-6" d="m249.74.96l.46,9.02-.63.03c-.24-1.53-.63-2.8-1.18-3.8-.55-1-1.34-1.89-2.38-2.65-.86-.64-1.87-1.09-3.04-1.35-1.17-.26-2.72-.4-4.65-.4h-6.26v16.41h1.64c1.66,0,2.91-.11,3.75-.33s1.52-.61,2.05-1.18c.51-.53.89-1.15,1.13-1.87.25-.72.45-1.78.62-3.19l.63.03-.11,14.66h-.63c-.16-1.4-.41-2.53-.72-3.39-.32-.86-.76-1.59-1.33-2.19-.55-.58-1.26-1.01-2.13-1.29s-1.99-.41-3.34-.41h-1.56v6.26c0,2.5.06,4.32.19,5.46.13,1.14.37,2.09.74,2.86.62,1.31,1.56,2.27,2.83,2.88,1.27.61,2.94.92,5.02.92,2.19,0,4.02-.28,5.5-.83,1.48-.56,2.68-1.42,3.61-2.58.66-.78,1.19-1.68,1.6-2.68.41-1,.79-2.32,1.13-3.96l.63.03-.36,10.88h-32.62v-.63c1.04-.05,1.88-.2,2.53-.44.65-.24,1.23-.62,1.74-1.15.56-.58.95-1.33,1.16-2.23s.31-2.28.31-4.14V9.54c0-1.86-.1-3.24-.31-4.14s-.6-1.65-1.16-2.23c-.49-.53-1.06-.91-1.71-1.15-.65-.24-1.5-.38-2.56-.44v-.63h29.39Z"/>
      </g>
      <g class="cls-8">
        <path class="cls-1" d="m47.22,1.59c-1.04.05-1.87.2-2.5.42-.63.23-1.21.61-1.74,1.13-.4.38-.7.81-.9,1.27s-.34,1.05-.41,1.76c-.13.95-.19,2.07-.19,3.36v20.15c0,1.88.11,3.27.33,4.18.22.91.61,1.64,1.18,2.19,1,.97,2.42,1.49,4.24,1.59v.63h-17.47v-.63c1.06-.05,1.91-.21,2.56-.45s1.23-.62,1.74-1.13c.56-.58.95-1.33,1.16-2.23s.31-2.28.31-4.14V5.25l-14.08,33.03h-.57L6.86,5.74v23.95c0,1.88.1,3.26.31,4.16.21.89.6,1.63,1.16,2.21.51.53,1.09.91,1.74,1.15.65.24,1.49.38,2.53.44v.63H0v-.63c1.04-.05,1.88-.2,2.53-.44.65-.24,1.23-.62,1.74-1.15.56-.58.95-1.33,1.16-2.23s.31-2.28.31-4.14V9.54c0-.84-.03-1.63-.08-2.38-.09-1.35-.3-2.33-.63-2.95-.46-.86-1.08-1.49-1.87-1.9s-1.85-.65-3.16-.72v-.63h11.87l11.84,29.23L35.98.96h11.24v.63Z"/>
        <path class="cls-2" d="m62.86,38.28v-.63c1.04-.05,1.89-.2,2.54-.44.66-.24,1.24-.62,1.75-1.15.56-.58.95-1.32,1.15-2.21.2-.89.3-2.28.3-4.16l.03-5.33c0-.77-.16-1.61-.46-2.54-.35-1.08-1.06-2.42-2.13-4.05l-7.08-10.64-1.26-1.91c-.93-1.39-1.84-2.33-2.73-2.84-.46-.27-.91-.46-1.37-.57-.46-.11-1.09-.18-1.91-.22v-.63h17.83v.63c-1.51.09-2.48.23-2.9.41-1.02.44-1.53,1.23-1.53,2.38,0,.42.11.89.34,1.42.23.53.6,1.19,1.11,2l7.41,11.59,6.34-9.9.71-1.12c.67-1.06,1.01-2.1,1.01-3.12,0-1.17-.37-2.07-1.12-2.71-.75-.64-1.8-.96-3.14-.96v-.63h12.58v.63c-.95.11-1.68.27-2.19.48-.51.21-1.03.55-1.56,1.03-1.24,1.17-2.62,2.91-4.13,5.22l-6.23,9.52c-.75,1.13-1.2,1.96-1.37,2.49-.16.53-.25,1.42-.25,2.68v6.7c0,1.95.1,3.35.29,4.2s.58,1.57,1.16,2.17c1,1.06,2.43,1.59,4.29,1.59v.63h-17.47Z"/>
        <path class="cls-3" d="m120.94,19.88v9.82c0,1.86.1,3.24.31,4.14.21.9.6,1.65,1.16,2.23.49.51,1.06.89,1.71,1.13.65.25,1.5.4,2.56.45v.63h-17.47v-.63c1.06-.05,1.91-.21,2.56-.45.65-.25,1.22-.62,1.71-1.13.58-.58.98-1.32,1.18-2.21.2-.89.3-2.28.3-4.16V9.54c0-1.57-.07-2.78-.21-3.62s-.37-1.54-.7-2.06c-.47-.73-1.08-1.27-1.8-1.63-.73-.36-1.68-.57-2.84-.64h-.19v-.63h16.49c2.88,0,5,.15,6.37.44,1.37.29,2.62.88,3.75,1.75,2.59,1.97,3.88,4.59,3.88,7.88s-1.31,5.78-3.94,7.33c-1.37.8-3.03,1.29-4.98,1.45-.62.05-2.11.08-4.48.08h-5.36Zm0-.88h2.68c1.8,0,3.19-.13,4.17-.4.98-.26,1.85-.75,2.61-1.46,1.79-1.62,2.68-3.78,2.68-6.48,0-1.49-.26-2.87-.78-4.12-.52-1.25-1.26-2.26-2.23-3.05-1.11-.93-2.43-1.48-3.96-1.64-.42-.04-1.38-.05-2.87-.05h-2.3v17.2Z"/>
        <path class="cls-4" d="m177.32,38.28h-17.96v-.63c1.62-.15,2.75-.42,3.39-.82,1.13-.71,1.7-1.7,1.7-2.95,0-.75-.26-1.75-.77-3.01l-.46-1.15-2.62-6.45h-12.03l-1.42,3.77-.68,1.7c-.82,2.01-1.23,3.58-1.23,4.73,0,.67.15,1.3.45,1.89.3.58.71,1.06,1.22,1.42.71.49,1.62.78,2.73.88v.63h-12.25v-.63c.97-.05,1.81-.29,2.54-.71.73-.42,1.44-1.09,2.13-2.02.58-.75,1.15-1.71,1.71-2.88s1.29-2.94,2.2-5.29L155.97.96h1.56l11.89,28.74c.89,2.17,1.6,3.72,2.13,4.65s1.1,1.63,1.72,2.11c.44.33.94.58,1.5.75.56.17,1.41.32,2.54.45v.63Zm-17.17-16.13l-5.74-14.16-5.41,14.16h11.16Z"/>
        <path class="cls-7" d="m211.66.96l.33,11.89-.63.05c-1.26-4.05-2.87-7.06-4.84-9.04-1.97-1.98-4.35-2.97-7.14-2.97-2.17,0-4.03.44-5.59,1.33-1.56.88-3.01,2.32-4.36,4.31-2.73,4.07-4.1,8.71-4.1,13.95,0,2.5.33,4.85.98,7.07s1.61,4.17,2.87,5.87c2.44,3.28,5.42,4.92,8.94,4.92,1.39,0,2.69-.29,3.91-.88,1.22-.58,2.22-1.39,3.01-2.41,1.08-1.42,1.61-3.11,1.61-5.06,0-1.8-.49-3.11-1.46-3.91-.98-.8-2.58-1.2-4.83-1.2v-.63h17.45v.63c-1.6.15-2.73.37-3.38.67s-1.13.82-1.44,1.54c-.35.8-.52,2.4-.52,4.79,0,.66.04,1.68.11,3.06l.05.63c-.69-.26-1.2-.38-1.53-.38-.4,0-.91.21-1.53.63-1.59,1.09-3.43,1.93-5.52,2.52-2.1.58-4.31.88-6.64.88-3.21,0-6.1-.55-8.68-1.64s-4.67-2.66-6.28-4.7c-1.2-1.53-2.13-3.35-2.78-5.47-.65-2.11-.97-4.36-.97-6.73,0-3.26.58-6.3,1.75-9.11,1.17-2.81,2.81-5.12,4.92-6.95,1.73-1.48,3.73-2.62,5.99-3.42,2.26-.8,4.65-1.2,7.16-1.2,1.46,0,2.81.14,4.06.41s2.57.72,3.98,1.34l1.61.74c.4.16.77.25,1.09.25.73,0,1.29-.59,1.67-1.78h.71Z"/>
        <path class="cls-5" d="m249.74.96l.46,9.02-.63.03c-.24-1.53-.63-2.8-1.18-3.8-.55-1-1.34-1.89-2.38-2.65-.86-.64-1.87-1.09-3.04-1.35-1.17-.26-2.72-.4-4.65-.4h-6.26v16.41h1.64c1.66,0,2.91-.11,3.75-.33s1.52-.61,2.05-1.18c.51-.53.89-1.15,1.13-1.87.25-.72.45-1.78.62-3.19l.63.03-.11,14.66h-.63c-.16-1.4-.41-2.53-.72-3.39-.32-.86-.76-1.59-1.33-2.19-.55-.58-1.26-1.01-2.13-1.29s-1.99-.41-3.34-.41h-1.56v6.26c0,2.5.06,4.32.19,5.46.13,1.14.37,2.09.74,2.86.62,1.31,1.56,2.27,2.83,2.88,1.27.61,2.94.92,5.02.92,2.19,0,4.02-.28,5.5-.83,1.48-.56,2.68-1.42,3.61-2.58.66-.78,1.19-1.68,1.6-2.68.41-1,.79-2.32,1.13-3.96l.63.03-.36,10.88h-32.62v-.63c1.04-.05,1.88-.2,2.53-.44.65-.24,1.23-.62,1.74-1.15.56-.58.95-1.33,1.16-2.23s.31-2.28.31-4.14V9.54c0-1.86-.1-3.24-.31-4.14s-.6-1.65-1.16-2.23c-.49-.53-1.06-.91-1.71-1.15-.65-.24-1.5-.38-2.56-.44v-.63h29.39Z"/>
      </g>
    </g>
  </g>
</svg>