<?xml version="1.0" encoding="UTF-8"?>
<svg id="_レイヤー_2" data-name="レイヤー 2" xmlns="http://www.w3.org/2000/svg" xmlns:xlink="http://www.w3.org/1999/xlink" viewBox="0 0 77.36 8.78">
  <defs>
    <style>
      .cls-1 {
        fill: url(#_新規グラデーションスウォッチ_1);
      }

      .cls-1, .cls-2, .cls-3, .cls-4 {
        stroke-width: 0px;
      }

      .cls-2 {
        fill: url(#_新規グラデーションスウォッチ_1-2);
      }

      .cls-3 {
        fill: url(#_新規グラデーションスウォッチ_1-3);
      }

      .cls-4 {
        fill: #386280;
      }
    </style>
    <linearGradient id="_新規グラデーションスウォッチ_1" data-name="新規グラデーションスウォッチ 1" x1="9.97" y1="19.43" x2="19.59" y2="-14.72" gradientUnits="userSpaceOnUse">
      <stop offset="0" stop-color="#c9ddf1"/>
      <stop offset=".06" stop-color="#c1daef" stop-opacity=".97"/>
      <stop offset=".15" stop-color="#add2ec" stop-opacity=".89"/>
      <stop offset=".26" stop-color="#8cc5e6" stop-opacity=".75"/>
      <stop offset=".38" stop-color="#5fb2df" stop-opacity=".57"/>
      <stop offset=".52" stop-color="#259cd5" stop-opacity=".33"/>
      <stop offset=".54" stop-color="#1e99d4" stop-opacity=".3"/>
      <stop offset=".76" stop-color="#0075bb"/>
      <stop offset=".96" stop-color="#005b94"/>
    </linearGradient>
    <linearGradient id="_新規グラデーションスウォッチ_1-2" data-name="新規グラデーションスウォッチ 1" x1="55.32" y1="32.2" x2="64.94" y2="-1.95" xlink:href="#_新規グラデーションスウォッチ_1"/>
    <linearGradient id="_新規グラデーションスウォッチ_1-3" data-name="新規グラデーションスウォッチ 1" x1="32.67" y1="25.82" x2="42.29" y2="-8.32" xlink:href="#_新規グラデーションスウォッチ_1"/>
  </defs>
  <g id="design">
    <g>
      <g>
        <path class="cls-4" d="m.12,4.49c6.79.7,23.07.72,28.18,0,.15-.02.15-.18,0-.2-4.79-.81-21.45-.81-28.18,0-.16.02-.17.18,0,.2Z"/>
        <path class="cls-4" d="m49.07,4.49c6.79.7,23.07.72,28.18,0,.15-.02.15-.18,0-.2-4.79-.81-21.45-.81-28.18,0-.16.02-.17.18,0,.2Z"/>
        <path class="cls-4" d="m38.59,8.67c-.4-2.06-1.78-3.7-3.62-4.15-.13-.03-.13-.23,0-.26,1.84-.44,3.22-2.09,3.62-4.15.03-.15.2-.15.23,0,.4,2.06,1.78,3.7,3.62,4.15.13.03.13.23,0,.26-1.84.44-3.22,2.09-3.62,4.15-.03.15-.2.15-.23,0Z"/>
      </g>
      <g>
        <path class="cls-1" d="m.12,4.49c6.79.7,23.07.72,28.18,0,.15-.02.15-.18,0-.2-4.79-.81-21.45-.81-28.18,0-.16.02-.17.18,0,.2Z"/>
        <path class="cls-2" d="m49.07,4.49c6.79.7,23.07.72,28.18,0,.15-.02.15-.18,0-.2-4.79-.81-21.45-.81-28.18,0-.16.02-.17.18,0,.2Z"/>
        <path class="cls-3" d="m38.59,8.67c-.4-2.06-1.78-3.7-3.62-4.15-.13-.03-.13-.23,0-.26,1.84-.44,3.22-2.09,3.62-4.15.03-.15.2-.15.23,0,.4,2.06,1.78,3.7,3.62,4.15.13.03.13.23,0,.26-1.84.44-3.22,2.09-3.62,4.15-.03.15-.2.15-.23,0Z"/>
      </g>
    </g>
  </g>
</svg>