<?xml version="1.0" encoding="UTF-8"?>
<svg id="_レイヤー_2" data-name="レイヤー 2" xmlns="http://www.w3.org/2000/svg" xmlns:xlink="http://www.w3.org/1999/xlink" viewBox="0 0 78.39 70.84">
  <defs>
    <style>
      .cls-1 {
        fill: url(#_新規グラデーションスウォッチ_1);
      }

      .cls-1, .cls-2, .cls-3 {
        stroke-width: 0px;
      }

      .cls-2 {
        fill: url(#_新規グラデーションスウォッチ_1-2);
      }

      .cls-3 {
        fill: #386280;
      }
    </style>
    <linearGradient id="_新規グラデーションスウォッチ_1" data-name="新規グラデーションスウォッチ 1" x1="29.61" y1="87.84" x2="29.61" y2="32.7" gradientUnits="userSpaceOnUse">
      <stop offset="0" stop-color="#c9ddf1"/>
      <stop offset=".06" stop-color="#c1daef" stop-opacity=".97"/>
      <stop offset=".15" stop-color="#add2ec" stop-opacity=".89"/>
      <stop offset=".26" stop-color="#8cc5e6" stop-opacity=".75"/>
      <stop offset=".38" stop-color="#5fb2df" stop-opacity=".57"/>
      <stop offset=".52" stop-color="#259cd5" stop-opacity=".33"/>
      <stop offset=".54" stop-color="#1e99d4" stop-opacity=".3"/>
      <stop offset=".76" stop-color="#0075bb"/>
      <stop offset=".96" stop-color="#005b94"/>
    </linearGradient>
    <linearGradient id="_新規グラデーションスウォッチ_1-2" data-name="新規グラデーションスウォッチ 1" x1="70.37" y1="37.84" x2="70.37" y2="4.83" xlink:href="#_新規グラデーションスウォッチ_1"/>
  </defs>
  <g id="design">
    <g>
      <path class="cls-3" d="m59.23,38.68c-.03-.33-.29-.59-.62-.62l-12.87-1.01,10.84-7.01c.28-.18.39-.54.25-.84-.13-.3-.47-.47-.79-.38l-12.5,3.22,7.97-10.15c.2-.26.19-.63-.03-.88-.22-.24-.59-.29-.87-.11l-10.78,7.11,4.24-12.19c.11-.31-.03-.66-.32-.82-.29-.16-.66-.08-.86.18l-7.88,10.22.06-12.91c0-.33-.24-.62-.57-.67-.33-.05-.65.14-.75.45l-4.14,12.23-4.14-12.23c-.11-.31-.43-.51-.75-.45-.33.05-.57.34-.57.67l.06,12.91-7.88-10.22c-.2-.26-.57-.34-.86-.18-.29.16-.43.5-.32.82l4.24,12.19-10.78-7.11c-.28-.18-.65-.14-.87.11-.22.24-.24.62-.03.88l7.97,10.15-12.5-3.22c-.32-.08-.66.08-.79.38-.13.3-.03.66.25.84l10.84,7.01-12.87,1.01c-.33.03-.59.29-.62.62-.03.33.19.63.51.71l12.53,3.11-11.84,5.13c-.3.13-.47.47-.39.79.08.32.38.54.71.51l12.86-1.12-9.54,8.7c-.25.22-.29.59-.11.87.18.28.54.38.84.25l11.8-5.24-6.19,11.33c-.16.29-.08.65.18.86.26.2.63.19.88-.04l9.46-8.78-2.18,12.72c-.06.33.13.65.45.75.31.11.66-.03.82-.32l6.09-11.38,2.07,12.74c.05.33.34.57.67.57s.61-.24.67-.57l2.07-12.74,6.09,11.38c.16.29.5.43.82.32.31-.11.5-.43.45-.75l-2.18-12.72,9.46,8.78c.24.23.61.24.88.04.26-.2.34-.57.18-.86l-6.19-11.33,11.8,5.24c.3.13.66.03.84-.25.18-.28.13-.65-.11-.87l-9.54-8.7,12.86,1.12c.33.03.63-.19.71-.51.08-.32-.08-.66-.39-.79l-11.84-5.13,12.53-3.11c.32-.08.54-.38.51-.71Zm-15.31,3c-.28.07-.49.31-.51.6-.02.29.14.56.41.68l9.86,4.27-10.7-.93c-.29-.03-.56.14-.68.4-.12.27-.05.58.16.77l7.93,7.24-9.82-4.36c-.27-.12-.58-.05-.77.16-.2.21-.24.53-.1.78l5.15,9.42-7.87-7.31c-.21-.2-.53-.24-.78-.1-.26.14-.39.42-.34.71l1.81,10.59-5.07-9.47c-.14-.26-.42-.4-.71-.35-.29.05-.51.27-.56.56l-1.72,10.6-1.72-10.6c-.05-.29-.27-.51-.56-.56-.04,0-.07,0-.11,0-.25,0-.48.13-.6.36l-5.07,9.47,1.81-10.59c.05-.29-.09-.57-.34-.71-.26-.14-.57-.1-.78.1l-7.87,7.31,5.15-9.42c.14-.25.1-.57-.1-.78-.2-.21-.51-.28-.77-.16l-9.82,4.36,7.93-7.24c.21-.2.28-.51.16-.77-.12-.27-.39-.43-.68-.4l-10.7.93,9.86-4.27c.27-.12.43-.39.41-.68-.02-.29-.23-.53-.51-.6l-10.42-2.59,10.71-.84c.29-.02.53-.23.6-.51.07-.28-.04-.58-.29-.73l-9.02-5.84,10.4,2.68c.28.07.58-.04.74-.29.16-.24.14-.56-.03-.79l-6.63-8.45,8.97,5.91c.24.16.56.15.79-.03.23-.18.32-.48.22-.76l-3.53-10.14,6.56,8.5c.18.23.48.32.76.23.27-.09.46-.35.46-.64l-.05-10.74,3.44,10.17c.09.27.35.46.64.46s.55-.18.64-.46l3.44-10.17-.05,10.74c0,.29.18.55.46.64.27.09.58,0,.76-.23l6.56-8.5-3.53,10.14c-.1.27,0,.58.22.76.23.18.55.19.79.03l8.97-5.91-6.63,8.45c-.18.23-.19.55-.03.79.16.24.45.36.74.29l10.4-2.68-9.02,5.84c-.24.16-.36.45-.29.73.07.28.31.49.6.51l10.71.84-10.42,2.59Z"/>
      <path class="cls-3" d="m65.7,19.47c1.05,1.05,2.27,1.87,3.62,2.44,1.41.59,2.9.9,4.44.9,1.41,0,2.78-.25,4.08-.75.33-.13.55-.44.55-.8s-.22-.67-.55-.8c-3.72-1.43-6.23-5.07-6.23-9.06s2.5-7.63,6.23-9.06c.33-.13.55-.44.55-.8s-.22-.67-.55-.8c-1.3-.5-2.68-.75-4.08-.75-1.54,0-3.03.3-4.44.9-1.36.57-2.58,1.4-3.62,2.44-1.05,1.05-1.87,2.27-2.44,3.62-.59,1.41-.9,2.9-.9,4.44s.3,3.03.9,4.44c.57,1.36,1.4,2.58,2.44,3.62ZM73.76,1.7c.47,0,.94.03,1.4.1-1.24.8-2.33,1.84-3.19,3.07-1.34,1.92-2.06,4.18-2.06,6.53s.71,4.61,2.06,6.53c.86,1.23,1.94,2.27,3.19,3.07-.46.07-.93.1-1.4.1-5.35,0-9.7-4.35-9.7-9.7s4.35-9.7,9.7-9.7Z"/>
      <path class="cls-1" d="m59.23,38.68c-.03-.33-.29-.59-.62-.62l-12.87-1.01,10.84-7.01c.28-.18.39-.54.25-.84-.13-.3-.47-.47-.79-.38l-12.5,3.22,7.97-10.15c.2-.26.19-.63-.03-.88-.22-.24-.59-.29-.87-.11l-10.78,7.11,4.24-12.19c.11-.31-.03-.66-.32-.82-.29-.16-.66-.08-.86.18l-7.88,10.22.06-12.91c0-.33-.24-.62-.57-.67-.33-.05-.65.14-.75.45l-4.14,12.23-4.14-12.23c-.11-.31-.43-.51-.75-.45-.33.05-.57.34-.57.67l.06,12.91-7.88-10.22c-.2-.26-.57-.34-.86-.18-.29.16-.43.5-.32.82l4.24,12.19-10.78-7.11c-.28-.18-.65-.14-.87.11-.22.24-.24.62-.03.88l7.97,10.15-12.5-3.22c-.32-.08-.66.08-.79.38-.13.3-.03.66.25.84l10.84,7.01-12.87,1.01c-.33.03-.59.29-.62.62-.03.33.19.63.51.71l12.53,3.11-11.84,5.13c-.3.13-.47.47-.39.79.08.32.38.54.71.51l12.86-1.12-9.54,8.7c-.25.22-.29.59-.11.87.18.28.54.38.84.25l11.8-5.24-6.19,11.33c-.16.29-.08.65.18.86.26.2.63.19.88-.04l9.46-8.78-2.18,12.72c-.06.33.13.65.45.75.31.11.66-.03.82-.32l6.09-11.38,2.07,12.74c.05.33.34.57.67.57s.61-.24.67-.57l2.07-12.74,6.09,11.38c.16.29.5.43.82.32.31-.11.5-.43.45-.75l-2.18-12.72,9.46,8.78c.24.23.61.24.88.04.26-.2.34-.57.18-.86l-6.19-11.33,11.8,5.24c.3.13.66.03.84-.25.18-.28.13-.65-.11-.87l-9.54-8.7,12.86,1.12c.33.03.63-.19.71-.51.08-.32-.08-.66-.39-.79l-11.84-5.13,12.53-3.11c.32-.08.54-.38.51-.71Zm-15.31,3c-.28.07-.49.31-.51.6-.02.29.14.56.41.68l9.86,4.27-10.7-.93c-.29-.03-.56.14-.68.4-.12.27-.05.58.16.77l7.93,7.24-9.82-4.36c-.27-.12-.58-.05-.77.16-.2.21-.24.53-.1.78l5.15,9.42-7.87-7.31c-.21-.2-.53-.24-.78-.1-.26.14-.39.42-.34.71l1.81,10.59-5.07-9.47c-.14-.26-.42-.4-.71-.35-.29.05-.51.27-.56.56l-1.72,10.6-1.72-10.6c-.05-.29-.27-.51-.56-.56-.04,0-.07,0-.11,0-.25,0-.48.13-.6.36l-5.07,9.47,1.81-10.59c.05-.29-.09-.57-.34-.71-.26-.14-.57-.1-.78.1l-7.87,7.31,5.15-9.42c.14-.25.1-.57-.1-.78-.2-.21-.51-.28-.77-.16l-9.82,4.36,7.93-7.24c.21-.2.28-.51.16-.77-.12-.27-.39-.43-.68-.4l-10.7.93,9.86-4.27c.27-.12.43-.39.41-.68-.02-.29-.23-.53-.51-.6l-10.42-2.59,10.71-.84c.29-.02.53-.23.6-.51.07-.28-.04-.58-.29-.73l-9.02-5.84,10.4,2.68c.28.07.58-.04.74-.29.16-.24.14-.56-.03-.79l-6.63-8.45,8.97,5.91c.24.16.56.15.79-.03.23-.18.32-.48.22-.76l-3.53-10.14,6.56,8.5c.18.23.48.32.76.23.27-.09.46-.35.46-.64l-.05-10.74,3.44,10.17c.09.27.35.46.64.46s.55-.18.64-.46l3.44-10.17-.05,10.74c0,.29.18.55.46.64.27.09.58,0,.76-.23l6.56-8.5-3.53,10.14c-.1.27,0,.58.22.76.23.18.55.19.79.03l8.97-5.91-6.63,8.45c-.18.23-.19.55-.03.79.16.24.45.36.74.29l10.4-2.68-9.02,5.84c-.24.16-.36.45-.29.73.07.28.31.49.6.51l10.71.84-10.42,2.59Z"/>
      <path class="cls-2" d="m65.7,19.47c1.05,1.05,2.27,1.87,3.62,2.44,1.41.59,2.9.9,4.44.9,1.41,0,2.78-.25,4.08-.75.33-.13.55-.44.55-.8s-.22-.67-.55-.8c-3.72-1.43-6.23-5.07-6.23-9.06s2.5-7.63,6.23-9.06c.33-.13.55-.44.55-.8s-.22-.67-.55-.8c-1.3-.5-2.68-.75-4.08-.75-1.54,0-3.03.3-4.44.9-1.36.57-2.58,1.4-3.62,2.44-1.05,1.05-1.87,2.27-2.44,3.62-.59,1.41-.9,2.9-.9,4.44s.3,3.03.9,4.44c.57,1.36,1.4,2.58,2.44,3.62ZM73.76,1.7c.47,0,.94.03,1.4.1-1.24.8-2.33,1.84-3.19,3.07-1.34,1.92-2.06,4.18-2.06,6.53s.71,4.61,2.06,6.53c.86,1.23,1.94,2.27,3.19,3.07-.46.07-.93.1-1.4.1-5.35,0-9.7-4.35-9.7-9.7s4.35-9.7,9.7-9.7Z"/>
    </g>
  </g>
</svg>