<?xml version="1.0" encoding="UTF-8"?>
<svg id="_レイヤー_2" data-name="レイヤー 2" xmlns="http://www.w3.org/2000/svg" xmlns:xlink="http://www.w3.org/1999/xlink" viewBox="0 0 181.39 136.79">
  <defs>
    <style>
      .cls-1 {
        fill: url(#_名称未設定グラデーション_4-2);
      }

      .cls-1, .cls-2, .cls-3, .cls-4, .cls-5, .cls-6, .cls-7, .cls-8, .cls-9, .cls-10, .cls-11, .cls-12, .cls-13, .cls-14, .cls-15, .cls-16, .cls-17 {
        stroke-width: 0px;
      }

      .cls-18 {
        opacity: .5;
      }

      .cls-2 {
        fill: url(#_名称未設定グラデーション_4-14);
      }

      .cls-3 {
        fill: url(#_名称未設定グラデーション_4-9);
      }

      .cls-4 {
        fill: url(#_名称未設定グラデーション_4-16);
      }

      .cls-5 {
        fill: url(#_名称未設定グラデーション_4);
      }

      .cls-6 {
        fill: url(#_名称未設定グラデーション_4-8);
      }

      .cls-7 {
        fill: url(#_名称未設定グラデーション_4-13);
      }

      .cls-8 {
        fill: url(#_名称未設定グラデーション_4-3);
      }

      .cls-9 {
        fill: url(#_名称未設定グラデーション_4-11);
      }

      .cls-10 {
        fill: url(#_名称未設定グラデーション_4-7);
      }

      .cls-11 {
        fill: url(#_名称未設定グラデーション_4-10);
      }

      .cls-12 {
        fill: url(#_名称未設定グラデーション_4-6);
      }

      .cls-13 {
        fill: url(#_名称未設定グラデーション_4-4);
      }

      .cls-14 {
        fill: #386280;
      }

      .cls-15 {
        fill: url(#_名称未設定グラデーション_4-5);
      }

      .cls-16 {
        fill: url(#_名称未設定グラデーション_4-15);
      }

      .cls-17 {
        fill: url(#_名称未設定グラデーション_4-12);
      }
    </style>
    <linearGradient id="_名称未設定グラデーション_4" data-name="名称未設定グラデーション 4" x1="-87.3" y1="274.21" x2="27.82" y2="-37.43" gradientUnits="userSpaceOnUse">
      <stop offset="0" stop-color="#c9ddf1"/>
      <stop offset=".06" stop-color="#c1daef" stop-opacity=".97"/>
      <stop offset=".15" stop-color="#add2ec" stop-opacity=".89"/>
      <stop offset=".26" stop-color="#8cc5e6" stop-opacity=".75"/>
      <stop offset=".38" stop-color="#5fb2df" stop-opacity=".57"/>
      <stop offset=".52" stop-color="#259cd5" stop-opacity=".33"/>
      <stop offset=".54" stop-color="#1e99d4" stop-opacity=".3"/>
      <stop offset=".76" stop-color="#0075bb"/>
      <stop offset=".96" stop-color="#005b94"/>
    </linearGradient>
    <linearGradient id="_名称未設定グラデーション_4-2" data-name="名称未設定グラデーション 4" x1="-54.56" y1="286.31" x2="60.56" y2="-25.34" xlink:href="#_名称未設定グラデーション_4"/>
    <linearGradient id="_名称未設定グラデーション_4-3" data-name="名称未設定グラデーション 4" x1="-24.08" y1="297.57" x2="91.05" y2="-14.08" xlink:href="#_名称未設定グラデーション_4"/>
    <linearGradient id="_名称未設定グラデーション_4-4" data-name="名称未設定グラデーション 4" x1="3.74" y1="307.84" x2="118.86" y2="-3.8" xlink:href="#_名称未設定グラデーション_4"/>
    <linearGradient id="_名称未設定グラデーション_4-5" data-name="名称未設定グラデーション 4" x1="26.04" y1="316.08" x2="141.16" y2="4.44" xlink:href="#_名称未設定グラデーション_4"/>
    <linearGradient id="_名称未設定グラデーション_4-6" data-name="名称未設定グラデーション 4" x1="46.86" y1="323.77" x2="161.99" y2="12.13" xlink:href="#_名称未設定グラデーション_4"/>
    <linearGradient id="_名称未設定グラデーション_4-7" data-name="名称未設定グラデーション 4" x1="-61.36" y1="283.8" x2="53.77" y2="-27.85" xlink:href="#_名称未設定グラデーション_4"/>
    <linearGradient id="_名称未設定グラデーション_4-8" data-name="名称未設定グラデーション 4" x1="-27.52" y1="296.3" x2="87.61" y2="-15.35" xlink:href="#_名称未設定グラデーション_4"/>
    <linearGradient id="_名称未設定グラデーション_4-9" data-name="名称未設定グラデーション 4" x1="3.44" y1="307.73" x2="118.57" y2="-3.91" xlink:href="#_名称未設定グラデーション_4"/>
    <linearGradient id="_名称未設定グラデーション_4-10" data-name="名称未設定グラデーション 4" x1="33.08" y1="318.68" x2="148.2" y2="7.04" xlink:href="#_名称未設定グラデーション_4"/>
    <linearGradient id="_名称未設定グラデーション_4-11" data-name="名称未設定グラデーション 4" x1="59.47" y1="328.43" x2="174.6" y2="16.79" xlink:href="#_名称未設定グラデーション_4"/>
    <linearGradient id="_名称未設定グラデーション_4-12" data-name="名称未設定グラデーション 4" x1="-50.15" y1="287.94" x2="64.97" y2="-23.71" xlink:href="#_名称未設定グラデーション_4"/>
    <linearGradient id="_名称未設定グラデーション_4-13" data-name="名称未設定グラデーション 4" x1="-23.9" y1="297.63" x2="91.22" y2="-14.01" xlink:href="#_名称未設定グラデーション_4"/>
    <linearGradient id="_名称未設定グラデーション_4-14" data-name="名称未設定グラデーション 4" x1="6.83" y1="308.98" x2="121.95" y2="-2.66" xlink:href="#_名称未設定グラデーション_4"/>
    <linearGradient id="_名称未設定グラデーション_4-15" data-name="名称未設定グラデーション 4" x1="32.45" y1="318.45" x2="147.57" y2="6.8" xlink:href="#_名称未設定グラデーション_4"/>
    <linearGradient id="_名称未設定グラデーション_4-16" data-name="名称未設定グラデーション 4" x1="61.2" y1="329.07" x2="176.33" y2="17.43" xlink:href="#_名称未設定グラデーション_4"/>
  </defs>
  <g id="design">
    <g>
      <g>
        <path class="cls-14" d="m10.05,15.28v9.35c0,1.59.09,2.77.26,3.53s.5,1.39.98,1.91c.42.45.92.79,1.49,1s1.3.34,2.19.39v.54H0v-.54c.75,0,1.46-.12,2.13-.36s1.2-.57,1.57-.97c.44-.48.75-1.15.94-1.99s.28-2.01.28-3.49V7.36c0-1-.05-2.04-.16-3.12-.16-1.38-.83-2.4-2.02-3.07-.66-.36-1.57-.57-2.74-.63v-.54h24.49l.68,7.62-.54.12c-.39-1.19-.75-2.08-1.08-2.67-.73-1.36-1.77-2.41-3.09-3.16-.77-.44-1.65-.74-2.65-.91s-2.38-.26-4.12-.26h-3.63v13.83h.94c2.77,0,4.77-.62,6.02-1.85.55-.53.96-1.16,1.24-1.89s.47-1.68.56-2.85l.54.02-.14,14.2h-.56c-.17-1.59-.46-2.82-.88-3.69s-1.04-1.57-1.89-2.1c-.62-.39-1.39-.68-2.31-.86s-2.09-.27-3.53-.27Z"/>
        <path class="cls-14" d="m56.6,31.99h-15.4v-.54c1.39-.12,2.36-.36,2.91-.7.97-.61,1.45-1.45,1.45-2.53,0-.64-.22-1.5-.66-2.58l-.4-.98-2.25-5.53h-10.31l-1.22,3.23-.59,1.45c-.7,1.72-1.05,3.07-1.05,4.05,0,.58.13,1.12.39,1.62s.61.91,1.04,1.22c.61.42,1.39.67,2.34.75v.54h-10.5v-.54c.83-.05,1.55-.25,2.18-.61s1.23-.94,1.83-1.73c.5-.64.99-1.46,1.46-2.47s1.11-2.52,1.89-4.54L38.3,0h1.34l10.2,24.63c.77,1.86,1.38,3.19,1.83,3.98s.95,1.4,1.48,1.8c.38.28.8.5,1.29.64s1.21.28,2.18.39v.54Zm-14.72-13.83l-4.92-12.14-4.64,12.14h9.56Z"/>
        <path class="cls-14" d="m100.17.54c-.89.05-1.61.17-2.14.36s-1.04.52-1.49.97c-.34.33-.6.69-.77,1.09s-.29.9-.35,1.51c-.11.81-.16,1.77-.16,2.88v17.27c0,1.61.09,2.8.28,3.59s.52,1.41,1.01,1.88c.86.83,2.07,1.28,3.63,1.36v.54h-14.98v-.54c.91-.05,1.64-.18,2.19-.39s1.05-.54,1.49-.97c.48-.5.82-1.14,1-1.91s.27-1.96.27-3.55V3.68l-12.07,28.31h-.49l-12-27.89v20.53c0,1.61.09,2.8.27,3.56s.51,1.4,1,1.9c.44.45.93.78,1.49.98s1.28.33,2.17.38v.54h-10.8v-.54c.89-.05,1.61-.17,2.17-.38s1.05-.53,1.49-.98c.48-.5.82-1.14,1-1.91s.27-1.96.27-3.55V7.36c0-.72-.02-1.4-.07-2.04-.08-1.16-.26-2-.54-2.53-.39-.73-.93-1.28-1.61-1.63s-1.58-.56-2.71-.62v-.54h10.17l10.15,25.05L90.54,0h9.63v.54Z"/>
        <path class="cls-14" d="m119.04,0v.54c-.89.05-1.61.17-2.17.38s-1.05.53-1.49.98c-.61.62-.98,1.49-1.12,2.6-.09.83-.14,1.78-.14,2.86v17.27c0,1.3.06,2.32.19,3.07s.33,1.35.61,1.8c.41.62.93,1.09,1.57,1.39s1.49.49,2.55.55v.54h-14.98v-.54c.91-.05,1.64-.18,2.19-.39s1.04-.54,1.46-.97c.5-.5.84-1.13,1.01-1.9s.26-1.95.26-3.56V7.36c0-1.61-.09-2.8-.26-3.56s-.51-1.4-1.01-1.9c-.42-.45-.91-.78-1.48-.98s-1.29-.33-2.18-.38v-.54h14.98Z"/>
        <path class="cls-14" d="m122.9,31.99v-.56c1.58,0,2.8-.45,3.66-1.34.48-.5.82-1.14,1-1.91s.27-1.96.27-3.55V7.36c0-1.66-.1-2.88-.29-3.67s-.56-1.43-1.09-1.93c-.44-.41-.93-.7-1.46-.89s-1.23-.3-2.07-.33v-.54h14.98v.54c-.86.05-1.56.16-2.11.35s-1.03.48-1.45.89c-.53.52-.89,1.16-1.08,1.95s-.28,1.99-.28,3.63v13.52c0,2.08.05,3.62.16,4.64s.32,1.84.63,2.48c.55,1.12,1.36,1.95,2.44,2.47s2.51.79,4.29.79,3.43-.25,4.7-.74,2.32-1.25,3.13-2.29c.55-.7,1-1.5,1.35-2.39s.68-2.06.97-3.52l.56.05-.3,9.61h-27.98Z"/>
        <path class="cls-14" d="m157.86,31.99v-.54c.89-.05,1.62-.17,2.18-.38s1.06-.53,1.5-.98c.48-.5.81-1.13.98-1.9s.26-1.95.26-3.56l.02-4.57c0-.66-.13-1.38-.4-2.18-.3-.92-.91-2.08-1.83-3.47l-6.07-9.12-1.08-1.64c-.8-1.19-1.58-2-2.34-2.44-.39-.23-.78-.4-1.17-.49s-.94-.16-1.64-.19v-.54h15.28v.54c-1.3.08-2.12.2-2.48.35-.88.38-1.31,1.05-1.31,2.04,0,.36.1.77.29,1.22s.51,1.02.95,1.71l6.35,9.94,5.44-8.48.61-.96c.58-.91.87-1.8.87-2.67,0-1-.32-1.77-.96-2.32s-1.54-.82-2.7-.82v-.54h10.78v.54c-.81.09-1.44.23-1.88.41s-.88.47-1.34.88c-1.06,1-2.24,2.49-3.54,4.48l-5.34,8.16c-.64.97-1.03,1.68-1.17,2.13s-.21,1.22-.21,2.3v5.74c0,1.67.08,2.87.25,3.6s.5,1.35,1,1.86c.86.91,2.09,1.36,3.68,1.36v.54h-14.98Z"/>
        <path class="cls-14" d="m10.05,66.88h16.64v-7.52c0-1.61-.09-2.8-.27-3.56s-.51-1.4-1-1.9c-.44-.45-.93-.78-1.49-.98s-1.29-.33-2.19-.38v-.54h14.98v.54c-.89.05-1.61.17-2.17.38s-1.05.53-1.49.98c-.48.5-.82,1.14-1,1.91s-.27,1.96-.27,3.55v17.27c0,1.59.09,2.77.27,3.54s.51,1.41,1,1.92c.44.44.93.76,1.49.97s1.28.34,2.17.39v.54h-14.98v-.54c.91-.05,1.64-.18,2.19-.39s1.05-.54,1.49-.97c.48-.5.82-1.13,1-1.9s.27-1.95.27-3.56v-8.65H10.05v8.65c0,1.59.09,2.78.27,3.55s.51,1.41,1,1.91c.42.44.91.76,1.46.97s1.29.34,2.19.39v.54H0v-.54c.91-.05,1.64-.18,2.19-.39s1.04-.54,1.46-.97c.5-.5.84-1.13,1.01-1.9s.26-1.95.26-3.56v-17.27c0-1.61-.09-2.8-.26-3.56s-.51-1.4-1.01-1.9c-.42-.45-.91-.78-1.48-.98s-1.29-.33-2.18-.38v-.54h14.98v.54c-.89.05-1.61.17-2.17.38s-1.05.53-1.49.98c-.48.5-.82,1.14-1,1.91s-.27,1.96-.27,3.55v7.52Z"/>
        <path class="cls-14" d="m39.6,68.21c0-2.63.56-5.06,1.69-7.31,1.12-2.24,2.77-4.2,4.92-5.88,1.61-1.23,3.34-2.18,5.2-2.85s3.73-1,5.62-1c2.41,0,4.73.53,6.98,1.58,2.25,1.06,4.22,2.54,5.91,4.47,2.75,3.13,4.12,6.68,4.12,10.67,0,2-.36,3.93-1.08,5.79-.72,1.86-1.77,3.56-3.14,5.09-1.69,1.91-3.68,3.39-5.99,4.43s-4.71,1.57-7.23,1.57-4.86-.51-7.12-1.52c-2.27-1.02-4.22-2.46-5.86-4.32-1.3-1.45-2.29-3.11-2.99-4.96s-1.04-3.78-1.04-5.78Zm5.67.35c0,4.53,1.23,8.36,3.7,11.47,1.11,1.39,2.29,2.4,3.53,3.04,1.24.63,2.68.95,4.3.95s3.08-.31,4.32-.94c1.24-.62,2.43-1.64,3.55-3.05,2.47-3.13,3.7-6.98,3.7-11.56,0-2.52-.34-4.9-1.02-7.14-.68-2.24-1.64-4.15-2.87-5.71-1-1.28-2.11-2.22-3.34-2.8s-2.68-.88-4.35-.88-3.09.29-4.3.87c-1.21.58-2.33,1.52-3.36,2.81-1.23,1.55-2.19,3.45-2.86,5.7s-1.01,4.67-1.01,7.25Z"/>
        <path class="cls-14" d="m86.94,68.34v8.3c0,1.59.09,2.78.27,3.55s.51,1.41,1,1.91c.42.44.91.76,1.46.97s1.29.34,2.19.39v.54h-14.98v-.54c.91-.05,1.64-.18,2.19-.39s1.04-.54,1.46-.97c.5-.5.84-1.13,1.01-1.9s.26-1.95.26-3.56v-17.27c0-1.61-.09-2.8-.26-3.56s-.51-1.4-1.01-1.9c-.42-.45-.91-.78-1.48-.98s-1.29-.33-2.18-.38v-.54h11.3c1.89,0,3.13,0,3.73.02,2.42.11,4.32.44,5.7.98,1.55.62,2.75,1.56,3.6,2.8s1.28,2.68,1.28,4.32c0,2.44-.92,4.39-2.77,5.86-.56.44-1.18.8-1.86,1.08s-1.59.55-2.73.8c.94.39,1.63.8,2.09,1.22.36.33.69.74.98,1.23s.74,1.36,1.34,2.61c1.39,2.86,2.44,4.95,3.15,6.27s1.31,2.28,1.79,2.87c.39.48.77.82,1.14,1.01s.87.31,1.51.38v.54h-7.78c-.39-.86-.64-1.41-.75-1.64l-1.64-3.73c-.98-2.23-1.98-4.21-2.98-5.93-1-1.7-1.91-2.87-2.74-3.49-.42-.31-.88-.54-1.36-.67s-1.08-.2-1.78-.2h-1.15Zm0-.52h.89c1.94,0,3.32-.11,4.16-.33s1.62-.67,2.36-1.36c1.64-1.56,2.46-3.5,2.46-5.81,0-1.23-.24-2.39-.71-3.48s-1.14-1.98-1.98-2.68c-.66-.53-1.44-.9-2.34-1.11s-2.2-.32-3.87-.32h-.96v15.09Z"/>
        <path class="cls-14" d="m108.46,68.21c0-2.63.56-5.06,1.69-7.31,1.12-2.24,2.77-4.2,4.92-5.88,1.61-1.23,3.34-2.18,5.2-2.85s3.73-1,5.62-1c2.41,0,4.73.53,6.98,1.58,2.25,1.06,4.22,2.54,5.91,4.47,2.75,3.13,4.12,6.68,4.12,10.67,0,2-.36,3.93-1.08,5.79-.72,1.86-1.77,3.56-3.14,5.09-1.69,1.91-3.68,3.39-5.99,4.43s-4.71,1.57-7.23,1.57-4.86-.51-7.12-1.52c-2.27-1.02-4.22-2.46-5.86-4.32-1.3-1.45-2.29-3.11-2.99-4.96s-1.04-3.78-1.04-5.78Zm5.67.35c0,4.53,1.23,8.36,3.7,11.47,1.11,1.39,2.29,2.4,3.53,3.04,1.24.63,2.68.95,4.3.95s3.08-.31,4.32-.94c1.24-.62,2.43-1.64,3.55-3.05,2.47-3.13,3.7-6.98,3.7-11.56,0-2.52-.34-4.9-1.02-7.14-.68-2.24-1.64-4.15-2.87-5.71-1-1.28-2.11-2.22-3.34-2.8s-2.68-.88-4.35-.88-3.09.29-4.3.87c-1.21.58-2.33,1.52-3.36,2.81-1.23,1.55-2.19,3.45-2.86,5.7s-1.01,4.67-1.01,7.25Z"/>
        <path class="cls-14" d="m148.3,72.06h10.45v3.52h-10.45v-3.52Z"/>
        <path class="cls-14" d="m1.15,135.9l.07-9.68.54.02c.66,2.46,1.44,4.4,2.34,5.82,1.7,2.62,3.84,3.93,6.42,3.93,1.8,0,3.28-.6,4.45-1.8s1.76-2.73,1.76-4.57c0-.8-.13-1.61-.39-2.44s-.61-1.54-1.04-2.13c-.45-.61-1.09-1.2-1.91-1.76s-2.07-1.27-3.76-2.13c-1.48-.75-2.62-1.38-3.41-1.9s-1.43-1.04-1.91-1.57c-1.34-1.47-2.02-3.26-2.02-5.37,0-1.3.26-2.55.79-3.75s1.25-2.23,2.19-3.09c1.66-1.53,3.62-2.3,5.88-2.3.73,0,1.41.07,2.04.22s1.46.44,2.51.88c.78.31,1.31.51,1.59.6s.53.13.75.13c.55,0,.91-.4,1.1-1.2h.54l.16,9.3h-.54c-.42-1.48-.78-2.62-1.09-3.41-.3-.79-.67-1.52-1.09-2.19-.76-1.22-1.61-2.12-2.53-2.71-.92-.59-1.98-.88-3.18-.88-1.75,0-3.13.59-4.14,1.78-.42.48-.75,1.06-1,1.71-.24.66-.36,1.31-.36,1.97,0,2.61,1.68,4.72,5.03,6.31l3.3,1.6c2.54,1.2,4.38,2.53,5.5,3.99,1.28,1.63,1.92,3.52,1.92,5.68,0,1.43-.29,2.81-.87,4.12-.81,1.82-2.03,3.23-3.66,4.22-1.62.99-3.54,1.48-5.74,1.48-2.02,0-3.95-.4-5.81-1.2-.97-.42-1.55-.66-1.73-.73s-.4-.09-.63-.09c-.75,0-1.27.38-1.55,1.12h-.54Z"/>
        <path class="cls-14" d="m54.33,103.84l.28,10.48h-.54c-.17-.45-.3-.8-.4-1.03-.55-1.5-.99-2.62-1.34-3.35-.61-1.31-1.49-2.52-2.65-3.61-.88-.83-1.78-1.43-2.72-1.8s-1.99-.56-3.16-.56c-1.77,0-3.3.38-4.59,1.15-1.14.67-2.2,1.64-3.19,2.89s-1.79,2.69-2.41,4.3c-.89,2.27-1.34,4.84-1.34,7.73,0,2.45.3,4.66.91,6.63s1.5,3.62,2.67,4.95c2.16,2.47,5.02,3.7,8.58,3.7,1.78,0,3.38-.31,4.8-.93s2.52-1.49,3.3-2.61c.91-1.3,1.56-3.05,1.97-5.25l.54.09c-.3,2.47-.97,4.43-2.02,5.88-1,1.39-2.38,2.45-4.14,3.19s-3.79,1.1-6.11,1.1c-2.16,0-4.22-.32-6.19-.96-3.14-1.03-5.59-2.89-7.36-5.59s-2.65-5.91-2.65-9.64c0-2.86.52-5.5,1.55-7.91s2.47-4.36,4.31-5.82c1.42-1.12,3.12-2.02,5.1-2.68s3.96-1,5.94-1,3.89.36,6,1.08l1.92.63c.38.14.7.21.98.21.39,0,.71-.16.96-.49.11-.16.24-.41.4-.77h.56Z"/>
        <path class="cls-14" d="m59.42,120.21c0-2.63.56-5.06,1.69-7.31,1.12-2.24,2.77-4.2,4.92-5.88,1.61-1.23,3.34-2.18,5.2-2.85s3.73-1,5.62-1c2.41,0,4.73.53,6.98,1.58,2.25,1.06,4.22,2.54,5.91,4.47,2.75,3.13,4.12,6.68,4.12,10.67,0,2-.36,3.93-1.08,5.79-.72,1.86-1.77,3.56-3.14,5.09-1.69,1.91-3.68,3.39-5.99,4.43s-4.71,1.57-7.23,1.57-4.86-.51-7.12-1.52c-2.27-1.02-4.22-2.46-5.86-4.32-1.3-1.45-2.29-3.11-2.99-4.96s-1.04-3.78-1.04-5.78Zm5.67.35c0,4.53,1.23,8.36,3.7,11.47,1.11,1.39,2.29,2.4,3.53,3.04,1.24.63,2.68.95,4.3.95s3.08-.31,4.32-.94c1.24-.62,2.43-1.64,3.55-3.05,2.47-3.13,3.7-6.98,3.7-11.56,0-2.52-.34-4.9-1.02-7.14-.68-2.24-1.64-4.15-2.87-5.71-1-1.28-2.11-2.22-3.34-2.8s-2.68-.88-4.35-.88-3.09.29-4.3.87c-1.21.58-2.33,1.52-3.36,2.81-1.23,1.55-2.19,3.45-2.86,5.7s-1.01,4.67-1.01,7.25Z"/>
        <path class="cls-14" d="m106.76,120.22v8.41c0,1.59.09,2.78.27,3.55s.51,1.41,1,1.91c.42.44.91.76,1.46.97s1.29.34,2.19.39v.54h-14.98v-.54c.91-.05,1.64-.18,2.19-.39s1.04-.54,1.46-.97c.5-.5.84-1.13,1.01-1.9s.26-1.95.26-3.56v-17.27c0-1.34-.06-2.38-.18-3.11s-.32-1.32-.6-1.77c-.41-.62-.92-1.09-1.55-1.39s-1.44-.49-2.44-.55h-.16v-.54h14.13c2.47,0,4.29.12,5.46.38s2.24.75,3.21,1.5c2.22,1.69,3.33,3.94,3.33,6.75s-1.12,4.95-3.38,6.28c-1.17.69-2.59,1.1-4.27,1.24-.53.05-1.81.07-3.84.07h-4.59Zm0-.75h2.3c1.55,0,2.74-.11,3.57-.34s1.58-.64,2.24-1.25c1.53-1.39,2.3-3.24,2.3-5.55,0-1.28-.22-2.46-.67-3.53s-1.08-1.94-1.91-2.61c-.95-.8-2.09-1.27-3.4-1.41-.36-.03-1.18-.05-2.46-.05h-1.97v14.74Z"/>
        <path class="cls-14" d="m149.65,104l.4,7.73-.54.02c-.2-1.31-.54-2.4-1.01-3.26s-1.15-1.62-2.04-2.27c-.73-.55-1.6-.93-2.6-1.16s-2.33-.34-3.98-.34h-5.37v14.06h1.41c1.42,0,2.49-.09,3.21-.28s1.3-.52,1.76-1.01c.44-.45.76-.99.97-1.61s.39-1.53.53-2.73l.54.02-.09,12.56h-.54c-.14-1.2-.35-2.17-.62-2.91s-.65-1.36-1.14-1.88c-.47-.5-1.08-.87-1.83-1.1s-1.7-.35-2.86-.35h-1.34v5.37c0,2.14.05,3.7.16,4.68s.32,1.79.63,2.45c.53,1.12,1.34,1.95,2.43,2.47s2.52.79,4.3.79c1.88,0,3.45-.24,4.71-.71s2.3-1.21,3.09-2.21c.56-.67,1.02-1.44,1.37-2.3s.68-1.99.97-3.4l.54.02-.3,9.33h-27.96v-.54c.89-.05,1.61-.17,2.17-.38s1.05-.53,1.49-.98c.48-.5.82-1.14,1-1.91s.27-1.96.27-3.55v-17.27c0-1.59-.09-2.78-.27-3.55s-.51-1.41-1-1.91c-.42-.45-.91-.78-1.46-.98s-1.29-.33-2.19-.38v-.54h25.2Z"/>
      </g>
      <g class="cls-18">
        <path class="cls-5" d="m10.05,15.28v9.35c0,1.59.09,2.77.26,3.53s.5,1.39.98,1.91c.42.45.92.79,1.49,1s1.3.34,2.19.39v.54H0v-.54c.75,0,1.46-.12,2.13-.36s1.2-.57,1.57-.97c.44-.48.75-1.15.94-1.99s.28-2.01.28-3.49V7.36c0-1-.05-2.04-.16-3.12-.16-1.38-.83-2.4-2.02-3.07-.66-.36-1.57-.57-2.74-.63v-.54h24.49l.68,7.62-.54.12c-.39-1.19-.75-2.08-1.08-2.67-.73-1.36-1.77-2.41-3.09-3.16-.77-.44-1.65-.74-2.65-.91s-2.38-.26-4.12-.26h-3.63v13.83h.94c2.77,0,4.77-.62,6.02-1.85.55-.53.96-1.16,1.24-1.89s.47-1.68.56-2.85l.54.02-.14,14.2h-.56c-.17-1.59-.46-2.82-.88-3.69s-1.04-1.57-1.89-2.1c-.62-.39-1.39-.68-2.31-.86s-2.09-.27-3.53-.27Z"/>
        <path class="cls-1" d="m56.6,31.99h-15.4v-.54c1.39-.12,2.36-.36,2.91-.7.97-.61,1.45-1.45,1.45-2.53,0-.64-.22-1.5-.66-2.58l-.4-.98-2.25-5.53h-10.31l-1.22,3.23-.59,1.45c-.7,1.72-1.05,3.07-1.05,4.05,0,.58.13,1.12.39,1.62s.61.91,1.04,1.22c.61.42,1.39.67,2.34.75v.54h-10.5v-.54c.83-.05,1.55-.25,2.18-.61s1.23-.94,1.83-1.73c.5-.64.99-1.46,1.46-2.47s1.11-2.52,1.89-4.54L38.3,0h1.34l10.2,24.63c.77,1.86,1.38,3.19,1.83,3.98s.95,1.4,1.48,1.8c.38.28.8.5,1.29.64s1.21.28,2.18.39v.54Zm-14.72-13.83l-4.92-12.14-4.64,12.14h9.56Z"/>
        <path class="cls-8" d="m100.17.54c-.89.05-1.61.17-2.14.36s-1.04.52-1.49.97c-.34.33-.6.69-.77,1.09s-.29.9-.35,1.51c-.11.81-.16,1.77-.16,2.88v17.27c0,1.61.09,2.8.28,3.59s.52,1.41,1.01,1.88c.86.83,2.07,1.28,3.63,1.36v.54h-14.98v-.54c.91-.05,1.64-.18,2.19-.39s1.05-.54,1.49-.97c.48-.5.82-1.14,1-1.91s.27-1.96.27-3.55V3.68l-12.07,28.31h-.49l-12-27.89v20.53c0,1.61.09,2.8.27,3.56s.51,1.4,1,1.9c.44.45.93.78,1.49.98s1.28.33,2.17.38v.54h-10.8v-.54c.89-.05,1.61-.17,2.17-.38s1.05-.53,1.49-.98c.48-.5.82-1.14,1-1.91s.27-1.96.27-3.55V7.36c0-.72-.02-1.4-.07-2.04-.08-1.16-.26-2-.54-2.53-.39-.73-.93-1.28-1.61-1.63s-1.58-.56-2.71-.62v-.54h10.17l10.15,25.05L90.54,0h9.63v.54Z"/>
        <path class="cls-13" d="m119.04,0v.54c-.89.05-1.61.17-2.17.38s-1.05.53-1.49.98c-.61.62-.98,1.49-1.12,2.6-.09.83-.14,1.78-.14,2.86v17.27c0,1.3.06,2.32.19,3.07s.33,1.35.61,1.8c.41.62.93,1.09,1.57,1.39s1.49.49,2.55.55v.54h-14.98v-.54c.91-.05,1.64-.18,2.19-.39s1.04-.54,1.46-.97c.5-.5.84-1.13,1.01-1.9s.26-1.95.26-3.56V7.36c0-1.61-.09-2.8-.26-3.56s-.51-1.4-1.01-1.9c-.42-.45-.91-.78-1.48-.98s-1.29-.33-2.18-.38v-.54h14.98Z"/>
        <path class="cls-15" d="m122.9,31.99v-.56c1.58,0,2.8-.45,3.66-1.34.48-.5.82-1.14,1-1.91s.27-1.96.27-3.55V7.36c0-1.66-.1-2.88-.29-3.67s-.56-1.43-1.09-1.93c-.44-.41-.93-.7-1.46-.89s-1.23-.3-2.07-.33v-.54h14.98v.54c-.86.05-1.56.16-2.11.35s-1.03.48-1.45.89c-.53.52-.89,1.16-1.08,1.95s-.28,1.99-.28,3.63v13.52c0,2.08.05,3.62.16,4.64s.32,1.84.63,2.48c.55,1.12,1.36,1.95,2.44,2.47s2.51.79,4.29.79,3.43-.25,4.7-.74,2.32-1.25,3.13-2.29c.55-.7,1-1.5,1.35-2.39s.68-2.06.97-3.52l.56.05-.3,9.61h-27.98Z"/>
        <path class="cls-12" d="m157.86,31.99v-.54c.89-.05,1.62-.17,2.18-.38s1.06-.53,1.5-.98c.48-.5.81-1.13.98-1.9s.26-1.95.26-3.56l.02-4.57c0-.66-.13-1.38-.4-2.18-.3-.92-.91-2.08-1.83-3.47l-6.07-9.12-1.08-1.64c-.8-1.19-1.58-2-2.34-2.44-.39-.23-.78-.4-1.17-.49s-.94-.16-1.64-.19v-.54h15.28v.54c-1.3.08-2.12.2-2.48.35-.88.38-1.31,1.05-1.31,2.04,0,.36.1.77.29,1.22s.51,1.02.95,1.71l6.35,9.94,5.44-8.48.61-.96c.58-.91.87-1.8.87-2.67,0-1-.32-1.77-.96-2.32s-1.54-.82-2.7-.82v-.54h10.78v.54c-.81.09-1.44.23-1.88.41s-.88.47-1.34.88c-1.06,1-2.24,2.49-3.54,4.48l-5.34,8.16c-.64.97-1.03,1.68-1.17,2.13s-.21,1.22-.21,2.3v5.74c0,1.67.08,2.87.25,3.6s.5,1.35,1,1.86c.86.91,2.09,1.36,3.68,1.36v.54h-14.98Z"/>
        <path class="cls-10" d="m10.05,66.88h16.64v-7.52c0-1.61-.09-2.8-.27-3.56s-.51-1.4-1-1.9c-.44-.45-.93-.78-1.49-.98s-1.29-.33-2.19-.38v-.54h14.98v.54c-.89.05-1.61.17-2.17.38s-1.05.53-1.49.98c-.48.5-.82,1.14-1,1.91s-.27,1.96-.27,3.55v17.27c0,1.59.09,2.77.27,3.54s.51,1.41,1,1.92c.44.44.93.76,1.49.97s1.28.34,2.17.39v.54h-14.98v-.54c.91-.05,1.64-.18,2.19-.39s1.05-.54,1.49-.97c.48-.5.82-1.13,1-1.9s.27-1.95.27-3.56v-8.65H10.05v8.65c0,1.59.09,2.78.27,3.55s.51,1.41,1,1.91c.42.44.91.76,1.46.97s1.29.34,2.19.39v.54H0v-.54c.91-.05,1.64-.18,2.19-.39s1.04-.54,1.46-.97c.5-.5.84-1.13,1.01-1.9s.26-1.95.26-3.56v-17.27c0-1.61-.09-2.8-.26-3.56s-.51-1.4-1.01-1.9c-.42-.45-.91-.78-1.48-.98s-1.29-.33-2.18-.38v-.54h14.98v.54c-.89.05-1.61.17-2.17.38s-1.05.53-1.49.98c-.48.5-.82,1.14-1,1.91s-.27,1.96-.27,3.55v7.52Z"/>
        <path class="cls-6" d="m39.6,68.21c0-2.63.56-5.06,1.69-7.31,1.12-2.24,2.77-4.2,4.92-5.88,1.61-1.23,3.34-2.18,5.2-2.85s3.73-1,5.62-1c2.41,0,4.73.53,6.98,1.58,2.25,1.06,4.22,2.54,5.91,4.47,2.75,3.13,4.12,6.68,4.12,10.67,0,2-.36,3.93-1.08,5.79-.72,1.86-1.77,3.56-3.14,5.09-1.69,1.91-3.68,3.39-5.99,4.43s-4.71,1.57-7.23,1.57-4.86-.51-7.12-1.52c-2.27-1.02-4.22-2.46-5.86-4.32-1.3-1.45-2.29-3.11-2.99-4.96s-1.04-3.78-1.04-5.78Zm5.67.35c0,4.53,1.23,8.36,3.7,11.47,1.11,1.39,2.29,2.4,3.53,3.04,1.24.63,2.68.95,4.3.95s3.08-.31,4.32-.94c1.24-.62,2.43-1.64,3.55-3.05,2.47-3.13,3.7-6.98,3.7-11.56,0-2.52-.34-4.9-1.02-7.14-.68-2.24-1.64-4.15-2.87-5.71-1-1.28-2.11-2.22-3.34-2.8s-2.68-.88-4.35-.88-3.09.29-4.3.87c-1.21.58-2.33,1.52-3.36,2.81-1.23,1.55-2.19,3.45-2.86,5.7s-1.01,4.67-1.01,7.25Z"/>
        <path class="cls-3" d="m86.94,68.34v8.3c0,1.59.09,2.78.27,3.55s.51,1.41,1,1.91c.42.44.91.76,1.46.97s1.29.34,2.19.39v.54h-14.98v-.54c.91-.05,1.64-.18,2.19-.39s1.04-.54,1.46-.97c.5-.5.84-1.13,1.01-1.9s.26-1.95.26-3.56v-17.27c0-1.61-.09-2.8-.26-3.56s-.51-1.4-1.01-1.9c-.42-.45-.91-.78-1.48-.98s-1.29-.33-2.18-.38v-.54h11.3c1.89,0,3.13,0,3.73.02,2.42.11,4.32.44,5.7.98,1.55.62,2.75,1.56,3.6,2.8s1.28,2.68,1.28,4.32c0,2.44-.92,4.39-2.77,5.86-.56.44-1.18.8-1.86,1.08s-1.59.55-2.73.8c.94.39,1.63.8,2.09,1.22.36.33.69.74.98,1.23s.74,1.36,1.34,2.61c1.39,2.86,2.44,4.95,3.15,6.27s1.31,2.28,1.79,2.87c.39.48.77.82,1.14,1.01s.87.31,1.51.38v.54h-7.78c-.39-.86-.64-1.41-.75-1.64l-1.64-3.73c-.98-2.23-1.98-4.21-2.98-5.93-1-1.7-1.91-2.87-2.74-3.49-.42-.31-.88-.54-1.36-.67s-1.08-.2-1.78-.2h-1.15Zm0-.52h.89c1.94,0,3.32-.11,4.16-.33s1.62-.67,2.36-1.36c1.64-1.56,2.46-3.5,2.46-5.81,0-1.23-.24-2.39-.71-3.48s-1.14-1.98-1.98-2.68c-.66-.53-1.44-.9-2.34-1.11s-2.2-.32-3.87-.32h-.96v15.09Z"/>
        <path class="cls-11" d="m108.46,68.21c0-2.63.56-5.06,1.69-7.31,1.12-2.24,2.77-4.2,4.92-5.88,1.61-1.23,3.34-2.18,5.2-2.85s3.73-1,5.62-1c2.41,0,4.73.53,6.98,1.58,2.25,1.06,4.22,2.54,5.91,4.47,2.75,3.13,4.12,6.68,4.12,10.67,0,2-.36,3.93-1.08,5.79-.72,1.86-1.77,3.56-3.14,5.09-1.69,1.91-3.68,3.39-5.99,4.43s-4.71,1.57-7.23,1.57-4.86-.51-7.12-1.52c-2.27-1.02-4.22-2.46-5.86-4.32-1.3-1.45-2.29-3.11-2.99-4.96s-1.04-3.78-1.04-5.78Zm5.67.35c0,4.53,1.23,8.36,3.7,11.47,1.11,1.39,2.29,2.4,3.53,3.04,1.24.63,2.68.95,4.3.95s3.08-.31,4.32-.94c1.24-.62,2.43-1.64,3.55-3.05,2.47-3.13,3.7-6.98,3.7-11.56,0-2.52-.34-4.9-1.02-7.14-.68-2.24-1.64-4.15-2.87-5.71-1-1.28-2.11-2.22-3.34-2.8s-2.68-.88-4.35-.88-3.09.29-4.3.87c-1.21.58-2.33,1.52-3.36,2.81-1.23,1.55-2.19,3.45-2.86,5.7s-1.01,4.67-1.01,7.25Z"/>
        <path class="cls-9" d="m148.3,72.06h10.45v3.52h-10.45v-3.52Z"/>
        <path class="cls-17" d="m1.15,135.9l.07-9.68.54.02c.66,2.46,1.44,4.4,2.34,5.82,1.7,2.62,3.84,3.93,6.42,3.93,1.8,0,3.28-.6,4.45-1.8s1.76-2.73,1.76-4.57c0-.8-.13-1.61-.39-2.44s-.61-1.54-1.04-2.13c-.45-.61-1.09-1.2-1.91-1.76s-2.07-1.27-3.76-2.13c-1.48-.75-2.62-1.38-3.41-1.9s-1.43-1.04-1.91-1.57c-1.34-1.47-2.02-3.26-2.02-5.37,0-1.3.26-2.55.79-3.75s1.25-2.23,2.19-3.09c1.66-1.53,3.62-2.3,5.88-2.3.73,0,1.41.07,2.04.22s1.46.44,2.51.88c.78.31,1.31.51,1.59.6s.53.13.75.13c.55,0,.91-.4,1.1-1.2h.54l.16,9.3h-.54c-.42-1.48-.78-2.62-1.09-3.41-.3-.79-.67-1.52-1.09-2.19-.76-1.22-1.61-2.12-2.53-2.71-.92-.59-1.98-.88-3.18-.88-1.75,0-3.13.59-4.14,1.78-.42.48-.75,1.06-1,1.71-.24.66-.36,1.31-.36,1.97,0,2.61,1.68,4.72,5.03,6.31l3.3,1.6c2.54,1.2,4.38,2.53,5.5,3.99,1.28,1.63,1.92,3.52,1.92,5.68,0,1.43-.29,2.81-.87,4.12-.81,1.82-2.03,3.23-3.66,4.22-1.62.99-3.54,1.48-5.74,1.48-2.02,0-3.95-.4-5.81-1.2-.97-.42-1.55-.66-1.73-.73s-.4-.09-.63-.09c-.75,0-1.27.38-1.55,1.12h-.54Z"/>
        <path class="cls-7" d="m54.33,103.84l.28,10.48h-.54c-.17-.45-.3-.8-.4-1.03-.55-1.5-.99-2.62-1.34-3.35-.61-1.31-1.49-2.52-2.65-3.61-.88-.83-1.78-1.43-2.72-1.8s-1.99-.56-3.16-.56c-1.77,0-3.3.38-4.59,1.15-1.14.67-2.2,1.64-3.19,2.89s-1.79,2.69-2.41,4.3c-.89,2.27-1.34,4.84-1.34,7.73,0,2.45.3,4.66.91,6.63s1.5,3.62,2.67,4.95c2.16,2.47,5.02,3.7,8.58,3.7,1.78,0,3.38-.31,4.8-.93s2.52-1.49,3.3-2.61c.91-1.3,1.56-3.05,1.97-5.25l.54.09c-.3,2.47-.97,4.43-2.02,5.88-1,1.39-2.38,2.45-4.14,3.19s-3.79,1.1-6.11,1.1c-2.16,0-4.22-.32-6.19-.96-3.14-1.03-5.59-2.89-7.36-5.59s-2.65-5.91-2.65-9.64c0-2.86.52-5.5,1.55-7.91s2.47-4.36,4.31-5.82c1.42-1.12,3.12-2.02,5.1-2.68s3.96-1,5.94-1,3.89.36,6,1.08l1.92.63c.38.14.7.21.98.21.39,0,.71-.16.96-.49.11-.16.24-.41.4-.77h.56Z"/>
        <path class="cls-2" d="m59.42,120.21c0-2.63.56-5.06,1.69-7.31,1.12-2.24,2.77-4.2,4.92-5.88,1.61-1.23,3.34-2.18,5.2-2.85s3.73-1,5.62-1c2.41,0,4.73.53,6.98,1.58,2.25,1.06,4.22,2.54,5.91,4.47,2.75,3.13,4.12,6.68,4.12,10.67,0,2-.36,3.93-1.08,5.79-.72,1.86-1.77,3.56-3.14,5.09-1.69,1.91-3.68,3.39-5.99,4.43s-4.71,1.57-7.23,1.57-4.86-.51-7.12-1.52c-2.27-1.02-4.22-2.46-5.86-4.32-1.3-1.45-2.29-3.11-2.99-4.96s-1.04-3.78-1.04-5.78Zm5.67.35c0,4.53,1.23,8.36,3.7,11.47,1.11,1.39,2.29,2.4,3.53,3.04,1.24.63,2.68.95,4.3.95s3.08-.31,4.32-.94c1.24-.62,2.43-1.64,3.55-3.05,2.47-3.13,3.7-6.98,3.7-11.56,0-2.52-.34-4.9-1.02-7.14-.68-2.24-1.64-4.15-2.87-5.71-1-1.28-2.11-2.22-3.34-2.8s-2.68-.88-4.35-.88-3.09.29-4.3.87c-1.21.58-2.33,1.52-3.36,2.81-1.23,1.55-2.19,3.45-2.86,5.7s-1.01,4.67-1.01,7.25Z"/>
        <path class="cls-16" d="m106.76,120.22v8.41c0,1.59.09,2.78.27,3.55s.51,1.41,1,1.91c.42.44.91.76,1.46.97s1.29.34,2.19.39v.54h-14.98v-.54c.91-.05,1.64-.18,2.19-.39s1.04-.54,1.46-.97c.5-.5.84-1.13,1.01-1.9s.26-1.95.26-3.56v-17.27c0-1.34-.06-2.38-.18-3.11s-.32-1.32-.6-1.77c-.41-.62-.92-1.09-1.55-1.39s-1.44-.49-2.44-.55h-.16v-.54h14.13c2.47,0,4.29.12,5.46.38s2.24.75,3.21,1.5c2.22,1.69,3.33,3.94,3.33,6.75s-1.12,4.95-3.38,6.28c-1.17.69-2.59,1.1-4.27,1.24-.53.05-1.81.07-3.84.07h-4.59Zm0-.75h2.3c1.55,0,2.74-.11,3.57-.34s1.58-.64,2.24-1.25c1.53-1.39,2.3-3.24,2.3-5.55,0-1.28-.22-2.46-.67-3.53s-1.08-1.94-1.91-2.61c-.95-.8-2.09-1.27-3.4-1.41-.36-.03-1.18-.05-2.46-.05h-1.97v14.74Z"/>
        <path class="cls-4" d="m149.65,104l.4,7.73-.54.02c-.2-1.31-.54-2.4-1.01-3.26s-1.15-1.62-2.04-2.27c-.73-.55-1.6-.93-2.6-1.16s-2.33-.34-3.98-.34h-5.37v14.06h1.41c1.42,0,2.49-.09,3.21-.28s1.3-.52,1.76-1.01c.44-.45.76-.99.97-1.61s.39-1.53.53-2.73l.54.02-.09,12.56h-.54c-.14-1.2-.35-2.17-.62-2.91s-.65-1.36-1.14-1.88c-.47-.5-1.08-.87-1.83-1.1s-1.7-.35-2.86-.35h-1.34v5.37c0,2.14.05,3.7.16,4.68s.32,1.79.63,2.45c.53,1.12,1.34,1.95,2.43,2.47s2.52.79,4.3.79c1.88,0,3.45-.24,4.71-.71s2.3-1.21,3.09-2.21c.56-.67,1.02-1.44,1.37-2.3s.68-1.99.97-3.4l.54.02-.3,9.33h-27.96v-.54c.89-.05,1.61-.17,2.17-.38s1.05-.53,1.49-.98c.48-.5.82-1.14,1-1.91s.27-1.96.27-3.55v-17.27c0-1.59-.09-2.78-.27-3.55s-.51-1.41-1-1.91c-.42-.45-.91-.78-1.46-.98s-1.29-.33-2.19-.38v-.54h25.2Z"/>
      </g>
    </g>
  </g>
</svg>