<svg xmlns="http://www.w3.org/2000/svg" viewBox="0 0 215.32 79.72"><defs><style>.cls-1{fill:#345e97;}</style></defs><g id="Layer_2" data-name="Layer 2"><g id="spデザイン"><path class="cls-1" d="M17.1,10.74c1.22,6.36,5,13.13,14.65,17.55l-.07.4a3.39,3.39,0,0,0-3.09,3C20,26.35,17.41,17.61,16.45,10.74h-.06A25.81,25.81,0,0,1,12.61,22c9.9,2.92,6.56,10.06,3.06,7.17a14.67,14.67,0,0,0-3.33-6.77C9.93,25.87,6.22,29,.41,31.68L0,31.14c9.35-5.91,12.07-12.88,12.88-20.4H.34l-.27-1H13c.23-3.13.23-6.33.23-9.56l4.87.48c-.11.51-.41.85-1.23,1-.07,2.68-.13,5.4-.37,8.09H25.6L27.74,7s2.48,1.83,3.94,3.16c-.1.37-.44.54-.95.54Z"/><path class="cls-1" d="M49.4,3.81c-.24.3-.75.41-1.53.41a62.69,62.69,0,0,1-4.69,7.47,9.88,9.88,0,0,1,4.32,7.82c0,3.1-1.12,4.8-4.39,4.9a5.93,5.93,0,0,0-.37-2.35,2.22,2.22,0,0,0-1.43-.68v-.47H43a1.54,1.54,0,0,0,.82-.17c.44-.27.71-.92.71-2a11.35,11.35,0,0,0-2.18-6.9C43,9.69,44.1,6,44.68,3.4H41V30.73a2.85,2.85,0,0,1-2.48,1h-.51V1.05l3.43,1.36h3L46.21.78Zm6.05,12.13a13.09,13.09,0,0,1-1.8,2.76H63.82l1.63-1.6,3,2.48a2.36,2.36,0,0,1-1.39.55c-.51,6-1.6,9.31-3.26,10.53a5.86,5.86,0,0,1-3.67,1,2.79,2.79,0,0,0-.51-2,4.61,4.61,0,0,0-2.38-1l0-.51c1,.07,2.79.2,3.47.2a1.88,1.88,0,0,0,1.19-.3c.88-.72,1.77-3.64,2.21-8.44H62.56c-2.11,5.38-6.19,9.39-12.51,12.07l-.34-.54a21.81,21.81,0,0,0,9.65-11.53H57.63c-2.31,4.05-6.19,7.28-11,9.59l-.37-.51a25.2,25.2,0,0,0,8.33-9.08H52.8A23.09,23.09,0,0,1,46,24.55L45.73,24a19.91,19.91,0,0,0,6.36-8.1H47.4l-.28-1H63.58l1.8-2.38s2,1.63,3.23,2.82c-.1.37-.41.54-.92.54Zm-2.41-3c0,.24-.89.78-2.38.78h-.51V.85l3.26,1.33H61.5L62.9.51l3,2.21a1.83,1.83,0,0,1-1.29.61v9.08a3.56,3.56,0,0,1-2.45.75h-.54v-1.3H53Zm0-9.79V6.56h8.57V3.13Zm8.57,7.78V7.51H53v3.4Z"/><path class="cls-1" d="M104.17,4.15a2.74,2.74,0,0,1-1.39.71v25.5A4.45,4.45,0,0,1,100,31.41h-.47V28.59H78.78v1.9c0,.41-1.23,1.19-2.65,1.19h-.55V1.84l3.5,1.46h20.1l1.63-1.84ZM99.52,27.6V4.28H78.78V27.6ZM96.66,11.08a2.51,2.51,0,0,1-1.36.65V21.86a4,4,0,0,1-2.48.88h-.48V20.6H85.85v1.53c0,.27-1.26.95-2.48.95h-.45V9L86,10.27h6l1.5-1.6Zm-4.32,8.54V11.25H85.85v8.37Z"/><path class="cls-1" d="M142.42,14.72c-.23.27-.61.34-1.25.37A22.42,22.42,0,0,1,138,17.75l2.08,1.53a2.24,2.24,0,0,1-1.26.61v5.74c0,2-.41,3.23-3.6,3.54a3.74,3.74,0,0,0-.48-2,2.62,2.62,0,0,0-1.94-.88v-.51s2,.13,2.55.13.51-.17.51-.58V19.48H132V30.8c0,.31-1.33.88-2.52.88H129V19.48h-3.71v8.84a2.79,2.79,0,0,1-2.41.92h-.51V17.58a2.84,2.84,0,0,1-.75.68,1.71,1.71,0,0,1-2.48-.51c-.34,5.88-2.24,10.67-7.51,13.9l-.38-.34c3.91-4,5-9,5-15.4V.37l4.15.45c-.07.47-.34.81-1.19,1V16.52a2.23,2.23,0,0,1,1-.95,4.12,4.12,0,0,0,1.8-3.5h.55a7,7,0,0,1,.41,1.49H137.9l1.6-1.66ZM114.07,20.6c0,.27-1.19.85-2.21.85h-.48V4.9l3.81.4c-.07.41-.34.72-1.12.82Zm21.18-11V6.8h-11.7l-.3-1h12V3.13H122.43l-.3-.95h12.78l1.5-1.7L139.7,3a2.37,2.37,0,0,1-1.42.71v7.51a4.05,4.05,0,0,1-2.59.92h-.44V10.61h-13l-.31-1Zm2.28,7.79c.2-.79.44-1.91.61-2.86h-15a5.25,5.25,0,0,1-.54,2.69l3.13,1.25H129V15l4.25.44c-.07.45-.37.75-1.19.89v2.17h3.57l1.29-1.56Z"/><path class="cls-1" d="M177.14,27.94s1.36,1.43,2.07,2.38c-.1.38-.37.55-.85.55H157.11l-.27-1h2.89V18.77a2.91,2.91,0,0,1-.51,0H159a1.08,1.08,0,0,1-1.15.65,32,32,0,0,1-2.62,5.2l-.58-.24c.34-1.77.68-4.42.89-6.73l3.26,1V15.94a.89.89,0,0,1-.82.34H154v10L159.25,25l.14.44c-2.18,1.22-5.47,3-10.06,5.23a1.17,1.17,0,0,1-.78.82l-1.91-3.54c1-.2,2.76-.57,4.83-1.05V16.28h-4.11l-.28-1h4.39V11.05h-2.21l-.27-1a19.47,19.47,0,0,1-2.55,2.44l-.41-.3a36.81,36.81,0,0,0,5-12.1l4.11,1.39c-.1.41-.44.65-1.29.68v0c7.62,2.62,4.32,7,2.21,5.21a14.12,14.12,0,0,0-2.58-4.39,28.08,28.08,0,0,1-4.49,7h4.86l1.53-2.14s1.77,1.53,2.79,2.58c-.1.38-.37.55-.85.55H154V15.3h.61l1.5-2.21s1.66,1.49,2.65,2.58V.88l3.06,1.26h3L166.46,0s1.84,1.5,3,2.55c-.07.37-.41.54-.88.54h-3.23V6.66h.47l1.16-1.19,2.41,1.84a2.06,2.06,0,0,1-1,.48v4.65c0,.24-1.23.68-2,.68H166v-.81h-.68v4h.48l1.63-2.17s1.83,1.53,2.92,2.58c-.1.38-.41.55-.88.55h-8.06V18c0,.1-.27.37-.78.58l2.14.92h10.1l1.39-1.77,3.37,2.41c-.24.38-.65.55-1.53.68v8.94Zm-29-10.06c4.66,4.66,2,9.08.21,6.9a20.56,20.56,0,0,0-.68-6.8ZM161.43,3.09V6.66h1.63V3.09Zm0,4.53v3.73H166V7.62Zm1.7,4.69h-1.7v4h1.7Zm-.65,17.57h2V20.43h-2Zm6.36-9.45h-2v9.45h2Zm-.17-9.65A33.6,33.6,0,0,0,170.92.65l4,1.08c-.13.41-.51.68-1.25.72A26.27,26.27,0,0,1,172,7h2.28l1.63-2.17s1.83,1.53,2.92,2.58c-.07.38-.41.55-.88.55h-6.43a14.08,14.08,0,0,1-2.31,3.09Zm6.87.78s1.83,1.49,2.92,2.62c-.1.37-.41.54-.88.54h-7.92l-.27-1h4.55Zm-4.32,8.87v9.45h2V20.43Z"/><path class="cls-1" d="M201,27.54a48.19,48.19,0,0,0,5.65.27c2,0,6.52,0,8.7-.07v.44c-1.19.28-1.74,1.43-1.8,2.79h-7.11c-7.85,0-12.2-1.5-14.82-7.95a18.31,18.31,0,0,1-7.89,8.66l-.3-.37c4.52-4,6.25-10.27,6.73-15.5l4.52.85c-.1.44-.48.75-1.26.78A30.51,30.51,0,0,1,192,22.1a9.57,9.57,0,0,0,5.74,4.76V12.24h-9.69l-.27-1H206L207.94,9s.48.34,1.12.85c.41-1.09.85-2.52,1.19-3.67H188.94c.07,2.41-.89,4.08-2,4.79a2,2,0,0,1-3-.54,2,2,0,0,1,1.16-2.38,5.45,5.45,0,0,0,2.69-4.83l.54,0a9.93,9.93,0,0,1,.48,2h8.83V0l4.59.41c-.06.48-.37.82-1.25,1V5.2h9.11L212,3.37l3.16,3.06a2,2,0,0,1-1.29.4,28.42,28.42,0,0,1-4.18,3.47c.58.44,1.26,1,1.77,1.43-.1.34-.44.51-.92.51H201v6.53h5.31l1.83-2.35s2.11,1.6,3.44,2.79c-.11.37-.48.54-1,.54H201Z"/><path class="cls-1" d="M29.85,54.87a2.7,2.7,0,0,1-1.39.68v15c0,.27-1.7.95-2.83.95h-.51V68.91H17.3v9.58c0,.41-1.42,1.23-2.65,1.23H14V68.91H6.39v2C6.39,71.22,5,72,3.64,72H3.13V52.52L6.66,54H14V48.14l4.63.47c-.11.48-.34.82-1.3,1V54h7.48l1.64-1.84ZM6.39,55v5.88H14V55ZM14,67.92V61.87H6.39v6.05ZM17.3,55v5.88h7.82V55Zm7.82,12.92V61.87H17.3v6.05Z"/><path class="cls-1" d="M42.26,51.74v-.61a7.81,7.81,0,0,1,2.48-.48c2,0,4.86,2.25,4.86,3.47,0,.85-.81,1.22-1.15,2.89a70.49,70.49,0,0,0-1.33,12.51c0,4,1.16,5.58,5.07,5.58,5.3,0,10.3-3.3,13-7l.67.44c-2.34,5.47-7.41,9.75-14,9.75-4.69,0-7.34-2.34-7.34-8.49,0-5,.74-12.38.74-14.69,0-1.46-.17-2-.78-2.45A6.8,6.8,0,0,0,42.26,51.74Z"/><path class="cls-1" d="M105.19,70.61a4.83,4.83,0,0,0-2.92,3.13C98,70.85,95.5,66.7,94,61.26A26,26,0,0,1,82,73.63c2.17,1.91,4.65,2.18,10.16,2.18,3.88,0,9.15,0,13.29-.14v.45a2.83,2.83,0,0,0-2.21,2.78h-11c-6.33,0-9-.92-11.32-5.33a55.88,55.88,0,0,1-5.21,5.3.76.76,0,0,1-.47.81l-1.94-3.8c1.26-.44,3.13-1.23,5-2V63.77H73.61l-.2-1h4.28l1.73-2.25,3.61,3a2.81,2.81,0,0,1-1.7.68V73c.17.2.37.37.54.54l-.24-.34c5.44-3.94,9.56-11,11-19.44-.1-.68-.17-1.4-.24-2.11H85.71l-.3-1h6l1.33-2,3.43,2.48a4.11,4.11,0,0,1-2.85.92c1.26,8,4.66,14.89,12,18.15ZM74.94,49.16c9.68,1.93,7.17,8.8,3.77,6.52a15.35,15.35,0,0,0-4-6.29Z"/><path class="cls-1" d="M132.46,60.61a4.17,4.17,0,0,1,2.11-.51c1.36.07,3,1.29,3,2.11a17.86,17.86,0,0,1-.27,2c-.1.64-.27,1.73-.54,2.89A23.47,23.47,0,0,1,140,69.45,3.13,3.13,0,0,1,141.13,72a1.33,1.33,0,0,1-1.43,1.43c-1,0-2-1.33-4-3.06C133.55,75,129,77.85,122.6,79l-.41-.68c5.65-1.94,9.29-5.34,11.09-9.79a18.65,18.65,0,0,0-10.75-3.44c-1.42,2.86-3.12,6.74-4,8-1.22,1.87-2.31,2.75-4,2.75-2,0-3.2-3.09-2.82-5.71.51-3.5,4.93-5.85,9.14-6.49,1.67-3,4.69-7.85,5.34-9.15.3-.61.07-.81-.44-.64a32.9,32.9,0,0,0-4,1.8c-.54.31-1.12.88-1.8.88-1.29,0-2.92-1.7-3.16-2.78a6.33,6.33,0,0,1,0-1.94l.55-.14c.58.95,1,1.77,2,1.77a24.32,24.32,0,0,0,5.71-1.36c1.26-.41,1.63-1,2.21-1,1.12,0,3.6,1.7,3.6,2.83,0,.81-1.32,1.22-2.24,2.21a55.71,55.71,0,0,0-5.17,7.3,27.46,27.46,0,0,1,10.64,2.28,11.85,11.85,0,0,0,.28-2.85,1.19,1.19,0,0,0-.55-1.13,3.68,3.68,0,0,0-1.36-.57ZM119.88,65.3c-3.46.51-6.29,2.42-6.76,4.46-.31,1.29.44,2.75,1.29,2.75s1.29-.41,2-1.46S118.76,67.28,119.88,65.3Z"/></g></g></svg>