<?xml version="1.0" encoding="UTF-8"?>
<svg id="_レイヤー_2" data-name="レイヤー 2" xmlns="http://www.w3.org/2000/svg" viewBox="0 0 12.52 12.39">
  <defs>
    <style>
      .cls-1 {
        fill: #BFB685;
        stroke-width: 0px;
      }
    </style>
  </defs>
  <g id="design">
    <g>
      <rect class="cls-1" x="2.95" y="1.08" width="1.36" height="10.22"/>
      <rect class="cls-1" x="8.21" y="1.08" width="1.36" height="10.22"/>
      <path class="cls-1" d="m6.26,2.21c-2.43,0-4.71-.34-6.26-.94L.49,0c1.4.54,3.5.85,5.77.85s4.37-.31,5.77-.85l.49,1.27c-1.55.6-3.83.94-6.26.94Z"/>
      <path class="cls-1" d="m12.03,12.39c-1.4-.54-3.5-.85-5.77-.85s-4.37.31-5.77.85L0,11.11c1.55-.6,3.83-.94,6.26-.94s4.71.34,6.26.94l-.49,1.27Z"/>
    </g>
  </g>
</svg>