<?xml version="1.0" encoding="UTF-8"?>
<svg xmlns="http://www.w3.org/2000/svg" viewBox="0 0 36 50">
  <defs>
    <style>
      .cls-1 {
        fill: #39385d;
      }

      .cls-2 {
        fill: none;
      }
    </style>
  </defs>
  <g id="レイヤー_2" data-name="レイヤー 2">
    <g id="レイヤー_1-2" data-name="レイヤー 1">
      <path class="cls-1" d="M3,2.5c5.4,0,10.69,0,16,0a24.83,24.83,0,0,1,4.64.37A14.42,14.42,0,0,1,23,31.19a32.18,32.18,0,0,1-4.5.28c-4,0-8.07,0-12.21,0V44H31.59v3.25H3ZM6.27,28.12h14A11.25,11.25,0,0,0,31.7,17.63,11,11,0,0,0,21.48,5.87c-5-.33-10-.07-14.94-.06-.08,0-.16.12-.27.21Z"/>
      <rect class="cls-2" width="36" height="50"/>
    </g>
  </g>
</svg>