<?xml version="1.0" encoding="UTF-8"?>
<svg id="_レイヤー_2" data-name="レイヤー 2" xmlns="http://www.w3.org/2000/svg" viewBox="0 0 120.33 29.89">
  <defs>
    <style>
      .cls-1 {
        fill: #aec3d0;
        stroke-width: 0px;
      }
    </style>
  </defs>
  <g id="_装飾" data-name="装飾">
    <g>
      <polygon class="cls-1" points="23.89 14.15 120.33 14.71 120.33 15.11 23.89 15.66 23.89 14.15"/>
      <polygon class="cls-1" points="21.94 16.38 20.93 14.94 22 13.54 20.25 13.69 19.57 12.07 18.83 13.66 17.08 13.44 18.09 14.88 17.02 16.28 18.78 16.12 19.46 17.75 20.2 16.15 21.94 16.38"/>
      <path class="cls-1" d="m2.96,4.03c-1.03,0-2.01.19-2.96.46,5.68.1,10.25,4.72,10.25,10.42S5.68,25.23,0,25.33c.95.27,1.92.46,2.96.46,6.01,0,10.88-4.87,10.88-10.88S8.97,4.03,2.96,4.03Z"/>
      <g>
        <polygon class="cls-1" points="35.1 24.48 32.75 22.6 35.56 23.69 36.01 20.71 36.47 23.69 39.28 22.6 36.93 24.48 39.28 26.36 36.47 25.27 36.01 28.24 35.56 25.27 32.75 26.36 35.1 24.48"/>
        <polygon class="cls-1" points="55.79 26.71 54.53 25.7 56.04 26.29 56.29 24.68 56.53 26.29 58.05 25.7 56.78 26.71 58.05 27.73 56.53 27.14 56.29 28.75 56.04 27.14 54.53 27.73 55.79 26.71"/>
        <polygon class="cls-1" points="65.12 22.74 64.33 22.1 65.27 22.47 65.43 21.47 65.58 22.47 66.53 22.1 65.74 22.74 66.53 23.38 65.58 23.01 65.43 24.01 65.27 23.01 64.33 23.38 65.12 22.74"/>
        <polygon class="cls-1" points="46.37 22.3 45.1 21.29 46.61 21.88 46.86 20.27 47.11 21.88 48.62 21.29 47.35 22.3 48.62 23.32 47.11 22.73 46.86 24.34 46.61 22.73 45.1 23.32 46.37 22.3"/>
        <polygon class="cls-1" points="76.86 21.91 75.7 20.97 77.09 21.52 77.32 20.04 77.55 21.52 78.94 20.97 77.77 21.91 78.94 22.85 77.55 22.3 77.32 23.79 77.09 22.3 75.7 22.85 76.86 21.91"/>
        <polygon class="cls-1" points="23.65 27.85 22.38 26.83 23.9 27.42 24.14 25.82 24.39 27.42 25.9 26.83 24.63 27.85 25.9 28.87 24.39 28.28 24.14 29.89 23.9 28.28 22.38 28.87 23.65 27.85"/>
        <polygon class="cls-1" points="27.61 20.82 26.81 20.18 27.76 20.55 27.91 19.54 28.07 20.55 29.02 20.18 28.22 20.82 29.02 21.45 28.07 21.08 27.91 22.09 27.76 21.08 26.81 21.45 27.61 20.82"/>
      </g>
      <g>
        <polygon class="cls-1" points="24.46 3.81 22.12 5.7 24.92 4.6 25.38 7.58 25.83 4.6 28.64 5.7 26.29 3.81 28.64 1.93 25.83 3.02 25.38 .05 24.92 3.02 22.12 1.93 24.46 3.81"/>
        <polygon class="cls-1" points="66.96 7.09 65.7 8.1 67.21 7.51 67.46 9.12 67.7 7.51 69.22 8.1 67.95 7.09 69.22 6.07 67.7 6.66 67.46 5.05 67.21 6.66 65.7 6.07 66.96 7.09"/>
        <polygon class="cls-1" points="46.48 1.27 45.68 1.91 46.63 1.54 46.78 2.54 46.94 1.54 47.88 1.91 47.09 1.27 47.88 .64 46.94 1 46.78 0 46.63 1 45.68 .64 46.48 1.27"/>
        <polygon class="cls-1" points="53.52 8.79 52.25 9.81 53.76 9.22 54.01 10.83 54.26 9.22 55.77 9.81 54.5 8.79 55.77 7.77 54.26 8.37 54.01 6.76 53.76 8.37 52.25 7.77 53.52 8.79"/>
        <polygon class="cls-1" points="89.78 8.26 88.61 9.19 90.01 8.65 90.23 10.13 90.46 8.65 91.86 9.19 90.69 8.26 91.86 7.32 90.46 7.86 90.23 6.38 90.01 7.86 88.61 7.32 89.78 8.26"/>
        <polygon class="cls-1" points="38.97 4.38 37.7 5.4 39.22 4.81 39.46 6.42 39.71 4.81 41.23 5.4 39.96 4.38 41.23 3.37 39.71 3.96 39.46 2.35 39.22 3.96 37.7 3.37 38.97 4.38"/>
        <polygon class="cls-1" points="105.36 20.62 104.57 21.25 105.51 20.88 105.67 21.89 105.82 20.88 106.77 21.25 105.98 20.62 106.77 19.98 105.82 20.35 105.67 19.34 105.51 20.35 104.57 19.98 105.36 20.62"/>
      </g>
    </g>
  </g>
</svg>