<svg xmlns="http://www.w3.org/2000/svg" viewBox="0 0 268.6 19.57"><g id="Layer_2" data-name="Layer 2"><g id="固定"><path d="M4.81,9.35A1.15,1.15,0,1,1,6,10.5,1.14,1.14,0,0,1,4.81,9.35Z" transform="translate(0 -0.81)" fill="#9892a6"/><path d="M82.36,9.38a1.36,1.36,0,1,1,1.36,1.36A1.36,1.36,0,0,1,82.36,9.38Z" transform="translate(0 -0.81)" fill="#9892a6"/><path d="M0,9.35H0c.24,1,1.42,1.07,1.66,1.08a2.24,2.24,0,0,0-.1.65,1.53,1.53,0,0,0,1.06,1.48A3.91,3.91,0,0,1,6.5,9.35,4,4,0,0,1,2.62,6.13a1.61,1.61,0,0,0-1,2.13S.25,8.3,0,9.35Z" transform="translate(0 -0.81)" fill="#9892a6"/><path d="M84.92,9.35s-44.31-.94-56.44-.94-22,.42-22,.94,9.84.94,22,.94S84.92,9.35,84.92,9.35Z" transform="translate(0 -0.81)" fill="#9892a6"/><path d="M263.76,9.35a1.16,1.16,0,1,0-1.16,1.16A1.16,1.16,0,0,0,263.76,9.35Z" transform="translate(0 -0.81)" fill="#9892a6"/><path d="M185.64,9.35a1.36,1.36,0,1,0-1.36,1.36A1.36,1.36,0,0,0,185.64,9.35Z" transform="translate(0 -0.81)" fill="#9892a6"/><path d="M268.6,9.35h0c-.24,1-1.43,1.07-1.67,1.08a2.24,2.24,0,0,1,.1.65A1.54,1.54,0,0,1,266,12.57a3.92,3.92,0,0,0-3.91-3.22A4,4,0,0,0,266,6.13a1.6,1.6,0,0,1,1,2.13S268.35,8.3,268.6,9.35Z" transform="translate(0 -0.81)" fill="#9892a6"/><path d="M183.08,9.35s44.62.94,56.84.94,22.13-.42,22.13-.94-9.91-.94-22.13-.94S183.08,9.35,183.08,9.35Z" transform="translate(0 -0.81)" fill="#9892a6"/><path d="M120.5,14.52,122.76,16a.53.53,0,0,1-.26.19,1.12,1.12,0,0,1-.5,0,13.31,13.31,0,0,1-2,1.27,19.46,19.46,0,0,1-2.57,1.09,23.07,23.07,0,0,1-2.85.78L114.4,19a19.13,19.13,0,0,0,2.38-1.29,20.25,20.25,0,0,0,2.15-1.58A11.16,11.16,0,0,0,120.5,14.52ZM116.78.9h.3a6.46,6.46,0,0,1,.4,2.19,4.8,4.8,0,0,1-.3,1.64,2.71,2.71,0,0,1-.7,1,1.35,1.35,0,0,1-.63.32,1.33,1.33,0,0,1-.69,0,.79.79,0,0,1-.48-.43.9.9,0,0,1,0-.83,1.43,1.43,0,0,1,.59-.63,3.65,3.65,0,0,0,.74-.77,4.36,4.36,0,0,0,.58-1.14A4.05,4.05,0,0,0,116.78.9Zm-2.2,12.58h14.48l1.2-1.5.8.61.72.57.7.58a.36.36,0,0,1-.19.24.84.84,0,0,1-.37.08H114.76Zm2.3-11.3h13.8v.58h-13.8Zm1.34,2.68v-.8l2,.8h7.58v.58h-7.7v6c0,.05-.08.13-.24.22a3.46,3.46,0,0,1-.6.26,2.42,2.42,0,0,1-.76.12h-.28Zm.88,2.66h8.66V8.1H119.1Zm0,2.78h8.66v.58H119.1Zm3.28.8,2.7.28a.66.66,0,0,1-.2.34,1.15,1.15,0,0,1-.54.2v1.9h-2Zm2.44,4a14.43,14.43,0,0,1,3.29.45,7.5,7.5,0,0,1,2.11.9,3.68,3.68,0,0,1,1.11,1.07,1.51,1.51,0,0,1,.26,1,.88.88,0,0,1-.43.66,1.19,1.19,0,0,1-.94.05,8.29,8.29,0,0,0-1.07-1.07c-.44-.37-.91-.73-1.42-1.08s-1-.68-1.55-1a15.33,15.33,0,0,0-1.5-.77Zm2-10.22h-.2l.92-1,2,1.48a.92.92,0,0,1-.29.24,1.49,1.49,0,0,1-.49.16V11.3s-.1.1-.28.18a5.93,5.93,0,0,1-.64.22,2.52,2.52,0,0,1-.7.1h-.3Zm2.92-2.68h-.22l1.08-1.08,1.88,1.82a.62.62,0,0,1-.3.16,2.59,2.59,0,0,1-.48.06,12.38,12.38,0,0,1-1.2,1.15,14.81,14.81,0,0,1-1.36,1l-.22-.14c.1-.28.21-.6.32-1l.3-1.09C129.59,2.76,129.66,2.45,129.7,2.18Z" transform="translate(0 -0.81)" fill="#9892a6"/><path d="M136.32,17.74h14.76l1.26-1.6.83.64.77.6c.26.21.5.42.72.62-.06.2-.24.3-.56.3H136.5Zm.86-15.14h13L151.46,1l.81.64.75.6.72.6c-.06.21-.24.32-.54.32H137.34Zm.8,7.1H149.6l1.22-1.52.78.61.72.57c.25.2.48.4.7.6,0,.21-.22.32-.54.32H138.14Zm6.4-7.06h2.06V17.9h-2.06Z" transform="translate(0 -0.81)" fill="#9892a6"/><path d="M158.24,18.08H173.5l1.14-1.52.74.61.68.57a7.5,7.5,0,0,1,.64.6c-.06.21-.24.32-.54.32H158.4Zm4.42-9.42,2.5,1a.65.65,0,0,1-.28.26.87.87,0,0,1-.52.06A13.89,13.89,0,0,1,162,13.07a11.76,11.76,0,0,1-2.83,2l-.22-.2A14.85,14.85,0,0,0,161,12.21,17.62,17.62,0,0,0,162.66,8.66Zm-1.56,5.88H172l1.08-1.44.71.58.65.56.62.56c-.06.21-.24.32-.56.32H161.26ZM161.42,2V1.14l2.12.86h9.18v.58H163.4V8.66c0,.07-.09.15-.25.24a4.94,4.94,0,0,1-.63.27,2.4,2.4,0,0,1-.8.13h-.3Zm.4,9.44h10.42L173.36,10c.28.21.52.41.73.58l.65.56c.22.2.43.39.62.58q-.09.3-.54.3h-13Zm.46-6.66h10.36v.58H162.28Zm0,2.86h10.36v.58H162.28Zm4.42,1.1,2.72.24a.61.61,0,0,1-.17.37,1,1,0,0,1-.55.21v8.78h-2ZM171.78,2h-.2l1-1.06L174.6,2.5a.92.92,0,0,1-.29.24,1.73,1.73,0,0,1-.53.18V8.56s-.1.1-.28.18a5.27,5.27,0,0,1-.67.22,2.75,2.75,0,0,1-.71.1h-.34Z" transform="translate(0 -0.81)" fill="#9892a6"/><polyline points="95.8 0.28 95.8 9.83 95.8 18.92 106.38 18.92" fill="none" stroke="#9892a6" stroke-miterlimit="10" stroke-width="1.3"/><path d="M95.32,1.69a18,18,0,0,1,2.5-.22c5.87-.18,8.55,1.09,8.48,5-.06,3.35-2.26,5.37-8.48,5-.74,0-1.24,0-1.78-.07l-.33,0-.13,0-.12,0-.08,0" transform="translate(0 -0.81)" fill="none" stroke="#9892a6" stroke-miterlimit="10" stroke-width="1.3"/></g></g></svg>