<?xml version="1.0" encoding="UTF-8"?>
<svg id="_レイヤー_2" data-name="レイヤー 2" xmlns="http://www.w3.org/2000/svg" xmlns:xlink="http://www.w3.org/1999/xlink" viewBox="0 0 337.53 287.83">
  <defs>
    <style>
      .cls-1 {
        fill: #9cb0b8;
        stroke-width: 0px;
      }

      .cls-2 {
        filter: url(#outer-glow-1);
      }
    </style>
    <filter id="outer-glow-1" filterUnits="userSpaceOnUse">
      <feOffset dx="0" dy="0"/>
      <feGaussianBlur result="blur" stdDeviation="8.5"/>
      <feFlood flood-color="#231815" flood-opacity=".88"/>
      <feComposite in2="blur" operator="in"/>
      <feComposite in="SourceGraphic"/>
    </filter>
  </defs>
  <g id="_名前" data-name="名前">
    <g>
      <path class="cls-1" d="m84.48,130.63c11.18-3.82,18.26-13.36,18.26-24.27,0-16.09-14.45-28.09-34.63-28.09s-45.81,10.63-45.81,41.45c0,19.63,16.91,36.54,34.91,36.54l1.09-1.36c-19.91,1.36-31.91-18.82-31.91-37.09,0-21.27,16.36-38.45,42-38.45,16.63,0,29.45,9.27,29.45,26.18,0,12-8.18,24.82-18.27,24.82h-13.63v-22.36c0-4.37,1.91-6,4.37-6.55h-13.09c2.45.55,4.36,2.18,4.36,6.27v50.72c0,4.09-1.91,5.73-4.36,6.54h24.81c16.9,0,22.64-9.82,22.64-17.45,0-8.18-5.19-16.09-20.18-16.91Zm-2.73,33.27h-15.82v-32.45h15.82c12,0,17.18,7.36,17.18,16.09s-5.18,16.36-17.18,16.36Z"/>
      <path class="cls-1" d="m196.3,176.74c-4.37,1.91-7.63,3.27-13.37,3.27-18.54,0-32.99-16.09-52.08-16.64v-55.9c0-4.37,1.91-6,4.37-6.55h-13.09c2.46.55,4.36,2.18,4.36,6.55v50.45c0,4.09-1.91,6-4.36,6.54h9.28c19.09,0,29.72,18.54,46.9,18.54,7.63,0,12.81-2.73,18.27-5.45l-.27-.82Z"/>
      <path class="cls-1" d="m187.69,101.17c1.92.64,5.05,1.7,5.05,5.09v27.37c0,9.55-4.81,16.12-16.83,16.12-8.41,0-15.86-4.88-15.86-16.12v-27.37c0-3.18,1.44-4.46,3.61-5.09h-11.29c2.16.64,3.61,1.91,3.61,5.09v27.58c0,8.06,4.08,17.4,19.94,17.4,11.54,0,17.79-5.94,17.79-17.4v-27.58c0-3.18,3.12-4.46,5.05-5.09h-11.06Z"/>
      <path class="cls-1" d="m221.51,163.5v-30.54h13.63c4.09,0,5.73,1.64,6.55,4.09v-9.27c-.82,2.18-2.46,4.09-6.55,4.09h-13.63v-29.72h18.81c7.63,0,10.91,5.45,12.55,8.18l-2.46-9.27h-37.36c2.18.82,4.09,2.45,4.09,6.55v50.45c0,4.36-1.91,6-4.09,6.54h37.36l2.46-9.27c-1.64,2.73-4.91,8.18-12.55,8.18h-18.81Z"/>
      <path class="cls-1" d="m28.27,206.62c2.18.82,4.09,2.45,4.09,6.82h0v50.18h0c0,4.36-1.91,6-4.09,6.55h12.54c-2.18-.55-4.09-2.18-4.09-6.27v-18.54h12.55c18.27,0,24.27-10.91,24.27-19.36,0-9.27-6.27-19.36-24.27-19.36h-20.99Zm20.99,37.63h-12.55v-36.54h12.55c12.55,0,18.82,8.18,18.82,18.27s-6.27,18.27-18.82,18.27Z"/>
      <path class="cls-1" d="m177.7,280.74c-5.19,3.27-9.54,4.91-17.18,4.91-24.81,0-29.72-35.18-46.9-40.63,15-.82,20.18-12,20.18-19.09,0-9.27-6-19.36-24.27-19.36h-20.99c2.18.54,4.09,2.18,4.09,6.54v50.45c0,4.36-1.91,6-4.09,6.55h12.81c-2.18-.55-4.09-2.18-4.09-6.27v-18.54h10.91c22.63,0,19.91,42.54,48.26,42.54,10.64,0,15.82-2.73,21.82-5.73l-.54-1.36Zm-67.9-36.54h-12.55v-36.54h12.55c12.55,0,18.82,8.18,18.82,18.27,0,11.73-8.18,18.27-18.82,18.27Z"/>
      <path class="cls-1" d="m160.03,249.34v-37.75c0-3.05,1.94-4.26,4.15-4.87h-12.73c2.21.61,4.15,1.83,4.15,4.87h0v37.55h0c0,3.25-1.94,4.47-4.15,4.87h12.73c-2.22-.4-4.15-1.62-4.15-4.67h0Z"/>
      <path class="cls-1" d="m310.52,191.8c-19.63,0-38.17,10.88-57.54,10.88-9.54,0-17.72-2.17-24.81-8.7l-.27,1.09c6.27,6.53,16.91,8.97,26.73,9.52v59.54c0,4.35-1.91,5.71-4.09,6.25h12.54c-2.18-.54-4.09-2.17-4.09-5.98v-59.82c16.64,0,39.81-10.88,56.18-10.88,8.18,0,16.09,1.36,21.27,9.24l1.1-.54c-5.45-6.8-13.37-10.6-27-10.6Z"/>
      <path class="cls-1" d="m221.34,206.72c2.18.82,5.45,2.46,5.45,6.56v47.27l-37.36-53.82h-9.82c2.18.82,5.45,2.18,5.45,6.56v50.55c0,4.37-3.27,6.01-5.45,6.56h12c-2.18-.55-5.45-2.18-5.45-6.56v-53.82h0l41.72,60.38v-57.1c.27-4.1,3.27-5.74,5.73-6.56h-12.27Z"/>
      <g>
        <path class="cls-1" d="m40.48,43.02c0-10.9-12.65-19.07-18.1-23.55-3.5-3.11-7.98-6.62-7.98-11.48,0-4.09,2.92-7.4,8.37-7.4,6.04,0,10.12,5.64,10.9,9.54V1.17c-.39.58-.97.78-1.56.78-1.75,0-6.03-1.95-9.15-1.95-4.48,0-9.35,2.14-9.35,8.56,0,5.06,4.67,9.73,7.2,12.46,6.62,6.81,15.57,13.62,16.74,22.38v2.34c0,8.17-4.67,15.96-15.57,17.13h-2.34c-8.95,0-17.32-6.42-17.32-16.93,0-7.98,4.87-16.93,15.77-16.93h1.17l.2-.19c-.97,0-1.75-.2-2.53-.2-7.59,0-16.93,4.48-16.93,16.35,0,9.73,7.2,17.13,17.13,18.69,1.56.39,3.31.39,5.06.39,8.37-.78,18.3-5.84,18.3-19.66v-1.36Z"/>
        <path class="cls-1" d="m77.73,18.34h-31.34l-1.56,6.64c.98-1.95,3.31-5.86,8.76-5.86h6.81v40.04c0,3.12-1.36,4.3-2.92,4.69h8.96c-1.56-.39-2.92-1.56-2.92-4.49V19.12h7.01c5.45,0,7.79,3.91,8.76,5.86l-1.56-6.64Z"/>
        <path class="cls-1" d="m160.05,71.48c-7.98,5.26-11.68,5.26-17.32,5.26-15.38,0-32.51-13.82-50.8-13.82v-21.8h9.54c3.31,0,4.28,1.36,4.86,2.92v-6.62c-.58,1.75-1.56,2.92-4.86,2.92h-9.54v-21.02h13.43c5.64,0,7.78,3.89,8.76,5.84l-1.56-6.62h-26.86c1.75.39,3.11,1.56,3.11,4.67v36.01c0,2.92-1.37,4.09-3.11,4.67h7.2c17.51,0,30.36,14.79,47.3,15.18,5.06,0,10.71-.58,20.24-7.2l-.39-.39Z"/>
        <path class="cls-1" d="m130.06,54.25V22.15c0-2.34,1.3-3.27,2.78-3.74h-8.52c1.48.47,2.78,1.4,2.78,3.74h0v28.84h0c0,2.49-1.3,3.43-2.78,3.74h25.38l1.48-5.3c-.92,1.56-3.15,4.83-8.33,4.83h-12.79Z"/>
        <path class="cls-1" d="m163.16,54.29V22.18c0-2.34,1.3-3.27,2.78-3.74h-8.52c1.48.47,2.78,1.4,2.78,3.74h0v28.84h0c0,2.49-1.3,3.43-2.78,3.74h25.38l1.48-5.3c-.92,1.56-3.15,4.83-8.33,4.83h-12.79Z"/>
        <path class="cls-1" d="m223.84,51.06l-14.34-32.65-14.71,32.81c-1.1,1.85-2.57,3.24-4.04,3.54h8.46c-1.47-.31-4.6-1.39-2.94-5.24l4.23-9.09h15.63l4.6,10.63c.73,1.69-.55,3.39-2.02,3.7h8.83c-1.47-.31-2.76-1.54-3.68-3.7Zm-23.16-11.24l7.54-16.94,7.54,16.94h-15.07Z"/>
        <path class="cls-1" d="m295.16,71.73c-3.7,2.35-6.81,3.53-12.27,3.53-17.71,0-21.22-25.29-33.48-29.21,10.71-.59,14.4-8.63,14.4-13.72,0-6.66-4.28-13.92-17.32-13.92h-14.99c1.56.39,2.92,1.57,2.92,4.7v36.27c0,3.14-1.36,4.31-2.92,4.71h9.15c-1.56-.39-2.92-1.57-2.92-4.51v-13.33h7.79c16.15,0,14.21,30.58,34.45,30.58,7.59,0,11.29-1.96,15.57-4.12l-.39-.98Zm-48.47-26.27h-8.96v-26.27h8.96c8.96,0,13.43,5.88,13.43,13.13,0,8.43-5.84,13.14-13.43,13.14Z"/>
      </g>
    </g>
  </g>
</svg>