<svg xmlns="http://www.w3.org/2000/svg" viewBox="0 0 268.6 20.57"><g id="Layer_2" data-name="Layer 2"><g id="固定"><path d="M4.81,9.35A1.15,1.15,0,1,1,6,10.5,1.14,1.14,0,0,1,4.81,9.35Z" transform="translate(0 -0.72)" fill="#77a5be"/><path d="M82.36,9.38a1.36,1.36,0,1,1,1.36,1.36A1.36,1.36,0,0,1,82.36,9.38Z" transform="translate(0 -0.72)" fill="#77a5be"/><path d="M0,9.35H0c.24,1,1.42,1.07,1.66,1.08a2.24,2.24,0,0,0-.1.65,1.53,1.53,0,0,0,1.06,1.48A3.91,3.91,0,0,1,6.5,9.35,4,4,0,0,1,2.62,6.13a1.61,1.61,0,0,0-1,2.13S.25,8.3,0,9.35Z" transform="translate(0 -0.72)" fill="#77a5be"/><path d="M84.92,9.35s-44.31-.94-56.44-.94-22,.42-22,.94,9.84.94,22,.94S84.92,9.35,84.92,9.35Z" transform="translate(0 -0.72)" fill="#77a5be"/><path d="M263.76,9.35a1.16,1.16,0,1,0-1.16,1.16A1.16,1.16,0,0,0,263.76,9.35Z" transform="translate(0 -0.72)" fill="#77a5be"/><path d="M185.64,9.35a1.36,1.36,0,1,0-1.36,1.36A1.36,1.36,0,0,0,185.64,9.35Z" transform="translate(0 -0.72)" fill="#77a5be"/><path d="M268.6,9.35h0c-.24,1-1.43,1.07-1.67,1.08a2.24,2.24,0,0,1,.1.65A1.54,1.54,0,0,1,266,12.57a3.92,3.92,0,0,0-3.91-3.22A4,4,0,0,0,266,6.13a1.6,1.6,0,0,1,1,2.13S268.35,8.3,268.6,9.35Z" transform="translate(0 -0.72)" fill="#77a5be"/><path d="M183.08,9.35s44.62.94,56.84.94,22.13-.42,22.13-.94-9.91-.94-22.13-.94S183.08,9.35,183.08,9.35Z" transform="translate(0 -0.72)" fill="#77a5be"/><path d="M114.22,5.52a6.66,6.66,0,0,1,1.88.53,2.72,2.72,0,0,1,1,.78,1.48,1.48,0,0,1,.31.83,1.11,1.11,0,0,1-.22.68.85.85,0,0,1-.59.32,1.13,1.13,0,0,1-.79-.26,4.15,4.15,0,0,0-.38-1,6.51,6.51,0,0,0-.64-1,5,5,0,0,0-.76-.77Zm1,7.86a.69.69,0,0,0,.29-.05,1,1,0,0,0,.25-.37,4.13,4.13,0,0,0,.22-.42q.09-.22.3-.66t.57-1.32q.36-.88,1-2.4c.43-1,1-2.33,1.69-3.94l.36.1L119.36,6q-.3.95-.6,1.92c-.2.65-.4,1.28-.58,1.88s-.35,1.13-.48,1.58-.23.78-.28,1a6.64,6.64,0,0,0-.22,1,4.66,4.66,0,0,0-.08.86,3.17,3.17,0,0,0,.2,1c.12.33.23.69.34,1.09a5.43,5.43,0,0,1,.12,1.48,1.78,1.78,0,0,1-.39,1.12,1.26,1.26,0,0,1-1,.42.72.72,0,0,1-.54-.25,1.37,1.37,0,0,1-.32-.77,14.66,14.66,0,0,0,.2-2,7.91,7.91,0,0,0-.09-1.48,1.17,1.17,0,0,0-.33-.73,1.14,1.14,0,0,0-.44-.22,2.9,2.9,0,0,0-.56-.08v-.42h.88ZM115.7.9a6.66,6.66,0,0,1,2,.58,3.09,3.09,0,0,1,1,.82,1.57,1.57,0,0,1,.33.85,1.13,1.13,0,0,1-.21.69.85.85,0,0,1-.6.32,1.23,1.23,0,0,1-.82-.24,5,5,0,0,0-.44-1,8.5,8.5,0,0,0-.68-1,9.24,9.24,0,0,0-.76-.84Zm2.7,9.7h12.26l.92-1.32.95.88a7.16,7.16,0,0,1,.67.7c0,.21-.21.32-.5.32H118.56Zm4-9.88,2.66.9a.69.69,0,0,1-.27.29,1,1,0,0,1-.53.09,17.09,17.09,0,0,1-2.19,3.61,12.43,12.43,0,0,1-2.79,2.57L119,8a13.59,13.59,0,0,0,1.31-2,23.39,23.39,0,0,0,1.16-2.51A22.48,22.48,0,0,0,122.38.72Zm.84,5.62c-.08.59-.19,1.33-.31,2.22s-.27,1.85-.43,2.87-.33,2-.5,3-.34,1.87-.48,2.66a1.65,1.65,0,0,1-.73.23,4.11,4.11,0,0,1-1.17-.15c.18-.91.38-1.89.58-2.95s.38-2.12.56-3.19.33-2.08.48-3,.26-1.81.36-2.53l2,.88ZM120.9,15h9.46l1-1.44c.24.21.45.41.64.59l.58.56c.2.19.37.38.52.55,0,.2-.22.3-.52.3H120.9Zm.94-11.3h7.7l1.08-1.42.7.58.64.55.62.55c-.06.21-.24.32-.56.32H121.84Zm.66,2.6h7.2v.58h-7.2Zm2.8,0h1.64c-.06.63-.12,1.34-.2,2.13s-.17,1.61-.25,2.44-.18,1.63-.27,2.4-.18,1.44-.26,2h-1.78c.1-.59.21-1.27.32-2s.21-1.58.31-2.42.19-1.65.28-2.44S125.24,7,125.3,6.34Zm3.74,0h-.24l1-1,1.78,1.54a.88.88,0,0,1-.3.21,2.14,2.14,0,0,1-.54.13c-.06,1.68-.12,3.16-.2,4.44s-.19,2.38-.32,3.29a15.34,15.34,0,0,1-.48,2.22,3.43,3.43,0,0,1-.66,1.25,2.55,2.55,0,0,1-1.08.67,4.69,4.69,0,0,1-1.4.19,2.67,2.67,0,0,0-.08-.67,1.06,1.06,0,0,0-.28-.47,2,2,0,0,0-.75-.38,10,10,0,0,0-1.11-.28v-.32l.94.09,1,.08.68,0a1.33,1.33,0,0,0,.44-.06,1.28,1.28,0,0,0,.32-.2,3.36,3.36,0,0,0,.63-1.69c.16-.9.3-2.11.41-3.63S129,8.43,129,6.34Z" transform="translate(0 -0.72)" fill="#3379a6"/><path d="M136.32,17.74h14.76l1.26-1.6.83.64.77.6c.26.21.5.42.72.62-.06.2-.24.3-.56.3H136.5Zm.86-15.14h13L151.46,1l.81.64.75.6c.27.21.5.41.72.6-.06.21-.24.32-.54.32H137.34Zm.8,7.1H149.6l1.22-1.52.78.61.72.57c.25.2.48.4.7.6,0,.21-.22.32-.54.32H138.14Zm6.4-7.06h2.06V17.9h-2.06Z" transform="translate(0 -0.72)" fill="#3379a6"/><path d="M158.24,18.08H173.5l1.14-1.52.74.61.68.57a7.5,7.5,0,0,1,.64.6c-.06.21-.24.32-.54.32H158.4Zm4.42-9.42,2.5,1a.65.65,0,0,1-.28.26.87.87,0,0,1-.52.06A13.89,13.89,0,0,1,162,13.07a11.76,11.76,0,0,1-2.83,2l-.22-.2A14.85,14.85,0,0,0,161,12.21,17.62,17.62,0,0,0,162.66,8.66Zm-1.56,5.88H172l1.08-1.44c.27.21.5.41.71.58l.65.56.62.56c-.06.21-.24.32-.56.32H161.26ZM161.42,2V1.14l2.12.86h9.18v.58H163.4V8.66c0,.07-.09.15-.25.24a4.94,4.94,0,0,1-.63.27,2.4,2.4,0,0,1-.8.13h-.3Zm.4,9.44h10.42L173.36,10c.28.21.52.41.73.58l.65.56c.22.2.43.39.62.58q-.09.3-.54.3h-13Zm.46-6.66h10.36v.58H162.28Zm0,2.86h10.36v.58H162.28Zm4.42,1.1,2.72.24a.56.56,0,0,1-.17.37,1,1,0,0,1-.55.21v8.78h-2ZM171.78,2h-.2l1-1.06L174.6,2.5a.92.92,0,0,1-.29.24,1.73,1.73,0,0,1-.53.18V8.56s-.1.1-.28.18a5.27,5.27,0,0,1-.67.22,2.75,2.75,0,0,1-.71.1h-.34Z" transform="translate(0 -0.72)" fill="#3379a6"/><path d="M100.35,14.41c-3.88,0-7-2.56-7-5.7h1.3c0,2.43,2.57,4.4,5.74,4.4s5.73-2,5.73-4.4h1.3C107.38,11.85,104.23,14.41,100.35,14.41Z" transform="translate(0 -0.72)" fill="#3379a6"/><rect x="99.73" y="13.04" width="1.3" height="7.53" fill="#3379a6"/><rect x="96.67" y="16.16" width="7.53" height="1.3" fill="#3379a6"/><rect x="93.31" y="1.17" width="1.3" height="6.85" fill="#3379a6"/><rect x="94.37" y="1.06" width="1.02" height="2.95" transform="translate(26 67.12) rotate(-45)" fill="#3379a6"/><polygon points="92.44 3.18 91.67 2.39 93.91 0.11 94.69 0.9 92.44 3.18" fill="#3379a6"/><rect x="99.69" y="1.17" width="1.3" height="11.87" fill="#3379a6"/><rect x="106.08" y="1.17" width="1.3" height="6.89" fill="#3379a6"/><rect x="100.75" y="1.07" width="1.02" height="2.95" transform="translate(27.86 71.63) rotate(-45)" fill="#3379a6"/><polygon points="98.82 3.19 98.04 2.4 100.29 0.12 101.07 0.91 98.82 3.19" fill="#3379a6"/><rect x="107.13" y="1.08" width="1.02" height="2.95" transform="translate(29.72 76.14) rotate(-45)" fill="#3379a6"/><polygon points="105.2 3.2 104.42 2.42 106.67 0.13 107.44 0.92 105.2 3.2" fill="#3379a6"/></g></g></svg>