<?xml version="1.0" encoding="UTF-8"?>
<svg id="_レイヤー_2" data-name="レイヤー 2" xmlns="http://www.w3.org/2000/svg" viewBox="0 0 18.9 14.11">
  <defs>
    <style>
      .cls-1 {
        fill: #39385d;
        stroke-width: 0px;
      }
    </style>
  </defs>
  <g id="design">
    <path class="cls-1" d="m9.46,0c2.15,0,4.29,0,6.44,0,1.53,0,2.72,1.01,2.97,2.53.03.16.03.32.03.49,0,2.7,0,5.39,0,8.09,0,1.46-.91,2.62-2.29,2.94-.22.05-.46.07-.69.07-4.31,0-8.63,0-12.94,0-1.69,0-2.97-1.28-2.98-2.97,0-2.72,0-5.44,0-8.17C0,1.27,1.29,0,3,0c2.15,0,4.31,0,6.46,0Zm8.08,3.13c-.09.07-.15.12-.2.16-2.06,1.66-4.11,3.32-6.17,4.97-1.06.86-2.37.86-3.44,0-2.06-1.65-4.13-3.29-6.19-4.94-.05-.04-.1-.07-.16-.12,0,.06,0,.1,0,.13,0,2.6,0,5.2,0,7.79,0,.94.69,1.61,1.65,1.61,4.29,0,8.58,0,12.87,0,.15,0,.31-.02.46-.05.73-.18,1.19-.81,1.19-1.61,0-2.59,0-5.17,0-7.76v-.2ZM1.85,1.82s.04.04.06.05c2.25,1.79,4.5,3.59,6.75,5.38.49.39,1.13.37,1.62-.03,1.79-1.44,3.58-2.88,5.36-4.33.46-.37.91-.74,1.38-1.12-.08-.06-.14-.11-.2-.15-.3-.2-.63-.26-.98-.26-4.26,0-8.52,0-12.77,0-.07,0-.14,0-.21,0-.39.03-.72.16-1.02.45Z"/>
  </g>
</svg>