<?xml version="1.0" encoding="UTF-8"?>
<svg id="_レイヤー_2" data-name="レイヤー 2" xmlns="http://www.w3.org/2000/svg" xmlns:xlink="http://www.w3.org/1999/xlink" viewBox="0 0 468.5 468.5">
  <defs>
    <style>
      .cls-1 {
        fill: #fdffff;
      }

      .cls-1, .cls-2, .cls-3, .cls-4, .cls-5, .cls-6, .cls-7, .cls-8, .cls-9 {
        stroke-width: 0px;
      }

      .cls-10 {
        opacity: .5;
      }

      .cls-11 {
        clip-path: url(#clippath-2);
      }

      .cls-12 {
        stroke: #386280;
        stroke-width: .5px;
      }

      .cls-12, .cls-2, .cls-13, .cls-14, .cls-15 {
        fill: none;
      }

      .cls-12, .cls-13, .cls-14, .cls-15 {
        stroke-miterlimit: 10;
      }

      .cls-16 {
        opacity: .05;
      }

      .cls-17 {
        clip-path: url(#clippath-1);
      }

      .cls-18 {
        clip-path: url(#clippath-4);
      }

      .cls-3 {
        fill: #eb6c6c;
      }

      .cls-4 {
        fill: #5e7edb;
      }

      .cls-5 {
        fill: #f0bb4a;
      }

      .cls-13 {
        stroke: #7e7dc9;
      }

      .cls-19 {
        clip-path: url(#clippath);
      }

      .cls-20 {
        clip-path: url(#clippath-3);
      }

      .cls-14 {
        stroke: #9c9cad;
      }

      .cls-6 {
        fill: #aaaab9;
      }

      .cls-15 {
        stroke: #e08baf;
      }

      .cls-7 {
        fill: #5ab086;
      }

      .cls-8 {
        fill: #386280;
      }

      .cls-9 {
        fill: #9c9cad;
      }
    </style>
    <clipPath id="clippath">
      <path class="cls-2" d="m234.25,115.92c-65.35,0-118.33,52.98-118.33,118.33s52.98,118.33,118.33,118.33,118.33-52.98,118.33-118.33-52.98-118.33-118.33-118.33Zm0,138.86c-11.34,0-20.53-9.19-20.53-20.53s9.19-20.53,20.53-20.53,20.53,9.19,20.53,20.53-9.19,20.53-20.53,20.53Z"/>
    </clipPath>
    <clipPath id="clippath-1">
      <path class="cls-2" d="m234.25,25.36C118.88,25.36,25.36,118.88,25.36,234.25s93.52,208.89,208.89,208.89,208.89-93.52,208.89-208.89S349.62,25.36,234.25,25.36Zm0,382.77c-96.03,0-173.88-77.85-173.88-173.88S138.22,60.37,234.25,60.37s173.88,77.85,173.88,173.88-77.85,173.88-173.88,173.88Z"/>
    </clipPath>
    <clipPath id="clippath-2">
      <path class="cls-2" d="m231.31,60.4c-96.02,1.63-172.53,80.78-170.91,176.8,1.63,96.02,80.78,172.53,176.8,170.91,96.02-1.63,172.53-80.78,170.91-176.8-1.63-96.02-80.78-172.53-176.8-170.91Zm3.29,194.38c-11.34.19-20.68-8.84-20.87-20.18s8.84-20.68,20.18-20.87c11.34-.19,20.68,8.84,20.87,20.18.19,11.34-8.84,20.68-20.18,20.87Z"/>
    </clipPath>
    <clipPath id="clippath-3">
      <path class="cls-2" d="m231.24,56.74c-98.04,1.66-176.16,82.48-174.5,180.52,1.66,98.04,82.48,176.16,180.52,174.5,98.04-1.66,176.16-82.48,174.5-180.52-1.66-98.04-82.48-176.16-180.52-174.5Zm5.95,351.38c-96.02,1.63-175.19-74.9-176.81-170.92-1.63-96.02,74.9-175.19,170.92-176.81,96.02-1.63,175.19,74.9,176.81,170.92,1.63,96.02-74.9,175.19-170.92,176.81Z"/>
    </clipPath>
    <clipPath id="clippath-4">
      <path class="cls-2" d="m230.71,25.39C115.36,27.34,23.43,122.44,25.39,237.79c1.95,115.35,97.05,207.28,212.4,205.32,115.35-1.95,207.28-97.05,205.32-212.4-1.95-115.35-97.05-207.28-212.4-205.32Zm7,413.44c-112.98,1.91-206.13-88.13-208.04-201.11C27.76,124.73,117.8,31.59,230.78,29.67c112.98-1.91,206.13,88.13,208.04,201.11,1.91,112.98-88.13,206.13-201.11,208.04Z"/>
    </clipPath>
  </defs>
  <g id="design">
    <g>
      <g class="cls-16">
        <circle class="cls-8" cx="234.25" cy="234.25" r="234.25"/>
      </g>
      <g class="cls-10">
        <circle class="cls-1" cx="234.25" cy="234.25" r="118.33"/>
      </g>
      <g class="cls-19">
        <g>
          <polygon class="cls-15" points="303.08 138.86 160.59 324.81 136.44 167.84 303.08 138.86"/>
          <polygon class="cls-15" points="268.66 121.35 198.63 345.94 122.56 195.01 268.66 121.35"/>
          <polyline class="cls-15" points="159.99 143.09 304.89 326.62 133.43 294.02"/>
        </g>
        <g>
          <polyline class="cls-13" points="267.04 121.14 159.99 141.88 199.84 347.15 306.09 327.83"/>
          <polygon class="cls-13" points="137.05 168.44 132.22 294.02 233.65 351.98 137.05 168.44"/>
        </g>
      </g>
      <g class="cls-10">
        <path class="cls-1" d="m233.65,25.36C118.61,25.36,25.36,118.61,25.36,233.65s93.25,208.29,208.29,208.29,208.29-93.25,208.29-208.29S348.68,25.36,233.65,25.36Zm0,380.35c-95.03,0-172.07-77.04-172.07-172.07S138.62,61.58,233.65,61.58s172.07,77.04,172.07,172.07-77.04,172.07-172.07,172.07Z"/>
      </g>
      <g>
        <g class="cls-10">
          <path class="cls-9" d="m234.25,26.36c28.07,0,55.29,5.5,80.92,16.34,24.76,10.47,46.99,25.46,66.08,44.55,19.09,19.09,34.08,41.33,44.55,66.08,10.84,25.63,16.34,52.86,16.34,80.92s-5.5,55.29-16.34,80.92c-10.47,24.76-25.46,46.99-44.55,66.08-19.09,19.09-41.33,34.08-66.08,44.55-25.63,10.84-52.86,16.34-80.92,16.34s-55.29-5.5-80.92-16.34c-24.76-10.47-46.99-25.46-66.08-44.55-19.09-19.09-34.08-41.33-44.55-66.08-10.84-25.63-16.34-52.86-16.34-80.92s5.5-55.29,16.34-80.92c10.47-24.76,25.46-46.99,44.55-66.08,19.09-19.09,41.33-34.08,66.08-44.55,25.63-10.84,52.86-16.34,80.92-16.34m0-1C118.88,25.36,25.36,118.88,25.36,234.25s93.52,208.89,208.89,208.89,208.89-93.52,208.89-208.89S349.62,25.36,234.25,25.36h0Z"/>
        </g>
        <g class="cls-10">
          <path class="cls-9" d="m234.25,29.98c27.58,0,54.33,5.4,79.51,16.05,24.32,10.29,46.17,25.02,64.93,43.78,18.76,18.76,33.49,40.61,43.78,64.93,10.65,25.18,16.05,51.93,16.05,79.51s-5.4,54.33-16.05,79.51c-10.29,24.32-25.02,46.17-43.78,64.93-18.76,18.76-40.61,33.49-64.93,43.78-25.18,10.65-51.93,16.05-79.51,16.05s-54.33-5.4-79.51-16.05c-24.32-10.29-46.17-25.02-64.93-43.78-18.76-18.76-33.49-40.61-43.78-64.93-10.65-25.18-16.05-51.93-16.05-79.51s5.4-54.33,16.05-79.51c10.29-24.32,25.02-46.17,43.78-64.93,18.76-18.76,40.61-33.49,64.93-43.78,25.18-10.65,51.93-16.05,79.51-16.05m0-1C120.88,28.98,28.98,120.88,28.98,234.25s91.9,205.27,205.27,205.27,205.27-91.9,205.27-205.27S347.62,28.98,234.25,28.98h0Z"/>
        </g>
        <g class="cls-10">
          <path class="cls-9" d="m234.25,57.75c47.14,0,91.47,18.36,124.8,51.7,33.34,33.34,51.7,77.66,51.7,124.8s-18.36,91.47-51.7,124.8c-33.34,33.34-77.66,51.7-124.8,51.7s-91.47-18.36-124.8-51.7c-33.34-33.34-51.7-77.66-51.7-124.8s18.36-91.47,51.7-124.8c33.34-33.34,77.66-51.7,124.8-51.7m0-1c-98.03,0-177.5,79.47-177.5,177.5s79.47,177.5,177.5,177.5,177.5-79.47,177.5-177.5S332.28,56.75,234.25,56.75h0Z"/>
        </g>
        <g class="cls-10">
          <path class="cls-9" d="m234.25,61.37c46.18,0,89.59,17.98,122.24,50.63,32.65,32.65,50.63,76.07,50.63,122.24s-17.98,89.59-50.63,122.24c-32.65,32.65-76.07,50.63-122.24,50.63s-89.59-17.98-122.24-50.63c-32.65-32.65-50.63-76.07-50.63-122.24s17.98-89.59,50.63-122.24c32.65-32.65,76.07-50.63,122.24-50.63m0-1c-96.03,0-173.88,77.85-173.88,173.88s77.85,173.88,173.88,173.88,173.88-77.85,173.88-173.88S330.28,60.37,234.25,60.37h0Z"/>
        </g>
        <g class="cls-10">
          <path class="cls-9" d="m234.25,116.92c31.34,0,60.81,12.2,82.97,34.37,22.16,22.16,34.37,51.63,34.37,82.97s-12.2,60.81-34.37,82.97c-22.16,22.16-51.63,34.37-82.97,34.37s-60.81-12.2-82.97-34.37c-22.16-22.16-34.37-51.63-34.37-82.97s12.2-60.81,34.37-82.97c22.16-22.16,51.63-34.37,82.97-34.37m0-1c-65.35,0-118.33,52.98-118.33,118.33s52.98,118.33,118.33,118.33,118.33-52.98,118.33-118.33-52.98-118.33-118.33-118.33h0Z"/>
        </g>
        <g class="cls-10">
          <path class="cls-9" d="m234.25,214.72c10.77,0,19.53,8.76,19.53,19.53s-8.76,19.53-19.53,19.53-19.53-8.76-19.53-19.53,8.76-19.53,19.53-19.53m0-1c-11.34,0-20.53,9.19-20.53,20.53s9.19,20.53,20.53,20.53,20.53-9.19,20.53-20.53-9.19-20.53-20.53-20.53h0Z"/>
        </g>
        <g class="cls-10">
          <g class="cls-17">
            <g>
              <path class="cls-14" d="m234.25,234.25L131.96,45.17c34.77-18.81,68.72-26.91,108.24-25.81l-5.96,214.89Z"/>
              <path class="cls-14" d="m234.25,234.25L51.13,121.65c20.71-33.68,46.06-57.66,80.84-76.48l102.29,189.08Z"/>
              <path class="cls-14" d="m234.25,234.25l-214.89-5.96c1.1-39.52,11.06-72.97,31.77-106.65l183.12,112.6Z"/>
              <path class="cls-14" d="m234.25,234.25l-189.08,102.29c-18.81-34.77-26.91-68.72-25.81-108.24l214.89,5.96Z"/>
              <path class="cls-14" d="m234.25,234.25l-112.6,183.12c-33.68-20.71-57.66-46.06-76.48-80.84l189.08-102.29Z"/>
              <line class="cls-14" x1="121.65" y1="417.37" x2="234.25" y2="234.25"/>
              <line class="cls-14" x1="228.29" y1="449.14" x2="234.25" y2="234.25"/>
              <line class="cls-14" x1="336.54" y1="423.33" x2="234.25" y2="234.25"/>
              <line class="cls-14" x1="234.25" y1="234.25" x2="423.33" y2="131.96"/>
              <path class="cls-14" d="m234.25,234.25l112.6-183.12c33.68,20.71,57.66,46.06,76.48,80.84l-189.08,102.29Z"/>
              <line class="cls-14" x1="417.37" y1="346.85" x2="234.25" y2="234.25"/>
              <line class="cls-14" x1="234.25" y1="234.25" x2="449.14" y2="240.21"/>
              <path class="cls-14" d="m234.25,234.25l5.96-214.89c39.52,1.1,72.97,11.06,106.65,31.77l-112.6,183.12Z"/>
            </g>
          </g>
        </g>
        <g class="cls-10">
          <g class="cls-11">
            <g>
              <line class="cls-14" x1="43.3" y1="135.49" x2="234.25" y2="234.25"/>
              <line class="cls-14" x1="19.29" y1="231.93" x2="234.25" y2="234.25"/>
              <line class="cls-14" x1="42.6" y1="331.62" x2="234.25" y2="234.25"/>
              <line class="cls-14" x1="118.84" y1="415.61" x2="234.25" y2="234.25"/>
              <line class="cls-14" x1="233.65" y1="449.18" x2="233.66" y2="234.25"/>
              <line class="cls-14" x1="351.81" y1="414.23" x2="234.25" y2="234.25"/>
              <line class="cls-14" x1="234.25" y1="234.25" x2="425.14" y2="135.38"/>
              <line class="cls-14" x1="233.65" y1="234.25" x2="233.51" y2="19.32"/>
              <line class="cls-14" x1="234.25" y1="234.25" x2="349.86" y2="53.01"/>
              <line class="cls-14" x1="426.46" y1="330.53" x2="234.25" y2="234.25"/>
              <line class="cls-14" x1="234.25" y1="234.25" x2="449.22" y2="233.46"/>
              <line class="cls-14" x1="234.25" y1="234.25" x2="119.46" y2="52.49"/>
            </g>
          </g>
        </g>
        <g class="cls-10">
          <g class="cls-20">
            <g>
              <line class="cls-14" x1="234.25" y1="234.24" x2="203.26" y2="21.51"/>
              <line class="cls-14" x1="234.25" y1="234.24" x2="166.69" y2="30.16"/>
            </g>
            <g>
              <line class="cls-14" x1="234.24" y1="234.24" x2="101.79" y2="64.92"/>
              <line class="cls-14" x1="234.24" y1="234.24" x2="74.33" y2="90.57"/>
            </g>
            <g>
              <line class="cls-14" x1="234.24" y1="234.24" x2="35.23" y2="152.95"/>
              <line class="cls-14" x1="234.24" y1="234.25" x2="24.11" y2="188.85"/>
            </g>
            <g>
              <line class="cls-14" x1="234.24" y1="234.25" x2="21.12" y2="262.41"/>
              <line class="cls-14" x1="234.24" y1="234.25" x2="29.28" y2="299.1"/>
            </g>
            <g>
              <line class="cls-14" x1="234.24" y1="234.26" x2="66.09" y2="368.19"/>
              <line class="cls-14" x1="234.24" y1="234.26" x2="91.98" y2="395.43"/>
            </g>
            <g>
              <line class="cls-14" x1="234.25" y1="234.26" x2="155.85" y2="434.43"/>
              <line class="cls-14" x1="234.25" y1="234.26" x2="191.91" y2="445.03"/>
            </g>
            <g>
              <line class="cls-14" x1="234.25" y1="234.26" x2="267.5" y2="446.65"/>
              <line class="cls-14" x1="234.25" y1="234.26" x2="303.98" y2="437.62"/>
            </g>
            <g>
              <line class="cls-14" x1="234.26" y1="234.26" x2="369.36" y2="401.47"/>
              <line class="cls-14" x1="234.26" y1="234.26" x2="396.42" y2="375.39"/>
            </g>
            <g>
              <line class="cls-14" x1="234.26" y1="234.25" x2="434.93" y2="311.37"/>
              <line class="cls-14" x1="234.26" y1="234.25" x2="445.29" y2="275.24"/>
            </g>
            <g>
              <line class="cls-14" x1="234.26" y1="234.25" x2="446.66" y2="201.09"/>
              <line class="cls-14" x1="234.26" y1="234.25" x2="437.64" y2="164.6"/>
            </g>
            <g>
              <line class="cls-14" x1="234.26" y1="234.24" x2="402.15" y2="99.98"/>
              <line class="cls-14" x1="234.26" y1="234.24" x2="376.2" y2="72.79"/>
            </g>
            <g>
              <line class="cls-14" x1="234.25" y1="234.24" x2="313.3" y2="34.32"/>
              <line class="cls-14" x1="234.25" y1="234.24" x2="277.28" y2="23.61"/>
            </g>
          </g>
        </g>
        <g class="cls-10">
          <g class="cls-18">
            <g>
              <line class="cls-14" x1="234.25" y1="234.24" x2="203.26" y2="21.51"/>
              <line class="cls-14" x1="234.25" y1="234.24" x2="166.69" y2="30.16"/>
            </g>
            <g>
              <line class="cls-14" x1="234.24" y1="234.24" x2="101.79" y2="64.92"/>
              <line class="cls-14" x1="234.24" y1="234.24" x2="74.33" y2="90.57"/>
            </g>
            <g>
              <line class="cls-14" x1="234.24" y1="234.24" x2="35.23" y2="152.95"/>
              <line class="cls-14" x1="234.24" y1="234.25" x2="24.11" y2="188.85"/>
            </g>
            <g>
              <line class="cls-14" x1="234.24" y1="234.25" x2="21.12" y2="262.41"/>
              <line class="cls-14" x1="234.24" y1="234.25" x2="29.28" y2="299.1"/>
            </g>
            <g>
              <line class="cls-14" x1="234.24" y1="234.26" x2="66.09" y2="368.19"/>
              <line class="cls-14" x1="234.24" y1="234.26" x2="91.98" y2="395.43"/>
            </g>
            <g>
              <line class="cls-14" x1="234.25" y1="234.26" x2="155.85" y2="434.43"/>
              <line class="cls-14" x1="234.25" y1="234.26" x2="191.91" y2="445.03"/>
            </g>
            <g>
              <line class="cls-14" x1="234.25" y1="234.26" x2="267.5" y2="446.65"/>
              <line class="cls-14" x1="234.25" y1="234.26" x2="303.98" y2="437.62"/>
            </g>
            <g>
              <line class="cls-14" x1="234.26" y1="234.26" x2="369.36" y2="401.47"/>
              <line class="cls-14" x1="234.26" y1="234.26" x2="396.42" y2="375.39"/>
            </g>
            <g>
              <line class="cls-14" x1="234.26" y1="234.25" x2="434.93" y2="311.37"/>
              <line class="cls-14" x1="234.26" y1="234.25" x2="445.29" y2="275.24"/>
            </g>
            <g>
              <line class="cls-14" x1="234.26" y1="234.25" x2="446.66" y2="201.09"/>
              <line class="cls-14" x1="234.26" y1="234.25" x2="437.64" y2="164.6"/>
            </g>
            <g>
              <line class="cls-14" x1="234.26" y1="234.24" x2="402.15" y2="99.98"/>
              <line class="cls-14" x1="234.26" y1="234.24" x2="376.2" y2="72.79"/>
            </g>
            <g>
              <line class="cls-14" x1="234.25" y1="234.24" x2="313.3" y2="34.32"/>
              <line class="cls-14" x1="234.25" y1="234.24" x2="277.28" y2="23.61"/>
            </g>
          </g>
        </g>
      </g>
      <g>
        <path class="cls-6" d="m196.68,246.16h2.14v-6.53h-1.75v-.97c.92-.16,1.57-.4,2.12-.74h1.15v8.24h1.91v1.26h-5.58v-1.26Z"/>
        <path class="cls-6" d="m203.97,262.23c2.72-2.67,4.37-4.37,4.37-5.85,0-1.04-.56-1.73-1.66-1.73-.77,0-1.41.49-1.92,1.09l-.86-.85c.84-.9,1.7-1.46,2.97-1.46,1.79,0,2.95,1.14,2.95,2.87s-1.58,3.49-3.61,5.62c.49-.05,1.11-.09,1.59-.09h2.48v1.3h-6.3v-.89Z"/>
        <path class="cls-6" d="m221.27,271.01l.74-.98c.57.58,1.3,1.08,2.31,1.08,1.1,0,1.86-.6,1.86-1.55,0-1.05-.69-1.73-2.89-1.73v-1.13c1.92,0,2.56-.7,2.56-1.62,0-.85-.57-1.37-1.5-1.37-.76,0-1.39.37-1.95.93l-.8-.96c.77-.7,1.67-1.19,2.8-1.19,1.75,0,2.99.9,2.99,2.47,0,1.1-.65,1.83-1.69,2.22v.07c1.13.28,2.02,1.1,2.02,2.39,0,1.71-1.47,2.72-3.27,2.72-1.54,0-2.54-.61-3.19-1.34Z"/>
        <path class="cls-6" d="m245.09,269.6h-4.24v-1.02l3.89-5.96h1.78v5.8h1.23v1.18h-1.23v2.52h-1.43v-2.52Zm0-1.18v-2.4c0-.53.04-1.38.07-1.91h-.05c-.24.48-.5.93-.78,1.42l-1.92,2.89h2.7Z"/>
        <path class="cls-6" d="m257.99,261.99l.73-1c.56.56,1.26,1.05,2.28,1.05,1.1,0,1.94-.74,1.94-1.95s-.74-1.91-1.86-1.91c-.62,0-1,.19-1.57.56l-.74-.48.29-4.65h4.95v1.29h-3.62l-.22,2.51c.42-.21.81-.33,1.34-.33,1.63,0,2.97.92,2.97,2.96s-1.58,3.25-3.29,3.25c-1.54,0-2.51-.62-3.2-1.3Z"/>
        <path class="cls-6" d="m265.89,242.99c0-3.74,1.75-5.26,3.69-5.26,1.09,0,1.88.46,2.44,1.05l-.84.93c-.36-.42-.96-.72-1.54-.72-1.24,0-2.27.93-2.34,3.72.57-.7,1.42-1.14,2.12-1.14,1.63,0,2.75.97,2.75,2.93s-1.33,3.09-2.92,3.09c-1.86,0-3.37-1.47-3.37-4.61Zm1.46.85c.16,1.77.86,2.59,1.9,2.59.85,0,1.53-.72,1.53-1.92s-.58-1.82-1.62-1.82c-.54,0-1.22.31-1.81,1.15Z"/>
        <path class="cls-6" d="m270.21,222.35h-4.59v-1.29h6.29v.93c-2.24,2.8-2.65,4.87-2.81,8.58h-1.57c.17-3.45.84-5.64,2.68-8.22Z"/>
        <path class="cls-6" d="m257.69,211.63c0-1.21.85-2.02,1.75-2.5v-.05c-.73-.52-1.31-1.22-1.31-2.22,0-1.51,1.19-2.5,2.79-2.5,1.7,0,2.76,1.05,2.76,2.55,0,.98-.69,1.79-1.29,2.23v.07c.86.5,1.65,1.18,1.65,2.46,0,1.45-1.27,2.56-3.16,2.56s-3.19-1.09-3.19-2.6Zm4.9,0c0-1.13-1.07-1.51-2.4-2.06-.66.46-1.14,1.12-1.14,1.91,0,.97.81,1.65,1.86,1.65s1.69-.58,1.69-1.5Zm-.2-4.62c0-.88-.54-1.54-1.5-1.54-.8,0-1.39.53-1.39,1.39,0,1.02.93,1.47,2.02,1.9.57-.53.88-1.12.88-1.75Z"/>
        <path class="cls-6" d="m241.42,203.18l.84-.94c.36.44.96.73,1.53.73,1.25,0,2.3-.96,2.36-3.74-.57.73-1.42,1.15-2.14,1.15-1.65,0-2.75-.97-2.75-2.93s1.33-3.09,2.91-3.09c1.87,0,3.38,1.47,3.38,4.62,0,3.74-1.77,5.24-3.69,5.24-1.1,0-1.9-.45-2.44-1.04Zm2.85-3.9c.58,0,1.29-.35,1.83-1.18-.17-1.75-.89-2.56-1.92-2.56-.84,0-1.5.7-1.5,1.91s.56,1.83,1.59,1.83Z"/>
        <g>
          <path class="cls-6" d="m217.99,202.78h2.14v-6.53h-1.75v-.97c.92-.16,1.57-.4,2.12-.74h1.15v8.24h1.91v1.26h-5.58v-1.26Z"/>
          <path class="cls-6" d="m224.78,199.25c0-3.2,1.22-4.9,3.16-4.9s3.16,1.71,3.16,4.9-1.21,4.96-3.16,4.96-3.16-1.77-3.16-4.96Zm4.86,0c0-2.73-.7-3.69-1.7-3.69s-1.7.96-1.7,3.69.7,3.76,1.7,3.76,1.7-1.02,1.7-3.76Z"/>
        </g>
        <g>
          <path class="cls-6" d="m201.12,212.8h2.14v-6.53h-1.75v-.97c.92-.16,1.57-.4,2.12-.74h1.15v8.24h1.91v1.26h-5.58v-1.26Z"/>
          <path class="cls-6" d="m208.42,212.8h2.14v-6.53h-1.75v-.97c.92-.16,1.57-.4,2.12-.74h1.15v8.24h1.91v1.26h-5.58v-1.26Z"/>
        </g>
        <g>
          <path class="cls-6" d="m192.43,229.31h2.14v-6.53h-1.75v-.97c.92-.16,1.57-.4,2.12-.74h1.16v8.24h1.91v1.26h-5.58v-1.26Z"/>
          <path class="cls-6" d="m199.17,229.68c2.72-2.67,4.37-4.37,4.37-5.85,0-1.04-.56-1.73-1.66-1.73-.77,0-1.41.49-1.92,1.09l-.86-.85c.84-.9,1.7-1.46,2.97-1.46,1.79,0,2.95,1.14,2.95,2.87s-1.58,3.49-3.61,5.62c.49-.05,1.12-.09,1.59-.09h2.48v1.3h-6.31v-.89Z"/>
        </g>
      </g>
      <g>
        <g>
          <path class="cls-7" d="m372.41,111.11c-3.28,0-5.94-2.66-5.94-5.94s2.66-5.94,5.94-5.94,5.94,2.66,5.94,5.94-2.66,5.94-5.94,5.94Zm0-10.22c-2.36,0-4.28,1.92-4.28,4.28s1.92,4.28,4.28,4.28,4.28-1.92,4.28-4.28-1.92-4.28-4.28-4.28Z"/>
          <path class="cls-7" d="m372.41,100.89c-1.97,0-3.53-.93-4.63-2.75-.73-1.2-1.74-1.69-3.48-1.69v-1.66c1.46,0,3.55.26,4.9,2.5.8,1.33,1.82,1.95,3.21,1.95s2.41-.62,3.21-1.95c1.35-2.24,3.45-2.5,4.9-2.5v1.66c-1.75,0-2.76.49-3.48,1.69-1.1,1.82-2.66,2.75-4.63,2.75Z"/>
        </g>
        <g>
          <path class="cls-7" d="m49.63,182.69h-1.66v-11.43c0-1.43-1.62-2.53-1.64-2.54l.91-1.39c.1.06,2.39,1.59,2.39,3.93v11.43Z"/>
          <path class="cls-7" d="m53.66,182.69h-1.66v-11.43c0-.93-.45-1.71-.8-2.17-.68.47-1.56,1.29-1.56,2.17v11.43h-1.66v-11.43c0-2.39,2.88-3.91,3-3.98l.51-.26.43.38c.07.06,1.75,1.59,1.75,3.86v11.43Z"/>
          <path class="cls-7" d="m54.71,184.66l-.22-1.65s3.91-.58,4.4-3.54c.22-1.35-.02-2.28-.28-2.84-.43.46-.93,1.17-.93,1.99h-1.66c0-2.33,2.19-3.86,2.28-3.92l.55-.38.49.46c.07.07,1.73,1.68,1.18,4.96-.69,4.17-5.61,4.88-5.81,4.91Z"/>
          <path class="cls-7" d="m58.62,185.85c-1.75-1.28-2.61-2.94-2.61-5.07v-9.51c0-.93-.45-1.71-.8-2.17-.68.47-1.56,1.29-1.56,2.17v11.43h-1.66v-11.43c0-2.39,2.88-3.91,3-3.98l.51-.26.43.38c.07.06,1.75,1.59,1.75,3.86v9.51c0,1.61.59,2.76,1.92,3.73l-.98,1.34Z"/>
        </g>
        <g>
          <path class="cls-7" d="m277.74,423.78h-1.66c0-8.31-1.27-9.62-4.16-10.64l.55-1.57c4.13,1.46,5.26,4.08,5.26,12.21Z"/>
          <path class="cls-7" d="m285.04,423.78h-1.66v-.55c0-7.4-.05-9-1.8-9.96-2.13,1.05-3.84,2.82-3.84,10.5h-1.66c0-8.22,1.89-10.69,5.16-12.18l.34-.16.34.16c3.11,1.42,3.11,3.58,3.11,11.63v.55Z"/>
          <path class="cls-7" d="m279.75,429.5c-.26,0-.44-.02-.47-.02l.18-1.65s1.79.15,2.4-.8l.03-.05c.3-.42.62-.94.96-1.5.2-.33.41-.68.62-1.02-.06-.23-.09-.46-.09-.69h.55c.89-1.27,1.94-2.34,3.36-2.47,1.54-.15,2.99.86,3.31,2.29.18.8-.05,1.66-.61,2.36-.63.79-1.62,1.28-2.58,1.28-1.13,0-2.21-.47-2.96-1.19-.06.1-.12.2-.18.3-.35.58-.68,1.13-1.02,1.6-.89,1.39-2.66,1.57-3.5,1.57Zm5.63-4.9c.43.53,1.2.97,2.03.97.46,0,.96-.26,1.28-.65.14-.18.37-.54.28-.96-.14-.62-.82-1.06-1.53-1-.75.07-1.43.76-2.07,1.65Z"/>
        </g>
      </g>
      <g>
        <g>
          <path class="cls-4" d="m186.33,49.39c-2,0-3.63-1.63-3.63-3.63s1.63-3.63,3.63-3.63,3.63,1.63,3.63,3.63-1.63,3.63-3.63,3.63Zm0-5.59c-1.08,0-1.96.88-1.96,1.96s.88,1.96,1.96,1.96,1.96-.88,1.96-1.96-.88-1.96-1.96-1.96Z"/>
          <path class="cls-4" d="m197.54,45.02c-1.37-1.78-4.12-2.17-5.64-2.25-3.13-.15-6.14.72-7,1.64l-1.21-1.13c1.31-1.4,4.88-2.33,8.29-2.16,3.12.15,5.56,1.18,6.87,2.9l-1.32,1.01Z"/>
          <g>
            <path class="cls-4" d="m195.4,54.25c-2,0-3.63-1.63-3.63-3.63s1.63-3.63,3.63-3.63,3.63,1.63,3.63,3.63-1.63,3.63-3.63,3.63Zm0-5.59c-1.08,0-1.96.88-1.96,1.96s.88,1.96,1.96,1.96,1.96-.88,1.96-1.96-.88-1.96-1.96-1.96Z"/>
            <path class="cls-4" d="m190.55,55.29c-.27,0-.53,0-.8-.02-3.12-.15-5.56-1.18-6.87-2.9l1.32-1.01c1.37,1.78,4.12,2.17,5.64,2.25,3.13.15,6.14-.72,7-1.64l1.21,1.13c-1.21,1.29-4.33,2.18-7.49,2.18Z"/>
          </g>
        </g>
        <g>
          <g>
            <path class="cls-4" d="m92.46,372.98h-1.66v-11.43c0-1.44-1.62-2.54-1.64-2.55l.91-1.39c.1.06,2.39,1.59,2.39,3.93v11.43Z"/>
            <path class="cls-4" d="m96.48,372.98h-1.66v-11.43c0-.93-.45-1.71-.8-2.17-.68.47-1.56,1.29-1.56,2.17v11.43h-1.66v-11.43c0-2.39,2.88-3.91,3-3.98l.51-.26.43.38c.07.06,1.75,1.59,1.75,3.86v11.43Z"/>
            <path class="cls-4" d="m103.14,375.18c-1.27,0-2.28-.31-3.01-.93-.85-.72-1.28-1.79-1.28-3.19v-9.51c0-.93-.45-1.71-.8-2.17-.68.47-1.56,1.29-1.56,2.17v11.43h-1.66v-11.43c0-2.39,2.88-3.91,3-3.98l.51-.26.43.38c.07.06,1.75,1.59,1.75,3.86v9.51c0,.89.23,1.53.69,1.92.62.53,1.76.67,3.3.41l.27,1.64c-.59.1-1.13.15-1.64.15Z"/>
          </g>
          <polygon class="cls-4" points="102.99 377.04 101.82 375.86 103.46 374.22 101.82 372.57 102.99 371.4 105.81 374.22 102.99 377.04"/>
        </g>
        <g>
          <path class="cls-4" d="m410.98,293.32v-1.66c2.65,0,4.8-2.92,4.8-6.5s-2.15-6.5-4.8-6.5v-1.66c3.56,0,6.46,3.66,6.46,8.16s-2.9,8.16-6.46,8.16Z"/>
          <path class="cls-4" d="m425.65,293.32c-3.56,0-6.46-3.66-6.46-8.16s2.9-8.16,6.46-8.16v1.66c-2.65,0-4.8,2.92-4.8,6.5s2.15,6.5,4.8,6.5v1.66Z"/>
          <rect class="cls-4" x="412.47" y="284.33" width="11.68" height="1.66"/>
        </g>
      </g>
      <g>
        <g>
          <rect class="cls-5" x="284.48" y="45.13" width="1.66" height="12.45"/>
          <rect class="cls-5" x="290.89" y="45.13" width="1.66" height="12.45"/>
          <path class="cls-5" d="m288.52,46.5c-2.96,0-5.74-.42-7.63-1.14l.6-1.55c1.71.66,4.27,1.03,7.03,1.03s5.33-.38,7.03-1.03l.6,1.55c-1.89.73-4.67,1.14-7.63,1.14Z"/>
          <path class="cls-5" d="m295.55,58.9c-1.71-.66-4.27-1.03-7.03-1.03s-5.33.38-7.03,1.03l-.6-1.55c1.89-.73,4.67-1.14,7.63-1.14s5.74.42,7.63,1.14l-.6,1.55Z"/>
        </g>
        <g>
          <polygon class="cls-5" points="369.36 371.88 367.75 368.99 363.57 371.88 361.97 368.99 357.86 371.83 356.91 370.47 362.53 366.58 364.14 369.47 368.32 366.58 369.92 369.47 374.1 366.58 376.55 371 375.1 371.81 373.54 368.99 369.36 371.88"/>
          <polygon class="cls-5" points="369.36 377.61 367.75 374.71 363.57 377.61 361.97 374.71 357.86 377.56 356.91 376.19 362.53 372.31 364.14 375.2 368.32 372.31 369.92 375.2 374.1 372.31 376.55 376.73 375.1 377.53 373.54 374.71 369.36 377.61"/>
        </g>
        <g>
          <path class="cls-5" d="m56.84,280.03h-7.14l2.22-1.52c1.17-.8,1.87-2.12,1.87-3.54,0-2.36-1.92-4.28-4.28-4.28s-4.28,1.92-4.28,4.28c0,1.42.7,2.74,1.87,3.54l2.22,1.52h-7.14v-1.66h2.46c-.68-.98-1.06-2.16-1.06-3.39,0-3.28,2.66-5.94,5.94-5.94s5.94,2.66,5.94,5.94c0,1.23-.38,2.41-1.06,3.39h2.46v1.66Z"/>
          <rect class="cls-5" x="42.17" y="281.42" width="14.66" height="1.66"/>
        </g>
      </g>
      <g>
        <path class="cls-3" d="m419.9,195.93h-1.66c0-8.02-1.67-11.49-2.67-12.85-.75-1.01-1.9-1.27-2.87-.64-.95.62-1.22,1.89-.6,2.84l-1.39.91c-1.12-1.72-.63-4.02,1.09-5.14,1.7-1.11,3.85-.67,5.11,1.05.74,1.01,1.57,2.64,2.16,5.21.59-2.58,1.42-4.2,2.16-5.21,1.26-1.71,3.41-2.15,5.11-1.05,1.72,1.12,2.2,3.42,1.09,5.14l-1.39-.91c.62-.95.35-2.22-.6-2.84-.97-.63-2.12-.37-2.87.64-1,1.36-2.67,4.83-2.67,12.85Z"/>
        <g>
          <path class="cls-3" d="m101.74,97.94c-1.81,0-3.28-1.47-3.28-3.28s1.47-3.28,3.28-3.28,3.28,1.47,3.28,3.28-1.47,3.28-3.28,3.28Zm0-4.91c-.9,0-1.62.73-1.62,1.62s.73,1.62,1.62,1.62,1.62-.73,1.62-1.62-.73-1.62-1.62-1.62Z"/>
          <path class="cls-3" d="m109.13,100.65c-1.57,0-2.85-1.28-2.85-2.85,0-.09,0-.17.01-.26.02-.23.07-.46.15-.68.14-.53,1.81-7.18,1.95-7.74l.03-.2c.04-.18.05-.34.05-.5,0-1.35-1.09-2.44-2.44-2.44s-2.44,1.09-2.44,2.44c0,.2.02.4.07.59h-.04c.15.44.34,1.16.66,2.37l.62,2.38-1.61.42s-.74-2.85-1.08-4.14c0,0-.16-.63-.16-.63-.08-.32-.12-.65-.12-.99,0-2.26,1.84-4.1,4.1-4.1s4.1,1.84,4.1,4.1c0,.26-.03.53-.07.78l-.05.29-.98,3.91c-.62,2.47-.88,3.5-1.05,3.98l.04.02c-.04.1-.06.2-.07.3,0,.04,0,.07,0,.11,0,.65.53,1.19,1.19,1.19s1.19-.53,1.19-1.19h1.66c0,1.57-1.28,2.85-2.85,2.85Z"/>
        </g>
        <g>
          <rect class="cls-3" x="172.27" y="417.08" width="16.55" height="1.66" transform="translate(-273.45 384.17) rotate(-62.38)"/>
          <polygon class="cls-3" points="185.02 415.4 183.83 411.62 180.05 412.8 179.56 411.22 184.92 409.54 186.6 414.91 185.02 415.4"/>
          <rect class="cls-3" x="178.5" y="416.5" width="1.66" height="7.46" transform="translate(-276.15 384.33) rotate(-62.38)"/>
        </g>
      </g>
      <g>
        <g>
          <path class="cls-8" d="m92.37,190.77c-3.49,0-6.33-2.84-6.33-6.33s2.84-6.33,6.33-6.33,6.33,2.84,6.33,6.33-2.84,6.33-6.33,6.33Zm0-11.21c-2.69,0-4.88,2.19-4.88,4.88s2.19,4.88,4.88,4.88,4.88-2.19,4.88-4.88-2.19-4.88-4.88-4.88Z"/>
          <circle class="cls-8" cx="92.37" cy="184.44" r="1.38"/>
        </g>
        <g>
          <path class="cls-8" d="m314.09,114.23l.9-.89c1.39-1.37,2.15-3.2,2.15-5.15s-.76-3.78-2.15-5.15l-.9-.89h1.27c3.29.04,5.97,2.74,5.97,6.04s-2.68,6-5.97,6.03h-1.27Zm2.53-10.86c1.01,1.4,1.55,3.07,1.55,4.82s-.54,3.43-1.55,4.82c2.12-.58,3.68-2.53,3.68-4.82s-1.57-4.24-3.68-4.82Z"/>
          <path class="cls-8" d="m314.09,114.36c-.05,0-.1-.03-.12-.08-.02-.05,0-.1.03-.14l.9-.89c1.36-1.35,2.11-3.14,2.11-5.05s-.75-3.71-2.11-5.05l-.9-.89s-.05-.09-.03-.14c.02-.05.07-.08.12-.08h1.27c3.36.04,6.1,2.8,6.1,6.17s-2.74,6.13-6.1,6.16h-1.27s0,.01,0,.01Zm.32-12.07l.68.67c1.41,1.39,2.19,3.25,2.19,5.24s-.78,3.84-2.19,5.24l-.67.67h.95c3.22-.04,5.85-2.68,5.85-5.9s-2.62-5.87-5.85-5.9h-.95Zm2.21,10.86s-.08-.02-.11-.06c-.03-.05-.03-.11,0-.15,1-1.38,1.53-3.02,1.53-4.75s-.53-3.36-1.53-4.75c-.03-.04-.03-.1,0-.15.03-.04.09-.06.14-.05,2.23.61,3.78,2.64,3.78,4.95s-1.55,4.34-3.78,4.95c-.01,0-.02,0-.03,0Zm.32-9.54c.89,1.36,1.36,2.94,1.36,4.58s-.47,3.23-1.36,4.59c1.92-.69,3.24-2.52,3.24-4.59s-1.31-3.9-3.24-4.58Z"/>
        </g>
        <g>
          <g>
            <path class="cls-8" d="m134.24,121.36c-2.23,0-4.05-1.82-4.05-4.05s1.82-4.05,4.05-4.05,4.05,1.82,4.05,4.05-1.82,4.05-4.05,4.05Zm0-7.17c-1.72,0-3.12,1.4-3.12,3.12s1.4,3.12,3.12,3.12,3.12-1.4,3.12-3.12-1.4-3.12-3.12-3.12Z"/>
            <path class="cls-8" d="m134.24,121.49c-2.3,0-4.18-1.87-4.18-4.18s1.87-4.18,4.18-4.18,4.18,1.87,4.18,4.18-1.87,4.18-4.18,4.18Zm0-8.1c-2.16,0-3.92,1.76-3.92,3.92s1.76,3.92,3.92,3.92,3.92-1.76,3.92-3.92-1.76-3.92-3.92-3.92Zm0,7.17c-1.79,0-3.25-1.46-3.25-3.25s1.46-3.25,3.25-3.25,3.25,1.46,3.25,3.25-1.46,3.25-3.25,3.25Zm0-6.25c-1.65,0-3,1.34-3,2.99s1.34,3,3,3,3-1.34,3-3-1.34-2.99-3-2.99Z"/>
          </g>
          <g>
            <rect class="cls-8" x="133.78" y="120.9" width=".92" height="5.5"/>
            <path class="cls-8" d="m134.71,126.53h-.92c-.07,0-.13-.06-.13-.13v-5.5c0-.07.06-.13.13-.13h.92c.07,0,.13.06.13.13v5.5c0,.07-.06.13-.13.13Zm-.8-.26h.67v-5.24h-.67v5.24Z"/>
          </g>
          <g>
            <rect class="cls-8" x="131.49" y="122.46" width="5.5" height=".92"/>
            <path class="cls-8" d="m136.99,123.51h-5.5c-.07,0-.13-.06-.13-.13v-.92c0-.07.06-.13.13-.13h5.5c.07,0,.13.06.13.13v.92c0,.07-.06.13-.13.13Zm-5.37-.26h5.25v-.66h-5.25v.66Z"/>
          </g>
        </g>
        <g>
          <g>
            <path class="cls-8" d="m107.07,150.6c-2.23,0-4.05-1.82-4.05-4.05s1.82-4.05,4.05-4.05,4.05,1.82,4.05,4.05-1.82,4.05-4.05,4.05Zm0-7.17c-1.72,0-3.12,1.4-3.12,3.12s1.4,3.12,3.12,3.12,3.12-1.4,3.12-3.12-1.4-3.12-3.12-3.12Z"/>
            <path class="cls-8" d="m107.07,150.73c-2.3,0-4.18-1.87-4.18-4.18s1.87-4.18,4.18-4.18,4.18,1.87,4.18,4.18-1.87,4.18-4.18,4.18Zm0-8.1c-2.16,0-3.92,1.76-3.92,3.92s1.76,3.92,3.92,3.92,3.92-1.76,3.92-3.92-1.76-3.92-3.92-3.92Zm0,7.17c-1.79,0-3.25-1.46-3.25-3.25s1.46-3.25,3.25-3.25,3.25,1.46,3.25,3.25-1.46,3.25-3.25,3.25Zm0-6.25c-1.65,0-3,1.34-3,2.99s1.34,3,3,3,3-1.34,3-3-1.34-2.99-3-2.99Z"/>
          </g>
          <g>
            <path class="cls-8" d="m103.87,145.12c-.68-.24-1.24-.72-1.55-1.38-.32-.65-.36-1.39-.13-2.07l.87.3c-.32.93.18,1.95,1.11,2.27l-.3.87Z"/>
            <path class="cls-8" d="m103.87,145.25s-.03,0-.04,0c-.72-.25-1.3-.76-1.63-1.44-.33-.68-.38-1.45-.13-2.17.02-.07.1-.1.16-.08l.87.3s.06.03.07.07c.02.03.02.07,0,.1-.14.42-.12.87.08,1.27s.53.7.95.84c.03.01.06.03.07.07.02.03.02.07,0,.1l-.3.87c-.02.05-.07.09-.12.09Zm-1.6-3.41c-.18.62-.12,1.27.16,1.85.28.58.76,1.03,1.36,1.26l.22-.63c-.43-.18-.77-.5-.98-.93-.21-.42-.25-.89-.13-1.34l-.63-.22Z"/>
          </g>
          <g>
            <path class="cls-8" d="m110.28,145.12l-.3-.87c.93-.32,1.43-1.34,1.11-2.27l.87-.3c.24.68.19,1.42-.13,2.07-.32.65-.87,1.14-1.55,1.38Z"/>
            <path class="cls-8" d="m110.28,145.25c-.05,0-.1-.03-.12-.09l-.3-.87s0-.07,0-.1c.02-.03.04-.05.07-.07.42-.14.76-.44.95-.84s.22-.85.08-1.27c-.02-.07.01-.14.08-.16l.87-.3s.07,0,.1,0c.03.02.05.04.07.07.25.72.2,1.49-.13,2.17-.33.68-.91,1.19-1.63,1.44-.01,0-.03,0-.04,0Zm-.14-.93l.22.63c.6-.24,1.08-.68,1.36-1.26.28-.58.34-1.23.16-1.85l-.63.22c.12.45.08.92-.13,1.34-.21.42-.55.75-.98.93Z"/>
          </g>
          <g>
            <rect class="cls-8" x="106.61" y="150.14" width=".92" height="5.5"/>
            <path class="cls-8" d="m107.54,155.77h-.92c-.07,0-.13-.06-.13-.13v-5.5c0-.07.06-.13.13-.13h.92c.07,0,.13.06.13.13v5.5c0,.07-.06.13-.13.13Zm-.8-.26h.67v-5.24h-.67v5.24Z"/>
          </g>
          <g>
            <rect class="cls-8" x="104.32" y="151.7" width="5.5" height=".92"/>
            <path class="cls-8" d="m109.83,152.75h-5.5c-.07,0-.13-.06-.13-.13v-.92c0-.07.06-.13.13-.13h5.5c.07,0,.13.06.13.13v.92c0,.07-.06.13-.13.13Zm-5.37-.26h5.25v-.67h-5.25v.67Z"/>
          </g>
        </g>
        <g>
          <g>
            <g>
              <path class="cls-8" d="m116.33,144.01c-1.04,0-2.07-.39-2.86-1.18-1.58-1.58-1.58-4.15,0-5.73,1.58-1.58,4.15-1.58,5.73,0,1.58,1.58,1.58,4.15,0,5.73-.79.79-1.83,1.18-2.86,1.18Zm-2.21-6.26c-1.22,1.22-1.22,3.2,0,4.42,1.22,1.22,3.2,1.22,4.42,0,1.22-1.22,1.22-3.2,0-4.42s-3.2-1.22-4.42,0h0Z"/>
              <path class="cls-8" d="m116.33,144.14c-1.12,0-2.17-.43-2.95-1.22-1.63-1.63-1.63-4.28,0-5.91,1.63-1.63,4.28-1.63,5.91,0,1.63,1.63,1.63,4.28,0,5.91-.79.79-1.84,1.22-2.95,1.22Zm0-8.1c-1,0-2.01.38-2.77,1.15-1.53,1.53-1.53,4.02,0,5.54.74.74,1.72,1.15,2.77,1.15s2.03-.41,2.77-1.15c1.53-1.53,1.53-4.02,0-5.54-.76-.76-1.77-1.15-2.77-1.15Zm0,7.17c-.83,0-1.67-.32-2.3-.95-.61-.61-.95-1.43-.95-2.3s.34-1.69.95-2.3h0c.61-.61,1.43-.95,2.3-.95h0c.87,0,1.69.34,2.3.95,1.27,1.27,1.27,3.33,0,4.6-.63.63-1.47.95-2.3.95Zm0-6.25c-.8,0-1.55.31-2.12.88h0c-.56.56-.88,1.32-.88,2.12s.31,1.55.88,2.12c1.17,1.17,3.07,1.17,4.24,0,1.17-1.17,1.17-3.07,0-4.24-.57-.57-1.32-.88-2.12-.88h0Zm-2.21.79h0,0Z"/>
            </g>
            <g>
              <rect class="cls-8" x="118.06" y="135.02" width="5.5" height=".92" transform="translate(-60.41 125.05) rotate(-44.98)"/>
              <path class="cls-8" d="m119.19,137.88h0s-.07-.01-.09-.04l-.65-.65c-.05-.05-.05-.13,0-.18l3.89-3.89s.06-.04.09-.04h0s.07.01.09.04l.65.65c.05.05.05.13,0,.18l-3.89,3.89s-.06.04-.09.04Zm-.47-.78l.47.47,3.71-3.71-.47-.47-3.71,3.71Z"/>
            </g>
          </g>
          <g>
            <polygon class="cls-8" points="122.12 138.02 120.72 135.57 118.27 134.18 123.35 132.94 122.12 138.02"/>
            <path class="cls-8" d="m122.12,138.15s-.09-.03-.11-.07l-1.37-2.42-2.42-1.37s-.07-.08-.06-.13c0-.05.05-.1.1-.11l5.08-1.24s.09,0,.12.03.05.08.03.12l-1.24,5.08c-.01.05-.06.09-.11.1,0,0-.01,0-.02,0Zm-3.5-3.93l2.17,1.23s.04.03.05.05l1.23,2.17,1.11-4.56-4.56,1.11Z"/>
          </g>
        </g>
        <g>
          <g>
            <path class="cls-8" d="m327.47,357.45h-9.72l4.63-6.12c.24-.32.35-.72.29-1.11-.05-.4-.26-.75-.58-.99-.32-.24-.72-.34-1.11-.29-.4.05-.75.26-.99.58l-.74-.56c.39-.52.96-.85,1.6-.94.64-.09,1.28.08,1.8.47.52.39.85.96.94,1.6.09.64-.08,1.28-.47,1.8l-3.51,4.64h7.86v.92Z"/>
            <path class="cls-8" d="m327.47,357.58h-9.72s-.09-.03-.12-.07c-.02-.04-.02-.1.01-.14l4.63-6.12c.22-.29.32-.65.27-1.02-.05-.36-.24-.68-.53-.91-.29-.22-.65-.32-1.02-.27-.36.05-.69.24-.91.53-.02.03-.05.05-.09.05-.03,0-.07,0-.1-.03l-.74-.56c-.06-.04-.07-.12-.02-.18.41-.54,1.01-.9,1.69-.99.68-.09,1.35.08,1.89.49.54.41.9,1.01.99,1.69.09.68-.08,1.35-.49,1.9l-3.35,4.43h7.6c.07,0,.13.06.13.13v.92c0,.07-.06.13-.13.13Zm-9.46-.26h9.33v-.67h-7.73s-.09-.03-.12-.07c-.02-.04-.02-.1.01-.14l3.51-4.64c.37-.49.53-1.09.44-1.7-.08-.61-.4-1.15-.89-1.52-.49-.37-1.09-.53-1.7-.44-.57.08-1.07.36-1.44.79l.53.4c.26-.29.61-.48,1-.53.44-.06.86.05,1.21.32.35.26.57.65.63,1.08.06.43-.05.86-.32,1.21l-4.48,5.91Z"/>
          </g>
          <g>
            <rect class="cls-8" x="324.48" y="350.11" width=".92" height="10.68"/>
            <path class="cls-8" d="m325.4,360.92h-.92c-.07,0-.13-.06-.13-.13v-10.68c0-.07.06-.13.13-.13h.92c.07,0,.13.06.13.13v10.68c0,.07-.06.13-.13.13Zm-.8-.26h.67v-10.42h-.67v10.42Z"/>
          </g>
        </g>
        <g>
          <g>
            <path class="cls-8" d="m236.99,386.17c-2.93,0-5.32-2.39-5.32-5.32h.92c0,2.42,1.97,4.39,4.39,4.39s4.39-1.97,4.39-4.39h.92c0,2.93-2.39,5.32-5.32,5.32Z"/>
            <path class="cls-8" d="m236.99,386.3c-3,0-5.45-2.44-5.45-5.45,0-.07.06-.13.13-.13h.92c.07,0,.13.06.13.13,0,2.35,1.91,4.26,4.26,4.26s4.26-1.91,4.26-4.26c0-.07.06-.13.13-.13h.92c.07,0,.13.06.13.13,0,3-2.44,5.45-5.45,5.45Zm-5.19-5.32c.07,2.8,2.37,5.06,5.19,5.06s5.12-2.26,5.19-5.06h-.67c-.07,2.43-2.07,4.39-4.52,4.39s-4.45-1.96-4.52-4.39h-.67Z"/>
          </g>
          <g>
            <rect class="cls-8" x="236.53" y="385.7" width=".92" height="5.5"/>
            <path class="cls-8" d="m237.45,391.34h-.92c-.07,0-.13-.06-.13-.13v-5.5c0-.07.06-.13.13-.13h.92c.07,0,.13.06.13.13v5.5c0,.07-.06.13-.13.13Zm-.8-.26h.67v-5.24h-.67v5.24Z"/>
          </g>
          <g>
            <rect class="cls-8" x="234.24" y="387.26" width="5.5" height=".92"/>
            <path class="cls-8" d="m239.74,388.32h-5.5c-.07,0-.13-.06-.13-.13v-.92c0-.07.06-.13.13-.13h5.5c.07,0,.13.06.13.13v.92c0,.07-.06.13-.13.13Zm-5.37-.26h5.25v-.67h-5.25v.67Z"/>
          </g>
          <g>
            <polygon class="cls-8" points="233.81 380.21 232.13 379.75 230.46 380.21 232.13 377.46 233.81 380.21"/>
            <path class="cls-8" d="m233.81,380.34s-.02,0-.03,0l-1.64-.45-1.64.45c-.05.01-.11,0-.14-.05-.03-.04-.03-.1,0-.15l1.67-2.75c.05-.08.17-.08.22,0l1.67,2.75s.02.1,0,.15c-.02.03-.06.05-.1.05Zm-1.67-.72s.02,0,.03,0l1.36.37-1.39-2.29-1.39,2.29,1.36-.37s.02,0,.03,0Z"/>
          </g>
          <g>
            <rect class="cls-8" x="231.67" y="378.53" width=".92" height="2.32"/>
            <path class="cls-8" d="m232.6,380.98h-.92c-.07,0-.13-.06-.13-.13v-2.32c0-.07.06-.13.13-.13h.92c.07,0,.13.06.13.13v2.32c0,.07-.06.13-.13.13Zm-.8-.26h.67v-2.06h-.67v2.06Z"/>
          </g>
          <g>
            <polygon class="cls-8" points="238.66 380.21 236.99 379.75 235.32 380.21 236.99 377.46 238.66 380.21"/>
            <path class="cls-8" d="m235.32,380.34s-.08-.02-.1-.05c-.03-.04-.03-.1,0-.15l1.67-2.75c.05-.08.17-.08.22,0l1.67,2.75s.02.1,0,.15c-.03.04-.09.06-.14.05l-1.64-.45-1.64.45s-.02,0-.03,0Zm1.67-2.63l-1.39,2.29,1.36-.37s.05,0,.07,0l1.36.37-1.39-2.29Z"/>
          </g>
          <g>
            <rect class="cls-8" x="236.53" y="378.53" width=".92" height="7.17"/>
            <path class="cls-8" d="m237.45,385.83h-.92c-.07,0-.13-.06-.13-.13v-7.17c0-.07.06-.13.13-.13h.92c.07,0,.13.06.13.13v7.17c0,.07-.06.13-.13.13Zm-.8-.26h.67v-6.91h-.67v6.91Z"/>
          </g>
          <g>
            <polygon class="cls-8" points="243.52 380.21 241.84 379.75 240.17 380.21 241.84 377.46 243.52 380.21"/>
            <path class="cls-8" d="m243.52,380.34s-.02,0-.03,0l-1.64-.45-1.64.45c-.05.01-.11,0-.14-.05-.03-.04-.03-.1,0-.15l1.67-2.75c.05-.08.17-.08.22,0l1.67,2.75s.02.1,0,.15c-.02.03-.06.05-.1.05Zm-1.67-.72s.02,0,.03,0l1.36.37-1.39-2.29-1.39,2.29,1.36-.37s.02,0,.03,0Z"/>
          </g>
          <g>
            <rect class="cls-8" x="241.38" y="378.53" width=".92" height="2.32"/>
            <path class="cls-8" d="m242.31,380.98h-.92c-.07,0-.13-.06-.13-.13v-2.32c0-.07.06-.13.13-.13h.92c.07,0,.13.06.13.13v2.32c0,.07-.06.13-.13.13Zm-.8-.26h.67v-2.06h-.67v2.06Z"/>
          </g>
        </g>
        <g>
          <g>
            <rect class="cls-8" x="135.98" y="342.86" width=".87" height="11.93"/>
            <path class="cls-8" d="m136.85,354.92h-.87c-.07,0-.13-.06-.13-.13v-11.93c0-.07.06-.13.13-.13h.87c.07,0,.13.06.13.13v11.93c0,.07-.06.13-.13.13Zm-.74-.26h.61v-11.67h-.61v11.67Z"/>
          </g>
          <g>
            <rect class="cls-8" x="134.11" y="344.7" width="4.61" height=".87"/>
            <path class="cls-8" d="m138.72,345.7h-4.61c-.07,0-.13-.06-.13-.13v-.87c0-.07.06-.13.13-.13h4.61c.07,0,.13.06.13.13v.87c0,.07-.06.13-.13.13Zm-4.48-.26h4.35v-.61h-4.35v.61Z"/>
          </g>
          <g>
            <path class="cls-8" d="m141.81,357.1c-.72,0-1.57-.2-2.14-.99-.79-1.08-.01-2.48.81-3.96,1.06-1.91,1.68-3.23.71-4.23-.21-.21-.68-.43-1.36-.35-.64.08-1.89.5-3.03,2.43l-.75-.44c1.32-2.25,2.87-2.75,3.67-2.85.83-.1,1.63.13,2.09.6,1.49,1.53.4,3.51-.57,5.26-.68,1.23-1.33,2.39-.87,3.02.78,1.07,2.52.46,2.54.45l.29.82s-.65.23-1.39.23Z"/>
            <path class="cls-8" d="m141.81,357.23c-.97,0-1.75-.36-2.25-1.04-.84-1.15-.04-2.58.8-4.1,1.03-1.86,1.64-3.14.73-4.07-.19-.19-.63-.39-1.25-.31-.62.08-1.83.48-2.93,2.37-.02.03-.05.05-.08.06-.03,0-.07,0-.1-.01l-.75-.44s-.05-.05-.06-.08c0-.03,0-.07.01-.1,1.35-2.3,2.94-2.81,3.77-2.91.87-.11,1.71.14,2.2.64,1.56,1.6.44,3.62-.55,5.41-.66,1.19-1.29,2.32-.87,2.88.71.98,2.32.43,2.39.41.07-.03.14.01.16.08l.29.82s.01.07,0,.1c-.01.03-.04.06-.07.07-.16.06-.74.24-1.43.24Zm-1.7-9.8c.56,0,.96.2,1.17.41,1.03,1.06.4,2.42-.69,4.38-.8,1.44-1.56,2.81-.82,3.82.45.62,1.14.94,2.04.94.53,0,1-.12,1.22-.18l-.21-.58c-.43.12-1.85.44-2.56-.54-.51-.7.15-1.89.86-3.16.95-1.71,2.02-3.64.59-5.11-.44-.45-1.19-.66-1.98-.57-.77.09-2.23.57-3.51,2.68l.53.31c1.14-1.88,2.4-2.3,3.06-2.38.11-.01.21-.02.31-.02Z"/>
          </g>
        </g>
        <g>
          <g>
            <path class="cls-8" d="m100.31,316.25c-2.95,0-5.36-2.4-5.36-5.36h.9c0,2.46,2,4.46,4.46,4.46s4.46-2,4.46-4.46h.9c0,2.95-2.4,5.36-5.36,5.36Z"/>
            <path class="cls-8" d="m100.31,316.37c-3.02,0-5.48-2.46-5.48-5.48,0-.07.06-.13.13-.13h.9c.07,0,.13.06.13.13,0,2.39,1.94,4.33,4.33,4.33s4.33-1.94,4.33-4.33c0-.07.06-.13.13-.13h.9c.07,0,.13.06.13.13,0,3.02-2.46,5.48-5.48,5.48Zm-5.23-5.36c.07,2.83,2.39,5.1,5.23,5.1s5.16-2.28,5.23-5.1h-.65c-.07,2.47-2.1,4.46-4.58,4.46s-4.51-1.99-4.58-4.46h-.65Z"/>
          </g>
          <g>
            <rect class="cls-8" x="99.86" y="315.8" width=".9" height="5.35"/>
            <path class="cls-8" d="m100.76,321.28h-.9c-.07,0-.13-.06-.13-.13v-5.35c0-.07.06-.13.13-.13h.9c.07,0,.13.06.13.13v5.35c0,.07-.06.13-.13.13Zm-.77-.25h.65v-5.1h-.65v5.1Z"/>
          </g>
          <g>
            <rect class="cls-8" x="97.63" y="317.32" width="5.35" height=".9"/>
            <path class="cls-8" d="m102.99,318.34h-5.35c-.07,0-.13-.06-.13-.13v-.9c0-.07.06-.13.13-.13h5.35c.07,0,.13.06.13.13v.9c0,.07-.06.13-.13.13Zm-5.23-.25h5.1v-.65h-5.1v.65Z"/>
          </g>
          <g>
            <path class="cls-8" d="m100.31,314.16c-1.8,0-3.27-1.47-3.27-3.27s1.47-3.27,3.27-3.27,3.27,1.47,3.27,3.27-1.47,3.27-3.27,3.27Zm0-5.63c-1.31,0-2.37,1.06-2.37,2.37s1.06,2.37,2.37,2.37,2.37-1.06,2.37-2.37-1.06-2.37-2.37-2.37Z"/>
            <path class="cls-8" d="m100.31,314.28c-1.87,0-3.39-1.52-3.39-3.39s1.52-3.39,3.39-3.39,3.39,1.52,3.39,3.39-1.52,3.39-3.39,3.39Zm0-6.53c-1.73,0-3.14,1.41-3.14,3.14s1.41,3.14,3.14,3.14,3.14-1.41,3.14-3.14-1.41-3.14-3.14-3.14Zm0,5.63c-1.37,0-2.49-1.12-2.49-2.49s1.12-2.49,2.49-2.49,2.49,1.12,2.49,2.49-1.12,2.49-2.49,2.49Zm0-4.73c-1.24,0-2.24,1.01-2.24,2.24s1.01,2.24,2.24,2.24,2.24-1,2.24-2.24-1.01-2.24-2.24-2.24Z"/>
          </g>
        </g>
        <g>
          <path class="cls-8" d="m345.41,139.19c-1.15,0-2.09-.94-2.09-2.09s.94-2.09,2.09-2.09,2.09.94,2.09,2.09-.94,2.09-2.09,2.09Zm0-2.98c-.49,0-.89.4-.89.89s.4.89.89.89.89-.4.89-.89-.4-.89-.89-.89Z"/>
          <path class="cls-8" d="m352.3,139.19c-1.15,0-2.09-.94-2.09-2.09s.94-2.09,2.09-2.09,2.09.94,2.09,2.09-.94,2.09-2.09,2.09Zm0-2.98c-.49,0-.89.4-.89.89s.4.89.89.89.89-.4.89-.89-.4-.89-.89-.89Z"/>
          <path class="cls-8" d="m352.33,136.27l-.75-.95c.64-.5,1.53-2.42,1.02-3.9-.41-1.18-1.64-1.79-3.65-1.79s-3.24.6-3.65,1.79c-.52,1.49.38,3.4,1.02,3.9l-.75.95c-1.03-.82-2.1-3.26-1.41-5.24.41-1.18,1.58-2.6,4.79-2.6s4.38,1.41,4.79,2.6c.69,1.98-.38,4.43-1.41,5.24Z"/>
        </g>
        <g>
          <path class="cls-8" d="m280.05,97.46c-1.45,0-2.63-1.18-2.63-2.63s1.18-2.63,2.63-2.63,2.63,1.18,2.63,2.63-1.18,2.63-2.63,2.63Zm0-4.06c-.79,0-1.43.64-1.43,1.43s.64,1.43,1.43,1.43,1.43-.64,1.43-1.43-.64-1.43-1.43-1.43Z"/>
          <rect class="cls-8" x="279.52" y="83.04" width="1.21" height="9.76"/>
          <rect class="cls-8" x="279.75" y="85.14" width="5.39" height="1.21" transform="translate(24.18 228.67) rotate(-45.85)"/>
          <rect class="cls-8" x="281.84" y="86.91" width="1.21" height="5.39" transform="translate(17.42 222.14) rotate(-44.17)"/>
        </g>
        <g>
          <rect class="cls-8" x="351.04" y="149.33" width="6.07" height="1.21"/>
          <rect class="cls-8" x="353.47" y="146.82" width="1.21" height="6.07"/>
          <path class="cls-8" d="m356.89,148.06c-3.43-.02-6.22-2.13-6.22-4.69,0-2.56,2.79-4.67,6.22-4.69h1.32s-.94.68-.94.68c-1.45,1.07-2.24,2.49-2.24,4,0,1.52.8,2.94,2.24,4l.94.69h-1.32Z"/>
        </g>
        <g>
          <g>
            <path class="cls-8" d="m184.87,383.38c-2.35,0-4.27-1.92-4.27-4.27s1.92-4.27,4.27-4.27,4.27,1.92,4.27,4.27-1.92,4.27-4.27,4.27Zm0-7.56c-1.82,0-3.29,1.48-3.29,3.29s1.48,3.29,3.29,3.29,3.29-1.48,3.29-3.29-1.48-3.29-3.29-3.29Z"/>
            <path class="cls-8" d="m184.87,383.5c-2.42,0-4.39-1.97-4.39-4.39s1.97-4.39,4.39-4.39,4.39,1.97,4.39,4.39-1.97,4.39-4.39,4.39Zm0-8.54c-2.29,0-4.15,1.86-4.15,4.15s1.86,4.15,4.15,4.15,4.15-1.86,4.15-4.15-1.86-4.15-4.15-4.15Zm0,7.56c-1.88,0-3.42-1.53-3.42-3.42s1.53-3.42,3.42-3.42,3.42,1.53,3.42,3.42-1.53,3.42-3.42,3.42Zm0-6.59c-1.75,0-3.17,1.42-3.17,3.17s1.42,3.17,3.17,3.17,3.17-1.42,3.17-3.17-1.42-3.17-3.17-3.17Z"/>
          </g>
          <g>
            <rect class="cls-8" x="184.39" y="369.52" width=".97" height="5.8"/>
            <path class="cls-8" d="m185.36,375.45h-.97c-.07,0-.12-.06-.12-.12v-5.8c0-.07.05-.12.12-.12h.97c.07,0,.12.06.12.12v5.8c0,.07-.05.12-.12.12Zm-.85-.25h.73v-5.56h-.73v5.56Z"/>
          </g>
          <g>
            <polygon class="cls-8" points="187.74 373.35 184.87 372.55 182.01 373.35 184.87 368.64 187.74 373.35"/>
            <path class="cls-8" d="m187.74,373.47s-.02,0-.03,0l-2.83-.78-2.83.78s-.1,0-.13-.04c-.03-.04-.03-.1,0-.14l2.87-4.71c.04-.07.17-.07.21,0l2.87,4.71s.02.1,0,.14c-.02.03-.06.05-.1.05Zm-2.87-1.04s.02,0,.03,0l2.57.71-2.6-4.27-2.6,4.27,2.57-.71s.02,0,.03,0Z"/>
          </g>
          <g>
            <path class="cls-8" d="m184.87,380.9c-.99,0-1.79-.8-1.79-1.79s.8-1.79,1.79-1.79,1.79.8,1.79,1.79-.8,1.79-1.79,1.79Zm0-2.61c-.45,0-.82.37-.82.82s.37.82.82.82.82-.37.82-.82-.37-.82-.82-.82Z"/>
            <path class="cls-8" d="m184.87,381.02c-1.06,0-1.92-.86-1.92-1.92s.86-1.92,1.92-1.92,1.92.86,1.92,1.92-.86,1.92-1.92,1.92Zm0-3.59c-.92,0-1.67.75-1.67,1.67s.75,1.67,1.67,1.67,1.67-.75,1.67-1.67-.75-1.67-1.67-1.67Zm0,2.61c-.52,0-.94-.42-.94-.94s.42-.94.94-.94.94.42.94.94-.42.94-.94.94Zm0-1.64c-.38,0-.7.31-.7.69s.31.69.7.69.7-.31.7-.69-.31-.69-.7-.69Z"/>
          </g>
        </g>
      </g>
      <g>
        <line class="cls-12" x1="367.88" y1="135.39" x2="365.86" y2="126.53"/>
        <line class="cls-12" x1="359.02" y1="125.33" x2="363.85" y2="125.73"/>
        <line class="cls-12" x1="326.42" y1="96.35" x2="332.46" y2="95.95"/>
        <line class="cls-12" x1="288.18" y1="77.43" x2="283.76" y2="70.99"/>
        <line class="cls-12" x1="125.98" y1="108.42" x2="127.59" y2="101.58"/>
        <line class="cls-12" x1="107.06" y1="129.75" x2="94.59" y2="137.4"/>
        <line class="cls-12" x1="92.17" y1="141.02" x2="97.81" y2="141.02"/>
        <line class="cls-12" x1="74.06" y1="180.07" x2="79.29" y2="179.66"/>
        <line class="cls-12" x1="90.16" y1="320.54" x2="93.78" y2="317.72"/>
        <line class="cls-12" x1="130" y1="364.81" x2="132.02" y2="360.78"/>
        <line class="cls-12" x1="183.94" y1="393.79" x2="180.72" y2="387.75"/>
        <line class="cls-12" x1="233.04" y1="401.44" x2="238.27" y2="397.01"/>
        <line class="cls-12" x1="330.85" y1="366.42" x2="335.68" y2="367.63"/>
      </g>
    </g>
  </g>
</svg>