<?xml version="1.0" encoding="UTF-8"?>
<svg id="_レイヤー_2" data-name="レイヤー 2" xmlns="http://www.w3.org/2000/svg" viewBox="0 0 17.37 17.37">
  <defs>
    <style>
      .cls-1 {
        fill: none;
        stroke: #39385d;
        stroke-miterlimit: 10;
      }

      .cls-2 {
        fill: #39385d;
        stroke-width: 0px;
      }
    </style>
  </defs>
  <g id="design">
    <g>
      <g>
        <path class="cls-2" d="m12.02,5.65c.49.55.84,1.17,1.02,1.89,0,.02,0,.04,0,.06.04.23.09.46.13.69.02.11.02.22.03.33-.03,0-.05.01-.08.02,0,0,0,.02,0,.02.03,0,.05.01.08.02,0,.05-.03.09-.03.14,0,.77-.24,1.48-.63,2.13-.15.25-.35.47-.52.71-.08.08-.15.15-.23.23-.25.19-.49.38-.74.56-.04.03-.09.05-.14.07-.02.01-.04.02-.07.03-.08.04-.15.09-.23.13-.08-.07-.1-.02-.1.06-.22.08-.44.15-.65.23-.01-.02-.03-.04-.04-.06-.02.02-.04.04-.06.06-.2.05-.4.13-.6.13-.43,0-.87,0-1.29-.08-.26-.05-.54-.08-.77-.22-.15-.09-.32-.1-.45-.21,0-.07,0-.15-.1-.07-.16-.11-.33-.22-.49-.33,0-.07,0-.15-.1-.07-.03-.03-.07-.06-.1-.1,0-.07,0-.15-.1-.07-.1-.1-.2-.2-.29-.29,0-.07,0-.15-.1-.13l-.06-.07c0-.07,0-.15-.1-.13-.11-.16-.22-.33-.33-.49-.01-.02-.03-.04-.04-.07-.04-.09-.08-.18-.12-.26-.04-.08-.1-.15-.13-.24-.05-.19-.07-.39-.14-.56-.08-.18-.12-.35-.12-.53,0-.17-.02-.33-.03-.5.02-.01.03-.02.05-.03-.02-.01-.03-.02-.05-.03.05-.2.24-.27.39-.14.09.08.19.16.11.32-.05.09-.01.22-.01.34,0,0-.02.02-.02.03,0,0,.02,0,.03,0,.04.2.09.4.13.59,0,0-.02.02-.02.02,0,0,.02,0,.03,0,.03.08.07.16.1.24l.03.03c.07.16.13.33.2.49,0,0-.02.02-.02.02,0,0,.02,0,.02,0,.14.2.27.4.43.58.19.22.41.42.62.64.02,0,.04.02.06.03.1.06.21.11.31.18.13.08.25.17.38.25.04.02.08.04.12.05.13.05.26.1.4.15.02,0,.05.02.07.03.19.03.39.06.58.09.2.03.4.05.6.04.29-.01.57-.07.85-.11.05,0,.11-.01.16-.02l.1-.03c.14-.06.28-.11.42-.17.08.08.1.02.1-.05.05-.02.11-.05.16-.07.02-.01.04-.02.06-.04.14-.1.28-.19.42-.29.01,0,.03-.02.04-.03.42-.33.77-.72,1.04-1.19.05-.09.09-.17.14-.26.02-.03.04-.07.06-.1.05-.14.09-.28.14-.42,0-.01.02-.02.03-.04.04-.22.09-.43.11-.65.02-.2,0-.41.02-.62.03-.34-.09-.66-.11-.99,0-.02-.02-.04-.03-.06-.09-.18-.19-.36-.25-.55-.09-.29-.28-.51-.46-.73-.21-.25-.46-.46-.69-.69-.01,0-.03-.02-.04-.03-.14-.09-.28-.17-.42-.26-.01-.02-.02-.04-.04-.06-.13-.06-.27-.11-.41-.16-.05-.02-.1-.03-.15-.04l-.07-.03c-.19-.05-.38-.13-.57-.15-.24-.03-.49-.03-.74-.04-.08,0-.16,0-.24,0-.37,0-.73.1-1.09.2-.25.07-.44.24-.66.36-.02.01-.04.02-.07.03-.14.07-.28.13-.43.2,0,0-.02.02-.02.03-.1.12-.2.24-.31.36-.07.07-.15.14-.23.21-.02,0-.04,0-.06,0,0,.02.02.03.03.05,0,0,0,.02,0,.03-.02.02-.04.05-.06.07-.04.03-.09.07-.13.1,0,0-.02,0-.02,0,0,0,.02.02.02.02-.05.08-.1.15-.15.23-.01.02-.02.04-.04.06,0,.02,0,.04,0,.07-.12.31-.24.62-.37.93-.06.14-.24.25-.34.21-.11-.05-.16-.23-.11-.39l.08-.03s-.04-.04-.05-.06c.27-.83.71-1.55,1.36-2.13.01,0,.03-.02.04-.03,1.57-1.3,3.86-1.39,5.53-.17.01,0,.02.02.04.03.12.1.24.2.36.3l.23.23Z"/>
        <path class="cls-2" d="m2.79,5.64s-.05.06-.07.09c-.12.2-.1.25.11.37.28.16.56.32.83.49.1.06.14.23.09.32-.06.11-.21.17-.33.1-.41-.23-.81-.47-1.22-.71-.11-.06-.14-.16-.11-.25.07-.21.13-.44.24-.63.2-.36.53-.37.92-.2.13.05.24.13.36.19.11.06.23.13.34.2.14-.08.14-.19.06-.29-.19-.24-.39-.46-.58-.69-.07-.08-.15-.16-.21-.24-.08-.1-.06-.29.04-.35.1-.07.23-.08.32.03.3.34.6.68.87,1.04.21.28.12.61-.09.85-.16.19-.5.18-.77.02-.24-.13-.48-.24-.73-.37-.03,0-.05.02-.08.02Z"/>
        <path class="cls-2" d="m2.76,11.56c-.2-.02-.38-.02-.55-.06-.2-.05-.26-.2-.15-.37.03-.04.09-.08.13-.08.21,0,.42.03.63.02.09,0,.19,0,.23-.14.06-.17.16-.33.25-.49.08-.14.22-.2.35-.14.1.05.15.22.09.36-.06.14-.14.28-.22.44.18.02.35.04.51.04.13,0,.21.05.22.19.01.17-.05.27-.19.27-.24,0-.48,0-.72,0-.02,0-.06,0-.07.01-.16.19-.19.59-.07.8.1.18.15.19.32.1.27-.16.54-.33.82-.47.08-.04.21-.04.3-.01.11.03.11.15.09.25-.01.05-.05.12-.1.14-.37.23-.75.45-1.13.66-.19.11-.26.09-.41-.06-.21-.21-.41-.41-.47-.73-.04-.23.02-.44.09-.65,0-.03.02-.06.03-.09Z"/>
        <path class="cls-2" d="m14.18,6.39c-.07.11-.16.21-.22.32-.08.16-.2.26-.3.22-.16-.07-.24-.21-.15-.39.12-.24.28-.46.43-.72-.04-.07-.1-.19-.15-.29-.26.02-.5.06-.74.07-.13,0-.25-.03-.33-.17-.07-.12-.02-.21.05-.27.04-.05.15-.05.22-.05.11,0,.23.03.32,0,.14-.04.09-.17.06-.27-.03-.1-.05-.21.05-.27.08-.05.18-.07.26-.06.05,0,.1.07.14.12.04.05.07.11.12.19.19-.17.26-.38.35-.61.07,0,.18,0,.27.04.09.05.17.12.13.27-.08.31-.28.54-.5.75.03.04.05.08.08.12.15.24.14.23.4.2.2-.02.4-.02.6,0,.17.02.23.13.19.31-.02.1-.18.17-.3.16-.16-.01-.32,0-.48,0,.05.15.1.26.12.38.02.11-.04.19-.15.22-.11.03-.22.03-.29-.08-.04-.07-.08-.13-.12-.2l-.04-.03s-.02.04-.03.06Z"/>
        <path class="cls-2" d="m14.71,11.36c.22-.05.44-.03.65.07.16.08.21.19.15.33-.06.15-.2.21-.35.13-.22-.11-.43-.07-.51.12-.04.1-.1.22-.09.32.02.1.12.19.2.27.11.1.17.29.1.37-.09.11-.24.11-.39.03-.2-.12-.29-.32-.39-.52-.17,0-.34,0-.5-.03-.25-.06-.42-.24-.56-.46-.16-.24-.12-.49-.05-.72.07-.26.27-.41.51-.55.27-.15.51-.06.74.03.25.09.42.3.48.57l.02.02Zm-.49.23c0-.27-.16-.41-.43-.42-.21,0-.41.19-.39.43.02.22.19.4.41.4.22,0,.41-.19.41-.4Z"/>
        <path class="cls-2" d="m12.84,14c.16-.02.27.04.32.16.05.12,0,.25-.12.3-.1.04-.23.04-.34.06-.41.08-.73.31-.98.63-.05.07-.13.12-.21.15-.08.03-.2.03-.23-.09-.02-.09-.03-.22.01-.28.09-.12.07-.2,0-.31-.09-.13-.17-.27-.24-.41-.06-.13-.14-.19-.3-.18-.09,0-.2-.06-.25-.14-.04-.06-.02-.21.03-.25.07-.07.19-.11.3-.12.48-.06.85-.3,1.13-.69.1-.14.21-.17.34-.1.13.08.17.21.07.34-.11.14-.06.24.02.37.09.14.18.28.25.43.05.11.12.16.21.14Zm-.62.13c-.11-.18-.21-.36-.32-.54-.17.09-.32.18-.49.28.09.16.18.33.28.49.01.02.1.01.13,0,.13-.07.25-.14.39-.23Z"/>
        <path class="cls-2" d="m9.9,3.32c-.21.4-.52.46-.82.36-.09-.03-.18-.11-.25-.19-.08-.1,0-.21.07-.26.06-.05.16-.05.25-.05.08,0,.23.05.24.02.05-.09.08-.2.06-.3-.03-.17-.1-.34-.16-.5-.01-.03-.06-.07-.1-.08-.08-.01-.16-.01-.24,0-.04,0-.1.04-.12.08-.11.22-.21.45-.33.67-.05.08-.14.16-.23.2-.11.04-.2-.02-.25-.14-.16-.32-.34-.64-.5-.97-.06-.12,0-.26.11-.31.13-.06.28-.02.34.1.09.16.17.33.27.52.09-.17.18-.31.24-.46.07-.17.2-.2.35-.22.04,0,.09,0,.13,0,.24.03.43,0,.56-.25.07-.14.25-.15.36-.07.1.08.12.23.01.35-.16.18-.19.35-.08.56.07.15.13.31.17.47.02.11-.02.23-.04.34,0,.03-.01.06-.02.09,0,.01-.02.02-.03.04Z"/>
        <path class="cls-2" d="m5.57,15.24c-.52,0-.98-.47-.94-.98.02-.34.22-.57.5-.75.17-.1.34-.2.49-.32.11-.09.09-.16-.04-.21-.04-.02-.09-.03-.13-.05-.11-.06-.15-.16-.12-.27.03-.11.11-.19.23-.18.23.02.49.14.58.4.11.31,0,.6-.33.81-.19.13-.38.25-.56.39-.14.1-.15.25-.09.4.06.16.24.29.42.29.16,0,.3-.06.36-.21.06-.15.11-.31.16-.46.06-.17.18-.22.34-.15.09.05.19.1.26.17.11.12.06.33-.1.35-.1.02-.11.06-.14.14-.14.42-.48.66-.88.66Z"/>
        <path class="cls-2" d="m6.04,2.81c-.05.2-.1.36-.14.52.24.16.27.42.05.47-.26.06-.23.26-.28.42-.05.15-.09.3-.16.44-.02.04-.09.09-.14.09-.2,0-.33-.17-.27-.36.04-.14.07-.29.12-.43.05-.15.1-.27-.07-.38-.04-.03-.06-.15-.04-.21.04-.14.16-.2.31-.19.05-.16.09-.32.14-.5-.05.02-.1.02-.14.04-.14.07-.24.02-.31-.1-.07-.12-.04-.24.07-.31.22-.14.44-.27.67-.38.08-.03.24-.01.28.05.16.23.29.48.41.73.04.08.11.19-.03.27-.12.07-.31.04-.4-.05-.02-.02-.04-.05-.08-.12Z"/>
        <path class="cls-2" d="m15.88,7.94c0,.14.07.29-.03.43,0,0-.02,0-.02,0,0,0,.02.02.02.02-.04.09-.07.17-.12.28.17.16.22.41.16.64-.04.17-.2.32-.33.45-.1.09-.22.19-.39.14-.17-.05-.24-.12-.24-.28,0-.16.09-.21.24-.22.13,0,.26-.16.26-.27,0-.12-.13-.23-.28-.23-.3,0-.6,0-.9,0-.17,0-.26-.12-.22-.28.03-.12.12-.2.26-.2.28,0,.56,0,.83,0,.08,0,.18-.04.24-.1.05-.04.07-.16.05-.21-.03-.07-.12-.14-.19-.16-.18-.04-.28-.13-.27-.3.01-.15.1-.22.3-.2.29.04.51.18.62.46,0,.01.02.02.03.04Z"/>
        <path class="cls-2" d="m2.04,8.56c-.02.26.03.3.29.37.08.02.17.14.19.22.03.16.02.33,0,.49,0,.15-.12.23-.29.23-.16,0-.19-.12-.2-.24,0-.09,0-.17,0-.26-.34-.15-.52-.4-.49-.78.02-.23.13-.41.33-.52.15-.08.16-.22.16-.37,0-.07.06-.19.12-.21.08-.03.2-.02.27.03.06.03.09.14.09.22,0,.16-.01.32-.03.48-.01.14-.12.18-.24.21-.07.02-.12.06-.19.09,0,.01-.02.02-.02.04Z"/>
        <path class="cls-2" d="m8.63,15.99c-.27,0-.55-.05-.78-.23-.12-.1-.16-.23-.08-.32.09-.11.21-.14.34-.07.3.19.61.15.92.06.07-.02.15-.06.21-.11.04-.03.08-.11.07-.15-.01-.04-.08-.08-.13-.1-.19-.05-.28-.14-.25-.28.02-.15.13-.2.35-.18.28.02.42.18.5.42.1.27-.04.56-.28.72-.25.17-.54.23-.85.24Z"/>
        <path class="cls-2" d="m8.79,13.7c.3-.03.57.05.83.19.1.06.15.22.11.32-.05.11-.21.16-.33.11-.02,0-.04-.02-.06-.03-.14-.09-.28-.14-.45-.1-.18.04-.37.04-.55.08-.1.02-.17.1-.15.21,0,.04.05.09.09.1.2.05.31.16.26.31-.04.16-.25.23-.43.17-.28-.1-.45-.31-.44-.6,0-.26.14-.47.4-.6.23-.12.47-.18.72-.15Z"/>
        <path class="cls-2" d="m11.23,3.39c.1-.01.21-.03.31-.04.13-.02.31.02.36.18.04.11.11.22.17.33.12,0,.25-.02.37-.03.18,0,.29.07.3.21.01.17-.07.26-.25.28-.17.02-.34.02-.51.04-.15.01-.27-.05-.31-.19-.07-.25-.23-.35-.48-.3-.21.04-.33-.06-.41-.25-.05-.14-.12-.27-.18-.4-.06-.13-.02-.27.1-.33.13-.07.28-.01.35.12,0,0,0,.02,0,.03.06.11.11.22.18.35Z"/>
        <path class="cls-2" d="m12.01,3.02c-.15,0-.3.01-.44,0-.08-.01-.19-.05-.22-.12-.11-.19-.22-.4-.28-.61-.02-.07.07-.21.15-.26.12-.07.24,0,.31.11.07.12.13.25.2.4.1-.01.2-.02.3-.04.17-.03.29.03.38.19.03.06.06.11.09.17.03.05.05.1.08.17.13-.01.26-.03.39-.04.15,0,.27.09.28.21.01.16-.07.26-.24.28-.18.02-.36.02-.55.04-.14,0-.23-.05-.29-.18-.05-.1-.1-.21-.15-.32Z"/>
        <path class="cls-2" d="m3.44,7.5c.02.07.06.15.06.22,0,.62,0,1.24,0,1.86,0,.17-.09.27-.22.28-.19.01-.27-.05-.27-.25,0-.5,0-.99,0-1.49,0-.16-.02-.33,0-.49.01-.09.08-.21.16-.25.06-.03.17.05.26.08,0,0-.02.01-.02.02,0,0,.02,0,.02,0Z"/>
        <path class="cls-2" d="m11.1,7.59c-.19-.53-.56-.86-1.09-.97-.51-.1-.96.06-1.32.45-.24-.27-.53-.42-.84-.46-.75-.09-1.37.31-1.6,1.03-.02.07-.04.15-.06.23l-.02.1s0,.02,0,.04v.33s0,.03,0,.04c.01.05.03.09.04.14.03.11.06.22.1.33.13.32.35.61.69.92.33.3.67.6,1.01.9l.33.28c.12.1.23.15.34.15s.22-.05.34-.15l.25-.21c.17-.15.35-.3.52-.45l.03-.03c.34-.29.68-.6.97-.97.41-.54.52-1.12.31-1.7Zm-3.66-.38c.07-.02.14-.02.21-.02.24,0,.46.11.64.34.03.04.06.08.09.13.1.15.21.18.29.18.08.01.19-.03.32-.19.09-.11.18-.23.28-.3.19-.14.42-.19.65-.14.23.05.43.2.54.41.22.4.2.8-.07,1.21-.18.27-.41.5-.65.71-.26.23-.52.46-.79.69l-.27.23c-.15-.13-.3-.26-.44-.38-.39-.33-.75-.64-1.08-1.01-.23-.26-.36-.51-.39-.77-.06-.52.22-.98.67-1.08Z"/>
      </g>
      <circle class="cls-1" cx="8.68" cy="8.68" r="8.18"/>
    </g>
  </g>
</svg>