<svg xmlns="http://www.w3.org/2000/svg" xmlns:xlink="http://www.w3.org/1999/xlink" viewBox="0 0 12.05 12.05"><defs><style>.cls-1{fill:#735539;}.cls-2{opacity:0.5;}.cls-3{fill:url(#名称未設定グラデーション_17);}.cls-4{fill:url(#名称未設定グラデーション_17-2);}.cls-5{fill:url(#名称未設定グラデーション_17-3);}.cls-6{fill:url(#名称未設定グラデーション_17-4);}.cls-7{fill:url(#名称未設定グラデーション_17-5);}.cls-8{fill:url(#名称未設定グラデーション_17-6);}.cls-9{fill:url(#名称未設定グラデーション_17-7);}.cls-10{fill:url(#名称未設定グラデーション_17-8);}.cls-11{fill:url(#名称未設定グラデーション_17-9);}</style><linearGradient id="名称未設定グラデーション_17" x1="6.85" y1="4.38" x2="4.53" y2="9.03" gradientUnits="userSpaceOnUse"><stop offset="0" stop-color="#f7931e"/><stop offset="0.19" stop-color="#f7931e" stop-opacity="0.79"/><stop offset="0.59" stop-color="#f7931e" stop-opacity="0.37"/><stop offset="0.87" stop-color="#f7931e" stop-opacity="0.1"/><stop offset="1" stop-color="#f7931e" stop-opacity="0"/></linearGradient><linearGradient id="名称未設定グラデーション_17-2" x1="5.16" y1="3.54" x2="2.84" y2="8.18" xlink:href="#名称未設定グラデーション_17"/><linearGradient id="名称未設定グラデーション_17-3" x1="8.54" y1="5.23" x2="6.22" y2="9.87" xlink:href="#名称未設定グラデーション_17"/><linearGradient id="名称未設定グラデーション_17-4" x1="10.52" y1="6.22" x2="8.2" y2="10.86" xlink:href="#名称未設定グラデーション_17"/><linearGradient id="名称未設定グラデーション_17-5" x1="3.18" y1="2.54" x2="0.85" y2="7.19" xlink:href="#名称未設定グラデーション_17"/><linearGradient id="名称未設定グラデーション_17-6" x1="10.82" y1="6.36" x2="8.49" y2="11.01" xlink:href="#名称未設定グラデーション_17"/><linearGradient id="名称未設定グラデーション_17-7" x1="2.89" y1="2.4" x2="0.56" y2="7.04" xlink:href="#名称未設定グラデーション_17"/><linearGradient id="名称未設定グラデーション_17-8" x1="5.79" y1="3.85" x2="3.47" y2="8.5" xlink:href="#名称未設定グラデーション_17"/><linearGradient id="名称未設定グラデーション_17-9" x1="7.91" y1="4.91" x2="5.59" y2="9.56" xlink:href="#名称未設定グラデーション_17"/></defs><g id="Layer_2" data-name="Layer 2"><g id="デザイン"><circle class="cls-1" cx="6.03" cy="6.03" r="2.89"/><path class="cls-1" d="M6,0,6.6,2.53H5.38Z"/><path class="cls-1" d="M6.06,12.05l-.6-2.53H6.67Z"/><path class="cls-1" d="M12.05,6,9.52,6.6V5.38Z"/><path class="cls-1" d="M0,6.06l2.53-.6V6.67Z"/><path class="cls-1" d="M10.31,10.26,8.1,8.9,9,8.05Z"/><path class="cls-1" d="M1.74,1.79,4,3.15,3.1,4Z"/><path class="cls-1" d="M1.79,10.31,3.15,8.1,4,9Z"/><path class="cls-1" d="M10.26,1.74,8.9,4,8.05,3.1Z"/><g class="cls-2"><circle class="cls-3" cx="6.03" cy="6.03" r="2.89"/><path class="cls-4" d="M6,0,6.6,2.53H5.38Z"/><path class="cls-5" d="M6.06,12.05l-.6-2.53H6.67Z"/><path class="cls-6" d="M12.05,6,9.52,6.6V5.38Z"/><path class="cls-7" d="M0,6.06l2.53-.6V6.67Z"/><path class="cls-8" d="M10.31,10.26,8.1,8.9,9,8.05Z"/><path class="cls-9" d="M1.74,1.79,4,3.15,3.1,4Z"/><path class="cls-10" d="M1.79,10.31,3.15,8.1,4,9Z"/><path class="cls-11" d="M10.26,1.74,8.9,4,8.05,3.1Z"/></g></g></g></svg>