<?xml version="1.0" encoding="UTF-8"?>
<svg id="_レイヤー_2" data-name="レイヤー 2" xmlns="http://www.w3.org/2000/svg" viewBox="0 0 15.13 15.13">
  <defs>
    <style>
      .cls-1 {
        fill: #39385d;
        stroke-width: 0px;
      }
    </style>
  </defs>
  <g id="design">
    <g>
      <path class="cls-1" d="m6.65,0h1.89s.05.03.08.04c.4.14.62.4.63.83.01.35.01.7.01,1.05,0,.08.03.12.11.15.29.09.58.21.85.36.07.04.11.02.16-.03.22-.23.45-.45.68-.68.43-.44.99-.44,1.42-.01.32.32.65.65.97.97.43.43.42.98,0,1.41-.23.24-.46.47-.7.7-.08.08-.08.14-.03.23.13.23.24.47.3.73.02.11.08.13.18.13.37,0,.74,0,1.11,0,.32,0,.56.17.71.45.05.08.08.18.11.26v1.86s-.02.05-.03.08c-.09.37-.4.74-.91.73-.35,0-.7,0-1.05,0-.1,0-.15.03-.18.13-.09.23-.18.47-.29.69-.04.08-.03.12.03.17.26.26.53.52.78.78.38.4.38.95,0,1.35-.33.34-.66.67-1,1-.43.42-.98.41-1.41-.02-.25-.25-.5-.49-.74-.74-.06-.06-.11-.08-.19-.03-.24.14-.5.25-.77.33-.08.02-.11.06-.1.14,0,.35,0,.7,0,1.05,0,.16-.02.32-.09.47-.13.29-.37.45-.66.55h-1.8s-.04-.02-.07-.03c-.5-.15-.77-.51-.77-1.03,0-.33,0-.67,0-1,0-.08-.02-.12-.1-.15-.26-.07-.5-.18-.73-.3-.07-.04-.12-.03-.18.03-.24.24-.48.48-.72.72-.43.42-.98.42-1.4,0-.33-.32-.65-.65-.97-.97-.43-.43-.43-.98,0-1.41.23-.23.45-.45.68-.67.07-.06.07-.11.03-.19-.14-.24-.27-.49-.34-.76-.02-.1-.08-.12-.17-.12-.34,0-.69,0-1.03,0-.19,0-.36-.07-.52-.18-.23-.16-.34-.4-.43-.65,0-.61,0-1.22,0-1.83.01-.02.03-.04.04-.06.16-.44.48-.64.93-.66.32,0,.65,0,.98,0,.07,0,.12-.01.14-.09.07-.31.19-.6.36-.87.05-.09.03-.14-.04-.2-.22-.22-.44-.44-.65-.66-.4-.42-.41-.96,0-1.38.33-.34.66-.67.99-.99.42-.41.98-.41,1.39,0,.21.21.43.42.63.64.07.08.13.08.22.04.23-.12.47-.22.72-.29.12-.04.16-.1.16-.22,0-.33,0-.66,0-.99,0-.29.15-.5.38-.66.12-.09.27-.12.39-.19Zm1.71,13.35s0,0,0,0c0-.25,0-.5,0-.75,0-.23.13-.4.36-.44.46-.09.88-.27,1.27-.52.27-.17.44-.15.67.07.33.32.66.64.98.97.11.11.17.1.27,0,.28-.29.56-.58.86-.86.09-.09.09-.13,0-.22-.34-.35-.71-.67-1.01-1.06-.15-.2-.17-.39-.04-.61.22-.37.38-.76.49-1.18.08-.29.21-.38.51-.39.46,0,.92,0,1.37,0,.1,0,.13-.03.13-.13,0-.45,0-.9,0-1.34,0-.1-.04-.12-.13-.12-.44,0-.88,0-1.32,0-.31,0-.47-.12-.54-.43-.11-.45-.28-.88-.51-1.28-.15-.26-.12-.44.09-.65.32-.32.63-.64.96-.95.09-.09.08-.13,0-.21-.3-.29-.6-.59-.89-.89-.08-.08-.12-.09-.21,0-.3.31-.61.62-.91.93-.22.22-.4.25-.67.08-.39-.24-.8-.41-1.24-.54-.39-.11-.49-.23-.49-.64,0-.39,0-.78,0-1.17,0-.13-.03-.17-.16-.17-.42.01-.84.01-1.26,0-.13,0-.17.04-.17.17,0,.41,0,.83,0,1.24,0,.28-.1.42-.36.5-.5.15-.97.34-1.42.59-.19.11-.41.07-.55-.1-.28-.32-.6-.61-.89-.92-.08-.08-.13-.08-.2,0-.3.3-.59.61-.9.9-.09.08-.07.13,0,.2.3.29.6.59.89.88.22.22.24.41.08.67-.25.41-.45.84-.54,1.31-.06.32-.23.44-.55.44-.42,0-.85,0-1.27,0-.12,0-.17.04-.16.16,0,.41,0,.82,0,1.23,0,.13.03.18.18.18.45,0,.91.01,1.36.02.25,0,.39.11.46.35.13.46.32.9.57,1.31.15.24.12.44-.08.64-.32.32-.63.64-.95.95-.07.07-.08.11,0,.19.31.3.61.6.91.91.08.08.13.07.2,0,.32-.33.65-.65.97-.97.2-.19.38-.22.61-.08.4.23.83.41,1.27.52.28.07.4.23.39.52-.02.44-.02.89-.02,1.33,0,.19.02.21.21.21.42,0,.84,0,1.26,0,.11,0,.12-.04.12-.13,0-.25,0-.5,0-.75Z"/>
      <path class="cls-1" d="m7.59,10.51c-1.71-.03-3.06-1.41-3.05-3.09.01-1.69,1.42-3.1,3.18-3.04,1.66.06,3.01,1.44,2.95,3.18-.06,1.64-1.41,2.96-3.08,2.95Zm2.17-3.06c.02-1.18-.97-2.17-2.16-2.16-1.18,0-2.15.97-2.15,2.15,0,1.19.98,2.17,2.16,2.17,1.18,0,2.15-.97,2.15-2.16Z"/>
    </g>
  </g>
</svg>