<?xml version="1.0" encoding="UTF-8"?>
<svg id="_レイヤー_2" data-name="レイヤー 2" xmlns="http://www.w3.org/2000/svg" xmlns:xlink="http://www.w3.org/1999/xlink" viewBox="0 0 361.52 31.9">
  <defs>
    <style>
      .cls-1 {
        fill: url(#_新規グラデーションスウォッチ_1);
      }

      .cls-1, .cls-2, .cls-3, .cls-4, .cls-5, .cls-6, .cls-7, .cls-8, .cls-9, .cls-10, .cls-11 {
        stroke-width: 0px;
      }

      .cls-2 {
        fill: url(#_新規グラデーションスウォッチ_1-2);
      }

      .cls-12 {
        opacity: .5;
      }

      .cls-3 {
        fill: url(#_新規グラデーションスウォッチ_1-9);
      }

      .cls-4 {
        fill: url(#_新規グラデーションスウォッチ_1-3);
      }

      .cls-5 {
        fill: url(#_新規グラデーションスウォッチ_1-10);
      }

      .cls-6 {
        fill: url(#_新規グラデーションスウォッチ_1-4);
      }

      .cls-7 {
        fill: url(#_新規グラデーションスウォッチ_1-8);
      }

      .cls-8 {
        fill: url(#_新規グラデーションスウォッチ_1-6);
      }

      .cls-9 {
        fill: #345e97;
      }

      .cls-10 {
        fill: url(#_新規グラデーションスウォッチ_1-5);
      }

      .cls-11 {
        fill: url(#_新規グラデーションスウォッチ_1-7);
      }
    </style>
    <linearGradient id="_新規グラデーションスウォッチ_1" data-name="新規グラデーションスウォッチ 1" x1="-60.79" y1="210.39" x2="39.21" y2="-35.61" gradientUnits="userSpaceOnUse">
      <stop offset="0" stop-color="#c9ddf1"/>
      <stop offset=".06" stop-color="#c1daef" stop-opacity=".97"/>
      <stop offset=".15" stop-color="#add2ec" stop-opacity=".89"/>
      <stop offset=".26" stop-color="#8cc5e6" stop-opacity=".75"/>
      <stop offset=".38" stop-color="#5fb2df" stop-opacity=".57"/>
      <stop offset=".52" stop-color="#259cd5" stop-opacity=".33"/>
      <stop offset=".54" stop-color="#1e99d4" stop-opacity=".3"/>
      <stop offset=".76" stop-color="#0075bb"/>
      <stop offset=".96" stop-color="#005b94"/>
    </linearGradient>
    <linearGradient id="_新規グラデーションスウォッチ_1-2" data-name="新規グラデーションスウォッチ 1" x1="-30.86" y1="222.56" x2="69.14" y2="-23.44" xlink:href="#_新規グラデーションスウォッチ_1"/>
    <linearGradient id="_新規グラデーションスウォッチ_1-3" data-name="新規グラデーションスウォッチ 1" x1=".77" y1="235.41" x2="100.77" y2="-10.59" xlink:href="#_新規グラデーションスウォッチ_1"/>
    <linearGradient id="_新規グラデーションスウォッチ_1-4" data-name="新規グラデーションスウォッチ 1" x1="32.41" y1="248.28" x2="132.41" y2="2.28" xlink:href="#_新規グラデーションスウォッチ_1"/>
    <linearGradient id="_新規グラデーションスウォッチ_1-5" data-name="新規グラデーションスウォッチ 1" x1="64.81" y1="261.45" x2="164.81" y2="15.45" xlink:href="#_新規グラデーションスウォッチ_1"/>
    <linearGradient id="_新規グラデーションスウォッチ_1-6" data-name="新規グラデーションスウォッチ 1" x1="95.19" y1="273.8" x2="195.19" y2="27.8" xlink:href="#_新規グラデーションスウォッチ_1"/>
    <linearGradient id="_新規グラデーションスウォッチ_1-7" data-name="新規グラデーションスウォッチ 1" x1="125.52" y1="286.12" x2="225.52" y2="40.12" xlink:href="#_新規グラデーションスウォッチ_1"/>
    <linearGradient id="_新規グラデーションスウォッチ_1-8" data-name="新規グラデーションスウォッチ 1" x1="156.28" y1="298.63" x2="256.28" y2="52.63" xlink:href="#_新規グラデーションスウォッチ_1"/>
    <linearGradient id="_新規グラデーションスウォッチ_1-9" data-name="新規グラデーションスウォッチ 1" x1="189.47" y1="312.12" x2="289.47" y2="66.12" xlink:href="#_新規グラデーションスウォッチ_1"/>
    <linearGradient id="_新規グラデーションスウォッチ_1-10" data-name="新規グラデーションスウォッチ 1" x1="222.05" y1="325.36" x2="322.05" y2="79.36" xlink:href="#_新規グラデーションスウォッチ_1"/>
  </defs>
  <g id="design">
    <g>
      <g>
        <path class="cls-9" d="m27.88,27.2s2.21,1.77,3.5,3.03c-.1.37-.48.54-.95.54H.27l-.27-.99h14.38v-5.03H5.13l-.27-.99h9.52v-4.32h-6.29c-1.9,2.31-4.11,4.08-6.49,5.3l-.37-.34c2.24-2.24,4.52-5.78,5.95-9.72-.41.1-.85.17-1.26.17h-.51V.99l3.57,1.43h13.7l1.67-1.77,3.47,2.65c-.2.27-.71.58-1.39.71v9.55c-.03.24-1.73.88-2.82.88h-.58v-1.46h-14.24v.78c0,.1-.14.24-.34.37l3.3,1.39c-.17.37-.61.65-1.33.54-.48.85-.99,1.63-1.53,2.38h5.51v-4.56l4.62.41c-.07.51-.34.85-1.22.99v3.16h6.05l1.87-2.45s2.14,1.7,3.4,2.89c-.1.37-.44.54-.92.54h-10.4v4.32h5.64l1.84-2.45s2.11,1.67,3.37,2.89c-.1.37-.48.54-.95.54h-9.89v5.03h8.16l1.94-2.58ZM8.77,3.4v3.77h14.24v-3.77h-14.24Zm14.24,8.6v-3.88h-14.24v3.88h14.24Z"/>
        <path class="cls-9" d="m50.83,28.62c8.47-1.77,12.04-6.32,12.04-12.34s-4.22-10.1-9.79-10.1c-.41,0-.85.03-1.29.07.95,1.09,1.94,2.55,1.94,4.05,0,1.67-.37,3.77-1.12,5.78-1.46,4.22-5.34,10.57-9.18,10.57-2.55,0-5-3.91-5-8.26,0-3.26,1.56-7.11,4.79-9.86,2.75-2.41,6.22-3.6,10.17-3.6,7.45,0,12.95,5.07,12.95,12.14,0,6.09-4.11,11.69-15.37,12.27l-.14-.71Zm-.44-22.1c-2.28.54-4.52,1.77-6.19,3.5-2.04,2.14-3.23,4.66-3.23,7.51s1.29,5.44,2.69,5.44c2.07,0,5.13-4.96,6.32-7.68.82-1.84,1.39-4.08,1.39-5.75,0-1.16-.44-2.14-.99-3.03Z"/>
        <path class="cls-9" d="m101.86,23.19s1.9,1.7,3.03,2.82c-.1.37-.44.51-.92.51h-5.47v4.42c0,.31-1.36.85-2.52.85h-.58v-5.27h-8.81l-.27-.95h3.43v-5.17h-1.33l-.1-.37c-.2.03-.41.07-.71.07-2.24,5.37-6.53,9.59-13.73,11.76l-.27-.51c3.09-1.39,5.64-3.3,7.55-5.58-.44.1-.95.03-1.46-.34-.2-.99-.92-2.11-1.67-2.99-1.29,1.02-2.69,1.87-4.18,2.55l-.34-.37c2.72-2.04,5.17-5.51,6.36-8.7h-5.44l-.31-.99h5.1v-4.52h-5.27l-.31-.99h5.58v-3.2c-1.29,1.02-2.69,1.9-4.11,2.58l-.34-.37c2.28-1.94,4.62-5.44,5.68-8.3l4.45,1.33c-.14.34-.41.51-1.26.41-.58.71-1.22,1.46-1.97,2.21h16.45l1.8-2.41s2.11,1.67,3.37,2.86c-.1.37-.44.54-.92.54h-3.43v4.35h1.39l1.63-2.41s1.87,1.67,2.92,2.86c-.1.37-.44.54-.88.54h-5.07v4.52h.75l1.73-2.35s2.04,1.63,3.2,2.79c-.1.37-.44.54-.92.54h-22.71l3.16.75c-.14.31-.41.48-1.26.41-.34.58-.75,1.12-1.19,1.7h2.79l1.7-1.6,2.52,2.24h6.7v-3.4l4.18.41c-.07.41-.34.68-1.09.82v2.18h.92l1.56-2.18s1.77,1.53,2.75,2.62c-.1.37-.37.54-.85.54h-4.39v5.17h1.7l1.67-2.38Zm-21.01-3.43c-.61.71-1.33,1.39-2.07,2.04,2.52.58,3.37,1.77,3.37,2.69,1.02-1.46,1.84-3.06,2.41-4.73h-3.71Zm1.29-10.33h2.62v-4.35h-2.62v4.35Zm0,5.51h2.62v-4.52h-2.62v4.52Zm8.23-5.51v-4.35h-2.69v4.35h2.69Zm-2.69.99v4.52h2.69v-4.52h-2.69Zm7.72,15.16v-5.17h-2.82v5.17h2.82Zm.61-20.5h-2.72v4.35h2.72v-4.35Zm0,5.34h-2.72v4.52h2.72v-4.52Z"/>
        <path class="cls-9" d="m128.99,1.36c-.1.44-.54.65-1.56.71,3.06,3.98,9.11,7.11,14.45,8.67l-.03.51c-1.53.41-2.52,1.84-2.79,3.16-5.34-2.45-10.03-6.94-12.2-11.97-3.09,4.86-10.06,9.99-16.79,12.54l-.24-.44c5.88-3.26,12.24-9.86,13.77-14.55l5.41,1.36Zm7.48,14.24s2.38,1.73,3.77,2.99c-.07.37-.41.54-.92.54h-14.14c-1.6,2.72-3.74,5.88-5.64,8.23,3.84-.2,8.6-.48,13.63-.78-1.22-1.84-2.72-3.57-4.08-4.93l.34-.2c12.38,4.25,9.93,12.54,6.02,9.83-.34-1.22-.95-2.58-1.77-3.91-4.35.99-10.17,2.11-18.39,3.54-.2.37-.58.61-.95.68l-2.01-3.94c1.36-.03,3.3-.1,5.68-.2,1.05-2.45,2.21-5.78,2.89-8.3h-9.01l-.31-.99h22.81l2.07-2.55Zm-5.88-5.88s2.21,1.67,3.6,2.86c-.1.37-.44.54-.92.54h-15.64l-.27-.99h11.29l1.94-2.41Z"/>
        <path class="cls-9" d="m146.95,31.38c4.42-1.36,8.74-4.08,10.71-6.12l4.56,2.01c-.2.37-.71.58-1.8.51-3.09,1.8-7.92,3.5-13.26,4.05l-.2-.44Zm7.34-5.88c0,.34-1.43,1.05-2.75,1.05h-.51V9.66l3.5,1.46h16.08l1.6-1.8,3.47,2.65c-.24.24-.71.51-1.43.65v12.34c-.03.24-1.7.92-2.75.92h-.54v-1.36h-16.66v.99Zm1.22-16.56c0,.27-1.46.99-2.75.99h-.44V.78l3.4,1.39h13.53l1.56-1.7,3.4,2.52c-.2.27-.75.58-1.43.71v4.93c-.03.2-1.63.78-2.69.78h-.51v-1.05h-14.07v.58Zm-1.22,3.13v3.06h16.66v-3.06h-16.66Zm16.66,4.05h-16.66v3.2h16.66v-3.2Zm0,7.41v-3.23h-16.66v3.23h16.66Zm-15.43-20.4v4.25h14.07V3.13h-14.07Zm9.48,22.85c12.95-.07,13.73,6.29,10.13,5.92-2.35-1.87-7.07-4.35-10.33-5.44l.2-.48Z"/>
        <path class="cls-9" d="m197.71,28.62c8.47-1.77,12.04-6.32,12.04-12.34s-4.22-10.1-9.79-10.1c-.41,0-.85.03-1.29.07.95,1.09,1.94,2.55,1.94,4.05,0,1.67-.37,3.77-1.12,5.78-1.46,4.22-5.34,10.57-9.18,10.57-2.55,0-5-3.91-5-8.26,0-3.26,1.56-7.11,4.79-9.86,2.75-2.41,6.22-3.6,10.17-3.6,7.45,0,12.95,5.07,12.95,12.14,0,6.09-4.11,11.69-15.37,12.27l-.14-.71Zm-.44-22.1c-2.28.54-4.52,1.77-6.19,3.5-2.04,2.14-3.23,4.66-3.23,7.51s1.29,5.44,2.69,5.44c2.07,0,5.13-4.96,6.32-7.68.82-1.84,1.39-4.08,1.39-5.75,0-1.16-.44-2.14-.99-3.03Z"/>
        <path class="cls-9" d="m236.2,11.01c-2.86,1.19-7,2.86-13.02,4.96-.17.41-.48.71-.85.78l-1.84-3.81c1.02-.1,2.55-.31,4.39-.61V.31l4.35.41c-.1.48-.37.82-1.29.95v4.39h3.23l1.84-2.41s2.04,1.67,3.23,2.86c-.07.37-.37.54-.88.54h-7.41v4.86c2.52-.41,5.34-.88,8.19-1.36l.07.48Zm7.96,5.03l3.4,2.58c-.24.27-.71.58-1.43.71v11.49c-.03.24-1.63.88-2.69.88h-.54v-2.24h-13.53v1.33c0,.31-1.36,1.02-2.72,1.02h-.44v-15.43l3.4,1.39h3.4c.2-1.12.48-2.65.61-3.74l4.9.85c-.14.54-.61.82-1.33.85-.61.58-1.5,1.36-2.28,2.04h7.65l1.6-1.73Zm-14.79,2.72v4.25h13.53v-4.25h-13.53Zm13.53,9.72v-4.49h-13.53v4.49h13.53Zm7.45-16.56c.88.31,1.16.65,1.16,1.22,0,1.33-1.29,1.87-6.8,1.87h-3.64c-3.06,0-3.74-.61-3.74-2.82V.31l4.08.41c-.03.44-.37.75-1.02.85v5.41c2.58-1.26,5.34-2.96,6.8-4.22l3.43,2.82c-.31.34-.95.37-1.87.07-2.11.82-5.27,1.73-8.36,2.31v3.6c0,.48.17.65,1.29.65h3.26c1.29,0,2.45,0,2.89-.03.41-.03.65-.1.85-.34.27-.44.71-1.77,1.16-3.33h.37l.14,3.43Z"/>
        <path class="cls-9" d="m266.87,3.64c1.09-.68,2.24-1.19,3.37-1.19,1.63,0,3.06.54,3.26,1.26.51,1.73.92,3.06,1.6,4.52,3.54-1.39,4.56-2.75,5.41-3.06.75-.17,1.8-.07,2.31.48.41.48.27,1.26-.27,1.8-1.02.92-3.47,2.24-6.12,3.23,1.67,2.75,3.94,5.07,5.88,6.94.78.78,1.09,1.19,1.09,1.87.03,1.09-.54,2.75-1.56,2.75-.92,0-1.5-.61-2.55-1.26-1.87-1.12-4.56-2.45-8.19-2.45s-6.29,2.01-6.29,4.66c0,2.35,2.62,4.01,7.62,4.01,2.45,0,3.77-.37,5.03-.37s2.38.48,2.38,1.63-1.7,1.94-6.39,1.94c-6.12,0-10.98-2.14-10.98-6.6,0-3.77,4.01-6.66,9.38-6.66,3.06,0,5.61.61,7,.99.37.07.48,0,.17-.31-1.46-1.63-3.26-4.05-4.83-6.39-2.14.65-4.96,1.26-7.11,1.26-3.88.07-5.07-1.29-6.73-4.42l.54-.44c2.14,1.73,3.33,2.31,5.85,2.31,1.6-.03,4.01-.48,6.02-1.09-.75-1.36-1.5-2.82-2.11-3.74-.58-.88-1.7-1.02-3.67-1.09l-.1-.58Z"/>
        <path class="cls-9" d="m305.76,2.92c.75-.41,1.67-.78,2.79-.78,1.87,0,4.11.99,4.11,2.11,0,.68-.48,1.05-.68,1.9-.1.44-.2.99-.31,1.67,1.84-.34,3.33-.71,4.25-1.02,1.22-.37,1.73-.75,2.07-.75.88,0,2.45.37,2.45,1.39,0,.82-.58,1.12-1.43,1.43-1.22.44-4.08,1.16-7.62,1.63-.07,1.26-.14,2.65-.14,4.18,1.46-.24,2.86-.58,4.08-.95,1.33-.41,1.87-.75,2.18-.75,1.12,0,2.24.34,2.24,1.29,0,.75-.51,1.16-1.22,1.46-1.16.44-3.94,1.05-7.21,1.46.07,1.94.27,3.57.41,5.03,4.01.78,6.7,2.45,7.72,3.3.95.75,1.56,1.53,1.56,2.45s-.54,1.43-1.26,1.43-1.12-.37-1.87-1.02c-1.7-1.56-3.64-2.86-5.92-3.71.03.44.03.88.03,1.33,0,2.82-2.41,4.56-6.32,4.56-3.64,0-6.26-1.56-6.26-4.32s3.5-4.42,7.92-4.42c.65,0,1.26.03,1.87.07-.07-1.29-.14-2.82-.2-4.45-1.29.1-2.65.17-3.94.17-4.66,0-7.21-2.62-3.23-6.02l.58.37c-1.77,2.48-.61,3.26,2.48,3.26,1.36,0,2.72-.07,4.05-.2v-1.5c0-.88,0-1.8.03-2.72-1.46.14-2.99.2-4.52.2-3.26,0-5.44-.85-7.14-4.08l.51-.37c1.7,1.29,2.96,2.07,5.92,2.07,1.73,0,3.57-.17,5.27-.37.03-1.46.07-2.58.07-2.99,0-.68-.2-.92-.75-1.16-.71-.27-1.43-.41-2.52-.61l-.07-.58Zm3.5,21.01c-1.02-.2-2.11-.31-3.23-.31-3.03,0-5.07,1.16-5.07,2.45,0,1.16,1.26,2.01,3.26,2.01,3.67,0,5.03-1.02,5.03-4.15Z"/>
        <path class="cls-9" d="m330.41,16.01l.48-.37c.78.68,1.6,1.16,2.11,1.16s1.05-.31,1.77-.99c1.67-1.5,4.69-4.79,5.85-6.05.78-.85,1.56-1.29,2.52-1.29,1.09,0,2.18.41,3.37,1.6,3.81,3.84,6.87,8.19,13.23,11.73,1.36.78,1.8,1.8,1.8,2.86,0,.95-.54,1.56-1.6,1.56-1.63,0-4.49-2.28-7.34-5.3-2.89-3.03-5.51-6.73-7.75-9.08-.65-.68-1.16-.88-1.63-.88-.41,0-.82.27-1.33.88-1.19,1.46-3.6,4.9-4.76,6.6-.78,1.16-1.33,2.01-2.41,2.01-1.19,0-2.72-.99-3.54-2.07-.44-.58-.65-1.43-.75-2.35Z"/>
      </g>
      <g class="cls-12">
        <path class="cls-1" d="m27.88,27.2s2.21,1.77,3.5,3.03c-.1.37-.48.54-.95.54H.27l-.27-.99h14.38v-5.03H5.13l-.27-.99h9.52v-4.32h-6.29c-1.9,2.31-4.11,4.08-6.49,5.3l-.37-.34c2.24-2.24,4.52-5.78,5.95-9.72-.41.1-.85.17-1.26.17h-.51V.99l3.57,1.43h13.7l1.67-1.77,3.47,2.65c-.2.27-.71.58-1.39.71v9.55c-.03.24-1.73.88-2.82.88h-.58v-1.46h-14.24v.78c0,.1-.14.24-.34.37l3.3,1.39c-.17.37-.61.65-1.33.54-.48.85-.99,1.63-1.53,2.38h5.51v-4.56l4.62.41c-.07.51-.34.85-1.22.99v3.16h6.05l1.87-2.45s2.14,1.7,3.4,2.89c-.1.37-.44.54-.92.54h-10.4v4.32h5.64l1.84-2.45s2.11,1.67,3.37,2.89c-.1.37-.48.54-.95.54h-9.89v5.03h8.16l1.94-2.58ZM8.77,3.4v3.77h14.24v-3.77h-14.24Zm14.24,8.6v-3.88h-14.24v3.88h14.24Z"/>
        <path class="cls-2" d="m50.83,28.62c8.47-1.77,12.04-6.32,12.04-12.34s-4.22-10.1-9.79-10.1c-.41,0-.85.03-1.29.07.95,1.09,1.94,2.55,1.94,4.05,0,1.67-.37,3.77-1.12,5.78-1.46,4.22-5.34,10.57-9.18,10.57-2.55,0-5-3.91-5-8.26,0-3.26,1.56-7.11,4.79-9.86,2.75-2.41,6.22-3.6,10.17-3.6,7.45,0,12.95,5.07,12.95,12.14,0,6.09-4.11,11.69-15.37,12.27l-.14-.71Zm-.44-22.1c-2.28.54-4.52,1.77-6.19,3.5-2.04,2.14-3.23,4.66-3.23,7.51s1.29,5.44,2.69,5.44c2.07,0,5.13-4.96,6.32-7.68.82-1.84,1.39-4.08,1.39-5.75,0-1.16-.44-2.14-.99-3.03Z"/>
        <path class="cls-4" d="m101.86,23.19s1.9,1.7,3.03,2.82c-.1.37-.44.51-.92.51h-5.47v4.42c0,.31-1.36.85-2.52.85h-.58v-5.27h-8.81l-.27-.95h3.43v-5.17h-1.33l-.1-.37c-.2.03-.41.07-.71.07-2.24,5.37-6.53,9.59-13.73,11.76l-.27-.51c3.09-1.39,5.64-3.3,7.55-5.58-.44.1-.95.03-1.46-.34-.2-.99-.92-2.11-1.67-2.99-1.29,1.02-2.69,1.87-4.18,2.55l-.34-.37c2.72-2.04,5.17-5.51,6.36-8.7h-5.44l-.31-.99h5.1v-4.52h-5.27l-.31-.99h5.58v-3.2c-1.29,1.02-2.69,1.9-4.11,2.58l-.34-.37c2.28-1.94,4.62-5.44,5.68-8.3l4.45,1.33c-.14.34-.41.51-1.26.41-.58.71-1.22,1.46-1.97,2.21h16.45l1.8-2.41s2.11,1.67,3.37,2.86c-.1.37-.44.54-.92.54h-3.43v4.35h1.39l1.63-2.41s1.87,1.67,2.92,2.86c-.1.37-.44.54-.88.54h-5.07v4.52h.75l1.73-2.35s2.04,1.63,3.2,2.79c-.1.37-.44.54-.92.54h-22.71l3.16.75c-.14.31-.41.48-1.26.41-.34.58-.75,1.12-1.19,1.7h2.79l1.7-1.6,2.52,2.24h6.7v-3.4l4.18.41c-.07.41-.34.68-1.09.82v2.18h.92l1.56-2.18s1.77,1.53,2.75,2.62c-.1.37-.37.54-.85.54h-4.39v5.17h1.7l1.67-2.38Zm-21.01-3.43c-.61.71-1.33,1.39-2.07,2.04,2.52.58,3.37,1.77,3.37,2.69,1.02-1.46,1.84-3.06,2.41-4.73h-3.71Zm1.29-10.33h2.62v-4.35h-2.62v4.35Zm0,5.51h2.62v-4.52h-2.62v4.52Zm8.23-5.51v-4.35h-2.69v4.35h2.69Zm-2.69.99v4.52h2.69v-4.52h-2.69Zm7.72,15.16v-5.17h-2.82v5.17h2.82Zm.61-20.5h-2.72v4.35h2.72v-4.35Zm0,5.34h-2.72v4.52h2.72v-4.52Z"/>
        <path class="cls-6" d="m128.99,1.36c-.1.44-.54.65-1.56.71,3.06,3.98,9.11,7.11,14.45,8.67l-.03.51c-1.53.41-2.52,1.84-2.79,3.16-5.34-2.45-10.03-6.94-12.2-11.97-3.09,4.86-10.06,9.99-16.79,12.54l-.24-.44c5.88-3.26,12.24-9.86,13.77-14.55l5.41,1.36Zm7.48,14.24s2.38,1.73,3.77,2.99c-.07.37-.41.54-.92.54h-14.14c-1.6,2.72-3.74,5.88-5.64,8.23,3.84-.2,8.6-.48,13.63-.78-1.22-1.84-2.72-3.57-4.08-4.93l.34-.2c12.38,4.25,9.93,12.54,6.02,9.83-.34-1.22-.95-2.58-1.77-3.91-4.35.99-10.17,2.11-18.39,3.54-.2.37-.58.61-.95.68l-2.01-3.94c1.36-.03,3.3-.1,5.68-.2,1.05-2.45,2.21-5.78,2.89-8.3h-9.01l-.31-.99h22.81l2.07-2.55Zm-5.88-5.88s2.21,1.67,3.6,2.86c-.1.37-.44.54-.92.54h-15.64l-.27-.99h11.29l1.94-2.41Z"/>
        <path class="cls-10" d="m146.95,31.38c4.42-1.36,8.74-4.08,10.71-6.12l4.56,2.01c-.2.37-.71.58-1.8.51-3.09,1.8-7.92,3.5-13.26,4.05l-.2-.44Zm7.34-5.88c0,.34-1.43,1.05-2.75,1.05h-.51V9.66l3.5,1.46h16.08l1.6-1.8,3.47,2.65c-.24.24-.71.51-1.43.65v12.34c-.03.24-1.7.92-2.75.92h-.54v-1.36h-16.66v.99Zm1.22-16.56c0,.27-1.46.99-2.75.99h-.44V.78l3.4,1.39h13.53l1.56-1.7,3.4,2.52c-.2.27-.75.58-1.43.71v4.93c-.03.2-1.63.78-2.69.78h-.51v-1.05h-14.07v.58Zm-1.22,3.13v3.06h16.66v-3.06h-16.66Zm16.66,4.05h-16.66v3.2h16.66v-3.2Zm0,7.41v-3.23h-16.66v3.23h16.66Zm-15.43-20.4v4.25h14.07V3.13h-14.07Zm9.48,22.85c12.95-.07,13.73,6.29,10.13,5.92-2.35-1.87-7.07-4.35-10.33-5.44l.2-.48Z"/>
        <path class="cls-8" d="m197.71,28.62c8.47-1.77,12.04-6.32,12.04-12.34s-4.22-10.1-9.79-10.1c-.41,0-.85.03-1.29.07.95,1.09,1.94,2.55,1.94,4.05,0,1.67-.37,3.77-1.12,5.78-1.46,4.22-5.34,10.57-9.18,10.57-2.55,0-5-3.91-5-8.26,0-3.26,1.56-7.11,4.79-9.86,2.75-2.41,6.22-3.6,10.17-3.6,7.45,0,12.95,5.07,12.95,12.14,0,6.09-4.11,11.69-15.37,12.27l-.14-.71Zm-.44-22.1c-2.28.54-4.52,1.77-6.19,3.5-2.04,2.14-3.23,4.66-3.23,7.51s1.29,5.44,2.69,5.44c2.07,0,5.13-4.96,6.32-7.68.82-1.84,1.39-4.08,1.39-5.75,0-1.16-.44-2.14-.99-3.03Z"/>
        <path class="cls-11" d="m236.2,11.01c-2.86,1.19-7,2.86-13.02,4.96-.17.41-.48.71-.85.78l-1.84-3.81c1.02-.1,2.55-.31,4.39-.61V.31l4.35.41c-.1.48-.37.82-1.29.95v4.39h3.23l1.84-2.41s2.04,1.67,3.23,2.86c-.07.37-.37.54-.88.54h-7.41v4.86c2.52-.41,5.34-.88,8.19-1.36l.07.48Zm7.96,5.03l3.4,2.58c-.24.27-.71.58-1.43.71v11.49c-.03.24-1.63.88-2.69.88h-.54v-2.24h-13.53v1.33c0,.31-1.36,1.02-2.72,1.02h-.44v-15.43l3.4,1.39h3.4c.2-1.12.48-2.65.61-3.74l4.9.85c-.14.54-.61.82-1.33.85-.61.58-1.5,1.36-2.28,2.04h7.65l1.6-1.73Zm-14.79,2.72v4.25h13.53v-4.25h-13.53Zm13.53,9.72v-4.49h-13.53v4.49h13.53Zm7.45-16.56c.88.31,1.16.65,1.16,1.22,0,1.33-1.29,1.87-6.8,1.87h-3.64c-3.06,0-3.74-.61-3.74-2.82V.31l4.08.41c-.03.44-.37.75-1.02.85v5.41c2.58-1.26,5.34-2.96,6.8-4.22l3.43,2.82c-.31.34-.95.37-1.87.07-2.11.82-5.27,1.73-8.36,2.31v3.6c0,.48.17.65,1.29.65h3.26c1.29,0,2.45,0,2.89-.03.41-.03.65-.1.85-.34.27-.44.71-1.77,1.16-3.33h.37l.14,3.43Z"/>
        <path class="cls-7" d="m266.87,3.64c1.09-.68,2.24-1.19,3.37-1.19,1.63,0,3.06.54,3.26,1.26.51,1.73.92,3.06,1.6,4.52,3.54-1.39,4.56-2.75,5.41-3.06.75-.17,1.8-.07,2.31.48.41.48.27,1.26-.27,1.8-1.02.92-3.47,2.24-6.12,3.23,1.67,2.75,3.94,5.07,5.88,6.94.78.78,1.09,1.19,1.09,1.87.03,1.09-.54,2.75-1.56,2.75-.92,0-1.5-.61-2.55-1.26-1.87-1.12-4.56-2.45-8.19-2.45s-6.29,2.01-6.29,4.66c0,2.35,2.62,4.01,7.62,4.01,2.45,0,3.77-.37,5.03-.37s2.38.48,2.38,1.63-1.7,1.94-6.39,1.94c-6.12,0-10.98-2.14-10.98-6.6,0-3.77,4.01-6.66,9.38-6.66,3.06,0,5.61.61,7,.99.37.07.48,0,.17-.31-1.46-1.63-3.26-4.05-4.83-6.39-2.14.65-4.96,1.26-7.11,1.26-3.88.07-5.07-1.29-6.73-4.42l.54-.44c2.14,1.73,3.33,2.31,5.85,2.31,1.6-.03,4.01-.48,6.02-1.09-.75-1.36-1.5-2.82-2.11-3.74-.58-.88-1.7-1.02-3.67-1.09l-.1-.58Z"/>
        <path class="cls-3" d="m305.76,2.92c.75-.41,1.67-.78,2.79-.78,1.87,0,4.11.99,4.11,2.11,0,.68-.48,1.05-.68,1.9-.1.44-.2.99-.31,1.67,1.84-.34,3.33-.71,4.25-1.02,1.22-.37,1.73-.75,2.07-.75.88,0,2.45.37,2.45,1.39,0,.82-.58,1.12-1.43,1.43-1.22.44-4.08,1.16-7.62,1.63-.07,1.26-.14,2.65-.14,4.18,1.46-.24,2.86-.58,4.08-.95,1.33-.41,1.87-.75,2.18-.75,1.12,0,2.24.34,2.24,1.29,0,.75-.51,1.16-1.22,1.46-1.16.44-3.94,1.05-7.21,1.46.07,1.94.27,3.57.41,5.03,4.01.78,6.7,2.45,7.72,3.3.95.75,1.56,1.53,1.56,2.45s-.54,1.43-1.26,1.43-1.12-.37-1.87-1.02c-1.7-1.56-3.64-2.86-5.92-3.71.03.44.03.88.03,1.33,0,2.82-2.41,4.56-6.32,4.56-3.64,0-6.26-1.56-6.26-4.32s3.5-4.42,7.92-4.42c.65,0,1.26.03,1.87.07-.07-1.29-.14-2.82-.2-4.45-1.29.1-2.65.17-3.94.17-4.66,0-7.21-2.62-3.23-6.02l.58.37c-1.77,2.48-.61,3.26,2.48,3.26,1.36,0,2.72-.07,4.05-.2v-1.5c0-.88,0-1.8.03-2.72-1.46.14-2.99.2-4.52.2-3.26,0-5.44-.85-7.14-4.08l.51-.37c1.7,1.29,2.96,2.07,5.92,2.07,1.73,0,3.57-.17,5.27-.37.03-1.46.07-2.58.07-2.99,0-.68-.2-.92-.75-1.16-.71-.27-1.43-.41-2.52-.61l-.07-.58Zm3.5,21.01c-1.02-.2-2.11-.31-3.23-.31-3.03,0-5.07,1.16-5.07,2.45,0,1.16,1.26,2.01,3.26,2.01,3.67,0,5.03-1.02,5.03-4.15Z"/>
        <path class="cls-5" d="m330.41,16.01l.48-.37c.78.68,1.6,1.16,2.11,1.16s1.05-.31,1.77-.99c1.67-1.5,4.69-4.79,5.85-6.05.78-.85,1.56-1.29,2.52-1.29,1.09,0,2.18.41,3.37,1.6,3.81,3.84,6.87,8.19,13.23,11.73,1.36.78,1.8,1.8,1.8,2.86,0,.95-.54,1.56-1.6,1.56-1.63,0-4.49-2.28-7.34-5.3-2.89-3.03-5.51-6.73-7.75-9.08-.65-.68-1.16-.88-1.63-.88-.41,0-.82.27-1.33.88-1.19,1.46-3.6,4.9-4.76,6.6-.78,1.16-1.33,2.01-2.41,2.01-1.19,0-2.72-.99-3.54-2.07-.44-.58-.65-1.43-.75-2.35Z"/>
      </g>
    </g>
  </g>
</svg>