<?xml version="1.0" encoding="UTF-8"?>
<svg id="_レイヤー_2" data-name="レイヤー 2" xmlns="http://www.w3.org/2000/svg" viewBox="0 0 208.96 25.49">
  <defs>
    <style>
      .cls-1 {
        fill: #39385d;
        stroke-width: 0px;
      }
    </style>
  </defs>
  <g id="design">
    <g>
      <g>
        <path class="cls-1" d="m.01,1.48h3.48c-.07.19-.24.2-.35.26-.54.31-.84.76-.84,1.39,0,2.45,0,4.89,0,7.34,0,.38.09.47.47.32,1.97-.8,3.94-.77,5.9.05,1.04.43,2.08.86,3.25.81.91-.03,1.76-.26,2.58-.64.31-.14.47-.34.46-.69-.01-2.41-.01-4.82,0-7.23,0-.83-.49-1.25-1.19-1.59h3.54c-1.21.41-1.24,1.4-1.24,2.44,0,6.4,0,12.79,0,19.19,0,.5,0,1,.28,1.45.21.35.58.5,1.05.77h-3.54s0-.1.02-.11c.87-.39,1.11-1.07,1.1-1.99-.04-3.73-.02-7.47-.02-11.2,0-.72-.01-.73-.66-.45-1.78.77-3.52.62-5.26-.11-.96-.41-1.93-.75-2.99-.82-1.23-.07-2.37.23-3.49.7-.3.13-.26.4-.26.64,0,2.3,0,4.61,0,6.91,0,1.43.03,2.86-.01,4.29-.03.95.21,1.7,1.18,2.12H0c-.02-.13.09-.15.16-.18.72-.3,1.02-.85,1.01-1.61,0-1.91,0-3.82,0-5.73,0-4.73-.01-9.47.01-14.2,0-.95-.22-1.7-1.18-2.14Z"/>
        <path class="cls-1" d="m80.76,25.36h-3.47c0-.05,0-.11.01-.11.93-.36,1.18-1.06,1.17-2-.03-3.73-.01-7.47-.01-11.2,0-.73,0-.74-.65-.46-1.79.78-3.55.66-5.31-.1-.97-.42-1.97-.76-3.04-.81-1.22-.06-2.38.24-3.49.72-.22.1-.25.28-.25.49,0,3.93,0,7.86.01,11.79,0,.78.47,1.28,1.18,1.62-1.14.14-2.27.09-3.4.08-.01-.17.08-.2.16-.23.72-.3,1-.89,1-1.63,0-6.73,0-13.47,0-20.2,0-.86-.41-1.46-1.24-1.81h3.54c-.05.16-.21.16-.32.21-.6.28-.92.78-.93,1.4-.03,2.48,0,4.97-.02,7.45,0,.46.23.33.48.23,1.4-.54,2.83-.74,4.32-.45.81.16,1.58.48,2.34.79,1.68.69,3.33.69,5-.06.43-.19.62-.43.61-.92-.03-2.2-.03-4.39,0-6.59.01-.94-.24-1.66-1.18-2.06h3.46c.01.11-.07.12-.13.14-.74.33-1.05.89-1.05,1.7.01,4.79,0,9.58,0,14.36,0,1.82.03,3.64-.01,5.47-.02.97.2,1.74,1.19,2.18Z"/>
        <path class="cls-1" d="m41.16,3.55c-.61.97-.07,1.58.46,2.26,5.45,6.95,1.9,17.22-6.68,19.3-3.91.95-7.5.15-10.63-2.4-.62-.5-1.16-.84-1.88-.3-.15-.17-.03-.27.02-.37.23-.54.18-1.02-.17-1.51-1.56-2.16-2.32-4.59-2.25-7.24.16-5.77,4.2-10.46,9.57-11.65,3.2-.71,6.23-.23,9.02,1.51.79.49,1.52.97,2.54.4Zm-1.97,1.97c.36-1.26.48-1.25-.86-2.11-2.06-1.3-4.36-1.55-6.68-1.23-5.49.75-9.85,5.09-10.71,10.55-.39,2.49-.07,4.88,1.33,7.05.61.94.88,1.03,1.95.62.02,0,.06.02.09.04-.39,1.26-.31,1.54.77,2.36.35.27.72.54,1.11.75,2.24,1.19,4.61,1.42,7.09.97,5.77-1.04,10.78-6.72,10.16-13.26-.2-2.12-.98-3.97-2.41-5.55-.36-.39-.79-.54-1.31-.35-.15.05-.3.1-.52.17Z"/>
        <path class="cls-1" d="m46.64,19.68c.3.16.31.37.39.54.58,1.36,1.48,2.49,2.58,3.45,1.27,1.1,2.8,1.37,4.43,1.24,2.19-.18,4.04-1.08,5.4-2.82,1.31-1.69,1.29-3.66.06-5.42-1.02-1.45-2.44-2.34-4.05-2.96-1.5-.58-3.04-1.06-4.54-1.63-1.5-.57-2.76-1.47-3.16-3.11-.83-3.36.33-6.16,4.04-7.29,2.01-.61,3.86-.15,5.58.94.34.22.55.25.85-.08.49-.53,1.13-.68,1.86-.52-.07.24-.28.25-.42.35-.41.31-.78.64-.81,1.2-.03.48-.2.5-.55.23-1.09-.83-2.24-1.57-3.62-1.79-2.32-.38-4.3.29-5.8,2.12-1.37,1.66-1.43,5.2,1.7,6.56,1.37.59,2.8.98,4.19,1.49,1.32.49,2.56,1.11,3.7,1.92,3.61,2.55,3.24,7.47-.2,9.79-3.31,2.23-6.68,1.97-10.02.07-1.63-.92-1.6-.96-1.6-2.81v-1.46Z"/>
        <path class="cls-1" d="m87.67,7c-1.25.31-1.46,1.15-1.45,2.22.03,4.61.03,9.21,0,13.82,0,1.01.13,1.86,1.2,2.31h-3.47c.02-.17.15-.18.24-.22.64-.3.94-.81.94-1.5,0-5,0-10,0-14.99,0-.87-.51-1.37-1.31-1.61.02-.19.17-.17.28-.21.67-.25.99-.75,1.02-1.43.03-.77.02-1.54,0-2.3-.02-.77-.48-1.24-1.16-1.58h3.46c-1.11.42-1.24,1.32-1.19,2.33.03.46,0,.93,0,1.39.02.91.32,1.32,1.17,1.64.06.02.12.06.26.15Z"/>
      </g>
      <g>
        <path class="cls-1" d="m124.87,22.37c.48-.85.2-1.49-.27-2.22-2.6-4.12-2.76-8.39-.4-12.64,1.85-3.34,4.76-5.34,8.52-6.02,3.12-.57,6.06.03,8.72,1.79.73.48,1.4.67,2.18.24.12.14.01.23-.03.32-.23.54-.17,1.04.23,1.49,1.42,1.6,2.35,3.45,2.73,5.56.7,3.83-.19,7.27-2.7,10.25-1.93,2.29-4.41,3.69-7.38,4.14-3.56.54-6.8-.29-9.59-2.6-.63-.52-1.19-.87-2-.3Zm16.76-16.82c.12-.25.2-.37.24-.51.1-.4.19-.82-.21-1.12-.51-.39-1.04-.77-1.64-1.02-2.7-1.12-5.48-1.19-8.18-.17-4.77,1.81-7.68,5.26-8.39,10.35-.34,2.47.05,4.85,1.54,6.94.42.6.86.72,1.54.44.11-.04.2-.16.34-.09-.42,1.32-.31,1.59.81,2.42,2.44,1.82,5.18,2.19,8.11,1.67,6.38-1.13,11.43-7.69,10.01-14.5-.35-1.66-1.11-3.08-2.25-4.32-.36-.39-.79-.54-1.31-.33-.16.07-.33.12-.6.22Z"/>
        <path class="cls-1" d="m103.49,3.36c-.16.23-.1.43-.1.62,0,6.5,0,13-.01,19.51,0,.76.13,1.39.88,1.81h-2.21c1.01-.46.87-1.37.86-2.22,0-6.59,0-13.18,0-19.77,0-.76-.06-1.45-.98-1.74.96-.36,1.55-.18,2.03.54,4.64,6.96,9.27,13.92,13.91,20.89.09.13.18.26.28.39.21-.11.13-.29.13-.43,0-6.65,0-13.29,0-19.94,0-.7-.25-1.21-.89-1.55h2.29c-.9.4-.95,1.16-.95,1.99.01,6.54,0,13.08,0,19.61,0,.85-.16,1.77,1.04,2.18-1.3.31-1.61.19-2.22-.72-4.48-6.73-8.95-13.45-13.43-20.18-.21-.32-.44-.63-.67-.98Z"/>
      </g>
      <g>
        <path class="cls-1" d="m172.83,2.84c-.29.79-.58,1.57-.86,2.35-.91,2.56-1.81,5.12-2.74,7.67-.15.43-.17.81-.01,1.24.51,1.39.99,2.79,1.48,4.19.58,1.64.43,3.23-.32,4.78-.32.66-.69,1.29-1.1,1.9-.27.39-.46.36-.78.04-2.08-2.1-2.45-4.54-1.48-7.26.34-.96.68-1.92,1.03-2.87.1-.26.12-.51.03-.78-1.33-3.7-2.65-7.4-3.97-11.1-.02-.06-.05-.12-.12-.28-.39,1.09-.75,2.1-1.11,3.1-2.2,6.14-4.39,12.27-6.59,18.41-.08.22-.23.46-.11.67.33.57-.08.47-.39.47-.3,0-.59,0-.91-.05,1.14-.59,1.16-1.78,1.51-2.75,2.31-6.34,4.57-12.7,6.84-19.06.05-.15.1-.31.15-.46.38-1.06.33-1.15-.7-1.51.22-.09,2.18-.16,2.4-.11.19.05.18.14.1.27-.19.3-.14.62-.03.93,1.17,3.3,2.35,6.59,3.52,9.89.02.05.06.09.13.2.1-.27.2-.49.28-.71,1.05-2.94,2.11-5.88,3.14-8.83.41-1.16.39-1.17-.64-1.74.79,0,1.58,0,2.37,0,.17,0,.22.08.13.24-.21.38-.13.76,0,1.14,2.25,6.29,4.5,12.58,6.75,18.86.2.55.38,1.12.6,1.66.36.91.99,1.56,1.91,1.97h-3.9s-.05-.04-.07-.06c.05-.02.1-.03.15-.05.89-.4,1.09-.84.76-1.79-.47-1.37-.96-2.73-1.45-4.09-1.92-5.36-3.84-10.73-5.77-16.09-.05-.13-.05-.28-.25-.4Zm-4.39,12.31c-.39,1.04-.74,1.97-1.07,2.91-.81,2.29-.28,4.24,1.48,5.89.17.16.31.37.54.03.66-1.01.99-2.07.86-3.29-.1-1.04-.55-1.95-.86-2.92-.27-.85-.6-1.67-.94-2.61Z"/>
        <path class="cls-1" d="m203.73,25.33h-3.89c.06-.16.18-.17.27-.22.65-.34.86-.77.62-1.45-.69-1.99-1.41-3.97-2.11-5.96-.08-.23-.17-.32-.42-.19-1.11.6-2.24.46-3.38.09-1.15-.38-2.29-.84-3.51-.97-.8-.09-1.58-.06-2.3.33-.58.32-1.01.75-1.24,1.41-.68,1.98-1.39,3.94-2.1,5.9-.13.35-.28.68.23,1.02-.64.13-1.14.08-1.7,0,.95-.29,1.04-1.15,1.3-1.86,2.27-6.32,4.53-12.64,6.79-18.96.03-.1.06-.2.09-.32-.62,0-1.22.13-1.77-.17-.16-.09-.45-.12-.4-.36.05-.2.31-.12.48-.11,1.53.1,2.6-.98,2.95-1.98.17-.47.14-.98.25-1.52.4.3.57.72.51,1.08-.25,1.45.43,2.68.88,3.96,2.12,5.97,4.26,11.94,6.38,17.91.38,1.08.97,1.94,2.17,2.27-.03.04-.06.08-.08.12Zm-15.33-8.7c.99-.42,1.93-.56,2.94-.44,1.24.15,2.39.59,3.56.97,1.03.33,2.05.52,3.07-.03.29-.15.36-.3.24-.63-1.51-4.18-3-8.36-4.5-12.54-.06-.16-.07-.42-.26-.42-.21,0-.38.18-.49.37-.05.07-.06.17-.09.25-1.09,3.04-2.19,6.07-3.28,9.11-.4,1.12-.79,2.24-1.18,3.37Z"/>
        <path class="cls-1" d="m205.13,6.97c1.17-.38,1.43-1.24,1.36-2.3-.02-.37-.02-.75,0-1.12.05-.97-.31-1.67-1.25-2.06h3.53c-1.11.42-1.3,1.32-1.25,2.35.02.41,0,.82,0,1.23.02.98.22,1.24,1.43,1.94-1.17.28-1.45,1.1-1.44,2.15.01,4.56.01,9.11,0,13.67,0,1.03.05,1.99,1.19,2.51h-3.4s.03-.12.06-.13c.93-.38,1.14-1.12,1.13-2.04-.02-4.68-.02-9.36,0-14.04,0-1.02-.26-1.8-1.37-2.15Z"/>
      </g>
    </g>
  </g>
</svg>