<?xml version="1.0" encoding="UTF-8"?>
<svg id="_レイヤー_2" data-name="レイヤー 2" xmlns="http://www.w3.org/2000/svg" xmlns:xlink="http://www.w3.org/1999/xlink" viewBox="0 0 507.83 97.21">
  <defs>
    <style>
      .cls-1 {
        fill: #39385d;
      }

      .cls-1, .cls-2 {
        stroke-width: 0px;
      }

      .cls-2 {
        fill: url(#_新規グラデーションスウォッチ_1);
        opacity: .5;
      }
    </style>
    <linearGradient id="_新規グラデーションスウォッチ_1" data-name="新規グラデーションスウォッチ 1" x1="82.85" y1="293.68" x2="268.85" y2="28.68" gradientUnits="userSpaceOnUse">
      <stop offset="0" stop-color="#c9ddf1"/>
      <stop offset=".06" stop-color="#c1daef" stop-opacity=".97"/>
      <stop offset=".15" stop-color="#add2ec" stop-opacity=".89"/>
      <stop offset=".26" stop-color="#8cc5e6" stop-opacity=".75"/>
      <stop offset=".38" stop-color="#5fb2df" stop-opacity=".57"/>
      <stop offset=".52" stop-color="#259cd5" stop-opacity=".33"/>
      <stop offset=".54" stop-color="#1e99d4" stop-opacity=".3"/>
      <stop offset=".76" stop-color="#0075bb"/>
      <stop offset=".96" stop-color="#005b94"/>
    </linearGradient>
  </defs>
  <g id="design">
    <g>
      <g>
        <path class="cls-1" d="m13.62,19.88v9.82c0,1.86.1,3.24.31,4.14.21.9.6,1.65,1.16,2.23.49.51,1.06.89,1.71,1.13.65.25,1.5.4,2.56.45v.63H1.89v-.63c1.06-.05,1.91-.21,2.56-.45.65-.25,1.22-.62,1.71-1.13.58-.58.98-1.32,1.18-2.21.2-.89.3-2.28.3-4.16V9.54c0-1.57-.07-2.78-.21-3.62s-.37-1.54-.7-2.06c-.47-.73-1.08-1.27-1.8-1.63-.73-.36-1.68-.57-2.84-.64h-.19v-.63h16.49c2.88,0,5,.15,6.37.44,1.37.29,2.62.88,3.75,1.75,2.59,1.97,3.88,4.59,3.88,7.88s-1.31,5.78-3.94,7.33c-1.37.8-3.03,1.29-4.98,1.45-.62.05-2.11.08-4.48.08h-5.36Zm0-.88h2.68c1.8,0,3.19-.13,4.17-.4.98-.26,1.85-.75,2.61-1.46,1.79-1.62,2.68-3.78,2.68-6.48,0-1.49-.26-2.87-.78-4.12-.52-1.25-1.26-2.26-2.23-3.05-1.11-.93-2.43-1.48-3.96-1.64-.42-.04-1.38-.05-2.87-.05h-2.3v17.2Z"/>
        <path class="cls-1" d="m64.62.96l.46,9.02-.63.03c-.24-1.53-.63-2.8-1.18-3.8-.55-1-1.34-1.89-2.38-2.65-.86-.64-1.87-1.09-3.04-1.35-1.17-.26-2.72-.4-4.65-.4h-6.26v16.41h1.64c1.66,0,2.91-.11,3.75-.33.84-.22,1.52-.61,2.05-1.18.51-.53.89-1.15,1.13-1.87.25-.72.45-1.78.62-3.19l.63.03-.11,14.66h-.63c-.16-1.4-.41-2.53-.72-3.39-.32-.86-.76-1.59-1.33-2.19-.55-.58-1.26-1.01-2.13-1.29s-1.99-.41-3.34-.41h-1.56v6.26c0,2.5.06,4.32.19,5.46.13,1.14.37,2.09.74,2.86.62,1.31,1.56,2.27,2.83,2.88,1.27.61,2.94.92,5.02.92,2.19,0,4.02-.28,5.5-.83,1.48-.56,2.68-1.42,3.61-2.58.66-.78,1.19-1.68,1.6-2.68.41-1,.79-2.32,1.13-3.96l.63.03-.36,10.88h-32.62v-.63c1.04-.05,1.88-.2,2.53-.44.65-.24,1.23-.62,1.74-1.15.56-.58.95-1.33,1.16-2.23.21-.9.31-2.28.31-4.14V9.54c0-1.86-.1-3.24-.31-4.14-.21-.9-.6-1.65-1.16-2.23-.49-.53-1.06-.91-1.71-1.15-.65-.24-1.5-.38-2.56-.44v-.63h29.39Z"/>
        <path class="cls-1" d="m84.93,20.02v9.68c0,1.86.1,3.24.31,4.14.21.9.6,1.65,1.16,2.23.49.51,1.06.89,1.71,1.13.65.25,1.5.4,2.56.45v.63h-17.47v-.63c1.06-.05,1.91-.21,2.56-.45.65-.25,1.22-.62,1.71-1.13.58-.58.98-1.32,1.18-2.21.2-.89.3-2.28.3-4.16V9.54c0-1.88-.1-3.26-.3-4.16-.2-.89-.59-1.63-1.18-2.21-.49-.53-1.07-.91-1.72-1.15-.66-.24-1.5-.38-2.54-.44v-.63h13.18c2.21,0,3.65,0,4.35.03,2.83.13,5.04.51,6.64,1.15,1.8.73,3.2,1.82,4.2,3.27.99,1.45,1.49,3.13,1.49,5.04,0,2.84-1.08,5.12-3.23,6.84-.66.51-1.38.93-2.17,1.26s-1.85.64-3.19.93c1.09.46,1.9.93,2.43,1.42.42.38.8.86,1.15,1.44.35.57.87,1.59,1.56,3.05,1.62,3.34,2.85,5.77,3.68,7.31.83,1.54,1.53,2.66,2.09,3.35.46.57.9.96,1.33,1.18.43.22,1.02.36,1.76.44v.63h-9.08c-.46-1-.75-1.64-.88-1.91l-1.91-4.35c-1.15-2.61-2.31-4.91-3.47-6.92-1.17-1.99-2.23-3.34-3.2-4.07-.49-.36-1.02-.62-1.59-.78-.57-.15-1.26-.23-2.08-.23h-1.34Zm0-.6h1.04c2.26,0,3.88-.13,4.85-.38.98-.25,1.89-.78,2.75-1.59,1.91-1.82,2.87-4.08,2.87-6.78,0-1.44-.28-2.79-.83-4.06-.56-1.27-1.33-2.31-2.31-3.13-.77-.62-1.68-1.05-2.73-1.3-1.06-.25-2.56-.37-4.51-.37h-1.12v17.61Z"/>
        <path class="cls-1" d="m113.8,38.17l.08-11.29.63.03c.77,2.87,1.68,5.14,2.73,6.79,1.99,3.06,4.48,4.58,7.49,4.58,2.1,0,3.83-.7,5.2-2.11,1.37-1.4,2.05-3.18,2.05-5.33,0-.93-.15-1.88-.45-2.84-.3-.97-.71-1.8-1.22-2.49-.53-.71-1.27-1.39-2.23-2.05s-2.42-1.49-4.39-2.49c-1.73-.88-3.06-1.61-3.98-2.21-.92-.6-1.66-1.21-2.23-1.83-1.57-1.71-2.35-3.8-2.35-6.26,0-1.51.31-2.97.92-4.38.61-1.4,1.46-2.61,2.56-3.61,1.93-1.79,4.22-2.68,6.86-2.68.86,0,1.65.09,2.38.26.73.17,1.7.52,2.93,1.03.91.36,1.53.6,1.86.7.33.1.62.15.88.15.64,0,1.07-.46,1.29-1.39h.63l.19,10.86h-.63c-.49-1.73-.91-3.06-1.27-3.98-.36-.92-.78-1.77-1.27-2.56-.89-1.42-1.87-2.47-2.95-3.16-1.07-.68-2.31-1.03-3.71-1.03-2.04,0-3.65.69-4.83,2.08-.49.57-.88,1.23-1.16,2-.28.77-.42,1.53-.42,2.3,0,3.05,1.96,5.5,5.87,7.36l3.85,1.86c2.97,1.41,5.11,2.96,6.42,4.65,1.49,1.9,2.24,4.11,2.24,6.62,0,1.67-.34,3.27-1.01,4.8-.95,2.13-2.37,3.77-4.27,4.92-1.9,1.15-4.13,1.73-6.7,1.73-2.35,0-4.61-.46-6.78-1.39-1.13-.49-1.8-.77-2.02-.85-.22-.07-.46-.11-.74-.11-.88,0-1.48.44-1.8,1.31h-.63Z"/>
        <path class="cls-1" d="m144.13,19.87c0-3.06.66-5.91,1.97-8.52,1.31-2.62,3.23-4.9,5.74-6.85,1.88-1.44,3.9-2.55,6.07-3.32,2.17-.78,4.36-1.16,6.56-1.16,2.81,0,5.52.62,8.15,1.85,2.62,1.23,4.92,2.97,6.89,5.21,3.21,3.65,4.81,7.8,4.81,12.45,0,2.34-.42,4.59-1.26,6.76-.84,2.17-2.06,4.15-3.66,5.94-1.97,2.23-4.3,3.95-6.99,5.17-2.69,1.22-5.5,1.83-8.44,1.83s-5.67-.59-8.31-1.78c-2.64-1.19-4.92-2.86-6.84-5.04-1.51-1.7-2.68-3.62-3.49-5.79-.81-2.16-1.22-4.41-1.22-6.75Zm6.62.41c0,5.29,1.44,9.75,4.32,13.38,1.29,1.62,2.67,2.81,4.12,3.54,1.45.74,3.12,1.11,5.02,1.11s3.6-.36,5.04-1.09c1.45-.73,2.83-1.92,4.14-3.56,2.88-3.65,4.32-8.15,4.32-13.49,0-2.94-.4-5.71-1.19-8.33-.79-2.62-1.91-4.84-3.35-6.66-1.17-1.5-2.47-2.58-3.9-3.27-1.43-.68-3.12-1.03-5.07-1.03s-3.6.34-5.02,1.01c-1.41.67-2.72,1.77-3.92,3.28-1.44,1.81-2.55,4.02-3.34,6.65-.78,2.63-1.18,5.45-1.18,8.46Z"/>
        <path class="cls-1" d="m195.45,5.91v23.79c0,1.88.1,3.26.31,4.16.21.89.6,1.63,1.16,2.21.51.53,1.09.91,1.74,1.15.65.24,1.49.38,2.53.44v.63h-12.61v-.63c1.04-.05,1.88-.2,2.53-.44.65-.24,1.23-.62,1.74-1.15.56-.58.95-1.33,1.16-2.23.21-.9.31-2.28.31-4.14V9.52c0-1.84-.1-3.21-.31-4.12-.21-.9-.6-1.65-1.16-2.23-.49-.53-1.06-.91-1.71-1.15-.65-.24-1.5-.38-2.56-.44v-.63h10.53l22.2,28.33V9.54c0-1.88-.1-3.26-.31-4.16-.21-.89-.6-1.63-1.16-2.21-.51-.53-1.09-.91-1.74-1.15-.65-.24-1.49-.38-2.53-.44v-.63h12.61v.63c-1.82,0-3.24.53-4.27,1.59-.57.58-.95,1.33-1.16,2.23-.21.9-.31,2.27-.31,4.12v28.77h-1.23l-25.76-32.38Z"/>
        <path class="cls-1" d="m269.68,38.28h-17.96v-.63c1.62-.15,2.75-.42,3.39-.82,1.13-.71,1.7-1.7,1.7-2.95,0-.75-.26-1.75-.77-3.01l-.46-1.15-2.62-6.45h-12.03l-1.42,3.77-.68,1.7c-.82,2.01-1.23,3.58-1.23,4.73,0,.67.15,1.3.45,1.89.3.58.71,1.06,1.22,1.42.71.49,1.62.78,2.73.88v.63h-12.25v-.63c.97-.05,1.81-.29,2.54-.71.73-.42,1.44-1.09,2.13-2.02.58-.75,1.15-1.71,1.71-2.88.56-1.18,1.29-2.94,2.2-5.29L248.32.96h1.56l11.89,28.74c.89,2.17,1.6,3.72,2.13,4.65.53.93,1.1,1.63,1.72,2.11.44.33.94.58,1.5.75.56.17,1.41.32,2.54.45v.63Zm-17.17-16.13l-5.74-14.16-5.41,14.16h11.16Z"/>
        <path class="cls-1" d="m274.29,38.28v-.66c1.84,0,3.26-.52,4.27-1.56.56-.58.95-1.33,1.16-2.23.21-.9.31-2.28.31-4.14V9.54c0-1.93-.11-3.36-.34-4.28-.23-.92-.65-1.67-1.27-2.26-.51-.47-1.08-.82-1.71-1.04s-1.44-.35-2.42-.38v-.63h17.47v.63c-1,.05-1.82.19-2.46.41-.64.22-1.2.57-1.7,1.04-.62.6-1.04,1.36-1.26,2.27-.22.91-.33,2.32-.33,4.24v15.78c0,2.42.06,4.23.19,5.41.13,1.19.37,2.15.74,2.9.64,1.31,1.59,2.27,2.84,2.88,1.26.61,2.93.92,5,.92s4-.29,5.48-.86c1.49-.57,2.7-1.46,3.65-2.67.64-.82,1.16-1.75,1.57-2.79s.79-2.41,1.13-4.1l.66.05-.36,11.21h-32.65Z"/>
        <path class="cls-1" d="m39.95,96.28h-17.96v-.63c1.62-.15,2.75-.42,3.39-.82,1.13-.71,1.7-1.7,1.7-2.95,0-.75-.26-1.75-.77-3.01l-.46-1.15-2.62-6.45h-12.03l-1.42,3.77-.68,1.7c-.82,2.01-1.23,3.58-1.23,4.73,0,.67.15,1.3.45,1.89.3.58.71,1.06,1.22,1.42.71.49,1.62.78,2.73.88v.63H0v-.63c.97-.05,1.81-.29,2.54-.71.73-.42,1.44-1.09,2.13-2.02.58-.75,1.15-1.71,1.71-2.88.56-1.18,1.29-2.94,2.2-5.29l10.01-25.79h1.56l11.89,28.74c.89,2.17,1.6,3.72,2.13,4.65.53.93,1.1,1.63,1.72,2.11.44.33.94.58,1.5.75.56.17,1.41.32,2.54.45v.63Zm-17.17-16.13l-5.74-14.16-5.41,14.16h11.16Z"/>
        <path class="cls-1" d="m56.29,77.88v9.82c0,1.86.1,3.24.31,4.14.21.9.6,1.65,1.16,2.23.49.51,1.06.89,1.71,1.13.65.25,1.5.4,2.56.45v.63h-17.47v-.63c1.06-.05,1.91-.21,2.56-.45.65-.25,1.22-.62,1.71-1.13.58-.58.98-1.32,1.18-2.21.2-.89.3-2.28.3-4.16v-20.15c0-1.57-.07-2.78-.21-3.62s-.37-1.54-.7-2.06c-.47-.73-1.08-1.27-1.8-1.63-.73-.36-1.68-.57-2.84-.64h-.19v-.63h16.49c2.88,0,5,.15,6.37.44,1.37.29,2.62.88,3.75,1.75,2.59,1.97,3.88,4.59,3.88,7.88s-1.31,5.78-3.94,7.33c-1.37.8-3.03,1.29-4.98,1.45-.62.05-2.11.08-4.48.08h-5.36Zm0-.88h2.68c1.8,0,3.19-.13,4.17-.4.98-.26,1.85-.75,2.61-1.46,1.79-1.62,2.68-3.78,2.68-6.48,0-1.49-.26-2.87-.78-4.12-.52-1.25-1.26-2.26-2.23-3.05-1.11-.93-2.43-1.48-3.96-1.64-.42-.04-1.38-.05-2.87-.05h-2.3v17.2Z"/>
        <path class="cls-1" d="m89.64,77.88v9.82c0,1.86.1,3.24.31,4.14.21.9.6,1.65,1.16,2.23.49.51,1.06.89,1.71,1.13.65.25,1.5.4,2.56.45v.63h-17.47v-.63c1.06-.05,1.91-.21,2.56-.45.65-.25,1.22-.62,1.71-1.13.58-.58.98-1.32,1.18-2.21.2-.89.3-2.28.3-4.16v-20.15c0-1.57-.07-2.78-.21-3.62s-.37-1.54-.7-2.06c-.47-.73-1.08-1.27-1.8-1.63-.73-.36-1.68-.57-2.84-.64h-.19v-.63h16.49c2.88,0,5,.15,6.37.44,1.37.29,2.62.88,3.75,1.75,2.59,1.97,3.88,4.59,3.88,7.88s-1.31,5.78-3.94,7.33c-1.37.8-3.03,1.29-4.98,1.45-.62.05-2.11.08-4.48.08h-5.36Zm0-.88h2.68c1.8,0,3.19-.13,4.17-.4.98-.26,1.85-.75,2.61-1.46,1.79-1.62,2.68-3.78,2.68-6.48,0-1.49-.26-2.87-.78-4.12-.52-1.25-1.26-2.26-2.23-3.05-1.11-.93-2.43-1.48-3.96-1.64-.42-.04-1.38-.05-2.87-.05h-2.3v17.2Z"/>
        <path class="cls-1" d="m122.98,78.02v9.68c0,1.86.1,3.24.31,4.14.21.9.6,1.65,1.16,2.23.49.51,1.06.89,1.71,1.13.65.25,1.5.4,2.56.45v.63h-17.47v-.63c1.06-.05,1.91-.21,2.56-.45.65-.25,1.22-.62,1.71-1.13.58-.58.98-1.32,1.18-2.21.2-.89.3-2.28.3-4.16v-20.15c0-1.88-.1-3.26-.3-4.16-.2-.89-.59-1.63-1.18-2.21-.49-.53-1.07-.91-1.72-1.15-.66-.24-1.5-.38-2.54-.44v-.63h13.18c2.21,0,3.65,0,4.35.03,2.83.13,5.04.51,6.64,1.15,1.8.73,3.2,1.82,4.2,3.27.99,1.45,1.49,3.13,1.49,5.04,0,2.84-1.08,5.12-3.23,6.84-.66.51-1.38.93-2.17,1.26s-1.85.64-3.19.93c1.09.46,1.9.93,2.43,1.42.42.38.8.86,1.15,1.44.35.57.87,1.59,1.56,3.05,1.62,3.34,2.85,5.77,3.68,7.31.83,1.54,1.53,2.66,2.09,3.35.46.57.9.96,1.33,1.18.43.22,1.02.36,1.76.44v.63h-9.08c-.46-1-.75-1.64-.88-1.91l-1.91-4.35c-1.15-2.61-2.31-4.91-3.47-6.92-1.17-1.99-2.23-3.34-3.2-4.07-.49-.36-1.02-.62-1.59-.78-.57-.15-1.26-.23-2.08-.23h-1.34Zm0-.6h1.04c2.26,0,3.88-.13,4.85-.38.98-.25,1.89-.78,2.75-1.59,1.91-1.82,2.87-4.08,2.87-6.78,0-1.44-.28-2.79-.83-4.06-.56-1.27-1.33-2.31-2.31-3.13-.77-.62-1.68-1.05-2.73-1.3-1.06-.25-2.56-.37-4.51-.37h-1.12v17.61Z"/>
        <path class="cls-1" d="m190.29,96.28h-17.96v-.63c1.62-.15,2.75-.42,3.39-.82,1.13-.71,1.7-1.7,1.7-2.95,0-.75-.26-1.75-.77-3.01l-.46-1.15-2.62-6.45h-12.03l-1.42,3.77-.68,1.7c-.82,2.01-1.23,3.58-1.23,4.73,0,.67.15,1.3.45,1.89.3.58.71,1.06,1.22,1.42.71.49,1.62.78,2.73.88v.63h-12.25v-.63c.97-.05,1.81-.29,2.54-.71.73-.42,1.44-1.09,2.13-2.02.58-.75,1.15-1.71,1.71-2.88.56-1.18,1.29-2.94,2.2-5.29l10.01-25.79h1.56l11.89,28.74c.89,2.17,1.6,3.72,2.13,4.65.53.93,1.1,1.63,1.72,2.11.44.33.94.58,1.5.75.56.17,1.41.32,2.54.45v.63Zm-17.17-16.13l-5.74-14.16-5.41,14.16h11.16Z"/>
        <path class="cls-1" d="m212.37,58.96v.63c-1.04.05-1.88.2-2.53.44-.65.24-1.23.62-1.74,1.15-.71.73-1.15,1.74-1.31,3.04-.11.97-.16,2.08-.16,3.34v20.15c0,1.51.07,2.71.22,3.58.15.88.38,1.58.71,2.11.47.73,1.08,1.27,1.83,1.63.75.36,1.74.57,2.98.64v.63h-17.47v-.63c1.06-.05,1.91-.21,2.56-.45.65-.25,1.22-.62,1.71-1.13.58-.58.98-1.32,1.18-2.21.2-.89.3-2.28.3-4.16v-20.15c0-1.88-.1-3.26-.3-4.16-.2-.89-.59-1.63-1.18-2.21-.49-.53-1.07-.91-1.72-1.15-.66-.24-1.5-.38-2.54-.44v-.63h17.47Z"/>
        <path class="cls-1" d="m218.48,96.17l.08-11.29.63.03c.77,2.87,1.68,5.14,2.73,6.79,1.99,3.06,4.48,4.58,7.49,4.58,2.1,0,3.83-.7,5.2-2.11,1.37-1.4,2.05-3.18,2.05-5.33,0-.93-.15-1.88-.45-2.84-.3-.97-.71-1.8-1.22-2.49-.53-.71-1.27-1.39-2.23-2.05s-2.42-1.49-4.39-2.49c-1.73-.88-3.06-1.61-3.98-2.21-.92-.6-1.66-1.21-2.23-1.83-1.57-1.71-2.35-3.8-2.35-6.26,0-1.51.31-2.97.92-4.38.61-1.4,1.46-2.61,2.56-3.61,1.93-1.79,4.22-2.68,6.86-2.68.86,0,1.65.09,2.38.26.73.17,1.7.52,2.93,1.03.91.36,1.53.6,1.86.7.33.1.62.15.88.15.64,0,1.07-.46,1.29-1.39h.63l.19,10.86h-.63c-.49-1.73-.91-3.06-1.27-3.98-.36-.92-.78-1.77-1.27-2.56-.89-1.42-1.87-2.47-2.95-3.16-1.07-.68-2.31-1.03-3.71-1.03-2.04,0-3.65.69-4.83,2.08-.49.57-.88,1.23-1.16,2-.28.77-.42,1.53-.42,2.3,0,3.05,1.96,5.5,5.87,7.36l3.85,1.86c2.97,1.41,5.11,2.96,6.42,4.65,1.49,1.9,2.24,4.11,2.24,6.62,0,1.67-.34,3.27-1.01,4.8-.95,2.13-2.37,3.77-4.27,4.92-1.9,1.15-4.13,1.73-6.7,1.73-2.35,0-4.61-.46-6.78-1.39-1.13-.49-1.8-.77-2.02-.85-.22-.07-.46-.11-.74-.11-.88,0-1.48.44-1.8,1.31h-.63Z"/>
        <path class="cls-1" d="m285.37,96.28h-17.96v-.63c1.62-.15,2.75-.42,3.39-.82,1.13-.71,1.7-1.7,1.7-2.95,0-.75-.26-1.75-.77-3.01l-.46-1.15-2.62-6.45h-12.03l-1.42,3.77-.68,1.7c-.82,2.01-1.23,3.58-1.23,4.73,0,.67.15,1.3.45,1.89.3.58.71,1.06,1.22,1.42.71.49,1.62.78,2.73.88v.63h-12.25v-.63c.97-.05,1.81-.29,2.54-.71.73-.42,1.44-1.09,2.13-2.02.58-.75,1.15-1.71,1.71-2.88.56-1.18,1.29-2.94,2.2-5.29l10.01-25.79h1.56l11.89,28.74c.89,2.17,1.6,3.72,2.13,4.65.53.93,1.1,1.63,1.72,2.11.44.33.94.58,1.5.75.56.17,1.41.32,2.54.45v.63Zm-17.17-16.13l-5.74-14.16-5.41,14.16h11.16Z"/>
        <path class="cls-1" d="m289.99,96.28v-.66c1.84,0,3.26-.52,4.27-1.56.56-.58.95-1.33,1.16-2.23.21-.9.31-2.28.31-4.14v-20.15c0-1.93-.11-3.36-.34-4.28-.23-.92-.65-1.67-1.27-2.26-.51-.47-1.08-.82-1.71-1.04s-1.44-.35-2.42-.38v-.63h17.47v.63c-1,.05-1.82.19-2.46.41-.64.22-1.2.57-1.7,1.04-.62.6-1.04,1.36-1.26,2.27-.22.91-.33,2.32-.33,4.24v15.78c0,2.42.06,4.23.19,5.41.13,1.19.37,2.15.74,2.9.64,1.31,1.59,2.27,2.84,2.88,1.26.61,2.93.92,5,.92s4-.29,5.48-.86c1.49-.57,2.7-1.46,3.65-2.67.64-.82,1.16-1.75,1.57-2.79s.79-2.41,1.13-4.1l.66.05-.36,11.21h-32.65Z"/>
        <path class="cls-1" d="m354.35,76.79v10.91c0,1.86.1,3.23.3,4.12.2.88.58,1.63,1.15,2.23.49.53,1.07.92,1.74,1.16.67.25,1.52.4,2.56.45v.63h-17.47v-.63c.88,0,1.7-.14,2.49-.42.78-.28,1.39-.66,1.83-1.13.51-.56.88-1.34,1.09-2.32s.33-2.34.33-4.07v-20.15c0-1.17-.06-2.38-.19-3.64-.18-1.6-.97-2.8-2.35-3.58-.77-.42-1.83-.67-3.2-.74v-.63h28.57l.79,8.89-.63.14c-.46-1.39-.88-2.42-1.26-3.12-.86-1.59-2.06-2.82-3.61-3.69-.89-.51-1.92-.87-3.09-1.07-1.17-.2-2.77-.3-4.81-.3h-4.24v16.13h1.09c3.23,0,5.57-.72,7.03-2.16.64-.62,1.12-1.35,1.45-2.2s.55-1.96.66-3.32l.63.03-.16,16.57h-.66c-.2-1.86-.54-3.29-1.03-4.31-.48-1.01-1.22-1.83-2.2-2.45-.73-.46-1.63-.79-2.69-1-1.07-.21-2.44-.31-4.12-.31Z"/>
        <path class="cls-1" d="m376.16,77.87c0-3.06.66-5.91,1.97-8.52,1.31-2.62,3.23-4.9,5.74-6.85,1.88-1.44,3.9-2.55,6.07-3.32,2.17-.78,4.36-1.16,6.56-1.16,2.81,0,5.52.62,8.15,1.85,2.62,1.23,4.92,2.97,6.89,5.21,3.21,3.65,4.81,7.8,4.81,12.45,0,2.34-.42,4.59-1.26,6.76-.84,2.17-2.06,4.15-3.66,5.94-1.97,2.23-4.3,3.95-6.99,5.17-2.69,1.22-5.5,1.83-8.44,1.83s-5.67-.59-8.31-1.78c-2.64-1.19-4.92-2.86-6.84-5.04-1.51-1.7-2.68-3.62-3.49-5.79-.81-2.16-1.22-4.41-1.22-6.75Zm6.62.41c0,5.29,1.44,9.75,4.32,13.38,1.29,1.62,2.67,2.81,4.12,3.54,1.45.74,3.12,1.11,5.02,1.11s3.6-.36,5.04-1.09c1.45-.73,2.83-1.92,4.14-3.56,2.88-3.65,4.32-8.15,4.32-13.49,0-2.94-.4-5.71-1.19-8.33-.79-2.62-1.91-4.84-3.35-6.66-1.17-1.5-2.47-2.58-3.9-3.27-1.43-.68-3.12-1.03-5.07-1.03s-3.6.34-5.02,1.01c-1.41.67-2.72,1.77-3.92,3.28-1.44,1.81-2.55,4.02-3.34,6.65-.78,2.63-1.18,5.45-1.18,8.46Z"/>
        <path class="cls-1" d="m432.36,78.02v9.68c0,1.86.1,3.24.31,4.14.21.9.6,1.65,1.16,2.23.49.51,1.06.89,1.71,1.13.65.25,1.5.4,2.56.45v.63h-17.47v-.63c1.06-.05,1.91-.21,2.56-.45.65-.25,1.22-.62,1.71-1.13.58-.58.98-1.32,1.18-2.21.2-.89.3-2.28.3-4.16v-20.15c0-1.88-.1-3.26-.3-4.16-.2-.89-.59-1.63-1.18-2.21-.49-.53-1.07-.91-1.72-1.15-.66-.24-1.5-.38-2.54-.44v-.63h13.18c2.21,0,3.66,0,4.35.03,2.83.13,5.04.51,6.64,1.15,1.8.73,3.2,1.82,4.2,3.27.99,1.45,1.49,3.13,1.49,5.04,0,2.84-1.08,5.12-3.23,6.84-.66.51-1.38.93-2.17,1.26s-1.85.64-3.19.93c1.09.46,1.91.93,2.43,1.42.42.38.8.86,1.15,1.44.35.57.87,1.59,1.56,3.05,1.62,3.34,2.85,5.77,3.68,7.31.83,1.54,1.53,2.66,2.09,3.35.46.57.9.96,1.33,1.18.43.22,1.02.36,1.76.44v.63h-9.08c-.46-1-.75-1.64-.88-1.91l-1.91-4.35c-1.15-2.61-2.31-4.91-3.47-6.92-1.17-1.99-2.23-3.34-3.2-4.07-.49-.36-1.02-.62-1.59-.78-.56-.15-1.26-.23-2.08-.23h-1.34Zm0-.6h1.04c2.26,0,3.88-.13,4.85-.38.98-.25,1.89-.78,2.75-1.59,1.91-1.82,2.87-4.08,2.87-6.78,0-1.44-.28-2.79-.83-4.06-.56-1.27-1.33-2.31-2.31-3.13-.77-.62-1.68-1.05-2.73-1.3-1.06-.25-2.56-.37-4.51-.37h-1.12v17.61Z"/>
        <path class="cls-1" d="m507.83,59.59c-1.04.05-1.87.2-2.5.42-.63.23-1.21.61-1.74,1.13-.4.38-.7.81-.9,1.27-.2.46-.34,1.05-.41,1.76-.13.95-.19,2.07-.19,3.36v20.15c0,1.88.11,3.27.33,4.18.22.91.61,1.64,1.18,2.19,1,.97,2.42,1.5,4.24,1.59v.63h-17.47v-.63c1.06-.05,1.91-.21,2.56-.45.65-.25,1.23-.62,1.74-1.13.56-.58.95-1.33,1.16-2.23.21-.9.31-2.28.31-4.14v-24.45l-14.08,33.03h-.57l-14-32.54v23.95c0,1.88.1,3.26.31,4.16.21.89.6,1.63,1.16,2.21.51.53,1.09.91,1.74,1.15.65.24,1.49.38,2.53.44v.63h-12.61v-.63c1.04-.05,1.88-.2,2.53-.44.65-.24,1.23-.62,1.74-1.15.56-.58.95-1.33,1.16-2.23.21-.9.31-2.28.31-4.14v-20.15c0-.84-.03-1.63-.08-2.38-.09-1.35-.3-2.33-.63-2.95-.46-.86-1.08-1.49-1.87-1.9s-1.85-.65-3.16-.72v-.63h11.87l11.84,29.23,12.28-29.23h11.24v.63Z"/>
      </g>
      <path class="cls-2" d="m13.62,19.88v9.82c0,1.86.1,3.24.31,4.14.21.9.6,1.65,1.16,2.23.49.51,1.06.89,1.71,1.13.65.25,1.5.4,2.56.45v.63H1.89v-.63c1.06-.05,1.91-.21,2.56-.45.65-.25,1.22-.62,1.71-1.13.58-.58.98-1.32,1.18-2.21.2-.89.3-2.28.3-4.16V9.54c0-1.57-.07-2.78-.21-3.62s-.37-1.54-.7-2.06c-.47-.73-1.08-1.27-1.8-1.63-.73-.36-1.68-.57-2.84-.64h-.19v-.63h16.49c2.88,0,5,.15,6.37.44,1.37.29,2.62.88,3.75,1.75,2.59,1.97,3.88,4.59,3.88,7.88s-1.31,5.78-3.94,7.33c-1.37.8-3.03,1.29-4.98,1.45-.62.05-2.11.08-4.48.08h-5.36Zm0-.88h2.68c1.8,0,3.19-.13,4.17-.4.98-.26,1.85-.75,2.61-1.46,1.79-1.62,2.68-3.78,2.68-6.48,0-1.49-.26-2.87-.78-4.12-.52-1.25-1.26-2.26-2.23-3.05-1.11-.93-2.43-1.48-3.96-1.64-.42-.04-1.38-.05-2.87-.05h-2.3v17.2ZM64.62.96l.46,9.02-.63.03c-.24-1.53-.63-2.8-1.18-3.8-.55-1-1.34-1.89-2.38-2.65-.86-.64-1.87-1.09-3.04-1.35-1.17-.26-2.72-.4-4.65-.4h-6.26v16.41h1.64c1.66,0,2.91-.11,3.75-.33.84-.22,1.52-.61,2.05-1.18.51-.53.89-1.15,1.13-1.87.25-.72.45-1.78.62-3.19l.63.03-.11,14.66h-.63c-.16-1.4-.41-2.53-.72-3.39-.32-.86-.76-1.59-1.33-2.19-.55-.58-1.26-1.01-2.13-1.29s-1.99-.41-3.34-.41h-1.56v6.26c0,2.5.06,4.32.19,5.46.13,1.14.37,2.09.74,2.86.62,1.31,1.56,2.27,2.83,2.88,1.27.61,2.94.92,5.02.92,2.19,0,4.02-.28,5.5-.83,1.48-.56,2.68-1.42,3.61-2.58.66-.78,1.19-1.68,1.6-2.68.41-1,.79-2.32,1.13-3.96l.63.03-.36,10.88h-32.62v-.63c1.04-.05,1.88-.2,2.53-.44.65-.24,1.23-.62,1.74-1.15.56-.58.95-1.33,1.16-2.23.21-.9.31-2.28.31-4.14V9.54c0-1.86-.1-3.24-.31-4.14-.21-.9-.6-1.65-1.16-2.23-.49-.53-1.06-.91-1.71-1.15-.65-.24-1.5-.38-2.56-.44v-.63h29.39Zm20.3,19.06v9.68c0,1.86.1,3.24.31,4.14.21.9.6,1.65,1.16,2.23.49.51,1.06.89,1.71,1.13.65.25,1.5.4,2.56.45v.63h-17.47v-.63c1.06-.05,1.91-.21,2.56-.45.65-.25,1.22-.62,1.71-1.13.58-.58.98-1.32,1.18-2.21.2-.89.3-2.28.3-4.16V9.54c0-1.88-.1-3.26-.3-4.16-.2-.89-.59-1.63-1.18-2.21-.49-.53-1.07-.91-1.72-1.15-.66-.24-1.5-.38-2.54-.44v-.63h13.18c2.21,0,3.65,0,4.35.03,2.83.13,5.04.51,6.64,1.15,1.8.73,3.2,1.82,4.2,3.27.99,1.45,1.49,3.13,1.49,5.04,0,2.84-1.08,5.12-3.23,6.84-.66.51-1.38.93-2.17,1.26s-1.85.64-3.19.93c1.09.46,1.9.93,2.43,1.42.42.38.8.86,1.15,1.44.35.57.87,1.59,1.56,3.05,1.62,3.34,2.85,5.77,3.68,7.31.83,1.54,1.53,2.66,2.09,3.35.46.57.9.96,1.33,1.18.43.22,1.02.36,1.76.44v.63h-9.08c-.46-1-.75-1.64-.88-1.91l-1.91-4.35c-1.15-2.61-2.31-4.91-3.47-6.92-1.17-1.99-2.23-3.34-3.2-4.07-.49-.36-1.02-.62-1.59-.78-.57-.15-1.26-.23-2.08-.23h-1.34Zm0-.6h1.04c2.26,0,3.88-.13,4.85-.38.98-.25,1.89-.78,2.75-1.59,1.91-1.82,2.87-4.08,2.87-6.78,0-1.44-.28-2.79-.83-4.06-.56-1.27-1.33-2.31-2.31-3.13-.77-.62-1.68-1.05-2.73-1.3-1.06-.25-2.56-.37-4.51-.37h-1.12v17.61Zm28.87,18.76l.08-11.29.63.03c.77,2.87,1.68,5.14,2.73,6.79,1.99,3.06,4.48,4.58,7.49,4.58,2.1,0,3.83-.7,5.2-2.11,1.37-1.4,2.05-3.18,2.05-5.33,0-.93-.15-1.88-.45-2.84-.3-.97-.71-1.8-1.22-2.49-.53-.71-1.27-1.39-2.23-2.05s-2.42-1.49-4.39-2.49c-1.73-.88-3.06-1.61-3.98-2.21-.92-.6-1.66-1.21-2.23-1.83-1.57-1.71-2.35-3.8-2.35-6.26,0-1.51.31-2.97.92-4.38.61-1.4,1.46-2.61,2.56-3.61,1.93-1.79,4.22-2.68,6.86-2.68.86,0,1.65.09,2.38.26.73.17,1.7.52,2.93,1.03.91.36,1.53.6,1.86.7.33.1.62.15.88.15.64,0,1.07-.46,1.29-1.39h.63l.19,10.86h-.63c-.49-1.73-.91-3.06-1.27-3.98-.36-.92-.78-1.77-1.27-2.56-.89-1.42-1.87-2.47-2.95-3.16-1.07-.68-2.31-1.03-3.71-1.03-2.04,0-3.65.69-4.83,2.08-.49.57-.88,1.23-1.16,2-.28.77-.42,1.53-.42,2.3,0,3.05,1.96,5.5,5.87,7.36l3.85,1.86c2.97,1.41,5.11,2.96,6.42,4.65,1.49,1.9,2.24,4.11,2.24,6.62,0,1.67-.34,3.27-1.01,4.8-.95,2.13-2.37,3.77-4.27,4.92-1.9,1.15-4.13,1.73-6.7,1.73-2.35,0-4.61-.46-6.78-1.39-1.13-.49-1.8-.77-2.02-.85-.22-.07-.46-.11-.74-.11-.88,0-1.48.44-1.8,1.31h-.63Zm30.32-18.31c0-3.06.66-5.91,1.97-8.52,1.31-2.62,3.23-4.9,5.74-6.85,1.88-1.44,3.9-2.55,6.07-3.32,2.17-.78,4.36-1.16,6.56-1.16,2.81,0,5.52.62,8.15,1.85,2.62,1.23,4.92,2.97,6.89,5.21,3.21,3.65,4.81,7.8,4.81,12.45,0,2.34-.42,4.59-1.26,6.76-.84,2.17-2.06,4.15-3.66,5.94-1.97,2.23-4.3,3.95-6.99,5.17-2.69,1.22-5.5,1.83-8.44,1.83s-5.67-.59-8.31-1.78c-2.64-1.19-4.92-2.86-6.84-5.04-1.51-1.7-2.68-3.62-3.49-5.79-.81-2.16-1.22-4.41-1.22-6.75Zm6.62.41c0,5.29,1.44,9.75,4.32,13.38,1.29,1.62,2.67,2.81,4.12,3.54,1.45.74,3.12,1.11,5.02,1.11s3.6-.36,5.04-1.09c1.45-.73,2.83-1.92,4.14-3.56,2.88-3.65,4.32-8.15,4.32-13.49,0-2.94-.4-5.71-1.19-8.33-.79-2.62-1.91-4.84-3.35-6.66-1.17-1.5-2.47-2.58-3.9-3.27-1.43-.68-3.12-1.03-5.07-1.03s-3.6.34-5.02,1.01c-1.41.67-2.72,1.77-3.92,3.28-1.44,1.81-2.55,4.02-3.34,6.65-.78,2.63-1.18,5.45-1.18,8.46Zm44.71-14.37v23.79c0,1.88.1,3.26.31,4.16.21.89.6,1.63,1.16,2.21.51.53,1.09.91,1.74,1.15.65.24,1.49.38,2.53.44v.63h-12.61v-.63c1.04-.05,1.88-.2,2.53-.44.65-.24,1.23-.62,1.74-1.15.56-.58.95-1.33,1.16-2.23.21-.9.31-2.28.31-4.14V9.52c0-1.84-.1-3.21-.31-4.12-.21-.9-.6-1.65-1.16-2.23-.49-.53-1.06-.91-1.71-1.15-.65-.24-1.5-.38-2.56-.44v-.63h10.53l22.2,28.33V9.54c0-1.88-.1-3.26-.31-4.16-.21-.89-.6-1.63-1.16-2.21-.51-.53-1.09-.91-1.74-1.15-.65-.24-1.49-.38-2.53-.44v-.63h12.61v.63c-1.82,0-3.24.53-4.27,1.59-.57.58-.95,1.33-1.16,2.23-.21.9-.31,2.27-.31,4.12v28.77h-1.23l-25.76-32.38Zm74.23,32.38h-17.96v-.63c1.62-.15,2.75-.42,3.39-.82,1.13-.71,1.7-1.7,1.7-2.95,0-.75-.26-1.75-.77-3.01l-.46-1.15-2.62-6.45h-12.03l-1.42,3.77-.68,1.7c-.82,2.01-1.23,3.58-1.23,4.73,0,.67.15,1.3.45,1.89.3.58.71,1.06,1.22,1.42.71.49,1.62.78,2.73.88v.63h-12.25v-.63c.97-.05,1.81-.29,2.54-.71.73-.42,1.44-1.09,2.13-2.02.58-.75,1.15-1.71,1.71-2.88.56-1.18,1.29-2.94,2.2-5.29L248.32.96h1.56l11.89,28.74c.89,2.17,1.6,3.72,2.13,4.65.53.93,1.1,1.63,1.72,2.11.44.33.94.58,1.5.75.56.17,1.41.32,2.54.45v.63Zm-17.17-16.13l-5.74-14.16-5.41,14.16h11.16Zm21.78,16.13v-.66c1.84,0,3.26-.52,4.27-1.56.56-.58.95-1.33,1.16-2.23.21-.9.31-2.28.31-4.14V9.54c0-1.93-.11-3.36-.34-4.28-.23-.92-.65-1.67-1.27-2.26-.51-.47-1.08-.82-1.71-1.04s-1.44-.35-2.42-.38v-.63h17.47v.63c-1,.05-1.82.19-2.46.41-.64.22-1.2.57-1.7,1.04-.62.6-1.04,1.36-1.26,2.27-.22.91-.33,2.32-.33,4.24v15.78c0,2.42.06,4.23.19,5.41.13,1.19.37,2.15.74,2.9.64,1.31,1.59,2.27,2.84,2.88,1.26.61,2.93.92,5,.92s4-.29,5.48-.86c1.49-.57,2.7-1.46,3.65-2.67.64-.82,1.16-1.75,1.57-2.79s.79-2.41,1.13-4.1l.66.05-.36,11.21h-32.65ZM39.95,96.28h-17.96v-.63c1.62-.15,2.75-.42,3.39-.82,1.13-.71,1.7-1.7,1.7-2.95,0-.75-.26-1.75-.77-3.01l-.46-1.15-2.62-6.45h-12.03l-1.42,3.77-.68,1.7c-.82,2.01-1.23,3.58-1.23,4.73,0,.67.15,1.3.45,1.89.3.58.71,1.06,1.22,1.42.71.49,1.62.78,2.73.88v.63H0v-.63c.97-.05,1.81-.29,2.54-.71.73-.42,1.44-1.09,2.13-2.02.58-.75,1.15-1.71,1.71-2.88.56-1.18,1.29-2.94,2.2-5.29l10.01-25.79h1.56l11.89,28.74c.89,2.17,1.6,3.72,2.13,4.65.53.93,1.1,1.63,1.72,2.11.44.33.94.58,1.5.75.56.17,1.41.32,2.54.45v.63Zm-17.17-16.13l-5.74-14.16-5.41,14.16h11.16Zm33.52-2.27v9.82c0,1.86.1,3.24.31,4.14.21.9.6,1.65,1.16,2.23.49.51,1.06.89,1.71,1.13.65.25,1.5.4,2.56.45v.63h-17.47v-.63c1.06-.05,1.91-.21,2.56-.45.65-.25,1.22-.62,1.71-1.13.58-.58.98-1.32,1.18-2.21.2-.89.3-2.28.3-4.16v-20.15c0-1.57-.07-2.78-.21-3.62s-.37-1.54-.7-2.06c-.47-.73-1.08-1.27-1.8-1.63-.73-.36-1.68-.57-2.84-.64h-.19v-.63h16.49c2.88,0,5,.15,6.37.44,1.37.29,2.62.88,3.75,1.75,2.59,1.97,3.88,4.59,3.88,7.88s-1.31,5.78-3.94,7.33c-1.37.8-3.03,1.29-4.98,1.45-.62.05-2.11.08-4.48.08h-5.36Zm0-.88h2.68c1.8,0,3.19-.13,4.17-.4.98-.26,1.85-.75,2.61-1.46,1.79-1.62,2.68-3.78,2.68-6.48,0-1.49-.26-2.87-.78-4.12-.52-1.25-1.26-2.26-2.23-3.05-1.11-.93-2.43-1.48-3.96-1.64-.42-.04-1.38-.05-2.87-.05h-2.3v17.2Zm33.34.88v9.82c0,1.86.1,3.24.31,4.14.21.9.6,1.65,1.16,2.23.49.51,1.06.89,1.71,1.13.65.25,1.5.4,2.56.45v.63h-17.47v-.63c1.06-.05,1.91-.21,2.56-.45.65-.25,1.22-.62,1.71-1.13.58-.58.98-1.32,1.18-2.21.2-.89.3-2.28.3-4.16v-20.15c0-1.57-.07-2.78-.21-3.62s-.37-1.54-.7-2.06c-.47-.73-1.08-1.27-1.8-1.63-.73-.36-1.68-.57-2.84-.64h-.19v-.63h16.49c2.88,0,5,.15,6.37.44,1.37.29,2.62.88,3.75,1.75,2.59,1.97,3.88,4.59,3.88,7.88s-1.31,5.78-3.94,7.33c-1.37.8-3.03,1.29-4.98,1.45-.62.05-2.11.08-4.48.08h-5.36Zm0-.88h2.68c1.8,0,3.19-.13,4.17-.4.98-.26,1.85-.75,2.61-1.46,1.79-1.62,2.68-3.78,2.68-6.48,0-1.49-.26-2.87-.78-4.12-.52-1.25-1.26-2.26-2.23-3.05-1.11-.93-2.43-1.48-3.96-1.64-.42-.04-1.38-.05-2.87-.05h-2.3v17.2Zm33.34,1.01v9.68c0,1.86.1,3.24.31,4.14.21.9.6,1.65,1.16,2.23.49.51,1.06.89,1.71,1.13.65.25,1.5.4,2.56.45v.63h-17.47v-.63c1.06-.05,1.91-.21,2.56-.45.65-.25,1.22-.62,1.71-1.13.58-.58.98-1.32,1.18-2.21.2-.89.3-2.28.3-4.16v-20.15c0-1.88-.1-3.26-.3-4.16-.2-.89-.59-1.63-1.18-2.21-.49-.53-1.07-.91-1.72-1.15-.66-.24-1.5-.38-2.54-.44v-.63h13.18c2.21,0,3.65,0,4.35.03,2.83.13,5.04.51,6.64,1.15,1.8.73,3.2,1.82,4.2,3.27.99,1.45,1.49,3.13,1.49,5.04,0,2.84-1.08,5.12-3.23,6.84-.66.51-1.38.93-2.17,1.26s-1.85.64-3.19.93c1.09.46,1.9.93,2.43,1.42.42.38.8.86,1.15,1.44.35.57.87,1.59,1.56,3.05,1.62,3.34,2.85,5.77,3.68,7.31.83,1.54,1.53,2.66,2.09,3.35.46.57.9.96,1.33,1.18.43.22,1.02.36,1.76.44v.63h-9.08c-.46-1-.75-1.64-.88-1.91l-1.91-4.35c-1.15-2.61-2.31-4.91-3.47-6.92-1.17-1.99-2.23-3.34-3.2-4.07-.49-.36-1.02-.62-1.59-.78-.57-.15-1.26-.23-2.08-.23h-1.34Zm0-.6h1.04c2.26,0,3.88-.13,4.85-.38.98-.25,1.89-.78,2.75-1.59,1.91-1.82,2.87-4.08,2.87-6.78,0-1.44-.28-2.79-.83-4.06-.56-1.27-1.33-2.31-2.31-3.13-.77-.62-1.68-1.05-2.73-1.3-1.06-.25-2.56-.37-4.51-.37h-1.12v17.61Zm67.3,18.87h-17.96v-.63c1.62-.15,2.75-.42,3.39-.82,1.13-.71,1.7-1.7,1.7-2.95,0-.75-.26-1.75-.77-3.01l-.46-1.15-2.62-6.45h-12.03l-1.42,3.77-.68,1.7c-.82,2.01-1.23,3.58-1.23,4.73,0,.67.15,1.3.45,1.89.3.58.71,1.06,1.22,1.42.71.49,1.62.78,2.73.88v.63h-12.25v-.63c.97-.05,1.81-.29,2.54-.71.73-.42,1.44-1.09,2.13-2.02.58-.75,1.15-1.71,1.71-2.88.56-1.18,1.29-2.94,2.2-5.29l10.01-25.79h1.56l11.89,28.74c.89,2.17,1.6,3.72,2.13,4.65.53.93,1.1,1.63,1.72,2.11.44.33.94.58,1.5.75.56.17,1.41.32,2.54.45v.63Zm-17.17-16.13l-5.74-14.16-5.41,14.16h11.16Zm39.26-21.19v.63c-1.04.05-1.88.2-2.53.44-.65.24-1.23.62-1.74,1.15-.71.73-1.15,1.74-1.31,3.04-.11.97-.16,2.08-.16,3.34v20.15c0,1.51.07,2.71.22,3.58.15.88.38,1.58.71,2.11.47.73,1.08,1.27,1.83,1.63.75.36,1.74.57,2.98.64v.63h-17.47v-.63c1.06-.05,1.91-.21,2.56-.45.65-.25,1.22-.62,1.71-1.13.58-.58.98-1.32,1.18-2.21.2-.89.3-2.28.3-4.16v-20.15c0-1.88-.1-3.26-.3-4.16-.2-.89-.59-1.63-1.18-2.21-.49-.53-1.07-.91-1.72-1.15-.66-.24-1.5-.38-2.54-.44v-.63h17.47Zm6.11,37.21l.08-11.29.63.03c.77,2.87,1.68,5.14,2.73,6.79,1.99,3.06,4.48,4.58,7.49,4.58,2.1,0,3.83-.7,5.2-2.11,1.37-1.4,2.05-3.18,2.05-5.33,0-.93-.15-1.88-.45-2.84-.3-.97-.71-1.8-1.22-2.49-.53-.71-1.27-1.39-2.23-2.05s-2.42-1.49-4.39-2.49c-1.73-.88-3.06-1.61-3.98-2.21-.92-.6-1.66-1.21-2.23-1.83-1.57-1.71-2.35-3.8-2.35-6.26,0-1.51.31-2.97.92-4.38.61-1.4,1.46-2.61,2.56-3.61,1.93-1.79,4.22-2.68,6.86-2.68.86,0,1.65.09,2.38.26.73.17,1.7.52,2.93,1.03.91.36,1.53.6,1.86.7.33.1.62.15.88.15.64,0,1.07-.46,1.29-1.39h.63l.19,10.86h-.63c-.49-1.73-.91-3.06-1.27-3.98-.36-.92-.78-1.77-1.27-2.56-.89-1.42-1.87-2.47-2.95-3.16-1.07-.68-2.31-1.03-3.71-1.03-2.04,0-3.65.69-4.83,2.08-.49.57-.88,1.23-1.16,2-.28.77-.42,1.53-.42,2.3,0,3.05,1.96,5.5,5.87,7.36l3.85,1.86c2.97,1.41,5.11,2.96,6.42,4.65,1.49,1.9,2.24,4.11,2.24,6.62,0,1.67-.34,3.27-1.01,4.8-.95,2.13-2.37,3.77-4.27,4.92-1.9,1.15-4.13,1.73-6.7,1.73-2.35,0-4.61-.46-6.78-1.39-1.13-.49-1.8-.77-2.02-.85-.22-.07-.46-.11-.74-.11-.88,0-1.48.44-1.8,1.31h-.63Zm66.89.11h-17.96v-.63c1.62-.15,2.75-.42,3.39-.82,1.13-.71,1.7-1.7,1.7-2.95,0-.75-.26-1.75-.77-3.01l-.46-1.15-2.62-6.45h-12.03l-1.42,3.77-.68,1.7c-.82,2.01-1.23,3.58-1.23,4.73,0,.67.15,1.3.45,1.89.3.58.71,1.06,1.22,1.42.71.49,1.62.78,2.73.88v.63h-12.25v-.63c.97-.05,1.81-.29,2.54-.71.73-.42,1.44-1.09,2.13-2.02.58-.75,1.15-1.71,1.71-2.88.56-1.18,1.29-2.94,2.2-5.29l10.01-25.79h1.56l11.89,28.74c.89,2.17,1.6,3.72,2.13,4.65.53.93,1.1,1.63,1.72,2.11.44.33.94.58,1.5.75.56.17,1.41.32,2.54.45v.63Zm-17.17-16.13l-5.74-14.16-5.41,14.16h11.16Zm21.78,16.13v-.66c1.84,0,3.26-.52,4.27-1.56.56-.58.95-1.33,1.16-2.23.21-.9.31-2.28.31-4.14v-20.15c0-1.93-.11-3.36-.34-4.28-.23-.92-.65-1.67-1.27-2.26-.51-.47-1.08-.82-1.71-1.04s-1.44-.35-2.42-.38v-.63h17.47v.63c-1,.05-1.82.19-2.46.41-.64.22-1.2.57-1.7,1.04-.62.6-1.04,1.36-1.26,2.27-.22.91-.33,2.32-.33,4.24v15.78c0,2.42.06,4.23.19,5.41.13,1.19.37,2.15.74,2.9.64,1.31,1.59,2.27,2.84,2.88,1.26.61,2.93.92,5,.92s4-.29,5.48-.86c1.49-.57,2.7-1.46,3.65-2.67.64-.82,1.16-1.75,1.57-2.79s.79-2.41,1.13-4.1l.66.05-.36,11.21h-32.65Zm64.36-19.5v10.91c0,1.86.1,3.23.3,4.12.2.88.58,1.63,1.15,2.23.49.53,1.07.92,1.74,1.16.67.25,1.52.4,2.56.45v.63h-17.47v-.63c.88,0,1.7-.14,2.49-.42.78-.28,1.39-.66,1.83-1.13.51-.56.88-1.34,1.09-2.32s.33-2.34.33-4.07v-20.15c0-1.17-.06-2.38-.19-3.64-.18-1.6-.97-2.8-2.35-3.58-.77-.42-1.83-.67-3.2-.74v-.63h28.57l.79,8.89-.63.14c-.46-1.39-.88-2.42-1.26-3.12-.86-1.59-2.06-2.82-3.61-3.69-.89-.51-1.92-.87-3.09-1.07-1.17-.2-2.77-.3-4.81-.3h-4.24v16.13h1.09c3.23,0,5.57-.72,7.03-2.16.64-.62,1.12-1.35,1.45-2.2s.55-1.96.66-3.32l.63.03-.16,16.57h-.66c-.2-1.86-.54-3.29-1.03-4.31-.48-1.01-1.22-1.83-2.2-2.45-.73-.46-1.63-.79-2.69-1-1.07-.21-2.44-.31-4.12-.31Zm21.81,1.08c0-3.06.66-5.91,1.97-8.52,1.31-2.62,3.23-4.9,5.74-6.85,1.88-1.44,3.9-2.55,6.07-3.32,2.17-.78,4.36-1.16,6.56-1.16,2.81,0,5.52.62,8.15,1.85,2.62,1.23,4.92,2.97,6.89,5.21,3.21,3.65,4.81,7.8,4.81,12.45,0,2.34-.42,4.59-1.26,6.76-.84,2.17-2.06,4.15-3.66,5.94-1.97,2.23-4.3,3.95-6.99,5.17-2.69,1.22-5.5,1.83-8.44,1.83s-5.67-.59-8.31-1.78c-2.64-1.19-4.92-2.86-6.84-5.04-1.51-1.7-2.68-3.62-3.49-5.79-.81-2.16-1.22-4.41-1.22-6.75Zm6.62.41c0,5.29,1.44,9.75,4.32,13.38,1.29,1.62,2.67,2.81,4.12,3.54,1.45.74,3.12,1.11,5.02,1.11s3.6-.36,5.04-1.09c1.45-.73,2.83-1.92,4.14-3.56,2.88-3.65,4.32-8.15,4.32-13.49,0-2.94-.4-5.71-1.19-8.33-.79-2.62-1.91-4.84-3.35-6.66-1.17-1.5-2.47-2.58-3.9-3.27-1.43-.68-3.12-1.03-5.07-1.03s-3.6.34-5.02,1.01c-1.41.67-2.72,1.77-3.92,3.28-1.44,1.81-2.55,4.02-3.34,6.65-.78,2.63-1.18,5.45-1.18,8.46Zm49.58-.26v9.68c0,1.86.1,3.24.31,4.14.21.9.6,1.65,1.16,2.23.49.51,1.06.89,1.71,1.13.65.25,1.5.4,2.56.45v.63h-17.47v-.63c1.06-.05,1.91-.21,2.56-.45.65-.25,1.22-.62,1.71-1.13.58-.58.98-1.32,1.18-2.21.2-.89.3-2.28.3-4.16v-20.15c0-1.88-.1-3.26-.3-4.16-.2-.89-.59-1.63-1.18-2.21-.49-.53-1.07-.91-1.72-1.15-.66-.24-1.5-.38-2.54-.44v-.63h13.18c2.21,0,3.66,0,4.35.03,2.83.13,5.04.51,6.64,1.15,1.8.73,3.2,1.82,4.2,3.27.99,1.45,1.49,3.13,1.49,5.04,0,2.84-1.08,5.12-3.23,6.84-.66.51-1.38.93-2.17,1.26s-1.85.64-3.19.93c1.09.46,1.91.93,2.43,1.42.42.38.8.86,1.15,1.44.35.57.87,1.59,1.56,3.05,1.62,3.34,2.85,5.77,3.68,7.31.83,1.54,1.53,2.66,2.09,3.35.46.57.9.96,1.33,1.18.43.22,1.02.36,1.76.44v.63h-9.08c-.46-1-.75-1.64-.88-1.91l-1.91-4.35c-1.15-2.61-2.31-4.91-3.47-6.92-1.17-1.99-2.23-3.34-3.2-4.07-.49-.36-1.02-.62-1.59-.78-.56-.15-1.26-.23-2.08-.23h-1.34Zm0-.6h1.04c2.26,0,3.88-.13,4.85-.38.98-.25,1.89-.78,2.75-1.59,1.91-1.82,2.87-4.08,2.87-6.78,0-1.44-.28-2.79-.83-4.06-.56-1.27-1.33-2.31-2.31-3.13-.77-.62-1.68-1.05-2.73-1.3-1.06-.25-2.56-.37-4.51-.37h-1.12v17.61Zm75.47-17.83c-1.04.05-1.87.2-2.5.42-.63.23-1.21.61-1.74,1.13-.4.38-.7.81-.9,1.27-.2.46-.34,1.05-.41,1.76-.13.95-.19,2.07-.19,3.36v20.15c0,1.88.11,3.27.33,4.18.22.91.61,1.64,1.18,2.19,1,.97,2.42,1.5,4.24,1.59v.63h-17.47v-.63c1.06-.05,1.91-.21,2.56-.45.65-.25,1.23-.62,1.74-1.13.56-.58.95-1.33,1.16-2.23.21-.9.31-2.28.31-4.14v-24.45l-14.08,33.03h-.57l-14-32.54v23.95c0,1.88.1,3.26.31,4.16.21.89.6,1.63,1.16,2.21.51.53,1.09.91,1.74,1.15.65.24,1.49.38,2.53.44v.63h-12.61v-.63c1.04-.05,1.88-.2,2.53-.44.65-.24,1.23-.62,1.74-1.15.56-.58.95-1.33,1.16-2.23.21-.9.31-2.28.31-4.14v-20.15c0-.84-.03-1.63-.08-2.38-.09-1.35-.3-2.33-.63-2.95-.46-.86-1.08-1.49-1.87-1.9s-1.85-.65-3.16-.72v-.63h11.87l11.84,29.23,12.28-29.23h11.24v.63Z"/>
    </g>
  </g>
</svg>