<?xml version="1.0" encoding="UTF-8"?>
<svg id="_レイヤー_2" data-name="レイヤー 2" xmlns="http://www.w3.org/2000/svg" xmlns:xlink="http://www.w3.org/1999/xlink" viewBox="0 0 281.76 39.21">
  <defs>
    <style>
      .cls-1 {
        fill: url(#_新規グラデーションスウォッチ_1);
      }

      .cls-1, .cls-2, .cls-3, .cls-4, .cls-5, .cls-6, .cls-7, .cls-8 {
        stroke-width: 0px;
      }

      .cls-2 {
        fill: url(#_新規グラデーションスウォッチ_1-2);
      }

      .cls-9 {
        opacity: .5;
      }

      .cls-3 {
        fill: url(#_新規グラデーションスウォッチ_1-3);
      }

      .cls-4 {
        fill: url(#_新規グラデーションスウォッチ_1-4);
      }

      .cls-5 {
        fill: url(#_新規グラデーションスウォッチ_1-6);
      }

      .cls-6 {
        fill: #39385d;
      }

      .cls-7 {
        fill: url(#_新規グラデーションスウォッチ_1-5);
      }

      .cls-8 {
        fill: url(#_新規グラデーションスウォッチ_1-7);
      }
    </style>
    <linearGradient id="_新規グラデーションスウォッチ_1" data-name="新規グラデーションスウォッチ 1" x1="-30.37" y1="96.88" x2="107.63" y2="-123.12" gradientUnits="userSpaceOnUse">
      <stop offset="0" stop-color="#c9ddf1"/>
      <stop offset=".06" stop-color="#c1daef" stop-opacity=".97"/>
      <stop offset=".15" stop-color="#add2ec" stop-opacity=".89"/>
      <stop offset=".26" stop-color="#8cc5e6" stop-opacity=".75"/>
      <stop offset=".38" stop-color="#5fb2df" stop-opacity=".57"/>
      <stop offset=".52" stop-color="#259cd5" stop-opacity=".33"/>
      <stop offset=".54" stop-color="#1e99d4" stop-opacity=".3"/>
      <stop offset=".76" stop-color="#0075bb"/>
      <stop offset=".96" stop-color="#005b94"/>
    </linearGradient>
    <linearGradient id="_新規グラデーションスウォッチ_1-2" data-name="新規グラデーションスウォッチ 1" x1="-.76" y1="115.45" x2="137.24" y2="-104.55" xlink:href="#_新規グラデーションスウォッチ_1"/>
    <linearGradient id="_新規グラデーションスウォッチ_1-3" data-name="新規グラデーションスウォッチ 1" x1="28.88" y1="134.04" x2="166.88" y2="-85.96" xlink:href="#_新規グラデーションスウォッチ_1"/>
    <linearGradient id="_新規グラデーションスウォッチ_1-4" data-name="新規グラデーションスウォッチ 1" x1="58.63" y1="152.7" x2="196.63" y2="-67.3" xlink:href="#_新規グラデーションスウォッチ_1"/>
    <linearGradient id="_新規グラデーションスウォッチ_1-5" data-name="新規グラデーションスウォッチ 1" x1="95.75" y1="175.99" x2="233.75" y2="-44.01" xlink:href="#_新規グラデーションスウォッチ_1"/>
    <linearGradient id="_新規グラデーションスウォッチ_1-6" data-name="新規グラデーションスウォッチ 1" x1="117.29" y1="189.5" x2="255.29" y2="-30.5" xlink:href="#_新規グラデーションスウォッチ_1"/>
    <linearGradient id="_新規グラデーションスウォッチ_1-7" data-name="新規グラデーションスウォッチ 1" x1="141.67" y1="204.79" x2="279.67" y2="-15.21" xlink:href="#_新規グラデーションスウォッチ_1"/>
  </defs>
  <g id="design">
    <g>
      <g>
        <path class="cls-6" d="m32.35.77l.33,12.22h-.63c-.2-.53-.36-.93-.46-1.2-.64-1.75-1.16-3.05-1.56-3.91-.71-1.53-1.74-2.93-3.09-4.21-1.02-.97-2.08-1.67-3.17-2.11s-2.32-.66-3.69-.66c-2.06,0-3.85.45-5.36,1.34-1.33.78-2.57,1.91-3.72,3.38-1.15,1.47-2.09,3.14-2.82,5.02-1.04,2.64-1.56,5.65-1.56,9.02,0,2.86.36,5.44,1.07,7.74s1.75,4.22,3.12,5.77c2.52,2.88,5.85,4.32,10.01,4.32,2.08,0,3.95-.36,5.61-1.08,1.66-.72,2.94-1.74,3.86-3.05,1.06-1.51,1.82-3.55,2.3-6.12l.63.11c-.35,2.88-1.13,5.17-2.35,6.86-1.17,1.62-2.78,2.86-4.83,3.72s-4.42,1.29-7.12,1.29c-2.52,0-4.92-.37-7.22-1.12-3.66-1.2-6.53-3.38-8.59-6.52S0,24.67,0,20.32c0-3.34.6-6.41,1.8-9.23s2.88-5.08,5.03-6.79c1.66-1.31,3.64-2.36,5.95-3.13,2.31-.77,4.62-1.16,6.93-1.16s4.54.42,7,1.26l2.24.74c.44.16.82.25,1.15.25.46,0,.83-.19,1.12-.57.13-.18.28-.48.46-.9h.66Z"/>
        <path class="cls-6" d="m39.26,19.87c0-3.06.66-5.91,1.97-8.52,1.31-2.62,3.23-4.9,5.74-6.85,1.88-1.44,3.9-2.55,6.07-3.32,2.17-.78,4.36-1.16,6.56-1.16,2.81,0,5.52.62,8.15,1.85,2.62,1.23,4.92,2.97,6.89,5.21,3.21,3.65,4.81,7.8,4.81,12.45,0,2.34-.42,4.59-1.26,6.76-.84,2.17-2.06,4.15-3.66,5.94-1.97,2.23-4.3,3.95-6.99,5.17-2.69,1.22-5.5,1.83-8.44,1.83s-5.67-.59-8.31-1.78c-2.64-1.19-4.92-2.86-6.84-5.04-1.51-1.7-2.68-3.62-3.49-5.79-.81-2.16-1.22-4.41-1.22-6.75Zm6.62.41c0,5.29,1.44,9.75,4.32,13.38,1.29,1.62,2.67,2.81,4.12,3.54,1.45.74,3.12,1.11,5.02,1.11s3.6-.36,5.04-1.09c1.45-.73,2.83-1.92,4.14-3.56,2.88-3.65,4.32-8.15,4.32-13.49,0-2.94-.4-5.71-1.19-8.33-.79-2.62-1.91-4.84-3.35-6.66-1.17-1.5-2.47-2.58-3.9-3.27-1.43-.68-3.12-1.03-5.07-1.03s-3.61.34-5.02,1.01c-1.41.67-2.72,1.77-3.92,3.28-1.44,1.81-2.55,4.02-3.34,6.65-.78,2.63-1.18,5.45-1.18,8.46Z"/>
        <path class="cls-6" d="m90.59,5.91v23.79c0,1.88.1,3.26.31,4.16.21.89.6,1.63,1.16,2.21.51.53,1.09.91,1.74,1.15.65.24,1.49.38,2.53.44v.63h-12.61v-.63c1.04-.05,1.88-.2,2.53-.44.65-.24,1.23-.62,1.74-1.15.57-.58.95-1.33,1.16-2.23s.31-2.28.31-4.14V9.52c0-1.84-.1-3.21-.31-4.12s-.6-1.65-1.16-2.23c-.49-.53-1.06-.91-1.71-1.15-.65-.24-1.5-.38-2.56-.44v-.63h10.53l22.2,28.33V9.54c0-1.88-.1-3.26-.31-4.16-.21-.89-.6-1.63-1.16-2.21-.51-.53-1.09-.91-1.74-1.15-.65-.24-1.49-.38-2.53-.44v-.63h12.61v.63c-1.82,0-3.25.53-4.27,1.59-.57.58-.95,1.33-1.16,2.23s-.31,2.27-.31,4.12v28.77h-1.23L90.59,5.91Z"/>
        <path class="cls-6" d="m143.95,1.8c-1.15,0-2.38.04-3.69.11-2.81.15-4.9.5-6.28,1.07-1.38.57-2.51,1.54-3.4,2.93-.82,1.28-1.45,3.01-1.89,5.2l-.63-.05.49-10.09h37l.49,10.09-.63.05c-.49-2.53-1.26-4.45-2.31-5.76-1.05-1.3-2.58-2.24-4.58-2.8-1.7-.49-4.57-.74-8.61-.74v27.89c0,1.86.1,3.24.31,4.14s.6,1.65,1.16,2.23c.51.53,1.09.91,1.74,1.15.65.24,1.49.38,2.53.44v.63h-17.47v-.63c1.06-.05,1.91-.2,2.56-.44.65-.24,1.23-.62,1.74-1.15.57-.58.95-1.32,1.16-2.21.21-.89.31-2.28.31-4.16V1.8Z"/>
        <path class="cls-6" d="m204.52,38.28h-17.96v-.63c1.62-.15,2.75-.42,3.39-.82,1.13-.71,1.7-1.7,1.7-2.95,0-.75-.25-1.75-.77-3.01l-.46-1.15-2.62-6.45h-12.03l-1.42,3.77-.68,1.7c-.82,2.01-1.23,3.58-1.23,4.73,0,.67.15,1.3.45,1.89.3.58.71,1.06,1.22,1.42.71.49,1.62.78,2.73.88v.63h-12.25v-.63c.97-.05,1.81-.29,2.54-.71.73-.42,1.44-1.09,2.13-2.02.58-.75,1.15-1.71,1.71-2.88s1.29-2.94,2.2-5.29L183.16.96h1.56l11.89,28.74c.89,2.17,1.6,3.72,2.13,4.65s1.1,1.63,1.72,2.11c.44.33.94.58,1.5.75.57.17,1.41.32,2.54.45v.63Zm-17.17-16.13l-5.74-14.16-5.41,14.16h11.16Z"/>
        <path class="cls-6" d="m238.11.77l.33,12.22h-.63c-.2-.53-.36-.93-.46-1.2-.64-1.75-1.16-3.05-1.56-3.91-.71-1.53-1.74-2.93-3.09-4.21-1.02-.97-2.08-1.67-3.17-2.11s-2.32-.66-3.69-.66c-2.06,0-3.85.45-5.36,1.34-1.33.78-2.57,1.91-3.72,3.38-1.15,1.47-2.09,3.14-2.82,5.02-1.04,2.64-1.56,5.65-1.56,9.02,0,2.86.36,5.44,1.07,7.74s1.75,4.22,3.12,5.77c2.52,2.88,5.85,4.32,10.01,4.32,2.08,0,3.95-.36,5.61-1.08,1.66-.72,2.94-1.74,3.86-3.05,1.06-1.51,1.82-3.55,2.3-6.12l.63.11c-.35,2.88-1.13,5.17-2.35,6.86-1.17,1.62-2.78,2.86-4.83,3.72s-4.42,1.29-7.12,1.29c-2.52,0-4.92-.37-7.22-1.12-3.66-1.2-6.53-3.38-8.59-6.52s-3.09-6.9-3.09-11.25c0-3.34.6-6.41,1.8-9.23s2.88-5.08,5.03-6.79c1.66-1.31,3.64-2.36,5.95-3.13,2.31-.77,4.62-1.16,6.93-1.16s4.54.42,7,1.26l2.24.74c.44.16.82.25,1.15.25.46,0,.83-.19,1.12-.57.13-.18.28-.48.46-.9h.66Z"/>
        <path class="cls-6" d="m259.67,1.8c-1.15,0-2.38.04-3.69.11-2.81.15-4.9.5-6.28,1.07-1.38.57-2.51,1.54-3.4,2.93-.82,1.28-1.45,3.01-1.89,5.2l-.63-.05.49-10.09h37l.49,10.09-.63.05c-.49-2.53-1.26-4.45-2.31-5.76-1.05-1.3-2.58-2.24-4.58-2.8-1.7-.49-4.57-.74-8.61-.74v27.89c0,1.86.1,3.24.31,4.14.21.9.6,1.65,1.16,2.23.51.53,1.09.91,1.74,1.15.65.24,1.49.38,2.53.44v.63h-17.47v-.63c1.06-.05,1.91-.2,2.56-.44.65-.24,1.23-.62,1.74-1.15.56-.58.95-1.32,1.16-2.21.21-.89.31-2.28.31-4.16V1.8Z"/>
      </g>
      <g class="cls-9">
        <path class="cls-1" d="m32.35.77l.33,12.22h-.63c-.2-.53-.36-.93-.46-1.2-.64-1.75-1.16-3.05-1.56-3.91-.71-1.53-1.74-2.93-3.09-4.21-1.02-.97-2.08-1.67-3.17-2.11s-2.32-.66-3.69-.66c-2.06,0-3.85.45-5.36,1.34-1.33.78-2.57,1.91-3.72,3.38-1.15,1.47-2.09,3.14-2.82,5.02-1.04,2.64-1.56,5.65-1.56,9.02,0,2.86.36,5.44,1.07,7.74s1.75,4.22,3.12,5.77c2.52,2.88,5.85,4.32,10.01,4.32,2.08,0,3.95-.36,5.61-1.08,1.66-.72,2.94-1.74,3.86-3.05,1.06-1.51,1.82-3.55,2.3-6.12l.63.11c-.35,2.88-1.13,5.17-2.35,6.86-1.17,1.62-2.78,2.86-4.83,3.72s-4.42,1.29-7.12,1.29c-2.52,0-4.92-.37-7.22-1.12-3.66-1.2-6.53-3.38-8.59-6.52S0,24.67,0,20.32c0-3.34.6-6.41,1.8-9.23s2.88-5.08,5.03-6.79c1.66-1.31,3.64-2.36,5.95-3.13,2.31-.77,4.62-1.16,6.93-1.16s4.54.42,7,1.26l2.24.74c.44.16.82.25,1.15.25.46,0,.83-.19,1.12-.57.13-.18.28-.48.46-.9h.66Z"/>
        <path class="cls-2" d="m39.26,19.87c0-3.06.66-5.91,1.97-8.52,1.31-2.62,3.23-4.9,5.74-6.85,1.88-1.44,3.9-2.55,6.07-3.32,2.17-.78,4.36-1.16,6.56-1.16,2.81,0,5.52.62,8.15,1.85,2.62,1.23,4.92,2.97,6.89,5.21,3.21,3.65,4.81,7.8,4.81,12.45,0,2.34-.42,4.59-1.26,6.76-.84,2.17-2.06,4.15-3.66,5.94-1.97,2.23-4.3,3.95-6.99,5.17-2.69,1.22-5.5,1.83-8.44,1.83s-5.67-.59-8.31-1.78c-2.64-1.19-4.92-2.86-6.84-5.04-1.51-1.7-2.68-3.62-3.49-5.79-.81-2.16-1.22-4.41-1.22-6.75Zm6.62.41c0,5.29,1.44,9.75,4.32,13.38,1.29,1.62,2.67,2.81,4.12,3.54,1.45.74,3.12,1.11,5.02,1.11s3.6-.36,5.04-1.09c1.45-.73,2.83-1.92,4.14-3.56,2.88-3.65,4.32-8.15,4.32-13.49,0-2.94-.4-5.71-1.19-8.33-.79-2.62-1.91-4.84-3.35-6.66-1.17-1.5-2.47-2.58-3.9-3.27-1.43-.68-3.12-1.03-5.07-1.03s-3.61.34-5.02,1.01c-1.41.67-2.72,1.77-3.92,3.28-1.44,1.81-2.55,4.02-3.34,6.65-.78,2.63-1.18,5.45-1.18,8.46Z"/>
        <path class="cls-3" d="m90.59,5.91v23.79c0,1.88.1,3.26.31,4.16.21.89.6,1.63,1.16,2.21.51.53,1.09.91,1.74,1.15.65.24,1.49.38,2.53.44v.63h-12.61v-.63c1.04-.05,1.88-.2,2.53-.44.65-.24,1.23-.62,1.74-1.15.57-.58.95-1.33,1.16-2.23s.31-2.28.31-4.14V9.52c0-1.84-.1-3.21-.31-4.12s-.6-1.65-1.16-2.23c-.49-.53-1.06-.91-1.71-1.15-.65-.24-1.5-.38-2.56-.44v-.63h10.53l22.2,28.33V9.54c0-1.88-.1-3.26-.31-4.16-.21-.89-.6-1.63-1.16-2.21-.51-.53-1.09-.91-1.74-1.15-.65-.24-1.49-.38-2.53-.44v-.63h12.61v.63c-1.82,0-3.25.53-4.27,1.59-.57.58-.95,1.33-1.16,2.23s-.31,2.27-.31,4.12v28.77h-1.23L90.59,5.91Z"/>
        <path class="cls-4" d="m143.95,1.8c-1.15,0-2.38.04-3.69.11-2.81.15-4.9.5-6.28,1.07-1.38.57-2.51,1.54-3.4,2.93-.82,1.28-1.45,3.01-1.89,5.2l-.63-.05.49-10.09h37l.49,10.09-.63.05c-.49-2.53-1.26-4.45-2.31-5.76-1.05-1.3-2.58-2.24-4.58-2.8-1.7-.49-4.57-.74-8.61-.74v27.89c0,1.86.1,3.24.31,4.14s.6,1.65,1.16,2.23c.51.53,1.09.91,1.74,1.15.65.24,1.49.38,2.53.44v.63h-17.47v-.63c1.06-.05,1.91-.2,2.56-.44.65-.24,1.23-.62,1.74-1.15.57-.58.95-1.32,1.16-2.21.21-.89.31-2.28.31-4.16V1.8Z"/>
        <path class="cls-7" d="m204.52,38.28h-17.96v-.63c1.62-.15,2.75-.42,3.39-.82,1.13-.71,1.7-1.7,1.7-2.95,0-.75-.25-1.75-.77-3.01l-.46-1.15-2.62-6.45h-12.03l-1.42,3.77-.68,1.7c-.82,2.01-1.23,3.58-1.23,4.73,0,.67.15,1.3.45,1.89.3.58.71,1.06,1.22,1.42.71.49,1.62.78,2.73.88v.63h-12.25v-.63c.97-.05,1.81-.29,2.54-.71.73-.42,1.44-1.09,2.13-2.02.58-.75,1.15-1.71,1.71-2.88s1.29-2.94,2.2-5.29L183.16.96h1.56l11.89,28.74c.89,2.17,1.6,3.72,2.13,4.65s1.1,1.63,1.72,2.11c.44.33.94.58,1.5.75.57.17,1.41.32,2.54.45v.63Zm-17.17-16.13l-5.74-14.16-5.41,14.16h11.16Z"/>
        <path class="cls-5" d="m238.11.77l.33,12.22h-.63c-.2-.53-.36-.93-.46-1.2-.64-1.75-1.16-3.05-1.56-3.91-.71-1.53-1.74-2.93-3.09-4.21-1.02-.97-2.08-1.67-3.17-2.11s-2.32-.66-3.69-.66c-2.06,0-3.85.45-5.36,1.34-1.33.78-2.57,1.91-3.72,3.38-1.15,1.47-2.09,3.14-2.82,5.02-1.04,2.64-1.56,5.65-1.56,9.02,0,2.86.36,5.44,1.07,7.74s1.75,4.22,3.12,5.77c2.52,2.88,5.85,4.32,10.01,4.32,2.08,0,3.95-.36,5.61-1.08,1.66-.72,2.94-1.74,3.86-3.05,1.06-1.51,1.82-3.55,2.3-6.12l.63.11c-.35,2.88-1.13,5.17-2.35,6.86-1.17,1.62-2.78,2.86-4.83,3.72s-4.42,1.29-7.12,1.29c-2.52,0-4.92-.37-7.22-1.12-3.66-1.2-6.53-3.38-8.59-6.52s-3.09-6.9-3.09-11.25c0-3.34.6-6.41,1.8-9.23s2.88-5.08,5.03-6.79c1.66-1.31,3.64-2.36,5.95-3.13,2.31-.77,4.62-1.16,6.93-1.16s4.54.42,7,1.26l2.24.74c.44.16.82.25,1.15.25.46,0,.83-.19,1.12-.57.13-.18.28-.48.46-.9h.66Z"/>
        <path class="cls-8" d="m259.67,1.8c-1.15,0-2.38.04-3.69.11-2.81.15-4.9.5-6.28,1.07-1.38.57-2.51,1.54-3.4,2.93-.82,1.28-1.45,3.01-1.89,5.2l-.63-.05.49-10.09h37l.49,10.09-.63.05c-.49-2.53-1.26-4.45-2.31-5.76-1.05-1.3-2.58-2.24-4.58-2.8-1.7-.49-4.57-.74-8.61-.74v27.89c0,1.86.1,3.24.31,4.14.21.9.6,1.65,1.16,2.23.51.53,1.09.91,1.74,1.15.65.24,1.49.38,2.53.44v.63h-17.47v-.63c1.06-.05,1.91-.2,2.56-.44.65-.24,1.23-.62,1.74-1.15.56-.58.95-1.32,1.16-2.21.21-.89.31-2.28.31-4.16V1.8Z"/>
      </g>
    </g>
  </g>
</svg>