<?xml version="1.0" encoding="UTF-8"?>
<svg id="_レイヤー_2" data-name="レイヤー 2" xmlns="http://www.w3.org/2000/svg" viewBox="0 0 14.36 8.06">
  <defs>
    <style>
      .cls-1 {
        fill: #BFB685;
        stroke-width: 0px;
      }
    </style>
  </defs>
  <g id="design">
    <g>
      <polygon class="cls-1" points="9.1 3.88 7.93 1.76 4.87 3.88 3.7 1.76 .69 3.84 0 2.84 4.11 0 5.28 2.12 8.34 0 9.51 2.12 12.57 0 14.36 3.23 13.3 3.82 12.16 1.76 9.1 3.88"/>
      <polygon class="cls-1" points="9.1 8.06 7.93 5.95 4.87 8.06 3.7 5.95 .69 8.03 0 7.03 4.11 4.19 5.28 6.3 8.34 4.19 9.51 6.3 12.57 4.19 14.36 7.42 13.3 8.01 12.16 5.95 9.1 8.06"/>
    </g>
  </g>
</svg>