<svg xmlns="http://www.w3.org/2000/svg" xmlns:xlink="http://www.w3.org/1999/xlink" viewBox="0 0 80.75 111.08"><defs><style>.cls-1{fill:none;stroke:#39395c;stroke-linecap:round;stroke-linejoin:round;stroke-width:1.5px;}.cls-2{opacity:0.9;}.cls-3{fill:url(#新規グラデーションスウォッチ_1);}.cls-4{fill:url(#新規グラデーションスウォッチ_1-2);}.cls-5{fill:url(#新規グラデーションスウォッチ_1-3);}.cls-6{fill:url(#新規グラデーションスウォッチ_1-4);}.cls-7{fill:url(#新規グラデーションスウォッチ_1-5);}.cls-8{fill:url(#新規グラデーションスウォッチ_1-6);}.cls-9{fill:#39395c;}.cls-10{fill:url(#新規グラデーションスウォッチ_1-7);}.cls-11{fill:url(#新規グラデーションスウォッチ_1-8);}.cls-12{fill:url(#新規グラデーションスウォッチ_1-9);}.cls-13{fill:url(#新規グラデーションスウォッチ_1-10);}.cls-14{fill:url(#新規グラデーションスウォッチ_1-11);}.cls-15{fill:url(#新規グラデーションスウォッチ_1-12);}.cls-16{fill:url(#新規グラデーションスウォッチ_1-13);}.cls-17{fill:url(#新規グラデーションスウォッチ_1-14);}.cls-18{fill:url(#新規グラデーションスウォッチ_1-15);}.cls-19{fill:url(#新規グラデーションスウォッチ_1-16);}.cls-20{fill:url(#新規グラデーションスウォッチ_1-17);}.cls-21{fill:url(#新規グラデーションスウォッチ_1-18);}.cls-22{fill:url(#新規グラデーションスウォッチ_1-19);}.cls-23{fill:url(#新規グラデーションスウォッチ_1-20);}</style><linearGradient id="新規グラデーションスウォッチ_1" x1="-86.4" y1="132.78" x2="41.28" y2="-9.46" gradientTransform="translate(29.88 42.92) rotate(-2.02)" gradientUnits="userSpaceOnUse"><stop offset="0" stop-color="#c9ddf1"/><stop offset="0.06" stop-color="#c2daf0" stop-opacity="0.97"/><stop offset="0.15" stop-color="#aed2ec" stop-opacity="0.89"/><stop offset="0.26" stop-color="#8dc5e7" stop-opacity="0.75"/><stop offset="0.38" stop-color="#5fb3df" stop-opacity="0.57"/><stop offset="0.52" stop-color="#269cd5" stop-opacity="0.33"/><stop offset="0.54" stop-color="#1e99d4" stop-opacity="0.3"/><stop offset="0.76" stop-color="#0075bb"/><stop offset="0.96" stop-color="#005b94"/></linearGradient><linearGradient id="新規グラデーションスウォッチ_1-2" x1="-87.76" y1="131.56" x2="39.92" y2="-10.68" xlink:href="#新規グラデーションスウォッチ_1"/><linearGradient id="新規グラデーションスウォッチ_1-3" x1="-83.31" y1="135.55" x2="44.37" y2="-6.69" xlink:href="#新規グラデーションスウォッチ_1"/><linearGradient id="新規グラデーションスウォッチ_1-4" x1="-81.17" y1="137.47" x2="46.51" y2="-4.77" xlink:href="#新規グラデーションスウォッチ_1"/><linearGradient id="新規グラデーションスウォッチ_1-5" x1="-79.03" y1="139.39" x2="48.65" y2="-2.86" xlink:href="#新規グラデーションスウォッチ_1"/><linearGradient id="新規グラデーションスウォッチ_1-6" x1="-86.81" y1="132.41" x2="40.87" y2="-9.83" xlink:href="#新規グラデーションスウォッチ_1"/><linearGradient id="新規グラデーションスウォッチ_1-7" x1="-102.06" y1="159.74" x2="25.62" y2="17.5" gradientTransform="matrix(1, 0, 0, 1, 0, 0)" xlink:href="#新規グラデーションスウォッチ_1"/><linearGradient id="新規グラデーションスウォッチ_1-8" x1="-104.7" y1="157.37" x2="22.98" y2="15.13" gradientTransform="matrix(1, 0, 0, 1, 0, 0)" xlink:href="#新規グラデーションスウォッチ_1"/><linearGradient id="新規グラデーションスウォッチ_1-9" x1="-114.64" y1="148.45" x2="13.04" y2="6.2" gradientTransform="matrix(1, 0, 0, 1, 0, 0)" xlink:href="#新規グラデーションスウォッチ_1"/><linearGradient id="新規グラデーションスウォッチ_1-10" x1="-94.55" y1="166.48" x2="33.13" y2="24.24" gradientTransform="matrix(1, 0, 0, 1, 0, 0)" xlink:href="#新規グラデーションスウォッチ_1"/><linearGradient id="新規グラデーションスウォッチ_1-11" x1="-88.05" y1="172.31" x2="39.63" y2="30.07" gradientTransform="matrix(1, 0, 0, 1, 0, 0)" xlink:href="#新規グラデーションスウォッチ_1"/><linearGradient id="新規グラデーションスウォッチ_1-12" x1="-95.97" y1="165.21" x2="31.71" y2="22.97" gradientTransform="matrix(1, 0, 0, 1, 0, 0)" xlink:href="#新規グラデーションスウォッチ_1"/><linearGradient id="新規グラデーションスウォッチ_1-13" x1="-90.52" y1="170.1" x2="37.16" y2="27.86" gradientTransform="matrix(1, 0, 0, 1, 0, 0)" xlink:href="#新規グラデーションスウォッチ_1"/><linearGradient id="新規グラデーションスウォッチ_1-14" x1="-114.24" y1="148.8" x2="13.43" y2="6.56" gradientTransform="matrix(1, 0, 0, 1, 0, 0)" xlink:href="#新規グラデーションスウォッチ_1"/><linearGradient id="新規グラデーションスウォッチ_1-15" x1="-101.07" y1="160.63" x2="26.6" y2="18.38" gradientTransform="matrix(1, 0, 0, 1, 0, 0)" xlink:href="#新規グラデーションスウォッチ_1"/><linearGradient id="新規グラデーションスウォッチ_1-16" x1="-103.4" y1="158.54" x2="24.28" y2="16.29" gradientTransform="matrix(1, 0, 0, 1, 0, 0)" xlink:href="#新規グラデーションスウォッチ_1"/><linearGradient id="新規グラデーションスウォッチ_1-17" x1="-89.93" y1="170.63" x2="37.75" y2="28.39" gradientTransform="matrix(1, 0, 0, 1, 0, 0)" xlink:href="#新規グラデーションスウォッチ_1"/><linearGradient id="新規グラデーションスウォッチ_1-18" x1="-115.84" y1="147.37" x2="11.84" y2="5.13" gradientTransform="matrix(1, 0, 0, 1, 0, 0)" xlink:href="#新規グラデーションスウォッチ_1"/><linearGradient id="新規グラデーションスウォッチ_1-19" x1="-108.31" y1="154.13" x2="19.37" y2="11.89" gradientTransform="matrix(1, 0, 0, 1, 0, 0)" xlink:href="#新規グラデーションスウォッチ_1"/><linearGradient id="新規グラデーションスウォッチ_1-20" x1="-109.73" y1="152.85" x2="17.95" y2="10.61" gradientTransform="matrix(1, 0, 0, 1, 0, 0)" xlink:href="#新規グラデーションスウォッチ_1"/></defs><g id="Layer_2" data-name="Layer 2"><g id="spデザイン"><path class="cls-1" d="M7.57,97.48a11.21,11.21,0,0,0,14.29,12.37h0a11.19,11.19,0,0,0,7.51-14c-1.4-4.58-2.49-9-1.59-9.33,5-2,13.41-5.33,15.7-6l10.85-3.24a8.78,8.78,0,0,0,5-3.78l12.51-20L80,35.7s-.52-2.52-4,.35-6,9-6,9S68.68,39.23,68,38.51s-6.27-6.91-8-7.24-1.8,4.2,0,6.71,4,5.32,4,5.32l.92,8.43L62.52,48s1-1.15.74-2.13a2.52,2.52,0,0,0-2.82-1.76,4.91,4.91,0,0,0-1.08.14c-.45-.5-2.73-2.93-4.19-3.45-1.62-.59-7.09-3.54-8-3.34s-1.19,1.89.94,4.69a15.21,15.21,0,0,0,5.38,4.2l-1.6.78s-6.64-4.59-7.9-4.21-1.45,2.57.26,4.2,2.6,2.59,2.6,2.59-10,4.59-12.75,5.41S22.79,61.57,21,63.87s-7.86,8.91-9.06,11.34S9,88,7.57,97.48Zm48.8-44.6,1.16-.35s.69,1.49,1.16,2.36-1.17,1.84-1.17,1.84,0-1.52-.08-1.81A20.48,20.48,0,0,0,56.37,52.88ZM44.49,59.14l6.75-3.53.83,2.06-.8,2.19A13.82,13.82,0,0,1,44.49,59.14Z"/><path class="cls-1" d="M46.83,49.73l3.05,2.52,2.19,5.42-2.39,6.56S30,67.64,23.77,75.64"/><path class="cls-1" d="M56.53,69.52s1.35-13.12.91-14.6-4.2-6.85-5.57-7.77"/><path class="cls-1" d="M59.44,44.36,62.52,48l2.41,3.71.69,1a2.47,2.47,0,0,1,.34,2l-2.34,9"/><line class="cls-1" x1="69.96" y1="45.04" x2="71.46" y2="50.05"/><polyline class="cls-1" points="53.47 46.37 55.32 47.82 57.53 52.53"/><g class="cls-2"><path class="cls-3" d="M19.05,111A11.88,11.88,0,0,1,6.9,97.38h0C8.8,84.51,10.28,77,11.28,74.91c.89-1.8,4.13-5.58,6.74-8.61,1-1.18,1.88-2.19,2.4-2.85,2-2.48,10.75-8.15,13.47-9,2.19-.66,9.3-3.85,11.79-5-.44-.44-1.08-1.08-1.92-1.88a4.06,4.06,0,0,1-1.37-3.78,2,2,0,0,1,1.38-1.56c1.14-.34,4.47,1.63,7,3.33a14.29,14.29,0,0,1-3.27-3c-1.48-1.94-2.06-3.64-1.64-4.77a1.5,1.5,0,0,1,1.1-1c.7-.15,2.1.43,5.68,2.13,1.12.53,2.17,1,2.71,1.23,1.4.5,3.34,2.44,4.2,3.35.18,0,.44-.05.8-.07a3.28,3.28,0,0,1,3.1,1.37l-.14-1.27c-.47-.62-2.28-3-3.85-5.18s-1.93-5.5-.94-7a1.52,1.52,0,0,1,1.6-.74c.76.15,2.43,1.06,8.07,7.17l.26.28c.53.56,1.19,3,1.67,4.92,1-2.08,3-5.46,5.39-7.44,1.59-1.31,2.85-1.78,3.86-1.42a2,2,0,0,1,1.25,1.45.68.68,0,0,1,0,.42L72.41,53.79,59.87,73.86a9.54,9.54,0,0,1-5.34,4.07L43.67,81.17c-1.71.51-7,2.58-11.57,4.4l-3.94,1.55c-.09.36-.17,1.95,1.86,8.55a11.72,11.72,0,0,1-.88,9,11.85,11.85,0,0,1-7.09,5.79A12,12,0,0,1,19.05,111ZM8.24,97.58a10.53,10.53,0,0,0,19.7,6.49,10.38,10.38,0,0,0,.79-8c-2.69-8.76-2.1-9.8-1.19-10.16,1.2-.46,2.6-1,4.06-1.6,4.65-1.83,9.92-3.91,11.69-4.43l10.85-3.24a8.14,8.14,0,0,0,4.58-3.5l12.5-20,8-17.47a.56.56,0,0,0-.31-.29c-.24-.07-.95-.11-2.54,1.2-3.33,2.73-5.81,8.66-5.84,8.72a.67.67,0,0,1-1.28-.12A32.84,32.84,0,0,0,67.51,39l-.26-.28c-5.56-6-7-6.7-7.34-6.76,0,0-.1,0-.2.14-.56.87-.38,3.76.9,5.52,1.79,2.47,3.92,5.27,3.94,5.3a.65.65,0,0,1,.14.33l.91,8.44a.68.68,0,0,1-1.24.44L62,48.39a.68.68,0,0,1,.07-.82c.25-.29.73-1,.59-1.49a1.82,1.82,0,0,0-2.12-1.27c-.72,0-.89.09-.91.09a.62.62,0,0,1-.72-.18A14.5,14.5,0,0,0,55,41.45c-.61-.21-1.64-.71-2.84-1.28a28.37,28.37,0,0,0-4.85-2,.23.23,0,0,0-.08.12c-.15.4,0,1.58,1.45,3.49a14.72,14.72,0,0,0,5.11,4,.68.68,0,0,1,.41.6.71.71,0,0,1-.38.63l-1.6.78a.66.66,0,0,1-.68,0c-3-2-6.63-4.18-7.36-4.11a.71.71,0,0,0-.43.57,2.75,2.75,0,0,0,1,2.48c1.71,1.63,2.6,2.57,2.64,2.61a.72.72,0,0,1,.17.6.7.7,0,0,1-.39.48C46.7,50.53,37,55,34.28,55.78s-11.11,6.39-12.8,8.51C21,65,20.07,66,19.05,67.18c-2.42,2.82-5.74,6.68-6.56,8.33-.64,1.31-1.91,6.21-4.25,22.07ZM63.35,48.05,64,49l-.18-1.69A4.39,4.39,0,0,1,63.35,48.05ZM51.29,45.94l.64.43,0,0ZM49.79,60.7a15.12,15.12,0,0,1-5.55-.93.67.67,0,0,1-.43-.6.68.68,0,0,1,.36-.63L50.92,55a.7.7,0,0,1,.55,0,.68.68,0,0,1,.39.39l.84,2.06a.75.75,0,0,1,0,.49l-.8,2.18a.68.68,0,0,1-.51.43A8.92,8.92,0,0,1,49.79,60.7ZM46.27,59a12.57,12.57,0,0,0,4.5.29l.58-1.57-.46-1.14Zm11.27-1.56a.73.73,0,0,1-.35-.09.67.67,0,0,1-.35-.57c0-.7,0-1.55-.07-1.71s-.56-1.08-1-1.82a.68.68,0,0,1,0-.59.7.7,0,0,1,.44-.4l1.15-.35a.69.69,0,0,1,.81.36s.7,1.48,1.15,2.34c.57,1.07-.41,2.14-1.43,2.74A.73.73,0,0,1,57.54,57.41Z"/><path class="cls-4" d="M23.79,76.31a.66.66,0,0,1-.44-.14.68.68,0,0,1-.12-1c5.87-7.58,23.06-11,25.94-11.58l2.18-6-2-5L46.4,50.25a.67.67,0,1,1,.86-1l3.05,2.52a.76.76,0,0,1,.2.27l2.19,5.42a.75.75,0,0,1,0,.49l-2.4,6.56a.68.68,0,0,1-.52.43c-.19,0-19.53,3.46-25.49,11.15A.64.64,0,0,1,23.79,76.31Z"/><path class="cls-5" d="M56.55,70.2h-.09a.69.69,0,0,1-.61-.75c.56-5.39,1.22-13.4.94-14.33-.39-1.31-4-6.57-5.3-7.41a.66.66,0,0,1-.18-.93.67.67,0,0,1,.94-.19c1.51,1,5.36,6.56,5.84,8.14s-.66,12.65-.89,14.86A.69.69,0,0,1,56.55,70.2Z"/><path class="cls-6" d="M63.65,64.41a.68.68,0,0,1-.2,0,.66.66,0,0,1-.48-.82l2.33-9a1.76,1.76,0,0,0-.24-1.43l-.69-1L62,48.39l-3-3.6a.68.68,0,0,1,1-.87L63,47.59l3.14,4.79a3.11,3.11,0,0,1,.43,2.53l-2.33,9A.68.68,0,0,1,63.65,64.41Z"/><path class="cls-7" d="M71.48,50.73a.68.68,0,0,1-.67-.48l-1.5-5a.67.67,0,0,1,.45-.84.68.68,0,0,1,.85.45l1.49,5a.67.67,0,0,1-.45.84A.51.51,0,0,1,71.48,50.73Z"/><path class="cls-8" d="M57.55,53.21a.67.67,0,0,1-.63-.39l-2.15-4.56L53.05,46.9a.68.68,0,0,1,.84-1.06l1.85,1.45a.67.67,0,0,1,.19.25l2.21,4.7a.68.68,0,0,1-.32.9A.9.9,0,0,1,57.55,53.21Z"/></g><path class="cls-9" d="M42.93,21.7a.25.25,0,0,0-.23-.25l-.3,0a5.12,5.12,0,0,0-.69,0l-4.9.07-5.25.09h-.21c-.52,0-.75,0-.83-.44s.12-.61.71-.77l.15,0,2.91-.83,2.48-.71a2.59,2.59,0,0,0,.6-.3l.24-.13a.27.27,0,0,0,.12-.32l-.11-.26a.24.24,0,0,0-.27-.16l-.22,0a3.22,3.22,0,0,0-.51.09l-2.52.71-3,.84-.31.11c-.47.17-.68.25-.91-.31-.31-.75-.44-1.06.36-1.5,2.24-1.21,4.48-2.53,6.64-3.8l2.15-1.27a5.81,5.81,0,0,0,.63-.43l.27-.21a.25.25,0,0,0,.08-.31l-.16-.33a.27.27,0,0,0-.33-.12l-.43.16a6.13,6.13,0,0,0-1,.42c-2.19,1.28-4.38,2.58-6.56,3.87l-1.88,1.11c-.54.33-.8.45-1.14,0s-.15-.62.31-1c1.21-1.17,2.41-2.33,3.61-3.51.19-.2.37-.41.55-.63s.17-.19.25-.28a.26.26,0,0,0,0-.32l-.2-.27a.27.27,0,0,0-.33-.07l-.28.15a2.32,2.32,0,0,0-.64.41c-.76.73-1.51,1.47-2.25,2.21L28.11,14.7c-.64.63-1,.65-1.78.09a6.61,6.61,0,0,0-1.62-.91c-.59-.21-.7-.44-.5-1.06.51-1.62,1-3.29,1.44-4.9l.11-.39a2.5,2.5,0,0,0,.09-.66,2.44,2.44,0,0,1,0-.27.25.25,0,0,0-.2-.28l-.29-.05a.24.24,0,0,0-.28.14L25,6.67a3,3,0,0,0-.26.61c-.23.73-.44,1.46-.66,2.19-.28,1-.57,1.93-.86,2.89l-.05.18c-.15.54-.25.73-.7.67s-.61-.34-.62-1.05c0-3.7-.1-7.41-.16-11.12a2,2,0,0,0-.12-.6L21.48.2a.25.25,0,0,0-.27-.2l-.3,0a.26.26,0,0,0-.23.23c0,.16-.05.32-.07.48a8.32,8.32,0,0,0-.1,1.12c0,1.58.09,3.17.14,4.76.05,1.76.11,3.52.15,5.29,0,.11,0,.22,0,.34.07.49.07.69-.41.79-.63.13-.89,0-1.13-.82-.48-1.56-1-3.14-1.58-4.65l-.17-.48a3,3,0,0,0-.35-.63A2.13,2.13,0,0,1,17,6.2a.27.27,0,0,0-.34-.09l-.25.13a.25.25,0,0,0-.13.28l0,.22c0,.17.07.34.12.51.2.61.41,1.22.61,1.83.4,1.19.79,2.38,1.17,3.58a3.44,3.44,0,0,1,.11.67,1.59,1.59,0,0,1-1,.19c-.1,0-.31-.19-.49-.5L14.36,8.81q-.93-1.59-1.89-3.18c-.33-.56-.68-1.1-1-1.65L11,3.23a.25.25,0,0,0-.33-.09l-.37.17a.25.25,0,0,0-.13.32c0,.1.07.19.1.29a3.76,3.76,0,0,0,.27.67l2.42,4.06,2.91,4.91c.31.52.28.7.27.75a1.09,1.09,0,0,1-.79.69,1.31,1.31,0,0,1-1.18-.37c-1.06-1.12-2.27-2.39-3.49-3.62a1.94,1.94,0,0,0-.66-.36l-.26-.11a.31.31,0,0,0-.23,0,.24.24,0,0,0-.13.18c-.06.27-.1.53.08.7.43.45.87.89,1.32,1.33.88.88,1.76,1.76,2.62,2.65a2.84,2.84,0,0,0,.25.23c.37.29.48.41.2.76s-.45.3-.89,0l-.2-.12-1-.53c-2.33-1.28-4.66-2.57-7-3.84a3.44,3.44,0,0,0-.64-.26l-.27-.09a.25.25,0,0,0-.32.12L3.39,12a.27.27,0,0,0,.09.34l.64.39c.47.29.94.58,1.42.85l2.29,1.27c1.44.8,2.92,1.63,4.37,2.47a1.13,1.13,0,0,1,.5.72,2.33,2.33,0,0,1-.38.85l-.15.25L6,16.92a.26.26,0,0,0-.32.14l-.16.37a.25.25,0,0,0,.1.32,2.61,2.61,0,0,1,.28.17,3.48,3.48,0,0,0,.66.36L8.52,19c1,.37,2,.74,2.92,1.14a1.34,1.34,0,0,1,.44.38,1.11,1.11,0,0,1-.57.54,1.88,1.88,0,0,1-.66.09h-.18l-2.78.08c-1.56,0-3.11.09-4.66.15-.65,0-1.3.08-1.92.15l-.88.08a.25.25,0,0,0-.23.26v.39a.26.26,0,0,0,.26.25H1.94l2.17-.08c2.2-.08,4.48-.16,6.71-.31.82-.05,1,.21,1.1,1s-.11.89-.9,1.05c-1.36.3-2.74.65-4.06,1l-.45.12a2.82,2.82,0,0,0-.64.28l-.25.13a.26.26,0,0,0-.14.3l.08.28a.27.27,0,0,0,.27.18l.34,0a5.37,5.37,0,0,0,.78-.1l2.84-.71,1.75-.45c.42-.12.58-.16.77.29s0,.6-.4.86l-1.4.83-7,4.21a4.13,4.13,0,0,0-.6.49l-.25.22a.26.26,0,0,0,0,.35l.22.29a.25.25,0,0,0,.32.07l.42-.21a9,9,0,0,0,.92-.48l1-.58c2.26-1.36,4.6-2.76,6.88-4.17.28-.18.49-.25.62-.21s.24.15.35.36a3.26,3.26,0,0,0,.22.34c.31.44.46.66,0,1.06-1.19,1-2.34,2-3.51,3.06a2.5,2.5,0,0,0-.46.62c-.05.09-.1.18-.16.27a.25.25,0,0,0,0,.33l.2.17a.27.27,0,0,0,.3,0l.16-.1a2.48,2.48,0,0,0,.4-.26l2.06-1.78,1.52-1.32.16-.14c.34-.31.49-.43.84-.17s.29.54,0,1l-2.71,5.06-2.17,4.06c-.09.17-.18.36-.26.54l-.11.25a.24.24,0,0,0,.08.31l.26.2a.26.26,0,0,0,.33,0l.18-.16a1.8,1.8,0,0,0,.44-.47l1-1.81c1.2-2.19,2.44-4.45,3.58-6.71l.12-.22c.61-1.2.61-1.2,1.29-.89l.67.3c-.13.77-.32,1.54-.51,2.29a14.91,14.91,0,0,0-.66,4.39.28.28,0,0,0,.16.23.27.27,0,0,0,.27-.06,2,2,0,0,0,.57-1l.07-.29c.36-1.51.73-3.07,1.06-4.61.1-.48.3-.61.83-.58s.76.27.73.89,0,1-.06,1.55c-.06,1.23-.13,2.51-.11,3.77s.14,2.8.26,4.16L20.49,43a.9.9,0,0,0,.25.47l.1.13a.26.26,0,0,0,.21.11h0a.25.25,0,0,0,.21-.11,1.73,1.73,0,0,0,.34-1.1v-.19c-.05-3.31-.09-6.63-.16-10,0-.62.12-.79.64-.8s.83.08.94.68c.26,1.49.61,3,.94,4.43l.18.77a1.77,1.77,0,0,0,.27.57,1.37,1.37,0,0,1,.13.2.28.28,0,0,0,.2.13.24.24,0,0,0,.22-.1.94.94,0,0,0,.26-.83c-.17-.77-.33-1.55-.5-2.32-.21-1-.43-2-.63-3L24,31.86c-.05-.18-.1-.39,0-.48a.43.43,0,0,1,.29-.14l.47-.15c.54-.19.81-.26,1.11.26s.72,1.23,1.1,1.84l.7,1.14,1.25,2.13,2.3,3.86a1.33,1.33,0,0,0,.44.38l.16.11a.26.26,0,0,0,.41-.21v-.21a1.9,1.9,0,0,0,0-.58,1.51,1.51,0,0,0-.25-.49l-.11-.16-1.38-2.33q-1.83-3.06-3.65-6.14a.78.78,0,0,1,0-.81.41.41,0,0,1,.4-.19,1.7,1.7,0,0,1,.85.57c.67.72,1.32,1.46,2,2.19l1.58,1.77a2.78,2.78,0,0,0,.56.41l.24.15a.26.26,0,0,0,.33,0l.21-.23a.25.25,0,0,0,0-.33l-.18-.24c-.14-.18-.28-.37-.43-.55l-.87-1c-.94-1.08-1.91-2.2-2.9-3.28-.4-.43-.26-.63.1-1.05a3.27,3.27,0,0,0,.28-.37c.17-.28.32-.32.89,0,3.06,1.78,6.08,3.49,8.9,5.07a1.82,1.82,0,0,0,.68.19l.27,0c.12,0,.27-.1.32-.22l.07-.22a.25.25,0,0,0-.1-.29l-.26-.18c-.2-.13-.4-.27-.6-.38l-5.61-3.18-3-1.69c-.56-.32-.74-.47-.54-.92s.53-.49,1.16-.31c1.6.46,3.17.89,4.67,1.27a2.49,2.49,0,0,0,.77,0h.31a.25.25,0,0,0,.25-.23l0-.27a.26.26,0,0,0-.17-.27l-.27-.1c-.2-.07-.41-.15-.61-.2l-4.57-1.27c-1-.28-1-.28-.93-1.38v-.07a.69.69,0,0,1,.16-.47,1,1,0,0,1,.65-.06l.4,0c2.22-.06,4.45-.11,6.67-.15l3.38-.07a2.9,2.9,0,0,0,.6-.07l.26,0a.24.24,0,0,0,.22-.25Zm-30,.11a7.91,7.91,0,0,1,7.87-7.68h.27a8.27,8.27,0,0,1,5.82,14.33,7.1,7.1,0,0,1-5.35,2h0C16,30.45,12.91,27.28,13,21.81Z"/><path class="cls-9" d="M25.62,13.51l0,.23a.26.26,0,0,0,.14.28.22.22,0,0,0,.11,0A.27.27,0,0,0,26,14a38.19,38.19,0,0,0,5.4-9.42.26.26,0,0,0-.29-.35,1.2,1.2,0,0,0-.82.57Q28,8.82,25.77,12.9A1.66,1.66,0,0,0,25.62,13.51Z"/><path class="cls-9" d="M3.05,17.51a2.93,2.93,0,0,0,.68.1,1.42,1.42,0,0,0,1.37-1A.25.25,0,0,0,5,16.28l-.42-.21a3.33,3.33,0,0,0-1.09-.44c-.4-.06-.93.42-1.06.77A.65.65,0,0,0,2.5,17C2.54,17,2.75,17.42,3.05,17.51Z"/><path class="cls-9" d="M39.58,16.45a5.47,5.47,0,0,0-1.19.54l-.49.27a.26.26,0,0,0-.14.17.3.3,0,0,0,.05.21,1.63,1.63,0,0,0,1.29.69,2.76,2.76,0,0,0,1-.23c.25-.09.39-.36.52-.6a2,2,0,0,1,.14-.25.25.25,0,0,0-.1-.36l-.25-.16A1,1,0,0,0,39.58,16.45Z"/><path class="cls-9" d="M34.1,34.84c-.31-.05-.67.34-.75.44a.3.3,0,0,0-.06.32,12.29,12.29,0,0,0,.63,1.26l.28.51a.26.26,0,0,0,.2.13h0a.25.25,0,0,0,.2-.09,5.23,5.23,0,0,1,.43-.47c.28-.28.48-.48.48-.76S35.37,35,34.1,34.84Z"/><path class="cls-9" d="M16.71,38.83a.24.24,0,0,0-.2-.11.36.36,0,0,0-.21.11l-.26.34a3.22,3.22,0,0,0-.61,1c-.09.28.15.55.41.82l.22.27a.26.26,0,0,0,.2.1h0a.27.27,0,0,0,.19-.08l1-1.1a.26.26,0,0,0,0-.32Z"/><path class="cls-9" d="M26,39.84l-.25-.36a.26.26,0,0,0-.21-.11h0a.24.24,0,0,0-.21.11l-.77,1.12a.26.26,0,0,0,0,.32l.87,1a.25.25,0,0,0,.18.08h0a.21.21,0,0,0,.17-.07l.29-.24c.38-.3.63-.5.53-.76A4.13,4.13,0,0,0,26,39.84Z"/><path class="cls-9" d="M15.48,4.83a3.76,3.76,0,0,1,.25.31.23.23,0,0,0,.19.1h0a.25.25,0,0,0,.19-.09l.8-.93a.25.25,0,0,0,0-.35l-.34-.32a4.16,4.16,0,0,0-.82-.68c-.17-.1-.35,0-.68.31s-.39.44-.29.62A8.18,8.18,0,0,0,15.48,4.83Z"/><path class="cls-9" d="M34.19,10.29h0a2,2,0,0,0,1.59-.67.81.81,0,0,0,.11-.72,1.32,1.32,0,0,0-1-.81.8.8,0,0,0-.63.31,2.06,2.06,0,0,0-.31,1.69A.26.26,0,0,0,34.19,10.29Z"/><path class="cls-9" d="M8.34,33.41a.25.25,0,0,0-.2-.13.24.24,0,0,0-.22.1l-.37.46a6.74,6.74,0,0,0-.76,1c-.13.23.06.42.39.72l.22.22a.24.24,0,0,0,.19.08.26.26,0,0,0,.19-.08l.27-.31a7.94,7.94,0,0,0,.78-.94c.13-.2,0-.39-.2-.7C8.54,33.73,8.44,33.58,8.34,33.41Z"/><path class="cls-9" d="M39.65,26.5a10.68,10.68,0,0,0-1.26,0h-.45a.25.25,0,0,0-.25.2l-.11.56a.26.26,0,0,0,.15.29l.42.18a5.84,5.84,0,0,0,1.17.43h.07c.38,0,.75-.61.81-.74a.58.58,0,0,0-.09-.5C40,26.76,39.87,26.52,39.65,26.5Z"/><path class="cls-9" d="M7.68,10.23c.11.14.22.28.34.45a.26.26,0,0,0,.2.1h0a.27.27,0,0,0,.21-.12c.1-.16.21-.3.29-.41s.32-.41.29-.63c-.14-1.15-.78-1.38-1.27-1.37-.32,0-.68.44-.77.59a.31.31,0,0,0,0,.33A8.68,8.68,0,0,0,7.68,10.23Z"/><path class="cls-9" d="M25.87,5.38a.28.28,0,0,0,.2.13h0a.26.26,0,0,0,.2-.1,4,4,0,0,1,.26-.32,3.87,3.87,0,0,0,.64-1c.1-.26-.13-.49-.43-.78a1.85,1.85,0,0,1-.24-.25A.27.27,0,0,0,26.33,3h0a.28.28,0,0,0-.2.08l-.82.95a.27.27,0,0,0,0,.3Z"/><path class="cls-9" d="M3.06,27.55h.09a5.12,5.12,0,0,0,1.06-.43l.37-.18a.25.25,0,0,0,.14-.25l0-.37a.26.26,0,0,0-.17-.22,1.09,1.09,0,0,1-.25-.1,1.16,1.16,0,0,0-.75-.15,3,3,0,0,0-.84.46l-.3.21a.25.25,0,0,0-.12.18.23.23,0,0,0,.07.21l.17.21C2.69,27.35,2.85,27.55,3.06,27.55Z"/><g class="cls-2"><path class="cls-10" d="M42.93,21.7a.25.25,0,0,0-.23-.25l-.3,0a5.12,5.12,0,0,0-.69,0l-4.9.07-5.25.09h-.21c-.52,0-.75,0-.83-.44s.12-.61.71-.77l.15,0,2.91-.83,2.48-.71a2.59,2.59,0,0,0,.6-.3l.24-.13a.27.27,0,0,0,.12-.32l-.11-.26a.24.24,0,0,0-.27-.16l-.22,0a3.22,3.22,0,0,0-.51.09l-2.52.71-3,.84-.31.11c-.47.17-.68.25-.91-.31-.31-.75-.44-1.06.36-1.5,2.24-1.21,4.48-2.53,6.64-3.8l2.15-1.27a5.81,5.81,0,0,0,.63-.43l.27-.21a.25.25,0,0,0,.08-.31l-.16-.33a.27.27,0,0,0-.33-.12l-.43.16a6.13,6.13,0,0,0-1,.42c-2.19,1.28-4.38,2.58-6.56,3.87l-1.88,1.11c-.54.33-.8.45-1.14,0s-.15-.62.31-1c1.21-1.17,2.41-2.33,3.61-3.51.19-.2.37-.41.55-.63s.17-.19.25-.28a.26.26,0,0,0,0-.32l-.2-.27a.27.27,0,0,0-.33-.07l-.28.15a2.32,2.32,0,0,0-.64.41c-.76.73-1.51,1.47-2.25,2.21L28.11,14.7c-.64.63-1,.65-1.78.09a6.61,6.61,0,0,0-1.62-.91c-.59-.21-.7-.44-.5-1.06.51-1.62,1-3.29,1.44-4.9l.11-.39a2.5,2.5,0,0,0,.09-.66,2.44,2.44,0,0,1,0-.27.25.25,0,0,0-.2-.28l-.29-.05a.24.24,0,0,0-.28.14L25,6.67a3,3,0,0,0-.26.61c-.23.73-.44,1.46-.66,2.19-.28,1-.57,1.93-.86,2.89l-.05.18c-.15.54-.25.73-.7.67s-.61-.34-.62-1.05c0-3.7-.1-7.41-.16-11.12a2,2,0,0,0-.12-.6L21.48.2a.25.25,0,0,0-.27-.2l-.3,0a.26.26,0,0,0-.23.23c0,.16-.05.32-.07.48a8.32,8.32,0,0,0-.1,1.12c0,1.58.09,3.17.14,4.76.05,1.76.11,3.52.15,5.29,0,.11,0,.22,0,.34.07.49.07.69-.41.79-.63.13-.89,0-1.13-.82-.48-1.56-1-3.14-1.58-4.65l-.17-.48a3,3,0,0,0-.35-.63A2.13,2.13,0,0,1,17,6.2a.27.27,0,0,0-.34-.09l-.25.13a.25.25,0,0,0-.13.28l0,.22c0,.17.07.34.12.51.2.61.41,1.22.61,1.83.4,1.19.79,2.38,1.17,3.58a3.44,3.44,0,0,1,.11.67,1.59,1.59,0,0,1-1,.19c-.1,0-.31-.19-.49-.5L14.36,8.81q-.93-1.59-1.89-3.18c-.33-.56-.68-1.1-1-1.65L11,3.23a.25.25,0,0,0-.33-.09l-.37.17a.25.25,0,0,0-.13.32c0,.1.07.19.1.29a3.76,3.76,0,0,0,.27.67l2.42,4.06,2.91,4.91c.31.52.28.7.27.75a1.09,1.09,0,0,1-.79.69,1.31,1.31,0,0,1-1.18-.37c-1.06-1.12-2.27-2.39-3.49-3.62a1.94,1.94,0,0,0-.66-.36l-.26-.11a.31.31,0,0,0-.23,0,.24.24,0,0,0-.13.18c-.06.27-.1.53.08.7.43.45.87.89,1.32,1.33.88.88,1.76,1.76,2.62,2.65a2.84,2.84,0,0,0,.25.23c.37.29.48.41.2.76s-.45.3-.89,0l-.2-.12-1-.53c-2.33-1.28-4.66-2.57-7-3.84a3.44,3.44,0,0,0-.64-.26l-.27-.09a.25.25,0,0,0-.32.12L3.39,12a.27.27,0,0,0,.09.34l.64.39c.47.29.94.58,1.42.85l2.29,1.27c1.44.8,2.92,1.63,4.37,2.47a1.13,1.13,0,0,1,.5.72,2.33,2.33,0,0,1-.38.85l-.15.25L6,16.92a.26.26,0,0,0-.32.14l-.16.37a.25.25,0,0,0,.1.32,2.61,2.61,0,0,1,.28.17,3.48,3.48,0,0,0,.66.36L8.52,19c1,.37,2,.74,2.92,1.14a1.34,1.34,0,0,1,.44.38,1.11,1.11,0,0,1-.57.54,1.88,1.88,0,0,1-.66.09h-.18l-2.78.08c-1.56,0-3.11.09-4.66.15-.65,0-1.3.08-1.92.15l-.88.08a.25.25,0,0,0-.23.26v.39a.26.26,0,0,0,.26.25H1.94l2.17-.08c2.2-.08,4.48-.16,6.71-.31.82-.05,1,.21,1.1,1s-.11.89-.9,1.05c-1.36.3-2.74.65-4.06,1l-.45.12a2.82,2.82,0,0,0-.64.28l-.25.13a.26.26,0,0,0-.14.3l.08.28a.27.27,0,0,0,.27.18l.34,0a5.37,5.37,0,0,0,.78-.1l2.84-.71,1.75-.45c.42-.12.58-.16.77.29s0,.6-.4.86l-1.4.83-7,4.21a4.13,4.13,0,0,0-.6.49l-.25.22a.26.26,0,0,0,0,.35l.22.29a.25.25,0,0,0,.32.07l.42-.21a9,9,0,0,0,.92-.48l1-.58c2.26-1.36,4.6-2.76,6.88-4.17.28-.18.49-.25.62-.21s.24.15.35.36a3.26,3.26,0,0,0,.22.34c.31.44.46.66,0,1.06-1.19,1-2.34,2-3.51,3.06a2.5,2.5,0,0,0-.46.62c-.05.09-.1.18-.16.27a.25.25,0,0,0,0,.33l.2.17a.27.27,0,0,0,.3,0l.16-.1a2.48,2.48,0,0,0,.4-.26l2.06-1.78,1.52-1.32.16-.14c.34-.31.49-.43.84-.17s.29.54,0,1l-2.71,5.06-2.17,4.06c-.09.17-.18.36-.26.54l-.11.25a.24.24,0,0,0,.08.31l.26.2a.26.26,0,0,0,.33,0l.18-.16a1.8,1.8,0,0,0,.44-.47l1-1.81c1.2-2.19,2.44-4.45,3.58-6.71l.12-.22c.61-1.2.61-1.2,1.29-.89l.67.3c-.13.77-.32,1.54-.51,2.29a14.91,14.91,0,0,0-.66,4.39.28.28,0,0,0,.16.23.27.27,0,0,0,.27-.06,2,2,0,0,0,.57-1l.07-.29c.36-1.51.73-3.07,1.06-4.61.1-.48.3-.61.83-.58s.76.27.73.89,0,1-.06,1.55c-.06,1.23-.13,2.51-.11,3.77s.14,2.8.26,4.16L20.49,43a.9.9,0,0,0,.25.47l.1.13a.26.26,0,0,0,.21.11h0a.25.25,0,0,0,.21-.11,1.73,1.73,0,0,0,.34-1.1v-.19c-.05-3.31-.09-6.63-.16-10,0-.62.12-.79.64-.8s.83.08.94.68c.26,1.49.61,3,.94,4.43l.18.77a1.77,1.77,0,0,0,.27.57,1.37,1.37,0,0,1,.13.2.28.28,0,0,0,.2.13.24.24,0,0,0,.22-.1.94.94,0,0,0,.26-.83c-.17-.77-.33-1.55-.5-2.32-.21-1-.43-2-.63-3L24,31.86c-.05-.18-.1-.39,0-.48a.43.43,0,0,1,.29-.14l.47-.15c.54-.19.81-.26,1.11.26s.72,1.23,1.1,1.84l.7,1.14,1.25,2.13,2.3,3.86a1.33,1.33,0,0,0,.44.38l.16.11a.26.26,0,0,0,.41-.21v-.21a1.9,1.9,0,0,0,0-.58,1.51,1.51,0,0,0-.25-.49l-.11-.16-1.38-2.33q-1.83-3.06-3.65-6.14a.78.78,0,0,1,0-.81.41.41,0,0,1,.4-.19,1.7,1.7,0,0,1,.85.57c.67.72,1.32,1.46,2,2.19l1.58,1.77a2.78,2.78,0,0,0,.56.41l.24.15a.26.26,0,0,0,.33,0l.21-.23a.25.25,0,0,0,0-.33l-.18-.24c-.14-.18-.28-.37-.43-.55l-.87-1c-.94-1.08-1.91-2.2-2.9-3.28-.4-.43-.26-.63.1-1.05a3.27,3.27,0,0,0,.28-.37c.17-.28.32-.32.89,0,3.06,1.78,6.08,3.49,8.9,5.07a1.82,1.82,0,0,0,.68.19l.27,0c.12,0,.27-.1.32-.22l.07-.22a.25.25,0,0,0-.1-.29l-.26-.18c-.2-.13-.4-.27-.6-.38l-5.61-3.18-3-1.69c-.56-.32-.74-.47-.54-.92s.53-.49,1.16-.31c1.6.46,3.17.89,4.67,1.27a2.49,2.49,0,0,0,.77,0h.31a.25.25,0,0,0,.25-.23l0-.27a.26.26,0,0,0-.17-.27l-.27-.1c-.2-.07-.41-.15-.61-.2l-4.57-1.27c-1-.28-1-.28-.93-1.38v-.07a.69.69,0,0,1,.16-.47,1,1,0,0,1,.65-.06l.4,0c2.22-.06,4.45-.11,6.67-.15l3.38-.07a2.9,2.9,0,0,0,.6-.07l.26,0a.24.24,0,0,0,.22-.25Zm-30,.11a7.91,7.91,0,0,1,7.87-7.68h.27a8.27,8.27,0,0,1,5.82,14.33,7.1,7.1,0,0,1-5.35,2h0C16,30.45,12.91,27.28,13,21.81Z"/><path class="cls-11" d="M25.62,13.51l0,.23a.26.26,0,0,0,.14.28.22.22,0,0,0,.11,0A.27.27,0,0,0,26,14a38.19,38.19,0,0,0,5.4-9.42.26.26,0,0,0-.29-.35,1.2,1.2,0,0,0-.82.57Q28,8.82,25.77,12.9A1.66,1.66,0,0,0,25.62,13.51Z"/><path class="cls-12" d="M3.05,17.51a2.93,2.93,0,0,0,.68.1,1.42,1.42,0,0,0,1.37-1A.25.25,0,0,0,5,16.28l-.42-.21a3.33,3.33,0,0,0-1.09-.44c-.4-.06-.93.42-1.06.77A.65.65,0,0,0,2.5,17C2.54,17,2.75,17.42,3.05,17.51Z"/><path class="cls-13" d="M39.58,16.45a5.47,5.47,0,0,0-1.19.54l-.49.27a.26.26,0,0,0-.14.17.3.3,0,0,0,.05.21,1.63,1.63,0,0,0,1.29.69,2.76,2.76,0,0,0,1-.23c.25-.09.39-.36.52-.6a2,2,0,0,1,.14-.25.25.25,0,0,0-.1-.36l-.25-.16A1,1,0,0,0,39.58,16.45Z"/><path class="cls-14" d="M34.1,34.84c-.31-.05-.67.34-.75.44a.3.3,0,0,0-.06.32,12.29,12.29,0,0,0,.63,1.26l.28.51a.26.26,0,0,0,.2.13h0a.25.25,0,0,0,.2-.09,5.23,5.23,0,0,1,.43-.47c.28-.28.48-.48.48-.76S35.37,35,34.1,34.84Z"/><path class="cls-15" d="M16.71,38.83a.24.24,0,0,0-.2-.11.36.36,0,0,0-.21.11l-.26.34a3.22,3.22,0,0,0-.61,1c-.09.28.15.55.41.82l.22.27a.26.26,0,0,0,.2.1h0a.27.27,0,0,0,.19-.08l1-1.1a.26.26,0,0,0,0-.32Z"/><path class="cls-16" d="M26,39.84l-.25-.36a.26.26,0,0,0-.21-.11h0a.24.24,0,0,0-.21.11l-.77,1.12a.26.26,0,0,0,0,.32l.87,1a.25.25,0,0,0,.18.08h0a.21.21,0,0,0,.17-.07l.29-.24c.38-.3.63-.5.53-.76A4.13,4.13,0,0,0,26,39.84Z"/><path class="cls-17" d="M15.48,4.83a3.76,3.76,0,0,1,.25.31.23.23,0,0,0,.19.1h0a.25.25,0,0,0,.19-.09l.8-.93a.25.25,0,0,0,0-.35l-.34-.32a4.16,4.16,0,0,0-.82-.68c-.17-.1-.35,0-.68.31s-.39.44-.29.62A8.18,8.18,0,0,0,15.48,4.83Z"/><path class="cls-18" d="M34.19,10.29h0a2,2,0,0,0,1.59-.67.81.81,0,0,0,.11-.72,1.32,1.32,0,0,0-1-.81.8.8,0,0,0-.63.31,2.06,2.06,0,0,0-.31,1.69A.26.26,0,0,0,34.19,10.29Z"/><path class="cls-19" d="M8.34,33.41a.25.25,0,0,0-.2-.13.24.24,0,0,0-.22.1l-.37.46a6.74,6.74,0,0,0-.76,1c-.13.23.06.42.39.72l.22.22a.24.24,0,0,0,.19.08.26.26,0,0,0,.19-.08l.27-.31a7.94,7.94,0,0,0,.78-.94c.13-.2,0-.39-.2-.7C8.54,33.73,8.44,33.58,8.34,33.41Z"/><path class="cls-20" d="M39.65,26.5a10.68,10.68,0,0,0-1.26,0h-.45a.25.25,0,0,0-.25.2l-.11.56a.26.26,0,0,0,.15.29l.42.18a5.84,5.84,0,0,0,1.17.43h.07c.38,0,.75-.61.81-.74a.58.58,0,0,0-.09-.5C40,26.76,39.87,26.52,39.65,26.5Z"/><path class="cls-21" d="M7.68,10.23c.11.14.22.28.34.45a.26.26,0,0,0,.2.1h0a.27.27,0,0,0,.21-.12c.1-.16.21-.3.29-.41s.32-.41.29-.63c-.14-1.15-.78-1.38-1.27-1.37-.32,0-.68.44-.77.59a.31.31,0,0,0,0,.33A8.68,8.68,0,0,0,7.68,10.23Z"/><path class="cls-22" d="M25.87,5.38a.28.28,0,0,0,.2.13h0a.26.26,0,0,0,.2-.1,4,4,0,0,1,.26-.32,3.87,3.87,0,0,0,.64-1c.1-.26-.13-.49-.43-.78a1.85,1.85,0,0,1-.24-.25A.27.27,0,0,0,26.33,3h0a.28.28,0,0,0-.2.08l-.82.95a.27.27,0,0,0,0,.3Z"/><path class="cls-23" d="M3.06,27.55h.09a5.12,5.12,0,0,0,1.06-.43l.37-.18a.25.25,0,0,0,.14-.25l0-.37a.26.26,0,0,0-.17-.22,1.09,1.09,0,0,1-.25-.1,1.16,1.16,0,0,0-.75-.15,3,3,0,0,0-.84.46l-.3.21a.25.25,0,0,0-.12.18.23.23,0,0,0,.07.21l.17.21C2.69,27.35,2.85,27.55,3.06,27.55Z"/></g></g></g></svg>