<?xml version="1.0" encoding="UTF-8"?>
<svg id="_レイヤー_2" data-name="レイヤー 2" xmlns="http://www.w3.org/2000/svg" viewBox="0 0 15.67 13.62">
  <defs>
    <style>
      .cls-1 {
        fill: #9084A5;
        stroke-width: 0px;
      }
    </style>
  </defs>
  <g id="design">
    <g>
      <path class="cls-1" d="m3.48,7.96c-1.92,0-3.48-1.56-3.48-3.48S1.56,1,3.48,1s3.48,1.56,3.48,3.48-1.56,3.48-3.48,3.48Zm0-5.37c-1.04,0-1.89.85-1.89,1.89s.85,1.89,1.89,1.89,1.89-.85,1.89-1.89-.85-1.89-1.89-1.89Z"/>
      <path class="cls-1" d="m14.24,3.77c-1.31-1.71-3.95-2.09-5.41-2.16-3-.15-5.9.69-6.72,1.57l-1.16-1.09C2.2.75,5.63-.14,8.91.02c2.99.15,5.34,1.13,6.6,2.78l-1.26.97Z"/>
      <g>
        <path class="cls-1" d="m12.19,12.62c-1.92,0-3.48-1.56-3.48-3.48s1.56-3.48,3.48-3.48,3.48,1.56,3.48,3.48-1.56,3.48-3.48,3.48Zm0-5.37c-1.04,0-1.89.85-1.89,1.89s.85,1.89,1.89,1.89,1.89-.85,1.89-1.89-.85-1.89-1.89-1.89Z"/>
        <path class="cls-1" d="m7.53,13.62c-.26,0-.51,0-.77-.02-2.99-.15-5.34-1.13-6.6-2.78l1.26-.97c1.31,1.71,3.95,2.09,5.41,2.16,3,.15,5.9-.7,6.72-1.57l1.16,1.09c-1.16,1.24-4.16,2.1-7.19,2.1Z"/>
      </g>
    </g>
  </g>
</svg>