<?xml version="1.0" encoding="UTF-8"?>
<svg id="_レイヤー_2" data-name="レイヤー 2" xmlns="http://www.w3.org/2000/svg" viewBox="0 0 13.15 13.15">
  <defs>
    <style>
      .cls-1 {
        fill: #366180;
        stroke-width: 0px;
      }
    </style>
  </defs>
  <g id="design">
    <g>
      <g>
        <g>
          <path class="cls-1" d="m4.85,13c-1.2,0-2.41-.46-3.32-1.37-1.83-1.83-1.83-4.81,0-6.65,1.83-1.83,4.81-1.83,6.65,0,1.83,1.83,1.83,4.81,0,6.65-.92.92-2.12,1.37-3.32,1.37Zm-2.56-7.26c-1.41,1.41-1.41,3.71,0,5.13,1.41,1.41,3.71,1.41,5.13,0,1.41-1.41,1.41-3.71,0-5.13s-3.71-1.41-5.13,0h0Z"/>
          <path class="cls-1" d="m4.85,13.15c-1.3,0-2.51-.5-3.43-1.42-1.89-1.89-1.89-4.97,0-6.86,1.89-1.89,4.97-1.89,6.86,0,1.89,1.89,1.89,4.97,0,6.86-.91.91-2.13,1.42-3.43,1.42Zm0-9.39c-1.17,0-2.33.44-3.22,1.33C-.14,6.86-.14,9.74,1.63,11.52c.86.86,2,1.33,3.22,1.33s2.36-.47,3.22-1.33c1.77-1.77,1.77-4.66,0-6.43-.89-.89-2.05-1.33-3.22-1.33Zm0,8.32c-.97,0-1.93-.37-2.67-1.1-1.47-1.47-1.47-3.87,0-5.34h0c.71-.71,1.66-1.1,2.67-1.1h0c1.01,0,1.96.39,2.67,1.1s1.1,1.66,1.1,2.67-.39,1.96-1.1,2.67c-.74.74-1.7,1.1-2.67,1.1Zm0-7.25c-.93,0-1.8.36-2.46,1.02h0c-1.36,1.35-1.36,3.56,0,4.92.66.66,1.53,1.02,2.46,1.02h0c.93,0,1.8-.36,2.46-1.02.66-.66,1.02-1.53,1.02-2.46s-.36-1.8-1.02-2.46c-.66-.66-1.53-1.02-2.46-1.02h0Zm-2.56.91h0,0Z"/>
        </g>
        <g>
          <rect class="cls-1" x="6.85" y="2.56" width="6.39" height="1.07" transform="translate(.75 8.01) rotate(-44.98)"/>
          <path class="cls-1" d="m8.17,5.89h0s-.08-.02-.11-.04l-.76-.76c-.06-.06-.06-.15,0-.21L11.82.35c.06-.06.15-.06.21,0l.76.76c.06.06.06.15,0,.21l-4.52,4.52s-.07.04-.11.04Zm-.55-.91l.55.55L12.47,1.22l-.55-.55-4.3,4.3Z"/>
        </g>
      </g>
      <g>
        <polygon class="cls-1" points="11.56 6.05 9.95 3.2 7.1 1.58 13 .15 11.56 6.05"/>
        <path class="cls-1" d="m11.56,6.2c-.05,0-.1-.03-.13-.08l-1.59-2.81-2.81-1.59c-.05-.03-.08-.09-.07-.15,0-.06.05-.11.11-.12L12.96,0s.1,0,.14.04c.04.04.05.09.04.14l-1.43,5.89c-.01.06-.06.1-.12.11,0,0-.01,0-.02,0ZM7.5,1.64l2.52,1.43s.04.03.06.06l1.43,2.52L12.79.35l-5.29,1.29Z"/>
      </g>
    </g>
  </g>
</svg>