<?xml version="1.0" encoding="UTF-8"?>
<svg id="_レイヤー_2" data-name="レイヤー 2" xmlns="http://www.w3.org/2000/svg" xmlns:xlink="http://www.w3.org/1999/xlink" viewBox="0 0 90.65 129.55">
  <defs>
    <style>
      .cls-1 {
        fill: url(#_新規グラデーションスウォッチ_1-26);
      }

      .cls-1, .cls-2, .cls-3, .cls-4, .cls-5, .cls-6, .cls-7, .cls-8, .cls-9, .cls-10, .cls-11, .cls-12, .cls-13, .cls-14, .cls-15, .cls-16, .cls-17, .cls-18, .cls-19, .cls-20, .cls-21, .cls-22, .cls-23, .cls-24, .cls-25, .cls-26, .cls-27 {
        stroke-width: 0px;
      }

      .cls-2 {
        fill: url(#_新規グラデーションスウォッチ_1);
      }

      .cls-3 {
        fill: url(#_新規グラデーションスウォッチ_1-19);
      }

      .cls-4 {
        fill: url(#_新規グラデーションスウォッチ_1-23);
      }

      .cls-5 {
        fill: url(#_新規グラデーションスウォッチ_1-2);
      }

      .cls-6 {
        fill: url(#_新規グラデーションスウォッチ_1-25);
      }

      .cls-28 {
        opacity: .5;
      }

      .cls-7 {
        fill: url(#_新規グラデーションスウォッチ_1-9);
      }

      .cls-8 {
        fill: url(#_新規グラデーションスウォッチ_1-21);
      }

      .cls-9 {
        fill: url(#_新規グラデーションスウォッチ_1-16);
      }

      .cls-10 {
        fill: url(#_新規グラデーションスウォッチ_1-3);
      }

      .cls-11 {
        fill: url(#_新規グラデーションスウォッチ_1-20);
      }

      .cls-12 {
        fill: url(#_新規グラデーションスウォッチ_1-10);
      }

      .cls-13 {
        fill: url(#_新規グラデーションスウォッチ_1-15);
      }

      .cls-14 {
        fill: url(#_新規グラデーションスウォッチ_1-18);
      }

      .cls-15 {
        fill: url(#_新規グラデーションスウォッチ_1-4);
      }

      .cls-16 {
        fill: url(#_新規グラデーションスウォッチ_1-8);
      }

      .cls-17 {
        fill: url(#_新規グラデーションスウォッチ_1-13);
      }

      .cls-18 {
        fill: url(#_新規グラデーションスウォッチ_1-12);
      }

      .cls-19 {
        fill: url(#_新規グラデーションスウォッチ_1-24);
      }

      .cls-20 {
        fill: url(#_新規グラデーションスウォッチ_1-6);
      }

      .cls-21 {
        fill: url(#_新規グラデーションスウォッチ_1-17);
      }

      .cls-22 {
        fill: url(#_新規グラデーションスウォッチ_1-11);
      }

      .cls-23 {
        fill: url(#_新規グラデーションスウォッチ_1-27);
      }

      .cls-24 {
        fill: url(#_新規グラデーションスウォッチ_1-5);
      }

      .cls-25 {
        fill: url(#_新規グラデーションスウォッチ_1-22);
      }

      .cls-26 {
        fill: url(#_新規グラデーションスウォッチ_1-14);
      }

      .cls-27 {
        fill: url(#_新規グラデーションスウォッチ_1-7);
      }

      .cls-29 {
        fill: none;
        stroke: #386280;
        stroke-linecap: round;
        stroke-linejoin: round;
        stroke-width: 1.5px;
      }
    </style>
    <linearGradient id="_新規グラデーションスウォッチ_1" data-name="新規グラデーションスウォッチ 1" x1="-228.81" y1="364.97" x2="101.93" y2="-101.04" gradientUnits="userSpaceOnUse">
      <stop offset="0" stop-color="#c9ddf1"/>
      <stop offset=".06" stop-color="#c1daef" stop-opacity=".97"/>
      <stop offset=".15" stop-color="#add2ec" stop-opacity=".89"/>
      <stop offset=".26" stop-color="#8cc5e6" stop-opacity=".75"/>
      <stop offset=".38" stop-color="#5fb2df" stop-opacity=".57"/>
      <stop offset=".52" stop-color="#259cd5" stop-opacity=".33"/>
      <stop offset=".54" stop-color="#1e99d4" stop-opacity=".3"/>
      <stop offset=".76" stop-color="#0075bb"/>
      <stop offset=".96" stop-color="#005b94"/>
    </linearGradient>
    <linearGradient id="_新規グラデーションスウォッチ_1-2" data-name="新規グラデーションスウォッチ 1" x1="-208.4" y1="379.46" x2="122.35" y2="-86.55" xlink:href="#_新規グラデーションスウォッチ_1"/>
    <linearGradient id="_新規グラデーションスウォッチ_1-3" data-name="新規グラデーションスウォッチ 1" x1="-226.19" y1="366.83" x2="104.55" y2="-99.18" xlink:href="#_新規グラデーションスウォッチ_1"/>
    <linearGradient id="_新規グラデーションスウォッチ_1-4" data-name="新規グラデーションスウォッチ 1" x1="-211.01" y1="377.6" x2="119.73" y2="-88.41" xlink:href="#_新規グラデーションスウォッチ_1"/>
    <linearGradient id="_新規グラデーションスウォッチ_1-5" data-name="新規グラデーションスウォッチ 1" x1="-231.84" y1="362.82" x2="98.9" y2="-103.19" xlink:href="#_新規グラデーションスウォッチ_1"/>
    <linearGradient id="_新規グラデーションスウォッチ_1-6" data-name="新規グラデーションスウォッチ 1" x1="-236.99" y1="359.16" x2="93.75" y2="-106.84" xlink:href="#_新規グラデーションスウォッチ_1"/>
    <linearGradient id="_新規グラデーションスウォッチ_1-7" data-name="新規グラデーションスウォッチ 1" x1="-205.33" y1="381.63" x2="125.41" y2="-84.37" xlink:href="#_新規グラデーションスウォッチ_1"/>
    <linearGradient id="_新規グラデーションスウォッチ_1-8" data-name="新規グラデーションスウォッチ 1" x1="-200.19" y1="385.28" x2="130.56" y2="-80.72" xlink:href="#_新規グラデーションスウォッチ_1"/>
    <linearGradient id="_新規グラデーションスウォッチ_1-9" data-name="新規グラデーションスウォッチ 1" x1="-220.87" y1="370.6" x2="109.87" y2="-95.4" xlink:href="#_新規グラデーションスウォッチ_1"/>
    <linearGradient id="_新規グラデーションスウォッチ_1-10" data-name="新規グラデーションスウォッチ 1" x1="-216.34" y1="373.82" x2="114.41" y2="-92.18" xlink:href="#_新規グラデーションスウォッチ_1"/>
    <linearGradient id="_新規グラデーションスウォッチ_1-11" data-name="新規グラデーションスウォッチ 1" x1="-215.46" y1="374.44" x2="115.28" y2="-91.56" xlink:href="#_新規グラデーションスウォッチ_1"/>
    <linearGradient id="_新規グラデーションスウォッチ_1-12" data-name="新規グラデーションスウォッチ 1" x1="-221.71" y1="370.01" x2="109.03" y2="-96" xlink:href="#_新規グラデーションスウォッチ_1"/>
    <linearGradient id="_新規グラデーションスウォッチ_1-13" data-name="新規グラデーションスウォッチ 1" x1="-231.84" y1="362.82" x2="98.9" y2="-103.19" xlink:href="#_新規グラデーションスウォッチ_1"/>
    <linearGradient id="_新規グラデーションスウォッチ_1-14" data-name="新規グラデーションスウォッチ 1" x1="-205.36" y1="381.61" x2="125.38" y2="-84.4" xlink:href="#_新規グラデーションスウォッチ_1"/>
    <linearGradient id="_新規グラデーションスウォッチ_1-15" data-name="新規グラデーションスウォッチ 1" x1="-221.49" y1="370.17" x2="109.26" y2="-95.84" xlink:href="#_新規グラデーションスウォッチ_1"/>
    <linearGradient id="_新規グラデーションスウォッチ_1-16" data-name="新規グラデーションスウォッチ 1" x1="-215.72" y1="374.26" x2="115.02" y2="-91.75" xlink:href="#_新規グラデーションスウォッチ_1"/>
    <linearGradient id="_新規グラデーションスウォッチ_1-17" data-name="新規グラデーションスウォッチ 1" x1="-230" y1="364.12" x2="100.74" y2="-101.88" xlink:href="#_新規グラデーションスウォッチ_1"/>
    <linearGradient id="_新規グラデーションスウォッチ_1-18" data-name="新規グラデーションスウォッチ 1" x1="-207.2" y1="380.31" x2="123.54" y2="-85.7" xlink:href="#_新規グラデーションスウォッチ_1"/>
    <linearGradient id="_新規グラデーションスウォッチ_1-19" data-name="新規グラデーションスウォッチ 1" x1="-211.28" y1="377.41" x2="119.46" y2="-88.6" xlink:href="#_新規グラデーションスウォッチ_1"/>
    <linearGradient id="_新規グラデーションスウォッチ_1-20" data-name="新規グラデーションスウォッチ 1" x1="-225.92" y1="367.02" x2="104.82" y2="-98.99" xlink:href="#_新規グラデーションスウォッチ_1"/>
    <linearGradient id="_新規グラデーションスウォッチ_1-21" data-name="新規グラデーションスウォッチ 1" x1="-218.6" y1="372.21" x2="112.14" y2="-93.79" xlink:href="#_新規グラデーションスウォッチ_1"/>
    <linearGradient id="_新規グラデーションスウォッチ_1-22" data-name="新規グラデーションスウォッチ 1" x1="-275.03" y1="340.06" x2="55.71" y2="-125.94" gradientTransform="translate(175.3 -63.33) rotate(-2.02)" xlink:href="#_新規グラデーションスウォッチ_1"/>
    <linearGradient id="_新規グラデーションスウォッチ_1-23" data-name="新規グラデーションスウォッチ 1" x1="-276.32" y1="339.14" x2="54.42" y2="-126.86" gradientTransform="translate(175.3 -63.33) rotate(-2.02)" xlink:href="#_新規グラデーションスウォッチ_1"/>
    <linearGradient id="_新規グラデーションスウォッチ_1-24" data-name="新規グラデーションスウォッチ 1" x1="-269.05" y1="344.31" x2="61.7" y2="-121.7" gradientTransform="translate(175.3 -63.33) rotate(-2.02)" xlink:href="#_新規グラデーションスウォッチ_1"/>
    <linearGradient id="_新規グラデーションスウォッチ_1-25" data-name="新規グラデーションスウォッチ 1" x1="-265.71" y1="346.67" x2="65.03" y2="-119.33" gradientTransform="translate(175.3 -63.33) rotate(-2.02)" xlink:href="#_新規グラデーションスウォッチ_1"/>
    <linearGradient id="_新規グラデーションスウォッチ_1-26" data-name="新規グラデーションスウォッチ 1" x1="-262.09" y1="349.24" x2="68.65" y2="-116.76" gradientTransform="translate(175.3 -63.33) rotate(-2.02)" xlink:href="#_新規グラデーションスウォッチ_1"/>
    <linearGradient id="_新規グラデーションスウォッチ_1-27" data-name="新規グラデーションスウォッチ 1" x1="-272.41" y1="341.92" x2="58.34" y2="-124.08" gradientTransform="translate(175.3 -63.33) rotate(-2.02)" xlink:href="#_新規グラデーションスウォッチ_1"/>
  </defs>
  <g id="design">
    <g>
      <g>
        <g>
          <g>
            <g>
              <g>
                <line class="cls-29" x1=".75" y1="26.65" x2="21.86" y2="26.65"/>
                <line class="cls-29" x1="31.45" y1="26.65" x2="52.56" y2="26.65"/>
              </g>
              <g>
                <line class="cls-29" x1="26.65" y1=".75" x2="26.65" y2="20.4"/>
                <line class="cls-29" x1="26.65" y1="32.91" x2="26.65" y2="52.56"/>
              </g>
            </g>
            <g>
              <g>
                <line class="cls-29" x1="12.84" y1="12.84" x2="17.18" y2="17.18"/>
                <line class="cls-29" x1="9.52" y1="9.52" x2="11.44" y2="11.44"/>
                <line class="cls-29" x1="40.5" y1="40.5" x2="36.16" y2="36.16"/>
                <line class="cls-29" x1="43.81" y1="43.81" x2="41.89" y2="41.89"/>
              </g>
              <line class="cls-29" x1="17.18" y1="36.13" x2="12.63" y2="40.68"/>
              <line class="cls-29" x1="40.5" y1="12.84" x2="36.16" y2="17.18"/>
              <line class="cls-29" x1="43.81" y1="9.52" x2="41.89" y2="11.44"/>
              <line class="cls-29" x1="9.52" y1="43.81" x2="11.44" y2="41.89"/>
            </g>
            <g>
              <g>
                <line class="cls-29" x1="8.41" y1="18.88" x2="14.33" y2="21.4"/>
                <line class="cls-29" x1="38.98" y1="31.91" x2="44.9" y2="34.43"/>
              </g>
              <g>
                <line class="cls-29" x1="34.43" y1="8.41" x2="31.91" y2="14.33"/>
                <line class="cls-29" x1="21.4" y1="38.98" x2="18.88" y2="44.9"/>
              </g>
            </g>
            <g>
              <g>
                <line class="cls-29" x1="19.25" y1="8.26" x2="21.65" y2="14.22"/>
                <line class="cls-29" x1="31.66" y1="39.08" x2="34.06" y2="45.05"/>
              </g>
              <g>
                <line class="cls-29" x1="45.05" y1="19.25" x2="39.08" y2="21.65"/>
                <line class="cls-29" x1="14.22" y1="31.66" x2="8.26" y2="34.06"/>
              </g>
            </g>
          </g>
          <path class="cls-29" d="m26.65,11.83c0,14.05-.69,14.83-13.09,14.83,12.4,0,13.09.78,13.09,14.83,0-14.05.69-14.83,13.09-14.83-12.4,0-13.09-.78-13.09-14.83Z"/>
        </g>
        <g>
          <path class="cls-29" d="m11.33,114.86c-1.3,8.79,6.98,15.96,15.5,13.42h0c6.45-1.93,10.13-8.73,8.15-15.17-1.53-4.97-2.7-9.73-1.73-10.11,5.43-2.12,14.54-5.79,17.03-6.53l11.77-3.52c2.23-.67,4.15-2.12,5.38-4.1l13.56-21.7,8.9-19.32s-.57-2.73-4.36.39c-3.79,3.12-6.54,9.74-6.54,9.74,0,0-1.38-6.3-2.11-7.08-.73-.78-6.8-7.5-8.65-7.86-1.85-.36-1.95,4.56.02,7.29,1.97,2.73,4.29,5.76,4.29,5.76l.99,9.15-2.61-4.03s1.12-1.25.8-2.31-1.27-2.03-3.06-1.91c-.76.05-1.07.1-1.18.14-.49-.54-2.96-3.17-4.54-3.74-1.76-.63-7.69-3.84-8.71-3.62s-1.3,2.04,1.02,5.08c2.32,3.04,5.84,4.56,5.84,4.56l-1.74.85s-7.2-4.98-8.57-4.57c-1.37.41-1.57,2.79.28,4.56,1.85,1.77,2.83,2.8,2.83,2.8,0,0-10.86,4.98-13.83,5.87-2.97.89-12.26,6.97-14.24,9.48-1.99,2.5-8.54,9.67-9.84,12.3-1.28,2.59-3.16,13.83-4.68,24.16Zm52.93-48.39l1.26-.38s.76,1.61,1.26,2.56c.51.95-1.27,1.99-1.27,1.99,0,0-.03-1.65-.09-1.96-.06-.31-1.16-2.22-1.16-2.22Zm-12.89,6.79l7.32-3.83.91,2.24-.87,2.37c-3.6.7-7.36-.78-7.36-.78Z"/>
          <path class="cls-29" d="m53.92,63.05l3.31,2.74,2.38,5.88-2.6,7.12s-21.39,3.7-28.1,12.37"/>
          <path class="cls-29" d="m64.43,84.53s1.47-14.24.99-15.84c-.48-1.6-4.55-7.44-6.04-8.43"/>
          <path class="cls-29" d="m67.6,57.23l3.34,3.98,2.61,4.03.75,1.11c.42.63.56,1.42.37,2.15l-2.53,9.76"/>
          <line class="cls-29" x1="79" y1="57.97" x2="80.63" y2="63.41"/>
          <polyline class="cls-29" points="61.12 59.41 63.12 60.99 65.52 66.1"/>
        </g>
      </g>
      <g class="cls-28">
        <g>
          <g>
            <g>
              <g>
                <path class="cls-2" d="m21.86,27.39H.75c-.41,0-.73-.33-.73-.73s.33-.73.73-.73h21.11c.41,0,.73.33.73.73s-.33.73-.73.73Z"/>
                <path class="cls-5" d="m52.56,27.39h-21.11c-.41,0-.73-.33-.73-.73s.33-.73.73-.73h21.11c.41,0,.73.33.73.73s-.33.73-.73.73Z"/>
              </g>
              <g>
                <path class="cls-10" d="m26.65,21.13c-.41,0-.73-.33-.73-.73V.75c0-.41.33-.73.73-.73s.73.33.73.73v19.65c0,.41-.33.73-.73.73Z"/>
                <path class="cls-15" d="m26.65,53.29c-.41,0-.73-.33-.73-.73v-19.65c0-.41.33-.73.73-.73s.73.33.73.73v19.65c0,.41-.33.73-.73.73Z"/>
              </g>
            </g>
            <g>
              <g>
                <path class="cls-24" d="m17.18,17.91c-.19,0-.38-.07-.52-.21l-4.34-4.34c-.29-.29-.29-.75,0-1.04s.75-.29,1.04,0l4.34,4.34c.29.29.29.75,0,1.04-.14.14-.33.21-.52.21Z"/>
                <path class="cls-20" d="m11.44,12.18c-.19,0-.38-.07-.52-.21l-1.92-1.92c-.29-.29-.29-.75,0-1.04s.75-.29,1.04,0l1.92,1.92c.29.29.29.75,0,1.04-.14.14-.33.21-.52.21Z"/>
                <path class="cls-27" d="m40.5,41.23c-.19,0-.38-.07-.52-.21l-4.34-4.34c-.29-.29-.29-.75,0-1.04s.75-.29,1.04,0l4.34,4.34c.29.29.29.75,0,1.04-.14.14-.33.21-.52.21Z"/>
                <path class="cls-16" d="m43.81,44.54c-.19,0-.38-.07-.52-.21l-1.92-1.92c-.29-.29-.29-.75,0-1.04s.75-.29,1.04,0l1.92,1.92c.29.29.29.75,0,1.04-.14.14-.33.21-.52.21Z"/>
              </g>
              <path class="cls-7" d="m12.63,41.41c-.19,0-.38-.07-.52-.21-.29-.29-.29-.75,0-1.04l4.55-4.55c.29-.29.75-.29,1.04,0s.29.75,0,1.04l-4.55,4.55c-.14.14-.33.21-.52.21Z"/>
              <path class="cls-12" d="m36.16,17.91c-.19,0-.38-.07-.52-.21-.29-.29-.29-.75,0-1.04l4.34-4.34c.29-.29.75-.29,1.04,0s.29.75,0,1.04l-4.34,4.34c-.14.14-.33.21-.52.21Z"/>
              <path class="cls-22" d="m41.89,12.18c-.19,0-.38-.07-.52-.21-.29-.29-.29-.75,0-1.04l1.92-1.92c.29-.29.75-.29,1.04,0s.29.75,0,1.04l-1.92,1.92c-.14.14-.33.21-.52.21Z"/>
              <path class="cls-18" d="m9.52,44.54c-.19,0-.38-.07-.52-.21-.29-.29-.29-.75,0-1.04l1.92-1.92c.29-.29.75-.29,1.04,0s.29.75,0,1.04l-1.92,1.92c-.14.14-.33.21-.52.21Z"/>
            </g>
            <g>
              <g>
                <path class="cls-17" d="m14.33,22.14c-.1,0-.19-.02-.29-.06l-5.92-2.52c-.37-.16-.55-.59-.39-.96.16-.37.59-.55.96-.39l5.92,2.52c.37.16.55.59.39.96-.12.28-.39.45-.68.45Z"/>
                <path class="cls-26" d="m44.9,35.16c-.1,0-.19-.02-.29-.06l-5.92-2.52c-.37-.16-.55-.59-.39-.96s.59-.55.96-.39l5.92,2.52c.37.16.55.59.39.96-.12.28-.39.45-.68.45Z"/>
              </g>
              <g>
                <path class="cls-13" d="m31.91,15.06c-.1,0-.19-.02-.29-.06-.37-.16-.55-.59-.39-.96l2.52-5.92c.16-.37.59-.55.96-.39.37.16.55.59.39.96l-2.52,5.92c-.12.28-.39.45-.68.45Z"/>
                <path class="cls-9" d="m18.88,45.63c-.1,0-.19-.02-.29-.06-.37-.16-.55-.59-.39-.96l2.52-5.92c.16-.37.59-.55.96-.39.37.16.55.59.39.96l-2.52,5.92c-.12.28-.39.45-.68.45Z"/>
              </g>
            </g>
            <g>
              <g>
                <path class="cls-21" d="m21.65,14.96c-.29,0-.57-.17-.68-.46l-2.4-5.97c-.15-.38.03-.8.41-.95.38-.15.8.03.95.41l2.4,5.97c.15.38-.03.8-.41.95-.09.04-.18.05-.27.05Z"/>
                <path class="cls-14" d="m34.06,45.78c-.29,0-.57-.17-.68-.46l-2.4-5.97c-.15-.38.03-.8.41-.95.37-.15.8.03.95.41l2.4,5.97c.15.38-.03.8-.41.95-.09.04-.18.05-.27.05Z"/>
              </g>
              <g>
                <path class="cls-3" d="m39.08,22.38c-.29,0-.57-.17-.68-.46-.15-.38.03-.8.41-.95l5.97-2.4c.38-.15.8.03.95.41.15.38-.03.8-.41.95l-5.97,2.4c-.09.04-.18.05-.27.05Z"/>
                <path class="cls-11" d="m8.26,34.79c-.29,0-.57-.17-.68-.46-.15-.38.03-.8.41-.95l5.97-2.4c.38-.15.8.03.95.41.15.38-.03.8-.41.95l-5.97,2.4c-.09.04-.18.05-.27.05Z"/>
              </g>
            </g>
          </g>
          <path class="cls-8" d="m26.65,42.21c-.41,0-.73-.33-.73-.73,0-13.7-.35-14.09-12.35-14.09-.41,0-.73-.33-.73-.73s.33-.73.73-.73c12.01,0,12.35-.4,12.35-14.09,0-.41.33-.73.73-.73s.73.33.73.73c0,13.7.35,14.09,12.35,14.09.41,0,.73.33.73.73s-.33.73-.73.73c-12.01,0-12.35.4-12.35,14.09,0,.41-.33.73-.73.73Zm-4.13-15.56c2.25.68,3.48,1.98,4.13,4.42.66-2.44,1.88-3.74,4.13-4.42-2.25-.68-3.48-1.98-4.13-4.42-.66,2.44-1.88,3.74-4.13,4.42Z"/>
        </g>
        <g>
          <path class="cls-25" d="m23.78,129.52c-3.21.11-6.36-.98-8.86-3.14-3.35-2.9-4.96-7.24-4.31-11.62h0c2.06-13.97,3.66-22.17,4.75-24.38.97-1.96,4.48-6.05,7.31-9.35,1.1-1.28,2.04-2.38,2.61-3.09,2.14-2.69,11.66-8.84,14.61-9.72,2.38-.71,10.08-4.18,12.79-5.4-.47-.48-1.17-1.17-2.08-2.04-1.24-1.18-1.81-2.76-1.49-4.1.2-.85.75-1.47,1.51-1.69,1.24-.38,4.85,1.77,7.64,3.61-1.14-.78-2.46-1.88-3.54-3.3-1.6-2.1-2.24-3.94-1.78-5.18.21-.56.64-.95,1.19-1.07.77-.17,2.28.46,6.17,2.31,1.21.58,2.36,1.12,2.94,1.33,1.52.55,3.62,2.64,4.55,3.63.2-.03.48-.05.87-.08,1.68-.11,2.76.59,3.36,1.49l-.15-1.38c-.51-.67-2.48-3.27-4.18-5.61-1.58-2.19-2.09-5.97-1.02-7.64.41-.64,1.04-.94,1.74-.8.83.16,2.64,1.14,8.76,7.78l.28.3c.57.6,1.29,3.21,1.81,5.34,1.13-2.26,3.23-5.92,5.84-8.07,1.73-1.42,3.1-1.93,4.19-1.54.88.31,1.26,1.13,1.36,1.57.03.15.01.31-.05.46l-8.9,19.32-13.61,21.78c-1.33,2.13-3.39,3.7-5.79,4.41l-11.77,3.52c-1.86.56-7.54,2.8-12.55,4.77-1.53.6-3,1.18-4.28,1.68-.1.39-.18,2.11,2.02,9.27,1.01,3.29.67,6.77-.96,9.81-1.63,3.06-4.36,5.28-7.69,6.28-1.07.32-2.17.5-3.26.54Zm-11.72-14.55c-.57,3.88.86,7.73,3.82,10.3,2.96,2.57,6.98,3.43,10.74,2.31,2.94-.88,5.36-2.85,6.81-5.56,1.44-2.69,1.74-5.78.85-8.69-2.92-9.5-2.27-10.63-1.29-11.01,1.31-.51,2.83-1.11,4.41-1.74,5.04-1.99,10.75-4.24,12.67-4.81l11.77-3.52c2.06-.62,3.83-1.96,4.97-3.79l13.56-21.7,8.73-18.96c-.06-.11-.17-.25-.34-.31-.25-.08-1.03-.13-2.76,1.29-3.6,2.97-6.3,9.39-6.33,9.46-.12.3-.42.48-.74.45-.32-.03-.58-.26-.65-.57-.63-2.87-1.55-6.26-1.94-6.74l-.28-.31c-6.03-6.54-7.62-7.26-7.96-7.33-.06,0-.11-.02-.22.15-.61.95-.41,4.08.98,5.99,1.95,2.69,4.26,5.72,4.28,5.75.08.11.13.23.15.37l.99,9.15c.04.34-.16.66-.48.77-.32.12-.68,0-.86-.29l-2.61-4.03c-.18-.28-.15-.64.07-.89.27-.31.79-1.11.64-1.61-.17-.56-.7-1.5-2.3-1.38-.78.05-.96.1-.98.1-.28.11-.58.03-.79-.2-1.27-1.39-3.14-3.15-4.25-3.55-.65-.23-1.78-.77-3.08-1.39-1.74-.83-4.64-2.21-5.26-2.2.01,0-.04.01-.08.14-.16.43,0,1.71,1.57,3.78,2.17,2.84,5.51,4.31,5.54,4.33.26.11.44.37.44.66,0,.29-.15.55-.41.68l-1.74.85c-.24.12-.52.09-.74-.06-3.2-2.21-7.19-4.53-7.98-4.46-.28.09-.41.38-.47.62-.15.63.04,1.71,1.08,2.7,1.85,1.76,2.81,2.79,2.85,2.83.16.17.23.41.19.64-.05.23-.2.43-.41.53-.45.2-10.94,5.02-13.93,5.91-2.97.89-12.05,6.92-13.88,9.23-.58.73-1.54,1.84-2.64,3.13-2.63,3.06-6.22,7.25-7.11,9.04-.7,1.42-2.07,6.73-4.61,23.94h0Zm59.78-53.73l.65,1.01-.2-1.83c-.13.32-.3.61-.45.83Zm-13.08-2.3c.24.16.47.32.69.47l.04-.02c-.23-.13-.47-.28-.74-.45Zm-1.62,16.02c-3.13.11-5.89-.96-6.02-1.02-.27-.11-.45-.36-.46-.64-.01-.29.14-.56.39-.69l7.32-3.83c.18-.1.4-.11.59-.04.19.07.35.22.43.41l.91,2.24c.07.17.07.36,0,.53l-.87,2.37c-.09.24-.3.42-.55.47-.59.11-1.17.17-1.75.2Zm-3.82-1.88c1.26.3,3.08.58,4.88.32l.62-1.71-.5-1.23-5.01,2.62Zm12.23-1.69c-.13,0-.27-.03-.38-.09-.23-.13-.37-.37-.38-.63-.01-.75-.05-1.68-.08-1.85-.06-.17-.61-1.18-1.07-1.98-.11-.19-.13-.43-.05-.64s.26-.37.47-.43l1.26-.38c.35-.11.72.06.87.39,0,.02.75,1.61,1.25,2.53.62,1.16-.45,2.33-1.55,2.97-.11.06-.23.1-.35.1Z"/>
          <path class="cls-4" d="m28.92,91.89c-.17,0-.33-.04-.47-.15-.32-.25-.38-.71-.13-1.03,6.37-8.22,25.01-11.99,28.14-12.57l2.36-6.46-2.2-5.45-3.16-2.62c-.31-.26-.35-.72-.1-1.03.26-.31.72-.36,1.03-.1l3.31,2.74c.09.08.17.18.21.29l2.38,5.88c.07.17.07.36,0,.53l-2.6,7.12c-.09.25-.31.43-.56.47-.21.04-21.19,3.75-27.65,12.1-.14.18-.34.28-.55.28Z"/>
          <path class="cls-19" d="m64.46,85.26s-.07,0-.1,0c-.4-.04-.7-.4-.65-.8.6-5.85,1.32-14.55,1.02-15.55-.42-1.42-4.39-7.12-5.75-8.03-.34-.23-.43-.68-.2-1.02.23-.34.68-.43,1.02-.2,1.64,1.09,5.82,7.12,6.34,8.83.49,1.65-.72,13.72-.96,16.12-.04.37-.34.65-.7.66Z"/>
          <path class="cls-6" d="m72.16,78.98c-.07,0-.14,0-.21-.02-.39-.1-.63-.5-.53-.89l2.53-9.76c.14-.53.04-1.1-.27-1.56l-.75-1.11-2.62-4.04-3.29-3.9c-.26-.31-.22-.77.09-1.03s.77-.22,1.03.09l3.34,3.98,3.41,5.2c.54.81.71,1.81.47,2.75l-2.53,9.76c-.08.32-.37.54-.68.55Z"/>
          <path class="cls-1" d="m80.65,64.14c-.33.01-.63-.2-.73-.52l-1.62-5.44c-.12-.39.1-.8.49-.91.39-.12.8.1.91.49l1.62,5.44c.12.39-.1.8-.49.91-.06.02-.12.03-.18.03Z"/>
          <path class="cls-23" d="m65.55,66.83c-.28.01-.56-.15-.69-.42l-2.32-4.95-1.87-1.47c-.32-.25-.37-.71-.12-1.03.25-.32.71-.37,1.03-.12l2,1.58c.09.07.16.16.21.26l2.4,5.11c.17.37.01.8-.35.98-.09.04-.19.07-.29.07Z"/>
        </g>
      </g>
    </g>
  </g>
</svg>