<?xml version="1.0" encoding="UTF-8"?>
<svg id="_レイヤー_2" data-name="レイヤー 2" xmlns="http://www.w3.org/2000/svg" viewBox="0 0 24.31 25.99">
  <defs>
    <style>
      .cls-1 {
        fill: none;
        stroke: #39385d;
        stroke-miterlimit: 10;
      }

      .cls-2 {
        fill: #39385d;
        stroke-width: 0px;
      }
    </style>
  </defs>
  <g id="design">
    <g>
      <path class="cls-1" d="m20.25,19.8l3.27,3.78c.42.48.36,1.21-.12,1.63h0c-.48.42-1.21.36-1.63-.12l-3.27-3.78"/>
      <g>
        <circle class="cls-1" cx="11.99" cy="11.99" r="11.49"/>
        <path class="cls-2" d="m19.29,17.45c-.07,0-.13-.02-.2-.02h0s0,0,0,0c-.01-.01-.01-.04-.03-.05-.01,0-.03,0-.04,0-.03-.03-.06-.08-.08-.13.03,0,.05,0,.07,0,.95-.03,1.93-.16,1.97-.17.13-.02.25-.09.32-.21.07-.11.09-.25.05-.38-.24-.73-.32-1.78-.32-2.49,0-.37,0-1.5-.42-2.57-.56-1.43-1.65-2.19-3.15-2.19-.58,0-.93.15-1.14.3-.11-.03-.23-.05-.36-.05-1.78,0-2.76,2.68-2.76,4.54,0,.17,0,.37-.02.59-.19-.06-.37-.11-.51-.16-.18-.05-.32-.09-.39-.12-.35-.18-.53-.81-.59-1.23.61-.49,1.06-1.21,1.29-2.15.42-.19.9-.66.9-1.62,0-.34-.07-.57-.16-.75.15-.52.16-1.08.16-1.54,0-1.79-.76-3.91-4.38-3.91-1.23,0-2.08.36-2.66,1.13-.83.39-1.73,1.38-1.73,2.99,0,.49,0,.87.15,1.34-.08.18-.15.41-.15.74,0,.97.48,1.44.9,1.62.23.91.66,1.62,1.24,2.11-.06.41-.23,1.08-.6,1.26-.08.04-.21.07-.39.12-1.03.3-3.44,1.04-4.28,3.61.22.37.47.73.73,1.07.41-2.73,2.67-3.42,3.82-3.75.13-.04.23-.07.33-.1.02.04.02.09.05.12.67.67,1.6,1.05,2.56,1.05h0c.97,0,1.87-.38,2.55-1.07.03-.03.02-.08.05-.11.09.03.2.06.33.1.19.06.43.13.67.21-.05.32-.11.63-.2.89-.04.12-.02.26.04.37.07.11.18.19.31.21.05,0,1.05.15,2.04.17,0,0,0,.01,0,.02-.03.05-.05.09-.08.13,0,0-.02,0-.03,0-.01.01-.01.03-.03.04-.03,0-.06,0-.1,0-1.3.05-2.83,1.04-3.21,3.2-.11.71-.2,2.11-.25,3.05.13,0,.26.02.4.02,0,0,0,0,0,0,.16,0,.32-.02.49-.02.05-.92.13-2.25.23-2.9.3-1.69,1.47-2.46,2.43-2.46.07,0,.12-.04.18-.05.26.28.57.49.89.63.29.12.6.2.91.2h0s.04,0,.06,0c.64-.02,1.24-.32,1.73-.82.06.02.12.05.19.05.65,0,1.4.37,1.91,1.13.12-.14.22-.29.33-.44.08-.1.16-.21.24-.31-.63-.79-1.48-1.19-2.26-1.25ZM7.32,5.09c.09-.04.17-.1.22-.18.28-.41.72-.83,1.94-.83,2.33,0,3.42.94,3.42,2.95,0,.26,0,.54-.04.81-.05-.11-.11-.26-.19-.52-.19-.64-.48-1.6-1.63-1.6-.5,0-.84.1-1.1.17-.36.1-.56.1-.92,0-.27-.08-.6-.17-1.1-.17-1.15,0-1.44.96-1.63,1.6-.09.29-.15.45-.21.56-.02-.18-.02-.38-.02-.64,0-1.6,1.13-2.1,1.26-2.15Zm-.44,5.38c-.04-.2-.22-.35-.42-.38-.09-.01-.4-.11-.4-.76,0-.19.03-.28.04-.33.73-.15.96-.89,1.11-1.4.21-.71.33-.91.7-.91s.6.06.84.13c.22.06.44.13.72.13s.51-.06.73-.13c.24-.07.47-.13.84-.13s.49.21.7.91c.15.51.38,1.25,1.1,1.4.02.06.05.16.05.33,0,.65-.31.75-.39.76-.21.02-.39.18-.43.39-.2,1-.63,1.7-1.28,2.07-.1.06-.18.11-.26.17-.24.16-.41.28-1.05.28s-.82-.12-1.05-.28c-.08-.06-.17-.12-.26-.17-.65-.38-1.08-1.07-1.28-2.08Zm2.58,5.01h0c-.69,0-1.36-.27-1.85-.75.26-.33.42-.73.51-1.07.31.18.67.31,1.37.31s1.03-.11,1.32-.28c.09.34.24.72.49,1.04-.49.48-1.14.75-1.84.75Zm4.39.76c.02-.1.03-.2.05-.3.06-.35.11-.7.13-1,0-.06,0-.12.01-.18.11.12.24.22.36.27.01.05.04.08.06.13.17.47.45.87.8,1.18-.26,0-.52-.02-.77-.04-.24-.02-.47-.04-.66-.06Zm2.31-5.83s0,0,0,0c.01,0,.03,0,.04,0,.01,0,.03,0,.04.01,0,0,.02,0,.02,0,.1.03.2.03.29,0,.03-.01.05-.03.07-.05.05-.03.1-.04.13-.09,0,0,.16-.17.68-.17,1.13,0,1.89.53,2.32,1.62.16.4.24.81.29,1.19-.04-.02-.08-.04-.12-.05-1.19-.21-1.4-.34-1.64-.49l-.11-.06c-.91-.52-1.64-1.23-1.65-1.23-.11-.1-.26-.15-.4-.12-.14.03-.27.13-.32.27-.37.89-1.24,1.59-1.48,1.63-.05,0-.1.02-.15.04.27-1.32.96-2.55,1.75-2.55.06,0,.14.02.21.04Zm-.94,4.16c-.04-.18-.21-.32-.39-.34-.1-.02-.23-.09-.23-.39,0-.05,0-.09,0-.12.56-.17,1.29-.84,1.76-1.6.33.28.82.65,1.38.97l.09.05c.35.22.65.37,1.77.58,0,.03.01.06.01.11,0,.29-.12.37-.21.38-.19.02-.36.16-.4.35-.27,1.18-1.19,1.6-1.89,1.6s-1.62-.42-1.89-1.6Zm3.72,1.77c.38-.34.69-.78.86-1.31.13-.06.25-.15.36-.27.03.42.08.96.2,1.48-.38.04-.91.09-1.42.1Zm-1.83,1.87h0s-.07-.01-.11-.01c-.36-.03-.7-.19-.99-.47.15-.25.24-.54.24-.8.06.02.13.02.2.03.22.05.43.11.67.11.3,0,.58-.05.85-.14,0,.25.1.54.24.79-.32.31-.7.49-1.1.49Z"/>
      </g>
    </g>
  </g>
</svg>