<?xml version="1.0" encoding="UTF-8"?>
<svg id="_レイヤー_2" data-name="レイヤー 2" xmlns="http://www.w3.org/2000/svg" viewBox="0 0 17.8 19.96">
  <defs>
    <style>
      .cls-1 {
        fill: #02749c;
        stroke-width: 0px;
      }
    </style>
  </defs>
  <g id="design">
    <path class="cls-1" d="m8.9,19.96c-.31,0-.58-.19-.7-.47-.79-2-1.12-5.36-1.26-7.55-1.95-.14-4.46-.47-6.46-1.26-.31-.12-.5-.43-.47-.75s.26-.6.58-.67c.19-.04,4.18-.95,6.35-1.21.14-2.19.47-5.56,1.26-7.57.11-.29.39-.47.7-.47h0c.31,0,.58.19.7.47.79,2.01,1.13,5.38,1.26,7.57,2.25.26,6.17,1.17,6.36,1.21.32.07.55.35.58.68s-.17.63-.47.75c-2.01.79-4.52,1.12-6.46,1.26-.14,2.19-.47,5.55-1.26,7.55-.11.29-.39.47-.7.47ZM3.94,10.07c1.33.24,2.67.36,3.74.41.38.02.69.33.71.71.05,1.04.19,3.07.5,4.94.31-1.87.45-3.9.5-4.94.02-.38.33-.69.71-.71,1.08-.06,2.43-.17,3.77-.42-1.37-.27-2.89-.54-3.77-.59-.38-.02-.69-.33-.71-.71-.05-1.04-.19-3.07-.5-4.94-.31,1.87-.45,3.9-.5,4.94-.02.38-.33.69-.71.71-.82.04-2.35.31-3.74.59Z"/>
  </g>
</svg>