<?xml version="1.0" encoding="UTF-8"?>
<svg id="_レイヤー_2" data-name="レイヤー 2" xmlns="http://www.w3.org/2000/svg" xmlns:xlink="http://www.w3.org/1999/xlink" viewBox="0 0 245.39 72.87">
  <defs>
    <style>
      .cls-1 {
        fill: url(#_名称未設定グラデーション_5-14);
      }

      .cls-1, .cls-2, .cls-3, .cls-4, .cls-5, .cls-6, .cls-7, .cls-8, .cls-9, .cls-10, .cls-11, .cls-12, .cls-13, .cls-14, .cls-15, .cls-16, .cls-17, .cls-18, .cls-19 {
        stroke-width: 0px;
      }

      .cls-2 {
        fill: url(#_名称未設定グラデーション_5-15);
      }

      .cls-3 {
        fill: url(#_名称未設定グラデーション_5-17);
      }

      .cls-4 {
        fill: url(#_名称未設定グラデーション_5-13);
      }

      .cls-5 {
        fill: url(#_名称未設定グラデーション_5-10);
      }

      .cls-6 {
        fill: url(#_名称未設定グラデーション_5-16);
      }

      .cls-7 {
        fill: url(#_名称未設定グラデーション_5-18);
      }

      .cls-8 {
        fill: url(#_名称未設定グラデーション_5-11);
      }

      .cls-9 {
        fill: url(#_名称未設定グラデーション_5-12);
      }

      .cls-10 {
        fill: url(#_名称未設定グラデーション_5);
      }

      .cls-10, .cls-20 {
        opacity: .5;
      }

      .cls-11 {
        fill: url(#_名称未設定グラデーション_5-4);
      }

      .cls-12 {
        fill: url(#_名称未設定グラデーション_5-3);
      }

      .cls-13 {
        fill: url(#_名称未設定グラデーション_5-2);
      }

      .cls-14 {
        fill: url(#_名称未設定グラデーション_5-8);
      }

      .cls-15 {
        fill: url(#_名称未設定グラデーション_5-5);
      }

      .cls-16 {
        fill: url(#_名称未設定グラデーション_5-9);
      }

      .cls-17 {
        fill: url(#_名称未設定グラデーション_5-6);
      }

      .cls-18 {
        fill: url(#_名称未設定グラデーション_5-7);
      }

      .cls-19 {
        fill: #366180;
      }

      .cls-21 {
        fill: none;
        stroke: #366180;
        stroke-linecap: round;
        stroke-linejoin: round;
        stroke-width: 1.06px;
      }
    </style>
    <linearGradient id="_名称未設定グラデーション_5" data-name="名称未設定グラデーション 5" x1="-99.24" y1="-58.8" x2="244.87" y2="126.53" gradientUnits="userSpaceOnUse">
      <stop offset="0" stop-color="#c5dbf1"/>
      <stop offset=".06" stop-color="#bcd8ef" stop-opacity=".97"/>
      <stop offset=".14" stop-color="#a6d0ec" stop-opacity=".89"/>
      <stop offset=".25" stop-color="#81c2e8" stop-opacity=".76"/>
      <stop offset=".38" stop-color="#4eb0e1" stop-opacity=".58"/>
      <stop offset=".51" stop-color="#0d99d8" stop-opacity=".35"/>
      <stop offset=".54" stop-color="#0095d7" stop-opacity=".3"/>
      <stop offset=".76" stop-color="#0071bf"/>
      <stop offset=".96" stop-color="#005996"/>
    </linearGradient>
    <linearGradient id="_名称未設定グラデーション_5-2" data-name="名称未設定グラデーション 5" x1="188.41" y1="60.88" x2="214.83" y2="6.15" xlink:href="#_名称未設定グラデーション_5"/>
    <linearGradient id="_名称未設定グラデーション_5-3" data-name="名称未設定グラデーション 5" x1="180.5" y1="57.07" x2="206.92" y2="2.33" xlink:href="#_名称未設定グラデーション_5"/>
    <linearGradient id="_名称未設定グラデーション_5-4" data-name="名称未設定グラデーション 5" x1="177.43" y1="55.59" x2="203.85" y2=".85" xlink:href="#_名称未設定グラデーション_5"/>
    <linearGradient id="_名称未設定グラデーション_5-5" data-name="名称未設定グラデーション 5" x1="196.33" y1="64.71" x2="222.75" y2="9.98" xlink:href="#_名称未設定グラデーション_5"/>
    <linearGradient id="_名称未設定グラデーション_5-6" data-name="名称未設定グラデーション 5" x1="199.4" y1="66.19" x2="225.83" y2="11.46" xlink:href="#_名称未設定グラデーション_5"/>
    <linearGradient id="_名称未設定グラデーション_5-7" data-name="名称未設定グラデーション 5" x1="185.26" y1="59.37" x2="211.68" y2="4.63" xlink:href="#_名称未設定グラデーション_5"/>
    <linearGradient id="_名称未設定グラデーション_5-8" data-name="名称未設定グラデーション 5" x1="191.18" y1="62.22" x2="217.6" y2="7.49" xlink:href="#_名称未設定グラデーション_5"/>
    <linearGradient id="_名称未設定グラデーション_5-9" data-name="名称未設定グラデーション 5" x1="192.25" y1="62.74" x2="218.67" y2="8" xlink:href="#_名称未設定グラデーション_5"/>
    <linearGradient id="_名称未設定グラデーション_5-10" data-name="名称未設定グラデーション 5" x1="179.97" y1="56.81" x2="206.39" y2="2.08" xlink:href="#_名称未設定グラデーション_5"/>
    <linearGradient id="_名称未設定グラデーション_5-11" data-name="名称未設定グラデーション 5" x1="196.84" y1="64.96" x2="223.27" y2="10.22" xlink:href="#_名称未設定グラデーション_5"/>
    <linearGradient id="_名称未設定グラデーション_5-12" data-name="名称未設定グラデーション 5" x1="188.01" y1="60.69" x2="214.43" y2="5.96" xlink:href="#_名称未設定グラデーション_5"/>
    <linearGradient id="_名称未設定グラデーション_5-13" data-name="名称未設定グラデーション 5" x1="188.8" y1="61.08" x2="215.23" y2="6.34" xlink:href="#_名称未設定グラデーション_5"/>
    <linearGradient id="_名称未設定グラデーション_5-14" data-name="名称未設定グラデーション 5" x1="182.16" y1="57.87" x2="208.58" y2="3.13" xlink:href="#_名称未設定グラデーション_5"/>
    <linearGradient id="_名称未設定グラデーション_5-15" data-name="名称未設定グラデーション 5" x1="194.65" y1="63.9" x2="221.08" y2="9.17" xlink:href="#_名称未設定グラデーション_5"/>
    <linearGradient id="_名称未設定グラデーション_5-16" data-name="名称未設定グラデーション 5" x1="194.09" y1="63.63" x2="220.52" y2="8.89" xlink:href="#_名称未設定グラデーション_5"/>
    <linearGradient id="_名称未設定グラデーション_5-17" data-name="名称未設定グラデーション 5" x1="182.72" y1="58.14" x2="209.14" y2="3.4" xlink:href="#_名称未設定グラデーション_5"/>
    <linearGradient id="_名称未設定グラデーション_5-18" data-name="名称未設定グラデーション 5" x1="188.31" y1="97.68" x2="243.42" y2="10.1" xlink:href="#_名称未設定グラデーション_5"/>
  </defs>
  <g id="_レイヤー_1-2" data-name="レイヤー 1">
    <g>
      <g>
        <path class="cls-19" d="M10.05,45.2v8.3c0,1.59.09,2.78.27,3.55s.51,1.41,1,1.91c.42.44.91.76,1.46.97s1.29.34,2.19.39v.54H0v-.54c.91-.05,1.64-.18,2.19-.39s1.04-.54,1.46-.97c.5-.5.84-1.13,1.01-1.9s.26-1.95.26-3.56v-17.27c0-1.61-.09-2.8-.26-3.56s-.51-1.4-1.01-1.9c-.42-.45-.91-.78-1.48-.98s-1.29-.33-2.18-.38v-.54h11.3c1.89,0,3.13,0,3.73.02,2.42.11,4.32.44,5.7.98,1.55.62,2.75,1.56,3.6,2.8s1.28,2.68,1.28,4.32c0,2.44-.92,4.39-2.77,5.86-.56.44-1.18.8-1.86,1.08s-1.59.55-2.73.8c.94.39,1.63.8,2.09,1.22.36.33.69.74.98,1.23s.74,1.36,1.34,2.61c1.39,2.86,2.44,4.95,3.15,6.27s1.31,2.28,1.79,2.87c.39.48.77.82,1.14,1.01s.87.31,1.51.38v.54h-7.78c-.39-.86-.64-1.41-.75-1.64l-1.64-3.73c-.98-2.23-1.98-4.21-2.98-5.93-1-1.7-1.91-2.87-2.74-3.49-.42-.31-.88-.54-1.36-.67s-1.08-.2-1.78-.2h-1.15ZM10.05,44.68h.89c1.94,0,3.32-.11,4.16-.33s1.62-.67,2.36-1.36c1.64-1.56,2.46-3.5,2.46-5.81,0-1.23-.24-2.39-.71-3.48s-1.14-1.98-1.98-2.68c-.66-.53-1.44-.9-2.34-1.11s-2.2-.32-3.87-.32h-.96v15.09Z"/>
        <path class="cls-19" d="M58.61,28.86l.4,7.73-.54.02c-.2-1.31-.54-2.4-1.01-3.26s-1.15-1.62-2.04-2.27c-.73-.55-1.6-.93-2.6-1.16s-2.33-.34-3.98-.34h-5.37v14.06h1.41c1.42,0,2.49-.09,3.21-.28s1.3-.52,1.76-1.01c.44-.45.76-.99.97-1.61s.39-1.53.53-2.73l.54.02-.09,12.56h-.54c-.14-1.2-.35-2.17-.62-2.91s-.65-1.36-1.14-1.88c-.47-.5-1.08-.87-1.83-1.1s-1.7-.35-2.86-.35h-1.34v5.37c0,2.14.05,3.7.16,4.68s.32,1.79.63,2.45c.53,1.12,1.34,1.95,2.43,2.47s2.52.79,4.3.79c1.88,0,3.45-.24,4.71-.71s2.3-1.21,3.09-2.21c.56-.67,1.02-1.44,1.37-2.3s.68-1.99.97-3.4l.54.02-.3,9.33h-27.96v-.54c.89-.05,1.61-.17,2.17-.38s1.05-.53,1.49-.98c.48-.5.82-1.14,1-1.91s.27-1.96.27-3.55v-17.27c0-1.59-.09-2.78-.27-3.55s-.51-1.41-1-1.91c-.42-.45-.91-.78-1.46-.98s-1.29-.33-2.19-.38v-.54h25.2Z"/>
        <path class="cls-19" d="M66.18,60.76l.07-9.68.54.02c.66,2.46,1.44,4.4,2.34,5.82,1.7,2.62,3.84,3.93,6.42,3.93,1.8,0,3.28-.6,4.45-1.8s1.76-2.73,1.76-4.57c0-.8-.13-1.61-.39-2.44s-.61-1.54-1.04-2.13c-.45-.61-1.09-1.2-1.91-1.76s-2.07-1.27-3.76-2.13c-1.48-.75-2.62-1.38-3.41-1.9s-1.43-1.04-1.91-1.57c-1.34-1.47-2.02-3.26-2.02-5.37,0-1.3.26-2.55.79-3.75s1.25-2.23,2.19-3.09c1.66-1.53,3.62-2.3,5.88-2.3.73,0,1.41.07,2.04.22s1.46.44,2.51.88c.78.31,1.31.51,1.59.6s.53.13.75.13c.55,0,.91-.4,1.1-1.2h.54l.16,9.3h-.54c-.42-1.48-.78-2.62-1.09-3.41-.3-.79-.67-1.52-1.09-2.19-.76-1.22-1.61-2.12-2.53-2.71-.92-.59-1.98-.88-3.18-.88-1.75,0-3.13.59-4.14,1.78-.42.48-.75,1.06-1,1.71-.24.66-.36,1.31-.36,1.97,0,2.61,1.68,4.72,5.03,6.31l3.3,1.6c2.54,1.2,4.38,2.53,5.5,3.99,1.28,1.63,1.92,3.52,1.92,5.68,0,1.43-.29,2.81-.87,4.12-.81,1.82-2.03,3.23-3.66,4.22-1.62.99-3.54,1.48-5.74,1.48-2.02,0-3.95-.4-5.81-1.2-.97-.42-1.55-.66-1.73-.73s-.4-.09-.63-.09c-.75,0-1.27.38-1.55,1.12h-.54Z"/>
        <path class="cls-19" d="M104.74,28.86v.54c-.89.05-1.62.17-2.18.38s-1.05.53-1.48.98c-.52.53-.86,1.19-1.02,1.97s-.25,2.12-.25,4.03v13.27c0,2.16.08,3.71.25,4.68s.5,1.85,1,2.66c.75,1.23,1.68,2.13,2.78,2.68s2.49.83,4.16.83,3.18-.25,4.65-.74,2.71-1.18,3.69-2.05c.61-.55,1.06-1.14,1.35-1.78s.48-1.45.57-2.44c.06-.64.09-2.16.09-4.55v-13.1c0-1.61-.09-2.8-.27-3.56s-.51-1.4-1-1.9c-.44-.45-.93-.78-1.49-.98s-1.28-.33-2.17-.38v-.54h10.8v.54c-.89.05-1.61.17-2.17.38s-1.05.53-1.49.98c-.48.5-.82,1.14-1,1.91s-.27,1.96-.27,3.55v14.79c0,2.19-.17,3.8-.5,4.84s-1,1.99-2,2.85c-2.28,1.97-5.54,2.95-9.77,2.95s-7.68-.93-9.77-2.79c-1.36-1.19-2.17-2.75-2.44-4.69-.09-.69-.14-1.93-.14-3.73v-14.23c0-1.61-.09-2.8-.26-3.56s-.51-1.4-1.01-1.9c-.42-.45-.91-.78-1.46-.98s-1.29-.33-2.19-.38v-.54h14.98Z"/>
        <path class="cls-19" d="M127.97,60.85v-.56c1.58,0,2.8-.45,3.66-1.34.48-.5.82-1.14,1-1.91s.27-1.96.27-3.55v-17.27c0-1.66-.1-2.88-.29-3.67s-.56-1.43-1.09-1.93c-.44-.41-.93-.7-1.46-.89s-1.23-.3-2.07-.33v-.54h14.98v.54c-.86.05-1.56.16-2.11.35s-1.03.48-1.45.89c-.53.52-.89,1.16-1.08,1.95s-.28,1.99-.28,3.63v13.52c0,2.08.05,3.62.16,4.64s.32,1.84.63,2.48c.55,1.12,1.36,1.95,2.44,2.47s2.51.79,4.29.79,3.43-.25,4.7-.74,2.32-1.25,3.13-2.29c.55-.7,1-1.5,1.35-2.39s.68-2.06.97-3.52l.56.05-.3,9.61h-27.98Z"/>
        <path class="cls-19" d="M167.93,29.59c-.98,0-2.04.03-3.16.09-2.41.12-4.2.43-5.38.91s-2.15,1.32-2.92,2.51c-.7,1.09-1.24,2.58-1.62,4.45l-.54-.05.42-8.65h31.71l.42,8.65-.54.05c-.42-2.17-1.08-3.82-1.98-4.93s-2.21-1.92-3.93-2.4c-1.45-.42-3.91-.63-7.38-.63v23.91c0,1.59.09,2.78.27,3.55s.51,1.41,1,1.91c.44.45.93.78,1.49.98s1.28.33,2.17.38v.54h-14.98v-.54c.91-.05,1.64-.17,2.19-.38s1.05-.53,1.49-.98c.48-.5.82-1.13,1-1.9s.27-1.95.27-3.56v-23.91Z"/>
      </g>
      <path class="cls-10" d="M10.05,45.2v8.3c0,1.59.09,2.78.27,3.55s.51,1.41,1,1.91c.42.44.91.76,1.46.97s1.29.34,2.19.39v.54H0v-.54c.91-.05,1.64-.18,2.19-.39s1.04-.54,1.46-.97c.5-.5.84-1.13,1.01-1.9s.26-1.95.26-3.56v-17.27c0-1.61-.09-2.8-.26-3.56s-.51-1.4-1.01-1.9c-.42-.45-.91-.78-1.48-.98s-1.29-.33-2.18-.38v-.54h11.3c1.89,0,3.13,0,3.73.02,2.42.11,4.32.44,5.7.98,1.55.62,2.75,1.56,3.6,2.8s1.28,2.68,1.28,4.32c0,2.44-.92,4.39-2.77,5.86-.56.44-1.18.8-1.86,1.08s-1.59.55-2.73.8c.94.39,1.63.8,2.09,1.22.36.33.69.74.98,1.23s.74,1.36,1.34,2.61c1.39,2.86,2.44,4.95,3.15,6.27s1.31,2.28,1.79,2.87c.39.48.77.82,1.14,1.01s.87.31,1.51.38v.54h-7.78c-.39-.86-.64-1.41-.75-1.64l-1.64-3.73c-.98-2.23-1.98-4.21-2.98-5.93-1-1.7-1.91-2.87-2.74-3.49-.42-.31-.88-.54-1.36-.67s-1.08-.2-1.78-.2h-1.15ZM10.05,44.68h.89c1.94,0,3.32-.11,4.16-.33s1.62-.67,2.36-1.36c1.64-1.56,2.46-3.5,2.46-5.81,0-1.23-.24-2.39-.71-3.48s-1.14-1.98-1.98-2.68c-.66-.53-1.44-.9-2.34-1.11s-2.2-.32-3.87-.32h-.96v15.09ZM58.61,28.86l.4,7.73-.54.02c-.2-1.31-.54-2.4-1.01-3.26s-1.15-1.62-2.04-2.27c-.73-.55-1.6-.93-2.6-1.16s-2.33-.34-3.98-.34h-5.37v14.06h1.41c1.42,0,2.49-.09,3.21-.28s1.3-.52,1.76-1.01c.44-.45.76-.99.97-1.61s.39-1.53.53-2.73l.54.02-.09,12.56h-.54c-.14-1.2-.35-2.17-.62-2.91s-.65-1.36-1.14-1.88c-.47-.5-1.08-.87-1.83-1.1s-1.7-.35-2.86-.35h-1.34v5.37c0,2.14.05,3.7.16,4.68s.32,1.79.63,2.45c.53,1.12,1.34,1.95,2.43,2.47s2.52.79,4.3.79c1.88,0,3.45-.24,4.71-.71s2.3-1.21,3.09-2.21c.56-.67,1.02-1.44,1.37-2.3s.68-1.99.97-3.4l.54.02-.3,9.33h-27.96v-.54c.89-.05,1.61-.17,2.17-.38s1.05-.53,1.49-.98c.48-.5.82-1.14,1-1.91s.27-1.96.27-3.55v-17.27c0-1.59-.09-2.78-.27-3.55s-.51-1.41-1-1.91c-.42-.45-.91-.78-1.46-.98s-1.29-.33-2.19-.38v-.54h25.2ZM66.18,60.76l.07-9.68.54.02c.66,2.46,1.44,4.4,2.34,5.82,1.7,2.62,3.84,3.93,6.42,3.93,1.8,0,3.28-.6,4.45-1.8s1.76-2.73,1.76-4.57c0-.8-.13-1.61-.39-2.44s-.61-1.54-1.04-2.13c-.45-.61-1.09-1.2-1.91-1.76s-2.07-1.27-3.76-2.13c-1.48-.75-2.62-1.38-3.41-1.9s-1.43-1.04-1.91-1.57c-1.34-1.47-2.02-3.26-2.02-5.37,0-1.3.26-2.55.79-3.75s1.25-2.23,2.19-3.09c1.66-1.53,3.62-2.3,5.88-2.3.73,0,1.41.07,2.04.22s1.46.44,2.51.88c.78.31,1.31.51,1.59.6s.53.13.75.13c.55,0,.91-.4,1.1-1.2h.54l.16,9.3h-.54c-.42-1.48-.78-2.62-1.09-3.41-.3-.79-.67-1.52-1.09-2.19-.76-1.22-1.61-2.12-2.53-2.71-.92-.59-1.98-.88-3.18-.88-1.75,0-3.13.59-4.14,1.78-.42.48-.75,1.06-1,1.71-.24.66-.36,1.31-.36,1.97,0,2.61,1.68,4.72,5.03,6.31l3.3,1.6c2.54,1.2,4.38,2.53,5.5,3.99,1.28,1.63,1.92,3.52,1.92,5.68,0,1.43-.29,2.81-.87,4.12-.81,1.82-2.03,3.23-3.66,4.22-1.62.99-3.54,1.48-5.74,1.48-2.02,0-3.95-.4-5.81-1.2-.97-.42-1.55-.66-1.73-.73s-.4-.09-.63-.09c-.75,0-1.27.38-1.55,1.12h-.54ZM104.74,28.86v.54c-.89.05-1.62.17-2.18.38s-1.05.53-1.48.98c-.52.53-.86,1.19-1.02,1.97s-.25,2.12-.25,4.03v13.27c0,2.16.08,3.71.25,4.68s.5,1.85,1,2.66c.75,1.23,1.68,2.13,2.78,2.68s2.49.83,4.16.83,3.18-.25,4.65-.74,2.71-1.18,3.69-2.05c.61-.55,1.06-1.14,1.35-1.78s.48-1.45.57-2.44c.06-.64.09-2.16.09-4.55v-13.1c0-1.61-.09-2.8-.27-3.56s-.51-1.4-1-1.9c-.44-.45-.93-.78-1.49-.98s-1.28-.33-2.17-.38v-.54h10.8v.54c-.89.05-1.61.17-2.17.38s-1.05.53-1.49.98c-.48.5-.82,1.14-1,1.91s-.27,1.96-.27,3.55v14.79c0,2.19-.17,3.8-.5,4.84s-1,1.99-2,2.85c-2.28,1.97-5.54,2.95-9.77,2.95s-7.68-.93-9.77-2.79c-1.36-1.19-2.17-2.75-2.44-4.69-.09-.69-.14-1.93-.14-3.73v-14.23c0-1.61-.09-2.8-.26-3.56s-.51-1.4-1.01-1.9c-.42-.45-.91-.78-1.46-.98s-1.29-.33-2.19-.38v-.54h14.98ZM127.97,60.85v-.56c1.58,0,2.8-.45,3.66-1.34.48-.5.82-1.14,1-1.91s.27-1.96.27-3.55v-17.27c0-1.66-.1-2.88-.29-3.67s-.56-1.43-1.09-1.93c-.44-.41-.93-.7-1.46-.89s-1.23-.3-2.07-.33v-.54h14.98v.54c-.86.05-1.56.16-2.11.35s-1.03.48-1.45.89c-.53.52-.89,1.16-1.08,1.95s-.28,1.99-.28,3.63v13.52c0,2.08.05,3.62.16,4.64s.32,1.84.63,2.48c.55,1.12,1.36,1.95,2.44,2.47s2.51.79,4.29.79,3.43-.25,4.7-.74,2.32-1.25,3.13-2.29c.55-.7,1-1.5,1.35-2.39s.68-2.06.97-3.52l.56.05-.3,9.61h-27.98ZM167.93,29.59c-.98,0-2.04.03-3.16.09-2.41.12-4.2.43-5.38.91s-2.15,1.32-2.92,2.51c-.7,1.09-1.24,2.58-1.62,4.45l-.54-.05.42-8.65h31.71l.42,8.65-.54.05c-.42-2.17-1.08-3.82-1.98-4.93s-2.21-1.92-3.93-2.4c-1.45-.42-3.91-.63-7.38-.63v23.91c0,1.59.09,2.78.27,3.55s.51,1.41,1,1.91c.44.45.93.78,1.49.98s1.28.33,2.17.38v.54h-14.98v-.54c.91-.05,1.64-.17,2.19-.38s1.05-.53,1.49-.98c.48-.5.82-1.13,1-1.9s.27-1.95.27-3.56v-23.91Z"/>
      <g>
        <g>
          <g>
            <g>
              <g>
                <g>
                  <line class="cls-21" x1="195.86" y1="15.16" x2="207.78" y2="15.16"/>
                  <line class="cls-21" x1="213.19" y1="15.16" x2="225.11" y2="15.16"/>
                </g>
                <g>
                  <line class="cls-21" x1="210.48" y1=".53" x2="210.48" y2="11.63"/>
                  <line class="cls-21" x1="210.48" y1="18.69" x2="210.48" y2="29.78"/>
                </g>
              </g>
              <g>
                <g>
                  <line class="cls-21" x1="202.68" y1="7.36" x2="205.13" y2="9.81"/>
                  <line class="cls-21" x1="200.81" y1="5.49" x2="201.89" y2="6.57"/>
                  <line class="cls-21" x1="218.3" y1="22.97" x2="215.85" y2="20.52"/>
                  <line class="cls-21" x1="220.17" y1="24.84" x2="219.08" y2="23.76"/>
                </g>
                <line class="cls-21" x1="205.13" y1="20.51" x2="202.56" y2="23.07"/>
                <line class="cls-21" x1="218.3" y1="7.36" x2="215.85" y2="9.81"/>
                <line class="cls-21" x1="220.17" y1="5.49" x2="219.08" y2="6.57"/>
                <line class="cls-21" x1="200.81" y1="24.84" x2="201.89" y2="23.76"/>
              </g>
              <g>
                <g>
                  <line class="cls-21" x1="200.18" y1="10.77" x2="203.52" y2="12.19"/>
                  <line class="cls-21" x1="217.44" y1="18.12" x2="220.78" y2="19.55"/>
                </g>
                <g>
                  <line class="cls-21" x1="214.87" y1="4.86" x2="213.45" y2="8.2"/>
                  <line class="cls-21" x1="207.52" y1="22.12" x2="206.09" y2="25.46"/>
                </g>
              </g>
              <g>
                <g>
                  <line class="cls-21" x1="206.3" y1="4.77" x2="207.66" y2="8.14"/>
                  <line class="cls-21" x1="213.31" y1="22.18" x2="214.66" y2="25.54"/>
                </g>
                <g>
                  <line class="cls-21" x1="220.87" y1="10.98" x2="217.5" y2="12.33"/>
                  <line class="cls-21" x1="203.46" y1="17.98" x2="200.1" y2="19.34"/>
                </g>
              </g>
            </g>
            <path class="cls-21" d="M210.48,6.79c0,7.93-.39,8.37-7.39,8.37,7,0,7.39.44,7.39,8.37,0-7.93.39-8.37,7.39-8.37-7,0-7.39-.44-7.39-8.37Z"/>
          </g>
          <g>
            <path class="cls-21" d="M201,64.56c-.72,4.91,3.9,8.91,8.65,7.49h0c3.6-1.07,5.65-4.88,4.55-8.47-.85-2.77-1.51-5.43-.96-5.65,3.03-1.18,8.12-3.23,9.51-3.65l6.57-1.96c1.25-.37,2.31-1.19,3-2.29l7.57-12.11,4.97-10.78s-.32-1.52-2.43.22c-2.12,1.74-3.65,5.44-3.65,5.44,0,0-.77-3.52-1.18-3.95-.41-.43-3.79-4.19-4.83-4.39-1.03-.2-1.09,2.55.01,4.07,1.1,1.52,2.39,3.22,2.39,3.22l.55,5.11-1.46-2.25s.63-.7.45-1.29-.71-1.13-1.71-1.06c-.43.03-.6.06-.66.08-.27-.3-1.65-1.77-2.53-2.09-.98-.35-4.29-2.14-4.86-2.02s-.72,1.14.57,2.84c1.29,1.7,3.26,2.54,3.26,2.54l-.97.47s-4.02-2.78-4.79-2.55-.88,1.56.16,2.54c1.03.99,1.58,1.56,1.58,1.56,0,0-6.06,2.78-7.72,3.28-1.66.49-6.84,3.89-7.95,5.29-1.11,1.4-4.76,5.4-5.49,6.87-.71,1.45-1.76,7.72-2.61,13.49ZM230.55,37.55l.7-.21s.42.9.7,1.43c.28.53-.71,1.11-.71,1.11,0,0-.02-.92-.05-1.1-.03-.17-.65-1.24-.65-1.24ZM224.02,41l3.42-1.79.51,1.25-.48,1.32c-1.28.25-2.6,0-3.39-.21-.27-.07-.31-.45-.06-.58Z"/>
            <path class="cls-21" d="M224.77,35.65l1.85,1.53,1.33,3.28-1.45,3.97s-11.94,2.06-15.69,6.9"/>
            <path class="cls-21" d="M230.64,47.63s.82-7.95.55-8.84-2.54-4.15-3.37-4.71"/>
            <path class="cls-21" d="M232.41,32.39l1.87,2.22,1.46,2.25.42.62c.24.35.31.79.21,1.2l-1.41,5.45"/>
            <line class="cls-21" x1="238.78" y1="32.81" x2="239.68" y2="35.84"/>
            <polyline class="cls-21" points="228.79 33.61 229.91 34.49 231.25 37.35"/>
          </g>
        </g>
        <g class="cls-20">
          <g>
            <path class="cls-13" d="M225.11,14.62h-7.24c-6.56,0-6.85-.22-6.85-7.49V.53c0-.3-.24-.53-.53-.53s-.53.24-.53.53v6.25s0,0,0,0c0,7.62-.19,7.84-6.85,7.84h-7.24c-.3,0-.53.24-.53.53s.24.53.53.53h7.24c6.66,0,6.85.22,6.85,7.84,0,0,0,0,0,0v6.25c0,.3.24.53.53.53s.53-.24.53-.53v-6.6c0-7.27.3-7.49,6.85-7.49h7.24c.3,0,.53-.24.53-.53s-.24-.53-.53-.53ZM210.48,17.2c-.36-1.04-.95-1.67-1.92-2.04.97-.37,1.56-1,1.92-2.04.36,1.04.95,1.67,1.92,2.04-.97.37-1.56,1-1.92,2.04Z"/>
            <path class="cls-12" d="M202.3,7.74l2.45,2.45c.1.1.24.16.38.16s.27-.05.38-.16c.21-.21.21-.55,0-.76l-2.45-2.45c-.21-.21-.55-.21-.76,0s-.21.55,0,.76Z"/>
            <path class="cls-11" d="M201.52,6.95c.1.1.24.16.38.16s.27-.05.38-.16c.21-.21.21-.55,0-.76l-1.08-1.08c-.21-.21-.55-.21-.76,0s-.21.55,0,.76l1.08,1.08Z"/>
            <path class="cls-15" d="M218.67,22.6l-2.45-2.45c-.21-.21-.55-.21-.76,0-.21.21-.21.55,0,.76l2.45,2.45c.1.1.24.16.38.16s.27-.05.38-.16c.21-.21.21-.55,0-.76Z"/>
            <path class="cls-17" d="M219.46,23.38c-.21-.21-.55-.21-.76,0-.21.21-.21.55,0,.76l1.08,1.08c.1.1.24.16.38.16s.27-.05.38-.16c.21-.21.21-.55,0-.76l-1.08-1.08Z"/>
            <path class="cls-18" d="M205.51,20.13c-.21-.21-.55-.21-.76,0l-2.57,2.57c-.15.15-.19.37-.12.56-.19-.06-.4-.03-.55.12l-1.08,1.08c-.21.21-.21.55,0,.76.1.1.24.16.38.16s.27-.05.38-.16l1.08-1.08c.15-.15.19-.37.12-.56.06.02.11.03.17.03.14,0,.27-.05.38-.16l2.57-2.57c.21-.21.21-.55,0-.76Z"/>
            <path class="cls-14" d="M215.47,10.19c.1.1.24.16.38.16s.27-.05.38-.16l2.45-2.45c.21-.21.21-.55,0-.76s-.55-.21-.76,0l-2.45,2.45c-.21.21-.21.55,0,.76Z"/>
            <path class="cls-16" d="M219.08,7.11c.14,0,.27-.05.38-.16l1.08-1.08c.21-.21.21-.55,0-.76-.21-.21-.55-.21-.76,0l-1.08,1.08c-.21.21-.21.55,0,.76.1.1.24.16.38.16Z"/>
            <path class="cls-5" d="M199.97,11.26l3.34,1.42c.07.03.14.04.21.04.21,0,.41-.12.49-.33.12-.27-.01-.59-.28-.7l-3.34-1.42c-.27-.12-.59.01-.7.28-.12.27.01.59.28.7Z"/>
            <path class="cls-8" d="M220.99,19.05l-3.34-1.42c-.27-.12-.59.01-.7.28-.12.27.01.59.28.7l3.34,1.42c.07.03.14.04.21.04.21,0,.41-.12.49-.32.12-.27-.01-.59-.28-.7Z"/>
            <path class="cls-9" d="M213.24,8.69c.07.03.14.04.21.04.21,0,.41-.12.49-.33l1.42-3.34c.12-.27-.01-.59-.28-.7-.27-.12-.59.01-.7.28l-1.42,3.34c-.12.27.01.59.28.7Z"/>
            <path class="cls-4" d="M207.73,21.63c-.27-.12-.59.01-.7.28l-1.42,3.34c-.12.27.01.59.28.7.07.03.14.04.21.04.21,0,.41-.12.49-.33l1.42-3.34c.12-.27-.01-.59-.28-.7Z"/>
            <path class="cls-1" d="M207.16,8.34c.08.21.28.34.5.34.07,0,.13-.01.2-.04.27-.11.41-.42.3-.7l-1.36-3.37c-.11-.27-.42-.41-.7-.3-.27.11-.41.42-.3.7l1.36,3.37Z"/>
            <path class="cls-2" d="M213.8,21.98c-.11-.27-.42-.41-.7-.3-.27.11-.41.42-.3.7l1.36,3.37c.08.21.28.34.5.34.07,0,.13-.01.2-.04.27-.11.41-.42.3-.7l-1.36-3.37Z"/>
            <path class="cls-6" d="M217.3,11.84c-.27.11-.41.42-.3.7.08.21.28.33.5.33.07,0,.13-.01.2-.04l3.37-1.36c.27-.11.41-.42.3-.7-.11-.27-.42-.41-.7-.3l-3.37,1.36Z"/>
            <path class="cls-3" d="M203.66,18.48c.27-.11.41-.42.3-.7-.11-.27-.42-.41-.7-.3l-3.37,1.36c-.27.11-.41.42-.3.7.08.21.28.34.5.34.07,0,.13-.01.2-.04l3.37-1.36Z"/>
          </g>
          <path class="cls-7" d="M245.38,27.04c-.02-.07-.17-.73-.83-.96-.65-.23-1.45.06-2.45.88-1.37,1.13-2.48,2.98-3.14,4.26-.3-1.18-.66-2.4-.96-2.72l-.16-.17c-3.4-3.68-4.43-4.27-4.95-4.37-.44-.08-.84.1-1.09.5-.62.97-.33,3.14.58,4.4.93,1.29,2,2.7,2.31,3.11l.04.35c-.38-.37-.95-.62-1.73-.57-.18.01-.32.02-.43.04-.59-.63-1.7-1.71-2.55-2.02-.32-.12-.96-.42-1.63-.74-2.23-1.06-3.05-1.4-3.52-1.3-.35.08-.62.32-.75.67-.27.73.09,1.79,1.01,3,.2.26.41.51.63.73-1.23-.73-2.36-1.24-2.86-1.09-.46.14-.8.51-.92,1.03-.19.79.14,1.71.87,2.4.43.41.78.76,1.04,1.01-1.63.74-5.69,2.56-6.97,2.94-1.7.51-6.98,3.92-8.21,5.47-.32.4-.85,1.01-1.45,1.72-1.58,1.84-3.55,4.13-4.1,5.24-.61,1.24-1.51,5.83-2.66,13.64-.37,2.49.55,4.95,2.45,6.59,1.35,1.17,3.04,1.79,4.77,1.79.7,0,1.41-.1,2.1-.31,1.88-.56,3.43-1.83,4.36-3.56.92-1.72,1.12-3.7.54-5.57-1.14-3.7-1.17-4.76-1.13-5.05.7-.27,1.5-.59,2.33-.92,2.79-1.1,5.96-2.35,6.99-2.66l6.57-1.96c1.37-.41,2.54-1.3,3.3-2.52l7.6-12.17,4.97-10.78c.05-.1.06-.22.04-.33ZM234.92,34.63s.02-.04.04-.06v.13s-.04-.08-.04-.08ZM234.21,33.47c.02.06,0,.14-.02.23l-.75-.89c.51.09.7.44.77.66ZM231.87,49.76c-.62.99-1.58,1.73-2.71,2.06l-6.57,1.96c-1.08.32-4.27,1.58-7.08,2.69-.89.35-1.74.68-2.47.97-.63.24-1.01.89.65,6.29.49,1.59.32,3.28-.46,4.76-.79,1.48-2.12,2.56-3.73,3.05-2.06.61-4.26.14-5.88-1.26-1.62-1.41-2.41-3.52-2.09-5.64,1.49-10.1,2.24-12.68,2.56-13.33.49-.99,2.49-3.32,3.95-5.02.62-.72,1.16-1.35,1.48-1.75.99-1.24,6.09-4.63,7.69-5.11,1.48-.44,6.23-2.59,7.49-3.16l1.49,1.23.59,1.46-3,1.57h0c-.31.16-.49.49-.45.84.04.35.28.63.61.72.63.17,1.47.33,2.37.33.12,0,.24,0,.36-.02l-.57,1.56c-1.94.36-12.18,2.48-15.71,7.05-.18.23-.14.56.09.74.1.07.21.11.32.11.16,0,.31-.07.42-.2,3.58-4.62,15.24-6.69,15.36-6.71.19-.03.34-.16.41-.34l1.45-3.97c.04-.12.04-.26,0-.38l-.51-1.25h0l-.82-2.03c-.03-.08-.09-.15-.15-.21l-1.82-1.51c-.11-.11-.63-.66-1.57-1.56-.51-.48-.65-1.05-.57-1.39.02-.1.08-.23.15-.25.47-.02,2.65,1.27,4.38,2.47,0,0,0,0,0,0,0,0,0,0,0,0,.52.35,1.82,2.1,2.59,3.34.2.35.43.76.52.94.02.04.03.08.04.11.01.13.03.6.04.99,0,0,0,0,0,0-.04,1.58-.3,4.76-.6,7.68-.03.29.18.55.47.58.02,0,.04,0,.05,0,.27,0,.5-.2.52-.47.15-1.42.53-5.28.59-7.51.55-.4.99-1.02.66-1.65-.28-.52-.69-1.41-.69-1.41l-1.34-2.85c-.04-.07-.09-.14-.15-.19l-1.12-.88s-.02,0-.03-.01c-.03-.02-.06-.04-.09-.06-.02,0-1.86-.82-3.05-2.38-.91-1.19-.91-1.83-.86-1.99.45.08,1.93.78,2.83,1.21.73.35,1.36.65,1.73.78.56.2,1.57,1.12,2.32,1.95,0,0,.02.01.03.02,0,0,0,.01,0,.01l1.83,2.17,1.46,2.26.42.62c.15.23.2.51.13.77l-1.41,5.45c-.07.28.1.57.38.64.04.01.09.02.13.02.05,0,.09-.01.14-.02l-3.21,5.13ZM227.07,41.31c-.83.11-1.67.01-2.29-.12l2.39-1.25.21.52-.31.84ZM229.49,34.83l.34.73c-.35-.47-.7-.91-1.02-1.26l.67.53ZM239.44,37.65l-3.89,6.22,1.31-5.06c.14-.56.04-1.15-.28-1.63l-.35-.53-.54-4.96c-.01-.1-.05-.19-.11-.26,0,0-1.29-1.69-2.39-3.21-.88-1.21-.78-3.05-.54-3.24.13.03.95.34,4.38,4.05l.15.16c.21.29.72,2.16,1.06,3.71,0,0,0,.01,0,.02,0,0,0,.01,0,.02l.91,3.04c.07.23.28.38.51.38.05,0,.1,0,.15-.02.28-.08.44-.38.36-.66l-.85-2.85c.32-.73,1.68-3.63,3.42-5.06.97-.8,1.36-.72,1.43-.7.04.01.07.04.09.07l-4.84,10.51Z"/>
        </g>
      </g>
    </g>
  </g>
</svg>