<?xml version="1.0" encoding="UTF-8"?>
<svg id="_レイヤー_2" data-name="レイヤー 2" xmlns="http://www.w3.org/2000/svg" viewBox="0 0 25.21 25.21">
  <defs>
    <style>
      .cls-1 {
        fill: #39385d;
        stroke-width: 0px;
      }
    </style>
  </defs>
  <g id="design">
    <g>
      <g>
        <path class="cls-1" d="m10.24,13.25c.12.55.45.98.88,1.31.25.2.56.31.85.46.05,0,.1,0,.15,0,.95.33,2.05-.19,2.59-.92.63-.83.67-1.74.26-2.69-.06-.15-.06-.32-.09-.48.01-.02.02-.03.04-.05.26-.15.53-.3.79-.45.01-.01.02-.02.03-.04.3-.17.6-.34.9-.5.03-.03.07-.06.1-.09.37,0,.48.07.49.33,0,.15-.04.25-.2.28-.01.01-.02.02-.03.03-.07.07-.14.15-.22.2-.36.21-.73.4-1.07.59.08.28.18.52.21.77.02.16.08.2.22.2.47,0,.95,0,1.42,0,.06,0,.11,0,.17,0,.17.15.18.36.12.54-.07.18-.27.2-.46.2-.47,0-.93,0-1.4,0-.09.31-.18.61-.27.95.29.17.61.36.93.54.13.08.26.15.39.23.18.1.26.35.17.51-.11.19-.34.23-.54.12-.38-.22-.76-.43-1.13-.65-.15-.08-.26-.08-.38.06-.12.15-.28.27-.4.42-.04.05-.06.18-.02.23.21.39.46.77.65,1.17.06.13.07.36-.01.46-.17.22-.39.27-.61-.09-.22-.37-.44-.74-.64-1.12-.09-.16-.18-.19-.35-.12-.17.07-.35.12-.53.15-.16.02-.18.09-.18.23,0,.45,0,.9,0,1.35,0,.2-.11.35-.3.39-.19.04-.39,0-.45-.24,0-.05.01-.1.02-.14v-1.5c-.29-.09-.59-.19-.89-.27-.03,0-.1.02-.11.05-.15.26-.3.52-.45.78-.05.07-.09.13-.14.2-.05.09-.1.18-.15.27-.17.29-.18.32-.49.17-.22-.11-.25-.27-.14-.5.15-.28.27-.56.42-.84.09-.17.2-.32.3-.48.02-.01.05-.03.07-.04-.03-.02-.06-.04-.08-.05-.2-.2-.39-.39-.59-.59-.02-.03-.04-.05-.05-.08-.01.02-.03.05-.04.07-.07.02-.13.04-.2.07-.09.01-.25-.08-.2.14-.08.02-.16.04-.24.06l-.04.04c-.15.1-.3.2-.45.3-.08.03-.16.06-.23.09-.2.12-.35.09-.45-.09-.12-.19-.06-.36.13-.48.41-.25.82-.51,1.23-.76.12-.07.11-.12.07-.23-.07-.2-.12-.41-.16-.62-.02-.14-.1-.16-.22-.16-.43,0-.87,0-1.3,0-.12,0-.27-.04-.35-.11-.07-.07-.11-.24-.08-.32.06-.14.14-.3.37-.3.46.01.92,0,1.38,0,.13,0,.18-.04.21-.17.03-.2.08-.4.15-.59.05-.13.05-.2-.09-.26-.34-.16-.67-.35-1-.53-.12-.07-.25-.15-.35-.24-.17-.14-.05-.31.03-.42.05-.09.21-.12.33-.15.07-.01.15.04.22.06,0,0,.02,0,.02,0,.1.05.2.11.31.16.01.01.02.02.04.04,0-.01.01-.02.02-.04.2.12.39.23.59.35.03.03.07.06.1.09.14.11.25.16.38-.04.13-.21.32-.39.51-.62-.06-.11-.18-.3-.3-.5.01,0,.02-.01.04-.02-.01-.01-.02-.02-.04-.03-.15-.29-.32-.58-.45-.87-.12-.25.11-.32.26-.38.15-.06.32-.07.39.15.03.11.1.21.15.32.03.05.06.09.09.14.1.18.2.37.3.55.01.02.03.03.04.05.06.11.13.22.19.32.23-.06.45-.13.67-.16.21-.03.32-.1.31-.34-.02-.42,0-.83,0-1.25,0-.26.13-.38.38-.39.22,0,.35.13.35.39,0,.43,0,.87,0,1.3,0,.18.06.25.24.28.22.03.44.1.69.17.17-.38.57-.67.59-1.16.03.04.07.07.1.11.04-.11.08-.21.12-.32.07-.17.23-.16.36-.12.1.03.21.11.26.21.03.07-.04.18-.07.28l-.04.2-.34.49s0,.07,0,.1c-.02.05-.04.1-.06.14l-.14.2c-.09.17-.19.33-.28.5-.13.24-.29.31-.53.19-.45-.22-.93-.32-1.44-.3-.88.02-1.53.44-1.99,1.16-.12.19-.2.41-.3.61-.01.03-.02.07-.04.1-.02.2-.06.4-.05.6,0,.21.06.42.09.63,0,.03,0,.07,0,.1Z"/>
        <path class="cls-1" d="m17.62,8.04c.74.83,1.26,1.76,1.53,2.84,0,.03,0,.06,0,.09.07.35.14.69.19,1.04.03.16.03.33.04.5-.04.01-.08.02-.12.03,0,.01,0,.02,0,.04.04.01.08.02.12.03-.01.07-.04.14-.04.21.01,1.16-.36,2.22-.94,3.2-.22.38-.52.71-.79,1.06-.11.11-.23.23-.34.34-.37.28-.74.57-1.11.85-.06.05-.14.07-.21.1-.03.02-.07.03-.1.05-.11.07-.23.13-.34.2-.12-.11-.15-.03-.15.08-.33.12-.66.23-.98.35-.02-.03-.04-.06-.06-.08-.03.03-.06.06-.09.08-.3.07-.6.19-.9.19-.65,0-1.31.01-1.94-.11-.39-.08-.82-.12-1.16-.34-.22-.14-.48-.16-.68-.32,0-.1,0-.22-.15-.1-.25-.16-.49-.33-.74-.49,0-.1,0-.22-.15-.1-.05-.05-.1-.1-.15-.15,0-.1,0-.22-.15-.1-.15-.15-.3-.3-.44-.44,0-.11.01-.22-.15-.2l-.09-.1c0-.11,0-.22-.15-.2-.16-.25-.33-.49-.49-.74-.02-.03-.04-.07-.06-.1-.06-.13-.12-.27-.18-.4-.06-.12-.15-.23-.19-.35-.08-.28-.1-.59-.21-.85-.12-.26-.17-.52-.19-.8-.01-.25-.03-.5-.04-.75.02-.02.05-.03.07-.05-.02-.02-.05-.03-.07-.05.07-.3.37-.41.59-.21.14.12.28.24.16.48-.07.14-.02.34-.02.51-.01.01-.02.03-.04.04.01,0,.03,0,.04,0,.07.3.13.59.2.89-.01.01-.02.02-.04.04.01,0,.03,0,.04,0,.05.12.1.24.16.35l.04.05c.1.24.2.49.3.73-.01.01-.02.02-.03.03.01,0,.02,0,.04,0,.22.29.41.6.65.88.29.33.62.64.93.95.03.01.06.03.09.04.16.09.32.17.47.26.19.12.38.25.57.38.06.03.12.05.19.08.2.07.4.15.59.22.03.01.07.03.1.04.29.05.59.09.87.14.31.05.61.07.9.06.43-.02.85-.11,1.28-.16.08-.01.16-.02.24-.03l.15-.05c.21-.08.43-.17.64-.25.13.12.15.03.15-.08.08-.04.16-.07.24-.11.03-.02.06-.04.1-.05.21-.14.42-.29.63-.43.02-.01.04-.03.06-.04.63-.5,1.16-1.09,1.56-1.79.07-.13.14-.26.21-.39.03-.05.07-.1.1-.16.07-.21.14-.42.21-.63.01-.02.03-.04.04-.06.06-.33.14-.65.17-.98.03-.31,0-.62.03-.93.05-.51-.14-.99-.16-1.48-.01-.03-.03-.06-.04-.09-.13-.28-.29-.54-.38-.83-.13-.43-.42-.77-.69-1.1-.31-.38-.69-.7-1.04-1.04-.02-.01-.04-.03-.06-.04-.21-.13-.42-.26-.63-.39-.02-.03-.04-.06-.05-.09-.2-.08-.4-.17-.61-.25-.07-.03-.15-.05-.23-.07l-.1-.04c-.29-.08-.57-.19-.86-.23-.37-.05-.74-.04-1.11-.06-.12,0-.24,0-.37,0-.56,0-1.1.15-1.63.3-.37.11-.66.37-.99.53-.03.02-.07.03-.1.05-.21.1-.43.2-.64.3-.01.01-.02.03-.03.04-.15.18-.3.37-.46.54-.1.11-.23.21-.34.31-.03,0-.06,0-.09,0,.01.02.03.05.04.07,0,.01,0,.03,0,.04-.03.04-.06.07-.09.11-.07.05-.13.1-.2.16-.01,0-.02,0-.04,0,.01.01.02.02.04.04-.08.11-.15.23-.23.34-.02.03-.04.06-.05.1,0,.03,0,.07,0,.1-.18.47-.37.94-.55,1.4-.09.21-.37.38-.52.31-.17-.08-.25-.34-.16-.58l.13-.05s-.05-.06-.08-.1c.41-1.24,1.06-2.33,2.05-3.2.02-.01.04-.03.06-.04,2.36-1.96,5.79-2.09,8.31-.25.02.01.04.03.05.04.18.15.36.31.54.46l.34.34Z"/>
        <path class="cls-1" d="m3.75,8.04s-.07.09-.1.14c-.17.3-.15.38.16.55.42.24.84.49,1.25.73.14.09.21.34.14.48-.09.17-.32.25-.49.15-.61-.35-1.21-.71-1.83-1.06-.17-.09-.21-.24-.17-.38.1-.32.2-.66.36-.95.3-.54.79-.55,1.38-.3.19.08.36.19.54.29.17.1.34.2.51.3.21-.12.21-.29.09-.43-.28-.35-.58-.69-.88-1.03-.11-.12-.22-.24-.32-.37-.12-.15-.1-.43.05-.53.16-.1.35-.12.48.04.44.51.9,1.02,1.31,1.56.32.43.17.92-.13,1.28-.24.29-.75.26-1.15.03-.35-.2-.73-.37-1.09-.55-.04.01-.08.02-.12.03Z"/>
        <path class="cls-1" d="m3.7,16.92c-.29-.03-.56-.03-.82-.09-.31-.07-.39-.3-.22-.56.04-.06.13-.12.2-.12.31,0,.63.04.94.03.13,0,.28-.01.35-.21.09-.26.24-.5.38-.74.11-.21.34-.3.52-.21.16.07.23.33.14.53-.1.22-.21.43-.32.66.27.02.52.05.77.07.19,0,.31.08.32.28.02.26-.07.4-.29.41-.36,0-.72,0-1.08,0-.03,0-.08,0-.1.02-.24.28-.29.89-.1,1.21.15.26.23.29.48.14.41-.24.81-.49,1.23-.71.13-.06.32-.06.46-.02.16.05.17.23.14.37-.02.08-.08.18-.15.22-.56.34-1.13.67-1.7.99-.28.16-.39.14-.62-.09-.32-.31-.62-.62-.7-1.09-.06-.35.04-.66.14-.98.01-.04.03-.09.04-.14Z"/>
        <path class="cls-1" d="m20.86,9.16c-.11.16-.24.31-.33.49-.12.24-.3.39-.45.32-.24-.1-.36-.32-.23-.58.18-.36.41-.69.65-1.08-.06-.11-.15-.29-.23-.44-.39.04-.75.09-1.12.1-.2,0-.38-.05-.5-.25-.1-.17-.02-.31.07-.41.07-.07.22-.07.33-.08.16,0,.34.04.49,0,.21-.07.14-.26.09-.41-.05-.15-.08-.31.07-.4.11-.07.26-.1.4-.1.07,0,.15.11.21.18.06.08.11.17.18.29.29-.25.39-.58.52-.91.11.01.27,0,.4.06.14.07.26.19.2.4-.12.46-.41.81-.75,1.12.04.06.08.12.12.18.22.36.22.34.6.29.3-.04.61-.03.91,0,.25.02.34.2.28.46-.03.16-.27.26-.45.24-.24-.02-.48,0-.72,0,.08.23.15.4.18.57.03.16-.06.28-.22.33-.16.04-.33.04-.43-.13-.06-.1-.12-.2-.18-.3l-.06-.05s-.03.06-.05.09Z"/>
        <path class="cls-1" d="m21.65,16.63c.34-.08.66-.04.97.11.24.11.32.29.23.5-.1.23-.29.31-.53.19-.32-.17-.65-.1-.77.18-.07.16-.16.34-.13.49.03.15.17.29.29.4.16.16.25.44.14.56-.14.16-.37.17-.58.04-.31-.18-.44-.49-.59-.77-.25-.01-.52.01-.75-.05-.37-.09-.63-.35-.85-.68-.24-.36-.17-.73-.08-1.08.1-.39.41-.62.77-.82.41-.23.77-.09,1.11.04.37.14.63.45.73.86l.04.04Zm-.74.34c0-.4-.24-.62-.65-.63-.31-.01-.61.29-.59.64.02.33.28.6.62.59.33,0,.61-.28.61-.6Z"/>
        <path class="cls-1" d="m18.85,20.59c.24-.03.41.06.48.23.07.18,0,.38-.18.45-.16.07-.34.06-.51.09-.62.11-1.09.46-1.47.95-.08.1-.2.18-.32.22-.13.04-.31.04-.35-.13-.03-.14-.05-.33.02-.43.13-.18.1-.31,0-.47-.13-.2-.26-.41-.36-.62-.09-.2-.21-.28-.44-.28-.13,0-.31-.1-.37-.21-.06-.09-.03-.31.04-.38.11-.1.29-.16.44-.18.73-.09,1.28-.45,1.7-1.04.15-.21.32-.26.51-.14.19.12.26.32.11.52-.16.22-.09.37.03.55.14.21.27.42.37.64.08.17.17.24.31.21Zm-.92.2c-.16-.27-.32-.54-.48-.81-.25.14-.48.27-.73.42.14.25.27.5.42.74.02.03.14.02.2,0,.19-.1.38-.22.59-.34Z"/>
        <path class="cls-1" d="m14.43,4.54c-.32.6-.78.69-1.23.53-.14-.05-.28-.17-.37-.29-.12-.15,0-.31.11-.4.09-.07.25-.07.38-.08.12,0,.34.07.36.03.07-.13.11-.31.09-.45-.05-.26-.14-.51-.23-.75-.02-.05-.09-.11-.15-.12-.12-.02-.25-.02-.37,0-.06.01-.15.06-.17.12-.17.33-.31.68-.5,1-.07.13-.21.24-.35.29-.17.07-.3-.04-.38-.21-.25-.49-.51-.97-.75-1.46-.09-.19-.01-.39.16-.46.2-.09.42-.03.51.16.13.24.25.49.4.78.13-.25.26-.47.35-.69.1-.25.3-.31.53-.33.07,0,.13,0,.2,0,.36.05.65-.01.84-.38.11-.21.38-.23.55-.1.15.11.18.34.02.53-.24.27-.28.52-.12.84.11.22.2.46.25.71.03.16-.03.34-.05.51,0,.05-.02.09-.02.14-.01.02-.03.04-.04.05Z"/>
        <path class="cls-1" d="m7.92,22.45c-.77,0-1.47-.71-1.42-1.48.03-.5.33-.86.75-1.13.25-.16.51-.31.73-.49.17-.14.14-.23-.06-.32-.06-.03-.14-.04-.2-.08-.16-.09-.23-.24-.19-.41.04-.16.17-.29.35-.28.35.03.73.2.88.59.17.47,0,.9-.5,1.22-.28.19-.57.38-.84.58-.2.15-.23.37-.14.6.09.24.37.43.64.44.24,0,.45-.09.54-.32.1-.23.17-.46.25-.69.09-.25.27-.34.5-.22.14.07.29.14.4.26.17.19.08.49-.16.53-.15.02-.17.09-.21.2-.22.62-.72,1-1.33.99Z"/>
        <path class="cls-1" d="m8.63,3.78c-.08.3-.14.54-.21.77.37.24.41.63.07.71-.39.09-.34.38-.42.63-.07.22-.14.45-.23.67-.03.07-.14.13-.22.14-.3.01-.49-.25-.4-.54.06-.21.1-.43.17-.64.08-.22.14-.4-.1-.57-.06-.04-.09-.22-.06-.31.07-.22.24-.31.47-.29.07-.24.14-.48.21-.75-.08.02-.15.04-.21.07-.21.1-.36.03-.47-.15-.11-.19-.06-.36.11-.46.33-.21.66-.41,1.01-.57.11-.05.37-.02.43.07.23.35.43.72.62,1.1.06.12.17.29-.04.41-.19.1-.47.07-.6-.08-.03-.03-.05-.08-.13-.18Z"/>
        <path class="cls-1" d="m23.42,11.48c0,.22.11.44-.05.65-.01,0-.02,0-.04,0,.01.01.02.02.04.04-.05.13-.11.26-.18.42.26.25.32.62.24.96-.06.25-.3.48-.5.68-.15.14-.32.28-.58.21-.25-.07-.36-.17-.36-.42,0-.24.13-.32.35-.32.19,0,.39-.24.38-.4,0-.19-.19-.35-.42-.35-.45,0-.9,0-1.35-.01-.26,0-.39-.18-.33-.42.04-.18.18-.3.38-.3.42,0,.84.01,1.25,0,.13,0,.27-.06.36-.15.07-.07.11-.23.07-.31-.05-.1-.18-.21-.29-.24-.27-.06-.43-.2-.41-.44.02-.23.15-.34.45-.3.43.05.76.26.93.69.01.02.03.04.04.05Z"/>
        <path class="cls-1" d="m2.62,12.41c-.02.4.04.45.43.55.12.03.26.21.28.34.05.24.02.49,0,.73-.01.23-.18.35-.44.34-.25,0-.28-.18-.29-.36,0-.13,0-.26,0-.4-.51-.23-.78-.6-.74-1.17.03-.35.19-.61.5-.78.23-.12.24-.33.24-.56,0-.11.09-.28.18-.31.12-.04.3-.02.41.04.08.05.13.22.13.33,0,.24-.02.48-.04.72-.02.22-.18.28-.36.32-.1.03-.19.09-.28.14-.01.02-.02.04-.04.05Z"/>
        <path class="cls-1" d="m12.52,23.59c-.41-.01-.82-.07-1.17-.35-.18-.15-.24-.34-.12-.49.13-.17.32-.21.5-.1.45.28.91.22,1.38.09.11-.03.22-.09.31-.17.06-.05.12-.16.1-.22-.02-.06-.12-.12-.2-.15-.28-.08-.41-.21-.38-.43.04-.23.2-.29.53-.27.41.03.63.28.75.63.14.41-.06.84-.42,1.08-.38.26-.81.35-1.28.36Z"/>
        <path class="cls-1" d="m12.77,20.14c.45-.04.86.07,1.24.29.15.08.23.33.16.48-.07.16-.32.25-.49.16-.03-.01-.06-.03-.08-.05-.21-.13-.42-.21-.68-.15-.27.06-.55.06-.83.12-.15.03-.26.15-.22.32.01.06.08.14.14.15.3.07.46.25.4.46-.07.23-.37.35-.64.25-.43-.15-.67-.47-.67-.9,0-.39.21-.71.59-.91.35-.18.7-.26,1.08-.23Z"/>
        <path class="cls-1" d="m16.43,4.66c.15-.02.31-.04.47-.07.2-.03.46.03.55.28.06.17.16.33.25.5.18-.01.37-.03.56-.04.27,0,.44.11.45.31.02.25-.1.39-.38.42-.26.03-.51.03-.77.05-.23.02-.4-.07-.47-.29-.11-.38-.34-.52-.72-.45-.32.06-.5-.09-.61-.37-.08-.21-.18-.41-.27-.61-.09-.2-.03-.41.14-.5.19-.1.41-.02.52.18,0,.01,0,.03.01.05.08.16.17.32.27.53Z"/>
        <path class="cls-1" d="m17.6,4.1c-.22,0-.44.02-.66,0-.12-.02-.28-.08-.34-.17-.17-.29-.33-.6-.43-.92-.03-.1.1-.31.22-.39.17-.11.36,0,.46.16.11.18.19.38.3.6.14-.02.3-.04.46-.07.25-.05.44.05.56.29.04.08.09.17.13.25.04.08.08.16.13.26.19-.02.39-.05.59-.06.23,0,.4.13.42.31.02.24-.1.4-.35.42-.27.03-.55.04-.82.05-.21.01-.35-.07-.44-.26-.07-.16-.15-.31-.23-.47Z"/>
        <path class="cls-1" d="m4.73,10.83c.03.11.09.22.09.33,0,.93,0,1.87,0,2.8,0,.25-.13.41-.33.43-.29.02-.4-.08-.4-.37,0-.74,0-1.49,0-2.23,0-.25-.03-.5.01-.74.02-.14.12-.32.24-.38.09-.04.26.08.39.13-.01.01-.02.02-.03.03.01,0,.02,0,.04,0Z"/>
      </g>
      <path class="cls-1" d="m12.61,25.21C5.66,25.21,0,19.56,0,12.61S5.66,0,12.61,0s12.61,5.66,12.61,12.61-5.66,12.61-12.61,12.61ZM12.61.62C6,.62.62,6,.62,12.61s5.38,11.98,11.98,11.98,11.98-5.38,11.98-11.98S19.21.62,12.61.62Z"/>
    </g>
  </g>
</svg>