<?xml version="1.0" encoding="UTF-8"?>
<svg id="_レイヤー_2" data-name="レイヤー 2" xmlns="http://www.w3.org/2000/svg" viewBox="0 0 356.86 97.21">
  <defs>
    <style>
      .cls-1 {
        fill: #39395c;
        stroke-width: 0px;
      }
    </style>
  </defs>
  <g id="design">
    <g>
      <path class="cls-1" d="m33.63.77l.33,12.22h-.63c-.2-.53-.36-.93-.46-1.2-.64-1.75-1.16-3.05-1.56-3.91-.71-1.53-1.74-2.93-3.09-4.21-1.02-.97-2.08-1.67-3.17-2.11s-2.32-.66-3.69-.66c-2.06,0-3.85.45-5.36,1.34-1.33.78-2.57,1.91-3.72,3.38-1.15,1.47-2.09,3.14-2.82,5.02-1.04,2.64-1.56,5.65-1.56,9.02,0,2.86.36,5.44,1.07,7.74s1.75,4.22,3.12,5.77c2.52,2.88,5.85,4.32,10.01,4.32,2.08,0,3.95-.36,5.61-1.08,1.66-.72,2.94-1.74,3.86-3.05,1.06-1.51,1.82-3.55,2.3-6.12l.63.11c-.35,2.88-1.13,5.17-2.35,6.86-1.17,1.62-2.78,2.86-4.83,3.72-2.05.86-4.43,1.29-7.12,1.29-2.52,0-4.92-.37-7.22-1.12-3.66-1.2-6.53-3.38-8.59-6.52s-3.09-6.9-3.09-11.25c0-3.34.6-6.41,1.8-9.23s2.88-5.08,5.03-6.79c1.66-1.31,3.64-2.36,5.95-3.13,2.31-.77,4.62-1.16,6.93-1.16s4.54.42,7,1.26l2.24.74c.44.16.82.25,1.15.25.46,0,.83-.19,1.12-.57.13-.18.28-.48.46-.9h.66Z"/>
      <path class="cls-1" d="m51.44,20.02v9.68c0,1.86.1,3.24.31,4.14s.6,1.65,1.16,2.23c.49.51,1.06.89,1.71,1.13s1.5.4,2.56.45v.63h-17.47v-.63c1.06-.05,1.91-.21,2.56-.45s1.22-.62,1.71-1.13c.58-.58.98-1.32,1.18-2.21.2-.89.3-2.28.3-4.16V9.54c0-1.88-.1-3.26-.3-4.16-.2-.89-.59-1.63-1.18-2.21-.49-.53-1.07-.91-1.72-1.15-.66-.24-1.5-.38-2.54-.44v-.63h13.18c2.21,0,3.65,0,4.35.03,2.83.13,5.04.51,6.64,1.15,1.8.73,3.2,1.82,4.2,3.27s1.49,3.13,1.49,5.04c0,2.84-1.08,5.12-3.23,6.84-.66.51-1.38.93-2.17,1.26s-1.85.64-3.19.93c1.09.46,1.9.93,2.43,1.42.42.38.8.86,1.15,1.44s.87,1.59,1.56,3.05c1.62,3.34,2.85,5.77,3.68,7.31.83,1.54,1.53,2.66,2.09,3.35.46.57.9.96,1.33,1.18s1.02.36,1.76.44v.63h-9.08c-.46-1-.75-1.64-.88-1.91l-1.91-4.35c-1.15-2.61-2.31-4.91-3.47-6.92-1.17-1.99-2.23-3.34-3.2-4.07-.49-.36-1.02-.62-1.59-.78-.56-.15-1.26-.23-2.08-.23h-1.34Zm0-.6h1.04c2.26,0,3.88-.13,4.85-.38.98-.26,1.89-.78,2.75-1.59,1.91-1.82,2.87-4.08,2.87-6.78,0-1.44-.28-2.79-.83-4.06-.56-1.27-1.33-2.31-2.31-3.13-.77-.62-1.68-1.05-2.73-1.3s-2.56-.37-4.51-.37h-1.12v17.61Z"/>
      <path class="cls-1" d="m109.09.96l.46,9.02-.63.03c-.24-1.53-.63-2.8-1.18-3.8-.55-1-1.34-1.89-2.38-2.65-.86-.64-1.87-1.09-3.04-1.35-1.17-.26-2.72-.4-4.65-.4h-6.26v16.41h1.64c1.66,0,2.91-.11,3.75-.33s1.52-.61,2.05-1.18c.51-.53.89-1.15,1.13-1.87.25-.72.45-1.78.62-3.19l.63.03-.11,14.66h-.63c-.16-1.4-.41-2.53-.72-3.39-.32-.86-.76-1.59-1.33-2.19-.55-.58-1.26-1.01-2.13-1.29s-1.99-.41-3.34-.41h-1.56v6.26c0,2.5.06,4.32.19,5.46.13,1.14.37,2.09.74,2.86.62,1.31,1.56,2.27,2.83,2.88,1.27.61,2.94.92,5.02.92,2.19,0,4.02-.28,5.5-.83,1.48-.56,2.68-1.42,3.61-2.58.66-.78,1.19-1.68,1.6-2.68.41-1,.79-2.32,1.13-3.96l.63.03-.36,10.88h-32.62v-.63c1.04-.05,1.88-.2,2.53-.44.65-.24,1.23-.62,1.74-1.15.56-.58.95-1.33,1.16-2.23s.31-2.28.31-4.14V9.54c0-1.86-.1-3.24-.31-4.14s-.6-1.65-1.16-2.23c-.49-.53-1.06-.91-1.71-1.15-.65-.24-1.5-.38-2.56-.44v-.63h29.39Z"/>
      <path class="cls-1" d="m156.71,38.28h-17.96v-.63c1.62-.15,2.75-.42,3.39-.82,1.13-.71,1.7-1.7,1.7-2.95,0-.75-.26-1.75-.77-3.01l-.46-1.15-2.62-6.45h-12.03l-1.42,3.77-.68,1.7c-.82,2.01-1.23,3.58-1.23,4.73,0,.67.15,1.3.45,1.89.3.58.71,1.06,1.22,1.42.71.49,1.62.78,2.73.88v.63h-12.25v-.63c.97-.05,1.81-.29,2.54-.71.73-.42,1.44-1.09,2.13-2.02.58-.75,1.15-1.71,1.71-2.88s1.29-2.94,2.2-5.29L135.36.96h1.56l11.89,28.74c.89,2.17,1.6,3.72,2.13,4.65s1.1,1.63,1.72,2.11c.44.33.94.58,1.5.75.56.17,1.41.32,2.54.45v.63Zm-17.17-16.13l-5.74-14.16-5.41,14.16h11.16Z"/>
      <path class="cls-1" d="m171.26,1.8c-1.15,0-2.38.04-3.69.11-2.81.15-4.9.5-6.28,1.07-1.38.57-2.51,1.54-3.4,2.93-.82,1.28-1.45,3.01-1.89,5.2l-.63-.05.49-10.09h37l.49,10.09-.63.05c-.49-2.53-1.26-4.45-2.31-5.76-1.05-1.3-2.58-2.24-4.58-2.8-1.7-.49-4.57-.74-8.61-.74v27.89c0,1.86.1,3.24.31,4.14.21.9.6,1.65,1.16,2.23.51.53,1.09.91,1.74,1.15.65.24,1.49.38,2.53.44v.63h-17.47v-.63c1.06-.05,1.91-.2,2.56-.44.65-.24,1.23-.62,1.74-1.15.56-.58.95-1.32,1.16-2.21.21-.89.31-2.28.31-4.16V1.8Z"/>
      <path class="cls-1" d="m227.51.96l.46,9.02-.63.03c-.24-1.53-.63-2.8-1.18-3.8-.55-1-1.34-1.89-2.38-2.65-.86-.64-1.87-1.09-3.04-1.35-1.17-.26-2.72-.4-4.65-.4h-6.26v16.41h1.64c1.66,0,2.91-.11,3.75-.33s1.52-.61,2.05-1.18c.51-.53.89-1.15,1.13-1.87.25-.72.45-1.78.62-3.19l.63.03-.11,14.66h-.63c-.16-1.4-.41-2.53-.72-3.39-.32-.86-.76-1.59-1.33-2.19-.55-.58-1.26-1.01-2.13-1.29s-1.99-.41-3.34-.41h-1.56v6.26c0,2.5.06,4.32.19,5.46.13,1.14.37,2.09.74,2.86.62,1.31,1.56,2.27,2.83,2.88,1.27.61,2.94.92,5.02.92,2.19,0,4.02-.28,5.5-.83,1.48-.56,2.68-1.42,3.61-2.58.66-.78,1.19-1.68,1.6-2.68.41-1,.79-2.32,1.13-3.96l.63.03-.36,10.88h-32.62v-.63c1.04-.05,1.88-.2,2.53-.44.65-.24,1.23-.62,1.74-1.15.56-.58.95-1.33,1.16-2.23s.31-2.28.31-4.14V9.54c0-1.86-.1-3.24-.31-4.14s-.6-1.65-1.16-2.23c-.49-.53-1.06-.91-1.71-1.15-.65-.24-1.5-.38-2.56-.44v-.63h29.39Z"/>
      <path class="cls-1" d="m11.73,76.32h19.41v-8.78c0-1.88-.1-3.26-.31-4.16-.21-.89-.6-1.63-1.16-2.21-.51-.53-1.09-.91-1.74-1.15-.65-.24-1.5-.38-2.56-.44v-.63h17.47v.63c-1.04.05-1.88.2-2.53.44-.65.24-1.23.62-1.74,1.15-.56.58-.95,1.33-1.16,2.23s-.31,2.28-.31,4.14v20.15c0,1.86.1,3.24.31,4.13.21.89.6,1.64,1.16,2.24.51.51,1.09.89,1.74,1.13s1.49.4,2.53.45v.63h-17.47v-.63c1.06-.05,1.91-.21,2.56-.45s1.23-.62,1.74-1.13c.56-.58.95-1.32,1.16-2.21.21-.89.31-2.28.31-4.16v-10.09H11.73v10.09c0,1.86.1,3.24.31,4.14s.6,1.65,1.16,2.23c.49.51,1.06.89,1.71,1.13s1.5.4,2.56.45v.63H0v-.63c1.06-.05,1.91-.21,2.56-.45s1.22-.62,1.71-1.13c.58-.58.98-1.32,1.18-2.21.2-.89.3-2.28.3-4.16v-20.15c0-1.88-.1-3.26-.3-4.16-.2-.89-.59-1.63-1.18-2.21-.49-.53-1.07-.91-1.72-1.15-.66-.24-1.5-.38-2.54-.44v-.63h17.47v.63c-1.04.05-1.88.2-2.53.44-.65.24-1.23.62-1.74,1.15-.56.58-.95,1.33-1.16,2.23s-.31,2.28-.31,4.14v8.78Z"/>
      <path class="cls-1" d="m47.16,77.87c0-3.06.66-5.91,1.97-8.52,1.31-2.62,3.23-4.9,5.74-6.85,1.88-1.44,3.9-2.55,6.07-3.32,2.17-.78,4.36-1.16,6.56-1.16,2.81,0,5.52.62,8.15,1.85,2.62,1.23,4.92,2.97,6.89,5.21,3.21,3.65,4.81,7.8,4.81,12.45,0,2.34-.42,4.59-1.26,6.76-.84,2.17-2.06,4.15-3.66,5.94-1.97,2.23-4.3,3.95-6.99,5.17-2.69,1.22-5.5,1.83-8.44,1.83s-5.67-.59-8.31-1.78c-2.64-1.19-4.92-2.86-6.84-5.03-1.51-1.7-2.68-3.63-3.49-5.79-.81-2.16-1.22-4.41-1.22-6.75Zm6.62.41c0,5.29,1.44,9.75,4.32,13.38,1.29,1.62,2.67,2.8,4.12,3.54,1.45.74,3.12,1.11,5.02,1.11s3.6-.36,5.04-1.09c1.45-.73,2.83-1.92,4.14-3.56,2.88-3.65,4.32-8.15,4.32-13.49,0-2.94-.4-5.71-1.19-8.33-.79-2.62-1.91-4.84-3.35-6.66-1.17-1.5-2.47-2.59-3.9-3.27-1.43-.68-3.12-1.03-5.07-1.03s-3.6.34-5.02,1.01c-1.41.67-2.72,1.77-3.92,3.28-1.44,1.81-2.55,4.02-3.34,6.65-.78,2.63-1.18,5.45-1.18,8.46Z"/>
      <path class="cls-1" d="m103.35,78.02v9.68c0,1.86.1,3.24.31,4.14.21.9.6,1.65,1.16,2.23.49.51,1.06.89,1.71,1.13.65.25,1.5.4,2.56.45v.63h-17.47v-.63c1.06-.05,1.91-.21,2.56-.45.65-.25,1.22-.62,1.71-1.13.58-.58.98-1.32,1.18-2.21.2-.89.3-2.28.3-4.16v-20.15c0-1.88-.1-3.26-.3-4.16-.2-.89-.59-1.63-1.18-2.21-.49-.53-1.07-.91-1.72-1.15-.66-.24-1.5-.38-2.54-.44v-.63h13.18c2.21,0,3.65,0,4.35.03,2.83.13,5.04.51,6.64,1.15,1.8.73,3.2,1.82,4.2,3.27.99,1.45,1.49,3.13,1.49,5.04,0,2.84-1.08,5.12-3.23,6.84-.66.51-1.38.93-2.17,1.26s-1.85.64-3.19.93c1.09.46,1.9.93,2.43,1.42.42.38.8.86,1.15,1.44.35.57.87,1.59,1.56,3.05,1.62,3.34,2.85,5.77,3.68,7.31.83,1.54,1.53,2.66,2.09,3.35.46.57.9.96,1.33,1.18.43.22,1.02.36,1.76.44v.63h-9.08c-.46-1-.75-1.64-.88-1.91l-1.91-4.35c-1.15-2.61-2.31-4.91-3.47-6.92-1.17-1.99-2.23-3.34-3.2-4.07-.49-.36-1.02-.62-1.59-.78-.57-.15-1.26-.23-2.08-.23h-1.34Zm0-.6h1.04c2.26,0,3.88-.13,4.85-.38.98-.26,1.89-.78,2.75-1.59,1.91-1.82,2.87-4.08,2.87-6.78,0-1.44-.28-2.79-.83-4.06-.56-1.27-1.33-2.31-2.31-3.13-.77-.62-1.68-1.05-2.73-1.3-1.06-.25-2.56-.37-4.51-.37h-1.12v17.61Z"/>
      <path class="cls-1" d="m129.42,77.87c0-3.06.66-5.91,1.97-8.52,1.31-2.62,3.23-4.9,5.74-6.85,1.88-1.44,3.9-2.55,6.07-3.32,2.17-.78,4.36-1.16,6.56-1.16,2.81,0,5.52.62,8.15,1.85,2.62,1.23,4.92,2.97,6.89,5.21,3.21,3.65,4.81,7.8,4.81,12.45,0,2.34-.42,4.59-1.26,6.76-.84,2.17-2.06,4.15-3.66,5.94-1.97,2.23-4.3,3.95-6.99,5.17-2.69,1.22-5.5,1.83-8.44,1.83s-5.67-.59-8.31-1.78c-2.64-1.19-4.92-2.86-6.84-5.03-1.51-1.7-2.68-3.63-3.49-5.79s-1.22-4.41-1.22-6.75Zm6.62.41c0,5.29,1.44,9.75,4.32,13.38,1.29,1.62,2.67,2.8,4.12,3.54,1.45.74,3.12,1.11,5.02,1.11s3.6-.36,5.04-1.09c1.45-.73,2.83-1.92,4.14-3.56,2.88-3.65,4.32-8.15,4.32-13.49,0-2.94-.4-5.71-1.19-8.33-.79-2.62-1.91-4.84-3.35-6.66-1.17-1.5-2.47-2.59-3.9-3.27-1.43-.68-3.12-1.03-5.07-1.03s-3.6.34-5.02,1.01c-1.41.67-2.72,1.77-3.92,3.28-1.44,1.81-2.55,4.02-3.34,6.65s-1.18,5.45-1.18,8.46Z"/>
      <path class="cls-1" d="m176.14,96.17l.08-11.29.63.03c.77,2.87,1.68,5.14,2.73,6.79,1.99,3.06,4.48,4.58,7.49,4.58,2.1,0,3.83-.7,5.2-2.11,1.37-1.4,2.05-3.18,2.05-5.33,0-.93-.15-1.88-.45-2.84-.3-.97-.71-1.8-1.22-2.49-.53-.71-1.27-1.39-2.23-2.05s-2.42-1.49-4.39-2.49c-1.73-.88-3.06-1.61-3.98-2.21s-1.66-1.21-2.23-1.83c-1.57-1.71-2.35-3.8-2.35-6.26,0-1.51.31-2.97.92-4.38.61-1.4,1.46-2.61,2.56-3.61,1.93-1.79,4.22-2.68,6.86-2.68.86,0,1.65.09,2.38.26.73.17,1.7.52,2.93,1.03.91.36,1.53.6,1.86.7.33.1.62.15.88.15.64,0,1.07-.46,1.29-1.39h.63l.19,10.86h-.63c-.49-1.73-.91-3.06-1.27-3.98-.36-.92-.78-1.77-1.27-2.56-.89-1.42-1.87-2.47-2.95-3.16-1.07-.68-2.31-1.03-3.71-1.03-2.04,0-3.65.69-4.83,2.08-.49.57-.88,1.23-1.16,2-.28.77-.42,1.53-.42,2.3,0,3.05,1.96,5.5,5.87,7.36l3.85,1.86c2.97,1.41,5.11,2.96,6.42,4.65,1.49,1.9,2.24,4.11,2.24,6.62,0,1.67-.34,3.27-1.01,4.8-.95,2.13-2.37,3.77-4.27,4.92-1.9,1.15-4.13,1.73-6.7,1.73-2.35,0-4.61-.46-6.78-1.39-1.13-.49-1.8-.77-2.02-.85-.22-.07-.46-.11-.74-.11-.88,0-1.48.44-1.8,1.31h-.63Z"/>
      <path class="cls-1" d="m239.16,58.77l.33,12.22h-.63c-.2-.53-.36-.93-.46-1.2-.64-1.75-1.16-3.05-1.56-3.91-.71-1.53-1.74-2.93-3.09-4.21-1.02-.97-2.08-1.67-3.17-2.11s-2.32-.66-3.69-.66c-2.06,0-3.85.45-5.36,1.34-1.33.78-2.57,1.91-3.72,3.38-1.15,1.47-2.09,3.14-2.82,5.02-1.04,2.64-1.56,5.65-1.56,9.02,0,2.86.36,5.44,1.07,7.74s1.75,4.22,3.12,5.77c2.52,2.88,5.85,4.32,10.01,4.32,2.08,0,3.95-.36,5.61-1.08,1.66-.72,2.94-1.74,3.86-3.05,1.06-1.51,1.82-3.55,2.3-6.12l.63.11c-.35,2.88-1.13,5.17-2.35,6.86-1.17,1.62-2.78,2.86-4.83,3.72-2.05.86-4.43,1.29-7.12,1.29-2.52,0-4.92-.37-7.22-1.12-3.66-1.2-6.53-3.38-8.59-6.52-2.06-3.14-3.09-6.9-3.09-11.25,0-3.34.6-6.41,1.8-9.23s2.88-5.08,5.03-6.79c1.66-1.31,3.64-2.36,5.95-3.13,2.31-.77,4.62-1.16,6.93-1.16s4.54.42,7,1.26l2.24.74c.44.16.82.25,1.15.25.46,0,.83-.19,1.12-.57.13-.18.28-.48.46-.9h.66Z"/>
      <path class="cls-1" d="m246.08,77.87c0-3.06.66-5.91,1.97-8.52,1.31-2.62,3.23-4.9,5.74-6.85,1.88-1.44,3.9-2.55,6.07-3.32,2.17-.78,4.36-1.16,6.56-1.16,2.81,0,5.52.62,8.15,1.85,2.62,1.23,4.92,2.97,6.89,5.21,3.21,3.65,4.81,7.8,4.81,12.45,0,2.34-.42,4.59-1.26,6.76-.84,2.17-2.06,4.15-3.66,5.94-1.97,2.23-4.3,3.95-6.99,5.17-2.69,1.22-5.5,1.83-8.44,1.83s-5.67-.59-8.31-1.78c-2.64-1.19-4.92-2.86-6.84-5.03-1.51-1.7-2.68-3.63-3.49-5.79s-1.22-4.41-1.22-6.75Zm6.62.41c0,5.29,1.44,9.75,4.32,13.38,1.29,1.62,2.67,2.8,4.12,3.54,1.45.74,3.12,1.11,5.02,1.11s3.6-.36,5.04-1.09c1.45-.73,2.83-1.92,4.14-3.56,2.88-3.65,4.32-8.15,4.32-13.49,0-2.94-.4-5.71-1.19-8.33-.79-2.62-1.91-4.84-3.35-6.66-1.17-1.5-2.47-2.59-3.9-3.27-1.43-.68-3.12-1.03-5.07-1.03s-3.6.34-5.02,1.01c-1.41.67-2.72,1.77-3.92,3.28-1.44,1.81-2.55,4.02-3.34,6.65s-1.18,5.45-1.18,8.46Z"/>
      <path class="cls-1" d="m302.27,77.88v9.82c0,1.86.1,3.24.31,4.14s.6,1.65,1.16,2.23c.49.51,1.06.89,1.71,1.13s1.5.4,2.56.45v.63h-17.47v-.63c1.06-.05,1.91-.21,2.56-.45s1.22-.62,1.71-1.13c.58-.58.98-1.32,1.18-2.21.2-.89.3-2.28.3-4.16v-20.15c0-1.57-.07-2.78-.21-3.62s-.37-1.54-.7-2.06c-.47-.73-1.08-1.27-1.8-1.63s-1.68-.57-2.84-.64h-.19v-.63h16.49c2.88,0,5,.15,6.37.44,1.37.29,2.62.88,3.75,1.75,2.59,1.97,3.88,4.59,3.88,7.88s-1.31,5.78-3.94,7.33c-1.37.8-3.03,1.29-4.98,1.45-.62.05-2.11.08-4.48.08h-5.36Zm0-.88h2.68c1.8,0,3.19-.13,4.17-.4.98-.26,1.85-.75,2.61-1.46,1.79-1.62,2.68-3.78,2.68-6.48,0-1.49-.26-2.87-.78-4.12-.52-1.25-1.26-2.26-2.23-3.05-1.11-.93-2.43-1.48-3.96-1.64-.42-.04-1.38-.05-2.87-.05h-2.3v17.2Z"/>
      <path class="cls-1" d="m353.28,58.96l.46,9.02-.63.03c-.24-1.53-.63-2.8-1.18-3.8-.55-1-1.34-1.89-2.38-2.65-.86-.64-1.87-1.09-3.04-1.35-1.17-.26-2.72-.4-4.65-.4h-6.26v16.41h1.64c1.66,0,2.91-.11,3.75-.33s1.52-.61,2.05-1.18c.51-.53.89-1.15,1.13-1.87.25-.72.45-1.78.62-3.19l.63.03-.11,14.66h-.63c-.16-1.4-.41-2.53-.72-3.39-.32-.86-.76-1.59-1.33-2.19-.55-.58-1.26-1.01-2.13-1.29s-1.99-.41-3.34-.41h-1.56v6.26c0,2.5.06,4.32.19,5.46.13,1.14.37,2.09.74,2.86.62,1.31,1.56,2.27,2.83,2.88,1.27.61,2.94.92,5.02.92,2.19,0,4.02-.28,5.5-.83,1.48-.56,2.68-1.42,3.61-2.58.66-.78,1.19-1.68,1.6-2.68.41-1,.79-2.32,1.13-3.96l.63.03-.36,10.88h-32.62v-.63c1.04-.05,1.88-.2,2.53-.44.65-.24,1.23-.62,1.74-1.15.56-.58.95-1.33,1.16-2.23s.31-2.28.31-4.14v-20.15c0-1.86-.1-3.24-.31-4.14s-.6-1.65-1.16-2.23c-.49-.53-1.06-.91-1.71-1.15-.65-.24-1.5-.38-2.56-.44v-.63h29.39Z"/>
    </g>
  </g>
</svg>