<?xml version="1.0" encoding="UTF-8"?><svg id="_レイヤー_2" xmlns="http://www.w3.org/2000/svg" xmlns:xlink="http://www.w3.org/1999/xlink" viewBox="0 0 149.86 130.62"><defs><style>.cls-1{fill:url(#_新規グラデーションスウォッチ_1-26);}.cls-1,.cls-2,.cls-3,.cls-4,.cls-5,.cls-6,.cls-7,.cls-8,.cls-9,.cls-10,.cls-11,.cls-12,.cls-13,.cls-14,.cls-15,.cls-16,.cls-17,.cls-18,.cls-19,.cls-20,.cls-21,.cls-22,.cls-23,.cls-24,.cls-25,.cls-26,.cls-27,.cls-28,.cls-29,.cls-30,.cls-31,.cls-32,.cls-33,.cls-34,.cls-35,.cls-36{stroke-width:0px;}.cls-2{fill:url(#_新規グラデーションスウォッチ_1);}.cls-3{fill:url(#_新規グラデーションスウォッチ_1-19);}.cls-4{fill:url(#_新規グラデーションスウォッチ_1-23);}.cls-5{fill:url(#_新規グラデーションスウォッチ_1-2);}.cls-6{fill:url(#_新規グラデーションスウォッチ_1-25);}.cls-7{fill:url(#_新規グラデーションスウォッチ_1-9);}.cls-8{fill:url(#_新規グラデーションスウォッチ_1-34);}.cls-9{fill:url(#_新規グラデーションスウォッチ_1-21);}.cls-37{stroke-width:1.5px;}.cls-37,.cls-38{fill:none;stroke:#39395c;stroke-linecap:round;stroke-linejoin:round;}.cls-10{fill:url(#_新規グラデーションスウォッチ_1-16);}.cls-11{fill:url(#_新規グラデーションスウォッチ_1-3);}.cls-12{fill:url(#_新規グラデーションスウォッチ_1-32);}.cls-13{fill:url(#_新規グラデーションスウォッチ_1-20);}.cls-14{fill:url(#_新規グラデーションスウォッチ_1-10);}.cls-15{fill:url(#_新規グラデーションスウォッチ_1-33);}.cls-16{fill:url(#_新規グラデーションスウォッチ_1-15);}.cls-17{fill:url(#_新規グラデーションスウォッチ_1-29);}.cls-18{fill:url(#_新規グラデーションスウォッチ_1-18);}.cls-19{fill:url(#_新規グラデーションスウォッチ_1-4);}.cls-20{fill:url(#_新規グラデーションスウォッチ_1-8);}.cls-21{fill:url(#_新規グラデーションスウォッチ_1-13);}.cls-22{fill:url(#_新規グラデーションスウォッチ_1-12);}.cls-23{fill:url(#_新規グラデーションスウォッチ_1-24);}.cls-24{fill:url(#_新規グラデーションスウォッチ_1-30);}.cls-25{fill:url(#_新規グラデーションスウォッチ_1-6);}.cls-26{fill:url(#_新規グラデーションスウォッチ_1-17);}.cls-27{fill:url(#_新規グラデーションスウォッチ_1-36);}.cls-28{fill:url(#_新規グラデーションスウォッチ_1-11);}.cls-29{fill:url(#_新規グラデーションスウォッチ_1-27);}.cls-30{fill:url(#_新規グラデーションスウォッチ_1-5);}.cls-31{fill:url(#_新規グラデーションスウォッチ_1-22);}.cls-32{fill:url(#_新規グラデーションスウォッチ_1-35);}.cls-38{stroke-width:1.2px;}.cls-33{fill:url(#_新規グラデーションスウォッチ_1-14);}.cls-34{fill:url(#_新規グラデーションスウォッチ_1-7);}.cls-35{fill:url(#_新規グラデーションスウォッチ_1-28);}.cls-36{fill:url(#_新規グラデーションスウォッチ_1-31);}</style><linearGradient id="_新規グラデーションスウォッチ_1" x1="-64.6" y1="372.97" x2="80.07" y2="42.97" gradientUnits="userSpaceOnUse"><stop offset="0" stop-color="#c9ddf1"/><stop offset=".06" stop-color="#c1daef" stop-opacity=".97"/><stop offset=".15" stop-color="#add2ec" stop-opacity=".89"/><stop offset=".26" stop-color="#8cc5e6" stop-opacity=".75"/><stop offset=".38" stop-color="#5fb2df" stop-opacity=".57"/><stop offset=".52" stop-color="#259cd5" stop-opacity=".33"/><stop offset=".54" stop-color="#1e99d4" stop-opacity=".3"/><stop offset=".76" stop-color="#0075bb"/><stop offset=".96" stop-color="#005b94"/></linearGradient><linearGradient id="_新規グラデーションスウォッチ_1-2" x1="-82.36" y1="365.18" x2="62.31" y2="35.18" xlink:href="#_新規グラデーションスウォッチ_1"/><linearGradient id="_新規グラデーションスウォッチ_1-3" x1="-46.83" y1="380.76" x2="97.83" y2="50.76" xlink:href="#_新規グラデーションスウォッチ_1"/><linearGradient id="_新規グラデーションスウォッチ_1-4" x1="-105.12" y1="355.21" x2="39.55" y2="25.21" xlink:href="#_新規グラデーションスウォッチ_1"/><linearGradient id="_新規グラデーションスウォッチ_1-5" x1="-24.07" y1="390.73" x2="120.59" y2="60.73" xlink:href="#_新規グラデーションスウォッチ_1"/><linearGradient id="_新規グラデーションスウォッチ_1-6" x1="-101.74" y1="356.69" x2="42.93" y2="26.69" xlink:href="#_新規グラデーションスウォッチ_1"/><linearGradient id="_新規グラデーションスウォッチ_1-7" x1="-27.45" y1="389.25" x2="117.21" y2="59.25" xlink:href="#_新規グラデーションスウォッチ_1"/><linearGradient id="_新規グラデーションスウォッチ_1-8" x1="-79.1" y1="366.61" x2="65.57" y2="36.61" xlink:href="#_新規グラデーションスウォッチ_1"/><linearGradient id="_新規グラデーションスウォッチ_1-9" x1="-50.09" y1="379.33" x2="94.57" y2="49.33" xlink:href="#_新規グラデーションスウォッチ_1"/><linearGradient id="_新規グラデーションスウォッチ_1-10" x1="-93.08" y1="360.48" x2="51.59" y2="30.48" xlink:href="#_新規グラデーションスウォッチ_1"/><linearGradient id="_新規グラデーションスウォッチ_1-11" x1="-36.11" y1="385.46" x2="108.55" y2="55.46" xlink:href="#_新規グラデーションスウォッチ_1"/><linearGradient id="_新規グラデーションスウォッチ_1-12" x1="-92.5" y1="360.74" x2="52.17" y2="30.74" xlink:href="#_新規グラデーションスウォッチ_1"/><linearGradient id="_新規グラデーションスウォッチ_1-13" x1="-36.69" y1="385.2" x2="107.97" y2="55.2" xlink:href="#_新規グラデーションスウォッチ_1"/><linearGradient id="_新規グラデーションスウォッチ_1-14" x1="-104.47" y1="355.49" x2="40.2" y2="25.49" xlink:href="#_新規グラデーションスウォッチ_1"/><linearGradient id="_新規グラデーションスウォッチ_1-15" x1="-24.72" y1="390.45" x2="119.94" y2="60.45" xlink:href="#_新規グラデーションスウォッチ_1"/><linearGradient id="_新規グラデーションスウォッチ_1-16" x1="-64.18" y1="373.15" x2="80.48" y2="43.15" xlink:href="#_新規グラデーションスウォッチ_1"/><linearGradient id="_新規グラデーションスウォッチ_1-17" x1="-65.01" y1="372.79" x2="79.66" y2="42.79" xlink:href="#_新規グラデーションスウォッチ_1"/><linearGradient id="_新規グラデーションスウォッチ_1-18" x1="-98.75" y1="358" x2="45.92" y2="28" xlink:href="#_新規グラデーションスウォッチ_1"/><linearGradient id="_新規グラデーションスウォッチ_1-19" x1="-30.44" y1="387.94" x2="114.22" y2="57.94" xlink:href="#_新規グラデーションスウォッチ_1"/><linearGradient id="_新規グラデーションスウォッチ_1-20" x1="-71.6" y1="369.89" x2="73.07" y2="39.89" xlink:href="#_新規グラデーションスウォッチ_1"/><linearGradient id="_新規グラデーションスウォッチ_1-21" x1="-57.59" y1="376.04" x2="87.08" y2="46.04" xlink:href="#_新規グラデーションスウォッチ_1"/><linearGradient id="_新規グラデーションスウォッチ_1-22" x1="-98.71" y1="358.02" x2="45.96" y2="28.02" xlink:href="#_新規グラデーションスウォッチ_1"/><linearGradient id="_新規グラデーションスウォッチ_1-23" x1="-30.49" y1="387.92" x2="114.18" y2="57.92" xlink:href="#_新規グラデーションスウォッチ_1"/><linearGradient id="_新規グラデーションスウォッチ_1-24" x1="-57.37" y1="376.14" x2="87.29" y2="46.14" xlink:href="#_新規グラデーションスウォッチ_1"/><linearGradient id="_新規グラデーションスウォッチ_1-25" x1="-71.82" y1="369.8" x2="72.85" y2="39.8" xlink:href="#_新規グラデーションスウォッチ_1"/><linearGradient id="_新規グラデーションスウォッチ_1-26" x1="-93.7" y1="360.21" x2="50.97" y2="30.21" xlink:href="#_新規グラデーションスウォッチ_1"/><linearGradient id="_新規グラデーションスウォッチ_1-27" x1="-35.49" y1="385.73" x2="109.18" y2="55.73" xlink:href="#_新規グラデーションスウォッチ_1"/><linearGradient id="_新規グラデーションスウォッチ_1-28" x1="-45.4" y1="381.39" x2="99.27" y2="51.39" xlink:href="#_新規グラデーションスウォッチ_1"/><linearGradient id="_新規グラデーションスウォッチ_1-29" x1="-83.79" y1="364.55" x2="60.87" y2="34.55" xlink:href="#_新規グラデーションスウォッチ_1"/><linearGradient id="_新規グラデーションスウォッチ_1-30" x1="-93.78" y1="360.18" x2="50.89" y2="30.18" xlink:href="#_新規グラデーションスウォッチ_1"/><linearGradient id="_新規グラデーションスウォッチ_1-31" x1="-35.42" y1="385.76" x2="109.25" y2="55.76" xlink:href="#_新規グラデーションスウォッチ_1"/><linearGradient id="_新規グラデーションスウォッチ_1-32" x1="-83.68" y1="364.6" x2="60.99" y2="34.6" xlink:href="#_新規グラデーションスウォッチ_1"/><linearGradient id="_新規グラデーションスウォッチ_1-33" x1="-45.51" y1="381.33" x2="99.15" y2="51.33" xlink:href="#_新規グラデーションスウォッチ_1"/><linearGradient id="_新規グラデーションスウォッチ_1-34" x1="-65.37" y1="372.63" x2="79.3" y2="42.63" xlink:href="#_新規グラデーションスウォッチ_1"/><linearGradient id="_新規グラデーションスウォッチ_1-35" x1="7.52" y1="404.58" x2="152.18" y2="74.58" xlink:href="#_新規グラデーションスウォッチ_1"/><linearGradient id="_新規グラデーションスウォッチ_1-36" x1="-134.8" y1="342.19" x2="9.87" y2="12.19" xlink:href="#_新規グラデーションスウォッチ_1"/></defs><g id="design"><circle class="cls-37" cx="70.28" cy="65.31" r="25.45"/><line class="cls-37" x1="70.28" y1="33.25" x2="70.28" y2=".75"/><line class="cls-37" x1="70.28" y1="129.87" x2="70.28" y2="97.37"/><line class="cls-37" x1="38.22" y1="65.31" x2="5.71" y2="65.31"/><line class="cls-37" x1="134.84" y1="65.31" x2="102.34" y2="65.31"/><line class="cls-37" x1="47.61" y1="42.64" x2="31.38" y2="26.41"/><line class="cls-37" x1="109.18" y1="104.21" x2="92.95" y2="87.98"/><line class="cls-37" x1="47.61" y1="87.98" x2="31.38" y2="104.21"/><line class="cls-37" x1="109.18" y1="26.41" x2="92.95" y2="42.64"/><line class="cls-37" x1="58.31" y1="35.57" x2="49.74" y2="14.28"/><line class="cls-37" x1="90.81" y1="116.35" x2="82.24" y2="95.05"/><line class="cls-37" x1="40.53" y1="77.28" x2="19.24" y2="85.85"/><line class="cls-37" x1="121.31" y1="44.78" x2="100.02" y2="53.34"/><line class="cls-37" x1="40.78" y1="52.74" x2="19.67" y2="43.75"/><line class="cls-37" x1="120.89" y1="86.88" x2="99.77" y2="77.88"/><line class="cls-37" x1="57.71" y1="94.81" x2="48.71" y2="115.92"/><line class="cls-37" x1="91.84" y1="14.7" x2="82.84" y2="35.82"/><line class="cls-37" x1="44.1" y1="46.8" x2="34.29" y2="39.86"/><line class="cls-37" x1="106.27" y1="90.76" x2="96.45" y2="83.82"/><line class="cls-37" x1="51.77" y1="91.49" x2="44.83" y2="101.3"/><line class="cls-37" x1="95.72" y1="29.32" x2="88.79" y2="39.14"/><line class="cls-37" x1="38.88" y1="58.8" x2="27.12" y2="56.36"/><line class="cls-37" x1="113.44" y1="74.26" x2="101.67" y2="71.82"/><line class="cls-37" x1="63.77" y1="96.7" x2="61.32" y2="108.47"/><line class="cls-37" x1="79.23" y1="22.15" x2="76.79" y2="33.92"/><line class="cls-37" x1="38.68" y1="70.73" x2="26.83" y2="72.77"/><line class="cls-37" x1="113.72" y1="57.86" x2="101.87" y2="59.89"/><line class="cls-37" x1="75.7" y1="96.91" x2="77.73" y2="108.75"/><line class="cls-37" x1="62.82" y1="21.87" x2="64.85" y2="33.71"/><line class="cls-37" x1="52.75" y1="38.47" x2="46.17" y2="28.41"/><line class="cls-37" x1="94.38" y1="102.22" x2="87.81" y2="92.15"/><line class="cls-37" x1="43.43" y1="82.84" x2="33.37" y2="89.41"/><line class="cls-37" x1="107.18" y1="41.21" x2="97.12" y2="47.78"/><path class="cls-37" d="m53.9,65.31c0-12.08,9.79-21.88,21.88-21.88,4.7,0,9.04,1.48,12.61,4-4.61-4.67-11.02-7.57-18.11-7.57-14.05,0-25.45,11.39-25.45,25.45s11.39,25.45,25.45,25.45c7.09,0,13.5-2.9,18.11-7.57-3.56,2.52-7.91,4-12.61,4-12.08,0-21.88-9.79-21.88-21.88Z"/><path class="cls-38" d="m138.45,108.42c-.16-3.1-.63-9.15-1.96-12.5h0s0,0,0,0c-1.32,3.35-1.8,9.4-1.96,12.5-2.86.15-10.81,1.96-10.81,1.96,3.35,1.32,7.7,1.8,10.81,1.96.16,3.1.63,9.15,1.96,12.5h0c1.32-3.35,1.8-9.4,1.96-12.5,3.1-.16,7.45-.63,10.81-1.96,0,0-7.7-1.8-10.81-1.96Z"/><path class="cls-38" d="m10.87,11.65c-.11-2.17-.44-6.38-1.37-8.72h0s0,0,0,0c-.92,2.34-1.25,6.56-1.37,8.72-2,.1-7.54,1.37-7.54,1.37,2.34.92,5.37,1.25,7.54,1.37.11,2.17.44,6.38,1.37,8.72h0c.92-2.34,1.25-6.56,1.37-8.72,2.17-.11,5.2-.44,7.54-1.37,0,0-5.37-1.25-7.54-1.37Z"/><path class="cls-2" d="m70.28,91.51c-14.45,0-26.2-11.75-26.2-26.2s11.75-26.2,26.2-26.2,26.2,11.75,26.2,26.2-11.75,26.2-26.2,26.2Zm0-50.9c-13.62,0-24.7,11.08-24.7,24.7s11.08,24.7,24.7,24.7,24.7-11.08,24.7-24.7-11.08-24.7-24.7-24.7Z"/><path class="cls-5" d="m70.28,34c-.41,0-.75-.34-.75-.75V.75c0-.41.34-.75.75-.75s.75.34.75.75v32.5c0,.41-.34.75-.75.75Z"/><path class="cls-11" d="m70.28,130.62c-.41,0-.75-.34-.75-.75v-32.5c0-.41.34-.75.75-.75s.75.34.75.75v32.5c0,.41-.34.75-.75.75Z"/><path class="cls-19" d="m38.22,66.06H5.71c-.41,0-.75-.34-.75-.75s.34-.75.75-.75h32.5c.41,0,.75.34.75.75s-.34.75-.75.75Z"/><path class="cls-30" d="m134.84,66.06h-32.5c-.41,0-.75-.34-.75-.75s.34-.75.75-.75h32.5c.41,0,.75.34.75.75s-.34.75-.75.75Z"/><path class="cls-25" d="m47.61,43.39c-.19,0-.38-.07-.53-.22l-16.23-16.23c-.29-.29-.29-.77,0-1.06s.77-.29,1.06,0l16.23,16.23c.29.29.29.77,0,1.06-.15.15-.34.22-.53.22Z"/><path class="cls-34" d="m109.18,104.96c-.19,0-.38-.07-.53-.22l-16.23-16.23c-.29-.29-.29-.77,0-1.06s.77-.29,1.06,0l16.23,16.23c.29.29.29.77,0,1.06-.15.15-.34.22-.53.22Z"/><path class="cls-20" d="m31.38,104.96c-.19,0-.38-.07-.53-.22-.29-.29-.29-.77,0-1.06l16.23-16.23c.29-.29.77-.29,1.06,0s.29.77,0,1.06l-16.23,16.23c-.15.15-.34.22-.53.22Z"/><path class="cls-7" d="m92.95,43.39c-.19,0-.38-.07-.53-.22-.29-.29-.29-.77,0-1.06l16.23-16.23c.29-.29.77-.29,1.06,0s.29.77,0,1.06l-16.23,16.23c-.15.15-.34.22-.53.22Z"/><path class="cls-14" d="m58.31,36.32c-.3,0-.58-.18-.7-.47l-8.57-21.29c-.15-.38.03-.82.42-.98.38-.16.82.03.98.42l8.57,21.29c.15.38-.03.82-.42.98-.09.04-.19.05-.28.05Z"/><path class="cls-28" d="m90.81,117.1c-.3,0-.58-.18-.7-.47l-8.57-21.29c-.15-.38.03-.82.42-.98.38-.16.82.03.98.42l8.57,21.29c.15.38-.03.82-.42.98-.09.04-.19.05-.28.05Z"/><path class="cls-22" d="m19.24,86.6c-.3,0-.58-.18-.7-.47-.15-.38.03-.82.42-.98l21.29-8.57c.38-.16.82.03.98.42s-.03.82-.42.98l-21.29,8.57c-.09.04-.19.05-.28.05Z"/><path class="cls-21" d="m100.02,54.09c-.3,0-.58-.18-.7-.47-.15-.38.03-.82.42-.98l21.29-8.57c.38-.16.82.03.98.42s-.03.82-.42.98l-21.29,8.57c-.09.04-.19.05-.28.05Z"/><path class="cls-33" d="m40.78,53.49c-.1,0-.2-.02-.29-.06l-21.12-9c-.38-.16-.56-.6-.4-.98s.6-.56.98-.4l21.12,9c.38.16.56.6.4.98-.12.29-.4.46-.69.46Z"/><path class="cls-16" d="m120.89,87.63c-.1,0-.2-.02-.29-.06l-21.12-9c-.38-.16-.56-.6-.4-.98.16-.38.6-.56.98-.4l21.12,9c.38.16.56.6.4.98-.12.29-.4.46-.69.46Z"/><path class="cls-10" d="m48.71,116.67c-.1,0-.2-.02-.29-.06-.38-.16-.56-.6-.4-.98l9-21.12c.16-.38.6-.56.98-.4.38.16.56.6.4.98l-9,21.12c-.12.29-.4.46-.69.46Z"/><path class="cls-26" d="m82.84,36.57c-.1,0-.2-.02-.29-.06-.38-.16-.56-.6-.4-.98l9-21.12c.16-.38.6-.56.98-.4.38.16.56.6.4.98l-9,21.12c-.12.29-.4.46-.69.46Z"/><path class="cls-18" d="m44.1,47.55c-.15,0-.3-.04-.43-.14l-9.81-6.94c-.34-.24-.42-.71-.18-1.04.24-.34.71-.42,1.05-.18l9.81,6.94c.34.24.42.71.18,1.04-.15.21-.38.32-.61.32Z"/><path class="cls-3" d="m106.26,91.51c-.15,0-.3-.04-.43-.14l-9.81-6.94c-.34-.24-.42-.71-.18-1.04.24-.34.71-.42,1.05-.18l9.81,6.94c.34.24.42.71.18,1.04-.15.21-.38.32-.61.32Z"/><path class="cls-13" d="m44.83,102.05c-.15,0-.3-.04-.43-.14-.34-.24-.42-.71-.18-1.04l6.94-9.81c.24-.34.71-.42,1.05-.18.34.24.42.71.18,1.04l-6.94,9.81c-.15.21-.38.32-.61.32Z"/><path class="cls-9" d="m88.79,39.89c-.15,0-.3-.04-.43-.14-.34-.24-.42-.71-.18-1.04l6.94-9.81c.24-.34.71-.42,1.05-.18.34.24.42.71.18,1.04l-6.94,9.81c-.15.21-.38.32-.61.32Z"/><path class="cls-31" d="m38.89,59.55c-.05,0-.1,0-.15-.02l-11.77-2.44c-.41-.08-.67-.48-.58-.89.08-.41.48-.67.89-.58l11.77,2.44c.41.08.67.48.58.89-.07.35-.39.6-.73.6Z"/><path class="cls-4" d="m113.44,75.01c-.05,0-.1,0-.15-.02l-11.77-2.44c-.41-.08-.67-.48-.58-.89.08-.41.48-.67.89-.58l11.77,2.44c.41.08.67.48.58.89-.07.35-.39.6-.73.6Z"/><path class="cls-23" d="m61.33,109.22c-.05,0-.1,0-.15-.02-.41-.08-.67-.48-.58-.89l2.44-11.77c.08-.41.48-.67.89-.58.41.08.67.48.58.89l-2.44,11.77c-.07.35-.39.6-.73.6Z"/><path class="cls-6" d="m76.79,34.67c-.05,0-.1,0-.15-.02-.41-.08-.67-.48-.58-.89l2.44-11.77c.08-.41.48-.67.89-.58.41.08.67.48.58.89l-2.44,11.77c-.07.35-.39.6-.73.6Z"/><path class="cls-1" d="m26.83,73.52c-.36,0-.68-.26-.74-.62-.07-.41.2-.8.61-.87l11.84-2.03c.41-.06.8.21.87.61.07.41-.2.8-.61.87l-11.84,2.03s-.09.01-.13.01Z"/><path class="cls-29" d="m101.87,60.64c-.36,0-.68-.26-.74-.62-.07-.41.2-.8.61-.87l11.84-2.03c.41-.06.8.21.87.61.07.41-.2.8-.61.87l-11.84,2.03s-.09.01-.13.01Z"/><path class="cls-35" d="m77.73,109.5c-.36,0-.68-.26-.74-.62l-2.03-11.84c-.07-.41.2-.8.61-.87.41-.06.8.21.87.61l2.03,11.84c.07.41-.2.8-.61.87-.04,0-.09.01-.13.01Z"/><path class="cls-17" d="m64.85,34.46c-.36,0-.68-.26-.74-.62l-2.03-11.84c-.07-.41.2-.8.61-.87.41-.06.8.21.87.61l2.03,11.84c.07.41-.2.8-.61.87-.04,0-.09.01-.13.01Z"/><path class="cls-24" d="m52.75,39.22c-.24,0-.48-.12-.63-.34l-6.57-10.06c-.23-.35-.13-.81.22-1.04s.81-.13,1.04.22l6.57,10.06c.23.35.13.81-.22,1.04-.13.08-.27.12-.41.12Z"/><path class="cls-36" d="m94.38,102.97c-.24,0-.48-.12-.63-.34l-6.57-10.06c-.23-.35-.13-.81.22-1.04.35-.23.81-.13,1.04.22l6.57,10.06c.23.35.13.81-.22,1.04-.13.08-.27.12-.41.12Z"/><path class="cls-12" d="m33.37,90.16c-.24,0-.48-.12-.63-.34-.23-.35-.13-.81.22-1.04l10.06-6.57c.35-.23.81-.13,1.04.22.23.35.13.81-.22,1.04l-10.06,6.57c-.13.08-.27.12-.41.12Z"/><path class="cls-15" d="m97.12,48.53c-.24,0-.48-.12-.63-.34-.23-.35-.13-.81.22-1.04l10.06-6.57c.35-.23.81-.13,1.04.22.23.35.13.81-.22,1.04l-10.06,6.57c-.13.08-.27.12-.41.12Z"/><path class="cls-8" d="m70.28,91.51c-14.45,0-26.2-11.75-26.2-26.2s11.75-26.2,26.2-26.2c7.06,0,13.68,2.77,18.64,7.8.27.28.29.72.04,1.01-.25.3-.69.35-1,.13-3.58-2.53-7.79-3.87-12.17-3.87-11.65,0-21.13,9.48-21.13,21.13s9.48,21.13,21.13,21.13c4.38,0,8.59-1.34,12.17-3.86.32-.23.75-.17,1,.13.25.3.23.74-.04,1.01-4.96,5.03-11.58,7.8-18.64,7.8Zm0-50.9c-13.62,0-24.7,11.08-24.7,24.7s11.08,24.7,24.7,24.7c4.15,0,8.14-1.01,11.69-2.93-1.99.57-4.07.86-6.18.86-12.48,0-22.63-10.15-22.63-22.63s10.15-22.63,22.63-22.63c2.11,0,4.19.29,6.18.86-3.55-1.91-7.54-2.93-11.68-2.93Z"/><path class="cls-32" d="m136.49,125.43c-.25,0-.47-.15-.56-.38-1.27-3.22-1.77-8.79-1.97-12.15-3.07-.19-7.21-.69-10.46-1.97-.24-.1-.4-.34-.38-.6.02-.26.21-.48.46-.54.31-.07,7.17-1.63,10.37-1.93.19-3.36.7-8.94,1.97-12.16.18-.46.94-.46,1.12,0,1.27,3.23,1.78,8.8,1.97,12.16,3.37.3,10.07,1.86,10.37,1.93.26.06.44.28.46.54.02.26-.13.51-.38.6-3.25,1.28-7.38,1.78-10.46,1.97-.19,3.36-.7,8.93-1.97,12.15-.09.23-.31.38-.56.38Zm-10.49-14.94c2.89.79,6.14,1.12,8.57,1.24.31.02.55.26.57.57.14,2.69.49,7.25,1.36,10.56.87-3.32,1.22-7.87,1.36-10.56.02-.31.26-.55.57-.57,2.43-.13,5.69-.45,8.58-1.25-2.5-.54-6.57-1.37-8.58-1.47-.31-.02-.55-.26-.57-.57-.14-2.69-.49-7.25-1.36-10.56-.87,3.32-1.22,7.87-1.36,10.56-.02.31-.26.55-.57.57-1.87.09-6.02.93-8.57,1.47Z"/><path class="cls-27" d="m9.5,23.7c-.25,0-.47-.15-.56-.38-.88-2.22-1.23-6-1.38-8.38-2.14-.14-4.96-.49-7.19-1.38-.24-.1-.4-.34-.38-.6.02-.26.21-.48.46-.54.21-.05,4.8-1.09,7.1-1.33.14-2.37.5-6.16,1.38-8.39.18-.46.94-.46,1.12,0,.88,2.23,1.24,6.02,1.38,8.39,2.41.25,6.9,1.29,7.11,1.34.26.06.44.28.46.54.02.26-.13.51-.38.6-2.23.88-5.05,1.24-7.19,1.38-.14,2.37-.5,6.15-1.38,8.38-.09.23-.31.38-.56.38ZM2.99,13.11c1.8.41,3.71.59,5.18.67.31.02.55.26.57.57.09,1.67.29,4.39.77,6.58.5-2.33.7-5.22.77-6.58.02-.31.26-.55.57-.57,1.48-.08,3.4-.26,5.2-.67-1.72-.36-3.99-.8-5.2-.86-.31-.02-.55-.26-.57-.57-.07-1.37-.27-4.26-.77-6.58-.47,2.2-.68,4.91-.77,6.58-.02.31-.26.55-.57.57-1.12.06-3.43.5-5.18.86Z"/></g></svg>