<?xml version="1.0" encoding="UTF-8"?><svg id="_レイヤー_2" xmlns="http://www.w3.org/2000/svg" viewBox="0 0 24.15 24.15"><defs><style>.cls-1{fill:#39385d;stroke-width:0px;}</style></defs><g id="design"><path class="cls-1" d="m10.61,0h3.02c.02.05.08.04.12.06.64.22.98.65,1.01,1.32.02.56.02,1.12.02,1.67,0,.13.04.19.17.23.47.15.93.34,1.36.58.12.07.18.03.26-.05.36-.36.72-.72,1.08-1.08.69-.69,1.58-.7,2.27-.02.52.51,1.03,1.03,1.55,1.55.68.69.68,1.56,0,2.25-.37.38-.74.75-1.12,1.12-.13.12-.13.22-.05.37.21.37.38.76.47,1.17.04.18.13.21.29.21.59,0,1.18,0,1.77,0,.51.01.89.27,1.14.71.07.13.12.28.18.42v2.97s-.04.08-.05.13c-.14.59-.63,1.18-1.45,1.16-.56-.02-1.12,0-1.67,0-.16,0-.23.06-.29.2-.14.37-.29.74-.46,1.1-.06.12-.05.18.05.28.42.41.84.83,1.25,1.25.61.64.61,1.52,0,2.15-.53.54-1.06,1.07-1.6,1.6-.69.67-1.56.66-2.25-.02-.4-.39-.79-.78-1.18-1.18-.1-.1-.18-.12-.3-.05-.39.23-.8.4-1.23.52-.12.04-.17.09-.17.23,0,.56,0,1.12,0,1.67,0,.26-.03.51-.14.75-.21.46-.58.72-1.05.87h-2.88s-.07-.04-.1-.05c-.8-.24-1.23-.81-1.22-1.65,0-.53,0-1.07,0-1.6,0-.13-.04-.2-.16-.23-.41-.12-.8-.28-1.17-.48-.12-.06-.19-.04-.28.05-.38.39-.76.77-1.15,1.15-.68.67-1.56.68-2.23,0-.52-.51-1.04-1.03-1.55-1.55-.68-.68-.68-1.57,0-2.25.36-.36.72-.72,1.09-1.08.11-.1.12-.18.04-.3-.23-.38-.44-.78-.54-1.22-.04-.16-.12-.19-.27-.19-.55,0-1.1,0-1.65,0-.31,0-.58-.11-.83-.29-.36-.26-.55-.63-.68-1.04,0-.97,0-1.95,0-2.92.02-.03.06-.06.07-.09.25-.69.77-1.03,1.49-1.05.52-.01,1.04,0,1.56,0,.12,0,.19-.02.22-.14.11-.49.31-.95.57-1.39.08-.14.04-.22-.06-.32-.35-.35-.7-.7-1.04-1.06-.64-.67-.65-1.54,0-2.2.52-.53,1.05-1.06,1.58-1.58.67-.66,1.56-.65,2.22.01.34.34.68.67,1.01,1.02.12.13.21.13.36.06.37-.19.75-.35,1.15-.47.2-.06.25-.17.25-.36,0-.53,0-1.05,0-1.58,0-.46.24-.8.6-1.06.19-.14.43-.19.63-.31Zm2.73,21.3s0,0,0,0c0-.4,0-.8,0-1.2,0-.37.21-.64.57-.71.73-.14,1.4-.44,2.03-.83.43-.27.71-.23,1.08.12.53.51,1.05,1.02,1.56,1.54.17.18.27.16.43,0,.44-.47.9-.92,1.37-1.37.14-.14.14-.21,0-.35-.54-.56-1.14-1.06-1.61-1.69-.24-.32-.28-.63-.07-.98.35-.59.61-1.21.79-1.88.12-.46.33-.61.82-.62.73,0,1.46,0,2.19,0,.15,0,.21-.05.2-.2,0-.72,0-1.43,0-2.15,0-.16-.06-.2-.21-.19-.7,0-1.4,0-2.1,0-.5,0-.75-.2-.87-.69-.17-.72-.44-1.4-.81-2.04-.24-.41-.19-.7.14-1.04.51-.5,1.01-1.01,1.52-1.51.14-.14.12-.21,0-.33-.48-.47-.95-.94-1.42-1.42-.13-.13-.2-.15-.33,0-.48.5-.97.99-1.46,1.48-.36.36-.64.4-1.07.14-.62-.38-1.28-.65-1.98-.86-.63-.18-.78-.37-.78-1.02,0-.62-.01-1.24,0-1.86,0-.2-.05-.27-.26-.27-.67.02-1.34.02-2,.01-.21,0-.28.07-.27.28,0,.66,0,1.32,0,1.98,0,.44-.16.68-.58.8-.79.24-1.55.54-2.27.95-.3.17-.65.11-.88-.16-.45-.52-.96-.97-1.43-1.47-.12-.13-.2-.13-.32,0-.47.48-.95.97-1.43,1.44-.14.13-.1.2,0,.31.48.47.95.93,1.43,1.41.35.35.38.65.13,1.08-.4.65-.71,1.34-.86,2.1-.09.5-.36.7-.87.7-.68,0-1.35,0-2.03,0-.19,0-.26.06-.26.26,0,.65,0,1.31,0,1.96,0,.21.06.29.28.29.72,0,1.45.02,2.17.03.4,0,.62.17.73.56.21.74.51,1.43.91,2.08.24.38.19.7-.12,1.02-.5.51-1.01,1.02-1.52,1.52-.12.11-.12.18,0,.3.49.48.97.96,1.45,1.45.13.13.2.12.32,0,.51-.52,1.03-1.03,1.55-1.55.31-.31.6-.35.98-.13.64.37,1.32.65,2.03.84.45.12.64.37.62.84-.04.71-.03,1.41-.03,2.12,0,.3.03.33.34.33.67,0,1.34-.01,2,0,.17,0,.2-.06.2-.21,0-.4,0-.8,0-1.2Z"/><path class="cls-1" d="m12.11,16.77c-2.72-.04-4.88-2.24-4.86-4.93.02-2.69,2.26-4.95,5.07-4.85,2.65.1,4.81,2.3,4.71,5.07-.09,2.62-2.25,4.72-4.92,4.71Zm3.46-4.89c.04-1.88-1.55-3.46-3.45-3.45-1.88.01-3.43,1.54-3.44,3.42,0,1.89,1.56,3.47,3.45,3.47,1.89,0,3.44-1.55,3.44-3.45Z"/></g></svg>