<?xml version="1.0" encoding="UTF-8"?><svg id="_レイヤー_2" xmlns="http://www.w3.org/2000/svg" xmlns:xlink="http://www.w3.org/1999/xlink" viewBox="0 0 399.07 39.21"><defs><style>.cls-1{fill:url(#_新規グラデーションスウォッチ_1);}.cls-1,.cls-2,.cls-3,.cls-4,.cls-5,.cls-6,.cls-7,.cls-8,.cls-9,.cls-10{stroke-width:0px;}.cls-2{fill:url(#_新規グラデーションスウォッチ_1-2);}.cls-3{fill:url(#_新規グラデーションスウォッチ_1-9);}.cls-4{fill:url(#_新規グラデーションスウォッチ_1-3);}.cls-5{fill:url(#_新規グラデーションスウォッチ_1-4);}.cls-6{fill:url(#_新規グラデーションスウォッチ_1-8);}.cls-7{fill:url(#_新規グラデーションスウォッチ_1-6);}.cls-8{fill:#39395c;}.cls-9{fill:url(#_新規グラデーションスウォッチ_1-5);}.cls-10{fill:url(#_新規グラデーションスウォッチ_1-7);}</style><linearGradient id="_新規グラデーションスウォッチ_1" x1="-40.99" y1="166.98" x2="103.68" y2="-163.02" gradientUnits="userSpaceOnUse"><stop offset="0" stop-color="#c9ddf1"/><stop offset=".06" stop-color="#c1daef" stop-opacity=".97"/><stop offset=".15" stop-color="#add2ec" stop-opacity=".89"/><stop offset=".26" stop-color="#8cc5e6" stop-opacity=".75"/><stop offset=".38" stop-color="#5fb2df" stop-opacity=".57"/><stop offset=".52" stop-color="#259cd5" stop-opacity=".33"/><stop offset=".54" stop-color="#1e99d4" stop-opacity=".3"/><stop offset=".76" stop-color="#0075bb"/><stop offset=".96" stop-color="#005b94"/></linearGradient><linearGradient id="_新規グラデーションスウォッチ_1-2" x1="-5.43" y1="182.57" x2="139.24" y2="-147.43" xlink:href="#_新規グラデーションスウォッチ_1"/><linearGradient id="_新規グラデーションスウォッチ_1-3" x1="52.73" y1="208.06" x2="197.4" y2="-121.94" xlink:href="#_新規グラデーションスウォッチ_1"/><linearGradient id="_新規グラデーションスウォッチ_1-4" x1="78.69" y1="219.44" x2="223.36" y2="-110.56" xlink:href="#_新規グラデーションスウォッチ_1"/><linearGradient id="_新規グラデーションスウォッチ_1-5" x1="111.92" y1="234.01" x2="256.59" y2="-95.99" xlink:href="#_新規グラデーションスウォッチ_1"/><linearGradient id="_新規グラデーションスウォッチ_1-6" x1="146.8" y1="249.3" x2="291.47" y2="-80.7" xlink:href="#_新規グラデーションスウォッチ_1"/><linearGradient id="_新規グラデーションスウォッチ_1-7" x1="179.83" y1="263.78" x2="324.5" y2="-66.22" xlink:href="#_新規グラデーションスウォッチ_1"/><linearGradient id="_新規グラデーションスウォッチ_1-8" x1="219.09" y1="280.99" x2="363.76" y2="-49.01" xlink:href="#_新規グラデーションスウォッチ_1"/><linearGradient id="_新規グラデーションスウォッチ_1-9" x1="253.86" y1="296.24" x2="398.53" y2="-33.76" xlink:href="#_新規グラデーションスウォッチ_1"/></defs><g id="design"><path class="cls-8" d="m47.22,1.59c-1.04.05-1.87.2-2.5.42-.63.23-1.21.61-1.74,1.13-.4.38-.7.81-.9,1.27-.2.46-.34,1.05-.41,1.76-.13.95-.19,2.07-.19,3.36v20.15c0,1.88.11,3.27.33,4.18.22.91.61,1.64,1.18,2.19,1,.97,2.42,1.5,4.24,1.59v.63h-17.47v-.63c1.06-.05,1.91-.21,2.56-.45.65-.25,1.23-.62,1.74-1.13.56-.58.95-1.33,1.16-2.23.21-.9.31-2.28.31-4.14V5.25l-14.08,33.03h-.57L6.86,5.74v23.95c0,1.88.1,3.26.31,4.16.21.89.6,1.63,1.16,2.21.51.53,1.09.91,1.74,1.15.65.24,1.49.38,2.53.44v.63H0v-.63c1.04-.05,1.88-.2,2.53-.44.65-.24,1.23-.62,1.74-1.15.56-.58.95-1.33,1.16-2.23.21-.9.31-2.28.31-4.14V9.54c0-.84-.03-1.63-.08-2.38-.09-1.35-.3-2.33-.63-2.95-.46-.86-1.08-1.49-1.87-1.9s-1.85-.65-3.16-.72v-.63h11.87l11.84,29.23L35.98.96h11.24v.63Z"/><path class="cls-8" d="m62.86,38.28v-.63c1.04-.05,1.89-.2,2.54-.44.66-.24,1.24-.62,1.75-1.15.56-.58.95-1.32,1.15-2.21.2-.89.3-2.28.3-4.16l.03-5.33c0-.77-.16-1.61-.46-2.54-.35-1.08-1.06-2.42-2.13-4.05l-7.08-10.64-1.26-1.91c-.93-1.39-1.84-2.33-2.73-2.84-.46-.27-.91-.46-1.37-.57-.46-.11-1.09-.18-1.91-.22v-.63h17.83v.63c-1.51.09-2.48.23-2.9.41-1.02.44-1.53,1.23-1.53,2.38,0,.42.11.89.34,1.42.23.53.6,1.19,1.11,2l7.41,11.59,6.34-9.9.71-1.12c.67-1.06,1.01-2.1,1.01-3.12,0-1.17-.37-2.07-1.12-2.71-.75-.64-1.8-.96-3.14-.96v-.63h12.58v.63c-.95.11-1.68.27-2.19.48-.51.21-1.03.55-1.56,1.03-1.24,1.17-2.62,2.91-4.13,5.22l-6.23,9.52c-.75,1.13-1.2,1.96-1.37,2.49-.16.53-.25,1.42-.25,2.68v6.7c0,1.95.1,3.35.29,4.2s.58,1.57,1.16,2.17c1,1.06,2.43,1.59,4.29,1.59v.63h-17.47Z"/><path class="cls-8" d="m147.27,38.28h-17.96v-.63c1.62-.15,2.75-.42,3.39-.82,1.13-.71,1.7-1.7,1.7-2.95,0-.75-.26-1.75-.77-3.01l-.46-1.15-2.62-6.45h-12.03l-1.42,3.77-.68,1.7c-.82,2.01-1.23,3.58-1.23,4.73,0,.67.15,1.3.45,1.89.3.58.71,1.06,1.22,1.42.71.49,1.62.78,2.73.88v.63h-12.25v-.63c.97-.05,1.81-.29,2.54-.71.73-.42,1.44-1.09,2.13-2.02.58-.75,1.15-1.71,1.71-2.88.56-1.18,1.29-2.94,2.2-5.29L125.92.96h1.56l11.89,28.74c.89,2.17,1.6,3.72,2.13,4.65.53.93,1.1,1.63,1.72,2.11.44.33.94.58,1.5.75.56.17,1.41.32,2.54.45v.63Zm-17.17-16.13l-5.74-14.16-5.41,14.16h11.16Z"/><path class="cls-8" d="m180.86.77l.33,12.22h-.63c-.2-.53-.36-.93-.46-1.2-.64-1.75-1.16-3.05-1.56-3.91-.71-1.53-1.74-2.93-3.09-4.21-1.02-.97-2.08-1.67-3.17-2.11s-2.32-.66-3.69-.66c-2.06,0-3.85.45-5.36,1.34-1.33.78-2.57,1.91-3.72,3.38-1.15,1.47-2.09,3.14-2.82,5.02-1.04,2.64-1.56,5.65-1.56,9.02,0,2.86.36,5.44,1.07,7.74s1.75,4.22,3.12,5.77c2.52,2.88,5.85,4.32,10.01,4.32,2.08,0,3.95-.36,5.61-1.08,1.66-.72,2.94-1.74,3.86-3.05,1.06-1.51,1.82-3.55,2.3-6.12l.63.11c-.35,2.88-1.13,5.17-2.35,6.86-1.17,1.62-2.78,2.86-4.83,3.72s-4.43,1.29-7.12,1.29c-2.52,0-4.92-.37-7.22-1.12-3.66-1.2-6.53-3.38-8.59-6.52-2.06-3.14-3.09-6.9-3.09-11.25,0-3.34.6-6.41,1.8-9.23s2.88-5.08,5.03-6.79c1.66-1.31,3.64-2.36,5.95-3.13,2.31-.77,4.62-1.16,6.93-1.16s4.54.42,7,1.26l2.24.74c.44.16.82.25,1.15.25.46,0,.83-.19,1.12-.57.13-.18.28-.48.46-.9h.66Z"/><path class="cls-8" d="m220.48.77l.33,12.22h-.63c-.2-.53-.36-.93-.46-1.2-.64-1.75-1.16-3.05-1.56-3.91-.71-1.53-1.74-2.93-3.09-4.21-1.02-.97-2.08-1.67-3.17-2.11s-2.32-.66-3.69-.66c-2.06,0-3.85.45-5.36,1.34-1.33.78-2.57,1.91-3.72,3.38-1.15,1.47-2.09,3.14-2.82,5.02-1.04,2.64-1.56,5.65-1.56,9.02,0,2.86.36,5.44,1.07,7.74s1.75,4.22,3.12,5.77c2.52,2.88,5.85,4.32,10.01,4.32,2.08,0,3.95-.36,5.61-1.08,1.66-.72,2.94-1.74,3.86-3.05,1.06-1.51,1.82-3.55,2.3-6.12l.63.11c-.35,2.88-1.13,5.17-2.35,6.86-1.17,1.62-2.78,2.86-4.83,3.72s-4.42,1.29-7.12,1.29c-2.52,0-4.92-.37-7.22-1.12-3.66-1.2-6.53-3.38-8.59-6.52-2.06-3.14-3.09-6.9-3.09-11.25,0-3.34.6-6.41,1.8-9.23s2.88-5.08,5.03-6.79c1.66-1.31,3.64-2.36,5.95-3.13,2.31-.77,4.62-1.16,6.93-1.16s4.54.42,7,1.26l2.24.74c.44.16.82.25,1.15.25.46,0,.83-.19,1.12-.57.13-.18.28-.48.46-.9h.66Z"/><path class="cls-8" d="m227.39,19.87c0-3.06.66-5.91,1.97-8.52,1.31-2.62,3.23-4.9,5.74-6.85,1.88-1.44,3.9-2.55,6.07-3.32,2.17-.78,4.36-1.16,6.56-1.16,2.81,0,5.52.62,8.15,1.85,2.62,1.23,4.92,2.97,6.89,5.21,3.21,3.65,4.81,7.8,4.81,12.45,0,2.34-.42,4.59-1.26,6.76-.84,2.17-2.06,4.15-3.66,5.94-1.97,2.23-4.3,3.95-6.99,5.17-2.69,1.22-5.5,1.83-8.44,1.83s-5.67-.59-8.31-1.78c-2.64-1.19-4.92-2.86-6.84-5.04-1.51-1.7-2.68-3.62-3.49-5.79-.81-2.16-1.22-4.41-1.22-6.75Zm6.62.41c0,5.29,1.44,9.75,4.32,13.38,1.29,1.62,2.67,2.81,4.12,3.54,1.45.74,3.12,1.11,5.02,1.11s3.6-.36,5.04-1.09c1.45-.73,2.83-1.92,4.14-3.56,2.88-3.65,4.32-8.15,4.32-13.49,0-2.94-.4-5.71-1.19-8.33-.79-2.62-1.91-4.84-3.35-6.66-1.17-1.5-2.47-2.58-3.9-3.27-1.43-.68-3.12-1.03-5.07-1.03s-3.6.34-5.02,1.01c-1.41.67-2.72,1.77-3.92,3.28-1.44,1.81-2.55,4.02-3.34,6.65-.78,2.63-1.18,5.45-1.18,8.46Z"/><path class="cls-8" d="m288.66.96v.63c-1.04.05-1.89.2-2.54.44-.66.24-1.23.62-1.72,1.15-.6.62-1,1.39-1.19,2.3-.19.91-.29,2.48-.29,4.7v15.48c0,2.52.1,4.33.29,5.46s.58,2.16,1.16,3.1c.88,1.44,1.96,2.48,3.24,3.13,1.29.65,2.9.97,4.85.97s3.71-.29,5.43-.86,3.16-1.37,4.31-2.39c.71-.64,1.23-1.33,1.57-2.08.34-.75.56-1.7.67-2.84.07-.75.11-2.52.11-5.3v-15.29c0-1.88-.1-3.26-.31-4.16-.21-.89-.6-1.63-1.16-2.21-.51-.53-1.09-.91-1.74-1.15-.65-.24-1.49-.38-2.53-.44v-.63h12.61v.63c-1.04.05-1.88.2-2.53.44-.65.24-1.23.62-1.74,1.15-.57.58-.95,1.33-1.16,2.23-.21.9-.31,2.28-.31,4.14v17.25c0,2.55-.2,4.43-.59,5.65-.39,1.21-1.17,2.32-2.34,3.32-2.66,2.3-6.46,3.45-11.4,3.45s-8.96-1.08-11.4-3.25c-1.59-1.39-2.53-3.21-2.84-5.47-.11-.8-.16-2.25-.16-4.35V9.54c0-1.88-.1-3.26-.3-4.16-.2-.89-.59-1.63-1.18-2.21-.49-.53-1.06-.91-1.71-1.15-.65-.24-1.5-.38-2.56-.44v-.63h17.47Z"/><path class="cls-8" d="m323.61,5.91v23.79c0,1.88.1,3.26.31,4.16.21.89.6,1.63,1.16,2.21.51.53,1.09.91,1.74,1.15.65.24,1.49.38,2.53.44v.63h-12.61v-.63c1.04-.05,1.88-.2,2.53-.44.65-.24,1.23-.62,1.74-1.15.56-.58.95-1.33,1.16-2.23.21-.9.31-2.28.31-4.14V9.52c0-1.84-.1-3.21-.31-4.12-.21-.9-.6-1.65-1.16-2.23-.49-.53-1.06-.91-1.71-1.15-.65-.24-1.5-.38-2.56-.44v-.63h10.53l22.2,28.33V9.54c0-1.88-.1-3.26-.31-4.16-.21-.89-.6-1.63-1.16-2.21-.51-.53-1.09-.91-1.74-1.15-.65-.24-1.49-.38-2.53-.44v-.63h12.61v.63c-1.82,0-3.25.53-4.27,1.59-.57.58-.95,1.33-1.16,2.23-.21.9-.31,2.27-.31,4.12v28.77h-1.23l-25.76-32.38Z"/><path class="cls-8" d="m376.97,1.8c-1.15,0-2.38.04-3.69.11-2.81.15-4.9.5-6.28,1.07-1.38.57-2.51,1.54-3.4,2.93-.82,1.28-1.45,3.01-1.89,5.2l-.63-.05.49-10.09h37l.49,10.09-.63.05c-.49-2.53-1.26-4.45-2.31-5.76-1.05-1.3-2.57-2.24-4.58-2.8-1.7-.49-4.57-.74-8.61-.74v27.89c0,1.86.1,3.24.31,4.14.21.9.6,1.65,1.16,2.23.51.53,1.09.91,1.74,1.15.65.24,1.49.38,2.53.44v.63h-17.47v-.63c1.06-.05,1.91-.2,2.56-.44.65-.24,1.23-.62,1.74-1.15.57-.58.95-1.32,1.16-2.21.21-.89.31-2.28.31-4.16V1.8Z"/><path class="cls-1" d="m47.22,1.59c-1.04.05-1.87.2-2.5.42s-1.21.61-1.74,1.13c-.4.38-.7.81-.9,1.27-.2.46-.34,1.05-.41,1.76-.13.95-.19,2.07-.19,3.36v20.15c0,1.88.11,3.27.33,4.18s.61,1.64,1.18,2.19c1,.97,2.42,1.5,4.24,1.59v.63h-17.47v-.63c1.06-.05,1.91-.21,2.56-.45.65-.25,1.23-.62,1.74-1.13.56-.58.95-1.33,1.16-2.23.21-.9.31-2.28.31-4.14V5.25l-14.08,33.03h-.57L6.86,5.74v23.95c0,1.88.1,3.26.31,4.16.21.89.6,1.63,1.16,2.21.51.53,1.09.91,1.74,1.15.65.24,1.49.38,2.53.44v.63H0v-.63c1.04-.05,1.88-.2,2.53-.44.65-.24,1.23-.62,1.74-1.15.56-.58.95-1.33,1.16-2.23.21-.9.31-2.28.31-4.14V9.54c0-.84-.03-1.63-.08-2.38-.09-1.35-.3-2.33-.63-2.95-.46-.86-1.08-1.49-1.87-1.9s-1.85-.65-3.16-.72v-.63h11.87l11.84,29.23L35.98.96h11.24v.63Z"/><path class="cls-2" d="m62.86,38.28v-.63c1.04-.05,1.89-.2,2.54-.44s1.24-.62,1.75-1.15c.56-.58.95-1.32,1.15-2.21.2-.89.3-2.28.3-4.16l.03-5.33c0-.77-.16-1.61-.46-2.54-.35-1.08-1.06-2.42-2.13-4.05l-7.08-10.64-1.26-1.91c-.93-1.39-1.84-2.33-2.73-2.84-.46-.27-.91-.46-1.37-.57-.46-.11-1.09-.18-1.91-.22v-.63h17.83v.63c-1.51.09-2.48.23-2.9.41-1.02.44-1.53,1.23-1.53,2.38,0,.42.11.89.34,1.42.23.53.6,1.19,1.11,2l7.41,11.59,6.34-9.9.71-1.12c.67-1.06,1.01-2.1,1.01-3.12,0-1.17-.37-2.07-1.12-2.71-.75-.64-1.8-.96-3.14-.96v-.63h12.58v.63c-.95.11-1.68.27-2.19.48-.51.21-1.03.55-1.56,1.03-1.24,1.17-2.62,2.91-4.13,5.22l-6.23,9.52c-.75,1.13-1.2,1.96-1.37,2.49s-.25,1.42-.25,2.68v6.7c0,1.95.1,3.35.29,4.2s.58,1.57,1.16,2.17c1,1.06,2.43,1.59,4.29,1.59v.63h-17.47Z"/><path class="cls-4" d="m147.27,38.28h-17.96v-.63c1.62-.15,2.75-.42,3.39-.82,1.13-.71,1.7-1.7,1.7-2.95,0-.75-.26-1.75-.77-3.01l-.46-1.15-2.62-6.45h-12.03l-1.42,3.77-.68,1.7c-.82,2-1.23,3.58-1.23,4.73,0,.67.15,1.3.45,1.89s.71,1.06,1.22,1.42c.71.49,1.62.78,2.73.88v.63h-12.25v-.63c.97-.05,1.81-.29,2.54-.71.73-.42,1.44-1.09,2.13-2.02.58-.75,1.15-1.71,1.71-2.88.56-1.18,1.29-2.94,2.2-5.29L125.92.96h1.56l11.89,28.74c.89,2.17,1.6,3.72,2.13,4.65.53.93,1.1,1.63,1.72,2.11.44.33.94.58,1.5.75.56.17,1.41.32,2.54.45v.63Zm-17.17-16.13l-5.74-14.16-5.41,14.16h11.16Z"/><path class="cls-5" d="m180.86.77l.33,12.22h-.63c-.2-.53-.36-.93-.46-1.2-.64-1.75-1.16-3.05-1.56-3.91-.71-1.53-1.74-2.93-3.09-4.21-1.02-.97-2.08-1.67-3.17-2.11s-2.32-.66-3.69-.66c-2.06,0-3.85.45-5.36,1.34-1.33.78-2.57,1.91-3.72,3.38s-2.09,3.14-2.82,5.02c-1.04,2.64-1.56,5.65-1.56,9.02,0,2.86.36,5.44,1.07,7.74s1.75,4.22,3.12,5.77c2.52,2.88,5.85,4.32,10.01,4.32,2.08,0,3.95-.36,5.61-1.08,1.66-.72,2.94-1.74,3.86-3.05,1.06-1.51,1.82-3.55,2.3-6.12l.63.11c-.35,2.88-1.13,5.17-2.35,6.86-1.17,1.62-2.78,2.86-4.83,3.72s-4.43,1.29-7.12,1.29c-2.52,0-4.92-.37-7.22-1.12-3.66-1.2-6.53-3.38-8.59-6.52-2.06-3.14-3.09-6.9-3.09-11.25,0-3.34.6-6.41,1.8-9.23s2.88-5.08,5.03-6.79c1.66-1.31,3.64-2.36,5.95-3.13,2.31-.77,4.62-1.16,6.93-1.16s4.54.42,7,1.26l2.24.74c.44.16.82.25,1.15.25.46,0,.83-.19,1.12-.57.13-.18.28-.48.46-.9h.66Z"/><path class="cls-9" d="m220.48.77l.33,12.22h-.63c-.2-.53-.36-.93-.46-1.2-.64-1.75-1.16-3.05-1.56-3.91-.71-1.53-1.74-2.93-3.09-4.21-1.02-.97-2.08-1.67-3.17-2.11s-2.32-.66-3.69-.66c-2.06,0-3.85.45-5.36,1.34-1.33.78-2.57,1.91-3.72,3.38s-2.09,3.14-2.82,5.02c-1.04,2.64-1.56,5.65-1.56,9.02,0,2.86.36,5.44,1.07,7.74s1.75,4.22,3.12,5.77c2.52,2.88,5.85,4.32,10.01,4.32,2.08,0,3.95-.36,5.61-1.08,1.66-.72,2.94-1.74,3.86-3.05,1.06-1.51,1.82-3.55,2.3-6.12l.63.11c-.35,2.88-1.13,5.17-2.35,6.86-1.17,1.62-2.78,2.86-4.83,3.72s-4.42,1.29-7.12,1.29c-2.52,0-4.92-.37-7.22-1.12-3.66-1.2-6.53-3.38-8.59-6.52-2.06-3.14-3.09-6.9-3.09-11.25,0-3.34.6-6.41,1.8-9.23s2.88-5.08,5.03-6.79c1.66-1.31,3.64-2.36,5.95-3.13,2.31-.77,4.62-1.16,6.93-1.16s4.54.42,7,1.26l2.24.74c.44.16.82.25,1.15.25.46,0,.83-.19,1.12-.57.13-.18.28-.48.46-.9h.66Z"/><path class="cls-7" d="m227.39,19.87c0-3.06.66-5.91,1.97-8.52,1.31-2.62,3.23-4.9,5.74-6.85,1.88-1.44,3.9-2.55,6.07-3.32,2.17-.78,4.36-1.16,6.56-1.16,2.81,0,5.52.62,8.15,1.85,2.62,1.23,4.92,2.97,6.89,5.21,3.21,3.65,4.81,7.8,4.81,12.45,0,2.33-.42,4.59-1.26,6.76-.84,2.17-2.06,4.15-3.66,5.94-1.97,2.23-4.3,3.95-6.99,5.17-2.69,1.22-5.5,1.83-8.44,1.83s-5.67-.59-8.31-1.78c-2.64-1.19-4.92-2.86-6.84-5.04-1.51-1.7-2.68-3.62-3.49-5.79-.81-2.16-1.22-4.41-1.22-6.75Zm6.62.41c0,5.29,1.44,9.75,4.32,13.38,1.29,1.62,2.67,2.8,4.12,3.54,1.45.74,3.12,1.11,5.02,1.11s3.6-.36,5.04-1.09c1.45-.73,2.83-1.92,4.14-3.56,2.88-3.65,4.32-8.15,4.32-13.49,0-2.94-.4-5.71-1.19-8.33-.79-2.62-1.91-4.84-3.35-6.66-1.17-1.5-2.47-2.58-3.9-3.27-1.43-.68-3.12-1.03-5.07-1.03s-3.6.34-5.02,1.01c-1.41.67-2.72,1.77-3.92,3.28-1.44,1.81-2.55,4.02-3.34,6.65-.78,2.63-1.18,5.45-1.18,8.46Z"/><path class="cls-10" d="m288.66.96v.63c-1.04.05-1.89.2-2.54.44s-1.23.62-1.72,1.15c-.6.62-1,1.39-1.19,2.3s-.29,2.48-.29,4.7v15.48c0,2.52.1,4.33.29,5.46s.58,2.16,1.16,3.1c.88,1.44,1.96,2.48,3.24,3.13s2.9.97,4.85.97,3.71-.29,5.43-.86,3.16-1.37,4.31-2.39c.71-.64,1.23-1.33,1.57-2.08.34-.75.56-1.7.67-2.84.07-.75.11-2.52.11-5.3v-15.29c0-1.88-.1-3.26-.31-4.16-.21-.89-.6-1.63-1.16-2.21-.51-.53-1.09-.91-1.74-1.15-.65-.24-1.49-.38-2.53-.44v-.63h12.61v.63c-1.04.05-1.88.2-2.53.44-.65.24-1.23.62-1.74,1.15-.57.58-.95,1.33-1.16,2.23-.21.9-.31,2.28-.31,4.14v17.25c0,2.55-.2,4.43-.59,5.65-.39,1.21-1.17,2.32-2.34,3.32-2.66,2.3-6.46,3.45-11.4,3.45s-8.96-1.08-11.4-3.25c-1.59-1.39-2.53-3.21-2.84-5.47-.11-.8-.16-2.25-.16-4.35V9.54c0-1.88-.1-3.26-.3-4.16-.2-.89-.59-1.63-1.18-2.21-.49-.53-1.06-.91-1.71-1.15-.65-.24-1.5-.38-2.56-.44v-.63h17.47Z"/><path class="cls-6" d="m323.61,5.91v23.79c0,1.88.1,3.26.31,4.16.21.89.6,1.63,1.16,2.21.51.53,1.09.91,1.74,1.15.65.24,1.49.38,2.53.44v.63h-12.61v-.63c1.04-.05,1.88-.2,2.53-.44.65-.24,1.23-.62,1.74-1.15.56-.58.95-1.33,1.16-2.23.21-.9.31-2.28.31-4.14V9.52c0-1.84-.1-3.21-.31-4.12-.21-.9-.6-1.65-1.16-2.23-.49-.53-1.06-.91-1.71-1.15-.65-.24-1.5-.38-2.56-.44v-.63h10.53l22.2,28.33V9.54c0-1.88-.1-3.26-.31-4.16-.21-.89-.6-1.63-1.16-2.21-.51-.53-1.09-.91-1.74-1.15-.65-.24-1.49-.38-2.53-.44v-.63h12.61v.63c-1.82,0-3.25.53-4.27,1.59-.57.58-.95,1.33-1.16,2.23-.21.9-.31,2.27-.31,4.12v28.77h-1.23l-25.76-32.38Z"/><path class="cls-3" d="m376.97,1.8c-1.15,0-2.38.04-3.69.11-2.81.15-4.9.5-6.28,1.07-1.38.57-2.51,1.54-3.4,2.93-.82,1.28-1.45,3.01-1.89,5.2l-.63-.05.49-10.09h37l.49,10.09-.63.05c-.49-2.53-1.26-4.45-2.31-5.76-1.05-1.3-2.57-2.24-4.58-2.8-1.7-.49-4.57-.74-8.61-.74v27.89c0,1.86.1,3.24.31,4.14.21.9.6,1.65,1.16,2.23.51.53,1.09.91,1.74,1.15.65.24,1.49.38,2.53.44v.63h-17.47v-.63c1.06-.05,1.91-.2,2.56-.44.65-.24,1.23-.62,1.74-1.15.57-.58.95-1.32,1.16-2.21.21-.89.31-2.28.31-4.16V1.8Z"/></g></svg>