<?xml version="1.0" encoding="UTF-8"?>
<svg id="_レイヤー_2" data-name="レイヤー 2" xmlns="http://www.w3.org/2000/svg" viewBox="0 0 70.64 63">
  <defs>
    <style>
      .cls-1 {
        fill: #39385d;
        stroke-width: 0px;
      }
    </style>
  </defs>
  <g id="design">
    <g>
      <path class="cls-1" d="m0,54.9c2.6-4.75,5.13-9.53,7.82-14.23,6.98-12.19,14.03-24.33,21.06-36.49,3.22-5.57,9.63-5.58,12.87,0,9.21,15.9,18.4,31.82,27.58,47.74.54.93.88,1.98,1.31,2.97v2.2c-.12.22-.27.42-.34.66-1.01,3.26-3.56,5.23-6.98,5.23-18.66.02-37.33.02-55.99,0-2.37,0-4.42-.88-5.81-2.87-.64-.92-1.02-2.01-1.52-3.02,0-.73,0-1.47,0-2.2Zm35.28,2.21c8.63,0,17.25,0,25.88,0,3.06,0,4.07-1.71,2.55-4.34-8.64-14.96-17.28-29.92-25.93-44.88-1.53-2.65-3.43-2.62-4.98.06-8.62,14.91-17.24,29.83-25.85,44.74-1.57,2.72-.57,4.41,2.6,4.41,8.57,0,17.15,0,25.72,0Z"/>
      <path class="cls-1" d="m39.38,21.67c-.5,6.13-.98,12.26-1.5,18.39-.16,1.84-1.08,2.83-2.5,2.87-1.47.04-2.45-1-2.61-2.91-.54-6.13-1.06-12.26-1.54-18.39-.18-2.24,1.78-4.27,4.05-4.31,2.31-.04,4.28,2.02,4.12,4.35Z"/>
      <path class="cls-1" d="m35.24,53.7c-2.3-.03-4.06-1.81-4.06-4.09,0-2.17,1.93-4.07,4.13-4.08,2.25,0,4.19,1.97,4.14,4.23-.05,2.24-1.9,3.97-4.21,3.93Z"/>
    </g>
  </g>
</svg>