<?xml version="1.0" encoding="UTF-8"?>
<svg id="_レイヤー_2" data-name="レイヤー 2" xmlns="http://www.w3.org/2000/svg" viewBox="0 0 8.7 14.31">
  <defs>
    <style>
      .cls-1 {
        fill: #345e97;
        stroke-width: 0px;
      }
    </style>
  </defs>
  <g id="design">
    <g>
      <path class="cls-1" d="m.15,14.16l1.05-1.03c1.61-1.59,2.5-3.71,2.5-5.97S2.81,2.77,1.2,1.18L.15.15h1.47c3.82.05,6.93,3.18,6.93,7.01s-3.11,6.96-6.93,6.99H.15ZM3.09,1.56c1.17,1.62,1.8,3.56,1.8,5.6s-.63,3.98-1.8,5.6c2.46-.67,4.28-2.94,4.28-5.6S5.54,2.24,3.09,1.56Z"/>
      <path class="cls-1" d="m.15,14.31c-.06,0-.12-.04-.14-.09-.02-.06,0-.12.03-.16l1.05-1.03c1.58-1.56,2.45-3.65,2.45-5.87S2.67,2.85,1.09,1.29L.04.26S-.01.15.01.09c.02-.06.08-.09.14-.09h1.47c3.91.05,7.08,3.25,7.08,7.16s-3.18,7.11-7.08,7.14H.15s0,.01,0,.01ZM.52.3l.78.77c1.64,1.62,2.54,3.78,2.54,6.08s-.9,4.46-2.54,6.08l-.78.77h1.1c3.74-.04,6.78-3.11,6.78-6.85S5.36.35,1.62.31H.52Zm2.57,12.6s-.09-.02-.12-.06c-.04-.05-.04-.12,0-.17,1.16-1.6,1.77-3.51,1.77-5.51s-.61-3.9-1.77-5.51c-.04-.05-.04-.12,0-.17s.1-.08.16-.06c2.58.71,4.38,3.07,4.38,5.74s-1.8,5.03-4.38,5.74c-.01,0-.03,0-.04,0Zm.37-11.07c1.04,1.58,1.58,3.41,1.58,5.32s-.54,3.74-1.58,5.32c2.23-.8,3.75-2.93,3.75-5.32S5.69,2.63,3.46,1.83Z"/>
    </g>
  </g>
</svg>