<?xml version="1.0" encoding="UTF-8"?>
<svg id="Layer_2" data-name="Layer 2" xmlns="http://www.w3.org/2000/svg" xmlns:xlink="http://www.w3.org/1999/xlink" viewBox="0 0 406.73 124.56">
  <defs>
    <style>
      .cls-1 {
        fill: url(#_新規グラデーションスウォッチ_1-15);
      }

      .cls-2 {
        fill: url(#_新規グラデーションスウォッチ_1-17);
      }

      .cls-3 {
        opacity: .5;
      }

      .cls-4 {
        fill: url(#_新規グラデーションスウォッチ_1-7);
      }

      .cls-5 {
        fill: none;
        stroke: #39395c;
        stroke-linecap: round;
        stroke-linejoin: round;
        stroke-width: 1.5px;
      }

      .cls-6 {
        fill: url(#_新規グラデーションスウォッチ_1-14);
      }

      .cls-7 {
        fill: url(#_新規グラデーションスウォッチ_1-11);
      }

      .cls-8 {
        fill: url(#_新規グラデーションスウォッチ_1-20);
      }

      .cls-9 {
        fill: url(#_新規グラデーションスウォッチ_1-25);
      }

      .cls-10 {
        fill: url(#_新規グラデーションスウォッチ_1-5);
      }

      .cls-11 {
        fill: url(#_新規グラデーションスウォッチ_1-18);
      }

      .cls-12 {
        fill: url(#_新規グラデーションスウォッチ_1-8);
      }

      .cls-13 {
        fill: url(#_新規グラデーションスウォッチ_1);
      }

      .cls-14 {
        fill: #345e97;
      }

      .cls-15 {
        fill: url(#_新規グラデーションスウォッチ_1-23);
      }

      .cls-16 {
        fill: url(#_新規グラデーションスウォッチ_1-3);
      }

      .cls-17 {
        fill: url(#_新規グラデーションスウォッチ_1-4);
      }

      .cls-18 {
        fill: url(#_新規グラデーションスウォッチ_1-2);
      }

      .cls-19 {
        fill: url(#_新規グラデーションスウォッチ_1-12);
      }

      .cls-20 {
        fill: url(#_新規グラデーションスウォッチ_1-22);
      }

      .cls-21 {
        fill: url(#_新規グラデーションスウォッチ_1-26);
      }

      .cls-22 {
        fill: url(#_新規グラデーションスウォッチ_1-9);
      }

      .cls-23 {
        fill: url(#_新規グラデーションスウォッチ_1-24);
      }

      .cls-24 {
        fill: url(#_新規グラデーションスウォッチ_1-13);
      }

      .cls-25 {
        fill: url(#_新規グラデーションスウォッチ_1-16);
      }

      .cls-26 {
        fill: url(#_新規グラデーションスウォッチ_1-27);
      }

      .cls-27 {
        fill: url(#_新規グラデーションスウォッチ_1-21);
      }

      .cls-28 {
        fill: url(#_新規グラデーションスウォッチ_1-10);
      }

      .cls-29 {
        fill: url(#_新規グラデーションスウォッチ_1-6);
      }

      .cls-30 {
        fill: url(#_新規グラデーションスウォッチ_1-19);
      }
    </style>
    <linearGradient id="_新規グラデーションスウォッチ_1" data-name="新規グラデーションスウォッチ 1" x1="314.62" y1="159.72" x2="326.64" y2="57.83" gradientUnits="userSpaceOnUse">
      <stop offset="0" stop-color="#c9ddf1"/>
      <stop offset=".06" stop-color="#c1daef" stop-opacity=".97"/>
      <stop offset=".15" stop-color="#add2ec" stop-opacity=".89"/>
      <stop offset=".26" stop-color="#8cc5e6" stop-opacity=".75"/>
      <stop offset=".38" stop-color="#5fb2df" stop-opacity=".57"/>
      <stop offset=".52" stop-color="#259cd5" stop-opacity=".33"/>
      <stop offset=".54" stop-color="#1e99d4" stop-opacity=".3"/>
      <stop offset=".76" stop-color="#0075bb"/>
      <stop offset=".96" stop-color="#005b94"/>
    </linearGradient>
    <linearGradient id="_新規グラデーションスウォッチ_1-2" data-name="新規グラデーションスウォッチ 1" x1="343.72" y1="163.15" x2="355.74" y2="61.27" xlink:href="#_新規グラデーションスウォッチ_1"/>
    <linearGradient id="_新規グラデーションスウォッチ_1-3" data-name="新規グラデーションスウォッチ 1" x1="327.37" y1="161.22" x2="339.39" y2="59.34" xlink:href="#_新規グラデーションスウォッチ_1"/>
    <linearGradient id="_新規グラデーションスウォッチ_1-4" data-name="新規グラデーションスウォッチ 1" x1="330.97" y1="161.65" x2="342.99" y2="59.76" xlink:href="#_新規グラデーションスウォッチ_1"/>
    <linearGradient id="_新規グラデーションスウォッチ_1-5" data-name="新規グラデーションスウォッチ 1" x1="316.83" y1="159.98" x2="328.85" y2="58.09" xlink:href="#_新規グラデーションスウォッチ_1"/>
    <linearGradient id="_新規グラデーションスウォッチ_1-6" data-name="新規グラデーションスウォッチ 1" x1="312.03" y1="159.41" x2="324.06" y2="57.53" xlink:href="#_新規グラデーションスウォッチ_1"/>
    <linearGradient id="_新規グラデーションスウォッチ_1-7" data-name="新規グラデーションスウォッチ 1" x1="341.54" y1="162.89" x2="353.56" y2="61.01" xlink:href="#_新規グラデーションスウォッチ_1"/>
    <linearGradient id="_新規グラデーションスウォッチ_1-8" data-name="新規グラデーションスウォッチ 1" x1="346.33" y1="163.46" x2="358.36" y2="61.57" xlink:href="#_新規グラデーションスウォッチ_1"/>
    <linearGradient id="_新規グラデーションスウォッチ_1-9" data-name="新規グラデーションスウォッチ 1" x1="319.35" y1="160.27" x2="331.37" y2="58.39" xlink:href="#_新規グラデーションスウォッチ_1"/>
    <linearGradient id="_新規グラデーションスウォッチ_1-10" data-name="新規グラデーションスウォッチ 1" x1="338.93" y1="162.59" x2="350.95" y2="60.7" xlink:href="#_新規グラデーションスウォッチ_1"/>
    <linearGradient id="_新規グラデーションスウォッチ_1-11" data-name="新規グラデーションスウォッチ 1" x1="342.71" y1="163.03" x2="354.74" y2="61.15" xlink:href="#_新規グラデーションスウォッチ_1"/>
    <linearGradient id="_新規グラデーションスウォッチ_1-12" data-name="新規グラデーションスウォッチ 1" x1="315.65" y1="159.84" x2="327.68" y2="57.95" xlink:href="#_新規グラデーションスウォッチ_1"/>
    <linearGradient id="_新規グラデーションスウォッチ_1-13" data-name="新規グラデーションスウォッチ 1" x1="313.95" y1="159.64" x2="325.97" y2="57.75" xlink:href="#_新規グラデーションスウォッチ_1"/>
    <linearGradient id="_新規グラデーションスウォッチ_1-14" data-name="新規グラデーションスウォッチ 1" x1="344.39" y1="163.23" x2="356.41" y2="61.35" xlink:href="#_新規グラデーションスウォッチ_1"/>
    <linearGradient id="_新規グラデーションスウォッチ_1-15" data-name="新規グラデーションスウォッチ 1" x1="333.63" y1="161.96" x2="345.65" y2="60.08" xlink:href="#_新規グラデーションスウォッチ_1"/>
    <linearGradient id="_新規グラデーションスウォッチ_1-16" data-name="新規グラデーションスウォッチ 1" x1="324.71" y1="160.91" x2="336.73" y2="59.02" xlink:href="#_新規グラデーションスウォッチ_1"/>
    <linearGradient id="_新規グラデーションスウォッチ_1-17" data-name="新規グラデーションスウォッチ 1" x1="321.56" y1="160.54" x2="333.59" y2="58.65" xlink:href="#_新規グラデーションスウォッチ_1"/>
    <linearGradient id="_新規グラデーションスウォッチ_1-18" data-name="新規グラデーションスウォッチ 1" x1="336.77" y1="162.33" x2="348.8" y2="60.45" xlink:href="#_新規グラデーションスウォッチ_1"/>
    <linearGradient id="_新規グラデーションスウォッチ_1-19" data-name="新規グラデーションスウォッチ 1" x1="343.08" y1="163.08" x2="355.11" y2="61.19" xlink:href="#_新規グラデーションスウォッチ_1"/>
    <linearGradient id="_新規グラデーションスウォッチ_1-20" data-name="新規グラデーションスウォッチ 1" x1="315.25" y1="159.79" x2="327.28" y2="57.91" xlink:href="#_新規グラデーションスウォッチ_1"/>
    <linearGradient id="_新規グラデーションスウォッチ_1-21" data-name="新規グラデーションスウォッチ 1" x1="329.17" y1="161.43" x2="341.19" y2="59.55" xlink:href="#_新規グラデーションスウォッチ_1"/>
    <linearGradient id="_新規グラデーションスウォッチ_1-22" data-name="新規グラデーションスウォッチ 1" x1="387.27" y1="176.03" x2="399.29" y2="74.14" gradientTransform="translate(-32.18 2.8) rotate(-2.02)" xlink:href="#_新規グラデーションスウォッチ_1"/>
    <linearGradient id="_新規グラデーションスウォッチ_1-23" data-name="新規グラデーションスウォッチ 1" x1="381.23" y1="175.31" x2="393.26" y2="73.43" gradientTransform="translate(-32.18 2.8) rotate(-2.02)" xlink:href="#_新規グラデーションスウォッチ_1"/>
    <linearGradient id="_新規グラデーションスウォッチ_1-24" data-name="新規グラデーションスウォッチ 1" x1="397.36" y1="177.22" x2="409.38" y2="75.33" gradientTransform="translate(-32.18 2.8) rotate(-2.02)" xlink:href="#_新規グラデーションスウォッチ_1"/>
    <linearGradient id="_新規グラデーションスウォッチ_1-25" data-name="新規グラデーションスウォッチ 1" x1="405.37" y1="178.16" x2="417.39" y2="76.28" gradientTransform="translate(-32.18 2.8) rotate(-2.02)" xlink:href="#_新規グラデーションスウォッチ_1"/>
    <linearGradient id="_新規グラデーションスウォッチ_1-26" data-name="新規グラデーションスウォッチ 1" x1="413.44" y1="179.12" x2="425.46" y2="77.23" gradientTransform="translate(-32.18 2.8) rotate(-2.02)" xlink:href="#_新規グラデーションスウォッチ_1"/>
    <linearGradient id="_新規グラデーションスウォッチ_1-27" data-name="新規グラデーションスウォッチ 1" x1="397.91" y1="177.28" x2="409.93" y2="75.4" gradientTransform="translate(-32.18 2.8) rotate(-2.02)" xlink:href="#_新規グラデーションスウォッチ_1"/>
  </defs>
  <g id="_デザイン" data-name="デザイン">
    <g>
      <g>
        <g>
          <g>
            <g>
              <g>
                <g>
                  <line class="cls-5" x1="320.3" y1="25.65" x2="340.59" y2="25.65"/>
                  <line class="cls-5" x1="349.8" y1="25.65" x2="370.09" y2="25.65"/>
                </g>
                <g>
                  <line class="cls-5" x1="345.19" y1=".75" x2="345.19" y2="19.63"/>
                  <line class="cls-5" x1="345.19" y1="31.66" x2="345.19" y2="50.54"/>
                </g>
              </g>
              <g>
                <g>
                  <line class="cls-5" x1="331.91" y1="12.37" x2="336.09" y2="16.54"/>
                  <line class="cls-5" x1="328.73" y1="9.18" x2="330.57" y2="11.03"/>
                  <line class="cls-5" x1="358.5" y1="38.95" x2="354.32" y2="34.78"/>
                  <line class="cls-5" x1="361.68" y1="42.13" x2="359.84" y2="40.29"/>
                </g>
                <line class="cls-5" x1="336.09" y1="34.75" x2="331.72" y2="39.12"/>
                <line class="cls-5" x1="358.5" y1="12.37" x2="354.32" y2="16.54"/>
                <line class="cls-5" x1="361.68" y1="9.18" x2="359.84" y2="11.03"/>
                <line class="cls-5" x1="328.73" y1="42.13" x2="330.57" y2="40.29"/>
              </g>
              <g>
                <g>
                  <line class="cls-5" x1="327.66" y1="18.18" x2="333.35" y2="20.6"/>
                  <line class="cls-5" x1="357.04" y1="30.69" x2="362.73" y2="33.11"/>
                </g>
                <g>
                  <line class="cls-5" x1="352.66" y1="8.11" x2="350.24" y2="13.8"/>
                  <line class="cls-5" x1="340.15" y1="37.49" x2="337.72" y2="43.18"/>
                </g>
              </g>
              <g>
                <g>
                  <line class="cls-5" x1="338.08" y1="7.96" x2="340.38" y2="13.7"/>
                  <line class="cls-5" x1="350" y1="37.59" x2="352.31" y2="43.33"/>
                </g>
                <g>
                  <line class="cls-5" x1="362.87" y1="18.53" x2="357.14" y2="20.84"/>
                  <line class="cls-5" x1="333.25" y1="30.45" x2="327.51" y2="32.76"/>
                </g>
              </g>
            </g>
            <path class="cls-5" d="m345.19,11.4c0,13.5-.66,14.25-12.58,14.25,11.91,0,12.58.75,12.58,14.25,0-13.5.66-14.25,12.58-14.25-11.91,0-12.58-.75-12.58-14.25Z"/>
          </g>
          <g>
            <path class="cls-5" d="m330.47,110.41c-1.25,8.45,6.71,15.34,14.89,12.89h0c6.2-1.85,9.73-8.39,7.83-14.58-1.47-4.77-2.59-9.35-1.66-9.72,5.22-2.03,13.97-5.56,16.37-6.28l11.32-3.38c2.15-.64,3.98-2.04,5.17-3.94l13.04-20.85,8.56-18.56s-.54-2.63-4.19.37c-3.64,3-6.28,9.36-6.28,9.36,0,0-1.33-6.05-2.03-6.8-.7-.75-6.53-7.21-8.31-7.56-1.78-.35-1.88,4.38.02,7,1.9,2.62,4.12,5.54,4.12,5.54l.95,8.8-2.51-3.87s1.08-1.2.77-2.22-1.22-1.95-2.94-1.83c-.73.05-1.03.1-1.13.14-.47-.52-2.84-3.05-4.36-3.6-1.7-.61-7.39-3.69-8.37-3.48-.97.21-1.25,1.96.98,4.88,2.23,2.92,5.61,4.38,5.61,4.38l-1.67.82s-6.92-4.78-8.24-4.39c-1.32.39-1.51,2.68.27,4.38,1.78,1.7,2.72,2.69,2.72,2.69,0,0-10.44,4.79-13.29,5.64-2.85.85-11.78,6.7-13.69,9.11-1.91,2.4-8.2,9.29-9.45,11.82-1.23,2.49-3.03,13.29-4.5,23.22Zm50.87-46.5l1.21-.36s.73,1.55,1.21,2.46c.49.92-1.22,1.92-1.22,1.92,0,0-.03-1.59-.08-1.89-.05-.3-1.12-2.13-1.12-2.13Zm-12.39,6.53l7.04-3.68.87,2.15-.83,2.28c-3.46.67-7.08-.75-7.08-.75Z"/>
            <path class="cls-5" d="m371.39,60.63l3.18,2.64,2.28,5.65-2.5,6.84s-20.56,3.55-27.01,11.89"/>
            <path class="cls-5" d="m381.5,81.26s1.41-13.68.95-15.22-4.37-7.15-5.81-8.1"/>
            <path class="cls-5" d="m384.54,55.03l3.21,3.82,2.51,3.87.72,1.07c.41.61.54,1.36.35,2.07l-2.43,9.38"/>
            <line class="cls-5" x1="395.5" y1="55.74" x2="397.07" y2="60.97"/>
            <polyline class="cls-5" points="378.32 57.12 380.24 58.64 382.55 63.55"/>
          </g>
        </g>
        <g class="cls-3">
          <g>
            <g>
              <g>
                <g>
                  <path class="cls-13" d="m340.59,26.35h-20.29c-.39,0-.71-.32-.71-.71s.32-.71.71-.71h20.29c.39,0,.71.32.71.71s-.32.71-.71.71Z"/>
                  <path class="cls-18" d="m370.09,26.35h-20.29c-.39,0-.71-.32-.71-.71s.32-.71.71-.71h20.29c.39,0,.71.32.71.71s-.32.71-.71.71Z"/>
                </g>
                <g>
                  <path class="cls-16" d="m345.19,20.34c-.39,0-.71-.32-.71-.71V.75c0-.39.32-.71.71-.71s.71.32.71.71v18.88c0,.39-.32.71-.71.71Z"/>
                  <path class="cls-17" d="m345.19,51.25c-.39,0-.71-.32-.71-.71v-18.88c0-.39.32-.71.71-.71s.71.32.71.71v18.88c0,.39-.32.71-.71.71Z"/>
                </g>
              </g>
              <g>
                <g>
                  <path class="cls-10" d="m336.09,17.24c-.18,0-.36-.07-.5-.21l-4.17-4.17c-.28-.28-.28-.72,0-1s.72-.28,1,0l4.17,4.17c.28.28.28.72,0,1-.14.14-.32.21-.5.21Z"/>
                  <path class="cls-29" d="m330.57,11.73c-.18,0-.36-.07-.5-.21l-1.84-1.84c-.28-.28-.28-.72,0-1s.72-.28,1,0l1.84,1.84c.28.28.28.72,0,1-.14.14-.32.21-.5.21Z"/>
                  <path class="cls-4" d="m358.5,39.65c-.18,0-.36-.07-.5-.21l-4.17-4.17c-.28-.28-.28-.72,0-1s.72-.28,1,0l4.17,4.17c.28.28.28.72,0,1-.14.14-.32.21-.5.21Z"/>
                  <path class="cls-12" d="m361.68,42.84c-.18,0-.36-.07-.5-.21l-1.84-1.84c-.28-.28-.28-.72,0-1s.72-.28,1,0l1.84,1.84c.28.28.28.72,0,1-.14.14-.32.21-.5.21Z"/>
                </g>
                <path class="cls-22" d="m331.72,39.83c-.18,0-.36-.07-.5-.21-.28-.28-.28-.72,0-1l4.37-4.37c.28-.28.72-.28,1,0s.28.72,0,1l-4.37,4.37c-.14.14-.32.21-.5.21Z"/>
                <path class="cls-28" d="m354.32,17.24c-.18,0-.36-.07-.5-.21-.28-.28-.28-.72,0-1l4.17-4.17c.28-.28.72-.28,1,0s.28.72,0,1l-4.17,4.17c-.14.14-.32.21-.5.21Z"/>
                <path class="cls-7" d="m359.84,11.73c-.18,0-.36-.07-.5-.21-.28-.28-.28-.72,0-1l1.84-1.84c.28-.28.72-.28,1,0s.28.72,0,1l-1.84,1.84c-.14.14-.32.21-.5.21Z"/>
                <path class="cls-19" d="m328.73,42.84c-.18,0-.36-.07-.5-.21-.28-.28-.28-.72,0-1l1.84-1.84c.28-.28.72-.28,1,0s.28.72,0,1l-1.84,1.84c-.14.14-.32.21-.5.21Z"/>
              </g>
              <g>
                <g>
                  <path class="cls-24" d="m333.34,21.3c-.09,0-.19-.02-.28-.06l-5.69-2.42c-.36-.15-.53-.57-.37-.92.15-.36.57-.53.92-.37l5.69,2.42c.36.15.53.57.37.92-.11.27-.38.43-.65.43Z"/>
                  <path class="cls-6" d="m362.73,33.82c-.09,0-.19-.02-.28-.06l-5.69-2.42c-.36-.15-.53-.57-.37-.92s.57-.53.92-.37l5.69,2.42c.36.15.53.57.37.92-.11.27-.38.43-.65.43Z"/>
                </g>
                <g>
                  <path class="cls-1" d="m350.24,14.5c-.09,0-.19-.02-.28-.06-.36-.15-.53-.57-.37-.92l2.42-5.69c.15-.36.57-.53.92-.37.36.15.53.57.37.92l-2.42,5.69c-.11.27-.38.43-.65.43Z"/>
                  <path class="cls-25" d="m337.72,43.88c-.09,0-.19-.02-.28-.06-.36-.15-.53-.57-.37-.92l2.42-5.69c.15-.36.57-.53.92-.37.36.15.53.57.37.92l-2.42,5.69c-.11.27-.38.43-.65.43Z"/>
                </g>
              </g>
              <g>
                <g>
                  <path class="cls-2" d="m340.38,14.4c-.28,0-.54-.17-.65-.44l-2.31-5.73c-.15-.36.03-.77.39-.92.36-.15.77.03.92.39l2.31,5.73c.15.36-.03.77-.39.92-.09.03-.18.05-.26.05Z"/>
                  <path class="cls-11" d="m352.31,44.03c-.28,0-.54-.17-.65-.44l-2.31-5.73c-.15-.36.03-.77.39-.92.36-.15.77.03.92.39l2.31,5.73c.15.36-.03.77-.39.92-.09.03-.18.05-.26.05Z"/>
                </g>
                <g>
                  <path class="cls-30" d="m357.14,21.54c-.28,0-.54-.17-.65-.44-.15-.36.03-.77.39-.92l5.73-2.31c.36-.15.77.03.92.39.15.36-.03.77-.39.92l-5.73,2.31c-.09.03-.18.05-.26.05Z"/>
                  <path class="cls-8" d="m327.51,33.47c-.28,0-.54-.17-.65-.44-.15-.36.03-.77.39-.92l5.73-2.31c.36-.15.77.03.92.39.15.36-.03.77-.39.92l-5.73,2.31c-.09.03-.18.05-.26.05Z"/>
                </g>
              </g>
            </g>
            <path class="cls-27" d="m345.19,40.6c-.39,0-.71-.32-.71-.71,0-13.16-.33-13.54-11.87-13.54-.39,0-.71-.32-.71-.71s.32-.71.71-.71c11.54,0,11.87-.38,11.87-13.54,0-.39.32-.71.71-.71s.71.32.71.71c0,13.16.33,13.54,11.87,13.54.39,0,.71.32.71.71s-.32.71-.71.71c-11.54,0-11.87.38-11.87,13.54,0,.39-.32.71-.71.71Zm-3.97-14.95c2.17.66,3.34,1.91,3.97,4.25.63-2.34,1.81-3.59,3.97-4.25-2.17-.66-3.34-1.91-3.97-4.25-.63,2.34-1.81,3.59-3.97,4.25Z"/>
          </g>
          <g>
            <path class="cls-20" d="m342.43,124.5c-3.08.11-6.12-.94-8.52-3.02-3.22-2.78-4.77-6.96-4.15-11.17h0c1.98-13.42,3.51-21.31,4.56-23.43.93-1.88,4.31-5.82,7.03-8.98,1.05-1.23,1.96-2.29,2.51-2.97,2.05-2.58,11.21-8.5,14.04-9.34,2.28-.68,9.69-4.01,12.29-5.19-.45-.46-1.12-1.12-2-1.96-1.19-1.14-1.74-2.65-1.43-3.94.2-.82.72-1.41,1.45-1.62,1.19-.36,4.66,1.7,7.34,3.47-1.09-.75-2.36-1.81-3.4-3.17-1.54-2.02-2.15-3.79-1.71-4.97.2-.54.62-.91,1.14-1.03.74-.16,2.19.44,5.93,2.22,1.17.55,2.27,1.08,2.83,1.28,1.46.52,3.48,2.54,4.37,3.49.19-.02.46-.05.83-.07,1.61-.11,2.65.57,3.23,1.43l-.14-1.33c-.49-.64-2.38-3.14-4.01-5.4-1.52-2.1-2.01-5.74-.98-7.34.4-.62,1-.9,1.67-.77.8.15,2.54,1.1,8.42,7.47l.27.29c.55.58,1.24,3.08,1.74,5.13,1.09-2.17,3.1-5.69,5.61-7.75,1.66-1.37,2.98-1.85,4.03-1.48.84.3,1.22,1.09,1.3,1.51.03.15.01.3-.05.44l-8.56,18.57-13.08,20.93c-1.28,2.05-3.26,3.55-5.57,4.24l-11.32,3.38c-1.79.53-7.25,2.69-12.06,4.59-1.47.58-2.89,1.14-4.11,1.62-.1.37-.17,2.03,1.94,8.91.97,3.16.64,6.51-.92,9.43-1.57,2.94-4.19,5.08-7.39,6.03-1.03.31-2.08.48-3.13.52Zm-11.27-13.98c-.55,3.73.82,7.43,3.67,9.9,2.85,2.47,6.71,3.29,10.32,2.22,2.83-.84,5.15-2.74,6.55-5.35,1.38-2.59,1.67-5.55.81-8.35-2.8-9.13-2.19-10.21-1.24-10.58,1.26-.49,2.72-1.07,4.24-1.67,4.84-1.91,10.33-4.08,12.18-4.63l11.32-3.38c1.98-.59,3.68-1.88,4.78-3.64l13.04-20.85,8.39-18.22c-.06-.11-.16-.24-.33-.29-.24-.08-.99-.12-2.65,1.24-3.46,2.85-6.06,9.03-6.08,9.09-.12.28-.41.46-.71.43-.31-.03-.56-.25-.63-.55-.61-2.76-1.49-6.02-1.86-6.48l-.27-.29c-5.8-6.28-7.32-6.98-7.65-7.05-.05,0-.11-.02-.21.14-.58.91-.39,3.92.94,5.75,1.87,2.58,4.09,5.5,4.11,5.53.08.1.13.22.14.35l.95,8.8c.04.32-.16.63-.46.74-.31.11-.65,0-.83-.28l-2.51-3.87c-.17-.27-.15-.62.07-.85.26-.3.76-1.07.62-1.55-.16-.54-.67-1.45-2.21-1.33-.75.05-.92.09-.94.1-.27.11-.56.03-.76-.19-1.22-1.33-3.02-3.03-4.08-3.41-.63-.23-1.71-.74-2.96-1.33-1.67-.79-4.46-2.12-5.06-2.11.01,0-.04.01-.08.13-.15.41,0,1.64,1.51,3.63,2.08,2.73,5.3,4.15,5.33,4.16.25.11.42.36.42.63,0,.27-.15.53-.39.65l-1.67.82c-.23.11-.5.09-.71-.05-3.08-2.13-6.91-4.35-7.67-4.29-.27.08-.39.37-.45.6-.14.6.04,1.64,1.04,2.59,1.78,1.69,2.71,2.68,2.74,2.72.16.17.22.4.18.62-.04.22-.19.41-.4.51-.43.2-10.52,4.82-13.38,5.68-2.85.85-11.58,6.65-13.34,8.87-.56.7-1.48,1.77-2.54,3.01-2.52,2.94-5.98,6.97-6.83,8.69-.68,1.37-1.99,6.47-4.43,23.01h0Zm57.45-51.63l.63.97-.19-1.76c-.13.31-.29.59-.44.8Zm-12.57-2.21c.23.16.45.31.67.45l.04-.02c-.22-.13-.46-.27-.71-.43Zm-1.56,15.4c-3,.11-5.66-.93-5.79-.98-.26-.1-.43-.34-.44-.62-.01-.28.13-.53.38-.66l7.04-3.68c.18-.09.38-.1.57-.04.19.07.34.21.41.4l.87,2.15c.07.16.07.34,0,.51l-.83,2.28c-.08.23-.28.4-.53.45-.56.11-1.13.17-1.68.19Zm-3.67-1.81c1.22.29,2.96.56,4.69.31l.6-1.64-.48-1.18-4.81,2.52Zm11.75-1.62c-.13,0-.25-.03-.37-.09-.22-.12-.36-.35-.36-.6-.01-.73-.05-1.61-.07-1.78-.06-.17-.58-1.13-1.03-1.9-.11-.19-.13-.41-.05-.61s.25-.35.45-.42l1.21-.36c.34-.1.69.06.84.38,0,.02.72,1.54,1.2,2.43.59,1.12-.43,2.24-1.49,2.86-.1.06-.22.09-.33.1Z"/>
            <path class="cls-15" d="m347.37,88.34c-.16,0-.32-.04-.46-.15-.31-.24-.36-.68-.13-.99,6.12-7.9,24.04-11.52,27.04-12.08l2.27-6.2-2.12-5.23-3.04-2.52c-.3-.25-.34-.69-.09-.99.25-.3.69-.34.99-.09l3.18,2.64c.09.07.16.17.2.28l2.28,5.65c.07.16.07.34,0,.51l-2.5,6.84c-.09.24-.29.41-.54.45-.2.04-20.36,3.6-26.57,11.63-.13.17-.33.27-.53.27Z"/>
            <path class="cls-23" d="m381.53,81.97s-.07,0-.1,0c-.39-.04-.67-.39-.63-.77.58-5.62,1.27-13.98.98-14.95-.41-1.37-4.21-6.85-5.52-7.72-.32-.22-.41-.65-.19-.98.22-.32.65-.41.98-.19,1.57,1.05,5.6,6.84,6.09,8.49.47,1.59-.69,13.18-.93,15.49-.04.35-.33.62-.68.63Z"/>
            <path class="cls-9" d="m388.92,75.94c-.07,0-.13,0-.2-.02-.38-.1-.6-.48-.51-.86l2.43-9.38c.13-.51.04-1.06-.26-1.5l-.72-1.07-2.52-3.88-3.16-3.75c-.25-.3-.21-.74.09-.99s.74-.21.99.09l3.21,3.82,3.27,5c.52.77.69,1.74.45,2.64l-2.43,9.38c-.08.31-.35.52-.66.53Z"/>
            <path class="cls-21" d="m397.09,61.67c-.31.01-.61-.19-.7-.5l-1.56-5.23c-.11-.37.1-.77.47-.88.37-.11.77.1.88.47l1.56,5.23c.11.37-.1.77-.47.88-.06.02-.12.03-.18.03Z"/>
            <path class="cls-26" d="m382.57,64.26c-.27,0-.54-.14-.66-.41l-2.23-4.76-1.79-1.41c-.31-.24-.36-.68-.12-.99.24-.31.68-.36.99-.12l1.93,1.52c.09.07.16.16.2.25l2.3,4.91c.17.35.01.77-.34.94-.09.04-.18.06-.27.07Z"/>
          </g>
        </g>
      </g>
      <g>
        <path class="cls-14" d="m31.89,43.24c-.24.27-.75.58-1.43.71v25.63c-.03.31-1.53,1.05-2.72,1.05h-.48v-2.28h-13.67v1.5c0,.41-1.12,1.12-2.45,1.12h-.54v-29.31c-.2.03-.44.07-.75.07-.88,2.45-1.97,4.76-3.13,6.87l1.63.65c-.1.31-.41.51-1.02.65v20.26c-.03.24-1.29.92-2.48.92h-.58v-18.63c-1.19,1.63-2.48,3.09-3.84,4.35l-.44-.27c2.55-4.11,5.24-10.64,6.66-16.93l4.56,1.53-.03.1,2.62,1.16h13.12l1.63-1.8,3.33,2.65Zm-4.62,24.14v-24h-13.67v24h13.67Zm-5.58-16.9v4.59h1.36l1.09-1.29,2.14,2.21c-.27.2-.68.48-1.22.54v7.45c-.07.17-.99.75-2.01.75h-.44v-1.77h-4.32v1.43c0,.24-1.05.78-2.07.78h-.31v-11.22l2.55,1.12h.61v-4.59h-4.42l-.27-.99h4.69v-5l3.74.34c-.07.44-.34.75-1.12.88v3.77h1.43l1.43-1.97s1.6,1.39,2.55,2.41c-.1.37-.41.54-.88.54h-4.52Zm.92,5.58h-4.32v5.92h4.32v-5.92Z"/>
        <path class="cls-14" d="m54.6,40.69c-.07.48-.34.82-1.22.95.75,12.82,3.88,21.11,15.57,25.91l-.07.37c-1.67.31-2.79,1.33-3.23,3.09-8.84-4.76-11.59-12.71-12.51-23.32-.61,8.5-3.06,17.24-15.57,23.42l-.41-.51c12.92-8.81,12.68-19.79,12.71-30.39l4.73.48Z"/>
        <path class="cls-14" d="m104.1,67.41s1.36,1.43,2.07,2.38c-.1.37-.37.54-.85.54h-21.25l-.27-.99h2.89v-11.12c-.17.03-.34.03-.51.03h-.24c-.14.41-.54.65-1.16.65-.71,1.73-1.63,3.74-2.62,5.2l-.58-.24c.34-1.77.68-4.42.88-6.73l3.26.99v-2.72c-.14.24-.44.34-.82.34h-3.94v10c1.67-.41,3.43-.85,5.24-1.29l.14.44c-2.18,1.22-5.47,2.99-10.06,5.24-.14.44-.44.71-.78.82l-1.9-3.54c1.02-.2,2.75-.58,4.83-1.05v-10.61h-4.11l-.27-.99h4.39v-4.25h-2.21l-.27-.95c-.78.92-1.67,1.73-2.55,2.45l-.41-.31c2.24-3.13,4.35-8.64,5.03-12.1l4.11,1.39c-.1.41-.44.65-1.29.68v.03c7.62,2.62,4.32,7,2.21,5.2-.37-1.19-1.33-2.89-2.58-4.39-1.02,2.28-2.58,4.86-4.49,7h4.86l1.53-2.14s1.77,1.53,2.79,2.58c-.1.37-.37.54-.85.54h-3.33v4.25h.61l1.5-2.21s1.67,1.5,2.65,2.58v-14.79l3.06,1.26h2.99l1.63-2.14s1.84,1.5,2.96,2.55c-.07.37-.41.54-.88.54h-3.23v3.57h.48l1.16-1.19,2.41,1.84c-.14.17-.54.37-.99.48v4.66c-.03.24-1.22.68-1.97.68h-.37v-.82h-.68v3.98h.48l1.63-2.18s1.84,1.53,2.92,2.58c-.1.37-.41.54-.88.54h-8.06v.71c0,.1-.27.37-.78.58l2.14.92h10.1l1.39-1.77,3.37,2.41c-.24.37-.65.54-1.53.68v8.94l1.02-1.77Zm-28.96-10.06c4.66,4.66,2.04,9.08.2,6.9.24-2.18-.17-4.9-.68-6.8l.48-.1Zm13.26-14.79v3.57h1.63v-3.57h-1.63Zm0,4.52v3.74h4.59v-3.74h-4.59Zm1.7,4.69h-1.7v3.98h1.7v-3.98Zm-.65,17.58h1.97v-9.45h-1.97v9.45Zm6.36-9.45h-1.97v9.45h1.97v-9.45Zm-.17-9.65c1.16-2.69,1.97-6.46,2.24-10.13l3.98,1.09c-.14.41-.51.68-1.26.71-.44,1.63-.99,3.16-1.67,4.56h2.28l1.63-2.18s1.84,1.53,2.92,2.58c-.07.37-.41.54-.88.54h-6.43c-.68,1.19-1.43,2.21-2.31,3.09l-.51-.27Zm6.87.78s1.84,1.5,2.92,2.62c-.1.37-.41.54-.88.54h-7.92l-.27-.99h4.56l1.6-2.18Zm-4.32,8.87v9.45h2.04v-9.45h-2.04Z"/>
        <path class="cls-14" d="m127.94,67c1.67.2,3.54.27,5.64.27,1.97,0,6.53,0,8.7-.07v.44c-1.19.27-1.73,1.43-1.8,2.79h-7.11c-7.85,0-12.2-1.5-14.82-7.96-1.53,3.37-3.98,6.49-7.89,8.67l-.31-.37c4.52-4.01,6.26-10.27,6.73-15.5l4.52.85c-.1.44-.48.75-1.26.78-.34,1.53-.78,3.13-1.39,4.66,1.39,2.52,3.23,3.94,5.75,4.76v-14.62h-9.69l-.27-.95h18.26l1.9-2.28s.48.34,1.12.85c.41-1.09.85-2.52,1.19-3.67h-21.32c.07,2.41-.88,4.08-2.01,4.79-1.02.71-2.52.54-2.96-.54-.37-1.02.27-1.9,1.16-2.38,1.39-.75,2.79-2.65,2.69-4.83l.54-.03c.24.71.41,1.39.48,2.01h8.84v-5.17l4.59.41c-.07.48-.37.82-1.26.95v3.81h9.11l1.84-1.84,3.16,3.06c-.27.27-.65.34-1.29.41-1.02,1.05-2.75,2.52-4.18,3.47.58.44,1.26.99,1.77,1.43-.1.34-.44.51-.92.51h-9.52v6.53h5.3l1.84-2.35s2.11,1.6,3.43,2.79c-.1.37-.48.54-.95.54h-9.62v7.79Z"/>
        <path class="cls-14" d="m188.49,46.33c-.2.24-.71.54-1.39.68v14.96c-.03.27-1.7.95-2.82.95h-.51v-2.55h-7.82v9.59c0,.41-1.43,1.22-2.65,1.22h-.68v-10.81h-7.58v1.97c0,.34-1.36,1.12-2.75,1.12h-.51v-19.48l3.54,1.5h7.31v-5.88l4.62.48c-.1.48-.34.82-1.29.95v4.45h7.48l1.63-1.84,3.43,2.69Zm-23.46.14v5.88h7.58v-5.88h-7.58Zm7.58,12.92v-6.05h-7.58v6.05h7.58Zm3.33-12.92v5.88h7.82v-5.88h-7.82Zm7.82,12.92v-6.05h-7.82v6.05h7.82Z"/>
        <path class="cls-14" d="m200.91,43.21v-.61c.88-.27,1.7-.51,2.48-.48,2.01.03,4.86,2.24,4.86,3.47,0,.85-.82,1.22-1.16,2.89-.65,3.26-1.33,8.3-1.33,12.51s1.16,5.58,5.07,5.58c5.3,0,10.3-3.3,12.99-6.97l.68.44c-2.35,5.47-7.41,9.76-14.01,9.76-4.69,0-7.34-2.35-7.34-8.5,0-5.03.75-12.38.75-14.69,0-1.46-.17-2.01-.78-2.45-.54-.41-1.19-.65-2.21-.95Z"/>
        <path class="cls-14" d="m263.84,62.07c-1.43.51-2.55,1.8-2.92,3.13-4.25-2.89-6.77-7.04-8.3-12.48-2.24,5-6.39,9.55-11.97,12.38,2.18,1.9,4.66,2.18,10.17,2.18,3.88,0,9.15,0,13.29-.14v.44c-1.33.31-2.04,1.26-2.21,2.79h-11.05c-6.32,0-8.98-.92-11.32-5.34-1.46,1.73-3.74,4.05-5.2,5.3.03.44-.17.65-.48.82l-1.94-3.81c1.26-.44,3.13-1.22,4.96-2.04v-10.06h-4.62l-.2-.99h4.28l1.73-2.24,3.6,3.03c-.24.27-.75.54-1.7.68v8.74c.17.2.37.37.54.54l-.24-.34c5.44-3.94,9.55-11.02,10.95-19.45-.1-.68-.17-1.39-.24-2.11h-6.63l-.31-.99h6.02l1.33-1.97,3.43,2.48c-.48.54-1.5.85-2.86.92,1.26,7.96,4.66,14.89,12,18.15l-.14.37Zm-30.26-21.45c9.69,1.94,7.17,8.81,3.77,6.53-.54-2.14-2.41-4.73-4.05-6.29l.27-.24Z"/>
        <path class="cls-14" d="m291.11,52.08c.61-.31,1.39-.58,2.11-.51,1.36.07,2.99,1.29,2.99,2.11,0,.58-.17,1.26-.27,2.01-.1.65-.27,1.73-.54,2.89,1.33.82,2.52,1.67,3.26,2.35.75.75,1.16,1.43,1.12,2.55,0,.71-.41,1.43-1.43,1.43s-2.01-1.33-4.05-3.06c-2.11,4.66-6.66,7.48-13.05,8.67l-.41-.68c5.64-1.94,9.28-5.34,11.08-9.79-2.28-1.56-5.47-3.3-10.74-3.43-1.43,2.86-3.13,6.73-4.01,7.96-1.22,1.87-2.31,2.75-4.05,2.75-1.97,0-3.2-3.09-2.82-5.71.51-3.5,4.93-5.85,9.15-6.49,1.67-2.96,4.69-7.85,5.34-9.15.31-.61.07-.82-.44-.65-1.09.37-2.86,1.22-3.94,1.8-.54.31-1.12.88-1.8.88-1.29,0-2.92-1.7-3.16-2.79-.1-.58-.07-1.33.03-1.94l.54-.14c.58.95.99,1.77,1.97,1.77,1.39,0,4.35-.88,5.71-1.36,1.26-.41,1.63-.99,2.21-.99,1.12,0,3.6,1.7,3.6,2.82,0,.82-1.33,1.22-2.24,2.21-1.22,1.33-3.74,4.86-5.17,7.31,4.42.07,8.02,1.12,10.64,2.28.24-1.12.31-2.14.27-2.86-.03-.58-.1-.82-.54-1.12-.34-.27-.75-.41-1.36-.58v-.54Zm-12.58,4.69c-3.47.51-6.29,2.41-6.77,4.45-.31,1.29.44,2.75,1.29,2.75s1.29-.41,2.04-1.46c.82-1.16,2.31-3.77,3.43-5.75Z"/>
      </g>
    </g>
  </g>
</svg>