<?xml version="1.0" encoding="UTF-8"?>
<svg id="_レイヤー_2" data-name="レイヤー 2" xmlns="http://www.w3.org/2000/svg" viewBox="0 0 16 16.01">
  <defs>
    <style>
      .cls-1 {
        fill: #39395c;
        stroke-width: 0px;
      }
    </style>
  </defs>
  <g id="_レイヤー_1-2" data-name="レイヤー 1">
    <g id="ERXlEC">
      <path class="cls-1" d="m16,8.02c0,4.32-3.59,7.93-7.83,7.98C3.65,16.07-.01,12.37,0,7.98.01,3.61,3.67-.1,8.19,0c4.33.1,7.85,3.71,7.81,8.02ZM2.18,4.15c-.66,1.01-1.05,2.12-1.13,3.34h2.42c.11-.88.22-1.74.33-2.61-.52-.23-1.06-.48-1.62-.73Zm10.03.73c.11.87.22,1.74.33,2.61h2.43c-.09-1.23-.47-2.33-1.14-3.34-.56.25-1.1.5-1.62.73Zm-8.74,3.64H1.04c.09,1.23.47,2.34,1.14,3.34.57-.26,1.1-.5,1.62-.73-.11-.86-.22-1.73-.33-2.61Zm11.49,0h-2.43c-.11.88-.22,1.74-.33,2.6.52.24,1.06.48,1.62.73.66-1,1.04-2.1,1.14-3.33Zm-10.17-3.34c-.1.75-.19,1.51-.3,2.3h3v-1.95c-.89-.12-1.75-.23-2.7-.35Zm3.72,2.3h3c-.1-.79-.2-1.56-.3-2.3-.94.12-1.82.24-2.7.35v1.94Zm-1.03,2.98v-1.95h-2.99c.1.79.2,1.56.3,2.3.94-.12,1.81-.24,2.69-.35Zm4.03-1.94h-3v1.94c.89.12,1.77.23,2.7.36.1-.74.19-1.51.3-2.29ZM7.49,1.12c-.96.28-2.23,1.93-2.35,3.1.78.1,1.55.2,2.35.3V1.12Zm3.44,3.09c-.52-1.32-1.05-2.52-2.41-3.12v3.43c.8-.1,1.58-.2,2.41-.31Zm-3.44,10.71v-3.43c-.8.11-1.58.21-2.4.31.51,1.31,1.04,2.51,2.4,3.12Zm1.04-3.43v3.4c.96-.28,2.23-1.95,2.35-3.1-.77-.1-1.54-.2-2.35-.3ZM2.82,3.34c.46.2.87.38,1.24.54.39-.79.76-1.53,1.13-2.26-.88.38-1.66.95-2.37,1.72Zm10.35,0c-.48-.66-1.92-1.67-2.33-1.7.35.71.72,1.46,1.11,2.24.38-.17.79-.35,1.21-.54ZM4.05,12.12c-.37.17-.79.35-1.23.55.71.77,1.49,1.34,2.36,1.72-.36-.73-.73-1.48-1.13-2.27Zm6.77,2.27c.88-.39,1.67-.95,2.36-1.72-.46-.2-.87-.38-1.24-.54-.39.79-.76,1.53-1.13,2.26Z"/>
    </g>
  </g>
</svg>