<?xml version="1.0" encoding="UTF-8"?>
<svg id="_レイヤー_2" data-name="レイヤー 2" xmlns="http://www.w3.org/2000/svg" viewBox="0 0 80.98 27.4">
  <defs>
    <style>
      .cls-1 {
        opacity: .8;
      }

      .cls-2 {
        fill: #39385d;
        stroke-width: 0px;
      }
    </style>
  </defs>
  <g id="_デザイン" data-name="デザイン">
    <g>
      <g>
        <path class="cls-2" d="M.26,12.94c-.24-.12-.26-.18-.26-.64,0-.84.08-1.52.1-1.8,0-.18.04-.28.14-.28s.16.06.16.2,0,.38.06.62c.28,1.24,1.6,1.68,2.78,1.68,1.74,0,2.64-.98,2.64-2.26s-.66-1.8-2.22-2.96l-.8-.6C.96,5.48.34,4.44.34,3.26.34,1.26,1.92.06,4.24.06c.7,0,1.4.1,1.82.2.34.08.48.08.62.08s.18.02.18.12c0,.08-.08.64-.08,1.8,0,.26-.02.38-.14.38s-.14-.08-.16-.22c-.02-.2-.16-.66-.26-.84-.12-.2-.7-.84-2.28-.84-1.28,0-2.34.64-2.34,1.84,0,1.08.54,1.7,2.28,2.88l.5.34c2.14,1.46,2.88,2.64,2.88,4.1,0,1-.38,2.08-1.64,2.9-.74.48-1.84.6-2.8.6-.82,0-1.84-.12-2.56-.46Z"/>
        <path class="cls-2" d="M18.4.08c3.96,0,6.96,2.42,6.96,6.38s-2.82,6.94-7.06,6.94c-4.82,0-6.88-3.62-6.88-6.68C11.42,3.98,13.54.08,18.4.08ZM18.8,12.7c1.58,0,4.76-.84,4.76-5.76,0-4.08-2.48-6.22-5.26-6.22-2.94,0-5.06,1.84-5.06,5.54,0,3.96,2.38,6.44,5.56,6.44Z"/>
        <path class="cls-2" d="M30.78,5.24c0-2.64,0-3.12-.04-3.66-.04-.58-.14-.86-.72-.94-.14-.02-.44-.04-.6-.04-.06,0-.14-.08-.14-.14,0-.1.08-.14.28-.14.8,0,1.9.04,2.04.04.38,0,1.7-.04,2.5-.04,2.26,0,3.06.7,3.36.96.4.36.88,1.12.88,2.04,0,2.44-1.84,4.06-4.54,4.06-.1,0-.4,0-.5-.02-.08,0-.18-.08-.18-.16,0-.14.1-.18.46-.18,1.9,0,3.26-1.2,3.26-2.74,0-.56-.06-1.66-1-2.58-.92-.92-1.98-.82-2.38-.82-.3,0-.8.08-.98.12-.1.02-.14.14-.14.32v6.92c0,1.64,0,2.98.08,3.68.06.5.16.82.7.9.24.04.62.08.78.08.1,0,.14.08.14.14,0,.08-.08.14-.28.14-.96,0-2.12-.06-2.2-.06-.06,0-1.2.06-1.74.06-.18,0-.28-.04-.28-.14,0-.06.04-.14.14-.14.16,0,.38-.04.54-.08.34-.08.38-.4.46-.9.1-.7.1-2.04.1-3.68v-3Z"/>
        <path class="cls-2" d="M54.44,8.24c0,1.64.02,2.98.1,3.68.06.5.1.82.64.9.24.04.64.08.78.08.12,0,.16.08.16.14,0,.08-.1.14-.3.14-.96,0-2.08-.06-2.18-.06-.08,0-1.22.06-1.74.06-.2,0-.28-.04-.28-.14,0-.06.04-.14.14-.14.16,0,.36-.04.52-.08.36-.08.42-.42.48-.92.08-.7.08-1.98.08-3.62v-1.7c0-.08-.04-.1-.1-.1h-7.34c-.06,0-.1.02-.1.1v1.7c0,1.64,0,2.94.08,3.64.06.5.12.82.64.9.26.04.64.08.8.08.1,0,.14.08.14.14,0,.08-.08.14-.28.14-.98,0-2.1-.06-2.18-.06-.1,0-1.22.06-1.76.06-.18,0-.28-.04-.28-.14,0-.06.04-.14.14-.14.16,0,.38-.04.54-.08.34-.08.38-.4.46-.9.1-.7.1-2.04.1-3.68v-3c0-2.64,0-3.12-.04-3.66-.04-.58-.14-.86-.72-.94-.14-.02-.44-.04-.6-.04-.06,0-.14-.08-.14-.14,0-.1.08-.14.28-.14.8,0,1.92.04,2.02.04.08,0,1.2-.04,1.74-.04.2,0,.28.04.28.14,0,.06-.08.14-.14.14-.12,0-.24,0-.44.04-.48.1-.58.34-.62.94-.02.54-.02,1.06-.02,3.7v.36c0,.1.04.1.1.1h7.34c.06,0,.1,0,.1-.1v-.36c0-2.64-.02-3.16-.04-3.7-.04-.58-.12-.86-.7-.94-.14-.02-.44-.04-.6-.04-.08,0-.14-.08-.14-.14,0-.1.08-.14.28-.14.78,0,1.92.04,2,.04.1,0,1.22-.04,1.74-.04.2,0,.3.04.3.14,0,.06-.08.14-.16.14-.12,0-.22,0-.44.04-.46.1-.56.34-.6.94-.04.54-.04,1.02-.04,3.66v3Z"/>
        <path class="cls-2" d="M63.44,8.24c0,1.64,0,2.98.08,3.68.06.5.12.82.64.9.26.04.64.08.8.08.1,0,.14.08.14.14,0,.08-.08.14-.28.14-.98,0-2.12-.06-2.2-.06-.1,0-1.2.06-1.74.06-.18,0-.28-.04-.28-.14,0-.06.04-.14.14-.14.16,0,.38-.04.54-.08.34-.08.4-.4.46-.9.08-.7.1-2.04.1-3.68v-3c0-2.64,0-3.12-.04-3.66-.04-.58-.18-.84-.56-.92-.2-.04-.42-.06-.54-.06-.08,0-.14-.08-.14-.14,0-.1.08-.14.28-.14.58,0,1.68.04,1.78.04.08,0,1.22-.04,1.76-.04.2,0,.28.04.28.14,0,.06-.08.14-.14.14-.12,0-.24,0-.44.04-.48.1-.58.34-.62.94-.02.54-.02,1.02-.02,3.66v3Z"/>
        <path class="cls-2" d="M73.5.66c.22-.56.3-.66.42-.66.18,0,.24.24.42.62.32.72,3.14,7.74,4.22,10.32.64,1.52,1.12,1.74,1.5,1.86.26.08.52.1.7.1.1,0,.22.04.22.14s-.2.14-.4.14c-.26,0-1.56,0-2.78-.04-.34-.02-.62-.02-.62-.12,0-.08.04-.08.12-.12.1-.04.28-.18.16-.46l-1.58-3.9c-.04-.08-.06-.1-.16-.1h-4.06c-.08,0-.14.04-.18.14l-1,2.72c-.16.42-.26.84-.26,1.14,0,.34.3.46.6.46h.16c.14,0,.18.06.18.14,0,.1-.1.14-.26.14-.42,0-1.38-.06-1.58-.06-.18,0-1.06.06-1.78.06-.22,0-.34-.04-.34-.14,0-.08.08-.14.16-.14.12,0,.38-.02.52-.04.8-.1,1.14-.7,1.48-1.56l4.14-10.64ZM75.46,7.74c.08,0,.08-.04.06-.12l-1.74-4.66c-.1-.26-.2-.26-.3,0l-1.64,4.66c-.02.08,0,.12.06.12h3.56Z"/>
      </g>
      <g class="cls-1">
        <g>
          <path class="cls-2" d="M1.52,20.81s.34.38.36.41c.12.14.26.3.26.59,0,.21-.08.49-.29.49s-.28-.15-.42-.42l-.4-.79-.5-.77c-.11-.16-.12-.18-.12-.21s.02-.05.04-.07c.16.02.53.26.6.32l.47.45ZM1.88,26.83s.18-.2.28-.3c1.84-1.69,2.61-3.19,3.17-4.32.3-.6.81-1.8.81-2.1,0-.04-.02-.22-.02-.25,0-.05.02-.12.12-.12.15,0,.7.45.7.72,0,.07-.09.23-.2.44-.1.18-.48,1-.57,1.17-.6,1.17-1.47,2.79-3.23,4.22-.25.2-.87.61-.99.61-.03,0-.07-.03-.07-.07Z"/>
          <path class="cls-2" d="M14.31,24.82l.66-.77.53-.65.19-.26.46-.71.41-.71c.11-.2.38-.78.45-.99-.02-.03-.04-.06-.16-.06l-.9.02-1.54.1-1.07.11-.97.12c-.09.02-.44.09-.52.09-.35,0-.79-.55-.79-.69,0-.06.05-.13.12-.13.06,0,.3.07.35.07.09.02.22.04.43.04.15,0,1.41-.07,2.05-.11l2.29-.15c.44-.03.58-.04.69-.06.07,0,.39-.08.46-.08.15,0,.67.27.67.47,0,.07-.02.09-.18.32-.04.05-.12.18-.2.32l-.56,1.03-.69,1.07-.6.78-.59.64-.52.51c-.11.1-.6.53-.71.62-.38.29-1.15.82-1.45.98,0,0-.2.12-.31.12-.03,0-.08-.02-.08-.06,0-.05.06-.1.16-.18.2-.17.46-.4.59-.51l.75-.67.58-.62Z"/>
          <path class="cls-2" d="M24.31,26.47c0,.07,0,.4,0,.47-.02.17-.06.46-.28.46s-.36-.31-.34-.66l.07-1.39v-.84c.01-.34-.06-1.08-.18-1.08-.02,0-.5.45-.6.52l-.61.41s-.82.48-.95.48c-.03,0-.06,0-.06-.04,0-.08.02-.1.38-.39.75-.6,1.44-1.27,2.01-2.05.19-.26.49-.69.54-.9.02-.05.06-.29.08-.33.03-.04.07-.05.1-.05.26,0,.52.48.52.62,0,.11-.04.15-.35.48-.11.12-.58.71-.69.82-.05.06-.07.09-.07.11,0,.05.29.35.34.42.1.15.09.2.09.62v1.5s0,.82,0,.82Z"/>
          <path class="cls-2" d="M34.34,20.26l-1.62.17-2.12.32c-.13.02-.71.15-.83.15-.33,0-.74-.43-.74-.56,0-.08.11-.1.16-.1.06,0,.34,0,.4,0,.03,0,.44,0,.48,0l3.31-.39,1.85-.18c.12,0,.67-.15.74-.15.23,0,.91.56.91.81,0,.18-.18.23-.28.25-.09.03-.11.04-.35.16l-1.13.59-.79.39c-.42.21-1.08.42-1.24.41,0,.03-.03.16-.03.18l-.16,1.13-.1.52-.2.66c-.38,1.24-1.41,2.33-1.62,2.33-.05,0-.07-.03-.07-.06s0-.05.13-.21c.29-.41.69-1.24.81-1.62l.22-.68.14-.61.11-.85.02-.18.04-.94c0-.1-.02-.19-.05-.29-.01-.03-.08-.19-.08-.22,0-.09.09-.12.15-.12.21,0,.78.13.78.46,0,.07,0,.09-.04.27.98-.55,1.05-.58,1.66-1.02.31-.23.78-.57.93-.71l-1.39.09Z"/>
        </g>
      </g>
    </g>
  </g>
</svg>