<?xml version="1.0" encoding="UTF-8"?>
<svg id="_レイヤー_2" data-name="レイヤー 2" xmlns="http://www.w3.org/2000/svg" xmlns:xlink="http://www.w3.org/1999/xlink" viewBox="0 0 153.1 60">
  <defs>
    <style>
      .cls-1 {
        clip-path: url(#clippath);
      }

      .cls-2, .cls-3, .cls-4 {
        stroke-width: 0px;
      }

      .cls-2, .cls-5 {
        fill: none;
      }

      .cls-3 {
        fill: #1e66c7;
      }

      .cls-4 {
        fill: #fff;
      }

      .cls-5 {
        stroke: #1e66c7;
        stroke-linecap: round;
        stroke-miterlimit: 10;
        stroke-width: 1.27px;
      }
    </style>
    <clipPath id="clippath">
      <polygon class="cls-2" points="37.5 30.24 48.2 30.24 48.2 13.11 20.94 13.11 20.94 45.79 37.5 45.79 37.5 30.24"/>
    </clipPath>
  </defs>
  <g id="_デザイン" data-name="デザイン">
    <g>
      <rect class="cls-4" width="153.1" height="60" rx="13.46" ry="13.46"/>
      <g>
        <path class="cls-3" d="m64.14,27.63l-1.18-1.11c2.12-.74,3.06-1.68,3.06-4.39v-.42h-2.61v1.5c0,.48.03.93.04,1.15h-1.54c.03-.22.07-.66.07-1.15v-1.5h-.94c-.55,0-.95.02-1.19.04v-1.5c.19.03.64.1,1.19.1h.94v-1.09c0-.32-.03-.66-.07-.99h1.56c-.03.21-.07.56-.07.99v1.09h2.61v-1.16c0-.44-.03-.8-.07-1.02h1.57c-.03.22-.08.58-.08,1.02v1.16h.81c.58,0,.91-.02,1.21-.08v1.46c-.24-.02-.63-.03-1.21-.03h-.81v.36c0,2.73-.66,4.39-3.31,5.56Z"/>
        <path class="cls-3" d="m76.05,24.46c1.88-1.11,3.31-2.79,4-4.28l.86,1.55c-.84,1.49-2.3,3-4.07,4.07-1.11.67-2.53,1.29-4.08,1.55l-.92-1.45c1.72-.24,3.15-.8,4.21-1.44Zm0-3.55l-1.12,1.14c-.57-.62-1.95-1.81-2.75-2.38l1.03-1.1c.77.52,2.2,1.66,2.84,2.33Z"/>
        <path class="cls-3" d="m91.61,17.55c.71,0,1.31.59,1.31,1.32s-.59,1.31-1.31,1.31c-.04,0-.1,0-.14-.01-.03.12-.06.23-.09.33-.25,1.08-.73,2.78-1.65,4-.99,1.32-2.46,2.41-4.42,3.05l-1.2-1.32c2.18-.51,3.42-1.46,4.31-2.59.73-.91,1.14-2.16,1.29-3.1h-5.12c-.51,0-1.03.02-1.31.04v-1.55c.32.04.95.09,1.31.09h5.09c.15,0,.4-.01.63-.04-.01-.07-.02-.13-.02-.21,0-.73.59-1.32,1.32-1.32Zm0,1.95c.34,0,.63-.29.63-.63s-.29-.64-.63-.64-.64.29-.64.64.29.63.64.63Z"/>
        <path class="cls-3" d="m95.82,23.9c.31-.95.32-3.03.32-4.36,0-.44-.03-.74-.1-1.01h1.62c-.01.05-.08.54-.08,1,0,1.3-.03,3.62-.33,4.73-.33,1.24-1.02,2.32-1.96,3.16l-1.34-.89c.97-.68,1.56-1.69,1.87-2.63Zm3.31,1.98v-6.41c0-.5-.08-.91-.09-.95h1.64s-.08.46-.08.96v5.75c.89-.38,1.98-1.25,2.72-2.32l.85,1.21c-.91,1.19-2.5,2.38-3.73,3-.24.13-.37.24-.47.33l-.92-.76c.04-.21.09-.52.09-.81Z"/>
        <path class="cls-3" d="m116.06,18.28v1.22h-4.31v.88h2v4.98h-5.24v-4.98h1.93v-.88h-4.22v-1.22h9.85Zm-1.6,1.95h1.27v7.66h-1.27v-.64h-6.65v.65h-1.28v-7.67h1.28v5.79h6.65v-5.79Zm-4.88,2.15h.96v-.92h-.96v.92Zm0,1.93h.96v-.94h-.96v.94Zm3.04-2.85h-.96v.92h.96v-.92Zm0,1.91h-.96v.94h.96v-.94Z"/>
        <path class="cls-3" d="m123.89,19.48c-.1.34-.21.67-.3.99h4.18v7.43h-1.33v-.56h-6.35v.56h-1.27v-7.43h3.39c.07-.32.13-.66.18-.99h-4.02v-1.23h9.9v1.23h-4.39Zm-3.8,6.66h1.13v-4.46h-1.13v4.46Zm3.98-4.46h-1.68v.76h1.68v-.76Zm0,1.78h-1.68v.84h1.68v-.84Zm-1.68,2.67h1.68v-.81h-1.68v.81Zm4.05-4.46h-1.19v4.46h1.19v-4.46Z"/>
        <path class="cls-3" d="m68.66,33.19l-.62.26.8.5c-.12.22-.26.52-.36.79-.29.89-.84,2.07-1.63,3.17.47.34.9.66,1.23.92l-1.06,1.24c-.3-.28-.7-.62-1.16-.98-.97,1.02-2.21,1.96-3.93,2.61l-1.28-1.11c1.9-.58,3.12-1.47,4.03-2.4-.72-.52-1.44-1.01-2-1.38l.98-1c.58.33,1.28.78,1.98,1.25.56-.8,1.03-1.75,1.2-2.43h-3.15c-.77,1.02-1.79,2.08-2.9,2.85l-1.19-.92c1.93-1.19,2.95-2.7,3.51-3.65.17-.26.4-.77.5-1.14l1.6.5c-.26.38-.55.88-.68,1.12h2.24c.3,0,.62-.03.86-.1-.21-.42-.47-.9-.71-1.25l.87-.35c.27.4.67,1.1.87,1.51Zm1.32-.52l-.87.38c-.23-.46-.58-1.1-.89-1.52l.87-.36c.29.42.69,1.11.89,1.5Z"/>
        <path class="cls-3" d="m77.12,32.74v.85h1.91c.46,0,.73-.06.91-.12l.96.58c-.09.24-.18.66-.22.88-.19,1.06-.48,2.11-1.02,3.11-.88,1.63-2.53,2.79-4.49,3.3l-1.14-1.32c.5-.09,1.1-.25,1.55-.43.91-.34,1.88-.99,2.5-1.88.56-.8.85-1.85.98-2.83h-5.46v1.61c0,.25.01.59.03.81h-1.52c.03-.28.06-.63.06-.92v-1.9c0-.24-.01-.68-.06-.95.37.04.7.06,1.12.06h2.35v-.85c0-.31-.01-.54-.09-1.01h1.69c-.06.47-.08.7-.08,1.01Z"/>
        <path class="cls-3" d="m87.66,38.24c1.88-1.11,3.31-2.79,4-4.28l.86,1.55c-.84,1.49-2.3,3-4.07,4.07-1.11.67-2.53,1.29-4.08,1.55l-.92-1.45c1.72-.24,3.15-.8,4.21-1.44Zm0-3.55l-1.12,1.14c-.57-.62-1.95-1.82-2.75-2.38l1.03-1.1c.77.52,2.2,1.66,2.84,2.33Z"/>
        <path class="cls-3" d="m96.44,32.94h6.05c.28,0,.69,0,1.09-.02-.02.33-.02.74-.02,1.07v5.39c0,.43.02,1.49.02,1.53h-1.52s.01-.27.01-.59h-5.3c.01.31.01.56.01.59h-1.52c0-.05.03-1.01.03-1.54v-5.38c0-.31,0-.76-.02-1.07.45.01.87.02,1.17.02Zm.33,5.96h5.31v-4.57h-5.31v4.57Z"/>
        <path class="cls-3" d="m108.59,35.69h5.91c.52,0,1-.04,1.29-.07v1.73c-.26-.01-.83-.05-1.29-.05h-5.91c-.63,0-1.36.02-1.77.05v-1.73c.4.03,1.2.07,1.77.07Z"/>
        <path class="cls-3" d="m119.95,33.5c0-.4-.03-.94-.11-1.33h1.72c-.04.38-.1.87-.1,1.33v1.61c1.46.44,3.59,1.22,4.6,1.72l-.62,1.53c-1.14-.61-2.79-1.24-3.98-1.64v3.11c0,.31.06,1.08.11,1.53h-1.73c.07-.43.11-1.1.11-1.53v-6.33Zm5.39.69l-.96.43c-.32-.69-.56-1.13-.97-1.71l.92-.38c.31.46.75,1.17,1,1.66Zm1.47-.64l-.92.45c-.35-.69-.62-1.1-1.02-1.65l.91-.43c.32.44.78,1.13,1.03,1.63Z"/>
      </g>
      <g>
        <g>
          <g class="cls-1">
            <path class="cls-3" d="m37.63,15.4c2.97,2.97,6.93,6.91,8.27,8.26v16.93c0,1.68-1.37,3.05-3.05,3.05h-16.29c-1.68,0-3.05-1.37-3.05-3.05v-22.14c0-1.68,1.37-3.05,3.05-3.05h11.08m.71-1.71h-11.79c-2.63,0-4.77,2.13-4.77,4.77v22.14c0,2.63,2.13,4.77,4.77,4.77h16.29c2.63,0,4.77-2.13,4.77-4.77v-17.64s-9.27-9.27-9.27-9.27h0Z"/>
            <path class="cls-3" d="m47.63,23.69h-7.61c-1.32,0-2.39-1.07-2.39-2.39v-7.57h.71s9.29,9.23,9.29,9.23v.73Z"/>
          </g>
          <g id="lUOPPU">
            <path class="cls-3" d="m47.62,36.57c0,.8.04,1.6-.01,2.39-.04.61.2.8.78.74.3-.03.61-.02.92,0,.51.03.9.26,1.12.73.22.47.16.92-.17,1.32-1.38,1.69-2.75,3.4-4.16,5.06-.75.88-1.79.88-2.54,0-1.41-1.67-2.78-3.37-4.16-5.06-.33-.4-.4-.84-.17-1.32.22-.47.61-.7,1.12-.73.37-.02.74-.03,1.1,0,.46.03.6-.17.59-.61-.02-1.59-.01-3.19,0-4.78,0-1.23.61-1.83,1.85-1.85.69,0,1.39-.02,2.08,0,1.03.03,1.66.68,1.67,1.71,0,.8,0,1.59,0,2.39Zm-1.93,1.16c0-.86-.03-1.72.01-2.57.03-.54-.17-.76-.7-.69-.12.02-.25.02-.37,0-.53-.07-.72.14-.71.69.03,1.65.01,3.31.01,4.97,0,1.12-.35,1.49-1.48,1.59-.13.01-.33-.06-.36.12-.02.09.08.22.16.31.73.9,1.48,1.8,2.21,2.71.26.33.45.33.71,0,.71-.9,1.45-1.77,2.17-2.66.09-.11.25-.21.2-.36-.07-.2-.28-.11-.43-.13-1.02-.08-1.41-.49-1.42-1.52,0-.82,0-1.63,0-2.45Z"/>
          </g>
        </g>
        <line class="cls-5" x1="27.86" y1="26.48" x2="38.67" y2="26.48"/>
        <line class="cls-5" x1="27.86" y1="30.29" x2="38.67" y2="30.29"/>
        <line class="cls-5" x1="27.86" y1="34.11" x2="38.67" y2="34.11"/>
      </g>
    </g>
  </g>
</svg>