<svg xmlns="http://www.w3.org/2000/svg" xmlns:xlink="http://www.w3.org/1999/xlink" viewBox="0 0 217.57 60"><defs><style>.cls-1,.cls-5{fill:none;}.cls-2{fill:#fff;}.cls-3{fill:#f17424;}.cls-4{clip-path:url(#clip-path);}.cls-5{stroke:#f17424;stroke-linecap:round;stroke-miterlimit:10;stroke-width:1.27px;}</style><clipPath id="clip-path"><polygon class="cls-1" points="71.86 30.24 82.56 30.24 82.56 13.11 55.3 13.11 55.3 45.79 71.86 45.79 71.86 30.24"/></clipPath></defs><g id="Layer_2" data-name="Layer 2"><g id="spデザイン"><rect class="cls-2" width="217.57" height="60" rx="13.46"/><path class="cls-3" d="M98.5,27.63l-1.18-1.11c2.12-.74,3.06-1.68,3.06-4.39v-.42H97.77v1.5c0,.48,0,.93,0,1.15H96.27a7.63,7.63,0,0,0,.07-1.15v-1.5h-.93a10.59,10.59,0,0,0-1.19.05v-1.5a7.41,7.41,0,0,0,1.19.1h.93V19.27a8.38,8.38,0,0,0-.07-1h1.57a5.78,5.78,0,0,0-.07,1v1.09h2.61V19.2a6.19,6.19,0,0,0-.07-1h1.58a6,6,0,0,0-.08,1v1.16h.81a6,6,0,0,0,1.21-.08v1.47a11.22,11.22,0,0,0-1.21,0h-.81v.37C101.81,24.8,101.15,26.47,98.5,27.63Z"/><path class="cls-3" d="M110.41,24.46a10.39,10.39,0,0,0,4-4.28l.85,1.55a11.66,11.66,0,0,1-4.07,4.08,12.05,12.05,0,0,1-4.08,1.55l-.92-1.46A11.31,11.31,0,0,0,110.41,24.46Zm0-3.55-1.12,1.14a23.38,23.38,0,0,0-2.75-2.37l1-1.1A21.86,21.86,0,0,1,110.41,20.91Z"/><path class="cls-3" d="M126,17.55a1.32,1.32,0,0,1,0,2.63h-.14l-.09.33a11,11,0,0,1-1.65,4,8.76,8.76,0,0,1-4.42,3l-1.2-1.32a7.17,7.17,0,0,0,4.31-2.58,6.85,6.85,0,0,0,1.29-3.1H119c-.5,0-1,0-1.31,0V19c.32,0,1,.09,1.31.09h5.1a3.82,3.82,0,0,0,.62-.05,1.25,1.25,0,0,1,0-.21A1.33,1.33,0,0,1,126,17.55Zm0,1.95a.63.63,0,1,0-.64-.63A.63.63,0,0,0,126,19.5Z"/><path class="cls-3" d="M130.19,23.9a19.37,19.37,0,0,0,.31-4.35,4.69,4.69,0,0,0-.09-1H132a8.06,8.06,0,0,0-.07,1,24.81,24.81,0,0,1-.33,4.73,6.44,6.44,0,0,1-2,3.16l-1.35-.89A5.18,5.18,0,0,0,130.19,23.9Zm3.31,2V19.47a5,5,0,0,0-.09-.95h1.64a5.62,5.62,0,0,0-.08,1v5.75a6.93,6.93,0,0,0,2.72-2.32l.85,1.21a12.26,12.26,0,0,1-3.73,3,2.11,2.11,0,0,0-.48.33l-.92-.76A4.56,4.56,0,0,0,133.5,25.88Z"/><path class="cls-3" d="M150.42,18.28V19.5h-4.31v.88h2v5h-5.23v-5h1.92V19.5h-4.22V18.28Zm-1.59,1.95h1.26v7.65h-1.26v-.63h-6.65v.65h-1.27V20.23h1.27V26h6.65Zm-4.89,2.14h1v-.92h-1Zm0,1.93h1v-.94h-1Zm3-2.85h-1v.92h1Zm0,1.91h-1v.94h1Z"/><path class="cls-3" d="M158.25,19.48c-.1.34-.21.67-.29,1h4.18V27.9h-1.33v-.57h-6.35v.57h-1.27V20.47h3.39c.07-.32.13-.66.18-1h-4V18.25h9.9v1.23Zm-3.79,6.66h1.13V21.68h-1.13Zm4-4.46h-1.68v.76h1.68Zm0,1.78h-1.68v.84h1.68Zm-1.68,2.68h1.68v-.82h-1.68Zm4.05-4.46h-1.19v4.46h1.19Z"/><path class="cls-3" d="M103,33.19l-.62.27.81.49a5.25,5.25,0,0,0-.37.79,11.4,11.4,0,0,1-1.63,3.17c.48.34.91.66,1.24.93l-1.06,1.24c-.3-.27-.7-.62-1.16-1a10.31,10.31,0,0,1-3.92,2.61L95,40.6a9.26,9.26,0,0,0,4-2.4c-.72-.52-1.44-1-2-1.38l1-1c.59.33,1.28.78,2,1.26a7.9,7.9,0,0,0,1.2-2.43H98.07a13.31,13.31,0,0,1-2.91,2.84L94,36.57a10.2,10.2,0,0,0,3.51-3.65,4.86,4.86,0,0,0,.5-1.15l1.6.5a12.46,12.46,0,0,0-.69,1.12h2.25a3.25,3.25,0,0,0,.85-.1,9.94,9.94,0,0,0-.71-1.25l.87-.35A15.3,15.3,0,0,1,103,33.19Zm1.32-.51-.87.38a11.6,11.6,0,0,0-.89-1.52l.87-.36C103.73,31.6,104.14,32.29,104.34,32.68Z"/><path class="cls-3" d="M111.48,32.74v.85h1.91a2.8,2.8,0,0,0,.91-.12l1,.58a8.08,8.08,0,0,0-.22.88A10.23,10.23,0,0,1,114,38a7,7,0,0,1-4.49,3.31L108.39,40a8.85,8.85,0,0,0,1.55-.42,5.31,5.31,0,0,0,2.49-1.89,6.47,6.47,0,0,0,1-2.82H108v1.6c0,.26,0,.6,0,.82h-1.52a9.28,9.28,0,0,0,.06-.93v-1.9a6.3,6.3,0,0,0-.06-.95,8.14,8.14,0,0,0,1.12.06H110v-.85a5.17,5.17,0,0,0-.09-1h1.69A8.68,8.68,0,0,0,111.48,32.74Z"/><path class="cls-3" d="M122,38.24A10.3,10.3,0,0,0,126,34l.86,1.55a11.75,11.75,0,0,1-4.07,4.08,12.05,12.05,0,0,1-4.08,1.55l-.93-1.46A11.3,11.3,0,0,0,122,38.24Zm0-3.55-1.13,1.14a22.6,22.6,0,0,0-2.75-2.37l1-1.1A21.86,21.86,0,0,1,122,34.69Z"/><path class="cls-3" d="M130.81,32.94h6.05c.27,0,.69,0,1.09,0,0,.33,0,.74,0,1.07v5.39c0,.43,0,1.48,0,1.53h-1.52s0-.28,0-.6h-5.3c0,.31,0,.56,0,.6h-1.52c0-.06,0-1,0-1.55V34c0-.31,0-.76,0-1.07Zm.33,6h5.31V34.34h-5.31Z"/><path class="cls-3" d="M143,35.69h5.91a12.89,12.89,0,0,0,1.29-.07v1.73c-.27,0-.83-.05-1.29-.05H143c-.63,0-1.36,0-1.77.05V35.62C141.58,35.66,142.38,35.69,143,35.69Z"/><path class="cls-3" d="M154.31,33.5a8.52,8.52,0,0,0-.11-1.33h1.71a13.13,13.13,0,0,0-.1,1.33v1.61a38.64,38.64,0,0,1,4.6,1.71l-.61,1.53a31,31,0,0,0-4-1.64v3.12c0,.31.06,1.08.11,1.53H154.2a13.12,13.12,0,0,0,.11-1.53Zm5.39.69-1,.43a9.3,9.3,0,0,0-1-1.7l.93-.39C159,33,159.44,33.7,159.7,34.19Zm1.47-.63-.92.45a9.69,9.69,0,0,0-1-1.65l.92-.43A13.6,13.6,0,0,1,161.17,33.56Z"/><g class="cls-4"><path class="cls-3" d="M72,15.4c3,3,6.93,6.91,8.27,8.26V40.6a3.06,3.06,0,0,1-3.05,3H60.91a3.06,3.06,0,0,1-3-3V18.45a3.06,3.06,0,0,1,3-3H72m.71-1.71H60.91a4.76,4.76,0,0,0-4.76,4.76V40.6a4.76,4.76,0,0,0,4.76,4.76h16.3A4.76,4.76,0,0,0,82,40.6V23s-9.27-9.27-9.27-9.27Z"/><path class="cls-3" d="M82,23.69H74.38A2.39,2.39,0,0,1,72,21.3V13.73h.71L82,23Z"/></g><g id="lUOPPU"><path class="cls-3" d="M82,36.57c0,.79,0,1.59,0,2.38,0,.62.2.81.78.75a4.61,4.61,0,0,1,.91,0,1.23,1.23,0,0,1,1.12.73,1.14,1.14,0,0,1-.17,1.31c-1.38,1.7-2.75,3.4-4.16,5.07a1.55,1.55,0,0,1-2.54,0c-1.41-1.67-2.78-3.37-4.16-5.06a1.17,1.17,0,0,1-.18-1.32,1.24,1.24,0,0,1,1.12-.73,8.08,8.08,0,0,1,1.1,0c.47,0,.6-.18.59-.62,0-1.59,0-3.18,0-4.78a1.63,1.63,0,0,1,1.85-1.84c.69,0,1.39,0,2.08,0A1.6,1.6,0,0,1,82,34.18C82,35,82,35.77,82,36.57Zm-1.92,1.16c0-.86,0-1.72,0-2.58,0-.54-.17-.76-.71-.69a1.09,1.09,0,0,1-.36,0c-.53-.07-.72.14-.71.69,0,1.65,0,3.31,0,5,0,1.12-.35,1.49-1.48,1.59-.13,0-.32-.06-.36.13s.08.22.16.31c.73.9,1.48,1.79,2.2,2.7.26.33.45.33.71,0,.72-.9,1.45-1.78,2.17-2.66.09-.11.25-.22.2-.36s-.27-.12-.42-.13c-1-.08-1.42-.49-1.42-1.52C80.05,39.36,80.06,38.54,80.06,37.73Z"/></g><line class="cls-5" x1="62.22" y1="26.48" x2="73.03" y2="26.48"/><line class="cls-5" x1="62.22" y1="30.29" x2="73.03" y2="30.29"/><line class="cls-5" x1="62.22" y1="34.11" x2="73.03" y2="34.11"/></g></g></svg>