<svg xmlns="http://www.w3.org/2000/svg" viewBox="0 0 124.09 24.58"><defs><style>.cls-1{fill:#fff;}</style></defs><g id="Layer_2" data-name="Layer 2"><g id="デザイン"><path class="cls-1" d="M72.57,20.35H68.13c0-.13.11-.17.18-.23a2.44,2.44,0,0,0,.88-1.94q0-6,0-12c0-.43,0-.43-.44-.43a6.73,6.73,0,0,0-6.36,3.92,9.87,9.87,0,0,0-.65,8.09,9.07,9.07,0,0,0,5.52,5.55,10.29,10.29,0,0,0,4.06.74,12,12,0,0,0,5.36-1.45,15.9,15.9,0,0,0,1.8-1.12c.14-.1.25-.14.4,0s.26.24,0,.42a12.94,12.94,0,0,1-8.15,2.74,12.57,12.57,0,0,1-8.46-3.33,8.68,8.68,0,0,1-2.68-5.46A10.66,10.66,0,0,1,61,8.93a7.46,7.46,0,0,1,5.22-3.6A11.16,11.16,0,0,1,69,5.11c.1,0,.21,0,.21-.13a29.79,29.79,0,0,0,0-3A2.46,2.46,0,0,0,68.27.4c0-.05-.15-.09-.12-.19s.14-.06.22-.06c1.9,0,3.8-.06,5.7,0a4.11,4.11,0,0,1,1.24.27,2.26,2.26,0,0,1,1.36,3.3,6,6,0,0,1-2.5,2.65,9.67,9.67,0,0,1-1.4.71A5.54,5.54,0,0,0,74.06,7c.33-.06.65-.14,1-.22.1,0,.22-.06.19.11A8.66,8.66,0,0,0,75.42,10a24.48,24.48,0,0,0,3.13,8.63,14.65,14.65,0,0,0,1.1,1.52c.14.17.24.15.39,0a15.91,15.91,0,0,0,1.49-1.58c.11-.12.2-.27.4-.12s.25.24.07.45a18.17,18.17,0,0,1-1.54,1.62c-.22.19-.19.3,0,.48a6.58,6.58,0,0,0,4.82,1.91c.14,0,.38-.1.4.14s-.23.18-.37.19a7.48,7.48,0,0,1-4.49-1,13.6,13.6,0,0,1-5-5,29.32,29.32,0,0,1-3.32-7.92,2.56,2.56,0,0,0-.75-1.25c-.1.07-.07.16-.07.23,0,.29,0,.57,0,.85,0,3,0,6,0,9.05a2.34,2.34,0,0,0,.83,2S72.52,20.29,72.57,20.35ZM71.7,3.71h0V6.38c0,.23,0,.3.3.21A3.64,3.64,0,0,0,74.54,2.8,1.87,1.87,0,0,0,73.27,1,5.27,5.27,0,0,0,72,.76c-.25,0-.34.06-.34.32C71.7,2,71.7,2.83,71.7,3.71Zm45.64,0a.51.51,0,0,0,0,.33c0,3.7,0,7.4,0,11.1a2.73,2.73,0,0,0,1.08,2.32s.14.08.12.16-.13.07-.2.07h-2.06c-.14,0-.27,0-.15.19a8.78,8.78,0,0,0,3.31,3.26,5.3,5.3,0,0,0,2.62.59h.34c.1,0,.18,0,.18.16s-.08.13-.16.14a8.4,8.4,0,0,1-1,.07,7.51,7.51,0,0,1-4-1.33,13.61,13.61,0,0,1-4.17-4.69,28.88,28.88,0,0,1-2.74-6.83,1.67,1.67,0,0,0-.36-.73c-.09.07,0,.16,0,.23V15.6a2.27,2.27,0,0,0,.79,1.91s.11.07.08.15-.08.05-.13.05h-4.18l-.08,0c0-.14.18-.2.27-.28a2.34,2.34,0,0,0,.79-1.8V3.69a2.68,2.68,0,0,0-.91-2.07c0-.05-.15-.1-.12-.19s.14-.07.22-.07c1.68,0,3.37-.07,5.06,0a2,2,0,0,1,2,1.38,2.44,2.44,0,0,1-.15,1.8A5,5,0,0,1,111,7.18a1.71,1.71,0,0,0-.23.13,8.56,8.56,0,0,0,1.89-.3c.19,0,.33-.09.29.19a8.2,8.2,0,0,0,.16,2.52,24,24,0,0,0,2.09,6.67l.36.7c.15.27.2.27.41,0a2.5,2.5,0,0,0,.71-1.78c0-4.18,0-8.36,0-12.53a.72.72,0,0,0-.18-.47,5.69,5.69,0,0,0-.91-.86c.08-.13.18-.09.26-.09h2.67a.41.41,0,0,1,.44.32c1,2.59,2,5.19,3,7.78a3.75,3.75,0,0,0,.28.57V9c0-1.68,0-3.37,0-5.05a2.68,2.68,0,0,0-1.07-2.29c-.06,0-.17-.08-.13-.18s.13-.05.2-.05h2.57c.08,0,.18,0,.21.07s-.06.11-.12.16A2.8,2.8,0,0,0,122.88,4c0,4.37,0,8.75,0,13.13a.72.72,0,0,1-.08.45Zm-7.26.65c0,.65,0,1.31,0,2,0,.18-.1.43.07.5s.36-.1.5-.23a3.58,3.58,0,0,0,1.17-3.3,1.63,1.63,0,0,0-1.45-1.41c-.24,0-.3,0-.3.27C110.08,2.91,110.08,3.64,110.08,4.38Zm-108,9A5.3,5.3,0,0,1,8,10.24a3.64,3.64,0,0,1,2.49,1.88.26.26,0,0,0,.42.11c.19-.11,0-.24,0-.33a4.19,4.19,0,0,0-1.45-1.48A5.52,5.52,0,0,0,5.27,9.7,6.24,6.24,0,0,0,.56,13.41,7.15,7.15,0,0,0,0,16.86a6.63,6.63,0,0,0,1.31,3.72,7.59,7.59,0,0,0,5.46,2.88,8.9,8.9,0,0,0,3.44-.37,7.29,7.29,0,0,0,4.29-2.92,8.3,8.3,0,0,0,1.2-5.66A10.8,10.8,0,0,0,13,8.68,45.86,45.86,0,0,0,9.46,5.11,10.47,10.47,0,0,1,7.94,3.38,2.23,2.23,0,0,1,7.51,2,1.38,1.38,0,0,1,8.56.67a1.24,1.24,0,0,1,1.49.64,4.61,4.61,0,0,1,.53,1.41q.21,1,.39,1.92c0,.22.17.25.35.24s.19-.16.18-.29V4A11.55,11.55,0,0,1,11.84.27c0-.16,0-.19-.15-.14A3.53,3.53,0,0,1,10,.2,11.07,11.07,0,0,0,7.91,0,2.61,2.61,0,0,0,5.38,1.87,3.61,3.61,0,0,0,6,5.1a13.42,13.42,0,0,0,1.87,2,32.32,32.32,0,0,1,3.06,3,9.86,9.86,0,0,1,2.23,8.13,6.08,6.08,0,0,1-1,2.72,5.06,5.06,0,0,1-3.51,2,5.68,5.68,0,0,1-5.6-2,6.8,6.8,0,0,1-1.51-4.12A8.28,8.28,0,0,1,2.06,13.34Zm46.51-6a9.71,9.71,0,0,0,2-.33c.16,0,.25,0,.22.18A8.87,8.87,0,0,0,51,9.84a23.32,23.32,0,0,0,1.41,5.06,13.88,13.88,0,0,0,3.27,5.18A5.7,5.7,0,0,0,60,21.74h.09c.11,0,.24,0,.25.15s-.12.15-.22.16a6.8,6.8,0,0,1-.9.06A7.23,7.23,0,0,1,55.57,21a12.9,12.9,0,0,1-4.3-4.51,28.26,28.26,0,0,1-3-7.22,1.88,1.88,0,0,0-.36-.72.62.62,0,0,0,0,.37c0,2.12,0,4.24,0,6.36a2.55,2.55,0,0,0,.91,2.33c-.07.14-.17.1-.25.1H44.63c-.09,0-.21,0-.24-.06s.09-.14.16-.19a2.36,2.36,0,0,0,.88-1.91c0-4,0-7.91,0-11.87a2.66,2.66,0,0,0-.94-2.08c-.05-.05-.14-.09-.12-.16s.13-.08.21-.08c1.71,0,3.42-.06,5.12,0a2,2,0,0,1,2,1.88,3,3,0,0,1-.52,1.84A5.42,5.42,0,0,1,48.57,7.32Zm-.69-3c0,.66,0,1.31,0,2,0,.17-.09.43.06.5s.36-.11.52-.23a3.68,3.68,0,0,0,1.11-3.51A1.62,1.62,0,0,0,48.16,1.9c-.21,0-.28,0-.28.25C47.89,2.89,47.88,3.62,47.88,4.36Zm-23.08,5a16.75,16.75,0,0,1-.55,4.79,6.65,6.65,0,0,1-1.06,2.29,3,3,0,0,1-5.13-.24,9.31,9.31,0,0,1-1.23-3.64,16.14,16.14,0,0,1-.21-2.68,14.86,14.86,0,0,1,1-6.16,5.16,5.16,0,0,1,.9-1.4,2.89,2.89,0,0,1,4.57.18,7.46,7.46,0,0,1,1.34,3.08A13.2,13.2,0,0,1,24.66,7,15.86,15.86,0,0,1,24.8,9.34Zm-2.51.26A34.41,34.41,0,0,0,22,4.2a4.83,4.83,0,0,0-.55-1.85c-.45-.75-1.14-.74-1.57,0a4.88,4.88,0,0,0-.45,1.4,28.87,28.87,0,0,0-.35,4.55c0,1.17,0,2.34,0,3.51a23.54,23.54,0,0,0,.32,3.45A3.86,3.86,0,0,0,20,16.84a.76.76,0,0,0,1.33,0,2.25,2.25,0,0,0,.32-.59A8.85,8.85,0,0,0,22.15,14,37.61,37.61,0,0,0,22.29,9.6Zm75.64,3.86a9.43,9.43,0,0,0,.06,1.3,3.05,3.05,0,0,0,1.84,2.7,4.18,4.18,0,0,0,2.59.13,2.71,2.71,0,0,0,2-1.75A5,5,0,0,0,104.7,14c0-3.33,0-6.66,0-10a2.82,2.82,0,0,1,1-2.34c.07-.06.21-.1.16-.22s-.18-.06-.28-.06h-2.42c-.1,0-.24,0-.28.07s.11.15.18.21a2.5,2.5,0,0,1,1,1.92c0,3.59,0,7.17,0,10.75a2.94,2.94,0,0,1-.36,1.42,1.62,1.62,0,0,1-1.54.85,1.56,1.56,0,0,1-1.48-.92,3.74,3.74,0,0,1-.33-1.68c0-3.53,0-7.06,0-10.59a2.06,2.06,0,0,1,.8-1.81s.13-.08.09-.16-.1-.06-.16-.06H97.26c-.07,0-.16,0-.19.07s.05.12.11.16a2.08,2.08,0,0,1,.76,1.82c0,1.74,0,3.47,0,5.21S97.94,11.85,97.93,13.46ZM36,17.62c-.07.1-.18.07-.28.07h-2.3c-.1,0-.23,0-.28-.07s.09-.15.15-.21a4.74,4.74,0,0,0,1.43-2.77c.45-2.09.93-4.17,1.4-6.25l1.08-4.78A2.7,2.7,0,0,0,37,2.45c0-.22,0-.31.23-.33a2.31,2.31,0,0,0,1.71-1c0-.07.07-.17.16-.16s.08.12.1.2l1,4.45c.37,1.62.74,3.24,1.12,4.86s.76,3.24,1.11,4.86a3.77,3.77,0,0,0,1.18,2.16c0,.05.14.09.1.17s-.13.06-.19.06h-4c-.07,0-.16,0-.18-.07s.06-.11.1-.16a1.89,1.89,0,0,0,.56-1.93c-.33-1.46-.62-2.92-1-4.36A7.52,7.52,0,0,0,37.45,8c-.13-.14-.27-.37-.45-.32s-.15.32-.19.5q-.6,2.63-1.19,5.25c-.14.6-.27,1.2-.4,1.8a2.28,2.28,0,0,0,.69,2.29.73.73,0,0,1,.08.09Zm2.35-9.53L37.6,4.92s-.07,0-.07.06c-.15.64-.3,1.27-.44,1.91a.13.13,0,0,0,.08.17A4.38,4.38,0,0,1,38.34,8.09Zm44.2-.33c0-.41,0-.39.4-.42a1.38,1.38,0,0,1,1.41.73c0,.07.09.16.18.14s.07-.14.07-.22c0-.58,0-1.17,0-1.75,0-.09,0-.21-.07-.24s-.15.08-.19.15a1.43,1.43,0,0,1-1.49.71c-.22,0-.31-.08-.31-.3,0-1.48,0-2.95,0-4.42,0-.26.12-.31.34-.27a2.39,2.39,0,0,1,1.32.69A7.59,7.59,0,0,1,85.72,4.8a.87.87,0,0,0,.14.27.51.51,0,0,0,.54.06c.13,0,0-.15,0-.23a22.85,22.85,0,0,1-1.47-3.67c0-.17-.13-.21-.29-.14A3.9,3.9,0,0,1,83,1.36c-1.22,0-2.44,0-3.66,0-.1,0-.24,0-.28.06s.09.15.15.21a2.62,2.62,0,0,1,.89,2c0,3.91,0,7.83,0,11.74a2.61,2.61,0,0,1-.88,2c-.06.07-.21.11-.16.22s.18.06.28.06h4.21A3.25,3.25,0,0,1,85,18c.17.08.22,0,.27-.13.15-.48.31-.94.47-1.41a20.25,20.25,0,0,1,1-2.24c.11-.22.09-.31-.18-.31a.44.44,0,0,0-.48.31,7.45,7.45,0,0,1-1.57,2.35,2.06,2.06,0,0,1-1.56.63c-.4,0-.41,0-.41-.41v-9Zm10.73-.59V2.42c0-.39.08-.45.45-.37a2.16,2.16,0,0,1,.92.46A6.81,6.81,0,0,1,96.35,4.9a1,1,0,0,0,.15.29c.16.19.37.13.56.08s0-.15,0-.23a22.06,22.06,0,0,1-1.46-3.65c-.06-.2-.16-.21-.33-.14a2.73,2.73,0,0,1-.85.22c-1.5.12-3,.06-4.51,0a2.94,2.94,0,0,1-1.12-.25c-.2-.09-.28,0-.34.17a16.42,16.42,0,0,1-.77,2.13c-.22.5-.45,1-.67,1.49,0,.09-.15.2,0,.26A.47.47,0,0,0,87.67,5a8.56,8.56,0,0,1,1-1.75,2.88,2.88,0,0,1,1.64-1.22c.38-.08.45,0,.45.36,0,4.45,0,8.89,0,13.34a2,2,0,0,1-.74,1.7s-.14.09-.1.16.12.07.19.07h3.78c.07,0,.16,0,.19-.07s0-.12-.1-.16a2,2,0,0,1-.74-1.7c0-2.17,0-4.34,0-6.51ZM26,17.69h4.19a3,3,0,0,1,1.35.26c.23.1.3,0,.36-.18a14.79,14.79,0,0,1,.88-2.41c.18-.4.36-.79.56-1.18.1-.2.08-.29-.17-.3a.43.43,0,0,0-.49.29,8,8,0,0,1-1.15,1.88,2.43,2.43,0,0,1-2.16,1.11c-.41,0-.42,0-.42-.43,0-4.45,0-8.9,0-13.35a2.06,2.06,0,0,1,.79-1.8s.12-.07.1-.14-.11-.08-.18-.08H25.81c-.07,0-.18,0-.22.06s.07.13.12.18a2,2,0,0,1,.76,1.73c0,2.16,0,4.33,0,6.5,0,2,0,4,0,6a1.9,1.9,0,0,1-.79,1.65l-.13.12A.67.67,0,0,0,26,17.69Z"/></g></g></svg>