<svg xmlns="http://www.w3.org/2000/svg" xmlns:xlink="http://www.w3.org/1999/xlink" viewBox="0 0 153.1 60"><defs><style>.cls-1,.cls-5{fill:none;}.cls-2{fill:#fff;}.cls-3{fill:#f17424;}.cls-4{clip-path:url(#clip-path);}.cls-5{stroke:#f17424;stroke-linecap:round;stroke-miterlimit:10;stroke-width:1.27px;}</style><clipPath id="clip-path"><polygon class="cls-1" points="35.17 31.31 46.54 31.31 46.54 13.11 17.58 13.11 17.58 47.84 35.17 47.84 35.17 31.31"/></clipPath></defs><g id="Layer_2" data-name="Layer 2"><g id="デザイン"><rect class="cls-2" width="153.1" height="60" rx="13.46"/><path class="cls-3" d="M63.48,28.54l-1.25-1.18c2.25-.78,3.25-1.79,3.25-4.66v-.45H62.71v1.59c0,.52,0,1,0,1.23H61.12a10.57,10.57,0,0,0,.07-1.23V22.25h-1a12,12,0,0,0-1.26.05V20.71a8.45,8.45,0,0,0,1.26.1h1V19.66c0-.34,0-.71-.07-1.06h1.66a6.67,6.67,0,0,0-.07,1.06v1.15h2.77V19.59a8.55,8.55,0,0,0-.07-1.09h1.67A6.76,6.76,0,0,0,67,19.59v1.22h.86a6.9,6.9,0,0,0,1.29-.08v1.56c-.26,0-.67,0-1.29,0H67v.39C67,25.54,66.3,27.3,63.48,28.54Z"/><path class="cls-3" d="M76.14,25.17a11.07,11.07,0,0,0,4.26-4.54l.91,1.64A12.44,12.44,0,0,1,77,26.6a12.71,12.71,0,0,1-4.34,1.65l-1-1.54A12,12,0,0,0,76.14,25.17Zm0-3.77L75,22.61A23.9,23.9,0,0,0,72,20.09l1.1-1.17A23.16,23.16,0,0,1,76.14,21.4Z"/><path class="cls-3" d="M92.68,17.83a1.4,1.4,0,0,1,0,2.8.44.44,0,0,1-.16,0,3.15,3.15,0,0,1-.09.36,11.88,11.88,0,0,1-1.75,4.25A9.42,9.42,0,0,1,86,28.46l-1.28-1.4a7.7,7.7,0,0,0,4.59-2.75A7.31,7.31,0,0,0,90.65,21H85.22c-.54,0-1.1,0-1.39,0V19.41a12.18,12.18,0,0,0,1.39.09h5.41a6,6,0,0,0,.67,0,1.46,1.46,0,0,1,0-.22A1.41,1.41,0,0,1,92.68,17.83Zm0,2.07a.67.67,0,0,0,0-1.34.67.67,0,1,0,0,1.34Z"/><path class="cls-3" d="M97.15,24.58A20,20,0,0,0,97.49,20a4.5,4.5,0,0,0-.1-1.08H99.1A8.32,8.32,0,0,0,99,19.94a25.38,25.38,0,0,1-.35,5,6.9,6.9,0,0,1-2.08,3.36l-1.43-.95A5.46,5.46,0,0,0,97.15,24.58Zm3.52,2.1V19.87a5.59,5.59,0,0,0-.09-1h1.74a6.31,6.31,0,0,0-.08,1V26a7.52,7.52,0,0,0,2.89-2.46l.9,1.28a12.83,12.83,0,0,1-4,3.19,3.07,3.07,0,0,0-.5.35l-1-.8A5.18,5.18,0,0,0,100.67,26.68Z"/><path class="cls-3" d="M118.66,18.6v1.3h-4.58v.94h2.12v5.29h-5.56V20.84h2V19.9H108.2V18.6ZM117,20.67h1.35v8.14H117v-.68H109.9v.69h-1.35V20.67h1.35v6.15H117ZM111.77,23h1V22h-1Zm0,2.05h1V24h-1ZM115,22h-1v1h1Zm0,2h-1v1h1Z"/><path class="cls-3" d="M127,19.88c-.11.36-.22.71-.32,1.05h4.44v7.89h-1.41v-.59h-6.75v.59H121.6V20.93h3.6c.07-.34.14-.7.19-1.05h-4.27V18.57h10.52v1.31Zm-4,7.07h1.21V22.22h-1.21Zm4.24-4.73h-1.79V23h1.79Zm0,1.89h-1.79V25h1.79ZM125.39,27h1.79v-.86h-1.79Zm4.3-4.73h-1.26V27h1.26Z"/><path class="cls-3" d="M68.28,34.45l-.65.28.85.53a5.45,5.45,0,0,0-.38.84,12.87,12.87,0,0,1-1.73,3.37c.5.36,1,.7,1.31,1l-1.13,1.32c-.31-.29-.74-.66-1.22-1a10.91,10.91,0,0,1-4.18,2.77L59.8,42.32a9.76,9.76,0,0,0,4.28-2.55c-.76-.55-1.54-1.08-2.13-1.46l1-1.07c.62.36,1.35.84,2.1,1.34A8.73,8.73,0,0,0,66.37,36H63a13.85,13.85,0,0,1-3.08,3l-1.27-1a10.77,10.77,0,0,0,3.73-3.88,5.27,5.27,0,0,0,.53-1.22l1.7.53a13,13,0,0,0-.73,1.19h2.39a3.73,3.73,0,0,0,.91-.1,15.23,15.23,0,0,0-.76-1.34l.92-.37A15.29,15.29,0,0,1,68.28,34.45Zm1.41-.55-.93.41a12.3,12.3,0,0,0-.94-1.61l.92-.39C69,32.76,69.48,33.49,69.69,33.9Z"/><path class="cls-3" d="M77.27,34v.9h2a2.85,2.85,0,0,0,1-.13l1,.62a9.16,9.16,0,0,0-.23.94A10.82,10.82,0,0,1,80,39.61a7.38,7.38,0,0,1-4.77,3.5L74,41.71a9.15,9.15,0,0,0,1.65-.46,5.7,5.7,0,0,0,2.65-2,6.94,6.94,0,0,0,1-3h-5.8V38a7.76,7.76,0,0,0,0,.86H72a7.7,7.7,0,0,0,.06-1v-2a7,7,0,0,0-.06-1,9.18,9.18,0,0,0,1.2.06h2.5V34a5.15,5.15,0,0,0-.1-1.07h1.8A10.18,10.18,0,0,0,77.27,34Z"/><path class="cls-3" d="M88.47,39.82a11,11,0,0,0,4.26-4.55l.91,1.65a12.89,12.89,0,0,1-8.66,6l-1-1.54A12,12,0,0,0,88.47,39.82Zm0-3.78-1.19,1.22a24.59,24.59,0,0,0-2.92-2.53l1.1-1.17A24.63,24.63,0,0,1,88.47,36Z"/><path class="cls-3" d="M97.81,34.18h6.43c.29,0,.74,0,1.16,0,0,.35,0,.78,0,1.13V41c0,.46,0,1.58,0,1.63h-1.61s0-.3,0-.64H98.16c0,.33,0,.6,0,.64H96.56c0-.06,0-1.08,0-1.64V35.29c0-.32,0-.8,0-1.13Zm.35,6.34h5.65V35.67H98.16Z"/><path class="cls-3" d="M110.72,37.1H117c.55,0,1.06,0,1.36-.07v1.84c-.28,0-.87-.06-1.36-.06h-6.28c-.67,0-1.45,0-1.88.06V37C109.26,37.07,110.11,37.1,110.72,37.1Z"/><path class="cls-3" d="M122.78,34.78a8.49,8.49,0,0,0-.11-1.42h1.82c0,.41-.1.93-.1,1.42v1.7a40.18,40.18,0,0,1,4.88,1.83l-.65,1.62a31.93,31.93,0,0,0-4.23-1.74V41.5c0,.33.06,1.15.11,1.63h-1.83a12.75,12.75,0,0,0,.11-1.63Zm5.73.73-1,.46a10.16,10.16,0,0,0-1-1.81l1-.41C127.78,34.24,128.24,35,128.51,35.51Zm1.57-.67-1,.48A11.77,11.77,0,0,0,128,33.56l1-.45A14.52,14.52,0,0,1,130.08,34.84Z"/><g class="cls-4"><path class="cls-3" d="M35.36,15.43c3.19,3.18,7.45,7.44,8.85,8.85v18a3.35,3.35,0,0,1-3.35,3.35H23.54a3.35,3.35,0,0,1-3.35-3.35V18.79a3.36,3.36,0,0,1,3.35-3.36H35.36m.71-1.71H23.54a5.07,5.07,0,0,0-5.06,5.07V42.32a5.07,5.07,0,0,0,5.06,5.06H40.86a5.07,5.07,0,0,0,5.06-5.06V23.58s-9.85-9.86-9.85-9.86Z"/><path class="cls-3" d="M45.94,24.35H37.85a2.54,2.54,0,0,1-2.54-2.54v-8h.76l9.87,9.81Z"/></g><g id="lUOPPU"><path class="cls-3" d="M45.93,38c0,.85,0,1.7,0,2.54,0,.66.21.86.82.79a8,8,0,0,1,1,0,1.31,1.31,0,0,1,1.19.78,1.25,1.25,0,0,1-.19,1.4c-1.47,1.8-2.92,3.61-4.42,5.38a1.64,1.64,0,0,1-2.69,0c-1.5-1.77-3-3.58-4.43-5.38a1.23,1.23,0,0,1-.18-1.4,1.29,1.29,0,0,1,1.18-.78,9.14,9.14,0,0,1,1.17,0c.5,0,.64-.18.63-.65,0-1.69,0-3.39,0-5.08a1.73,1.73,0,0,1,2-2c.74,0,1.48,0,2.21,0a1.71,1.71,0,0,1,1.78,1.82C45.94,36.34,45.93,37.19,45.93,38Zm-2,1.24c0-.91,0-1.83,0-2.74,0-.58-.18-.8-.75-.73a1.27,1.27,0,0,1-.39,0c-.56-.07-.76.14-.75.73,0,1.76,0,3.51,0,5.27,0,1.19-.37,1.58-1.57,1.69-.14,0-.35-.06-.39.13s.09.24.17.33c.78,1,1.57,1.91,2.34,2.88.28.35.48.35.76,0,.76-.95,1.54-1.88,2.3-2.82.1-.12.27-.23.22-.38s-.3-.13-.46-.14c-1.09-.09-1.5-.52-1.5-1.62C43.88,41,43.88,40.14,43.88,39.27Z"/></g><line class="cls-5" x1="24.93" y1="27.31" x2="36.42" y2="27.31"/><line class="cls-5" x1="24.93" y1="31.37" x2="36.42" y2="31.37"/><line class="cls-5" x1="24.93" y1="35.43" x2="36.42" y2="35.43"/></g></g></svg>