<?xml version="1.0" encoding="UTF-8"?>
<svg id="_レイヤー_2" data-name="レイヤー 2" xmlns="http://www.w3.org/2000/svg" viewBox="0 0 154 115.89">
  <defs>
    <style>
      .cls-1 {
        fill: #39375e;
        stroke-width: 0px;
      }
    </style>
  </defs>
  <g id="_デザイン" data-name="デザイン">
    <g>
      <g>
        <g>
          <path class="cls-1" d="m18.81,88.36c.42,0,1.37,0,1.37-1.28,0-1.18-.05-1.51-.14-3.12-.05-.47-.24-2.65-.24-2.84s0-.57.71-.57c.61,0,4.24.8,4.24,1.89,0,.24-.9.99-.99,1.18-.38.52-.38,2.65-.38,3.45,0,1.28.9,1.28,1.46,1.28h4.1c2.26,0,2.45-.05,2.78-.33.38-.33,1.84-2.13,2.31-2.13s3.91,2.32,3.91,3.07c0,.61-.71.61-2.22.61h-10.84c-1.23,0-1.51.52-1.51,1.37v3.92c0,1.23.94,1.23,1.41,1.23h3.63c2.26,0,2.45-.05,2.78-.33.38-.33,1.84-2.13,2.26-2.13.52,0,3.96,2.27,3.96,3.07,0,.61-.71.61-2.22.61h-10.32c-.47,0-1.51,0-1.51,1.37,0,.47,0,3.78.09,4.06.28.76.85.76,1.32.76h9.57c2.26,0,2.5-.05,2.78-.33.38-.33,1.84-2.13,2.31-2.13s3.91,2.27,3.91,3.07c0,.61-.71.61-2.22.61H8.72c-4.15,0-5.47.09-5.94.14-.14,0-.85.09-.99.09-.19,0-.28-.09-.42-.28l-.9-1.09c-.19-.24-.24-.24-.24-.33s.09-.09.19-.09c.33,0,1.79.14,2.07.14,2.31.09,4.24.19,6.46.19h9.9c.47,0,1.32,0,1.32-1.37,0-4.77,0-4.82-1.32-4.82h-2.12c-4.15,0-5.47.09-5.94.14-.14,0-.85.09-.99.09-.19,0-.28-.09-.42-.28l-.9-1.09c-.19-.24-.24-.24-.24-.33s.09-.09.19-.09c.33,0,1.79.14,2.07.14,2.31.09,4.24.19,6.46.19h1.89c.85,0,1.32-.52,1.32-1.18v-4.02c0-.99-.57-1.32-1.32-1.32h-6.13c-.99,0-1.27.28-3.49,2.36-4.34,4.16-8.86,6.43-9.05,6.43-.14,0-.19-.09-.19-.14,0-.14.75-.85,1.23-1.28,7.12-6.57,10.18-12.29,10.37-13.75.14-.99.14-1.28.66-1.28.57,0,4.29,1.65,4.29,2.6,0,.57-.33.66-1.27.99-.75.24-1.65,1.61-2.17,2.46,0,.38.33.38.47.38h5.23Zm-5.89-8.32c-1.08,0-1.32.61-1.37.71-.19.43-.61,1.37-2.26,1.37-1.51,0-1.51-.94-1.51-1.51,0-.28.14-2.27.19-2.74.09-2.13.14-4.73.14-7.09,0-2.03-.05-3.5-.19-4.63-.05-.52-.33-1.84-.33-2.08,0-.47.47-.52.75-.52.9,0,2.4.85,2.87,1.13,1.13.71,2.31.66,2.88.66h15.27c.33,0,1.13,0,1.7-.76.71-.9.8-.99,1.08-.99.33,0,4.2,1.89,4.2,2.93,0,.28-.09.38-.94,1.04-.66.52-.66.9-.66,4.44,0,1.28.19,7.09.19,8.13,0,.85-.38,2.22-2.26,2.22-.61,0-1.13-.14-1.27-1.18-.09-.76-.8-1.13-1.6-1.13H12.91Zm.14-13.47c-.28,0-1.41.05-1.41,1.18,0,3.97,0,4.11,1.41,4.11h16.88c.33,0,1.46,0,1.46-1.18,0-3.97,0-4.11-1.46-4.11H13.06Zm.05,6.52c-1.46,0-1.46.85-1.46,1.98,0,3.36,0,3.73,1.46,3.73h16.83c1.46,0,1.46-.85,1.46-1.89,0-3.45,0-3.83-1.46-3.83H13.1Z"/>
          <path class="cls-1" d="m73.36,71.45c0,.14.09.33.09.52.19,1.51.47,3.02.47,5.1,0,3.17-.71,7.56-4.85,13.85-3.77,5.77-6.18,6.9-8.06,6.9-3.11,0-5.89-4.87-5.89-10.63,0-2.5.52-7.28,5.23-12.05,5.99-6.14,12.3-6.14,15.04-6.14,4.29,0,6.27.85,7.59,1.51,5.09,2.51,8.2,7.56,8.2,13.75s-3.53,13.7-11.88,16.63c-4.01,1.42-7.12,1.75-7.83,1.75-.19,0-.47-.05-.47-.33,0-.14.09-.19,1.27-.66,4.9-1.94,15.13-6,15.13-17.77,0-1.84-.19-13.09-13.06-13.09-.94,0-.99.38-.99.66Zm-15.32,14.51c0,3.07,1.23,7.28,4.1,7.28,1.37,0,2.5-.57,5.75-5.48,2.5-3.83,4.62-9.07,4.62-13.75,0-2.84-.19-3.07-.8-3.07-4.48,0-13.67,6.1-13.67,15.03Z"/>
          <path class="cls-1" d="m106.26,84.39q-.19-.24-.19-.28c0-.14.09-.14.14-.14.94,0,5.37.33,6.36.33.9,0,1.13-.52,1.13-1.04v-3.92c0-.99,0-1.61-1.32-1.61s-3.21.05-3.58.09c-.14,0-.85.14-.99.14-.19,0-.24-.09-.57-.47-.14-.19-.28-.24-.42-.24-.38,0-.52.14-1.74,1.28-.66.57-1.04.9-1.32.9-.09,0-.09-.05-.09-.09,0-.09,1.79-2.65,2.12-3.17,4.38-6.71,5.94-9.78,5.94-12.43,0-.09-.14-.52-.14-.61,0-.14.1-.24.24-.24.33,0,2.59,1.32,3.06,1.56,1.18.61,1.6.85,1.6,1.28,0,.33-.19.57-.85,1.04-.71.52-1.37,1.32-1.37,1.65s.28.33.57.33h19.99c2.17,0,2.4,0,2.97-.76,1.46-1.94,1.6-2.17,2.07-2.17.85,0,3.63,2.88,3.63,3.54s-.94.66-2.5.66h-3.21c-.38,0-1.08,0-1.23.8-.05.14-.05,2.46-.05,3.73s0,1.89,1.08,1.89c2.73,0,3.06,0,3.63-.8,1.46-2.03,1.65-2.27,2.12-2.27.8,0,3.35,3.17,3.35,3.69,0,.61-.99.61-2.5.61h-6.36c-1.08,0-1.32.33-1.32,1.42v4.3c0,.43.05.9.85.9.28,0,.9-.05,1.32-.43.42-.33,2.07-2.46,2.64-2.46.75,0,3.44,2.41,3.44,3.45,0,.71-.9.71-2.55.71h-29.23c-1.93,0-3.87.05-4.38.09-.14,0-.85.14-1.04.14-.14,0-.24-.14-.38-.33l-.94-1.09Zm12.87,4.91c.47,0,1.04,0,1.37-.9.09-.28.24-.52.57-.52.9,0,2.97,1.18,2.97,1.89,0,.14-.05.43-.24.52-.75.38-.8.38-1.18,1.09-2.07,3.59-4.81,8.41-13.11,13.56-.28.14-4.01,2.22-4.01,1.75,0-.14,8.01-6.28,8.01-7.37,0-.14-.09-.38-.24-.47-.57-.38-.66-.47-.85-1.32-.57-2.74-.66-3.07-.94-3.07-.14,0-1.32.95-1.37.99-2.88,2.32-4.48,2.74-4.48,2.6s.94-1.04,1.18-1.23c.47-.47,6.08-6.95,6.22-10.35.05-.61.05-.71.24-.71.14,0,1.13.43,1.7.66,1.7.76,1.89.8,1.89,1.28,0,.19-.75,1.04-.75,1.28,0,.33.38.33.8.33h2.21Zm-5.42-18.62c0-.24-.05-.57-.38-.61-.38-.09-.61.19-.8.43-1.41,1.89-2.88,3.64-3.91,4.63-.66.61-.75.66-.75.9,0,.28.09.24.99.28.52,0,3.11.14,3.72.14,1.13,0,1.13-.76,1.13-1.23v-4.54h0Zm2.21,19.89c-1.98,0-3.35,2.79-3.35,2.84,0,.43,1.88,1.37,2.17,1.65.33.33.61.8.66,1.37,0,.09,0,.43.24.43.38,0,3.68-5.1,3.68-5.77,0-.52-.57-.52-.9-.52h-2.5Zm1.89-20.56c-.38,0-.99,0-1.23.52-.09.33-.09,2.65-.09,3.97,0,1.46,0,1.94,1.32,1.94h1.74c1.04,0,1.27-.33,1.27-1.37,0-.76,0-4.06-.05-4.3-.09-.71-.61-.76-1.23-.76h-1.74Zm-.05,7.66c-.57,0-1.04.09-1.23.8-.05.24-.05,3.59-.05,4.3,0,.99.14,1.51,1.27,1.51h1.84c.33,0,.94,0,1.13-.52.14-.33.09-3.87.09-4.58,0-.99-.14-1.51-1.23-1.51h-1.84Zm2.5,20.56q-.24-.24-.24-.28c0-.09.09-.14.19-.14.57,0,3.3.24,3.96.24.47,0,1.27-.09,1.27-1.32v-3.73c0-.38-.14-2.41-.14-2.88,0-.33.09-.43.38-.43.42,0,.75.14,1.56.57.57.28.8.38,1.46.38h3.49c.66,0,1.37,0,1.37-.99,0-.33-.24-1.65-.38-2.41-.05-.14-.38-.85-.38-.99s.09-.33.33-.33c.43,0,4.48.33,4.48,1.42,0,.24-.9.99-.99,1.18-.14.38-.14,1.13-.14,1.18,0,.85.57.95.99.95.52,0,.9-.14,1.46-.8,1.27-1.46,1.41-1.61,1.65-1.61.66,0,3.16,2.41,3.16,3.02s-.99.61-2.5.61h-3.49c-.8,0-1.27.28-1.27,1.23,0,5.06.33,5.06,1.13,5.06,1.13,0,1.23,0,1.55-.14.47-.24,2.17-2.6,2.73-2.6.71,0,3.53,2.74,3.53,3.4,0,.61-1.04.61-2.5.61h-4.9c-.38,0-1.32,0-1.32,1.23,0,.24.09,3.59.09,4.02,0,1.94-1.74,2.03-2.17,2.03-1.13,0-1.13-.71-1.13-1.23,0-.57.14-3.5.14-4.16,0-1.32,0-1.89-1.41-1.89h-4.71c-2.03,0-4.15.05-4.95.09-.14.05-.85.14-.99.14-.19,0-.28-.14-.43-.33l-.89-1.09Zm5.7-21.78c1.27,0,1.27-.33,1.27-2.6,0-.57,0-3.26-.24-3.5-.28-.33-.71-.33-1.04-.33h-1.23c-1.27,0-1.27.33-1.27,2.55,0,.57,0,3.26.24,3.54.28.33.71.33,1.04.33h1.23Zm0,7.84c1.23,0,1.27-.61,1.27-1.42,0-1.46,0-4.16-.05-4.39-.14-.66-.66-.8-1.23-.8h-1.23c-1.23,0-1.23.66-1.23,1.46,0,.66,0,4.3.09,4.58.19.57.85.57,1.13.57h1.23Zm6.32,13.85c.38,0,.71.05,1.08-.33.28-.28.24-.76.24-4.73,0-.85-.42-1.23-1.32-1.23h-2.73c-1.32,0-1.32.05-1.32,4.11,0,1.56,0,2.17,1.32,2.17h2.73Zm-1.13-28.12q-1.23,0-1.23,3.78c0,2.36,0,2.65,1.23,2.65h1.46q1.23,0,1.23-3.78c0-2.41,0-2.65-1.23-2.65h-1.46Zm0,7.66c-.57,0-1.04.14-1.18.8-.05.19-.05,3.87-.05,4.58,0,.8.24,1.23,1.23,1.23h1.46c.57,0,1.04-.09,1.18-.76.05-.19.05-4.02.05-4.63,0-.76-.24-1.23-1.23-1.23h-1.46Z"/>
          <g>
            <path class="cls-1" d="m151.33,102.29c1.24,0,2.25,1.01,2.25,2.26s-1.01,2.26-2.25,2.26-2.25-1.01-2.25-2.26,1.01-2.26,2.25-2.26m0-.42c-1.48,0-2.67,1.2-2.67,2.68s1.2,2.68,2.67,2.68,2.67-1.2,2.67-2.68-1.2-2.68-2.67-2.68h0Z"/>
            <path class="cls-1" d="m151.71,104.6c.24.07.38.29.45.61.1.42.17.68.23.79h-.35c-.05-.08-.12-.34-.2-.71-.09-.41-.26-.59-.62-.59h-.38v1.3h-.34v-2.89c.19-.04.46-.06.7-.06.4,0,.66.08.85.24.15.13.23.33.23.55,0,.39-.25.64-.58.75h0Zm-.47-.14c.43,0,.71-.23.71-.59,0-.43-.35-.57-.72-.57-.18,0-.31.02-.38.03v1.12h.4Z"/>
          </g>
        </g>
        <g>
          <path class="cls-1" d="m54.05,115.8v-1.72h-2.26v1.72h-.34v-3.68h.34v1.64h2.26v-1.64h.35v3.68h-.35Z"/>
          <path class="cls-1" d="m59.45,115.35c-.07.09-.27.32-.58.44-.11.04-.29.1-.58.1-.43,0-.77-.12-1.07-.43-.23-.24-.53-.71-.53-1.52,0-.2,0-.94.49-1.46.07-.08.24-.25.51-.35.12-.05.31-.1.6-.1.25,0,.83.03,1.23.61.15.22.35.65.34,1.3,0,.46-.12,1.03-.42,1.41Zm-.32-2.64s-.16-.18-.32-.27c-.09-.05-.25-.11-.51-.11-.91,0-1.22.88-1.22,1.63,0,.13,0,.9.45,1.33.21.2.47.29.76.29.32,0,.58-.09.79-.33.41-.45.43-1.18.43-1.31,0-.14,0-.79-.37-1.23Z"/>
          <path class="cls-1" d="m64.22,115.63c-.17.12-.44.26-.92.26-.7,0-1.22-.3-1.37-1.02l.35-.18c.01.22.04.31.08.41.1.23.38.48.94.48.07,0,.23,0,.42-.05.34-.1.6-.36.6-.73,0-.06,0-.21-.1-.35-.12-.2-.33-.29-.76-.4-.27-.07-.56-.13-.81-.25-.17-.08-.53-.29-.53-.82,0-.29.1-.45.18-.55.32-.41.94-.41,1.04-.41.4,0,.79.11,1.05.43.07.08.14.18.21.38l-.32.17c-.04-.11-.08-.22-.15-.32-.1-.15-.35-.38-.8-.38-.07,0-.46,0-.69.23-.07.07-.17.19-.17.42,0,.13.04.25.11.34.16.21.43.28.67.34.34.09.81.19,1.09.42.11.09.34.32.34.72,0,.19-.06.55-.45.84Z"/>
          <path class="cls-1" d="m69.5,115.8v-1.72h-2.26v1.72h-.34v-3.68h.34v1.64h2.26v-1.64h.35v3.68h-.35Z"/>
          <path class="cls-1" d="m72.31,115.8v-3.68h.35v3.68h-.35Z"/>
          <path class="cls-1" d="m80.47,115.8l-2.16-3.18v3.18h-.34v-3.68h.34l2.18,3.15-.03-3.15h.34v3.68h-.34Z"/>
          <path class="cls-1" d="m85.87,115.35c-.07.09-.27.32-.58.44-.11.04-.29.1-.58.1-.43,0-.77-.12-1.07-.43-.23-.24-.53-.71-.53-1.52,0-.2,0-.94.49-1.46.07-.08.24-.25.51-.35.11-.05.31-.1.6-.1.25,0,.83.03,1.23.61.15.22.35.65.34,1.3,0,.46-.13,1.03-.42,1.41Zm-.32-2.64s-.16-.18-.32-.27c-.09-.05-.25-.11-.51-.11-.91,0-1.22.88-1.22,1.63,0,.13,0,.9.45,1.33.21.2.47.29.76.29.32,0,.58-.09.79-.33.41-.45.43-1.18.43-1.31,0-.14,0-.79-.37-1.23Z"/>
          <path class="cls-1" d="m94.38,115.8l.03-3.13-1.2,3.13h-.24l-1.22-3.13.04,3.13h-.34v-3.68h.41l1.25,3.12,1.19-3.12h.43v3.68h-.34Z"/>
          <path class="cls-1" d="m99.71,115.8l-.42-1.11h-1.65l-.42,1.11h-.39l1.5-3.68h.29l1.46,3.68h-.38Zm-1.23-3.27l-.72,1.88h1.43l-.71-1.88Z"/>
          <path class="cls-1" d="m102.2,115.8v-3.68h.35v3.68h-.35Z"/>
        </g>
      </g>
      <g>
        <path class="cls-1" d="m78.27.1c.08.09.15.18.15.19,0,0-.1.02-.15.03-.02,0,0,0,.05,0,.06,0,.09,0,.09.02,0,0-.09.13-.18.22-.03.03-.05.05-.05.06,0,0,.02-.01.13-.1.11-.1.15-.13.16-.12,0,0,0,.04.01.1,0,.05,0,.08,0,.06,0-.06.02-.15.03-.16,0,0,.1.07.21.16.04.04.08.06.08.06,0,0,0-.01-.02-.03-.06-.05-.21-.24-.21-.25,0-.01.02-.02.09-.02.05,0,.07,0,.05,0-.07,0-.14-.02-.14-.03,0-.01.09-.13.17-.21.07-.07.04-.06-.04.01-.11.1-.16.14-.18.14-.01,0-.03-.07-.03-.14,0-.02,0,0,0,.05,0,.07,0,.09-.02.09-.02,0-.11-.07-.22-.18-.05-.05-.08-.07-.05-.03.01.01.04.05.07.08Z"/>
        <path class="cls-1" d="m100.82,26.31c.08-.04.24-.16.32-.24.12-.12.23-.31.29-.49.05-.15.06-.21.05-.56,0-.21,0-.34,0-.38,0-.03.01-.09.02-.13.05-.32.16-.56.35-.75.12-.12.16-.18.19-.32.02-.07.02-.26,0-.34,0-.03-.01-.08-.02-.11-.02-.15-.09-.39-.16-.63-.02-.07-.07-.21-.08-.27,0-.03-.02-.07-.03-.1-.02-.08-.04-.18-.05-.28-.03-.23,0-.53.09-.77.08-.21.09-.3.09-.57,0-.22-.01-.35-.05-.51,0-.02-.02-.09-.04-.16-.03-.12-.09-.36-.13-.54-.01-.05-.04-.14-.06-.2-.05-.14-.05-.13.03-.29.1-.19.14-.34.14-.55,0-.13,0-.2-.04-.33-.09-.33-.32-.7-.65-1.04-.14-.14-.23-.22-.36-.31-.16-.12-.28-.27-.33-.4-.02-.06-.03-.17-.03-.22,0-.07-.02-.15-.05-.21-.09-.18-.5-.69-.93-1.17-.05-.06-.1-.11-.1-.13,0-.02,0-.03.03-.09.02-.04.05-.08.06-.1.08-.13.13-.29.17-.54.01-.1.01-.61,0-.75-.02-.21-.03-.29-.04-.33,0-.02-.01-.07-.02-.1-.02-.09-.02-.13-.08-.41-.03-.15-.05-.28-.05-.29,0-.01.02-.06.03-.1.03-.08.06-.17.08-.23.04-.13.08-.28.11-.42,0-.02.01-.06.02-.09,0-.03.02-.07.02-.1,0-.02.02-.11.04-.19.02-.08.03-.16.03-.18,0-.05.04-.22.05-.28.02-.13.03-.18.03-.28.02-.25.05-.38.16-.65.05-.14.07-.17.13-.28.07-.14.1-.18.14-.2.08-.04.25-.22.33-.34.1-.15.2-.39.25-.6.05-.19.05-.23.08-.49,0-.04.01-.15.01-.25,0-.2,0-.19.1-.36.1-.17.15-.34.18-.54.03-.26.03-.54-.02-.76-.01-.06-.04-.18-.04-.21,0-.03-.02-.09-.04-.2,0-.02-.01-.05-.02-.07,0-.04-.02-.1-.06-.26,0-.04-.03-.14-.05-.22-.03-.14-.05-.19-.11-.47-.08-.32-.08-.33-.14-.5-.14-.38-.39-.81-.8-1.38-.13-.18-.18-.26-.31-.47-.16-.27-.27-.41-.46-.61-.2-.2-.38-.34-.65-.49q-.17-.1-.31-.1c-.06,0-.16,0-.22,0-.06,0-.14.01-.18.02-.04,0-.13.01-.18.01-.06,0-.12,0-.14.01-.02,0-.06.01-.09.02-.13.03-.45.1-.56.13-.12.03-.13.04-.2.07-.04.02-.12.05-.19.07-.13.04-.23.08-.31.11-.16.06-.31.12-.56.2-.3.1-.72.27-1.07.45-.13.06-.31.16-.33.17,0,0-.04.02-.08.04-.31.17-.8.48-1.18.77-.45.34-.77.61-1.21,1.04-.18.18-.23.22-.3.26-.13.07-.4.26-.6.43-1.16.97-2.98,2.92-5.19,5.57-1.21,1.45-1.96,2.42-2.76,3.56-.24.34-.71,1.07-.95,1.46-.05.09-.11.18-.13.21-.02.02-.05.08-.07.12-.03.05-.05.08-.05.08,0,0-.13-.35-.25-.72l-.02-.05.03-.03s.03-.04.04-.05c.02-.05,0-.12-.03-.17-.01-.01-.02-.03-.02-.04,0-.01.03-.1.06-.2.07-.21.14-.44.18-.56,0-.02.01-.04.02-.06,0-.01.01-.04.02-.06,0-.02.03-.09.04-.15l.03-.12.04-.02s.07-.05.07-.08c0-.03.02-.04.07-.03.09.02.23.05.33.07.06.01.12.02.14.03.02,0,.06.01.1.02.12.02.13.03.14.06.03.06.08.09.15.09.05,0,.08-.02.11-.07.03-.04.03-.13,0-.18-.03-.05-.05-.06-.11-.07-.06,0-.1.01-.14.06-.01.02-.03.03-.03.03,0,0-.21-.04-.38-.07-.25-.04-.38-.07-.43-.09-.12-.06-.23.06-.16.18l.02.04-.03.09c-.07.24-.1.33-.14.48-.06.2-.07.24-.13.48l-.03.1h-.05s-.06.03-.06.03c0,0-.02,0-.02,0,0,0-.07-.04-.15-.09-.16-.11-.3-.2-.56-.36-.12-.07-.19-.12-.19-.13-.02-.1-.05-.16-.11-.19-.07-.03-.16-.01-.2.04l-.02.02-.08-.04s-.12-.06-.17-.08c-.05-.02-.11-.05-.13-.06-.02-.01-.05-.02-.05-.02-.01,0-.13-.06-.14-.08,0,0-.02-.03-.02-.05-.01-.04-.06-.1-.1-.12-.06-.03-.14-.03-.21,0-.11.04-.17.16-.13.26.03.09.1.13.2.13s.17-.03.21-.09c.01-.02.03-.04.03-.04,0,0,.13.06.3.14.08.04.16.07.16.07,0,0,.03.01.05.02.05.02.06.04.06.09,0,.01,0,.04.02.06.06.11.21.13.29.04.01-.01.03-.03.03-.03s.07.05.15.1c.15.11.55.37.65.43l.06.03v.04c0,.08.05.15.14.16h.04s.02.08.02.08c.01.04.03.12.05.16.05.18.06.2.07.22,0,.01.03.09.05.17.02.08.05.16.06.18.02.05.02.06,0,.08-.02.03-.29.5-.29.51,0,0-.01.02-.02.05-.04.07-.14.25-.22.41-.1.2-.32.65-.39.78,0,.01-.03.06-.05.1-.02.04-.04.08-.04.08,0,0,0,.03-.02.05-.01.03-.04.08-.06.13-.08.18-.09.21-.1.22,0,0-.05,0-.16-.04-.08-.03-.21-.07-.27-.09-.2-.06-.19-.06-.19-.09,0-.01,0-.03,0-.03,0,0,.04,0,.09-.01h.08s-.06,0-.06,0c-.03,0-.07,0-.07,0,0,0-.02,0-.02,0,0,0-.02-.02-.02-.05l-.02-.05.03-.04c.05-.06.12-.14.19-.21.04-.04.06-.07.06-.07,0,0-.02.01-.04.03-.03.03-.26.23-.28.24,0,0-.02,0-.04,0-.01,0-.03-.01-.04-.01-.03,0-.04-.02-.05-.08v-.06s0,.06,0,.06c0,.07,0,.07-.06.09-.04.01-.04.01-.06,0-.03-.02-.14-.12-.21-.18-.08-.08-.11-.09-.05-.03.05.06.17.19.2.24.03.04.03.04.02.08,0,.03-.01.05-.02.05-.03,0-.05,0-.11,0h-.07s.09.01.09.01c.05,0,.09,0,.09,0,0,0,0,.02.01.03,0,.02,0,.04.01.04,0,0-.03.05-.11.15-.07.07-.13.15-.15.16-.02.02-.03.03-.03.04,0,0,.05-.04.11-.1.06-.06.14-.12.17-.15l.05-.04.05.02.05.02v.07s0,.07,0,.07v-.05c.02-.08.02-.09.07-.1.04-.01.05-.01.06,0,.03.02.13.11.21.18.04.04.08.07.08.07,0,0-.03-.04-.08-.09-.12-.13-.16-.18-.15-.19,0,0,.03,0,.21.07.07.03.17.06.22.08.13.04.14.05.14.06,0,0-.02.05-.04.11-.28.74-.43,1.3-.46,1.7,0,.11-.04.25-.06.32-.01.02-.01.1-.01.4,0,.16,0,.39,0,.58-.37-.56-.37-.56-.56-1.04-.08-.2-.19-.37-.28-.5-.03-.06-.06-.13-.08-.18-.06-.13-.12-.29-.21-.55-.02-.06-.04-.12-.04-.14,0-.01-.02-.06-.04-.11-.17-.55-.44-1.24-.63-1.55-.08-.13-.31-.41-.54-.64-.25-.25-.48-.45-.72-.61-.25-.16-.46-.27-.65-.31-.06-.01-.23-.03-.28-.03-.1,0-.27.04-.62.15-.1.03-.17.05-.23.07q-.09.03-.11,0l-.02-.02.08-.24c.04-.13.09-.26.09-.29l.02-.05h.1c.08,0,.1-.01.15-.03.06-.03.11-.07.14-.13l.03-.04.05.02c.11.04.48.2.67.29.23.11.36.17.56.27l.17.08v.06c.03.11.1.18.2.2.12.03.23-.04.27-.17.01-.04.02-.05.04-.05.2-.03.31-.05.38-.07.03,0,.04,0,.07.02.08.07.2.06.27-.02.05-.06.06-.12.04-.2-.02-.09-.09-.14-.19-.14-.07,0-.1.02-.14.06-.04.04-.05.08-.05.13,0,.02,0,.04,0,.05,0,0-.04.02-.09.03-.05.01-.12.03-.16.04-.11.03-.15.03-.16.03,0,0-.01-.02-.02-.04-.02-.05-.08-.1-.12-.12-.1-.04-.19-.02-.26.06l-.04.05-.2-.1c-.17-.08-.48-.23-.56-.26-.01,0-.04-.02-.06-.03-.06-.03-.33-.13-.43-.17-.18-.06-.18-.07-.18-.1,0-.11,0-.16-.02-.22-.05-.11-.14-.19-.27-.22-.1-.02-.22.02-.3.11l-.05.05-.13-.05c-.25-.11-.53-.2-.72-.24-.13-.03-.13-.03-.13-.08-.01-.1-.06-.15-.17-.16h-.06s-.02-.04-.02-.04c-.04-.08-.1-.23-.1-.24,0,0,0-.02.02-.04.03-.03.04-.06.02-.12-.01-.06-.04-.09-.09-.11-.04-.02-.07-.02-.13,0-.02,0-.02,0-.08-.11-.03-.07-.1-.19-.15-.27-.05-.08-.09-.16-.1-.18l-.02-.03.02-.03s.03-.05.04-.07c.02-.04.02-.06.02-.13,0-.12-.02-.18-.08-.25l-.03-.03.04-.03c.12-.09.27-.23.42-.38l.17-.17h.04c.06.03.12.01.16-.03.09-.08.06-.24-.04-.29-.04-.02-.13-.02-.17,0-.07.04-.11.14-.08.24,0,.01-.05.07-.3.32l-.31.31h-.03s-.2-.03-.24-.01c-.02,0-.04.02-.06.03-.05.02-.11.09-.14.14-.01.02-.03.07-.04.1-.02.1,0,.21.09.29.05.05.11.08.18.1.07.01.14,0,.21-.02.04-.02.04-.02.1.1.09.19.17.35.25.46.02.03.03.05.02.06-.02.05,0,.12.04.17.03.03.08.05.13.05.03,0,.03,0,.06.09.02.05.04.12.05.15l.03.07-.02.04c-.04.09,0,.2.07.24.02,0,.03.02.03.02,0,0-.01.06-.03.12-.02.07-.04.14-.04.17,0,.02-.01.06-.02.07-.05.21-.09.45-.11.55,0,.05-.02.06-.06.06s-.11.02-.14.03c-.06.03-.12.1-.13.17,0,.03,0,.03-.03.03-.01,0-.1-.03-.18-.06-.23-.09-.64-.22-.95-.31-.06-.02-.11-.04-.12-.04,0,0-.02-.03-.03-.05-.02-.06-.06-.1-.12-.11-.1-.01-.16.02-.2.09-.03.06-.02.16.03.21.02.03.08.05.12.05.06,0,.1-.02.14-.06.02-.02.04-.04.05-.04,0,0,.06.02.11.04.1.04.34.13.41.16.02,0,.08.03.12.04.04.02.19.07.34.12.15.05.27.09.28.1,0,0,.02.02.03.04v.03s-.07.15-.07.15c-.17.3-.45.76-.53.89l-.04.07h-.05c-.12-.03-.2.04-.2.16,0,.1.07.17.17.17.12,0,.2-.12.15-.25t0-.07c.09-.12.45-.7.45-.72,0,0,.01-.03.03-.05.02-.03.05-.09.08-.14.02-.05.05-.1.06-.11v-.02s.05.02.05.02c.08.06.2.07.29.03.03-.01.06-.03.07-.04.03-.03.07-.09.07-.1,0-.02.02-.02.1,0,.04,0,.11.02.14.02.04,0,.09.01.12.02.07.01.18.02.29.03.11.01.14.02.14.03,0,0-.04.01-.07.02-.04,0-.08.02-.09.02-.01,0-.08.02-.14.03-.25.05-.32.08-.54.26-.19.15-.37.33-.5.51-.08.11-.18.22-.32.37-.12.13-.17.19-.22.3-.05.1-.07.18-.08.28,0,.09-.02.12-.11.27-.07.11-.11.21-.15.32-.07.2-.09.4-.06.61.04.32.16.6.38.95.09.14.15.21.18.22.01,0,.06.04.1.09.09.1.17.16.29.24.2.13.22.24.12.59-.04.13-.05.19-.05.27,0,.07,0,.08.02.11.04.07.11.09.29.11.13.01.16.03.19.09.01.03.02.05.02.05s0,.04.02.07c.03.1.07.13.18.15.1.02.13.05.13.12,0,.1.03.14.16.21.14.07.17.11.2.26.02.1.05.15.1.2.11.12.29.11.52-.03.16-.09.31-.16.4-.17.05,0,.05-.01.02.13-.01.06-.03.12-.03.14,0,.02-.03.17-.06.32-.05.26-.08.4-.1.54,0,.03-.01.07-.02.1,0,.05-.02.12-.04.21,0,.03-.01.07-.01.08,0,.01-.01.02-.05.03-.07.01-.13.05-.16.1-.02.04-.03.05-.03.12,0,.09,0,.11.06.17.05.05.07.05.15.06h.06s.01.07.01.07c0,.03.01.1.01.14v.07s-.04,0-.04,0c-.11.02-.21.08-.26.19-.03.05-.03.06-.03.14s0,.09.02.13c.01.03.04.07.07.09l.04.05-.03.02s-.14.1-.26.19l-.04.03-.02-.02s-.07-.06-.14-.06c-.03,0-.07,0-.08.01-.06.03-.1.1-.1.18v.04l-.4.25c-.54.33-.71.44-.96.6-.21.13-.22.13-.25.12-.09-.01-.16.07-.11.15,0,.01.02.03.02.04,0,0-.06.13-.13.27-.07.15-.14.29-.16.33-.02.04-.05.1-.06.13-.02.04-.05.1-.07.14-.02.04-.03.07-.03.07,0,0,0,.03-.02.05-.01.03-.04.09-.06.13-.02.05-.04.1-.05.12-.05.12-.21.54-.28.75-.01.03-.03.08-.03.09-.01.03-.01.03-.05.03-.1-.01-.18.03-.19.11-.01.08.02.14.09.17.04.01.04.02.04.07,0,.03,0,.1.01.17.01.2.04.47.06.73,0,.09.01.14.03.35,0,.09.02.19.03.31,0,.04.01.11.02.16,0,.05.01.11.02.15,0,.03.01.08.01.1v.04s-.04.02-.04.02c-.05.02-.08.06-.09.12,0,.04,0,.05,0,.1.01.03.03.07.04.09.01.02.03.03.03.04,0,0-.35.44-.41.5-.03.03-.04.04-.07.04-.12,0-.18.08-.16.2,0,.04.05.08.1.09.07.02.16-.02.17-.09,0-.02,0-.09-.01-.14,0-.02,0-.04.1-.15.16-.19.22-.26.28-.34.08-.1.09-.1.13-.1h.03v.16c0,.09,0,.2,0,.24,0,.05.01.12.02.18.01.1.02.14.04.31.02.12.02.15.06.32.03.14.08.28.16.49.11.29.13.33.16.43.01.05.02.08.09.36.02.06.04.15.05.19.01.04.03.11.04.15.01.04.03.11.04.15,0,.04.02.09.03.13,0,.04.02.08.03.11,0,.03.02.08.03.12.02.07.03.1.06.21,0,.03.02.09.04.13.01.05.03.13.05.18.01.05.04.13.05.19.01.05.04.14.05.19.01.05.04.14.05.2.02.05.04.13.04.16,0,.03.02.08.03.11,0,.02.02.07.03.09,0,.03.02.07.03.11,0,.03.03.1.04.15.03.1.04.16.06.23,0,.03.02.07.03.1.02.08.04.14.06.21,0,.04.02.09.03.12,0,.03.02.07.03.09,0,.03.02.08.03.11.01.04.03.1.04.13.01.04.03.1.04.15.02.08.03.13.09.35.04.16.14.54.15.58,0,.05.07.31.08.36,0,.02.01.06.02.09,0,.03.01.07.02.09,0,.02.01.06.02.09,0,.03.01.07.02.1,0,.04.01.07.03.21.03.19.03.19.02.29-.01.13-.02.22-.06.58,0,.05-.01.13-.02.17,0,.04,0,.08,0,.08,0,0,0,.06.01.12,0,.06.01.16.02.21,0,.05.01.14.02.2,0,.06.01.35.02.64,0,.29.01.57.02.61.02.17.04.41.05.55,0,.05.01.13.02.18,0,.08.02.16.04.36,0,.05.01.12.02.18.01.13.03.25.04.36,0,.09.02.21.03.25,0,.01.01.09.02.16.02.13.03.22.04.32,0,.03.01.09.02.13.01.09.02.19.04.26,0,.03.01.08.02.13.01.09.02.18.04.26,0,.03.01.08.02.12.02.12.04.28.07.41.05.25.05.23.03.48-.02.24-.03.3-.03.5,0,.12-.01.34-.02.49,0,.15-.01.33-.01.39,0,.13-.01.12.09.17l.07.04.03-.02c.16-.1.48-.41.61-.6.03-.05.1-.21.14-.34,0-.02.04-.06.08-.11.15-.18.18-.22.2-.26.01-.02.04-.07.06-.11.02-.04.04-.07.04-.08,0,0,.02-.03.04-.07.03-.04.06-.12.09-.22.03-.08.06-.17.06-.2,0-.03.04-.11.06-.19.02-.08.05-.16.06-.19,0-.03.04-.11.06-.19.07-.22.1-.3.11-.36.03-.08.03-.09.09-.32.03-.12.07-.23.07-.25.01-.03,0-.03.54-.58l.38-.39.04-.09c.09-.19.15-.43.15-.62,0-.12-.01-.18-.05-.27-.08-.18-.23-.34-.57-.59-.24-.18-.29-.21-.38-.3-.1-.1-.15-.16-.2-.25-.04-.08-.04-.11-.05-.29,0-.09,0-.27-.01-.4,0-.13-.01-.28-.02-.32-.01-.12-.02-.32-.01-.33,0-.01.01,0,.06.03.05.04.05.04.05.07-.02.11-.01.18.02.26.03.06.11.14.17.17.05.02.07.03.14.03.09,0,.11,0,.18-.04.05-.02.12-.09.14-.14.01-.02.02-.06.02-.13,0-.05,0-.1.01-.1,0,0,.04-.03.07-.06.07-.05.51-.41.63-.5.12-.1.38-.29.5-.38.22-.16.83-.57.95-.64l.03-.02.02.02s.1.05.13.05c.08,0,.17-.07.19-.15.01-.04,0-.11-.02-.14,0-.01,0-.04.07-.13.17-.25.29-.46.45-.75.1-.18.16-.3.37-.73.13-.25.23-.45.23-.46,0,0,.04,0,.08,0,.09,0,.15-.03.22-.09.05-.05.08-.1.09-.17.03-.17-.05-.3-.22-.36-.07-.02-.11-.02-.18,0-.03.01-.06.02-.07.02,0,0-.26-.44-.26-.46,0,0-.01-.02-.02-.04-.01-.02-.04-.07-.06-.1-.02-.03-.04-.08-.06-.11-.01-.03-.02-.05-.02-.05,0,0,.03,0,.07.02.12.05.96.38,1.4.55.04.01.09.04.12.05.08.03.56.21.75.28.05.02.12.04.16.06.04.02.22.08.39.14.17.06.32.12.35.13.03,0,.07.03.09.03.02.01.15.05.27.1.12.04.24.09.27.1.02,0,.07.03.11.04s.07.03.07.03c0,0-.02.01-.04.02-.11.03-.17.09-.2.2-.01.04-.01.06,0,.1.02.07.04.12.09.16.07.07.19.09.29.04.15-.07.19-.25.09-.4q-.04-.06-.03-.06s.04.02.09.03c.05.02.1.03.15.03.04,0,.12,0,.19.01.13.01.25.02.36.04.17.02.17.02.23,0,.24-.07.53-.23.98-.53.44-.29.48-.33.7-.55.55-.57.75-.76.75-.77,0,0,.08.03.17.08.09.05.16.09.16.09,0,0,.03.02.06.03.03.02.06.03.06.03,0,0,.02,0,.04.02.02.01.12.07.23.14.11.06.23.14.28.16.04.03.08.05.08.05.02,0,.02.02,0,.05-.04.07-.05.19-.01.27.02.05.09.11.15.14.04.02.05.02.12.02.04,0,.08,0,.09,0t.03.08s.01.07.02.09c0,.02.02.07.03.12.02.1.05.2.09.33.02.08.1.33.13.42.05.16.15.45.18.57.02.07.05.15.06.2.01.04.04.12.05.17.01.05.03.1.03.11,0,.01.02.08.04.14.02.06.04.13.04.14,0,.01.02.07.04.14.02.06.04.13.04.14,0,.01.02.08.04.14.02.06.04.13.04.14,0,.01.02.07.04.14.02.06.05.15.06.18.03.08.03.08,0,.13-.04.06-.02.15.03.2.03.03.06.04.09.04.02,0,.05.03.43.6.41.62.54.82.58.88l.02.04-.02.03s-.05.09-.03.14c.01.05.03.02-.21.32-.29.38-.45.58-.59.76-.05.07-.09.12-.1.13,0,0-.02,0-.06,0-.04-.01-.1-.02-.2,0-.02,0-.04-.02-.17-.19-.33-.43-.47-.63-1.18-1.62-.32-.45-.59-.83-.61-.85-.03-.05-.04-.07-.03-.07.01,0,.04-.05.05-.08.01-.07-.04-.16-.12-.18-.02,0-.04-.01-.04-.01,0,0-.04-.21-.04-.25-.01-.06-.04-.24-.05-.3,0-.03-.01-.07-.02-.1,0-.03-.01-.08-.02-.11,0-.03-.01-.07-.02-.1,0-.03-.01-.06-.01-.08,0-.04-.04-.24-.05-.31,0-.04-.01-.09-.02-.12,0-.03-.01-.09-.02-.13,0-.04-.01-.1-.02-.13,0-.03,0-.08-.01-.11v-.06s.03-.03.03-.03c.1-.08.11-.2.02-.27-.1-.08-.24-.04-.27.09,0,.03,0,.05,0,.08.01.04.06.1.11.12.02.01.03.02.03.06,0,.02,0,.07,0,.1s0,.08,0,.13c0,.04.01.12.02.18.01.14.06.49.07.57,0,.02,0,.05.01.09.03.19.09.47.14.67l.02.07-.02.03s-.03.12,0,.16c.02.04.06.07.1.08.03,0,.04.01.09.1.1.16.51.77.56.84.03.04.11.16.19.27.28.39.56.77,1.03,1.37l.14.18-.02.03c-.05.06-.06.1-.06.17,0,.07.01.11.05.17.07.1.21.13.32.09.04-.02.11-.09.14-.15.03-.07.03-.16-.01-.24l-.03-.06.03-.04s.08-.1.13-.16c.19-.23.43-.54.65-.82.08-.11.1-.12.11-.12,0,0,.05,0,.09,0,.07,0,.07,0,.11-.02.05-.03.07-.09.07-.15,0-.05-.01-.08-.05-.12-.04-.04-.06-.04-.11-.05-.05,0-.06-.02-.13-.14-.03-.05-.09-.14-.13-.2-.04-.06-.09-.14-.12-.18-.11-.18-.39-.58-.6-.88-.04-.06-.07-.1-.07-.11,0,0,0-.02.02-.04.03-.04.03-.14,0-.18-.03-.04-.06-.06-.1-.07-.04,0-.04,0-.1-.21-.02-.08-.05-.16-.06-.19,0-.03-.04-.13-.07-.22-.03-.09-.06-.19-.07-.22,0-.03-.04-.12-.07-.22-.03-.09-.06-.19-.07-.21,0-.02-.02-.08-.04-.12-.01-.04-.04-.12-.05-.17-.01-.05-.03-.11-.04-.14,0-.03-.02-.08-.03-.11,0-.03-.02-.08-.04-.11-.04-.15-.06-.18-.09-.29-.05-.17-.11-.39-.16-.54-.05-.19-.06-.23-.11-.4l-.04-.18.05-.06c.07-.08.08-.1.07-.21,0-.07,0-.09-.02-.13-.03-.05-.07-.1-.14-.13-.04-.02-.06-.02-.12-.02-.05,0-.09,0-.12.02-.07.03-.02.05-.44-.2-.14-.08-.26-.16-.28-.17-.01,0-.11-.07-.22-.13-.11-.06-.2-.11-.2-.11-.02,0,0-.03.08-.12.33-.36.49-.61.57-.86.07-.22.1-.49.1-.97,0-.26,0-.27-.02-.32-.02-.05-.06-.13-.12-.26-.08-.17-.08-.18-.11-.54-.01-.14-.02-.22-.08-.5-.03-.13-.04-.22-.04-.22,0,0,.02,0,.03,0,.02,0,.03.02.09.14.04.07.08.16.1.18.03.05.03.06.03.12,0,.04,0,.08,0,.09.02.03.05.07.09.08.04.02.11.02.15,0,.04-.02.09-.07.1-.12,0-.03.01-.03.05-.03.24-.03.63-.12.83-.18.23-.07.24-.08.27-.06.03.02.12.02.15,0,.06-.03.08-.12.05-.2,0-.02,0-.03.02-.07.01-.02.04-.07.06-.11.1-.21.15-.3.25-.48.02-.04.04-.07.04-.07,0,0,0-.02.02-.03.01-.02.02-.02.04-.02.03,0,.15-.01.19-.03.05-.02.11-.09.14-.14.02-.05.03-.06.03-.14,0-.07,0-.09-.02-.13-.04-.09-.13-.16-.25-.18-.03,0-.06-.01-.07-.01-.02,0-.03-.03-.11-.17-.02-.04-.05-.09-.06-.1,0-.01-.04-.07-.06-.12-.03-.05-.07-.14-.1-.19-.03-.06-.05-.11-.05-.11,0,0,.02,0,.04,0,.04.01.28.09.41.13.05.01.12.04.17.05.11.03.47.14.53.15.02,0,.07.02.09.02.23.06.37.1.63.16.28.07.54.13.69.17.19.04.23.05.27.06.04,0,.09.02.16.03.02,0,.05.01.07.02.02,0,.06.01.09.02h.06s.45.44.45.44c.44.42.45.43.45.47,0,.02,0,.06.01.09,0,.05.01.06.04.1l.04.04-.07.11c-.04.06-.09.15-.12.2-.12.2-.33.5-.35.49-.09-.04-.16-.04-.25,0-.13.04-.22.17-.22.3,0,.17.09.3.25.35.05.02.09.02.16,0,.1-.03.18-.09.22-.17.03-.05.04-.06.08-.05.02,0,.07.01.11.02.04,0,.1.01.13.02.03,0,.08.01.12.02.04,0,.09.01.12.02.03,0,.08.01.12.02.04,0,.09.01.11.02.02,0,.07.01.11.02.13.02.33.05.45.08.05,0,.11.02.14.03.03,0,.06.01.08.02.02,0,.18.04.35.07.31.06.32.06.34.09.1.11.17.16.27.17.17.02.31-.09.34-.26,0-.04,0-.06,0-.11-.02-.11-.07-.17-.18-.22-.11-.05-.26-.03-.34.05-.02.02-.05.04-.05.04,0,0-.1-.09-.21-.19-.37-.36-.78-.73-1.27-1.13l-.12-.1v-.06c0-.13-.08-.22-.21-.22-.05,0-.13.02-.14.04,0,0-.01,0-.02,0-.02,0-.74-.71-.74-.72,0-.01,0-.01.2.03.08.02.25.05.37.08.12.02.25.05.27.05.12.02.23.04.37.07.31.05.42.08.51.11.19.08.39.14.83.22.06.01.22.04.34.05.04,0,.09.01.12.02.03,0,.09.01.14.02.05,0,.11.01.13.02.11.02.23,0,.34-.03.22-.07.68-.34,1.06-.61.12-.09.17-.14.32-.32.33-.41.57-.63,1.09-.98.25-.17.39-.28.51-.4.15-.16.19-.26.19-.48,0-.18.03-.34.09-.53.06-.19.24-.58.3-.65.01-.02.05-.04.09-.06Zm-26.21-10.97c-.06,0-.09.03-.11.06-.02.03-.02.03-.06.03-.29-.04-.53-.07-.76-.08-.16,0-.16-.01-.16-.08,0-.07-.03-.13-.1-.19l-.06-.06v-.04s.02-.08.03-.14c.01-.05.02-.12.03-.14,0-.02.02-.08.03-.14.01-.06.02-.12.03-.14,0-.02.02-.09.03-.14.05-.25.04-.24.09-.25.02,0,.04-.02.06-.04.02-.02.04-.03.04-.03,0,0,.06.02.13.05.06.02.15.06.19.07.04.01.11.04.15.05.04.01.13.05.2.07.22.07.26.09.27.1.01,0,.01.02,0,.06-.02.11.02.21.11.31l.06.06v.04c-.03.05-.04.08-.08.22-.02.06-.06.25-.07.3,0,.02-.01.02-.04.03Zm19.79,15.49h.06c.06-.01.12-.03.15-.07l.02-.02.04.03s.25.24.52.49c.55.51.78.72.92.85.11.09.11.1.1.16,0,.03-.02.03-.16-.01-.11-.03-.24-.06-.32-.07-.04,0-.11-.02-.17-.04-.06-.01-.35-.06-.41-.07-.03,0-.08-.01-.11-.02-.03,0-.08-.01-.12-.02-.04,0-.1-.01-.13-.02-.13-.02-.47-.05-.67-.07-.1,0-.11-.01-.11-.07,0-.04-.02-.1-.04-.14,0-.01-.03-.04-.04-.06-.02-.02-.03-.04-.03-.04,0,0,.04-.05.08-.11.17-.21.29-.4.38-.58l.06-.12Zm4.77-10.85s-.02.06-.26.54c-.09.17-.12.25-.16.35-.09.27-.08.45.04.63.05.07.11.13.18.19.06.04.06.06.02.05-.01,0-.06-.01-.11-.02-.05,0-.13-.03-.18-.04-.18-.04-.52-.11-.67-.13-.08-.01-.19-.03-.24-.04-.05-.01-.11-.02-.14-.03-.06-.01-.38-.08-.55-.11-.05-.01-.1-.02-.12-.03-.02,0-.07-.02-.12-.03-.11-.02-.23-.05-.29-.06-.02,0-.06-.01-.07-.02-.02,0-.05-.01-.07-.02-.02,0-.08-.02-.13-.03-.08-.02-.15-.03-.26-.05-.03,0-.07,0-.1,0-.25,0-.72-.32-.94-.64-.13-.19-.16-.33-.12-.48.04-.13.19-.26.34-.31.1-.03.34-.09.47-.11.05,0,.1-.01.12-.02.13-.02.82-.02,1.04,0,.06,0,.15.01.2.02.06,0,.13.01.16.02.03,0,.1.01.14.02.05,0,.11.01.14.02.03,0,.08.01.12.02.15.02.49.08.62.1.02,0,.06.01.09.02.03,0,.07.01.09.02.02,0,.13.03.24.05.28.06.49.12.51.13Zm-5.45-3.07c-.1-.08-.12-.1-.35-.25-.26-.17-.32-.22-.38-.3-.11-.14-.15-.27-.15-.45,0-.1,0-.11.02-.16.03-.05.07-.09.18-.14.09-.04.32-.14.39-.16.12-.03.28-.08.42-.11.06-.01.14-.03.17-.04.03,0,.07-.02.09-.02.02,0,.09-.02.15-.03.06-.01.13-.03.16-.03.02,0,.14-.02.26-.04.12-.01.25-.03.29-.04.27-.03.77-.08,1.12-.1.09,0,.17-.01.17-.01,0,0,.08,0,.16,0h.16l.02.05c.02.05.06.15.11.27.04.11.09.25.12.31.01.03.02.05.02.05,0,0,.02.04.04.08.02.04.04.08.04.08,0,.02.2.41.27.53.09.16.13.21.22.33.04.05.07.09.06.1,0,.02-.08.03-.36.05-.18.01-.4.04-.53.05-.03,0-.1.01-.14.02-.21.02-.27.03-.33.04-.03,0-.1.01-.14.02-.04,0-.11.01-.14.02-.03,0-.1.01-.14.02-.05,0-.11.01-.15.02-.07,0-.13.02-.51.05-.14.01-.6.01-.69,0-.43-.06-.48-.08-.62-.2Zm1.18,5s.05.07.06.14c.03.15.04.34.01.44-.04.17-.15.31-.31.36-.14.05-.66,0-1.3-.13-.1-.02-.21-.04-.24-.04-.03,0-.06,0-.07-.01,0,0-.07-.02-.14-.03-.16-.03-.54-.13-.6-.15-.06-.02-.13-.04-.2-.06-.02,0-.07-.02-.12-.03-.05-.01-.13-.04-.18-.05-.05-.02-.16-.04-.23-.07-.08-.02-.18-.05-.23-.06-.1-.02-.12-.03-.15-.07-.02-.02-.02-.03,0-.05.02-.04.11-.08.38-.18.04-.01.14-.05.23-.09.18-.07.24-.09.35-.12.05-.01.16-.05.25-.08.47-.16,1.03-.24,1.34-.2.13.02.21.03.35.08.45.13.69.25.81.41Zm-.03-7.56c.17.14.34.31.33.33,0,0-.17.04-.39.09-.44.09-.52.11-.63.13-.05,0-.1.02-.13.03-.02,0-.08.02-.13.03-.05,0-.1.02-.12.03-.02,0-.08.02-.12.03-.05,0-.12.03-.17.04-.1.02-.13.03-.24.05-.35.07-.86.18-.97.19-.35.05-.66.03-.91-.05-.31-.1-.45-.29-.47-.6-.01-.21.02-.32.14-.45.18-.18.39-.3.71-.39.05-.01.1-.03.12-.03.02,0,.05-.01.2-.05.13-.03.28-.06.41-.07.04,0,.11-.01.14-.02.03,0,.11-.01.16-.02.06,0,.14-.01.19-.02.13-.01.31-.03.53-.04.07,0,.13-.01.13-.01.01-.01.12,0,.15.01.14.06.59.4,1.06.82Zm-.22-.92s.09-.03.17-.04c.16-.02.19-.03.28-.03h.1s.03.04.03.04c.02.03.06.09.1.15.22.33.42.58.74.94.02.03.01.03-.05.05-.03,0-.08.01-.12.02-.13.02-.06.08-.66-.51-.6-.59-.62-.61-.61-.62Zm-3.64,2.8s.08-.01.1-.02c.06-.01.36-.01.46,0,.43.05.72.2.83.44.07.16.05.39-.06.53-.05.06-.1.09-.38.17-.4.11-.45.13-1.43.46-.77.26-1.42.49-1.59.57-.02,0-.08.03-.14.06-.06.03-.19.08-.28.13-.19.09-.25.12-.43.18-.35.12-.54.22-.63.32-.07.09-.19.13-.36.12-.14,0-.24-.05-.27-.09-.02-.03.02-.08.32-.41.62-.67,1.23-1.21,1.87-1.63.32-.21.68-.41.93-.52.04-.02.09-.04.11-.05.09-.04.26-.1.34-.12.15-.04.44-.1.61-.13Zm-3.04,3.03s.11-.06.15-.08c.15-.08.22-.12.47-.25.31-.16.42-.21.65-.31.06-.03.13-.06.15-.07.03-.01.05-.02.05-.02,0,0,.02,0,.05-.02.08-.04.4-.16.55-.22.46-.17.97-.32,1.3-.38.03,0,.07-.01.09-.02.07-.01.24-.04.39-.05.05,0,.12-.01.15-.02.08-.01.57-.01.66,0,.34.04.51.09.69.21.07.05.16.13.19.18.07.1.11.27.11.42,0,.23-.1.35-.31.41-.31.09-.77.17-1.06.2-.06,0-.13.01-.17.02-.04,0-.11.01-.16.02-.05,0-.12.01-.16.02-.04,0-.12.01-.17.02-.05,0-.13.01-.17.02-.04,0-.12.01-.18.02-.32.03-.33.03-.58.05-.05,0-.14.01-.2.02-.06,0-.14.01-.18.02-.04,0-.12.01-.17.02-.05,0-.13.01-.17.02-.15.02-.24.03-.33.03-.05,0-.12.01-.16.02-.04,0-.11.01-.16.02-.05,0-.12.01-.16.02-.04,0-.11.01-.16.02-.06,0-.12.01-.15.02-.07.01-.33.01-.41,0-.28-.04-.49-.11-.55-.18-.05-.06-.04-.08.12-.16Zm9.08-4.84c-.08,0-.54-.3-.77-.5-.13-.12-.42-.43-.47-.51,0-.01-.01-.03-.01-.03,0,0,.18,0,.26,0,.27.04.27.04.29.11.03.1.16.32.28.46.07.09.36.37.42.41.03.02.05.03.05.03,0,.01-.03.03-.05.03Zm-.42-2.43s-.07,0-.15.01c-.08,0-.27.01-.43.02-.16,0-.33,0-.38,0-.14,0-.18-.02-.39-.16-.14-.09-.22-.16-.33-.27-.14-.15-.22-.25-.26-.38-.04-.12-.13-.26-.29-.46-.17-.21-.21-.26-.23-.31-.03-.06-.03-.09,0-.12.02-.03.06-.05.16-.08.07-.02.38-.1.56-.14.02,0,.06-.01.09-.02.13-.03.33-.07.43-.09.11-.02.3-.05.46-.06.05,0,.13-.01.16-.02.04,0,.14,0,.22,0,.13,0,.17,0,.19.01.02,0,.04.02.04.03,0,.02-.05.18-.1.28-.06.12-.12.21-.22.31-.08.1-.16.19-.18.24-.03.05-.05.15-.05.2,0,.12.06.26.16.4.06.09.2.23.3.32.2.17.28.27.24.29Zm-.08-4.21c-.05.08-.07.12-.11.24-.03.1-.06.21-.08.34-.02.1-.02.4,0,.51,0,.04.01.1.02.14.01.11.04.25.06.31.02.06.02.07-.01.08-.03.01-.22.04-.33.05-.05,0-.11.01-.15.02-.03,0-.1.01-.15.02-.05,0-.12.01-.16.02-.38.04-.56.06-.84.07-.35,0-.42-.01-.59-.18-.09-.09-.11-.13-.11-.22,0-.07-.02-.14-.07-.26-.14-.31-.17-.4-.14-.47.02-.04.06-.09.11-.13.06-.04.2-.11.29-.14.07-.02.36-.1.59-.15.13-.03.22-.05.26-.06.02,0,.06-.01.09-.02.07-.02.52-.12.57-.13.08-.02.13-.03.2-.04.05-.01.13-.03.19-.04.06-.01.13-.03.15-.03.02,0,.06-.01.08-.02.05,0,.11-.01.15,0,.04,0,.04.03-.01.1Zm-2.43,3.36c.03.1.05.15.1.23.14.22.19.42.15.57-.03.13-.14.25-.28.32-.07.03-.21.08-.47.14-.02,0-.1.02-.17.03-.07.01-.15.03-.18.03-.04,0-.58.1-.77.13-.09.01-.16.03-.2.03-.02,0-.07.01-.09.02-.5.09-.71.12-.84.15-.03,0-.13.03-.23.04-.1.02-.19.04-.21.04-.02,0-.07.02-.12.03-.05.01-.1.02-.12.03-.04.01-.39.09-.44.1-.03,0-.35.09-.41.1-.17.05-.36.12-.5.18-.04.02-.07.03-.07.02-.02-.02.25-.37.55-.72.14-.16.62-.64.77-.78.24-.21.6-.49.8-.61.07-.04.29-.18.3-.18,0,0,.04-.02.08-.04.07-.04.35-.18.36-.18,0,0,.03,0,.05-.02.2-.09.49-.18.79-.24.02,0,.06-.01.07-.02.26-.06.3-.06.43-.03.34.08.57.31.66.62Zm-4.84,3.93c.13.03.19.09.37.31.2.24.3.38.3.43,0,.04-.03.09-.08.15-.1.11-.31.25-.8.55-.11.06-.22.13-.24.15-.03.02-.12.08-.21.13-.66.4-1.04.66-1.31.89-.23.19-.33.3-.45.48-.18.28-.22.33-.28.4-.22.23-.73.59-1.22.85-.03.01-.07.04-.1.05-.06.04-.6.31-.69.35-.1.05-.18.07-.19.06-.03-.03-.02-.18.03-.52.05-.29.14-.64.25-.91.06-.14.07-.17.13-.3.23-.48.52-.88.9-1.27.29-.29.56-.52.93-.77.09-.06.35-.22.36-.22,0,0,.04-.02.08-.04.04-.02.15-.08.24-.13.09-.05.2-.1.23-.12.14-.07.54-.27.62-.31.33-.15.57-.22.78-.25.06,0,.3,0,.35.02Zm-4.27,5.12c.21-.1.29-.13.74-.28.53-.18.65-.21.99-.27.06-.01.12-.01.17,0,.2.04.25.05.4.1.07.02.18.05.35.1.17.04.5.11.65.14.15.02.26.03.49.02.27,0,.42-.02.68-.05.04,0,.1-.01.14-.02.04,0,.1-.01.13-.02.15-.02.19-.03.26-.04.1-.01.24-.02.38-.03.07,0,.18-.01.24-.02.5-.04.66-.04,1.12-.05.24,0,.48-.01.52-.02.09-.01.25-.03.37-.04.16-.02.44-.02.52,0,.15.02.31.08.51.17.17.08.26.16.31.25.03.05.03.14.01.19-.05.15-.26.38-.53.6-.16.13-.27.19-.41.25-.06.02-.18.04-.47.05-.21,0-.38.02-.5.04-.05,0-.13.01-.17.02-.07,0-.23.03-.35.06-.02,0-.07.02-.12.03-.08.02-.2.04-.28.06-.02,0-.14.03-.28.06-.13.03-.27.06-.3.07-.08.02-.53.12-.57.13-.02,0-.06.01-.09.02-.03,0-.13.03-.22.05-.15.03-.26.06-.36.08-.02,0-.07.02-.12.03-.05,0-.1.02-.12.03-.02,0-.07.02-.12.03-.05.01-.1.02-.12.03-.02,0-.05,0-.06.01-.01,0-.09.02-.17.04-.35.07-.5.08-1.29.08-.66,0-1.25-.02-1.8-.06-.99-.07-1.51-.16-1.64-.29-.04-.03-.04-.04,0-.19.04-.16.12-.34.23-.52.19-.31.53-.6.91-.79Zm-1.08,2.3s.22-.13.31-.15c.03-.01.07-.02.09-.03.07-.02.27-.06.33-.06.02,0,.07,0,.13.01.1.01.18.03.45.08.02,0,.07.01.12.02.04,0,.1.02.12.02.07.01.2.03.26.04.21.03.32.05.46.07.15.02.21.03.41.05.12.01.25.03.29.04.12.01.37.04.54.05.06,0,.24.01.39.02.32,0,.36.01.54.07.22.07.51.2.77.35.06.04.14.08.17.1.03.02.06.03.06.04,0,0,.08.04.22.12.08.04.26.13.32.16.04.02.07.03.26.12.24.12.75.36,1.26.62.25.12.48.24.51.25.03.01.09.04.13.06.04.02.12.05.17.08.06.02.12.05.14.06.02,0,.13.06.25.11.12.05.23.1.24.1.02,0,.06.02.1.04.04.02.09.03.1.04.12.05.53.21.67.26.05.02.13.05.17.07.1.05.54.27.69.35.02.01.06.03.09.05.21.12.45.26.53.32.1.07.26.27.38.44.18.27.23.49.15.69-.02.04-.13.27-.15.29,0,0-.02.04-.04.08-.11.2-.25.42-.28.44-.07.04-.2.05-.3.01-.17-.06-.27-.12-1.15-.76-.49-.35-.76-.55-1.19-.85-.31-.22-.79-.54-1-.68-.39-.25-.54-.33-.79-.44-.08-.03-.16-.07-.17-.07-.01,0-.07-.03-.13-.06-.06-.02-.13-.06-.17-.08-.04-.02-.07-.03-.07-.03,0,0-.04-.02-.1-.04-.05-.02-.09-.04-.1-.04,0,0-.04-.02-.1-.04-.05-.02-.09-.04-.1-.04,0,0-.04-.02-.08-.04-.04-.02-.1-.05-.13-.06-.02-.01-.08-.04-.13-.06-.04-.02-.08-.04-.08-.04,0,0-.04-.02-.1-.04-.05-.02-.09-.04-.1-.04,0,0-.04-.01-.08-.03-.51-.24-1.07-.47-1.32-.54-.39-.11-.78-.24-1.18-.37-.09-.03-.19-.06-.21-.07-.03,0-.13-.04-.23-.08-.1-.03-.2-.07-.22-.08-.02,0-.07-.03-.11-.04-.08-.03-.18-.06-.29-.1-.04-.01-.1-.03-.12-.04-.02,0-.09-.03-.14-.05-.29-.1-.4-.15-.67-.26-.1-.04-.26-.11-.35-.15-.09-.04-.19-.08-.21-.09-.02-.01-.05-.02-.05-.02,0,0-.06-.03-.12-.06l-.12-.06.02-.02Zm11.5,2.8c-.22.05-.26.06-.37.06-.14,0-.2-.02-.38-.13-.16-.09-.41-.22-.76-.39-.07-.03-.17-.08-.24-.12-.07-.03-.16-.08-.21-.1-.11-.05-.24-.11-.37-.18-.09-.04-.12-.06-.31-.14-.04-.02-.12-.06-.18-.08-.06-.03-.13-.06-.15-.07-.03-.01-.09-.04-.15-.07-.06-.03-.12-.06-.15-.07-.03-.01-.09-.04-.15-.07-.05-.03-.12-.06-.15-.07-.03-.01-.09-.04-.13-.06-.04-.02-.1-.05-.13-.06-.03-.01-.1-.05-.17-.08-.06-.03-.14-.06-.17-.08-.06-.03-.18-.08-.39-.18-.07-.04-.16-.08-.2-.09-.13-.06-.99-.49-1.07-.53-.13-.07-.24-.14-.25-.15,0,0,0-.02,0-.02.02-.02.33-.09.54-.12.08-.01.42-.01.47,0,.02,0,.07.01.1.02.11.02.33.07.62.13.05.01.12.03.15.04.03,0,.11.02.17.04.06.02.14.03.18.04.04,0,.12.03.18.04.06.02.16.04.22.05.34.08.74.18,1.03.26.54.14.66.17.89.23.03,0,.1.03.14.04.39.11.51.15.82.3.26.13.41.22.48.29.02.02.05.06.06.1.03.06.05.08.2.24.18.19.25.27.31.37.1.16.09.28-.02.39-.12.11-.23.17-.49.23Zm3.31-6.07c.04.07.05.09.01.1-.02,0-.27,0-.86.01-.75,0-1.01,0-1.6-.03-.54-.02-1.12-.11-1.32-.2-.08-.03-.09-.06-.16-.27-.02-.05-.04-.13-.06-.18-.04-.11-.07-.19-.12-.36-.08-.29-.11-.38-.11-.45,0-.09.02-.1.23-.18.27-.1.49-.15.93-.2.05,0,.11-.01.15-.02.16-.02.26-.03.35-.03.05,0,.12,0,.16,0,.08,0,.91,0,1.15,0,.2,0,.41.02.59.03.06,0,.17.01.23.02.13,0,.18.02.19.04,0,0,0,.2,0,.42,0,.44.02.7.05.84.05.19.1.33.18.45Zm-.55-2.74c.07.06.12.09.16.09.04,0,.11.04.14.09.03.05.04.13.02.15-.04.04-.16.03-.22-.03-.05-.05-.29-.34-.42-.51-.21-.28-.3-.43-.43-.71-.06-.13-.1-.24-.12-.33-.01-.05-.03-.14-.02-.15,0,0,0-.02,0-.03.01-.06.07-.08.11-.04.02.02.11.18.11.2,0,0,.06.15.1.23,0,.02.03.07.05.1.19.44.41.83.52.93Zm-.51-11.23c.02.05,0,.57-.02.82-.03.34-.09.63-.17.82-.04.09-.07.16-.09.16,0,0-.05,0-.09,0-.13-.02-.4-.01-.67.02-.04,0-.12.01-.17.02-.05,0-.11.01-.14.02-.03,0-.09.01-.13.02-.09.01-.33.05-.47.07-.03,0-.07.01-.11.02-.08.01-.31.05-.37.06-.02,0-.11.02-.2.04-.16.03-.32.05-.39.07-.02,0-.09.02-.15.03-.06,0-.12.02-.15.03-.02,0-.09.02-.15.03-.06.01-.12.02-.13.02-.02,0-.04,0-.09-.05-.15-.12-.33-.31-.4-.43-.08-.12-.12-.23-.1-.29.03-.1.16-.25.32-.36.07-.05.25-.17.26-.17,0,0,.02-.01.05-.03.27-.16.84-.39,1.23-.49.13-.04.49-.12.62-.15.02,0,.05-.01.07-.02.02,0,.08-.02.12-.03.05,0,.1-.02.12-.03.03,0,.25-.05.35-.07.09-.02.15-.03.22-.03.07-.01.11-.02.24-.03.03,0,.1-.01.14-.02.04,0,.1-.01.13-.02.05,0,.1-.01.24-.03.07,0,.07,0,.08.02Zm-5.14-.58c.28-.26.94-.73,1.33-.94.11-.06.48-.24.49-.24,0,0,.03-.01.06-.03.03-.01.06-.03.06-.03,0,0,.03-.01.06-.03.18-.08.66-.2,1.04-.26.07-.01.57-.01.65,0,.04,0,.09.01.13.02.09.01.12.02.29.06.21.05.24.06.3.13.1.1.4.58.57.91.08.15.09.18.07.19,0,0-.11.03-.23.06-.21.05-.29.07-.56.14-.06.01-.15.04-.2.05-.05.01-.12.03-.17.04-.04.01-.12.03-.17.04-.05.01-.11.03-.14.03-.03,0-.09.02-.13.03-.04.01-.1.02-.14.03-.03,0-.09.02-.13.03-.04,0-.1.02-.13.03-.03,0-.09.02-.13.03-.04.01-.1.02-.14.03-.03,0-.09.02-.13.03-.04,0-.09.02-.11.03-.02,0-.07.02-.11.02-.04,0-.1.02-.13.03-.03,0-.08.02-.12.03-.03,0-.08.02-.11.03-.03,0-.09.02-.13.03-.04.01-.1.02-.13.03-.03,0-.08.02-.11.03-.03,0-.09.02-.12.03-.03,0-.09.02-.13.03-.04,0-.1.02-.13.03-.1.02-.17.04-.24.06-.04,0-.11.03-.15.04-.04.01-.12.03-.18.04-.14.03-.21.05-.22.05,0,0-.05-.01-.1-.03-.25-.1-.44-.25-.52-.42-.05-.09-.06-.13-.06-.2,0-.07.01-.09.13-.2Zm-.14,2.59c.22.02.29.05.37.13.08.09.11.17.09.25-.04.14-.1.19-.31.24-.2.05-.5.08-.73.07-.17,0-.21-.01-.27-.06-.12-.09-.1-.26.05-.43.1-.11.2-.16.38-.19.19-.03.29-.03.43-.02Zm-1.71-1.16c.17-.14.56-.43.59-.43,0,0,.04.02.07.06.08.08.24.3.28.38.04.08.07.15.08.23.03.16-.04.27-.37.52-.28.21-.59.38-.84.44-.13.03-.17.04-.3.04-.12,0-.13,0-.18-.03-.11-.05-.29-.19-.29-.22,0-.06.6-.68.95-.99Zm-6.41,7.16c.06-.17.14-.27.26-.3.05-.02.07-.02.14,0,.17.04.28.17.28.33,0,.13-.05.32-.11.4-.05.08-.31.09-.5.03-.06-.02-.14-.07-.15-.09-.01-.03.03-.24.08-.36Zm-2.14,3.57c.03-.14.05-.2.11-.33.05-.11.13-.21.2-.29.09-.09.12-.1.14-.06.04.07.05.25.04.39-.02.15-.04.23-.14.36-.06.08-.19.22-.25.25-.06.03-.1.03-.11,0,0-.04,0-.28,0-.33Zm-9.86,13.15s0,.02-.02.05c-.01.02-.03.07-.04.09-.01.03-.04.07-.09.11-.08.08-.13.16-.18.23-.03.05-.03.07-.06.23,0,.03-.01.08-.02.12-.01.06-.05.16-.07.18-.01,0-.02,0-.03,0-.02-.01-.02-.02-.03-.12-.01-.21-.05-.75-.08-1.06-.03-.32-.05-.48-.07-.67,0-.04-.01-.11-.01-.15v-.07s.03-.02.03-.02c.04-.02.07-.08.07-.12,0-.01,0-.04-.01-.07t.01-.11c.04-.11.21-.49.23-.53,0-.02.02-.04.02-.04,0,0,.03-.07.07-.16.08-.18.11-.27.18-.42.03-.06.05-.13.07-.15.01-.03.02-.05.02-.05,0,0,.01-.03.03-.06.01-.03.03-.06.03-.06,0,0,0-.02.02-.05.01-.03.04-.09.07-.15.03-.06.05-.13.07-.15.01-.02.02-.05.02-.05,0-.02.1-.21.1-.21,0,0,.01.01.01.03,0,.02,0,.09.01.16,0,.07.01.19.02.26.02.23.03.44.03.72,0,.15.01.28.01.29,0,0,0,.17,0,.37v.36s-.02,0-.02,0c-.07.02-.12.08-.12.16,0,.06.02.1.07.13.04.03.04.02,0,.12-.07.2-.27.71-.32.82-.01.02-.02.05-.02.05Zm3.51-.37c-.2,0-.25,0-.56-.04-.28-.03-.31-.04-.65-.04-.4,0-.67,0-1.05.06-.05,0-.13.02-.18.02-.05,0-.13.01-.17.02h-.08s-.27.14-.27.14c-.29.15-.33.17-.43.24-.04.03-.07.04-.07.04,0,0,.02-.05.04-.09.09-.2.21-.53.32-.83.03-.08.04-.1.07-.12.09-.07.11-.11.1-.18,0-.04-.03-.07-.07-.1l-.04-.02v-.52c-.01-.66-.03-1.01-.07-1.55,0-.06,0-.15,0-.19,0-.08,0-.06.14-.14.12-.06.18-.1.3-.16.06-.04.13-.07.16-.09.02-.01.06-.03.08-.04.02-.01.03-.02.04-.02,0,0,.23-.14.34-.21.11-.07.34-.22.45-.3.08-.06.08-.06.1-.04.1.06.18.06.25,0,.03-.03.04-.05.05-.09,0-.05.02-.06.04-.08.02-.01.11-.07.2-.13.15-.1.17-.11.19-.1.03.01.12,0,.18-.02.1-.03.17-.11.2-.21.02-.06.02-.1,0-.17-.01-.06-.03-.1-.07-.14-.03-.04-.11-.09-.14-.1-.05-.01-.05-.03-.06-.18v-.14s.03-.05.03-.05c.1-.11.09-.27-.03-.35-.02-.02-.05-.03-.05-.03-.02,0-.02,0,.02-.24,0-.05.02-.1.02-.12,0-.02,0-.05.01-.07,0-.02.01-.06.02-.08,0-.03.02-.12.04-.21.02-.09.03-.17.04-.19,0-.02.01-.07.03-.12.03-.12.04-.17.04-.21.02-.08.05-.26.06-.3v-.03s.06,0,.06,0c.03,0,.07.02.1.03.15.07.33.36.47.74.02.06.09.28.09.32,0,.01.01.05.02.09.02.07.02.1,0,.26-.02.19-.04.45-.05,1.06,0,.18-.01.37-.02.42-.01.11-.01.16,0,.3,0,.05.01.15.02.2,0,.06.01.14.02.18.01.11.02.23.03.34.01.11.02.22.04.34,0,.05.01.12.02.16.01.12.03.25.04.34,0,.09.02.29.04.55,0,.21.02.33.04.48.04.33.05.5.04.75,0,.12,0,.22,0,.23,0,0,0,.11,0,.22,0,.21,0,.26-.04.35-.08.16-.15.19-.47.19Zm4.19,5.65s.04.06.06.1c.03.04.05.09.06.1.04.06.16.27.17.28.01.02.01.02-.02.07-.06.09-.07.18-.04.28.02.05.03.07.08.12.03.03.06.06.06.07,0,0-.03.07-.11.21-.09.16-.29.54-.31.57-.04.08-.17.3-.2.37-.02.04-.05.09-.06.12-.02.03-.03.05-.03.05,0,0-.02.03-.04.07-.02.04-.06.1-.08.15-.02.04-.06.11-.07.14-.02.03-.06.12-.1.19-.04.07-.07.14-.08.14,0,0-.02,0-.06,0-.05-.02-.05-.02-.1,0-.1.02-.17.11-.17.21v.05l-.08.05s-.14.09-.2.13c-.65.41-1.25.86-1.76,1.31-.06.06-.11.1-.12.1,0,0-.02-.02-.03-.04-.03-.05-.1-.12-.15-.15-.14-.07-.28-.05-.4.05-.03.03-.06.05-.06.05,0,0-.04-.03-.08-.05l-.07-.05v-.36c-.01-.33-.02-.75-.04-1.27,0-.11,0-.31,0-.43,0-.23,0-.71-.02-1.11-.01-.22-.01-.92,0-1.06.01-.14.02-.22.04-.22,0,0,.07-.02.14-.03.2-.04.29-.08.37-.15l.05-.04v.05c0,.05,0,.06-.05.06-.01,0-.05.01-.08.03-.07.03-.12.09-.15.17-.02.05-.03.06-.02.13,0,.06,0,.08.03.13.05.09.12.15.23.18.06.01.12,0,.2-.04l.05-.03.03.02s.05.04.08.06c.04.04.04.04.03.06,0,.01-.01.05-.01.07,0,.1.06.19.15.24.03.02.06.02.1.02.08,0,.13-.02.18-.08.07-.08.09-.17.04-.27-.05-.09-.12-.14-.22-.14-.05,0-.07,0-.12.03-.03.02-.06.03-.06.02-.02,0-.13-.09-.14-.1,0,0,0-.03.02-.05.03-.06.04-.17.01-.24-.01-.04-.03-.06-.08-.11-.04-.04-.07-.07-.1-.07-.02,0-.04-.02-.04-.02,0,0,0-.05,0-.11v-.1s.06-.05.06-.05c.03-.03.08-.08.12-.11.32-.26.57-.53.61-.64.01-.04.01-.19,0-.29-.02-.1.02-.27.07-.32.02-.02.03-.03.09-.03.04,0,.09,0,.12.02.08.02.21.09.3.15.04.03.17.11.21.13.02,0,.17.1.34.2.55.33.87.51,1.13.61.05.02.1.04.1.05,0,0,.05.09.11.18.05.09.1.18.11.2Zm2.09-4.66s-.03.02-.12.03c-.19,0-.42-.04-.77-.17-.21-.08-.29-.11-.39-.14-.12-.04-1.15-.29-1.22-.3-.04,0-.1-.01-.14-.02-.09-.01-.19-.02-.27-.03-.04,0-.1-.01-.14-.02-.04,0-.09-.01-.11-.01h-.04v-.19c0-.1,0-.24.01-.3,0-.06.01-.14.02-.19,0-.04.01-.12.02-.17,0-.05.01-.13.02-.18,0-.08,0-.09.04-.13.05-.06.13-.19.17-.27.02-.04.04-.07.04-.07,0,0,.01.02.02.04.03.11.04.16.06.23.09.27.27.46.55.6.11.05.12.06.2.08.07.02.15.03.29.04.22.02.27.03.32.04.03,0,.12,0,.19,0,.14,0,.21-.01.31-.04.02,0,.03,0,.06.01.1.07.21.2.35.39.08.11.2.24.44.5.12.12.14.19.1.25Zm1.35-11.79c-.04.17-.06.36-.06.55,0,.17-.01.25-.05.32-.02.05-.07.09-.1.09-.09,0-.31-.22-.47-.49-.06-.1-.16-.29-.2-.41-.02-.05-.04-.11-.05-.12-.02-.03-.02-.03-.03-.01-.03.05-.03.51,0,.64.06.27.21.55.41.72.06.06.09.1.11.19.04.17.03.25-.06.53-.05.14-.09.37-.09.44,0,.02,0,.06-.01.09-.03.15-.06.17-.38.21-.23.03-.39.05-.47.07-.06.02-.29.01-.35,0-.09-.03-.16-.09-.2-.19l-.03-.06v-.25c-.01-.27-.02-.4-.06-.62-.04-.27-.07-.53-.07-.63,0-.08.02-.26.05-.35.05-.22.11-.35.24-.63.09-.18.14-.32.21-.54.11-.38.23-.72.28-.79.02-.03.09-.08.1-.08.01,0,.16-.09.22-.14.11-.08.26-.24.34-.36.14-.22.22-.42.25-.7,0-.07,0-.11,0-.2-.01-.16-.01-.33,0-.38.02-.05.04-.11.08-.2.02-.04.05-.11.07-.16.07-.15.28-.58.36-.71.19-.34.34-.56.44-.66.02-.02.04-.03.05-.02.22.06.35.08.51.08.25,0,.44-.07.63-.23.22-.19.39-.5.46-.89,0-.03.01-.07.02-.1.04-.22.06-.6.06-.9,0-.12,0-.23-.01-.26v-.04s.12-.15.12-.15c.35-.42.74-.83,1.09-1.14.77-.7,1.34-1.12,2.17-1.6.07-.04.13-.08.13-.08s.03-.01.05-.03c.13-.07.41-.22.79-.4.13-.06.18-.1.26-.18s.1-.1.19-.13c.08-.03.17-.03.23,0,.06.02.15.09.24.16.13.11.21.16.35.2.18.05.3.07.58.07.19,0,.21,0,.25.03.02.01.04.02.04.03,0,.02-.09.1-.14.13-.05.03-.22.11-.33.16-.03.02-.09.04-.12.05-.03.01-.08.04-.11.05-.03.01-.08.04-.11.05-.03.01-.12.06-.19.09-.08.04-.19.09-.26.12-.17.08-.84.42-1,.5-.15.08-.31.16-.38.2-.02.01-.08.04-.13.07-.62.33-1.43.83-1.8,1.1-.31.24-.52.43-.6.57-.05.09-.14.27-.17.35-.02.06-.02.08,0,.08,0,0,.07-.06.14-.13.27-.26.46-.42.78-.65.31-.22.81-.53,1.2-.75.03-.01.08-.04.11-.06.16-.09.28-.15.56-.29.33-.17.47-.23.78-.37.03-.01.08-.04.11-.05.14-.07.49-.22.65-.28.06-.02.13-.05.15-.06.05-.02.4-.16.58-.23.1-.04.19-.07.34-.13.2-.08.26-.1.39-.11.05,0,.08,0,.13,0,.15.03.28.13.35.26.06.11.11.31.12.5.01.16-.01.27-.09.39-.08.14-.17.2-.43.3-.31.12-.69.27-.83.34-.02,0-.06.03-.1.04-.04.02-.1.04-.14.06-.04.02-.11.05-.15.07-.33.16-.74.38-1.1.62-.63.41-1.08.87-1.3,1.28-.03.05-.06.12-.07.15-.01.03-.04.07-.05.09-.02.02-.03.02-.08.02-.2,0-.39.09-.45.22-.03.06-.03.16-.01.24,0,.03.01.06.01.07,0,0-.14.12-.3.25-.63.49-1.85,1.52-2.21,1.85-.27.25-1.12,1.1-1.32,1.33-.64.71-1.01,1.32-1.14,1.88Zm6.9,10.65l.06.11-.02.02c-.06.05-.12.11-.14.15-.02.03-.02.06-.02.13,0,.08,0,.09.02.13.01.03.04.07.07.1.05.05.06.07.04.08,0,0-.06.11-.14.27-.03.05-.08.15-.12.22-.04.07-.08.14-.09.16-.02.05-.03.05-.07.05-.08,0-.13.05-.14.13,0,.05,0,.06-.05.07-.02,0-.09.02-.16.04-.07.02-.17.05-.21.06-.04.01-.08.02-.1.03-.02,0-.24.06-.39.1-.04,0-.09.02-.11.03-.05.01-.06.01-.08-.02-.04-.09-.13-.12-.23-.09-.02,0-.04.01-.04.01,0,0-.1-.17-.18-.3-.01-.02-.01-.02.03-.07.07-.08.1-.14.1-.25,0-.07,0-.08-.03-.14-.03-.07-.09-.12-.16-.16-.05-.02-.06-.02-.15-.02h-.1v-.04c-.08-.21-.17-.41-.3-.69-.24-.49-.49-.89-.98-1.63-.38-.57-.47-.71-.63-.91-.16-.21-.16-.21-.14-.2,0,0,.06.04.12.08.19.14.51.35.71.46.04.03.11.06.14.08.04.02.07.04.07.04,0,0,.02.01.05.02.04.02.11.06.25.14.07.04.54.27.6.3.02,0,.06.03.11.05.04.02.12.05.18.08.06.03.13.06.15.07.02.01.05.02.05.02,0,0,.02,0,.04.02.13.06.73.3,1.02.4.06.02.12.04.14.05.05.02.2.07.37.13.07.02.13.05.13.05,0,0,.02.04.04.09.05.12.21.45.28.57Zm1-.52s-.05-.01-.08-.02c-.08-.02-.27-.07-.37-.1-.05-.01-.13-.04-.17-.05-.05-.01-.12-.03-.17-.05-.05-.01-.12-.04-.17-.05-.05-.01-.1-.03-.11-.03-.01,0-.07-.02-.14-.04-.16-.05-.48-.15-.6-.2-.05-.02-.11-.04-.12-.04-.03-.01-.24-.09-.41-.15-.2-.08-.5-.2-.63-.25-.02,0-.06-.03-.1-.04-.04-.02-.1-.04-.14-.06s-.1-.05-.13-.06c-.08-.03-.45-.22-.53-.27-.16-.09-.25-.14-.42-.24-.89-.53-1.41-.92-1.92-1.46-.25-.26-.3-.33-.47-.69-.12-.25-.17-.36-.27-.56-.23-.46-.36-.71-.37-.75-.11-.25-.24-.66-.24-.77,0-.05.01-.05.08,0,.1.06.51.36.97.71.06.04.15.11.2.15.09.07.17.13.28.21.03.02.12.09.21.16.28.21.73.57,1.21.94.4.31.78.62,1.53,1.21.66.52,1,.8,1.93,1.53.54.43,1.01.81,1.05.84.18.14.21.17.13.15Zm4.15.76c-.19,0-.35,0-.63-.06-.06-.01-.62-.1-.69-.11-.03,0-.08-.01-.1-.02-.04,0-.11-.02-.23-.04-.05,0-.11-.02-.15-.03-.03,0-.11-.02-.16-.03-.06,0-.12-.02-.14-.03-.02,0-.09-.02-.14-.03-.05,0-.12-.02-.14-.03-.02,0-.09-.02-.14-.03-.05-.01-.11-.02-.12-.02-.01,0-.09-.06-.17-.13-.29-.24-.47-.37-.95-.73-.37-.27-.4-.3-.86-.64-1.38-1.02-1.92-1.43-2.19-1.67-.16-.14-.51-.43-.85-.69-.14-.11-.6-.46-.7-.55-.05-.04-.11-.08-.14-.11-.03-.02-.08-.06-.11-.09-.04-.03-.09-.07-.11-.09-.03-.02-.12-.09-.2-.16-.08-.06-.22-.17-.3-.23-.08-.06-.24-.18-.35-.27-.35-.26-.45-.34-.45-.36,0-.03.11-.04.24-.02.28.04.6.13,1.09.32.15.06.68.27.81.33.02,0,.08.03.13.05.13.05.23.1.33.14.04.02.08.04.08.04,0,0,.04.02.1.04.05.02.09.04.1.04,0,0,.05.02.1.05.05.03.12.06.15.07.03.01.09.04.15.07.06.03.14.07.19.09.05.02.16.08.24.12.08.04.2.1.27.13.2.1,1.66.82,1.85.92.2.1.4.21.48.25.03.02.08.04.11.06.39.21.98.64,1.66,1.2.27.22.65.56.85.74.63.58,1.47,1.36,1.47,1.38,0,.03-.15.07-.35.08Zm2.02-2.28c-.11.14-.19.3-.24.45-.05.15-.06.2-.06.38,0,.18,0,.17-.07.2-.29.1-.62.33-.77.53-.03.04-.05.07-.05.07,0,0-.21-.12-.29-.18-.11-.07-.22-.18-.25-.24-.01-.03-.02-.06-.02-.11,0-.08.04-.16.13-.27.12-.14.18-.22.22-.3.09-.19.13-.37.13-.67,0-.25.03-.41.1-.51.03-.04.06-.06.12-.08.06-.02.12-.01.24.04.06.03.15.06.19.07.08.03.13.05.29.12.24.12.49.26.49.29,0,.01-.04.07-.14.2Zm1.05-2.54c-.18.49-.26.78-.3,1.2-.02.18,0,.36.04.5.01.05.02.09.02.1,0,.02-.07.07-.12.09-.03.02-.05.01-.16-.03-.15-.07-.25-.11-.61-.29-.43-.22-.6-.31-.83-.44-.16-.09-.18-.1-.21-.19-.05-.13-.13-.37-.17-.51,0-.02-.01-.06-.02-.07,0-.02-.01-.06-.02-.11,0-.04-.01-.09-.02-.12-.02-.08,0-.31,0-.41.05-.23.17-.36.37-.41.04,0,.07-.02.07-.02.03,0,.29,0,.36,0,.38.06.74.16,1.26.37.17.07.34.15.35.16,0,0,0,.06-.05.16Zm.82-2.27c-.08.09-.13.16-.21.29-.06.1-.14.27-.17.34-.06.19-.13.58-.13.78,0,.11-.01.16-.05.16-.02,0-.14-.02-.45-.1-.18-.05-.23-.06-.28-.08-.1-.03-.12-.03-.15-.04-.02,0-.04-.01-.06-.02-.02,0-.04-.01-.06-.02-.02,0-.04-.01-.06-.02-.02,0-.04-.01-.06-.02-.05-.01-.26-.08-.32-.1-.03,0-.08-.03-.11-.04-.06-.02-.21-.07-.23-.07-.16-.06-.3-.11-.43-.17-.04-.02-.07-.03-.07-.03-.01,0-.4-.19-.47-.23-.04-.02-.08-.04-.08-.04,0,0-.21-.13-.26-.17-.08-.06-.11-.09-.13-.16-.04-.1-.05-.3-.04-.43,0-.06.02-.16.04-.33,0-.05.01-.12.02-.14.03-.1.21-.2.41-.22.06,0,.35,0,.4.01.03,0,.08.01.11.02.15.02.53.1.73.14.02,0,.05.01.07.02.02,0,.05.01.08.02.02,0,.06.01.08.02.02,0,.06.01.08.02.02,0,.06.01.08.02.02,0,.06.01.08.02.02,0,.06.01.07.02.02,0,.05.01.08.02.02,0,.06.01.08.02.13.03.21.05.29.07.04,0,.08.02.09.03.01,0,.06.02.09.03.04,0,.08.02.1.03.07.02.09.03.23.07.08.02.25.07.38.11.23.07.28.09.28.11,0,0-.03.05-.07.09Z"/>
        <path class="cls-1" d="m78.15,2.34c.05,0,.12.01.16.02.05,0,.07,0,.08.02.03.04.03.04-.19.28-.11.13-.13.16-.05.08.06-.06.17-.16.25-.23.05-.04.05-.04.08-.03.01,0,.03.02.03.03,0,.03.02.16.03.27.02.24.03.32.04.59,0,.16.01.29.01.29,0,0,0-.08,0-.18,0-.35.03-.64.06-.89.01-.1.01-.1.04-.11.03-.01.03-.01.24.18.06.06.12.1.12.1,0,0-.02-.03-.06-.07-.04-.04-.1-.12-.15-.17l-.09-.1.02-.03s.02-.03.14-.04c.24-.02.47-.04.68-.05.07,0,.19,0,.26-.01h.13s-.18,0-.18,0c-.26,0-.69-.03-.94-.06-.07,0-.08-.01-.09-.03-.01-.02-.01-.03.05-.11.04-.04.11-.12.16-.18.05-.05.09-.1.09-.1,0,0-.04.03-.08.07-.09.08-.27.24-.28.24,0,0-.01,0-.03-.01-.03-.01-.02,0-.05-.21-.02-.25-.04-.47-.05-.78,0-.1,0-.19,0-.19,0,0,0,.13-.01.29-.01.33-.02.47-.06.78v.1s-.04.01-.04.01h-.03s-.06-.03-.06-.03c-.03-.03-.11-.09-.17-.15-.06-.06-.12-.1-.12-.1,0,0,.05.06.1.12.06.06.12.14.15.17.04.05.04.05.03.08-.02.03-.04.03-.25.05-.13.01-.6.05-.62.04,0,0-.08,0-.17,0h-.17s.14,0,.14,0c.52.03.65.03.83.05Z"/>
        <path class="cls-1" d="m74.25,9.08s.08-.01.11-.05l.03-.02.21.06c.3.09.39.12.7.22l.28.09.02.05c.03.08.05.09.13.09.06,0,.09-.02.11-.05t.13,0s.12.02.23.04c.11.02.21.04.24.04.03,0,.08.01.12.02.04,0,.08.01.1.01.1.02.52.07.66.08.04,0,.07,0,.07.01,0,0,.01.02.02.03.01.02.04.04.06.05.04.02.05.03.11.03.07,0,.1,0,.15-.04.01,0,.03,0,.07.01.18.07.46.17.65.22.1.03.18.05.23.06.02,0,.06.01.07.02.05.01.33.07.37.07.04,0,.04.01.07.08.03.07.07.11.13.13.06.02.08.02.14,0h.04s.03.03.03.03c.02.02.07.08.12.14l.08.1-.03.05s-.03.06-.03.13,0,.08.03.14c.09.2.35.26.52.13.01-.01.03-.02.03-.02,0,0,.02.03.04.05.02.03.07.1.12.16l.08.11-.03.05s-.03.06-.03.12c0,.08.02.13.08.17.1.08.23.07.32-.04l.04-.04.07.02s.08.02.1.03c.02,0,.05.01.06.02.17.04.21.05.27.06.13.03.29.05.38.06.05,0,.05,0,.09.05.05.06.11.08.19.06.14-.03.19-.21.09-.32-.04-.04-.06-.05-.13-.05-.05,0-.07,0-.1.02-.04.02-.07.07-.08.12,0,.02-.07.02-.21,0-.06,0-.13-.02-.17-.03-.04,0-.08-.01-.1-.02-.02,0-.06-.01-.1-.02-.03,0-.08-.01-.1-.02-.02,0-.06-.01-.09-.02-.1-.02-.14-.03-.15-.04,0,0-.01-.03-.02-.06-.01-.1-.05-.15-.14-.19-.04-.02-.07-.02-.14,0-.02,0-.03,0-.13-.13-.06-.08-.12-.16-.14-.18l-.03-.04.02-.05s.02-.07.01-.11c-.01-.13-.07-.22-.2-.28-.07-.03-.08-.04-.15-.04-.07,0-.08,0-.14.03l-.07.03-.1-.1c-.13-.14-.13-.13-.1-.2.02-.04.03-.07.03-.11,0-.1-.03-.16-.11-.21l-.04-.03v-.06s.01-.07.02-.08c0-.04.03-.37.04-.59,0-.06,0-.12.01-.13,0,0,.02-.01.03-.02.04,0,.07-.05.08-.1.01-.04.01-.05,0-.09,0-.02-.02-.05-.03-.06l-.02-.02.02-.04s.04-.07.06-.12c.02-.04.08-.15.13-.24.05-.09.09-.17.1-.18.01-.01.02-.02.04,0,.04.01.09.01.15,0,.07-.02.08-.02.12-.05.13-.1.17-.27.11-.41-.01-.03-.04-.07-.06-.09-.03-.03-.03-.04-.02-.05.01-.02.12-.36.16-.47.02-.05.03-.1.04-.11,0-.02.05-.17.07-.25,0-.03.02-.07.03-.1.04-.16.09-.33.13-.49.05-.19.05-.21.09-.4.02-.1.04-.2.05-.22,0-.02.02-.07.03-.12.01-.05.02-.1.03-.12,0-.02.02-.09.03-.17.02-.07.03-.15.04-.17,0-.02.01-.06.02-.1,0-.04.02-.1.03-.15,0-.05.02-.1.03-.12,0-.02.02-.08.03-.12.01-.05.02-.11.03-.15.03-.13.03-.14.1-.14.05,0,.13-.04.18-.1.07-.07.08-.1.08-.21,0-.08,0-.09-.02-.14-.03-.07-.09-.13-.15-.15-.05-.02-.15-.03-.21-.02-.05,0-.09.03-.13.07-.07.06-.11.15-.11.26,0,.06,0,.08.03.13.03.07.07.11.13.13.02.01.04.02.04.03,0,.01,0,.04-.03.14-.07.24-.14.54-.21.85-.03.15-.05.24-.06.27,0,.02-.02.08-.03.12,0,.05-.02.11-.03.15,0,.04-.02.08-.02.1,0,.02-.02.07-.03.12-.02.09-.03.12-.04.2,0,.02-.01.06-.02.08-.02.09-.03.11-.04.18-.04.16-.06.24-.07.29,0,.03-.02.08-.03.13-.06.23-.08.29-.15.53-.07.22-.07.21-.1.2-.03,0-.19,0-.22,0-.02,0-.03-.02-.2-.44-.1-.24-.19-.47-.21-.5l-.03-.06.04-.04c.06-.06.08-.12.08-.21,0-.09,0-.17-.04-.22-.03-.05-.1-.11-.14-.14-.05-.02-.16-.03-.21-.01-.02,0-.05,0-.05,0,0,0-.07-.07-.14-.15-.18-.19-.65-.67-.86-.86-.09-.08-.17-.16-.17-.16,0,0,0-.03.02-.06.02-.06.02-.08,0-.13-.03-.13-.21-.17-.29-.07-.06.07-.06.16-.02.23.03.05.08.07.16.07h.07s.44.46.44.46c.24.25.5.52.58.59l.13.14-.03.05c-.06.08-.07.1-.07.22,0,.1,0,.1.02.16.03.06.08.12.15.15.04.02.06.03.14.03.05,0,.1,0,.11,0,.01,0,.02,0,.04.07.02.04.06.15.09.24.07.18.11.29.21.53.04.1.07.18.07.18s-.01.02-.03.04c-.08.07-.11.2-.08.31.02.07.04.11.08.15l.04.04-.05.11c-.05.1-.13.27-.13.28,0,0-.01.03-.03.06-.01.03-.03.06-.03.06,0,0,0,.03-.02.05-.02.04-.03.05-.05.05-.03,0-.09.03-.1.04,0,.02-.05.01-.16-.02-.06-.01-.15-.04-.22-.06-.15-.04-.3-.08-.37-.1-.03,0-.11-.03-.16-.04-.13-.04-.27-.08-.3-.09-.02,0-.02-.02-.03-.07-.02-.11-.09-.2-.19-.23-.07-.03-.2-.02-.26,0-.06.03-.12.09-.14.15-.02.04-.02.06-.02.13,0,.07,0,.09.02.12.02.05.07.1.12.13.02.01.04.03.04.04,0,0,0,.06-.02.11-.02.1-.03.13-.05.2,0,.02-.02.08-.03.12,0,.04-.02.09-.03.11-.02.11-.02.1-.09.11-.09.02-.14.06-.16.12-.02.05-.02.05-.07.05-.02,0-.06,0-.09-.01-.05,0-.13-.02-.25-.03-.04,0-.1-.01-.13-.02-.03,0-.09-.01-.14-.02-.04,0-.11-.01-.14-.02-.11-.01-.31-.04-.44-.05-.25-.03-.27-.03-.27-.05,0,0,0-.03-.01-.05v-.03s.11-.13.11-.13c.1-.11.2-.22.32-.37.03-.03.04-.04.07-.04.05,0,.1-.04.11-.09.02-.05,0-.09-.03-.15-.02-.03-.02-.04-.01-.08.02-.1.02-.17.03-.24.03-.21.04-.32.05-.44.02-.21.02-.21.06-.26.04-.05.05-.09.05-.15-.01-.08-.07-.13-.16-.13h-.05l-.07-.1c-.04-.06-.11-.17-.17-.24-.06-.08-.11-.15-.12-.16,0-.01,0-.02,0-.04.02-.05,0-.14-.05-.17-.06-.04-.14-.04-.2.01l-.03.03-.19-.12c-.22-.14-.59-.38-.77-.5l-.12-.08v-.04c0-.09-.07-.14-.15-.1-.06.03-.07.12-.02.17.02.02.03.02.07.02.05,0,.06,0,.12.05.03.03.09.07.13.09.08.06.53.36.63.42.31.19.29.18.31.22,0,.02.02.05.03.06.03.04.11.05.16.03.02,0,.02,0,.07.08.07.12.16.26.23.34.07.09.07.09.05.11-.03.03-.03.14,0,.18.02.03.07.07.1.08.03,0,.03.01.03.05,0,.02,0,.08-.01.13-.05.37-.06.5-.07.64,0,.11,0,.11-.08.13-.05.01-.08.05-.09.1-.01.04,0,.05,0,.09l.02.05-.03.04s-.18.21-.31.37l-.1.13h-.05s-.06,0-.09.02c-.03.02-.04.02-.06.01-.01,0-.11-.04-.22-.08-.22-.07-.29-.1-.56-.17-.07-.02-.3-.07-.35-.08-.05,0-.06-.02-.06-.06,0-.09-.12-.14-.2-.09-.12.06-.07.26.06.26Zm3.44.3s.04-.15.07-.27c.02-.07.05-.2.06-.27.01-.07.02-.08.05-.08.02,0,.05,0,.07-.01.09-.03.16-.09.2-.17.01-.03.02-.05.02-.05,0,0,.05.02.12.04.06.02.16.05.21.07.05.01.1.03.11.04.02,0,.09.03.24.07.02,0,.06.02.09.02.03,0,.13.03.23.06.09.02.17.04.18.05,0,0,.02.02.02.03,0,.03.01.05.05.09l.03.03v.13c-.02.41-.04.69-.05.72,0,.02-.02.02-.03.02-.06,0-.13.05-.17.12,0,.02-.02.04-.02.04,0,0-.21-.04-.28-.05-.03,0-.09-.02-.13-.03-.18-.04-.54-.14-.62-.17-.01,0-.06-.02-.11-.03-.17-.05-.23-.07-.24-.08,0,0,0-.03,0-.06,0-.06-.02-.11-.07-.16l-.03-.03v-.04Z"/>
        <path class="cls-1" d="m76.02,5.04s.01,0,.02-.02c.02-.02.17-.15.24-.21.04-.03.05-.03.05,0,0,.02,0,.05.01.06.01.02.01.02.02-.03,0-.03,0-.06.01-.06.01,0,.13.09.21.16.03.03.06.05.06.05,0,0-.04-.05-.09-.11-.11-.13-.13-.16-.12-.17,0,0,.05-.01.09-.01.08,0,.08,0,.03-.01-.08,0-.11,0-.12-.02-.01,0,.04-.08.15-.2.05-.05.08-.1.08-.1,0,0-.04.03-.09.07-.13.12-.2.17-.21.17,0,0-.01-.02-.01-.06,0-.03,0-.05,0-.04,0,0,0,.02-.01.03,0,0,0,.02,0,.04,0,.02,0,.03-.01.03-.01,0-.13-.09-.21-.17-.03-.03-.06-.05-.06-.05,0,0,.02.03.04.06.02.03.07.09.11.13.07.08.07.1.03.1-.01,0-.02,0-.03,0,0,0-.03,0-.06,0-.06,0-.05,0,.04.01.05,0,.07.01.07.02,0,.01-.02.05-.15.2-.05.06-.09.11-.09.11Z"/>
        <path class="cls-1" d="m83.16,8.26s.06.02.15.02.1,0,.15-.03c.14-.07.22-.25.16-.42-.05-.15-.14-.22-.3-.23-.06,0-.08,0-.12.01-.1.03-.15.09-.19.18-.02.04-.02.06-.02.14,0,.05,0,.11,0,.12.04.1.08.15.16.19Z"/>
        <path class="cls-1" d="m81.41,8.66s0,0,0,.06c0,.1-.01.12-.03.12,0,0-.24-.19-.3-.26-.03-.03-.07-.06-.07-.05,0,0,.02.03.05.06.07.07.17.19.22.25.05.06.05.08-.02.09-.03,0-.08,0-.1.01-.05,0-.05,0,.05,0,.08,0,.1,0,.11.02,0,0,.01.02,0,.02-.02.02-.15.18-.23.27-.05.05-.09.1-.09.1,0,0,.05-.04.11-.1.16-.14.26-.22.28-.22.02,0,.03.05.03.15v.07s.01-.1.01-.1c.01-.11.02-.12.03-.12.01,0,.18.14.3.25.04.04.08.07.08.06,0,0-.02-.03-.04-.05-.07-.07-.25-.28-.26-.3-.02-.04,0-.05.11-.05.09,0,.09,0,.05,0-.03,0-.07-.01-.11-.01-.04,0-.06-.01-.06-.02,0-.02.13-.18.29-.35.05-.06.02-.03-.08.05-.14.13-.27.23-.28.23-.01,0-.02-.01-.03-.07,0-.04-.01-.09-.01-.11Z"/>
        <path class="cls-1" d="m82.42,10.46c.06,0,.07,0,.11-.03.06-.03.09-.07.11-.13.04-.13,0-.25-.1-.32-.04-.02-.05-.03-.11-.03-.05,0-.08,0-.1,0-.05.02-.08.05-.11.09-.04.05-.04.09-.04.16,0,.05,0,.07.03.12.04.09.12.13.23.13Z"/>
        <path class="cls-1" d="m75.69,11.66c-.05.06-.09.1-.09.11,0,0,.02-.01.04-.03.15-.14.33-.29.35-.29.02,0,.03.04.03.16,0,.09,0,.09.02-.06,0-.09.01-.1.03-.1.02,0,.13.09.32.25.04.04.08.07.08.07,0,0-.03-.04-.07-.08-.14-.15-.25-.29-.25-.31,0-.02.01-.02.08-.02.07,0,.08,0,.07-.01,0,0-.03-.01-.07-.01-.07,0-.09,0-.06-.05.02-.03.13-.16.22-.27.04-.05.08-.09.07-.09,0,0-.06.04-.11.1-.16.14-.24.21-.26.21-.02,0-.02,0-.03-.1-.01-.14-.02-.14-.02-.05,0,.1,0,.15-.02.16-.02,0-.21-.16-.36-.29-.03-.03-.05-.05-.05-.04,0,0,.05.06.1.12.11.12.24.28.24.29,0,.02-.03.03-.08.03-.04,0-.06,0-.07.01-.02.01-.01.01.06.01.09,0,.11.01.08.05-.02.03-.12.15-.22.26Z"/>
        <path class="cls-1" d="m77.77,13.21s0-.03.01-.03c0,0,.08,0,.17-.01.49-.02.76-.04.65-.04-.02,0-.06,0-.09,0-.19-.01-.47-.02-.59-.03-.08,0-.15,0-.15-.01,0,0-.01-.02-.01-.02,0-.03-.04-.13-.06-.18l-.03-.05.28-.31c.27-.3.34-.38.26-.31-.19.17-.57.52-.58.53,0,.01-.04,0-.06,0-.02-.02-.12-.06-.17-.08-.03,0-.05-.01-.06-.01,0,0-.01-.05-.02-.14,0-.13-.01-.28-.03-.61,0-.06,0-.11,0-.11,0,0,0,.03,0,.07,0,.07-.02.28-.03.61,0,.2,0,.19-.07.19-.04,0-.14.04-.19.07-.02.01-.04.02-.04.02s-.15-.13-.32-.28c-.17-.15-.31-.28-.31-.28,0,0,.12.14.27.31.15.17.28.31.28.31,0,0,0,.02-.02.04-.03.04-.07.14-.08.19v.04s-.13,0-.13,0c-.07,0-.22.01-.34.02-.12,0-.23.01-.26.01-.02,0-.07,0-.09,0h-.05s.06.01.06.01c.06,0,.39.02.62.03.18,0,.17,0,.17.07,0,.07.03.14.07.21l.03.05-.03.04s-.3.33-.49.54c-.06.07.03-.01.28-.24.15-.13.27-.25.28-.26.02-.01.02-.01.05,0,.08.06.18.09.23.09s.06,0,.06.15c.01.31.03.55.03.61v.06s0-.05,0-.05c0-.03,0-.08,0-.1,0-.03,0-.14.01-.24.02-.38.02-.41.03-.41,0,0,.03,0,.06-.01.06-.02.13-.05.18-.08.02-.02.05-.03.05-.03,0,0,.14.12.3.27.16.15.3.27.3.26,0,0-.12-.14-.27-.31-.15-.17-.27-.31-.27-.31,0,0,0-.03.02-.05.03-.06.06-.16.06-.21Z"/>
        <path class="cls-1" d="m79.54,15.17c.05.01.07,0,.12,0,.12-.03.18-.08.23-.18.02-.05.02-.06.02-.15s0-.1-.03-.15c-.03-.06-.09-.13-.13-.15-.07-.04-.18-.05-.26-.03-.06.02-.11.05-.15.09-.1.11-.12.27-.05.41.05.09.12.15.24.17Z"/>
        <path class="cls-1" d="m69.92,16.27c.1-.02.16-.06.21-.13.05-.07.06-.12.06-.22,0-.07,0-.09-.03-.14-.07-.15-.22-.22-.39-.18-.02,0-.06.02-.07.02-.19.1-.23.4-.07.56.07.07.18.11.29.09Z"/>
        <path class="cls-1" d="m68.54,17.38c.08,0,.11,0,.17-.04.12-.09.14-.29.03-.4-.05-.05-.15-.08-.23-.06-.08.02-.14.07-.17.14-.03.06-.02.17,0,.23.04.08.1.12.2.13Z"/>
        <path class="cls-1" d="m66.71,25.79c.08-.04.13-.08.16-.16.03-.06.03-.07.03-.15,0-.1-.01-.09.13-.13.19-.05.31-.07.42-.1.06-.01.14-.03.18-.04.03,0,.07-.01.07-.01,0,0,.02.02.02.04,0,.02.03.04.05.06.03.02.04.03.09.03.05,0,.07,0,.09-.02.03-.02.06-.08.06-.11,0-.02.03-.03.09-.04.09-.01.35-.07.43-.1.01,0,.07-.02.13-.03.06-.02.13-.04.16-.04.03,0,.09-.02.13-.03.04-.01.1-.03.13-.04.03,0,.09-.02.13-.03.04-.01.1-.03.13-.04.03,0,.06-.02.07-.02,0,0,.04.03.07.06.07.08.14.11.25.11.09,0,.16-.03.22-.09.03-.03.06-.07.07-.1.02-.04.02-.06.02-.14v-.09s.09-.06.09-.06c.25-.18.47-.35.68-.56l.11-.1.04.02c.08.03.16,0,.21-.06.02-.03.03-.05.03-.1v-.06s.13-.09.13-.09c.12-.09.43-.35.5-.41.03-.03.04-.03.11-.04.09,0,.14-.03.18-.1.02-.04.03-.06.03-.11,0-.13-.08-.21-.2-.21-.02,0-.05,0-.06,0,0,0-.06-.06-.11-.12-.07-.08-.09-.11-.09-.12,0,0,0-.03,0-.05,0-.02,0-.04.01-.05,0-.02,0-.02,0-.03,0,0-.02-.03-.03-.05l-.02-.03.05-.05s.07-.08.1-.12c.03-.04.06-.07.05-.07,0,0-.02.01-.05.04-.08.08-.2.18-.21.17,0,0-.02-.05-.04-.11-.02-.05-.04-.12-.05-.14,0-.02-.06-.15-.12-.29-.1-.26-.21-.52-.22-.55-.02-.05-.33-.81-.38-.93-.04-.1-.15-.41-.18-.49-.01-.04-.04-.1-.05-.14-.1-.28-.21-.56-.25-.66-.02-.05-.05-.12-.07-.16l-.03-.07.03-.03c.07-.07.05-.2-.02-.25-.02-.02-.04-.02-.08-.02h-.05l-.06-.06s-.06-.07-.06-.08c0,0,.02-.03.03-.05.04-.05.04-.09.04-.18,0-.11-.02-.15-.1-.23-.08-.08-.12-.09-.24-.09-.08,0-.09,0-.14.02-.06.03-.14.11-.17.16-.02.03-.02.06-.02.13,0,.08,0,.09.02.14.01.03.03.06.04.08.02.03.02.03,0,.06-.02.04-.02.05-.07.06-.05.01-.11.07-.13.11-.02.05,0,.12.03.16.03.04.03.05,0,.18,0,.06-.02.14-.03.18,0,.04-.01.1-.02.13,0,.03-.01.09-.02.14,0,.05-.01.13-.02.17,0,.04-.01.11-.02.15,0,.04-.01.12-.02.17,0,.05-.01.13-.02.17,0,.04-.01.12-.02.17,0,.05-.01.13-.02.17,0,.04-.01.12-.02.17,0,.05-.01.13-.02.17,0,.04-.01.11-.02.16,0,.05-.01.12-.02.16,0,.06-.01.1-.03.31,0,.04-.01.11-.02.15,0,.04-.01.12-.02.17,0,.05-.01.12-.02.16-.02.15-.04.45-.05.6,0,.06,0,.14-.01.18v.07s-.04.02-.04.02c-.06.03-.07.05-.07.13v.07l-.08.12c-.14.22-.22.36-.33.53-.06.1-.12.19-.13.22l-.03.05h-.06c-.08,0-.13.03-.16.08-.03.05-.03.1,0,.16.01.02.02.05.01.05,0,0-.03.02-.05.04-.12.1-.72.6-.79.67-.02.01-.03.02-.07.02-.09,0-.13.04-.13.13,0,.05,0,.05-.04.1-.02.03-.07.1-.11.16-.03.06-.07.11-.07.11,0,0-.02,0-.04-.01-.07-.03-.11-.04-.19-.04-.06,0-.09,0-.13.03-.14.07-.21.21-.19.36.01.07.03.11.09.17.11.11.25.14.39.08Zm5.12-3.16s.06.06.04.06c-.01,0-.09-.08-.11-.11-.01-.02.02,0,.07.05Zm-4.9,2.46c.06-.08.11-.15.12-.16,0,0,.03,0,.05,0,.09,0,.12-.04.12-.14v-.06s.15-.11.15-.11c.27-.2.46-.35.67-.54.08-.08.1-.09.13-.09.03,0,.08-.03.1-.05,0-.01.02-.04.03-.06.01-.04.01-.05,0-.08,0-.02-.02-.04-.02-.06-.01-.02,0-.03.12-.22.07-.11.15-.23.18-.27.02-.04.09-.14.14-.22.05-.09.11-.17.12-.18.01-.02.03-.02.07-.02.06,0,.1-.02.12-.06.04-.07.02-.13-.03-.18-.04-.04-.05-.06-.03-.14,0-.02.01-.08.02-.12,0-.04.01-.11.02-.14.01-.08.02-.2.04-.31,0-.05.01-.12.02-.17,0-.04.01-.12.02-.18,0-.06.01-.14.02-.19,0-.05.01-.13.02-.19.02-.25.05-.5.07-.69,0-.04.01-.11.02-.15,0-.04.01-.11.02-.15,0-.04.02-.13.03-.21.02-.19.03-.28.04-.36,0-.03.01-.1.02-.14,0-.05.01-.11.02-.15.01-.09.02-.22.03-.34,0-.06.01-.14.02-.19v-.09s.07-.01.07-.01c.12-.03.18-.13.13-.24-.01-.02-.03-.05-.05-.07-.03-.03-.03-.04-.02-.06,0-.02.02-.02.08,0,.08.04.17.04.28,0,.03-.01.06-.02.06-.01,0,0,.03.04.05.07.04.05.05.06.04.08-.02.03-.03.09-.02.13.01.06.06.11.12.12.02,0,.04.01.05.02,0,0,.03.08.06.16.06.18.1.3.2.57.02.05.12.31.23.58.18.46.28.71.38.96.15.4.38.94.45,1.11.04.09.04.11.02.12-.01,0-.03.01-.03.01-.01,0-.11-.08-.23-.19-.04-.03-.07-.06-.07-.06,0,0,.01.02.04.05.08.08.2.23.21.24,0,0,0,.02,0,.03,0,.02-.02.02-.04.02-.02,0-.03,0-.04.01,0,.01,0,.01.02.01.03,0,.03,0,.04.04,0,.03,0,.04-.02.07-.04.05-.16.19-.18.2,0,0-.02.02-.02.02,0,0,.02,0,.03-.02.02-.02.07-.06.12-.11l.09-.08.02.02s.04.03.05.03c.02.01.03.02.03.04,0,.03,0,.03,0,0,0-.02.02-.04.07-.04.02,0,.03.01.11.11.08.11.09.13.07.14,0,0-.02.02-.03.04-.04.07-.02.19.04.26t-.05.07c-.11.09-.31.26-.44.36-.1.09-.12.1-.14.09-.07-.05-.13-.06-.2-.03-.06.03-.09.08-.09.16v.06l-.06.05s-.22.19-.42.36c-.2.17-.36.31-.37.31s-.02-.01-.03-.03c-.07-.1-.24-.16-.35-.12-.11.04-.14.07-.18.12-.04.06-.06.11-.06.18v.07s-.24.07-.24.07c-.13.04-.27.08-.32.09-.07.02-.36.1-.45.13-.12.03-.17.05-.26.07-.1.02-.14.03-.14.01,0,0-.01-.02-.03-.03-.03-.03-.08-.05-.14-.04-.04,0-.05.01-.08.05-.04.04-.05.04-.11.06-.07.01-.14.03-.22.05-.07.02-.34.09-.44.13-.06.02-.11.03-.11.03,0,0-.02-.02-.03-.04l-.02-.03.11-.15Z"/>
        <path class="cls-1" d="m66.99,20.91s-.04.03-.14.03c-.11,0-.11,0-.04,0,.16.02.18.02.18.04,0,0-.01.04-.03.06-.06.07-.15.17-.22.25-.08.09-.07.08.06-.03.16-.14.25-.22.26-.21.02,0,.02.04.03.14,0,.05,0,.09,0,.09,0,0,0-.05,0-.11,0-.14.01-.14.08-.09.06.04.19.16.28.24.04.04.07.06.07.06,0,0-.04-.05-.08-.1-.14-.15-.25-.29-.25-.31,0-.02.01-.02.18-.04.06,0,.06,0-.04,0-.11,0-.14,0-.14-.03,0-.02.1-.14.22-.27.04-.05.07-.09.07-.09,0,0-.03.02-.06.05-.08.07-.26.22-.28.24-.04.03-.05,0-.05-.19,0-.03,0,0-.01.07,0,.06-.01.11-.02.12-.01.02-.03.02-.23-.16-.07-.06-.14-.12-.15-.14-.02-.02-.03-.03-.04-.03s.04.06.11.12c.13.15.23.27.23.28Z"/>
        <path class="cls-1" d="m65.86,24.06c.11-.03.15-.2.06-.29-.02-.02-.05-.04-.07-.04-.05-.01-.06-.01-.1,0-.04.01-.09.07-.1.11-.01.05-.01.08,0,.12.04.08.12.12.21.09Z"/>
        <path class="cls-1" d="m71.26,25.64s0,0-.01,0c0,.01-.37.32-.54.46-.15.12-.4.31-.46.35-.02.01-.03.01-.05,0h-.03s0-.27,0-.27c0-.15-.01-.26-.02-.27,0,0,0,.02,0,.05s0,.1,0,.14c-.02.13-.03.22-.03.27,0,.05-.02.07-.06.07-.02,0-.05-.02-.12-.08-.21-.18-.37-.33-.62-.58-.14-.14-.26-.26-.26-.26h0s.01.02.02.03c.17.18.48.56.65.79.17.23.16.22.15.25,0,.03-.01.03-.03.04-.01,0-.15,0-.3,0-.15,0-.25,0-.22,0,.03,0,.06,0,.06.01,0,0,.03,0,.06,0s.08,0,.12,0c.03,0,.1.01.15.02q.13.01.14.05s.02.02-.1.16c-.16.18-.36.4-.57.61-.11.11-.2.2-.2.2,0,0,.06-.04.12-.1.26-.23.54-.45.79-.64.07-.05.08-.06.11-.05.01,0,.03,0,.03.01.01.01.03.29.03.46,0,.07,0,.14,0,.14,0,0,0-.02,0-.04,0-.09.03-.42.05-.52,0-.03,0-.04.04-.04.03,0,.04,0,.09.04.17.14.4.36.64.59.15.14.26.26.26.25,0,0,0-.01,0-.01-.01,0-.31-.36-.44-.52-.11-.14-.3-.39-.35-.46-.02-.02-.02-.03,0-.06,0-.02.02-.03.03-.03.01,0,.15,0,.3-.01.19,0,.25,0,.21-.01-.15-.01-.27-.03-.34-.03-.04,0-.1-.01-.13-.01-.03,0-.05,0-.05-.01,0,0,0-.02,0-.04,0-.03,0-.04.09-.14.17-.2.37-.41.6-.64.12-.12.22-.22.22-.22Z"/>
        <path class="cls-1" d="m70.15,25.78s0,0,0,.01c0,.01,0,.01,0,0,0,0,0-.01,0-.02Z"/>
        <path class="cls-1" d="m64.95,27.35c.12.02.29,0,.39-.05.08-.04.16-.13.21-.22.05-.1.06-.15.05-.29,0-.14-.02-.18-.07-.27-.04-.06-.11-.14-.16-.17-.08-.05-.13-.06-.26-.06-.07,0-.13,0-.14,0-.01,0-.04.01-.07.02-.14.05-.25.18-.3.34-.02.07-.03.26,0,.33.05.18.21.34.38.37Z"/>
        <path class="cls-1" d="m62.95,27.24c.05.01.07.01.12,0,.15-.03.23-.1.27-.25.02-.06.02-.08,0-.13-.03-.15-.1-.24-.23-.28-.04-.01-.13-.01-.18,0-.14.03-.23.15-.24.3,0,.12.02.2.09.28.05.05.09.07.17.09Z"/>
        <path class="cls-1" d="m69.18,26.67s-.01,0,0,0c0,0,.01,0,.02,0,0,0,0,0-.01,0Z"/>
        <path class="cls-1" d="m71.04,26.75s0,0-.01,0-.02,0-.01,0,.02,0,.02,0Z"/>
        <path class="cls-1" d="m68.96,27.78s.01,0,.02-.01c0,0,0-.01,0-.01,0,0-.01,0-.02.01,0,0,0,.01,0,.01Z"/>
        <path class="cls-1" d="m64.47,31.74c.05.03.07.03.13.03.12,0,.19-.03.26-.11.05-.06.08-.13.08-.21,0-.11-.02-.16-.1-.24-.04-.03-.06-.06-.06-.06,0,0,.05-.12.12-.25.15-.31.18-.37.3-.65l.06-.13h.07s.09-.03.11-.04l.04-.02.12.14c.07.07.18.21.26.29l.14.15v.05c-.01.08,0,.14.07.2.08.08.18.09.28.04l.05-.03.26.19c.14.1.3.21.35.25.05.03.11.08.14.1l.05.04v.05c0,.14.13.23.26.17.02,0,.05-.02.05-.02,0,0,.07.02.13.05.06.03.12.05.12.05s0,.03,0,.06c.01.14.07.2.21.2.07,0,.08,0,.11-.03.1-.06.12-.24.04-.33-.08-.09-.21-.09-.3-.01-.02.02-.04.03-.05.03-.02,0-.2-.07-.22-.08,0,0,0-.02,0-.04.02-.07-.03-.17-.1-.2-.05-.03-.12-.02-.18,0l-.05.02-.14-.1c-.14-.1-.46-.31-.59-.4-.06-.04-.07-.05-.06-.06,0,0,0-.05.01-.09,0-.06,0-.08-.02-.11-.03-.05-.07-.09-.14-.12-.04-.02-.05-.02-.1,0-.03,0-.07.02-.1.04l-.04.03-.21-.21c-.25-.26-.31-.31-.31-.32,0,0,.01-.02.03-.05.05-.06.07-.14.06-.22,0-.1-.03-.15-.08-.21-.03-.03-.05-.06-.04-.06,0,0,.09-.14.2-.29.11-.16.24-.35.29-.44.08-.13.11-.16.12-.16.01,0,.02,0,.03.01,0,0,.04.01.08.01.08,0,.12-.02.16-.08.02-.03.02-.05.02-.1s0-.07-.02-.1c-.01-.02-.03-.05-.04-.05-.02-.01-.1-.04-.11-.04,0,0-.02,0-.04.01-.05.01-.07.03-.1.06-.03.04-.04.1-.04.16v.05s-.13.2-.13.2c-.17.26-.34.52-.41.65-.02.02-.03.06-.05.07l-.02.03h-.04s-.06-.03-.13-.02h-.09s-.17-.2-.17-.2c-.1-.11-.18-.21-.2-.23l-.02-.03.03-.05c.09-.17,0-.36-.18-.37-.11-.01-.2.04-.24.13-.03.06-.03.17,0,.23.05.1.16.15.27.12.02,0,.05,0,.06,0,0,0,.06.08.13.16.06.08.14.18.17.22.03.04.06.07.06.08,0,0-.01.03-.03.05-.07.08-.1.17-.08.27.02.11.06.18.15.24l.05.03-.04.09c-.08.17-.2.43-.4.88l-.03.08h-.09c-.11,0-.15.02-.22.09-.06.06-.08.1-.09.17-.02.15.04.29.18.35Z"/>
        <path class="cls-1" d="m69.84,29.23s.02-.07.02-.15c0-.09,0-.1-.03-.15-.03-.06-.09-.12-.15-.15-.06-.03-.18-.04-.25-.02-.12.03-.2.13-.23.27-.01.07,0,.15.04.23.03.06.08.11.15.14.04.02.06.02.14.02s.1,0,.15-.03c.07-.03.13-.1.16-.17Z"/>
        <path class="cls-1" d="m67.72,29.33c-.07.02-.11.08-.11.16,0,.1.05.16.15.17.07,0,.12-.02.15-.07.02-.03.02-.05.02-.1,0-.09-.03-.14-.11-.17-.05-.02-.06-.02-.1,0Z"/>
        <path class="cls-1" d="m63.78,34.84c.08.04.16.02.2-.05.02-.03.02-.05.02-.09,0-.04,0-.07-.02-.09-.01-.03-.01-.03,0-.07.02-.07.06-.22.07-.27,0-.02.01-.06.02-.07,0-.02.02-.07.03-.12q.02-.12.06-.14s.09-.06.11-.1c.02-.05.02-.13,0-.18-.03-.06-.1-.12-.16-.12-.03,0-.04,0-.09-.11-.02-.05-.06-.11-.07-.14-.02-.03-.05-.08-.07-.12-.02-.04-.05-.09-.06-.11-.01-.02-.02-.04-.02-.04,0,0-.02-.03-.04-.06-.02-.03-.03-.06-.03-.06,0,0-.27-.45-.31-.51-.02-.03-.03-.05-.03-.05,0,0,.04.03.09.07.08.07.12.1.08.05-.01-.01-.08-.09-.15-.17-.07-.08-.14-.15-.15-.17l-.02-.02.02-.04s.03-.06.03-.09v-.05s.12-.01.12-.01c.06,0,.16-.01.22-.01.07,0,.12,0,.12,0,0,0,.02,0,.03-.01.01,0-.04,0-.13,0-.09,0-.2-.01-.26-.01h-.1s-.02-.06-.02-.06c-.01-.03-.03-.06-.03-.08l-.02-.03.06-.07s.11-.12.18-.19c.06-.07.11-.13.11-.13,0,0-.04.03-.31.27l-.08.07-.03-.03s-.05-.03-.08-.04c-.03,0-.05-.02-.05-.02,0,0-.02-.14-.03-.41v-.14s-.02.12-.02.12c0,.07-.01.19-.02.27,0,.1,0,.15-.02.15,0,0-.03.01-.05.02-.02,0-.06.02-.09.04l-.05.02-.18-.16c-.1-.09-.18-.16-.19-.16,0,0,.02.03.05.06.03.03.07.08.09.1.05.05.04.06-.01.02-.09-.06-.3-.19-.51-.32-.27-.17-.29-.18-.28-.2,0,0,.01-.04.02-.07.02-.1-.02-.21-.12-.31-.07-.07-.17-.1-.25-.08-.06.01-.12.04-.15.06-.01,0-.03.02-.03.01,0,0-.02-.03-.04-.07-.02-.04-.1-.2-.18-.37-.08-.17-.15-.31-.15-.31,0,0,.01-.02.03-.04.04-.05.06-.09.06-.17,0-.05,0-.08-.02-.11-.02-.05-.08-.09-.12-.11-.03,0-.1-.01-.14,0-.05,0-.1.05-.13.11-.02.03-.02.05-.02.11,0,.08.02.13.06.17.04.04.08.05.16.06h.06s.04.1.04.1c.08.19.16.37.24.54l.09.17-.02.05c-.05.14,0,.3.12.37.06.04.1.05.19.05.06,0,.08,0,.13-.02.03-.01.07-.04.09-.05l.04-.03.07.05c.1.07.36.25.49.33.06.04.13.08.15.1.02.02.1.06.16.1.07.04.12.07.12.07,0,0,0,.02-.01.04,0,.02-.02.05-.02.07v.03s-.08,0-.08,0c-.04,0-.15,0-.24.01-.2,0-.19.02.06.03.2,0,.25.01.26.02,0,0,.01.03.02.05,0,.02.02.06.04.08.01.02.02.04.02.05,0,0-.19.22-.31.35-.01.01-.02.02-.02.03,0,0,.07-.05.14-.12.07-.07.16-.14.19-.17l.05-.05.02.02s.08.04.13.05c.01,0,.02.01.03.02,0,0,0,.08,0,.16,0,.08.01.2.02.26v.11s.02-.14.02-.14c0-.2.02-.37.02-.39,0-.01.01-.02.04-.02.02,0,.05-.02.07-.03.02-.01.05-.02.05-.01.02.02.53.9.65,1.11.02.03.04.06.04.07,0,0,.02.04.04.08.02.04.04.08.05.1,0,.01.02.03.02.04s-.02.03-.04.06c-.07.07-.08.14-.04.23.02.05.05.08.12.11.02.01.04.02.03.03,0,0-.05.14-.08.27-.01.05-.04.13-.05.19-.01.05-.02.1-.03.1,0,0-.03,0-.05.01-.03,0-.06.01-.07.02-.03.02-.06.08-.06.13v.04s-.12.03-.12.03l-.12.03v-.02s-.12-.11-.16-.13c-.07-.03-.14-.04-.2-.03-.16.03-.26.13-.29.29,0,.05,0,.07,0,.13l.02.07-.04.03s-.08.07-.13.11c-.05.04-.13.11-.18.16-.05.04-.09.08-.1.08,0,0-.02,0-.04-.02-.04-.03-.12-.03-.16,0-.11.07-.08.24.04.28.1.03.19-.05.19-.15,0-.03,0-.04.02-.05.01,0,.06-.05.1-.09.04-.04.14-.11.21-.17l.13-.1.04.03c.09.07.19.09.31.05.12-.04.23-.2.24-.34,0-.04.01-.05.06-.06.02,0,.08-.01.12-.02.08-.02.08-.02.11,0Z"/>
        <path class="cls-1" d="m91.54,31.33c-.2.02-.44.04-.65.05-.11,0-.08,0,.13.02.19.01.33.02.49.04.1,0,.12.02.12.05,0,.01-.08.1-.16.2-.07.08-.06.08.02,0,.09-.08.18-.15.19-.15.03,0,.04.03.05.13.02.21.03.28.04.48,0,.11.01.2.01.2,0,0,0-.03,0-.07,0-.28.04-.71.06-.73.02-.03.04-.01.21.13.04.03.07.06.08.06s-.02-.03-.05-.06c-.16-.18-.16-.19-.15-.21,0-.02.02-.02.07-.03.14-.02.26-.02.4-.03.08,0,.2-.01.25-.02h.1s-.08,0-.08,0c-.23,0-.42-.02-.65-.05-.08,0-.09-.01-.09-.03,0-.01,0-.02,0-.03,0,0,.05-.06.1-.11.05-.06.09-.11.09-.11,0,0-.05.04-.11.09-.06.05-.11.1-.11.1,0,0-.02,0-.03,0-.02,0-.02-.01-.03-.09-.02-.19-.04-.47-.04-.63,0-.05,0-.09,0-.09,0,0,0,.05,0,.11-.02.27-.02.38-.03.48-.02.22-.02.21-.04.22-.02.01-.03,0-.2-.14-.04-.04-.07-.06-.07-.06,0,0,.03.04.06.08.14.16.15.17.14.19,0,.02-.02.02-.09.03Z"/>
        <path class="cls-1" d="m69.45,30.99s-.07.06-.08.12c-.01.09.02.14.08.18.07.04.15.02.2-.03.03-.03.04-.06.04-.12s-.01-.09-.04-.12c-.05-.05-.14-.07-.21-.03Z"/>
        <path class="cls-1" d="m60.64,35.16l.6-.59.03.02c.16.09.29.08.42-.04.08-.08.1-.13.1-.23,0-.07,0-.08-.02-.13-.03-.07-.09-.12-.16-.16-.05-.02-.07-.03-.14-.03s-.09,0-.14.03c-.1.05-.16.13-.17.24,0,.07,0,.13.02.18l.02.04-.29.29c-.3.31-1.47,1.48-1.48,1.48,0,0-.02,0-.04-.01-.07-.04-.16-.03-.21.03-.04.04-.05.07-.05.13v.06s-.21.22-.21.22c-.12.12-.29.3-.38.41l-.17.19-.04-.02c-.08-.05-.17-.02-.21.05l-.03.04-.09.02s-.11.03-.13.03c-.03,0-.04,0-.08-.01-.12-.06-.24,0-.24.12v.05l-.05.04c-.05.05-.06.05-.09.04,0,0-.03-.01-.04-.02-.02,0-.02-.01-.02-.03,0-.01,0-.08.01-.15v-.12s.03,0,.03,0c.15-.03.22-.11.22-.24,0-.1-.04-.17-.12-.22-.02-.01-.04-.03-.04-.03,0,0,.13-.26.14-.28,0-.01.04-.01.06,0,.04.03.18.04.25,0,.06-.02.14-.09.17-.16.02-.04.02-.06.02-.14s0-.09-.02-.14c-.01-.03-.04-.07-.07-.1l-.05-.05.14-.23c.18-.29.26-.42.37-.6.05-.08.11-.18.14-.22.02-.04.1-.16.17-.27.13-.21.51-.79.68-1.02.13-.19.19-.28.4-.58l.18-.27h.06s.08-.02.09-.02c.05-.02.09-.08.11-.13.01-.04.01-.05,0-.1-.02-.11-.11-.18-.22-.18-.04,0-.07,0-.1.02-.09.04-.13.14-.11.23,0,.03.02.07.04.09.02.03.03.05.03.05,0,0-.02.04-.05.07-.14.18-.47.67-.63.93-.07.11-.31.49-.43.67-.34.53-.53.83-.72,1.16-.08.14-.1.17-.17.29-.02.04-.04.07-.05.08,0,0-.05,0-.09,0-.07,0-.09,0-.13.02-.17.08-.24.27-.15.44l.03.06-.02.05s-.03.06-.04.08c0,.01-.03.07-.05.12-.02.05-.04.1-.05.09-.02,0-.12.03-.15.05-.07.05-.12.16-.1.23.02.08.07.15.13.19.01,0,.02.04.02.17v.16s-.02.04-.02.04c-.03.03-.04.04-.04.09,0,.05-.01.06-.05.11-.24.28-.5.64-.66.91-.08.14-.08.14-.13.14-.06,0-.1.02-.13.07-.02.05-.03.11,0,.16l.02.04-.03.13c-.03.14-.08.34-.11.46-.01.04-.03.11-.03.15,0,.04-.03.13-.04.19-.04.18-.04.2-.05.19,0,0,0-.02,0-.04,0-.02,0,0,0,.06,0,.08,0,.1-.02.1-.01,0-.12-.08-.24-.19-.05-.04-.08-.07-.09-.07,0,0,.02.03.04.05.1.1.22.26.22.27,0,.01-.02.02-.11.03q-.07,0-.02,0c.07,0,.12,0,.13.02,0,0,0,.02,0,.03-.02.03-.12.14-.19.22-.03.03-.05.06-.05.06,0,0,.05-.04.1-.09.14-.12.18-.15.18-.14,0,0,0,.05-.01.1,0,.05-.02.11-.03.14,0,.03-.01.07-.02.1,0,.02-.01.07-.02.1,0,.03-.01.08-.02.11-.02.14-.06.4-.07.54,0,.06-.01.1-.02.11,0,0-.02.01-.04.02-.05,0-.08.03-.12.07-.02.03-.03.04-.03.1v.07s-.05.02-.05.02c-.02.01-.08.04-.12.06l-.08.04h-.04c-.12-.06-.23.02-.23.15,0,.05.03.1.07.13.07.04.18.01.22-.06.02-.03.02-.05.02-.09,0-.03,0-.06,0-.07,0,0,.06-.03.12-.06l.11-.05.04.02c.12.06.24.01.27-.11.02-.07,0-.13-.05-.18t-.03-.08s.02-.1.03-.18c.01-.08.03-.16.04-.19,0-.03.01-.07.02-.09,0-.02.01-.07.02-.12,0-.04.02-.12.03-.17.02-.13.05-.28.06-.35,0-.04.01-.07.02-.07,0,0,.12.08.23.18.06.05.07.06.02,0-.21-.24-.24-.28-.23-.29,0,0,.05-.01.09-.01.05,0,.08,0,.09,0,0,0-.04,0-.08,0-.09,0-.1-.01-.08-.05,0-.02.1-.12.18-.21.03-.03.05-.06.05-.06,0,0-.04.03-.1.08-.1.09-.12.1-.11.06,0-.01.01-.07.02-.12.02-.09.03-.15.04-.22,0-.04.02-.12.03-.17,0-.02.02-.09.03-.17.02-.07.03-.15.04-.17.02-.11.06-.25.06-.25,0,0,.03,0,.05-.01.04,0,.05-.01.08-.04.02-.02.04-.05.04-.07.01-.04,0-.05,0-.09-.01-.03-.02-.06-.02-.06,0-.02.1-.16.53-.73.23-.31.25-.33.27-.33.07.03.13.02.17-.03.02-.03.03-.04.03-.08,0-.06,0-.07.05-.1.05-.04.06-.04.08-.03.03.02.09.03.13.02.07-.02.11-.06.12-.14v-.04s.07-.02.07-.02c.09-.02.13-.03.14-.04,0,0,.02,0,.04.03.04.05.07.06.13.06h.05l.02.07s.03.11.05.17c.01.05.04.13.05.18.15.49.2.64.38,1.22.05.16.14.41.19.56.05.15.09.28.09.28s-.02.03-.05.05c-.09.06-.16.19-.15.3.02.19.17.34.35.34.14,0,.26-.07.31-.19.02-.05.03-.07.03-.14,0-.11-.02-.15-.1-.23-.09-.08-.14-.11-.24-.12h-.06s-.02-.07-.02-.07c-.01-.03-.04-.11-.06-.18-.02-.06-.04-.13-.04-.14,0-.01-.03-.09-.05-.17-.02-.08-.05-.15-.05-.17,0-.01-.03-.09-.05-.16-.02-.08-.06-.18-.08-.24-.02-.05-.05-.14-.06-.2-.04-.11-.24-.73-.29-.85-.02-.04-.05-.13-.07-.2-.02-.07-.05-.13-.05-.14,0,0,0-.03.01-.05.01-.02.02-.05.02-.07,0-.03,0-.04.08-.1.17-.15.45-.44.58-.58l.14-.15.03.02s.13.03.18,0c.06-.03.09-.08.09-.14,0-.03,0-.06,0-.08v-.03s.15-.14.15-.14c.19-.18.31-.29,1.05-1.02Z"/>
        <path class="cls-1" d="m95.96,35.88s-.05-.01-.09,0c-.02,0-.06.02-.08.03-.03.01-.03.01-.12-.02-.05-.02-.09-.04-.1-.04,0,0-.01-.02-.02-.04,0-.04-.06-.1-.1-.12-.07-.03-.16-.02-.2.03-.02.02-.05.08-.05.1,0,0-.01.03-.02.04-.01.01-.05.04-.09.07l-.06.05-.03-.02c-.07-.05-.12-.06-.19-.06-.1,0-.15.03-.22.12-.04.06-.05.07-.06.16,0,.08,0,.07-.16.14l-.11.05-.05-.02c-.12-.05-.23,0-.26.12-.01.05,0,.06,0,.11l.02.06-.02.02s-.05.04-.09.06l-.06.04-.04-.02c-.06-.03-.11-.03-.17,0-.02,0-.04.01-.05.01,0,0-.03-.04-.06-.07-.06-.08-.36-.45-.41-.52-.04-.05-.04-.05-.04-.1,0-.07-.04-.12-.09-.14-.02,0-.04-.02-.05-.04l-.02-.02.03-.03s.03-.05.04-.07c0-.03,0-.05,0-.09-.03-.09-.09-.14-.18-.14-.03,0-.05,0-.06,0,0,0-.02-.08-.05-.18-.04-.17-.07-.28-.12-.45l-.02-.09.04-.05s.04-.05.04-.12c0-.05,0-.07-.02-.1l-.02-.04.05-.05c.06-.06.05-.05.15-.03.04.01.06.01.09,0,.02,0,.04,0,.04,0,0,0,.04.08.04.09,0,0-.01.01-.03.02-.1.04-.12.18-.04.25.04.03.06.04.11.03.08-.01.12-.06.12-.14,0-.07-.01-.09-.06-.13-.03-.02-.04-.05-.06-.08l-.02-.05.05-.05c.07-.07.09-.12.09-.2,0-.13-.05-.23-.18-.29-.07-.04-.12-.04-.18-.03-.09.02-.16.06-.2.15-.03.06-.04.12-.02.18.01.07.03.1.07.16l.03.04-.05.05-.05.05h-.05c-.08-.03-.16,0-.2.07-.02.04-.02.14,0,.19.02.04.02.06,0,.09,0,.01-.03.05-.05.08-.02.03-.06.12-.1.18l-.07.12h-.04c-.07-.01-.17.02-.2.05,0,0-.02.01-.02.01-.02,0-.78-.5-1.14-.76-.06-.05-.14-.1-.17-.12-.05-.03-.05-.04-.05-.07,0-.07-.04-.12-.12-.13-.03,0-.05-.01-.05-.02,0-.01-.06-.28-.07-.36,0-.04,0-.08,0-.09,0,0,.02-.02.04-.02.09-.02.15-.1.15-.2,0-.05,0-.07-.03-.1-.03-.05-.09-.08-.15-.09h-.04s-.02-.13-.02-.13l-.02-.12.02-.03s.05-.13.01-.18c-.04-.05-.12-.07-.17-.03-.03.02-.05.04-.06.07-.01.04-.02.05-.17.09-.2.05-.19.05-.22.03-.04-.04-.07-.05-.13-.05-.07,0-.12.02-.16.07-.05.06-.06.14-.03.22.04.09.1.12.2.12h.07l.04.04.04.04-.02.03s-.02.05-.02.07c0,.05.03.11.07.13.06.04.17.01.2-.06.01-.03.04-.04.12-.05h.08s.02.03.02.03c.03.04.06.08.1.09h.03v.13c0,.11.01.21.04.33l.02.07-.02.03s-.03.12,0,.16c.03.05.06.07.12.07.04,0,.06,0,.08-.02.02-.01.03-.02.04-.02,0,0,.07.05.15.11.39.29.7.51,1.05.73.05.03.1.07.1.07,0,0,0,.03-.01.06-.04.14.01.28.14.34.03.01.06.02.08.02.04,0,.05.01.05.09,0,.11,0,.1-.06.12-.12.03-.16.14-.11.26.03.06.1.09.18.08.05,0,.1-.05.12-.1,0-.03.02-.04.12-.09.06-.03.13-.07.16-.09.07-.04.22-.13.25-.15.02-.01.03-.02.05,0,.04.02.08.02.12.01.05-.01.05,0,0,.04-.06.05-.07.11-.04.18.04.07.12.1.19.06.02,0,.04-.02.04-.01,0,0,.03.04.06.08.14.19.27.38.39.51.05.06.05.07.05.11,0,.07.03.15.09.18.04.02.14.02.18,0,.03-.01.07-.05.08-.08,0-.01,0-.05,0-.09,0-.04,0-.07,0-.07,0,0,.05-.03.1-.06.09-.05.1-.06.14-.05.1.01.16-.02.2-.1.02-.03.02-.05.01-.11v-.07s.12-.05.12-.05c.07-.02.13-.04.13-.04,0,0,.03.03.05.06.04.05.06.06.1.08.05.02.07.03.13.03s.08,0,.13-.03c.06-.03.11-.08.14-.14.03-.06.03-.18,0-.24l-.02-.05.03-.03s.05-.04.07-.06l.04-.03.04.04s.06.04.08.05c.07.02.16,0,.2-.06.01-.02.03-.03.04-.03,0,0,.04.02.08.03l.07.03v.07c0,.1.02.16.11.2.07.04.07.03.04.1-.06.1-.14.27-.17.36-.02.05-.04.09-.04.09,0,0-.02,0-.05-.02-.05-.02-.09-.02-.14,0-.13.04-.18.18-.13.3.04.08.1.12.19.12.07,0,.16-.06.2-.14.02-.04.02-.07,0-.18,0-.03,0-.05.02-.1.04-.12.1-.25.16-.37l.06-.13.06-.03s.06-.04.08-.08c.02-.03.03-.06.03-.09.01-.09-.06-.18-.16-.21Zm-5.92-2.52s-.05.06-.06.09c0,.02-.02.04-.02.05,0,0-.1.03-.15.03,0,0-.03-.02-.04-.04-.03-.05-.09-.08-.14-.08-.04,0-.04,0-.08-.03l-.04-.04.03-.04c.04-.05.06-.12.05-.17-.01-.05,0-.05.09-.08.04,0,.09-.02.13-.03.08-.02.09-.02.13.01.02.02.05.03.06.04.03,0,.04.01.07.14l.03.1-.05.05Zm2.58,2.21s-.03.04-.04.05c-.01.03-.01.13,0,.15,0,.02,0,.02-.02.04-.01.01-.03.02-.03.02,0,0-.16.1-.3.19-.06.04-.11.07-.12.07s-.02-.02-.03-.04c0-.02-.03-.05-.04-.06-.02-.02-.03-.03-.03-.05,0-.04.02-.16.03-.17,0,0,.03-.02.05-.02.12-.04.2-.19.18-.31-.02-.08-.07-.16-.14-.19-.02,0-.03-.02-.03-.03,0-.01.09-.18.19-.33l.05-.08h.04s.05.01.05.01c0,0,.02.02.02.04,0,.02.03.1.05.19.02.09.05.17.05.19,0,.02.01.05.02.06,0,.01.01.04.02.06,0,.02.02.07.03.11l.02.08-.03.03Z"/>
        <path class="cls-1" d="m69,38.78s-.07,0-.1.02c-.05.03-.06.03-.1,0-.03-.01-.03-.02-.04-.07,0-.03-.02-.08-.03-.1-.02-.05-.09-.12-.16-.15-.04-.02-.06-.02-.13-.02-.08,0-.09,0-.15.03-.03.02-.06.03-.07.02,0,0-.05-.04-.11-.09-.35-.31-.83-.69-1.56-1.24-.08-.06-.11-.09-.11-.1,0,0,0-.03.01-.06,0-.06-.02-.11-.06-.15-.02-.02-.04-.02-.08-.02h-.05l-.52-.52c-.29-.29-.6-.59-.69-.68-.18-.18-.17-.16-.15-.25,0-.03.01-.06.01-.08,0-.05-.02-.14-.05-.19l-.02-.04.03-.03s.06-.05.09-.08c.29-.24.64-.58.99-.93l.18-.19h.04c.06.02.16.01.21,0,.05-.03.12-.09.14-.15.02-.04.02-.06.02-.13,0-.09-.01-.12-.06-.18-.02-.02-.03-.04-.03-.05,0,0,.02-.03.04-.05.03-.04.04-.04.07-.04.04,0,.1-.01.13-.04.03-.03.06-.09.06-.13,0-.06-.05-.13-.12-.15-.04-.01-.05-.01-.09,0-.04.01-.08.05-.1.09-.02.03-.01.1,0,.15,0,.02.02.04.02.05,0,0-.01.03-.03.05-.03.05-.04.05-.13.02-.05-.01-.13,0-.18.02-.05.02-.12.09-.15.15-.02.04-.02.06-.02.12s0,.08.03.12c.01.03.03.06.04.07l.02.03-.35.35c-.54.54-.88.87-.9.87,0,0-.02,0-.04-.02-.04-.03-.11-.05-.17-.06-.13-.01-.28.07-.34.21-.02.04-.02.06-.02.14,0,.08,0,.1.03.15.03.07.11.14.17.18l.05.02v.11c0,.15,0,.14-.06.15-.06.01-.1.05-.12.1-.03.06,0,.14.04.19.03.03.03.03.02.06-.01.04-.09.28-.12.37q-.02.08-.07.11c-.05.03-.07.06-.07.11,0,.03,0,.05.05.1,0,.01,0,.05-.02.22-.02.11-.03.23-.04.26,0,.03-.01.08-.02.12,0,.04-.01.09-.02.12,0,.03-.01.09-.02.13,0,.04-.01.1-.02.13,0,.03-.01.09-.02.13,0,.04-.01.1-.02.13,0,.03-.01.09-.02.13,0,.04-.01.1-.02.13,0,.03-.01.09-.02.13,0,.04-.01.1-.02.13,0,.03-.01.08-.02.12-.02.18-.05.32-.05.33,0,0-.01.01-.03.02-.1.02-.16.06-.2.14-.02.04-.03.06-.03.13,0,.09.02.16.07.21.05.06.1.08.2.08.1,0,.13-.01.19-.06.06-.05.08-.11.08-.21,0-.07,0-.09-.02-.12l-.02-.04.2-.2c.23-.23.33-.35.45-.5.05-.06.09-.11.09-.11s.02,0,.02.01c.02.03.08.06.13.08.04.01.07.02.12.02.06,0,.08,0,.13-.03.07-.03.14-.1.17-.16.01-.03.03-.05.03-.05,0,0,.03,0,.13.04.04.02.08.03.1.03.12.04.33.12.34.12,0,0,.01.03.01.04,0,.05.03.11.06.13.03.02.1.03.15.02.03,0,.06-.03.09-.08v-.02s.09.02.09.02c.04.01.09.02.12.03.02,0,.08.02.12.03.05,0,.13.03.2.04.06.01.13.03.16.03.1.02.38.06.55.09.04,0,.09.01.12.02.03,0,.09.01.13.02.38.05.35.04.41.1.07.07.12.09.21.09.13,0,.22-.04.29-.15.05-.07.05-.07.07-.05.02.01.02.02.02.08,0,.04,0,.08.01.09.02.04.06.08.12.1.04.01.05.01.09,0,.13-.03.19-.12.16-.23-.02-.1-.09-.15-.19-.15Zm-.85-.13s-.02.06-.02.12c0,.08,0,.08-.07.06-.02,0-.07-.01-.09-.02-.03,0-.06-.01-.08-.02-.02,0-.06-.01-.08-.02-.03,0-.09-.02-.14-.03-.29-.06-.65-.11-.93-.14-.05,0-.12-.01-.16-.02-.04,0-.1,0-.13,0-.08,0-.1,0-.11-.04-.01-.04-.04-.08-.07-.1-.04-.02-.13-.02-.17,0l-.03.02-.05-.02s-.16-.05-.29-.1c-.13-.04-.24-.08-.25-.08,0,0-.01-.03-.01-.06-.01-.12-.06-.2-.15-.26-.25-.17-.6.08-.52.39,0,.03.01.05,0,.06-.02.03-.67.8-.7.83-.02.01-.02.01-.03,0,0,0-.03-.02-.05-.03-.02,0-.04-.02-.04-.02,0,0,0-.03,0-.05,0-.02.01-.07.02-.1,0-.03.01-.08.02-.11.03-.18.08-.52.1-.7,0-.04.01-.1.02-.13.02-.15.05-.43.07-.62,0-.05.01-.13.02-.18,0-.04,0-.1,0-.13,0-.03,0-.09.01-.13,0-.07.01-.07.04-.08.04,0,.07-.05.08-.09,0-.03,0-.05-.02-.08l-.02-.04.02-.05c.02-.06.03-.11.08-.3l.04-.14.05-.02c.06-.02.09-.04.11-.09.03-.06.02-.12-.02-.18-.02-.02-.02-.03-.01-.16,0-.07,0-.13.01-.14,0,0,.03-.01.06-.02.06,0,.13-.04.16-.08.01-.01.03-.02.03-.02,0,0,.31.31.68.68.59.6.67.68.67.7-.03.08-.01.14.03.19t.11.03h.08s.16.14.16.14c.58.51,1.02.87,1.41,1.16.1.08.18.14.19.14,0,0,0,.03-.01.06Z"/>
        <path class="cls-1" d="m95.47,33.59s.07-.08.07-.08c0,0-.04.03-.1.08-.14.13-.28.23-.29.23-.01,0-.03-.11-.03-.18,0-.02,0,.01,0,.06,0,.13-.02.13-.08.08-.06-.04-.27-.23-.28-.24,0-.01-.06-.05-.06-.04,0,0,.02.03.05.06.08.08.19.21.23.27.05.07.05.08-.08.08h-.1s.09.02.09.02c.05,0,.1.01.11.02.02,0,.01.03-.04.1-.06.08-.24.28-.26.29,0,0,0,0,0,0,0,0,.05-.04.1-.08.15-.14.27-.24.29-.23.02,0,.03.05.03.14v.07s.01-.09.01-.09c.01-.11.02-.12.03-.12s.15.11.27.22c.14.13.14.12.02-.02-.11-.12-.22-.26-.22-.27,0-.02.01-.02.12-.03h.09s-.1-.02-.1-.02c-.11,0-.12-.01-.11-.04.01-.02.14-.18.24-.28Z"/>
        <path class="cls-1" d="m72.24,34.63c-.08,0-.12.03-.16.09-.02.04-.03.05-.03.11,0,.06.01.1.05.15l.02.03-.05.13c-.11.29-.25.74-.33,1.01-.09.32-.08.29-.15.57-.01.06-.03.12-.03.15-.01.06-.02.07-.06.07-.02,0-.06,0-.09.02-.05.02-.07.03-.11.07l-.05.05-.02-.03s-.09-.11-.18-.21c-.25-.29-.59-.66-1.02-1.11-.11-.12-.13-.14-.13-.16.03-.13,0-.21-.11-.21h-.04l-.06-.08c-.1-.13-.16-.21-.35-.4l-.17-.18.02-.05c.07-.15.05-.28-.06-.39-.07-.07-.12-.09-.22-.09-.05,0-.09,0-.12.02-.08.03-.15.11-.19.21-.03.07,0,.21.05.29.04.06.18.14.26.14.06,0,.14-.03.18-.06l.02-.02.02.02s.11.12.21.24c.11.12.22.26.27.3l.08.08v.03s-.02.09,0,.13c.02.04.08.07.13.06.04,0,.04,0,.07.03.41.52.76.93,1.14,1.32l.2.2v.09c0,.08,0,.1.03.14.04.09.13.16.24.18.07.02.06,0,.07.17,0,.08,0,.21,0,.29v.14s-.02.02-.02.02c-.08.05-.11.18-.06.27.03.05.08.09.13.1.05,0,.04-.01.1.34.01.06.02.14.03.19,0,.05.02.13.04.19,0,.06.03.14.04.19,0,.05.02.13.03.19,0,.05.03.14.04.2.01.05.02.12.03.15,0,.02.01.07.02.09,0,.03.01.07.02.1,0,.03.01.07.02.1,0,.03.01.07.02.1.02.09.03.15.03.16,0,0-.02.02-.04.03-.05.02-.11.08-.12.12-.02.07,0,.14.04.2.04.05.08.07.13.08.06,0,.11,0,.16-.05.05-.05.07-.1.07-.16,0-.09-.04-.15-.14-.19l-.05-.02v-.06c-.01-.07-.03-.18-.04-.26,0-.03-.01-.09-.02-.13,0-.07-.01-.1-.03-.24,0-.03-.01-.08-.02-.11-.02-.14-.03-.18-.08-.45-.03-.18-.09-.44-.12-.6,0-.02-.01-.05-.02-.08v-.05s.03-.04.03-.04c.03-.03.05-.05.06-.09.02-.06.02-.09,0-.14-.03-.07-.08-.11-.15-.13h-.04v-.59l.04-.02c.06-.03.12-.1.16-.16.02-.05.03-.06.03-.12,0-.14-.06-.25-.18-.3-.03-.01-.05-.03-.05-.03,0,0,.02-.09.06-.18.03-.09.08-.26.12-.36.03-.11.07-.21.07-.22,0-.01.02-.08.04-.14.02-.06.04-.13.04-.14,0-.01.02-.06.03-.11.01-.05.04-.13.05-.18.01-.05.04-.12.04-.15.01-.03.02-.08.03-.1,0-.02.03-.09.05-.17.02-.07.04-.14.05-.14,0,0,.02-.01.04-.01.08,0,.15-.04.18-.11.02-.04.02-.13,0-.18-.03-.07-.1-.11-.18-.11Z"/>
        <path class="cls-1" d="m99.21,35.9s.09-.09.09-.09c0,0-.01,0-.2.18-.23.21-.54.47-.56.47,0,0-.02,0-.03-.01-.01,0-.02-.03-.02-.14,0-.07-.01-.17-.01-.22v-.09s-.01.07-.01.07c0,.08,0,.1-.01.24,0,.13,0,.14-.04.14-.02,0-.03,0-.11-.07-.2-.16-.42-.36-.58-.51-.05-.05-.09-.08-.1-.08,0,0,.03.04.08.1.15.16.28.31.39.44q.2.24.17.27s-.14.03-.26.03c-.07,0-.09,0-.09.01,0,0,.03.01.09.01.04,0,.12,0,.17.01.08,0,.09.01.1.03.01.03.01.03-.12.19-.11.14-.27.31-.42.48-.05.06-.1.11-.09.11,0,0,.04-.03.08-.07.15-.15.36-.33.56-.49.1-.08.11-.09.14-.08.03,0,.03,0,.04.14,0,.14,0,.15.01.24v.07s0-.09,0-.09c0-.05.01-.15.02-.22,0-.14.01-.15.05-.15.03,0,.35.27.62.52.08.08.15.14.16.14,0,0-.02-.03-.06-.07-.15-.15-.3-.32-.46-.52-.13-.16-.14-.17-.13-.2,0-.02.01-.02.09-.03.04,0,.12-.01.17-.01.07,0,.09,0,.1-.01,0-.01,0-.01-.08-.01-.05,0-.13,0-.18-.01-.08,0-.09-.01-.1-.03,0-.03,0-.04.15-.23.14-.17.29-.33.41-.46Z"/>
        <path class="cls-1" d="m62.76,36.59c-.06,0-.11,0-.12,0,0,0-.03,0-.06.01-.15.04-.28.18-.33.35-.01.06-.02.23,0,.27,0,.01.01.04.02.06.04.15.18.27.33.31.07.02.21.02.27,0,.13-.03.24-.12.3-.22.05-.1.07-.16.07-.28,0-.16-.04-.27-.13-.36-.1-.1-.19-.14-.34-.15Z"/>
        <path class="cls-1" d="m82.53,38.51l-.1-.12v-.04s.03-.04.03-.05c0,0,.07-.01.13-.02.07,0,.16,0,.2-.01h.08s-.13,0-.13,0c-.07,0-.16,0-.21-.01h-.08s-.01-.05-.01-.05c0-.02-.01-.05-.01-.05,0-.03.32-.4.54-.63.03-.03.05-.06.05-.06,0,0-.04.03-.08.07-.17.16-.46.41-.55.49-.03.02-.03.02-.06.01-.02,0-.04-.02-.06-.02-.01,0-.03-.01-.03-.01,0,0,0-.06-.01-.13,0-.07,0-.12-.01-.12,0,0-.01.04-.01.12,0,.07,0,.13-.01.13,0,0-.02.01-.03.01s-.04,0-.06.02l-.03.02-.05-.04c-.1-.08-.34-.29-.46-.41-.07-.06-.12-.11-.12-.11,0,0,.05.06.11.13.14.15.45.51.45.52,0,0,0,.03-.02.06-.02.06-.02.06-.05.06-.02,0-.11,0-.2.01-.18,0-.18,0,.12.02.06,0,.12.01.12.02,0,0,.01.03.02.06v.05s-.05.08-.05.08c-.11.14-.24.29-.39.44-.07.08-.14.15-.14.15,0,0,.03-.02.08-.07.16-.15.39-.36.55-.48l.06-.05h.05s.05.03.05.03c0,0,0,.08.01.15,0,.08,0,.14.01.14.01,0,.01-.03.02-.16,0-.12.01-.16.04-.16,0,0,.03,0,.04,0,.02,0,.03,0,.13.08.16.13.37.32.53.46.04.03.06.06.06.05,0,0-.06-.07-.13-.15-.17-.19-.24-.26-.37-.42Z"/>
        <path class="cls-1" d="m61.07,38.48v-.03s.06,0,.06,0c.03,0,.1,0,.15,0,.05,0,.15,0,.21-.01h.12s-.13-.02-.13-.02c-.34-.01-.41-.02-.42-.03,0,0-.01-.02-.01-.03,0-.01-.01-.05-.03-.09l-.03-.06.02-.02c.13-.14.3-.34.3-.34,0,0-.02,0-.04.03-.09.08-.32.29-.32.29,0,0-.02,0-.03-.02-.03-.02-.1-.05-.13-.05-.01,0-.02,0-.03-.02,0-.01,0-.11-.01-.22,0-.11-.01-.22-.01-.25v-.05s0,.05,0,.05c0,.07,0,.11-.01.3,0,.09-.01.17-.01.18,0,0-.02.01-.02.01-.03,0-.1.03-.13.05-.02.01-.04.02-.04.02s-.08-.07-.18-.16c-.1-.09-.18-.16-.19-.16s0,.01.01.02c.11.12.31.35.31.35-.03.05-.05.11-.06.14,0,.03,0,.04-.02.04-.02,0-.12,0-.39.02h-.12s.11.02.11.02c.06,0,.15.01.19.01s.11,0,.15,0h.07s0,.05,0,.05c.01.05.03.09.05.13.01.02,0,.04-.29.35-.07.08-.02.04.15-.12l.18-.16.05.03s.07.03.1.04l.05.02v.16c.01.15.02.21.02.31t0-.01s0-.13.01-.23c0-.25,0-.23.08-.25.03-.01.07-.03.09-.04.01,0,.03-.02.04-.02.01,0,.11.09.34.3.01,0,.02.01.02,0,0,0-.07-.09-.16-.18-.09-.09-.16-.18-.16-.18,0,0,.01-.04.03-.07.01-.03.03-.08.03-.1Z"/>
        <path class="cls-1" d="m84.06,39.38c.06.05.22.06.31.02.09-.04.14-.09.18-.19.02-.06.02-.21,0-.26-.04-.09-.11-.16-.19-.19-.04-.01-.13-.02-.17-.01-.04,0-.12.04-.15.07-.02.02-.08.09-.09.12-.04.09-.04.16-.02.25.02.09.06.14.13.19Z"/>
        <path class="cls-1" d="m99.55,38.88s-.13-.05-.18-.05c-.02,0-.05,0-.07.01-.02,0-.06.02-.08.03-.05.03-.12.1-.14.16-.02.04-.02.06-.02.15,0,.08,0,.1.02.14.04.1.1.16.2.19.12.04.25,0,.34-.08.15-.16.12-.43-.06-.54Z"/>
        <path class="cls-1" d="m101.5,40.05c.01-.05.01-.22,0-.28-.05-.19-.17-.32-.35-.36-.07-.02-.21-.01-.28,0-.08.02-.15.06-.21.12-.06.06-.09.11-.12.2-.02.05-.02.08-.02.17,0,.16.04.26.13.36.06.06.11.1.19.13.04.02.07.02.18.02s.14,0,.18-.02c.16-.06.26-.18.31-.36Z"/>
        <path class="cls-1" d="m95.69,39.92s0-.04.13-.05h.13s-.12-.01-.12-.01c-.12,0-.16-.02-.16-.03,0-.01.09-.12.22-.26.07-.08.1-.12.1-.12,0,0-.04.04-.09.08-.15.13-.26.23-.28.23-.02,0-.03-.03-.04-.19v-.09s0,.12,0,.12c0,.14,0,.16-.03.16-.02,0-.13-.09-.28-.22-.05-.04-.09-.08-.09-.07,0,0,.02.03.06.07.07.08.22.25.24.28.02.03,0,.04-.14.05-.07,0-.12,0-.12,0,0,0,.05,0,.12,0,.11,0,.15.01.15.03,0,.01-.12.16-.26.31-.04.04-.06.07-.06.07,0,0,.05-.04.1-.08.16-.14.27-.23.29-.23.02,0,.03.03.03.16v.12s0-.09,0-.09c.01-.15.02-.19.04-.19.02,0,.14.09.29.23.05.05.09.08.09.08,0,0-.02-.03-.05-.06-.07-.08-.24-.27-.25-.3Z"/>
        <path class="cls-1" d="m93.29,39.75c-.06-.02-.17-.03-.24-.02-.2.03-.35.17-.4.37-.02.09-.03.15-.01.23.03.14.06.21.14.29.06.06.12.1.2.12.06.02.25.02.31,0,.2-.06.33-.25.33-.49,0-.24-.13-.43-.35-.49Z"/>
        <path class="cls-1" d="m67.14,40.95s0-.06.02-.07c.05,0,.25-.02.34-.02h.1s-.09,0-.09,0c-.05,0-.15-.01-.23-.01-.14-.01-.16-.02-.16-.05,0-.03.35-.44.55-.65.04-.04.06-.07.06-.07,0,0-.05.03-.1.08-.23.21-.59.53-.62.53s-.04-.02-.05-.07c0-.03,0-.13-.01-.22,0-.19,0-.19-.03.11,0,.08-.01.15-.02.16,0,.02-.04.03-.06.02-.06-.04-.42-.35-.65-.56-.05-.05-.1-.09-.1-.08,0,0,.05.06.12.13.15.16.31.34.43.5.1.12.1.12.09.15,0,.02-.02.03-.06.03-.12,0-.32.02-.36.02-.03,0,.02,0,.1,0,.08,0,.19,0,.23.01.08,0,.09,0,.09.03,0,.02,0,.03,0,.04-.02.05-.37.45-.52.61-.04.04-.07.07-.06.08,0,0,.04-.03.08-.06.18-.18.46-.41.61-.53.02-.01.05,0,.06.02,0,.01,0,.08.02.16.02.31.02.3.03.11,0-.09,0-.2.01-.23,0-.05,0-.06.03-.06.02,0,.03,0,.07.03.14.11.42.36.59.52.05.04.08.08.09.07,0,0-.04-.05-.1-.12-.18-.19-.46-.53-.51-.59Z"/>
        <path class="cls-1" d="m61.81,40.43c-.17.04-.26.2-.23.39.03.16.11.25.27.27.15.03.29-.04.35-.17.03-.06.03-.06.03-.16,0-.09,0-.11-.02-.15-.07-.15-.22-.22-.39-.18Z"/>
        <path class="cls-1" d="m81.33,40.93c-.08,0-.14.04-.2.1-.03.03-.05.05-.06.05-.02,0-.39-.16-.57-.24-.05-.02-.11-.05-.13-.06-.04-.01-.04-.02-.05-.05-.03-.08-.12-.12-.2-.09-.08.03-.11.14-.07.22.02.04.08.07.13.07.03,0,.1-.03.11-.05,0,0,.01-.01.02-.01,0,0,.09.03.18.08.1.04.22.1.28.12.06.03.12.05.14.06.02,0,.05.02.07.03.04.02.04.02.05.06,0,.02,0,.06,0,.08,0,.09.08.2.17.25l.05.02v.29s0,.29,0,.29h-.02s-.05.06-.06.11c-.01.06.01.11.06.14l.04.02v.12l-.04.02c-.14.06-.13.28,0,.32.11.03.2-.02.22-.12.02-.07-.02-.16-.08-.19-.03-.01-.03-.02-.04-.06,0-.02,0-.05-.01-.06,0-.02,0-.03.03-.06.06-.06.07-.14.02-.2l-.03-.03v-.28s0-.28,0-.28h.06c.1-.03.17-.07.22-.15.04-.06.06-.13.06-.2-.01-.12-.06-.2-.15-.26-.06-.04-.13-.06-.21-.05Z"/>
        <path class="cls-1" d="m70.05,40.72s0,0,0-.01c0,0-.03.02-.06.05-.11.1-.24.2-.25.2-.01,0-.01-.02-.02-.08,0-.08,0-.08-.01-.04,0,.02,0,.06-.01.08,0,.06-.02.06-.22-.12-.06-.05-.1-.09-.11-.1,0,0,0,0,0,0,0,0,.04.05.09.1.15.17.18.21.17.22,0,0-.05.01-.09.02-.08,0-.08,0-.03.01.03,0,.06,0,.06,0,0,0,.02,0,.04,0,.01,0,.03,0,.03.01,0,.01-.08.12-.19.24-.03.04-.06.06-.05.07,0,0,.03-.02.06-.05.1-.09.23-.19.24-.19.01,0,.02.02.03.12,0,.03,0,.03.01-.04,0-.12,0-.12.22.08.05.05.1.09.1.09,0,0-.03-.04-.07-.08-.09-.11-.18-.21-.18-.22,0-.01.04-.02.14-.03.05,0,.05,0-.02,0-.09,0-.11-.01-.11-.03,0-.02.22-.28.25-.3Z"/>
        <path class="cls-1" d="m98.22,41.79c-.16-.02-.16-.02-.17-.04,0-.01,0-.02,0-.02,0,0,.16-.19.22-.26.03-.03.06-.06.05-.06,0,0-.04.03-.07.06-.1.09-.24.21-.25.21,0,0-.01,0-.03,0-.02,0-.02-.02-.03-.09-.03-.23-.05-.48-.05-.6,0-.06,0-.1,0-.11,0,0,0-.04-.01-.08,0-.04,0,.02,0,.13,0,.24-.02.42-.05.68,0,.06-.02.09-.05.09-.01,0-.11-.08-.23-.19-.05-.05-.09-.08-.09-.08,0,0,.04.05.08.1.05.05.11.12.14.15.04.05.05.06.04.08,0,.02-.01.02-.08.03-.17.03-.7.06-.99.07-.05,0,.03,0,.18,0,.32,0,.47.02.79.05.08,0,.1.02.1.05,0,.01-.07.1-.21.25-.04.04-.07.08-.07.08s.03-.03.07-.06c.1-.09.25-.22.26-.22,0,0,.02,0,.03.01.01.01.02.03.02.08,0,.04,0,.1.01.15.02.16.03.35.03.54,0,.1,0,.16,0,.12,0-.04,0-.07.01-.07,0,0,0-.05,0-.12s0-.16,0-.22c0-.06.01-.15.02-.2,0-.06.01-.14.02-.18,0-.08.01-.08.03-.1.02-.01.03-.01.07.03.03.02.1.09.16.14.06.06.12.1.12.1,0,0-.02-.03-.05-.06-.07-.08-.23-.26-.23-.27,0,0,0-.02.02-.03.01-.02.03-.02.09-.03.28-.03.48-.04.8-.05h.28s-.2-.01-.2-.01c-.35-.01-.59-.03-.8-.05Z"/>
        <path class="cls-1" d="m84.14,41.65s-.03-.01-.03-.02c0,0,.03-.05.06-.08.07-.08.06-.08-.03,0-.03.03-.06.05-.07.05-.02,0-.04-.14-.05-.42,0-.09,0-.15,0-.12,0,.11-.04.48-.04.51,0,.01-.01.02-.02.03,0,0-.13-.09-.15-.12,0,0-.01-.02-.02-.02,0,0,.01.02.04.05.09.1.1.11.09.12-.01.02-.2.04-.36.04-.19,0-.19,0-.01.02.3.02.38.03.38.06,0,0-.02.04-.06.07-.03.04-.06.07-.06.07,0,0,.02,0,.04-.03.1-.08.1-.08.11-.08.01,0,.02.06.03.26,0,.07.01.17.02.22v.09s.01-.17.01-.17c0-.17.02-.35.03-.39,0-.01.01-.02.02-.02s.05.03.09.07c.04.04.08.07.08.07,0,0-.03-.03-.06-.08-.05-.05-.07-.08-.07-.09,0-.02.08-.03.34-.05.11,0,.2-.01.21-.01,0,0-.02,0-.07,0-.15,0-.39-.02-.44-.03Z"/>
        <path class="cls-1" d="m102.27,42.38l-.05-.06v-.04s.03-.06.03-.09v-.04s.11,0,.11,0c.07,0,.11,0,.12-.01.01,0-.01-.01-.11-.02q-.13,0-.14-.06s-.01-.05-.02-.06l-.02-.03.03-.04c.09-.11.28-.33.45-.52.05-.05.08-.09.08-.1,0,0-.04.03-.09.07-.14.13-.4.37-.53.47l-.04.03-.02-.02s-.07-.04-.09-.04c-.01,0-.02,0-.03-.02,0,0-.01-.08-.02-.15v-.14s-.01.1-.01.1c0,.06-.01.12-.01.15v.04s-.07.01-.07.01c-.03,0-.07.02-.09.02h-.03s-.13-.09-.13-.09c-.13-.12-.25-.22-.4-.36-.05-.05-.1-.09-.1-.09,0,0,.03.03.07.08.15.15.36.39.45.51l.04.05-.03.04s-.03.06-.04.08c0,.02-.01.05-.01.06,0,0-.03.01-.1.01-.08,0-.09,0-.08.01,0,0,.03.01.09.02h.09s0,.06,0,.06c0,.03.01.08.03.11l.02.05-.08.09c-.11.14-.25.29-.39.43-.03.04-.06.06-.05.06,0,0,.08-.06.16-.14.18-.17.41-.37.43-.37,0,0,.03,0,.06.02.03.01.07.02.1.03h.05s0,.04,0,.04c0,.02,0,.08.01.13v.09s0-.08,0-.08c0-.05,0-.1,0-.13v-.04s.07-.02.07-.02c.03-.01.07-.03.09-.04.01-.01.03-.02.03-.02.02,0,.51.43.58.51.01.01.02.02.03.02,0,0-.02-.03-.18-.2-.1-.11-.23-.25-.32-.36Z"/>
        <path class="cls-1" d="m86.54,41.44c-.06-.03-.18-.03-.24-.02-.2.06-.29.3-.19.51.05.1.17.17.31.16.2,0,.33-.17.3-.39-.01-.11-.09-.21-.18-.25Z"/>
        <path class="cls-1" d="m64.62,42.4s0-.02.01-.02c.01-.01.03-.02.13-.02.06,0,.14-.01.18-.01.06,0,.06,0-.05,0-.06,0-.14,0-.18-.01-.06,0-.07-.01-.08-.03,0-.02,0-.03.04-.08.11-.13.25-.3.36-.41.06-.07.11-.12.11-.12,0,0-.04.03-.09.08-.13.12-.29.26-.41.35-.09.07-.11.08-.12.07-.03-.01-.03-.03-.04-.22,0-.15,0-.15-.01-.09,0,.04-.01.12-.02.18,0,.09-.01.11-.02.12,0,0-.02.01-.03.01-.02,0-.32-.25-.54-.46-.05-.05-.09-.08-.09-.08,0,0,.04.04.08.09.17.18.46.52.46.55,0,0,0,.01-.01.02-.02.01-.14.03-.25.03-.1,0-.1,0-.05,0,.03,0,.11.01.17.01.09,0,.12.01.12.02,0,0,.01.02.01.02,0,.02-.28.35-.44.52-.05.05-.08.09-.08.09,0,.01.02,0,.09-.08.17-.16.5-.44.52-.44,0,0,.01,0,.02.01.01,0,.02.03.02.12,0,.06.01.14.02.18,0,.07,0,.07,0-.05,0-.18.02-.27.05-.27.02,0,.41.33.58.5.04.04.07.06.07.06,0,0-.05-.05-.1-.11-.19-.2-.45-.51-.45-.53Z"/>
        <path class="cls-1" d="m58.84,42.13s.02-.02.11-.02c.09,0,.09,0-.03-.02-.06,0-.08-.01-.08-.02,0-.01.1-.14.2-.25.05-.05.04-.06-.01,0-.11.1-.25.21-.25.21,0,0-.01-.03-.01-.06,0-.05,0-.06-.02-.05,0,0-.01.03-.01.06,0,.03,0,.05,0,.05-.01,0-.08-.04-.22-.17-.06-.06-.12-.1-.12-.1,0,0,.03.04.07.09.11.12.2.23.2.24,0,.01,0,.02-.14.03-.04,0-.04,0,.03,0,.09,0,.11,0,.11.03,0,.01-.1.13-.21.26-.02.03-.04.05-.04.05,0,0,.04-.03.09-.07.13-.11.21-.18.22-.18,0,0,.01.02.01.04,0,.02,0,.05.02.06.01.02.01.02.01-.03,0-.06,0-.08.02-.08.01,0,.13.1.24.2.04.04.08.07.09.07,0,0-.02-.02-.04-.05-.11-.12-.22-.26-.22-.27Z"/>
        <path class="cls-1" d="m92.76,42.18c-.06-.02-.17-.03-.23,0-.1.04-.15.08-.19.17-.03.06-.03.06-.02.16,0,.09,0,.11.03.15.03.06.09.12.15.15.04.02.06.02.13.02.16,0,.26-.06.31-.2.07-.19-.01-.39-.18-.45Z"/>
        <path class="cls-1" d="m54.21,42.3s-.06-.02-.14-.02c-.08,0-.1,0-.15.02-.13.06-.2.21-.18.36.03.15.11.24.23.28.02,0,.07,0,.12,0,.13,0,.22-.06.27-.18.02-.05.03-.07.03-.15,0-.09,0-.11-.04-.19-.02-.05-.08-.1-.14-.13Z"/>
        <path class="cls-1" d="m72.76,42.59c-.06.02-.12.09-.14.16-.02.06-.02.1,0,.17.01.04.03.06.06.1.05.05.09.07.16.07.1,0,.19-.05.23-.14.03-.07.03-.18,0-.24-.05-.11-.19-.16-.31-.11Z"/>
        <path class="cls-1" d="m74.67,27.73s-.1,0-.14.02c-.16.05-.28.17-.33.34-.02.07-.02.24,0,.31.05.15.12.24.25.31.08.04.14.05.26.04.09,0,.11,0,.16-.03.14-.06.23-.16.28-.32.02-.07.03-.24,0-.31-.06-.23-.24-.37-.49-.37Z"/>
        <path class="cls-1" d="m88.14,28.33s-.06.04-.08.09c-.04.13.07.26.2.23.07-.02.1-.05.12-.14.03-.14-.11-.25-.24-.19Z"/>
      </g>
    </g>
  </g>
</svg>