<?xml version="1.0" encoding="UTF-8"?>
<svg id="_レイヤー_2" data-name="レイヤー 2" xmlns="http://www.w3.org/2000/svg" viewBox="0 0 157 40.47">
  <defs>
    <style>
      .cls-1 {
        opacity: .7;
      }

      .cls-2 {
        fill: #39385d;
        stroke-width: 0px;
      }
    </style>
  </defs>
  <g id="_デザイン" data-name="デザイン">
    <g>
      <g>
        <path class="cls-2" d="m2.71,10.32c-.42.11-.46.11-.9.24-.09.02-.15.04-.22.04-.35,0-1.58-.68-1.58-1.28,0-.15.09-.46.31-.46.07,0,.37.15.42.2.35.18.79.22,1.06.22.86,0,1.67-.22,2.09-.33-.24-1.21-.33-1.63-.59-2.24-.07-.13-.4-.73-.42-.88-.55.11-1.58-.7-1.58-1.19,0-.2.11-.46.31-.46.09,0,.46.24.53.29.2.13.73.13.79.13.09,0,1.17-.09,2.27-.37.02-.09.04-.13.04-.2,0-2.07-.35-2.2-.59-2.31-.29-.13-.33-.18-.33-.31,0-.31.37-.55.64-.55.59,0,1.89.66,1.89,1.01,0,0-.18.73-.18.77-.15.66-.18.99-.18,1.41.35-.07,1.08-.22,1.69-.44.07-.02.42-.22.51-.22.35,0,1.45.18,1.45.7,0,.46-.59.53-.7.53-1.03.13-1.14.15-1.54.2.37.15.95.42.95.88,0,.18-.04.22-.29.55,0,0-.33.75-.84,1.91.33-.09.57-.13.79-.24.37-.2.42-.22.55-.22.22,0,.77.2.84.22.2.07.53.2.53.62,0,.29-.11.42-.46.51-.2.04-1.28.07-1.5.11l-1.61.26c-.09.02-.51.11-.62.13.37.38.4.38.4.59,0,.04,0,.11-.02.15-.18.95-.22,1.03-.22,1.39.07,0,1.06-.24,1.14-.29.86-.33.95-.35,1.21-.35.53,0,1.17.44,1.17.77,0,.42-.37.48-.99.57l-1.83.26c-.33.04-.51.11-.77.18,0,.15-.02.2-.02.4.81.2,1.12.29,1.74.64.92.55,1.1.99,1.1,1.54,0,.59-.44.62-.51.62-.31,0-.42-.11-1.25-1.12-.2-.24-.79-.73-1.1-.86l.02,5.17c0,.81,0,1.34-.48,1.34-.64,0-.95-.92-.95-1.41,0-.09.04-.75.04-.9l.11-1.69c.02-.26.04-1.56.04-1.85l-.59.68c-1.34,1.54-3.96,2.97-4.29,2.97-.11,0-.18-.04-.18-.13,0-.13.04-.15.4-.44.15-.13.66-.53.77-.64l1.08-1.03c.53-.51,1.78-1.96,2.31-2.93l-2.09.46c-.11.02-.64.22-.77.22-.33,0-1.32-.62-1.32-1.3,0-.33.2-.4.31-.4.07,0,.09,0,.29.15.22.13.7.2,1.01.2.26,0,.79-.04.95-.07l1.74-.35.51-.13c0-.29.04-2.11-.57-2.11-.04,0-.13,0-.26.02l-1.63.44Zm3.85-1.94c.33-.66.62-1.83.62-2.51,0-.07-.09-.64-.46-.81-.86.11-1.89.31-1.96.33l-.97.2c.51.11.59.44.7.88.15.66.33,1.76.4,2.29l1.67-.37Zm4.95-1.94c1.94-1.36,3.72-3.32,3.72-4.12,0-.13-.02-.24-.09-.44-.02-.04-.15-.22-.15-.24,0-.09.15-.33.51-.33.42,0,1.76,1.01,1.76,1.56,0,.15-.07.24-.18.31-.04.02-.24.15-.26.18l-1.45,1.3-1.21.97c-.07.04-1.06.73-1.36.92-.15.09-.2.13-.64.33.55.37.62.42.62.79,0,.13-.09.7-.09.81,0,.04,0,.13.02.13.07.02.33.07.4.07.26,0,.53-.02.77-.07l2.46-.55c.26-.09,1.28-.4,1.56-.51.35-.15.53-.2.73-.2.48,0,1.5.31,1.5.86,0,.42-.55.51-.81.53l-1.23.09c-.18.02-1.63.26-1.83.31.07.09.44.35.51.42.26.22.26.48.26.79,0,.29-.09,1.56-.09,1.8l-.02,4.42.02,1.76s-.07,2.4-.73,2.4c-.13,0-.44-.18-.59-.75-.13-.48-.15-1.34-.15-1.54l.09-1.72.09-3.37-.07-2.75c-.02-.48-.51-1.19-.68-1.19-.07,0-.33.09-.4.09l-1.14.24-.57-.02-.09,1.78c-.04.88-.15,3.15-1.14,5.21-.22.48-.79,1.43-1.03,1.72l-1.12,1.23c-.2.22-.55.55-.84.55-.02,0-.13,0-.13-.09s.04-.15.18-.33c.37-.46,1.69-2.35,2.2-4.2.53-1.98.64-3.81.64-5.88,0-1.01-.11-1.89-.55-2.51-.09-.11-.24-.33-.24-.44,0-.33.4-.35.77-.37l.11.02Z"/>
        <path class="cls-2" d="m32.12,9.22c.07-.48.15-2.07.13-2.66l-1.5.26c-.11.02-.53.13-.64.13-.46,0-1.23-.81-1.23-1.28,0-.22.11-.35.24-.35.11,0,.31.11.73.31.11.07.2.11.51.11.66,0,1.3-.11,1.94-.24l.02-.37-.04-1.47c-.02-.46-.22-1.17-.42-1.39-.18-.18-.2-.2-.33-.48.13-.09.53-.33.84-.33.04,0,.84.37.95.48.29.22.42.44.42.75,0,.07-.04.35-.04.42l-.04,2.13c.53-.09.86-.13,1.1-.22.55-.22.62-.24.79-.24.29,0,1.1.24,1.1.68,0,.2-.13.44-.44.48l-1.65.2c-.26.02-.7.09-.95.11l-.13,2.77c.26-.02.57-.07,1.06-.2.59-.15,1.08-.29,1.23-.29.42,0,1.12.24,1.12.73,0,.26-.22.51-.46.51-.02,0-.48-.02-.48-.02l-1.52.18c-.35.04-.7.09-1.06.15-.02.24-.22,1.3-.24,1.52l1.14.84c.75.55,1.94,1.67,1.94,2.57,0,.35-.2.84-.66.84-.2,0-.4-.09-.62-.46l-.99-1.74c-.29-.48-.92-1.21-.99-1.25-.73,2.11-1.06,3.06-2.35,4.51-.79.86-1.85,1.72-2.11,1.72-.13,0-.2-.13-.2-.18s.75-.88.9-1.06c1.8-2.22,2.62-4.75,2.88-7.08l-1.25.26c-.22.04-1.25.33-1.34.33-.57,0-1.43-.92-1.43-1.32,0-.11.04-.22.11-.35.04-.02.13-.04.2-.04.04,0,.46.2.51.22.24.11.64.2.88.2.11,0,.7-.11.84-.13l1.56-.24Zm13.62,1.96c0,.68-.02.81-.13,1.08-.18.37-.46.53-.68.53-.37,0-.57-.51-.66-.86-.35.04-.73.07-.92.09.13.31.15.4.15.51,0,.07-.07.4-.09.46-.04.33-.07.55-.07.7l-.18,1.56c-.04.37-.09,1.96-.09,2.4,0,1.1.37,1.32,1.85,1.32,1.89,0,2.16-.07,2.4-1.17l.42-1.91.09-.13h.11c.15.18.2.26.2.42,0,.13-.02.77,0,.88.04.48.09,1.28.18,1.39.37.57.42.62.42.79,0,.62-.75.77-1.19.84-.2.04-1.34.15-1.47.15h-1.63c-2.51,0-2.71-1.34-2.64-3.19l.07-2.2.11-1.91c0-.15-.09-.53-.22-.73-.13.02-.92.11-.95.11-.4.11-.44.11-.66.15.44.35.7.59.7.97,0,.09-.02.2-.07.29l-.86,1.32c-.13.22-1.1,1.63-3.19,3.08-1.52,1.08-2.84,1.34-2.86,1.34-.15,0-.24-.13-.24-.2,0-.09.04-.11.37-.29,1.14-.64,2.38-1.65,3.19-2.46,1.34-1.34,2.05-3.01,2.05-3.41,0-.04-.04-.51-.18-.51-.02,0-.13.15-.15.18-.11.13-.29.33-.51.33-.7,0-.7-1.1-.7-1.43,0-.2.04-1.1.04-1.28l.11-2.4c.02-.46,0-1.41-.02-1.91l-.09-2.22c0-.22-.15-.77-.31-1.01-.07-.11-.44-.53-.44-.64,0-.13.22-.42.53-.42.24,0,1.3.53,1.43.53s.84-.02,1.06-.04l2.27-.29c.29-.04.84-.11,1.25-.24.15-.04.84-.31.99-.31.24,0,1.61.64,1.61,1.08,0,.18-.26.95-.26,1.1l-.09,2.31-.04,5.26Zm-1.41-.35l.02-.18.09-2.05h-.15l-2.02.18-3.19.42-.04,2.2,5.3-.57Zm-5.24-5.63c.18,0,1.03-.13,1.21-.15l4.16-.44v-1.19c0-.53-.04-.57-.26-.57-.02,0-1.39.11-1.45.13l-3.67.42.02,1.8Zm3.65,2.46c.29-.04.55-.09.84-.11.04,0,.86-.07.88-.07l-.02-1.78-2.27.18-3.08.4v1.85l3.65-.46Z"/>
        <path class="cls-2" d="m63.83.24c.2-.2.29-.24.42-.24.18,0,.33.09.88.46.37.26.7.51.7.88,0,.11-.04.22-.07.31-.13.13-.15.13-.18.22l1.47,1.47,2.38,2.18,2.05,1.67.51.37,1.5.99,2.09,1.1v.11c-.73.62-2.55.64-2.6.64-.46,0-.68-.07-1.06-.42l-1.14-1.06-1.47-1.58-2.97-3.39-1.25-1.32-1.3,1.94-1.45,1.92-1.28,1.52-1.01,1.01-1.19,1.06c-.09.07-1.39,1.06-1.5,1.12-.79.53-1.91,1.14-2.07,1.14-.02,0-.11-.02-.11-.11s.13-.2.26-.33c.24-.2.26-.2.53-.44l1.32-1.21,1.41-1.5,1.52-1.74,1.34-1.76,1.1-1.58c.42-.59,1.34-2.11,1.34-2.73,0-.22-.07-.35-.18-.53v-.18Zm-.73,15.51l-.81,1.1-1.19,1.54-.09.15,1.63-.29,5.44-1.32.48-.15-1.12-1.43c-.24-.33-.29-.35-.35-.53l.07-.04h.11l1.65.88c.22.11,1.08.84,1.36,1.08,1.03.95,1.34,1.72,1.34,2.42,0,1.08-.73,1.1-.73,1.1-.31,0-.48-.31-.84-1.08-.4-.86-.99-1.67-1.01-1.72l-2.73.97-.18.04-3.87,1.25c-.15.07-.62.24-.84.38-.31.18-.81.46-.92.46-.44,0-1.19-1.3-1.19-1.58,0-.22.15-.33.48-.55.09-.04.68-.75.73-.79l.97-1.5c.35-.53,1.45-2.4,1.36-2.9l-1.78.37c-.4.09-.55.15-1.14.42-.09.04-.2.09-.4.09-.55,0-1.41-.86-1.78-1.36,0-.04-.07-.31-.07-.37,0-.18.22-.33.33-.33.09,0,.53.22.64.29.4.2.84.22,1.03.22.26,0,.64-.04.86-.07l3.1-.44,5.06-.75c.24-.04.51-.07.73-.13.86-.22.9-.24,1.06-.24.26,0,.77.18,1.1.37.11.09.35.24.35.68,0,.57-.84.55-1.08.55l-1.85-.07-1.87.15-2.46.31-.13.04c.04.09.13.24.13.4,0,.07-.02.2-.07.26l-1.52,2.11Zm1.39-6.25c-.24.04-1.25.24-1.47.29-.11,0-.64.2-.77.2-.24,0-1.5-.48-1.5-1.28,0-.2.15-.4.31-.4.09,0,.4.2.46.22.35.15,1.06.15,1.32.13l1.52-.18c.4-.04,1.94-.42,2.33-.57.48-.2.53-.22.73-.22.46,0,1.1.35,1.1.81,0,.26-.4.51-.48.53l-1.83.15-1.72.31Z"/>
        <path class="cls-2" d="m86.02,11.05c0-.55,0-2-.09-2.49-.09-.59-.24-.73-.62-1.03.09-.29.13-.44.55-.44.29,0,.4.02.7.09.42.11.51.13.68.13.04,0,.59-.07.66-.07l5.19-.59c.75-.09.88-.11,1.19-.18.13-.02.88-.2.97-.2.57,0,1.65.62,1.74.66.33.22.4.35.51.68-.04.15-.22.79-.26.92-.02.15-.07.44-.09.68l-.11,1.34-.07,3.41c-.02,1.54-.18,2.46-.79,2.46-.13,0-.26,0-.73-.42-.15-.13-.2-.15-.46-.13l-1.91.09-2.31.26-1.91.26c.22.2.59.51.77.75.09.11.24.51.24.57,0,.18-.2.33-.33.4-.11.07-.59.26-.68.31l-1.61.92c-.48.26-2.11.86-2.62,1.06-.02,0-.88.18-1.03.18-.11,0-.53-.04-.53-.2,0-.07.2-.15.46-.26,2.02-.79,4.58-2.6,4.58-3.21,0-.02-.07-.31-.09-.37,0,0-.29.09-.33.09q-.24.02-.37.11c-.09.07-.22.13-.33.13-.24,0-1.08-.55-1.06-1.43l.07-1.87.02-2.62Zm10.69-6.42c-.24.51-.42.86-.92.86-.09,0-.51-.04-.59-.07h-.55l-1.5.04-3.21.31-1.74.22c-.57.07-.62.09-.73.18-.18.18-.37.4-.59.4-.31,0-.7-.29-.81-.92l-.35-2.16c-.11-.7-.37-.9-.79-1.21l-.15-.22c.24-.24.33-.35.62-.35.24,0,.55.07.81.15.62.18.73.22,1.01.22.07,0,4.33-.48,5.15-.55,2.07-.2,2.55-.22,2.99-.35.68-.2.75-.22.9-.22.33,0,.97.46,1.25.68.31.24.44.35.44.59,0,.15-.02.2-.29.55-.13.18-.24.37-.31.51l-.64,1.34Zm-8.29.31l3.41-.4,1.96-.18c.26-.02,1.5-.04,1.72-.09.13-.37.46-1.28.46-1.65,0-.13-.04-.24-.42-.24-.09,0-1.96.13-2.22.15-2.24.15-3.45.29-6.27.68.09.44.18,1.14.18,1.19.04.44.07.51.15.62l1.03-.09Zm1.34,10.3l4.29-.42,1.56-.07.07-1.65h-.2l-2.77.22-5.37.53c-.02.26-.02.84-.02,1.08.02.55.02.57.13.62l2.31-.31Zm3.74-4.73l-2.35.22-3.79.44c-.04.51-.04.77-.02,1.58.13.02.42-.02.55-.02,1.06-.15,7.5-.77,7.79-.81,0-.11.02-1.12-.02-1.58l-2.16.18Zm1.85-1.21c.29-.02.29-.04.29-.33v-.95c0-.29-.18-.4-.66-.4-.02,0-2.05.11-4.29.4-1.61.22-2.97.4-3.32.42-.04.48-.02.79.02,1.72,2.51-.35,6.27-.73,7.96-.86Zm-2.53,7.2c.11-.02.22-.04.37-.04,1.19,0,5.81,1.91,5.81,3.63,0,.22-.11.77-.66.77-.31,0-.59-.26-.73-.42l-.97-1.1c-.57-.64-1.28-1.14-2.09-1.72-.64-.46-1.14-.7-1.76-.97l.02-.15Z"/>
        <path class="cls-2" d="m123.67,5.88c-.29.18-.73.46-1.01.64.02.02,1.21,1.12,2.44,1.69l1.23.57c.37.18,1.12.48,1.34.59.11.07.18.13.18.22,0,.24-.53.29-.77.29l-1.87.04c-1.17.02-1.32-.13-1.78-.59l-1.17-1.17-1.74-1.89-1.34-1.41c-.26-.26-1.47-1.39-1.72-1.63-.11.07-.15.13-.31.29l-1.83,2-2.77,2.51c-1.83,1.65-4.4,2.68-4.69,2.68-.09,0-.15-.04-.15-.11,0-.11.15-.22.26-.26l1.19-.73c.4-.24,1.36-.95,2.31-1.76.11-.09.53-.51.62-.59-.15-.2-.18-.22-.22-.26l-1.78-1.58s-.26-.2-.31-.24-.07-.11-.07-.15c0-.11.09-.18.18-.18.2,0,1.39.42,1.72.55.75.26,1.19.53,1.45.86l1.21-1.39.84-1.03c.57-.73.62-.81.75-1.12-.07-.02-.11-.02-.18-.02-.11,0-.2,0-.92.15l-.9.2c-.29.07-1.47.44-1.72.44-.35,0-1.61-.81-1.61-1.43,0-.31.26-.44.37-.44.15,0,.84.37.99.44.22.07.48.07.59.07.26,0,.73-.02.99-.07l1.85-.37c.31-.07.7-.15,1.25-.42.11-.07.37-.18.51-.18.35,0,1.52.66,1.52,1.17,0,.29-.18.4-.44.55l1.52,1.19.29.24c.64-.59.95-1.19.95-1.32s-.22-.66-.22-.79c0-.18.26-.29.46-.29.7,0,1.43.99,1.43,1.34,0,.26-.44.51-.62.59l-1.54.84,1.76,1.5c.51-.46,1.76-1.61,1.76-2.11,0-.11-.18-.53-.18-.62,0-.15.24-.33.44-.33.48,0,1.52.77,1.52,1.39,0,.22-.13.33-.35.44-.11.04-.51.31-.59.37l-1.12.64Zm-4.88,4.29c.29-.04.64-.11.95-.18,0,0,.81-.2.84-.2.42,0,1.76,1.1,1.76,1.58,0,.15-.37.7-.44.84-.13.29-.73,1.87-.75,1.94-.04.04-.13.22-.48.31.13.11.95.77.95,1.14,0,.13-.04.18-.37.57l-.88,1.01c-.09.11-.51.55-.77.81l1.83-.04c.22,0,1.25-.13,1.28-.13.13-.02.81-.18.95-.18.37,0,2.27.55,2.27,1.34,0,.35-.29.64-.66.64-.18,0-.24-.02-.92-.15-.26-.07-1.03-.22-1.39-.24l-1.78-.11h-2.62l-2.18.18-.99.11-2.51.4c-.33.04-1.65.46-1.94.46-.66,0-1.83-1.32-1.83-1.78,0-.11.11-.44.4-.44.15,0,.2.04.64.33.35.24.55.37,1.03.37s2.73-.26,3.1-.33c-.33-.9-.53-1.23-.75-1.58-.13-.18-.84-1.01-.84-1.1s.09-.11.15-.11c.04,0,1.39.24,2.31,1.25.22.24.46.64.37,1.43l2.22-.22s.29-.02.88-.07c.42-.66.46-.73.79-1.47.29-.66.44-.99.44-1.3,0-.04,0-.09-.13-.26-.02-.04-.15-.22-.15-.35,0-.07.02-.15.09-.22q-.33-.02-.68,0l-1.72.09-2.18.24c-.29.02-.68.11-.81.13-.11.29-.31.44-.59.44-.62,0-.73-.75-.75-.99l-.18-2.05c-.04-.55-.31-1.14-.42-1.32-.2-.29-.22-.31-.22-.42,0-.26.29-.4.44-.4.22,0,.84.29,1.03.4.18.07.7.18,1.23.11l3.98-.48Zm-1.72-1.54l-1.36.26c-.11.02-.86.18-.95.18-.26,0-1.47-.46-1.47-1.1,0-.22.11-.44.29-.44.11,0,.18.02.66.22.11.02.29.09.46.09.09,0,.4-.02.44-.04l2.99-.29c1.14-.11,1.25-.22,1.47-.26.09-.02.53-.13.59-.13.24,0,1.12.22,1.12.81,0,.53-.35.53-1.12.53h-1.17l-1.96.18Zm-1.67,2.95c-.26.02-.99.15-1.3.22-.04.35.04,1.56.07,1.98.2,0,1.06-.11,1.25-.13l2.46-.24,1.58-.11c.09,0,.46-.02.55-.02.37-1.03.48-1.72.48-1.89,0-.22-.11-.24-.4-.24h-.66l-1.76.18-2.29.26Z"/>
        <path class="cls-2" d="m137.81,6.54l1.17-1.54.97-1.45c.18-.29.81-1.23.81-1.72,0-.09-.13-.31-.2-.44-.02-.02-.07-.09-.07-.18,0-.2.18-.33.51-.33.26,0,.42.02.99.57.11.09.57.53.57.88,0,.11-.11.29-.24.48.04.02.15.09.22.11l1.45.84c.11.11.59.55.68.64.33.33.51.66.51,1.06,0,.53-.24.81-.64.81-.24,0-.51-.26-.62-.42l-.92-1.28c-.04-.07-.62-.7-.73-.84-.2-.22-.26-.29-.51-.42l-.13.13-1.34,1.8-.35.42-1.32,1.47-1.54,1.23c-.13.11-.97.66-1.19.66-.15,0-.13-.13-.11-.22.13-.18.81-.9.95-1.06l1.08-1.23Zm2.55,10.03l.09-3.23v-2.46l-1.87.37c-.13.02-.68.2-.79.2-.26,0-.37-.07-.79-.42-.35-.31-.51-.42-.51-.75,0-.15.07-.22.18-.31.2,0,.37.07.55.15.18.07.48.07.66.07.51,0,.92-.04,1.17-.09.9-.18,1.01-.2,1.36-.26.04-.31.04-1.3-.18-1.63-.46.09-.66.11-.7.11-.35,0-1.03-.59-1.03-.88,0-.13.11-.29.29-.29.09,0,.53.09.64.09,1.01,0,1.96-.29,3.1-.64.18-.07.31-.09.46-.09.33,0,.9.26.9.66,0,.24-.18.4-.64.46l-1.61.26c.18.29.22.37.22.48,0,.07-.09.84-.11.99,0,.09.02.18.02.26l1.52-.26c.09,0,.53-.11.62-.11.48,0,1.01.35,1.01.75s-.4.44-.7.44c-.86,0-.99.02-2.07.15-.42.07-.46.07-.46.29,0,.07-.02.15-.02.2l-.09,5.15c.15-.07,1.69-.62,2.18-.79.04-.02.22-.09.29-.09.02,0,.09.04.13.07-.07.18-.09.2-.29.4-.07.07-.46.37-.55.42l-1.56.97-2.93,1.56s-.26.18-.33.22c-.33.24-.48.31-.68.31-.29,0-.35-.07-.97-.81-.15-.18-.46-.53-.46-.88,0-.09,0-.66.37-.66.18,0,.37.22.51.33.24.26.37.37.64.37.2,0,2.07-.73,2.42-.92l.02-.15Zm-.53-1.28c0,.26-.15.7-.55.7s-.51-.15-1.03-1.08c-.2-.35-.44-.64-.95-1.3-.13-.18-.24-.33-.24-.42,0-.13.09-.15.15-.15.42,0,2.62,1.19,2.62,2.24Zm3.01-1.21c-.13.13-.46.37-.66.37-.09,0-.15-.04-.15-.13,0-.15.29-.66.37-.84.48-.92.57-1.34.57-1.56,0-.11-.26-.53-.26-.62,0-.2.2-.29.42-.29.7,0,1.43.81,1.43,1.25,0,.15-.04.24-.31.46-.07.04-.2.15-.22.18l-1.19,1.17Zm3.85,2.86c-.26.31-.46.57-.53.68-.44.68-.48.75-.77.75-.35,0-.84-.33-.88-.38-.68-.48-.84-.59-.84-.99,0-.09,0-.4.26-.4.13,0,.68.22.81.22.48,0,3.23-2.22,3.39-2.22.04,0,.07.02.13.04-.09.33-.13.48-.31.75-.09.13-.2.37-.31.48l-.97,1.06Zm5.06-13.88l-1.92.2-1.89.31c-.13.02-.64.13-.75.13-.26,0-.66-.26-1.06-.57-.15-.15-.26-.33-.26-.53,0-.15.07-.42.35-.42.09,0,.44.18.51.2.53.15.79.2,1.08.15l2.24-.29c.51-.07,1.14-.15,1.41-.26.13-.04.66-.33.77-.33.24,0,.48.07,1.17.66.31.29.44.46.44.77,0,.15-.04.22-.35.79-.11.2-.2.4-.24.62l-.35,1.61c-.02.11-.07.59-.07.68-.09.48-.09.53-.11.73.2,0,1.85-.2,1.98-.2.48,0,1.39.42,1.39.95,0,.2-.13.46-.57.46-.15,0-.81-.07-.95-.11h-2.42c-.11,0-1.43.11-1.87.18.15.22.24.37.24.51,0,0-.04.57-.07.68l-.07,2,.02.13.33-.2,1.47-1.1c.11-.09.37-.37.37-.48,0-.07-.2-.33-.2-.4,0-.2.18-.31.37-.31.68,0,1.41.92,1.41,1.36,0,.35-.22.48-.31.51l-1.72.66c-.15.07-.86.42-1.01.48-.09.04-.13.04-.15.07l1.03,1.25c.26.31.79.92,1.06,1.14l1.39,1.17,1.61,1.21c.68.53.73.53.92.84l-.11.09c-.35.02-1.1.04-1.45.04-.09,0-1.19-.02-1.63-.35-.11-.09-.26-.31-.37-.44l-1.41-1.94-1.34-2.02-.26-.31-.07,1.89.04,2.88c.02,1.01-.18,2.62-1.01,2.62-.24,0-.4-.13-.57-.29-.09-.07-.51-.53-.53-.53l-1.56-.95-.15-.13v-.13c.15-.02.29-.07.4-.07.18,0,1.43.13,1.56.13.22,0,.48-.09.51-.4l.09-2,.09-6.03c0-.44-.2-1.41-.55-1.41-.46,0-2.82.62-2.84.62-.44,0-1.23-.9-1.23-1.28,0-.18.15-.4.33-.4.09,0,.46.22.53.26.24.07.62.07.84.04l5-.57c.11-.02.18-.02.2-.35.02-.09.09-.46.11-.53.02-.15.11-.77.13-.9l-2.29.24-1.94.26c-.35.04-.48-.02-.7-.18-.88-.59-.95-.64-.95-.95s.29-.4.35-.4c.11,0,.57.24.68.26.2.04.62.11,1.03.07l1.91-.2,2-.29c.02-.07.24-1.3.18-1.65h-.24Zm-6.23,8.03c.4,0,1.32.57,1.43.64.7.46,1.03.79,1.03,1.32,0,.46-.2.77-.53.77-.31,0-.37-.11-1.08-1.1-.11-.18-.73-.99-.75-1.01-.26-.31-.26-.4-.26-.51,0-.09.11-.11.15-.11Z"/>
      </g>
      <g class="cls-1">
        <path class="cls-2" d="m51.54,33.03c.12-.33.16-.39.22-.39s.1.05.22.36c.15.38,1.72,4.51,2.33,6.03.36.89.65,1.05.86,1.11.15.05.3.06.4.06.06,0,.1.01.1.06,0,.06-.09.08-.2.08-.15,0-.88,0-1.57-.02-.19,0-.3,0-.3-.07,0-.04.03-.06.07-.07.06-.02.12-.11.06-.27l-.93-2.46s-.04-.06-.09-.06h-2.15s-.08.03-.1.08l-.6,1.77c-.09.25-.14.49-.14.67,0,.2.21.29.38.29h.1c.07,0,.1.02.1.06,0,.06-.06.08-.15.08-.24,0-.67-.03-.78-.03s-.66.03-1.13.03c-.13,0-.19-.02-.19-.08,0-.04.04-.06.09-.06.07,0,.21,0,.29-.02.46-.06.66-.44.84-.94l2.27-6.21Zm1.04,4s.05-.03.04-.07l-.95-2.7c-.05-.15-.1-.15-.15,0l-.88,2.7c-.02.05,0,.07.03.07h1.91Z"/>
        <path class="cls-2" d="m58.37,39.39c-.97-.87-1.21-2.01-1.21-2.96,0-.67.23-1.84,1.12-2.73.6-.6,1.51-1.07,3.05-1.07.4,0,.96.03,1.45.12.38.07.7.13,1.02.15.11,0,.13.05.13.11,0,.08-.03.2-.05.56-.02.33-.02.88-.03,1.03,0,.15-.03.21-.09.21-.07,0-.08-.07-.08-.21,0-.39-.16-.8-.42-1.02-.35-.3-1.12-.57-2-.57-1.33,0-1.95.39-2.3.73-.73.7-.9,1.59-.9,2.61,0,1.91,1.47,3.66,3.61,3.66.75,0,1.34-.09,1.74-.5.21-.22.34-.66.37-.84.02-.11.04-.15.1-.15.05,0,.07.07.07.15,0,.07-.12.94-.22,1.28-.06.19-.08.21-.26.29-.4.16-1.16.23-1.8.23-1.5,0-2.51-.37-3.3-1.08Z"/>
        <path class="cls-2" d="m67.62,39.39c-.97-.87-1.21-2.01-1.21-2.96,0-.67.23-1.84,1.12-2.73.6-.6,1.51-1.07,3.05-1.07.4,0,.96.03,1.45.12.38.07.7.13,1.02.15.11,0,.13.05.13.11,0,.08-.03.2-.05.56-.02.33-.02.88-.03,1.03,0,.15-.03.21-.09.21-.07,0-.08-.07-.08-.21,0-.39-.16-.8-.42-1.02-.35-.3-1.12-.57-2-.57-1.33,0-1.95.39-2.3.73-.73.7-.9,1.59-.9,2.61,0,1.91,1.47,3.66,3.61,3.66.75,0,1.34-.09,1.74-.5.21-.22.34-.66.37-.84.02-.11.04-.15.1-.15.05,0,.07.07.07.15,0,.07-.12.94-.22,1.28-.06.19-.08.21-.26.29-.4.16-1.16.23-1.8.23-1.5,0-2.51-.37-3.3-1.08Z"/>
        <path class="cls-2" d="m79.6,32.64c2.25,0,3.93,1.42,3.93,3.75s-1.58,4.09-3.99,4.09c-2.74,0-3.88-2.13-3.88-3.93,0-1.62,1.18-3.91,3.94-3.91Zm.21,7.46c.9,0,2.76-.52,2.76-3.43,0-2.4-1.46-3.69-3.04-3.69-1.67,0-2.92,1.1-2.92,3.29,0,2.33,1.4,3.83,3.2,3.83Z"/>
        <path class="cls-2" d="m86.57,35.67c0-1.56,0-1.84-.02-2.16-.02-.34-.1-.5-.43-.57-.08-.02-.25-.03-.34-.03-.04,0-.08-.02-.08-.06,0-.06.05-.08.16-.08.45,0,1.06.03,1.15.03s.69-.03.99-.03c.11,0,.16.02.16.08,0,.04-.04.06-.08.06-.07,0-.13,0-.25.03-.27.04-.35.22-.37.57-.02.32-.02.6-.02,2.16v1.4c0,1.44.32,2.06.75,2.47.49.46.94.55,1.51.55.61,0,1.21-.29,1.57-.72.46-.57.58-1.42.58-2.45v-1.25c0-1.56,0-1.84-.02-2.16-.02-.34-.1-.5-.43-.57-.08-.02-.25-.03-.34-.03-.04,0-.08-.02-.08-.06,0-.06.05-.08.16-.08.45,0,1,.03,1.06.03.07,0,.54-.03.84-.03.11,0,.16.02.16.08,0,.04-.04.06-.08.06-.07,0-.13,0-.25.03-.27.06-.35.22-.37.57-.02.32-.02.6-.02,2.16v1.07c0,1.08-.12,2.28-.92,2.99-.72.64-1.47.74-2.06.74-.34,0-1.35-.04-2.06-.71-.49-.47-.87-1.17-.87-2.63v-1.46Z"/>
        <path class="cls-2" d="m96.92,38.97c.02.82.12,1.08.39,1.16.19.05.41.06.5.06.05,0,.08.02.08.06,0,.06-.06.08-.18.08-.57,0-.97-.03-1.06-.03s-.51.03-.96.03c-.1,0-.16-.01-.16-.08,0-.04.03-.06.08-.06.08,0,.26,0,.41-.06.25-.07.3-.36.3-1.27v-5.73c0-.39.04-.5.12-.5s.25.22.35.32c.15.17,1.64,1.78,3.18,3.43.99,1.06,2.08,2.28,2.4,2.61l-.11-5.08c0-.65-.08-.87-.39-.95-.18-.04-.41-.05-.49-.05-.07,0-.08-.03-.08-.07,0-.06.08-.07.2-.07.45,0,.93.03,1.04.03s.44-.03.85-.03c.11,0,.18,0,.18.07,0,.04-.04.07-.11.07-.05,0-.12,0-.24.03-.33.07-.37.29-.37.89l-.02,5.86c0,.66-.02.71-.09.71-.08,0-.2-.11-.73-.64-.11-.1-1.55-1.57-2.61-2.71-1.16-1.25-2.29-2.51-2.61-2.87l.13,4.79Z"/>
        <path class="cls-2" d="m109.45,37.43c0,.96,0,1.75.05,2.17.03.29.09.51.39.55.14.02.36.04.45.04.06,0,.08.03.08.06,0,.05-.05.08-.16.08-.55,0-1.18-.03-1.23-.03s-.68.03-.98.03c-.11,0-.16-.02-.16-.08,0-.03.02-.06.08-.06.09,0,.21-.02.3-.04.2-.04.25-.26.29-.55.05-.42.05-1.21.05-2.17v-4.23l-1.48.02c-.62,0-.86.08-1.02.32-.11.17-.14.24-.17.31-.03.08-.06.1-.1.1-.03,0-.05-.03-.05-.09,0-.1.2-.96.22-1.04.02-.06.06-.19.1-.19.07,0,.17.1.44.12.29.03.67.05.79.05h3.75c.32,0,.55-.02.71-.05.15-.02.24-.05.28-.05.05,0,.05.06.05.12,0,.3-.03.99-.03,1.1,0,.09-.03.13-.07.13-.05,0-.07-.03-.08-.17v-.11c-.04-.3-.28-.53-1.24-.55l-1.26-.02v4.23Z"/>
      </g>
    </g>
  </g>
</svg>