<?xml version="1.0" encoding="UTF-8"?>
<svg id="_レイヤー_2" data-name="レイヤー 2" xmlns="http://www.w3.org/2000/svg" viewBox="0 0 11.57 15.15">
  <defs>
    <style>
      .cls-1 {
        fill: #386280;
        stroke-width: 0px;
      }
    </style>
  </defs>
  <g id="design">
    <g>
      <g>
        <path class="cls-1" d="m11.42,11.13H.15l5.38-7.1c.28-.37.4-.83.34-1.29-.06-.46-.3-.87-.68-1.15-.37-.28-.83-.4-1.29-.34-.46.06-.87.3-1.15.68l-.86-.65c.45-.6,1.12-.99,1.86-1.09.75-.1,1.49.09,2.09.54.6.45.99,1.12,1.09,1.86.1.75-.09,1.49-.55,2.09l-4.08,5.38h9.12v1.07Z"/>
        <path class="cls-1" d="m11.42,11.28H.15c-.06,0-.11-.03-.13-.08-.02-.05-.02-.11.02-.16L5.41,3.93c.26-.34.37-.76.31-1.18-.06-.42-.28-.8-.62-1.05-.34-.26-.76-.37-1.18-.31-.42.06-.8.28-1.05.62-.02.03-.06.05-.1.06-.04,0-.08,0-.11-.03l-.86-.65c-.07-.05-.08-.14-.03-.21C2.25.54,2.94.14,3.73.03c.78-.11,1.57.09,2.2.57s1.04,1.18,1.15,1.96c.11.79-.09,1.57-.57,2.2l-3.89,5.14h8.81c.08,0,.15.07.15.15v1.07c0,.08-.07.15-.15.15Zm-10.97-.3h10.82v-.77H2.31c-.06,0-.11-.03-.13-.08-.02-.05-.02-.11.02-.16l4.08-5.38c.43-.57.61-1.27.52-1.98s-.46-1.33-1.03-1.76c-.57-.43-1.27-.61-1.98-.51-.66.09-1.24.41-1.67.92l.62.47c.3-.34.71-.56,1.16-.62.5-.07,1,.06,1.4.37.4.3.67.75.73,1.25.07.5-.06,1-.37,1.4L.45,10.98Z"/>
      </g>
      <g>
        <rect class="cls-1" x="7.95" y="2.6" width="1.07" height="12.4"/>
        <path class="cls-1" d="m9.03,15.15h-1.07c-.08,0-.15-.07-.15-.15V2.6c0-.08.07-.15.15-.15h1.07c.08,0,.15.07.15.15v12.4c0,.08-.07.15-.15.15Zm-.92-.3h.77V2.75h-.77v12.09Z"/>
      </g>
    </g>
  </g>
</svg>