<?xml version="1.0" encoding="UTF-8"?>
<svg id="_レイヤー_2" data-name="レイヤー 2" xmlns="http://www.w3.org/2000/svg" viewBox="0 0 25.18 25.18">
  <defs>
    <style>
      .cls-1 {
        fill: none;
        stroke: #39385d;
        stroke-miterlimit: 10;
      }

      .cls-2 {
        fill: #39385d;
        stroke-width: 0px;
      }
    </style>
  </defs>
  <g id="design">
    <g>
      <g>
        <path class="cls-2" d="m17.52,8.1c.72.81,1.24,1.73,1.5,2.8,0,.03,0,.06,0,.09.06.34.13.68.19,1.02.03.16.03.33.04.49-.04.01-.08.02-.12.03,0,.01,0,.02,0,.04.04,0,.08.02.12.03-.01.07-.04.14-.04.2.01,1.14-.35,2.18-.93,3.15-.22.37-.51.7-.77,1.04-.11.11-.23.23-.34.34-.36.28-.73.56-1.09.83-.06.04-.14.07-.21.1-.03.02-.06.03-.1.05-.11.06-.23.13-.34.19-.12-.1-.14-.03-.15.08-.32.11-.65.23-.97.34-.02-.03-.04-.05-.06-.08-.03.03-.06.05-.08.08-.29.07-.59.19-.88.19-.64,0-1.29.01-1.91-.11-.38-.08-.8-.12-1.14-.33-.22-.14-.47-.15-.67-.32,0-.1,0-.22-.15-.1-.24-.16-.48-.32-.73-.48,0-.1,0-.22-.14-.1-.05-.05-.1-.1-.15-.14,0-.1,0-.22-.14-.1-.15-.15-.29-.29-.44-.44,0-.11.01-.22-.15-.2l-.09-.1c0-.11,0-.21-.15-.19-.16-.24-.32-.48-.48-.73-.02-.03-.04-.07-.06-.1-.06-.13-.12-.26-.18-.39-.06-.12-.15-.22-.19-.35-.08-.28-.1-.58-.21-.83-.11-.26-.17-.51-.18-.79-.01-.25-.02-.49-.04-.74.02-.02.05-.03.07-.05-.02-.02-.05-.03-.07-.05.07-.29.36-.4.58-.2.13.12.28.23.16.48-.07.14-.02.33-.02.5-.01.01-.02.03-.04.04.01,0,.03,0,.04,0,.06.29.13.58.19.88-.01.01-.02.02-.04.04.01,0,.02,0,.04,0,.05.12.1.23.15.35l.04.05c.1.24.19.48.29.72-.01.01-.02.02-.03.03.01,0,.02,0,.04,0,.21.29.41.59.64.86.29.33.61.63.92.94.03.01.06.03.09.04.15.09.31.17.46.26.19.12.37.25.56.37.06.03.12.05.18.08.19.07.39.15.58.22.03.01.07.02.1.04.29.05.58.09.86.14.3.05.6.07.89.06.42-.02.84-.11,1.26-.16.08-.01.16-.02.24-.03l.14-.05c.21-.08.42-.16.63-.24.13.12.14.03.15-.08.08-.04.16-.07.24-.11.03-.02.06-.04.1-.05.21-.14.42-.28.62-.42.02-.01.04-.03.06-.04.62-.49,1.14-1.07,1.53-1.76.07-.13.14-.26.21-.38.03-.05.06-.1.1-.15.07-.21.14-.41.21-.62.01-.02.02-.04.04-.05.06-.32.13-.64.17-.96.03-.3,0-.61.03-.91.05-.5-.14-.97-.16-1.46-.01-.03-.03-.06-.04-.09-.13-.27-.29-.53-.37-.81-.13-.43-.41-.76-.68-1.08-.31-.37-.68-.69-1.02-1.02-.02-.01-.04-.03-.06-.04-.21-.13-.41-.26-.62-.39-.02-.03-.04-.06-.05-.09-.2-.08-.4-.16-.6-.24-.07-.03-.15-.04-.22-.07l-.1-.04c-.28-.08-.56-.19-.85-.23-.36-.05-.73-.04-1.09-.06-.12,0-.24,0-.36,0-.55,0-1.08.14-1.6.3-.37.11-.65.36-.98.53-.03.02-.06.03-.1.05-.21.1-.42.2-.63.3-.01.01-.02.02-.03.04-.15.18-.3.36-.45.53-.1.11-.22.2-.33.31-.03,0-.06,0-.09,0,.01.02.03.05.04.07,0,.01,0,.03,0,.04-.03.03-.06.07-.09.1-.07.05-.13.1-.2.15-.01,0-.02,0-.04,0,.01.01.02.02.04.03-.07.11-.15.22-.22.34-.02.03-.04.06-.05.1,0,.03,0,.07,0,.1-.18.46-.36.92-.54,1.38-.08.21-.36.37-.51.31-.17-.07-.24-.34-.16-.57l.12-.05s-.05-.06-.08-.09c.4-1.22,1.04-2.29,2.01-3.14.02-.01.04-.03.06-.04,2.32-1.93,5.7-2.05,8.17-.25.02.01.04.02.05.04.18.15.35.3.53.45l.34.34Z"/>
        <path class="cls-2" d="m3.88,8.1s-.07.09-.1.14c-.17.3-.14.37.16.55.41.24.82.48,1.23.72.14.08.21.34.14.47-.08.17-.32.25-.48.15-.6-.34-1.19-.7-1.8-1.04-.16-.09-.21-.23-.17-.38.1-.32.19-.65.36-.93.3-.53.78-.54,1.35-.29.18.08.36.19.53.29.17.1.34.2.5.29.21-.12.2-.28.09-.43-.28-.35-.57-.68-.86-1.02-.1-.12-.21-.24-.31-.36-.12-.15-.1-.43.05-.52.15-.1.34-.12.47.04.44.51.89,1,1.29,1.54.31.42.17.9-.13,1.26-.24.28-.73.26-1.13.03-.35-.2-.71-.36-1.07-.54-.04.01-.08.02-.12.03Z"/>
        <path class="cls-2" d="m3.83,16.83c-.29-.03-.55-.03-.81-.08-.3-.07-.38-.29-.22-.55.04-.06.13-.12.2-.11.31,0,.62.04.93.03.13,0,.28-.01.35-.2.09-.25.24-.49.37-.73.11-.21.33-.29.51-.21.15.07.22.32.13.52-.1.21-.2.42-.32.65.26.02.51.05.76.06.19,0,.3.08.32.28.02.25-.07.4-.29.4-.35,0-.71,0-1.06,0-.03,0-.08,0-.1.02-.23.28-.28.88-.1,1.19.15.26.22.28.47.14.4-.23.8-.49,1.21-.7.12-.06.31-.06.45-.02.16.05.17.23.14.37-.02.08-.08.17-.15.21-.55.33-1.11.66-1.67.98-.27.16-.38.13-.61-.08-.31-.3-.61-.61-.69-1.07-.06-.34.04-.65.13-.96.01-.04.03-.09.04-.13Z"/>
        <path class="cls-2" d="m20.71,9.21c-.11.16-.24.31-.32.48-.12.24-.29.38-.45.32-.24-.1-.35-.32-.22-.57.18-.35.41-.68.64-1.06-.06-.11-.15-.29-.22-.43-.38.04-.74.08-1.1.1-.19,0-.37-.05-.49-.25-.1-.17-.02-.31.07-.4.07-.07.22-.07.33-.08.16,0,.33.04.48,0,.21-.07.13-.26.09-.41-.05-.15-.07-.31.07-.4.11-.07.26-.1.39-.1.07,0,.15.1.21.17.06.08.11.17.18.28.29-.25.38-.57.51-.9.11.01.27,0,.39.05.14.07.25.18.2.4-.12.46-.41.79-.73,1.11.04.06.08.12.12.18.22.36.21.33.59.29.29-.03.6-.03.89,0,.25.02.34.2.28.46-.03.15-.27.26-.44.24-.24-.02-.47,0-.71,0,.07.23.15.39.18.56.03.16-.06.28-.21.32-.16.04-.32.04-.42-.12-.06-.1-.12-.2-.18-.3l-.06-.05s-.03.06-.05.09Z"/>
        <path class="cls-2" d="m21.49,16.55c.33-.08.65-.04.96.11.23.11.32.28.23.49-.1.23-.29.31-.52.19-.32-.17-.64-.1-.76.18-.07.15-.15.33-.13.48.03.15.17.28.29.4.16.15.24.43.14.55-.13.16-.36.17-.57.04-.3-.18-.43-.48-.58-.76-.25-.01-.51.01-.74-.05-.37-.09-.62-.35-.83-.67-.23-.36-.17-.72-.08-1.07.1-.39.4-.61.76-.81.4-.23.76-.08,1.09.04.36.14.62.44.72.85l.04.04Zm-.72.34c0-.39-.24-.61-.64-.62-.31-.01-.6.28-.58.63.02.33.28.59.61.58.33,0,.6-.28.6-.59Z"/>
        <path class="cls-2" d="m18.73,20.44c.24-.03.4.06.47.23.07.18,0,.37-.18.45-.15.07-.33.06-.5.09-.61.11-1.07.45-1.45.94-.08.1-.2.18-.32.22-.13.04-.3.04-.34-.13-.03-.13-.05-.33.02-.42.13-.18.1-.3,0-.46-.13-.2-.25-.4-.36-.61-.09-.19-.21-.27-.44-.27-.13,0-.3-.1-.37-.2-.06-.09-.03-.3.04-.38.1-.1.28-.16.44-.18.72-.09,1.26-.44,1.67-1.02.15-.2.32-.25.5-.14.19.11.26.31.1.51-.16.21-.09.36.03.54.13.2.27.41.37.63.08.17.17.24.31.21Zm-.91.19c-.16-.27-.31-.53-.47-.79-.25.14-.47.27-.72.41.14.24.27.49.42.72.02.03.14.02.2,0,.19-.1.37-.21.58-.33Z"/>
        <path class="cls-2" d="m14.39,4.66c-.31.59-.77.68-1.21.53-.14-.05-.27-.17-.37-.29-.12-.15,0-.3.11-.39.09-.07.24-.07.37-.08.12,0,.33.07.35.03.07-.13.11-.3.09-.45-.05-.25-.14-.5-.23-.74-.02-.05-.09-.11-.14-.11-.12-.02-.24-.02-.36,0-.06,0-.14.06-.17.12-.17.33-.31.67-.49.98-.07.12-.21.24-.35.29-.17.07-.29-.04-.38-.2-.24-.48-.5-.95-.74-1.43-.09-.18-.01-.38.16-.46.2-.09.41-.03.51.15.13.24.25.48.39.77.13-.25.26-.46.35-.68.1-.25.29-.3.52-.32.06,0,.13,0,.19,0,.35.05.64-.01.83-.37.11-.2.37-.22.54-.1.15.11.18.34.02.52-.23.26-.28.51-.12.83.11.22.2.46.24.7.03.16-.03.34-.05.51,0,.05-.02.09-.02.14-.01.02-.02.03-.04.05Z"/>
        <path class="cls-2" d="m7.98,22.27c-.76,0-1.44-.7-1.39-1.45.03-.5.32-.85.73-1.11.24-.16.5-.3.72-.48.17-.13.14-.23-.06-.32-.06-.03-.13-.04-.2-.07-.16-.09-.23-.23-.18-.4.04-.16.17-.29.34-.27.34.03.72.2.86.58.17.46,0,.88-.49,1.2-.28.19-.56.37-.83.57-.2.15-.23.36-.13.59.09.24.36.43.63.43.24,0,.44-.09.53-.31.09-.22.16-.45.24-.68.08-.24.26-.33.5-.22.14.07.29.14.39.25.17.18.08.48-.16.52-.15.02-.17.09-.21.2-.21.61-.71.98-1.31.97Z"/>
        <path class="cls-2" d="m8.68,3.92c-.08.29-.14.53-.21.76.36.24.41.62.07.7-.38.09-.33.38-.41.62-.07.22-.14.44-.23.66-.03.07-.14.13-.21.13-.3.01-.48-.25-.4-.53.06-.21.1-.43.17-.63.08-.21.14-.4-.1-.56-.06-.04-.08-.22-.06-.31.07-.21.24-.3.46-.29.07-.24.13-.47.21-.73-.08.02-.15.04-.2.06-.21.1-.35.03-.46-.15-.11-.18-.06-.35.1-.46.32-.2.65-.4.99-.56.11-.05.36-.02.42.07.23.34.42.71.61,1.08.06.12.17.29-.04.4-.18.1-.46.07-.59-.08-.03-.03-.05-.07-.12-.18Z"/>
        <path class="cls-2" d="m23.23,11.49c0,.21.11.43-.05.63-.01,0-.02,0-.04,0,.01.01.02.02.04.04-.05.13-.11.25-.17.41.25.24.32.61.23.95-.06.25-.29.47-.49.66-.14.14-.32.28-.57.21-.25-.07-.35-.17-.35-.42,0-.24.13-.31.35-.32.19,0,.39-.23.38-.4,0-.18-.19-.34-.42-.34-.44,0-.89,0-1.33-.01-.26,0-.39-.17-.33-.41.04-.18.17-.3.38-.3.41,0,.82.01,1.23,0,.12,0,.27-.06.36-.15.07-.06.11-.23.07-.31-.05-.1-.17-.21-.28-.23-.26-.06-.42-.2-.4-.44.02-.22.15-.33.44-.29.42.05.75.26.92.67.01.02.03.03.04.05Z"/>
        <path class="cls-2" d="m2.78,12.4c-.02.39.04.44.42.55.12.03.25.2.28.33.04.23.02.48,0,.72-.01.23-.18.34-.43.34-.24,0-.28-.17-.29-.36,0-.13,0-.26,0-.39-.5-.22-.77-.59-.73-1.15.03-.34.18-.6.49-.77.23-.12.24-.32.24-.55,0-.11.09-.28.17-.31.12-.04.3-.02.41.04.08.05.13.21.13.33,0,.24-.02.47-.04.71-.02.21-.18.27-.35.32-.1.02-.18.09-.28.14-.01.02-.02.04-.04.05Z"/>
        <path class="cls-2" d="m12.51,23.39c-.4-.01-.81-.07-1.15-.34-.18-.14-.23-.33-.12-.48.13-.17.31-.21.5-.1.44.27.9.22,1.36.09.11-.03.22-.09.31-.16.06-.05.12-.16.1-.22-.02-.06-.12-.12-.19-.14-.28-.08-.41-.21-.38-.42.03-.22.19-.29.52-.27.41.03.62.27.74.62.14.4-.06.82-.42,1.07-.37.26-.8.35-1.26.35Z"/>
        <path class="cls-2" d="m12.75,20c.44-.04.84.07,1.22.28.14.08.22.32.16.47-.07.16-.32.24-.48.16-.03-.01-.06-.03-.08-.05-.21-.13-.41-.21-.67-.15-.27.06-.54.06-.81.12-.15.03-.26.14-.22.32.01.06.08.14.14.15.3.07.45.24.39.46-.07.23-.37.34-.63.25-.42-.15-.66-.47-.66-.88,0-.38.2-.7.58-.89.34-.17.69-.26,1.06-.23Z"/>
        <path class="cls-2" d="m16.35,4.78c.15-.02.3-.04.46-.06.19-.03.45.03.54.27.06.17.16.32.25.49.18-.01.36-.03.55-.04.27,0,.43.11.44.31.02.25-.1.38-.38.41-.25.03-.51.03-.76.05-.23.02-.4-.07-.46-.29-.1-.38-.34-.51-.71-.44-.31.06-.49-.09-.6-.37-.08-.2-.18-.4-.27-.6-.09-.19-.03-.4.14-.49.19-.1.41-.02.51.18,0,.01,0,.03.01.05.08.16.16.32.27.52Z"/>
        <path class="cls-2" d="m17.5,4.23c-.22,0-.44.02-.65,0-.12-.02-.28-.08-.33-.17-.17-.29-.32-.59-.42-.91-.03-.1.1-.31.22-.38.17-.11.35,0,.45.16.11.18.19.38.3.59.14-.02.3-.04.45-.06.25-.05.44.05.55.28.04.08.08.17.13.25.04.08.08.15.12.25.19-.02.38-.05.58-.06.22,0,.4.13.41.3.02.23-.1.39-.35.41-.27.03-.54.03-.81.05-.21.01-.35-.07-.43-.26-.07-.16-.15-.31-.23-.47Z"/>
        <path class="cls-2" d="m4.85,10.84c.03.11.09.22.09.32,0,.92,0,1.84,0,2.75,0,.24-.13.41-.33.42-.28.02-.4-.08-.4-.37,0-.73,0-1.47,0-2.2,0-.24-.03-.49.01-.72.02-.14.12-.31.23-.37.09-.04.25.08.39.12-.01.01-.02.02-.03.03.01,0,.02,0,.03,0Z"/>
        <path class="cls-2" d="m16.15,10.98c-.27-.78-.83-1.28-1.62-1.43-.75-.14-1.42.09-1.95.67-.36-.39-.78-.62-1.24-.68-1.1-.14-2.02.46-2.36,1.52-.03.11-.06.22-.08.33l-.03.14s0,.03,0,.05v.49s0,.04,0,.07c.02.07.04.14.06.21.04.17.09.33.15.49.2.47.52.9,1.01,1.35.49.45,1,.89,1.5,1.33l.48.42c.17.15.33.23.5.23s.33-.08.5-.22l.37-.32c.26-.22.51-.44.76-.66l.05-.04c.5-.43,1.01-.88,1.43-1.43.61-.8.76-1.65.46-2.52Zm-5.4-.56c.11-.02.21-.04.31-.04.36,0,.68.16.95.5.05.06.09.12.14.19.15.22.31.27.42.27.12.02.29-.04.48-.28.13-.17.26-.34.41-.45.28-.2.62-.28.96-.2.34.08.63.3.8.61.32.59.29,1.18-.11,1.79-.26.4-.61.74-.95,1.04-.38.34-.77.68-1.17,1.01l-.4.34c-.22-.19-.44-.38-.66-.56-.57-.48-1.11-.94-1.59-1.49-.35-.39-.53-.75-.57-1.14-.09-.76.33-1.45.98-1.6Z"/>
      </g>
      <circle class="cls-1" cx="12.59" cy="12.59" r="12.09"/>
    </g>
  </g>
</svg>