<?xml version="1.0" encoding="UTF-8"?>
<svg id="_レイヤー_2" data-name="レイヤー 2" xmlns="http://www.w3.org/2000/svg" viewBox="0 0 107.1 107.1">
  <defs>
    <style>
      .cls-1 {
        opacity: .8;
      }

      .cls-2 {
        fill: #386280;
        stroke-width: 0px;
      }
    </style>
  </defs>
  <g id="design">
    <g class="cls-1">
      <g>
        <g>
          <g>
            <g>
              <path class="cls-2" d="m57.95,90.96h3.79c.21,0,.4-.14.46-.34.06-.2-.02-.42-.2-.54-.61-.39-.97-1.06-.97-1.78,0-1.17.95-2.13,2.13-2.13s2.13.95,2.13,2.13c0,.72-.36,1.39-.97,1.79-.18.12-.26.33-.2.54.06.2.25.34.46.34h3.8c.26,0,.48-.21.48-.48s-.21-.48-.48-.48h-2.64c.33-.5.52-1.09.52-1.71,0-1.7-1.38-3.08-3.08-3.08s-3.08,1.38-3.08,3.08c0,.62.18,1.21.51,1.7h-2.64c-.26,0-.48.21-.48.48s.21.48.48.48Z"/>
              <path class="cls-2" d="m57.95,93.17h10.42c.26,0,.48-.21.48-.48s-.21-.48-.48-.48h-10.42c-.26,0-.48.21-.48.48s.21.48.48.48Z"/>
            </g>
            <path class="cls-2" d="m76.18,30.68c-.16.17-.15.43.02.59.08.08.18.11.29.11.11,0,.22-.04.31-.13.26-.28.7-.52,1.25-.7.59-.19,1.29-.29,2.01-.29s1.41.1,2.01.29c.54.18.99.42,1.25.7.16.17.42.18.59.02.17-.16.18-.42.02-.59-.43-.46-1.14-.82-1.98-1.03,0,0,0,0,0,0v-5.35c.85-.21,1.55-.57,1.98-1.03.16-.17.15-.43-.02-.59-.17-.16-.43-.15-.59.02-.26.28-.7.52-1.25.7-.59.19-1.29.29-2.01.29s-1.41-.1-2.01-.29c-.54-.18-.99-.42-1.25-.7-.16-.17-.42-.18-.59-.02-.17.16-.18.42-.02.59.43.46,1.14.82,1.98,1.03v5.35s0,0,0,0c-.85.21-1.55.57-1.98,1.03Zm2.82-6.22c.34.04.68.07,1.04.07s.71-.02,1.04-.07v5.03c-.34-.04-.68-.07-1.04-.07s-.71.02-1.04.07v-5.03Z"/>
            <path class="cls-2" d="m47.16,12.92c-.38-.12-.8-.13-1.19-.02-.48.13-.9.42-1.24.83-.33.4-.54.89-.62,1.42l-.43,2.88-.43-2.88c-.08-.53-.29-1.02-.62-1.42-.34-.41-.76-.7-1.24-.83-.39-.11-.81-.1-1.19.02-.6.19-1.09.67-1.34,1.32-.13.33-.18.68-.17,1.02.02.37.12.73.31,1.04.12.2.37.27.57.15.2-.12.27-.37.15-.57-.23-.39-.26-.89-.08-1.34.16-.4.46-.71.81-.82.23-.07.48-.08.72-.01.63.17,1.13.8,1.25,1.56l.85,5.62s0,.04.01.06c0,0,0,0,0,0,0,0,0,0,0,.01,0,0,0,0,0,0,0,0,0,0,0,0,0,0,0,0,0,.01,0,0,0,0,0,0,0,0,0,0,0,.01,0,0,0,0,0,0,0,0,0,.01,0,.02,0,0,0,0,0,0,.02.04.04.07.07.1,0,0,0,0,0,0,0,0,0,0,.01,0,0,0,0,0,0,0,0,0,0,0,0,0,0,0,0,0,.01,0,0,0,0,0,0,0,0,0,0,0,.01,0,0,0,0,0,0,0,0,0,0,0,.01,0,0,0,0,0,0,0,0,0,0,0,.01,0,0,0,0,0,0,0,0,0,0,0,.01,0,0,0,0,0,0,0,.01,0,.03.01.04.02,0,0,0,0,.01,0,0,0,0,0,0,0,0,0,.01,0,.02,0,0,0,0,0,0,0,0,0,.01,0,.02,0,0,0,0,0,0,0,.02,0,.05.01.07.01,0,0,0,0,0,0,0,0,.02,0,.03,0,0,0,0,0,0,0,0,0,0,0,0,0,0,0,.02,0,.03,0,0,0,0,0,0,0,.02,0,.04,0,.05,0,0,0,0,0,0,0,0,0,.01,0,.02,0,0,0,0,0,0,0,0,0,.01,0,.02,0,0,0,0,0,0,0,0,0,0,0,.01,0,0,0,0,0,0,0,0,0,0,0,0,0,.02,0,.04-.02.06-.03,0,0,0,0,0,0,0,0,0,0,.01,0,0,0,0,0,0,0,0,0,0,0,.01,0,0,0,0,0,0,0,0,0,0,0,.01,0,0,0,0,0,0,0,0,0,0,0,.01,0,0,0,0,0,0,0,0,0,0,0,0,0,0,0,0,0,0,0,0,0,0,0,0,0,.02-.02.04-.05.06-.08,0,0,0,0,0,0,0,0,0-.01,0-.02,0,0,0,0,0,0,0,0,0-.01,0-.02,0,0,0,0,0,0,0,0,0,0,0-.01,0,0,0,0,0,0,0,0,0,0,0-.01,0,0,0,0,0,0,0,0,0,0,0,0,0,0,0,0,0-.01,0,0,0,0,0,0,0-.02,0-.04.01-.06l.85-5.62c.12-.76.62-1.39,1.25-1.56.24-.07.49-.06.72.01.35.11.65.42.81.82.17.45.14.95-.08,1.34-.12.2-.05.46.15.57.2.12.46.05.57-.15.18-.32.29-.67.31-1.04.02-.34-.04-.7-.17-1.02-.25-.65-.74-1.13-1.34-1.32Z"/>
            <path class="cls-2" d="m66.17,18.35c0-.81-.32-1.57-.89-2.14-.21-.21-.45-.39-.71-.53.01,0,.03-.02.04-.03.37-.26.65-.6.92-.93.49-.59.91-1.09,1.74-1.09.23,0,.42-.19.42-.42s-.19-.42-.42-.42c-.56,0-1.04.15-1.47.47-.37.26-.65.6-.92.93-.49.59-.91,1.09-1.74,1.09s-1.26-.51-1.74-1.09c-.27-.33-.55-.66-.92-.93-.44-.31-.92-.47-1.47-.47-.23,0-.42.19-.42.42s.19.42.42.42c.84,0,1.26.51,1.74,1.09.27.33.55.66.92.93.01,0,.03.02.04.03-.26.14-.5.32-.71.53-.57.57-.89,1.33-.89,2.14s.32,1.57.89,2.14c.57.57,1.33.89,2.14.89s1.57-.32,2.14-.89c.57-.57.89-1.33.89-2.14Zm-3.03,2.19c-1.21,0-2.19-.98-2.19-2.19s.98-2.19,2.19-2.19,2.19.98,2.19,2.19-.98,2.19-2.19,2.19Z"/>
            <g>
              <path class="cls-2" d="m87.43,45.65c.11,0,.23,0,.35-.03,1.14-.19,1.92-1.27,1.73-2.42-.09-.55-.39-1.04-.85-1.37-.3-.21-.64-.34-1-.38,0,0,.02-.01.03-.02l.06-.04.06-.04.03-.02s.02-.01.03-.02l.12-.07s.04-.02.06-.03l.06-.03.06-.03.06-.03s.08-.04.12-.06l.13-.05h.03s.02-.02.03-.03l.06-.02s.09-.03.13-.05l.13-.04s.09-.02.13-.04c.02,0,.04-.01.07-.02l.07-.02s.09-.02.13-.03c.09-.02.18-.04.27-.05h.07s.03-.02.03-.02h.03s.14-.02.14-.02c.02,0,.05,0,.07,0h.07s.09-.01.14-.01h.14s.09,0,.14,0h.07s.05,0,.07,0h.14s.09.01.14.02h.07s.05.01.07.01l.14.02s.09.02.14.02h.07s.05.02.07.03l.14.03s.05.01.07.02l.07.02s.09.02.13.04c.18.05.36.11.53.18.17.07.34.14.51.23.16.09.33.18.48.28.31.2.6.44.85.7h0c.16.17.43.17.59,0,.17-.16.17-.43,0-.59-.3-.31-.64-.58-.99-.82-.18-.12-.37-.23-.56-.32-.19-.1-.39-.19-.59-.26-.2-.08-.4-.15-.61-.2-.05-.02-.1-.03-.16-.04l-.08-.02s-.05-.01-.08-.02l-.16-.03s-.05-.01-.08-.02h-.08c-.05-.02-.11-.03-.16-.04l-.16-.02s-.05,0-.08,0h-.08c-.05-.01-.11-.02-.16-.02h-.16s-.05-.01-.08-.01h-.08c-.05,0-.11,0-.16,0h-.16c-.05,0-.11.01-.16.01h-.08s-.05,0-.08.01l-.16.02h-.04s-.04.01-.04.01h-.08c-.11.03-.21.05-.32.07-.05.01-.11.02-.16.04l-.08.02s-.05.01-.08.02c-.05.01-.1.03-.16.04l-.15.05c-.05.02-.1.04-.15.05l-.08.03h-.04s-.04.03-.04.03l-.15.06s-.1.05-.15.07l-.07.03-.07.04-.07.04s-.05.02-.07.04l-.14.08s-.02.01-.04.02l-.03.02-.07.04-.07.04s-.05.03-.07.05c-.04.03-.09.06-.13.09-.18.13-.34.27-.5.42-.16.15-.3.32-.44.49-.13.17-.26.36-.37.55-.01.02-.02.04-.03.06-.29.44-.41.97-.32,1.5.17,1.03,1.06,1.76,2.07,1.76Zm-1.03-2.84c.2-.27.49-.46.82-.51.07-.01.14-.02.21-.02.26,0,.52.08.73.24.27.2.46.49.51.82.11.69-.35,1.34-1.04,1.45-.07.01-.14.02-.21.02-.61,0-1.14-.44-1.24-1.06-.06-.33.02-.67.22-.94Z"/>
              <path class="cls-2" d="m93.94,42.96c-.46-.33-1.01-.46-1.57-.36-.55.09-1.04.39-1.37.85-.33.46-.46,1.01-.36,1.57.09.55.39,1.04.85,1.37.3.21.64.34,1,.38,0,0-.02.01-.03.02l-.06.04-.06.04-.03.02s-.02.01-.03.02l-.12.07s-.04.02-.06.03l-.06.03-.06.03-.06.03s-.08.04-.12.06l-.13.05h-.03s-.02.02-.03.03l-.06.02s-.09.03-.13.05l-.13.04s-.09.02-.13.04c-.02,0-.04.01-.07.02l-.07.02s-.09.02-.13.03c-.09.02-.18.04-.27.05h-.07s-.03.02-.03.02h-.03s-.14.02-.14.02c-.02,0-.05,0-.07,0h-.07s-.09.01-.14.01h-.14s-.09,0-.14,0h-.07s-.05,0-.07,0h-.14s-.09-.01-.14-.02h-.07s-.05-.01-.07-.01l-.14-.02s-.09-.02-.14-.02h-.07s-.05-.02-.07-.03l-.14-.03s-.05-.01-.07-.02l-.07-.02s-.09-.02-.13-.04c-.18-.05-.36-.11-.53-.18-.17-.07-.34-.14-.51-.23-.16-.09-.33-.18-.48-.28-.31-.2-.6-.44-.85-.7h0c-.16-.17-.43-.17-.59,0-.17.16-.17.43,0,.59.3.31.64.58.99.82.18.12.37.23.56.32.19.1.39.19.59.26.2.08.4.15.61.2.05.02.1.03.16.04l.08.02s.05.01.08.02l.16.03s.05.01.08.02h.08c.05.02.11.03.16.04l.16.02s.05,0,.08,0h.08c.05.01.11.02.16.02h.16s.05.01.08.01h.08c.05,0,.11,0,.16,0h.16c.05,0,.11-.01.16-.01h.08s.05,0,.08-.01l.16-.02h.04s.04-.01.04-.01h.08c.11-.03.21-.05.32-.07.05-.01.11-.02.16-.04l.08-.02s.05-.01.08-.02c.05-.01.1-.03.16-.04l.15-.05c.05-.02.1-.04.15-.05l.08-.03h.04s.04-.03.04-.03l.15-.06s.1-.05.15-.07l.07-.03.07-.04.07-.04s.05-.02.07-.04l.14-.08s.02-.01.04-.02l.03-.02.07-.04.07-.04s.05-.03.07-.05c.04-.03.09-.06.13-.09.18-.13.34-.27.5-.42.16-.15.3-.32.44-.49.13-.17.26-.36.37-.55.01-.02.02-.04.03-.06.29-.44.41-.97.32-1.5-.09-.55-.39-1.04-.85-1.37Zm-.2,2.44c-.2.27-.49.46-.82.51-.33.06-.67-.02-.94-.22-.27-.2-.46-.49-.51-.82-.06-.33.02-.67.22-.94.2-.27.49-.46.82-.51.07-.01.14-.02.21-.02.26,0,.52.08.73.24.27.2.46.49.51.82.06.33-.02.67-.22.94Z"/>
            </g>
            <path class="cls-2" d="m91.73,66.86c-.22-.08-.46.04-.53.26-.07.21-.41.56-.84.67-.29.07-.54,0-.76-.21-.53-.52.12-2.19.7-3.68.38-.97.77-1.96.96-2.87.23-1.12.11-1.94-.36-2.51-.26-.31-.63-.54-1.04-.65-.4-.11-.81-.09-1.16.05-.66.26-1.14.98-1.41,2.09-.18.75-.25,1.66-.22,2.68-.24-.12-.51-.19-.8-.19-.97,0-1.76.79-1.76,1.76s.79,1.76,1.76,1.76,1.76-.79,1.76-1.76c0-.13-.01-.26-.04-.39,0-.03,0-.06,0-.1-.31-3.08.32-4.78,1.03-5.06.34-.13.92-.04,1.25.36.71.85-.05,2.81-.73,4.54-.36.91-.69,1.77-.86,2.52-.09.43-.12.8-.09,1.11.04.39.19.71.44.95.32.31.71.47,1.13.47.13,0,.27-.02.41-.05.41-.1.71-.31.9-.47.26-.22.45-.48.54-.74.08-.22-.04-.46-.26-.53Zm-5.47-1.7c-.51,0-.92-.41-.92-.92s.41-.92.92-.92.92.41.92.92-.41.92-.92.92Z"/>
            <path class="cls-2" d="m22.99,84.24c.11,0,.21-.04.3-.12l1.71-1.71.98.98c.08.08.19.12.3.12s.21-.04.3-.12c.16-.16.16-.43,0-.59l-.98-.98,4.62-4.62-.11,1.63c-.02.23.16.43.39.45,0,0,.02,0,.03,0,.22,0,.4-.17.42-.39l.19-2.75c0-.12-.04-.24-.12-.33-.09-.09-.2-.13-.33-.12l-2.75.19c-.23.02-.41.22-.39.45.02.23.22.41.45.39l1.63-.11-4.62,4.62-.98-.98c-.16-.16-.43-.16-.59,0-.16.16-.16.43,0,.59l.98.98-1.71,1.71c-.16.16-.16.43,0,.59.08.08.19.12.3.12Zm7.26-7.68v.02s0,0,0,0c0,0,0,0,0,0h.02Z"/>
            <g>
              <path class="cls-2" d="m11.6,44.22c.08.12.21.18.35.18.08,0,.17-.02.24-.07l1.71-1.18,1.71,1.18c.14.1.33.1.48,0l1.71-1.18,1.71,1.18c.14.1.33.1.48,0l1.94-1.34c.19-.13.24-.39.11-.58-.13-.19-.39-.24-.58-.11l-1.71,1.18-1.71-1.18c-.14-.1-.33-.1-.48,0l-1.71,1.18-1.71-1.18c-.14-.1-.33-.1-.48,0l-1.94,1.34c-.19.13-.24.39-.11.58Z"/>
              <path class="cls-2" d="m21.42,44.78l-1.71,1.18-1.71-1.18c-.14-.1-.33-.1-.48,0l-1.71,1.18-1.71-1.18c-.14-.1-.33-.1-.48,0l-1.94,1.34c-.19.13-.24.39-.11.58.08.12.21.18.35.18.08,0,.17-.02.24-.07l1.71-1.18,1.71,1.18c.14.1.33.1.48,0l1.71-1.18,1.71,1.18c.14.1.33.1.48,0l1.94-1.34c.19-.13.24-.39.11-.58-.13-.19-.39-.24-.58-.11Z"/>
            </g>
            <path class="cls-2" d="m29.23,31.49c.08.08.18.11.29.11.11,0,.22-.04.31-.13.16-.17.15-.43-.02-.59-.34-.32-.64-.85-.85-1.51-.19-.59-.31-1.27-.34-1.98h1.14c.23,0,.42-.19.42-.42s-.19-.42-.42-.42h-1.14c.03-.71.15-1.39.34-1.98.21-.66.51-1.19.85-1.51.17-.16.18-.42.02-.59-.16-.17-.42-.18-.59-.02-.84.79-1.38,2.34-1.46,4.1h-2.62c-.07-1.77-.62-3.31-1.46-4.1-.17-.16-.43-.15-.59.02-.16.17-.15.43.02.59.34.32.64.85.85,1.51.19.59.31,1.27.34,1.98h-1.09c-.23,0-.42.19-.42.42s.19.42.42.42h1.09c-.03.71-.15,1.39-.34,1.98-.21.66-.51,1.19-.85,1.51-.17.16-.18.42-.02.59.08.09.19.13.31.13.1,0,.21-.04.29-.11.84-.79,1.38-2.34,1.46-4.1h2.62c.07,1.77.62,3.31,1.46,4.1Z"/>
            <path class="cls-2" d="m77.47,76.9c.51-.33.8-.4.95-.4.05.12.13.45.18,1.26.04.65.05,1.49.04,2.5-.03,1.74-.13,3.39-.13,3.4-.01.23.16.43.39.45,0,0,.02,0,.03,0,.22,0,.4-.17.42-.39,0-.02.12-1.88.14-3.75.01-1.07-.01-1.93-.07-2.58.12-.1.37-.31.67-.5.51-.32.8-.39.94-.4.04.1.1.34.15.86.05.48.07,1.11.08,1.88,0,1.41-.06,2.97-.1,3.77-.03.66.14,1.3.5,1.84-.52.34-1.14.64-1.83.87-.22.07-.34.31-.26.53.06.18.22.29.4.29.04,0,.09,0,.13-.02.81-.27,1.53-.62,2.14-1.04.27.22.56.35.87.39.02,0,.04,0,.06,0,.21,0,.39-.15.42-.36.03-.23-.13-.44-.36-.47-.1-.01-.2-.05-.29-.1.06-.06.13-.12.19-.18.63-.64,1.01-1.35,1.07-2,.05-.56-.16-1.03-.57-1.25-.32-.17-.65-.18-.94-.02-.25.14-.46.4-.63.79.04-.93.08-2.19.06-3.32-.01-.84-.05-1.51-.12-2-.08-.58-.21-1.14-.66-1.24-.45-.11-1,.06-1.7.51-.13.08-.24.16-.35.24,0-.02-.01-.05-.02-.07-.04-.14-.16-.58-.54-.67-.45-.11-1,.06-1.7.51-.15.1-.29.19-.4.28-.03-.18-.07-.26-.11-.32-.28-.45-.73-.66-1.27-.6-.36.04-.64.2-.67.22-.2.11-.27.37-.16.57.11.2.37.27.57.16,0,0,.16-.09.35-.11.2-.02.34.03.44.19.02.06.07.33.1,1.32.01.63.01,1.45,0,2.44-.03,1.69-.09,3.31-.09,3.33,0,.23.17.43.4.44,0,0,.01,0,.02,0,.22,0,.41-.18.42-.4,0-.02.07-1.72.1-3.47.02-1.03.02-1.87,0-2.51,0-.09,0-.17,0-.25.01,0,.03-.02.04-.03,0,0,.32-.29.73-.55Zm5.08,6.52c.16-.79.38-1.16.52-1.24,0,0,.02,0,.03,0,.02,0,.05,0,.1.03.1.05.15.22.13.44-.04.45-.34.99-.83,1.49-.03.03-.05.05-.08.08.02-.21.06-.5.13-.8Z"/>
            <path class="cls-2" d="m40.96,85.43c-.02-.07-.05-.11-.07-.15-.28-.45-.73-.66-1.27-.6-.36.04-.64.2-.67.22-.2.11-.27.37-.16.57.11.2.37.27.57.16,0,0,.16-.09.35-.11.2-.02.34.03.44.19.02.06.07.33.1,1.32.01.63.01,1.45,0,2.44-.03,1.69-.09,3.31-.09,3.33,0,.23.17.43.4.44,0,0,.01,0,.02,0,.22,0,.41-.18.42-.4,0-.02.07-1.72.1-3.47.02-1.03.02-1.87,0-2.51,0-.16-.01-.31-.02-.44.02-.01.03-.02.05-.04,0,0,.32-.29.73-.55.51-.33.8-.4.95-.4.05.12.13.45.18,1.26.04.65.05,1.49.04,2.5-.03,1.74-.13,3.39-.13,3.4-.01.23.16.43.39.45,0,0,.02,0,.03,0,.22,0,.4-.17.42-.39,0-.02.12-1.88.14-3.75.01-1.05-.01-1.91-.06-2.55.12-.1.37-.31.67-.5.52-.34.81-.41.95-.42.07.16.2.7.21,2.34,0,1.21-.06,2.54-.1,3.23-.04.69.21,1.36.71,1.87.26.27.55.46.85.57l-.48.14c-.22.06-.35.3-.29.52.05.18.22.3.4.3.04,0,.08,0,.12-.02l1.61-.46c.12-.03.21-.12.26-.23.05-.11.05-.24,0-.35l-.67-1.53c-.09-.21-.34-.31-.55-.22-.21.09-.31.34-.22.55l.23.52c-.23-.04-.45-.18-.66-.39-.33-.35-.5-.79-.47-1.24.05-.77.12-2.27.1-3.57-.01-.73-.05-1.32-.12-1.74-.04-.27-.1-.48-.16-.64-.11-.27-.28-.43-.5-.48-.44-.09-1,.08-1.69.54-.12.08-.24.16-.34.24,0-.03-.02-.06-.02-.09-.04-.14-.16-.58-.54-.67-.45-.11-1,.06-1.7.51-.17.11-.32.22-.45.31Z"/>
            <path class="cls-2" d="m13.86,58.86s.16-.09.35-.11c.2-.02.34.03.44.19.02.06.07.33.1,1.32.01.63.01,1.45,0,2.44-.03,1.69-.09,3.31-.09,3.33,0,.23.17.43.4.44,0,0,.01,0,.02,0,.22,0,.41-.18.42-.4,0-.02.07-1.72.1-3.47.01-.82.01-1.52,0-2.1.05-.03.09-.07.13-.11,0,0,.33-.45.82-.79.6-.41,1.12-.48,1.6-.19.02.01.52.34.52,3.55,0,1.54-.11,3.03-.13,3.32-.18.17-.36.34-.51.5-.26.25-.48.47-.64.59-.44.33-.8.47-.98.52-.05.01-.09.02-.14.03-.21.03-.37.23-.36.45.02.21.18.37.39.39.08,0,.15,0,.21-.04.24-.05.75-.21,1.38-.69.21-.16.45-.39.73-.67.1-.1.21-.21.32-.31.25.3.63.67,1.15.93.32.16.7.23,1.08.19.41-.04.79-.2,1.09-.45.37-.31.66-.96.51-1.58-.08-.33-.35-.92-1.29-1.16-.59-.15-1.23,0-1.95.49-.03.02-.06.04-.09.06.04-.65.08-1.6.08-2.57,0-1.03-.05-1.89-.15-2.54-.14-.95-.39-1.5-.78-1.73-.43-.26-.9-.35-1.39-.27-.37.06-.75.23-1.12.49-.19.13-.37.28-.51.42-.04-.55-.11-.71-.17-.81-.28-.45-.73-.66-1.27-.6-.36.04-.64.2-.67.22-.2.11-.27.37-.16.57.11.2.37.27.57.16Zm6.12,7.3c.51-.34.93-.47,1.28-.38.39.1.62.28.68.54.07.28-.07.61-.24.76-.37.32-.92.31-1.25.15-.4-.2-.71-.51-.9-.74.14-.12.29-.23.43-.32Z"/>
          </g>
          <g>
            <g>
              <path class="cls-2" d="m75.28,61.86c.62,0,1.2-.24,1.63-.68s.68-1.02.68-1.63-.24-1.2-.68-1.63c-.44-.44-1.02-.68-1.63-.68s-1.2.24-1.63.68-.68,1.02-.68,1.63.24,1.2.68,1.63,1.02.68,1.63.68Zm0-4.15c1.02,0,1.84.83,1.84,1.84s-.83,1.84-1.84,1.84-1.84-.83-1.84-1.84.83-1.84,1.84-1.84Z"/>
              <path class="cls-2" d="m75.28,59.99c.24,0,.44-.2.44-.44s-.2-.44-.44-.44-.44.2-.44.44.2.44.44.44Z"/>
            </g>
            <g>
              <path class="cls-2" d="m46.18,33.68c.21.21.45.37.72.48.26.11.54.16.82.16s.56-.05.82-.16c.27-.11.51-.27.72-.48.21-.21.37-.45.48-.72.11-.26.16-.54.16-.82s-.05-.56-.16-.82c-.08-.21-.2-.4-.34-.57l1.13-1.13-.05.47c-.01.11.07.21.18.22,0,0,.01,0,.02,0,.1,0,.19-.08.2-.18l.1-1.04c0-.06-.02-.12-.06-.16-.04-.04-.1-.06-.16-.06l-1.04.1c-.11.01-.19.11-.18.22.01.11.11.19.22.18l.47-.05-1.13,1.13c-.17-.14-.36-.26-.57-.34-.26-.11-.54-.16-.82-.16s-.56.05-.82.16c-.27.11-.51.27-.72.48-.21.21-.37.45-.48.72-.11.26-.16.54-.16.82s.05.56.16.82c.11.27.27.51.48.72Zm.29-2.8c.33-.33.78-.52,1.25-.52s.92.18,1.25.52c.33.33.52.78.52,1.25s-.18.92-.52,1.25c-.33.33-.78.52-1.25.52s-.92-.18-1.25-.52c-.33-.33-.52-.78-.52-1.25s.18-.92.52-1.25Z"/>
              <path class="cls-2" d="m45.76,74.47c-.21.21-.37.45-.48.72-.11.26-.16.54-.16.82s.05.56.16.82c.11.27.27.51.48.72.21.21.45.37.72.48.26.11.54.16.82.16s.56-.05.82-.16c.27-.11.51-.27.72-.48.21-.21.37-.45.48-.72.11-.26.16-.54.16-.82s-.05-.56-.16-.82c-.08-.21-.2-.4-.34-.57l1.13-1.13-.05.47c-.01.11.07.21.18.22,0,0,.01,0,.02,0,.1,0,.19-.08.2-.18l.1-1.04c0-.06-.02-.12-.06-.16-.04-.04-.1-.06-.16-.06l-1.04.1c-.11.01-.19.11-.18.22.01.11.11.19.22.18l.47-.05-1.13,1.13c-.17-.14-.36-.26-.57-.34-.26-.11-.54-.16-.82-.16s-.56.05-.82.16c-.27.11-.51.27-.72.48Zm2.8.29c.33.33.52.78.52,1.25s-.18.92-.52,1.25c-.33.33-.78.52-1.25.52s-.92-.18-1.25-.52c-.33-.33-.52-.78-.52-1.25s.18-.92.52-1.25c.33-.33.78-.52,1.25-.52s.92.18,1.25.52Z"/>
              <path class="cls-2" d="m67.74,34.65c-.09.07-.1.2-.03.29l.44.55s-.1.08-.14.13c-.36.36-.56.84-.56,1.36s.2.99.56,1.36c.31.31.72.5,1.15.55v.9h-.53c-.11,0-.2.09-.2.2s.09.2.2.2h.53v.47c0,.11.09.2.2.2s.2-.09.2-.2v-.47h.53c.11,0,.2-.09.2-.2s-.09-.2-.2-.2h-.53v-.9c.43-.05.84-.24,1.15-.55.36-.36.56-.84.56-1.36s-.2-.99-.56-1.36c-.05-.05-.09-.09-.14-.13l.44-.55c.07-.09.06-.22-.03-.29-.09-.07-.22-.06-.29.03l-.46.58c-.27-.14-.56-.21-.87-.21s-.61.07-.87.21l-.46-.58c-.07-.09-.2-.1-.29-.03Zm.76,1.08s.05-.02.07-.04c.01,0,.02-.02.03-.03.22-.13.48-.21.76-.21s.54.08.76.21c0,.01.02.02.03.03.02.02.05.03.07.04.39.27.65.73.65,1.24,0,.83-.68,1.51-1.51,1.51s-1.51-.68-1.51-1.51c0-.51.26-.96.65-1.24Z"/>
              <path class="cls-2" d="m68.03,67.01c-.07-.09-.2-.1-.29-.03-.09.07-.1.2-.03.29l.44.55s-.1.08-.14.13c-.36.36-.56.84-.56,1.36s.2.99.56,1.36c.31.31.72.5,1.15.55v.9h-.53c-.11,0-.2.09-.2.2s.09.2.2.2h.53v.47c0,.11.09.2.2.2s.2-.09.2-.2v-.47h.53c.11,0,.2-.09.2-.2s-.09-.2-.2-.2h-.53v-.9c.43-.05.84-.24,1.15-.55.36-.36.56-.84.56-1.36s-.2-.99-.56-1.36c-.05-.05-.09-.09-.14-.13l.44-.55c.07-.09.06-.22-.03-.29-.09-.07-.22-.06-.29.03l-.46.58c-.27-.14-.56-.21-.87-.21s-.61.07-.87.21l-.46-.58Zm.54,1.01s.02-.02.03-.03c.22-.13.48-.21.76-.21s.54.08.76.21c0,.01.02.02.03.03.02.02.05.03.07.04.39.27.65.73.65,1.24,0,.83-.68,1.51-1.51,1.51s-1.51-.68-1.51-1.51c0-.51.26-.96.65-1.24.03,0,.05-.02.07-.04Z"/>
              <path class="cls-2" d="m59.91,33.16h-.53v-.9c.43-.05.84-.24,1.15-.55.36-.36.56-.84.56-1.36s-.2-.99-.56-1.36c-.36-.36-.84-.56-1.36-.56s-.99.2-1.36.56c-.36.36-.56.84-.56,1.36s.2.99.56,1.36c.31.31.72.5,1.15.55v.9h-.53c-.11,0-.2.09-.2.2s.09.2.2.2h.53v.47c0,.11.09.2.2.2s.2-.09.2-.2v-.47h.53c.11,0,.2-.09.2-.2s-.09-.2-.2-.2Zm-.73-1.3c-.83,0-1.51-.68-1.51-1.51s.68-1.51,1.51-1.51,1.51.68,1.51,1.51-.68,1.51-1.51,1.51Z"/>
              <path class="cls-2" d="m59.7,72.56c-.51,0-.99.2-1.36.56-.36.36-.56.84-.56,1.36s.2.99.56,1.36c.31.31.72.5,1.15.55v.9h-.53c-.11,0-.2.09-.2.2s.09.2.2.2h.53v.47c0,.11.09.2.2.2s.2-.09.2-.2v-.47h.53c.11,0,.2-.09.2-.2s-.09-.2-.2-.2h-.53v-.9c.43-.05.84-.24,1.15-.55.36-.36.56-.84.56-1.36s-.2-.99-.56-1.36c-.36-.36-.84-.56-1.36-.56Zm0,3.43c-.83,0-1.51-.68-1.51-1.51s.68-1.51,1.51-1.51,1.51.68,1.51,1.51-.68,1.51-1.51,1.51Z"/>
              <path class="cls-2" d="m74.23,49.49c.25.25.54.45.87.59.34.14.7.22,1.06.22.34,0,.67-.06.98-.18.08-.03.13-.11.13-.19s-.05-.16-.13-.19c-.89-.34-1.49-1.22-1.49-2.17s.6-1.83,1.49-2.17c.08-.03.13-.11.13-.19s-.05-.16-.13-.19c-.31-.12-.64-.18-.98-.18-.37,0-.73.07-1.06.22-.33.14-.62.33-.87.59-.25.25-.45.54-.59.87-.14.34-.22.7-.22,1.06s.07.73.22,1.06c.14.33.33.62.59.87Zm1.93-4.26c.11,0,.22,0,.33.02-.3.19-.56.44-.76.74-.32.46-.49,1-.49,1.57s.17,1.11.49,1.57c.21.3.47.54.76.74-.11.02-.22.02-.33.02-1.28,0-2.33-1.04-2.33-2.33s1.04-2.33,2.33-2.33Z"/>
              <path class="cls-2" d="m33.6,61.87s-.2.1-.43.11c-.3.02-.52-.1-.67-.36-.17-.3,0-.66.19-1.08.12-.25.24-.51.29-.77.06-.33,0-.61-.18-.86-.18-.25-.4-.39-.68-.42-.28-.03-.58.05-.92.25-.04.02-.08.05-.12.07v-1.52h.56c.11,0,.2-.09.2-.2s-.09-.2-.2-.2h-.56v-.5c0-.11-.09-.2-.2-.2s-.2.09-.2.2v.5h-.56c-.11,0-.2.09-.2.2s.09.2.2.2h.56v4.91c0,.11.09.2.2.2s.2-.09.2-.2v-2.89s.16-.13.33-.23c.18-.1.43-.22.67-.19.16.02.28.1.39.25.24.34.1.69-.15,1.22-.11.23-.22.46-.27.69-.07.29-.04.54.09.76.13.22.29.38.5.47.14.06.3.1.47.1.03,0,.05,0,.08,0,.32-.02.58-.15.59-.15.1-.05.14-.17.09-.27-.05-.1-.17-.14-.27-.09Z"/>
              <path class="cls-2" d="m33.6,49.84s-.2.1-.43.11c-.3.02-.52-.1-.67-.36-.17-.3,0-.66.19-1.08.12-.25.24-.51.29-.77.06-.33,0-.61-.18-.86-.18-.25-.4-.39-.68-.42-.28-.03-.58.05-.92.25-.04.02-.08.05-.12.07v-1.52h.56c.11,0,.2-.09.2-.2s-.09-.2-.2-.2h-.56v-.5c0-.11-.09-.2-.2-.2s-.2.09-.2.2v.5h-.56c-.11,0-.2.09-.2.2s.09.2.2.2h.56v4.91c0,.11.09.2.2.2s.2-.09.2-.2v-2.89s.16-.13.33-.23c.18-.1.43-.22.67-.19.16.02.28.1.39.25.24.34.1.69-.15,1.22-.11.23-.22.46-.27.69-.07.29-.04.54.09.76.13.22.29.38.5.47.14.06.3.1.47.1.03,0,.05,0,.08,0,.32-.02.58-.15.59-.15.1-.05.14-.17.09-.27-.05-.1-.17-.14-.27-.09Z"/>
              <path class="cls-2" d="m39.35,71.5c0-.11-.09-.2-.2-.2h-.48v-4.39c0-.11-.09-.2-.2-.2s-.2.09-.2.2v4.39h-2.11c.25-.16.54-.37.82-.64.32-.31.57-.65.74-1.01.22-.44.32-.91.33-1.41,0-.38-.1-.75-.29-1.03-.21-.31-.51-.5-.85-.53-.29-.02-.6.09-.87.31-.29.24-.49.58-.56.97-.02.11.05.22.16.24.11.02.22-.05.24-.16.05-.29.2-.55.42-.73.18-.15.4-.23.58-.22.27.02.45.2.54.35.14.21.22.5.22.8,0,1.26-.77,2.28-2.27,3.03-.05.02-.08.04-.1.05,0,0,0,0,0,0,0,0,0,0,0,0,0,0,0,0,0,0,0,0,0,0-.01,0,0,0,0,0,0,0,0,0,0,0,0,0,0,0,0,0,0,0,0,0,0,0,0,0,0,0,0,0,0,0,0,0,0,0,0,0,0,0,0,0,0,0,0,0,0,0,0,0,0,0,0,0,0,0,0,0,0,0,0,0,0,0,0,0,0,0,0,0,0,0,0,.01,0,0,0,0,0,0,0,0,0,0,0,.01,0,0,0,0,0,0,0,0,0,0,0,.01,0,0,0,0,0,0,0,0,0,0,0,0,0,0,0,0,0,.01,0,0,0,0,0,0,0,0,0,0,0,0,0,0,0,0,0,.01,0,0,0,0,0,0,0,0,0,0,0,.01,0,0,0,0,0,0,0,0,0,0,0,0,0,0,0,0,0,0,0,0,0,0,0,0,0,0,0,0,0,.01,0,0,0,0,0,0,0,0,0,0,0,.01,0,0,0,0,0,0,0,0,0,0,0,0,0,0,0,.01.01.02,0,0,0,0,0,0,0,0,.01.01.02.02,0,0,0,0,0,0,0,0,0,0,.01.01,0,0,0,0,0,0,0,0,0,0,.02,0,0,0,0,0,0,0,0,0,.01,0,.02.01,0,0,0,0,0,0,0,0,.01,0,.02,0,0,0,0,0,0,0,0,0,.01,0,.02,0,0,0,0,0,0,0,0,0,.01,0,.02,0,0,0,0,0,0,0,0,0,0,0,0,0h2.91v.88c0,.11.09.2.2.2s.2-.09.2-.2v-.88h.48c.11,0,.2-.09.2-.2Z"/>
              <path class="cls-2" d="m38.66,39.69v-.88h.48c.11,0,.2-.09.2-.2s-.09-.2-.2-.2h-.48v-4.39c0-.11-.09-.2-.2-.2s-.2.09-.2.2v4.39h-2.11c.25-.16.54-.37.82-.64.32-.31.57-.65.74-1.01.22-.44.32-.91.33-1.41,0-.38-.1-.75-.29-1.03-.21-.31-.51-.5-.85-.53-.29-.02-.6.09-.87.31-.29.24-.49.58-.56.97-.02.11.05.22.16.24.11.02.22-.05.24-.16.05-.29.2-.55.42-.73.18-.15.4-.23.58-.22.27.02.45.2.54.35.14.21.22.5.22.8,0,1.26-.77,2.28-2.27,3.03-.05.02-.08.04-.1.05,0,0,0,0,0,0,0,0,0,0,0,0,0,0,0,0,0,0,0,0,0,0-.01,0,0,0,0,0,0,0,0,0,0,0,0,0,0,0,0,0,0,0,0,0,0,0,0,0,0,0,0,0,0,0,0,0,0,0,0,0,0,0,0,0,0,0,0,0,0,0,0,0,0,0,0,0,0,0,0,0,0,0,0,0,0,0,0,0,0,0,0,0,0,0,0,.01,0,0,0,0,0,0,0,0,0,0,0,.01,0,0,0,0,0,0,0,0,0,0,0,.01,0,0,0,0,0,0,0,0,0,0,0,0,0,0,0,0,0,.01,0,0,0,0,0,0,0,0,0,0,0,0,0,0,0,0,0,.01,0,0,0,0,0,0,0,0,0,0,0,.01,0,0,0,0,0,0,0,0,0,0,0,0,0,0,0,0,0,0,0,0,0,0,0,0,0,0,0,0,0,.01,0,0,0,0,0,0,0,0,0,0,0,.01,0,0,0,0,0,0,0,0,0,0,0,0,0,0,0,.01.01.02,0,0,0,0,0,0,0,0,.01.01.02.02,0,0,0,0,0,0,0,0,0,0,.01.01,0,0,0,0,0,0,0,0,0,0,.02,0,0,0,0,0,0,0,0,0,.01,0,.02.01,0,0,0,0,0,0,0,0,.01,0,.02,0,0,0,0,0,0,0,0,0,.01,0,.02,0,0,0,0,0,0,0,0,0,.01,0,.02,0,0,0,0,0,0,0,0,0,0,0,0,0h2.91v.88c0,.11.09.2.2.2s.2-.09.2-.2Z"/>
            </g>
          </g>
        </g>
        <path class="cls-2" d="m65.89,52.44c-.01-.14-.12-.25-.26-.26l-5.36-.42,4.52-2.92c.12-.08.16-.22.11-.35-.06-.13-.19-.19-.33-.16l-5.21,1.34,3.32-4.23c.09-.11.08-.26-.01-.37-.09-.1-.25-.12-.36-.04l-4.49,2.96,1.77-5.08c.05-.13-.01-.27-.13-.34-.12-.07-.27-.03-.36.08l-3.28,4.26.02-5.38c0-.14-.1-.26-.24-.28-.14-.02-.27.06-.31.19l-1.72,5.09-1.72-5.09c-.04-.13-.18-.21-.31-.19-.14.02-.24.14-.24.28l.02,5.38-3.28-4.26c-.08-.11-.24-.14-.36-.08-.12.07-.18.21-.13.34l1.77,5.08-4.49-2.96c-.12-.08-.27-.06-.36.04-.09.1-.1.26-.01.37l3.32,4.23-5.21-1.34c-.13-.03-.27.03-.33.16-.06.13-.01.27.11.35l4.52,2.92-5.36.42c-.14.01-.25.12-.26.26-.01.14.08.26.21.3l5.22,1.3-4.93,2.14c-.13.05-.2.19-.16.33.03.13.16.22.3.21l5.36-.47-3.97,3.63c-.1.09-.12.25-.05.36.08.12.22.16.35.1l4.92-2.18-2.58,4.72c-.07.12-.03.27.07.36.11.08.26.08.37-.02l3.94-3.66-.91,5.3c-.02.14.06.27.19.31.13.04.27-.01.34-.13l2.54-4.74.86,5.31c.02.14.14.24.28.24s.26-.1.28-.24l.86-5.31,2.54,4.74c.07.12.21.18.34.13.13-.04.21-.18.19-.31l-.91-5.3,3.94,3.66c.1.09.26.1.37.02.11-.08.14-.24.07-.36l-2.58-4.72,4.92,2.18c.13.06.27.01.35-.1.08-.12.06-.27-.05-.36l-3.97-3.63,5.36.47c.14.01.26-.08.3-.21.03-.13-.03-.27-.16-.33l-4.93-2.14,5.22-1.3c.13-.03.22-.16.21-.3Zm-6.38,1.25c-.12.03-.2.13-.21.25,0,.12.06.23.17.28l4.11,1.78-4.46-.39c-.12-.01-.23.06-.28.17-.05.11-.02.24.07.32l3.31,3.02-4.09-1.82c-.11-.05-.24-.02-.32.07-.08.09-.1.22-.04.33l2.15,3.93-3.28-3.05c-.09-.08-.22-.1-.33-.04-.11.06-.16.18-.14.3l.76,4.41-2.11-3.94c-.06-.11-.18-.17-.29-.14-.12.02-.21.11-.23.23l-.72,4.42-.72-4.42c-.02-.12-.11-.21-.23-.23-.02,0-.03,0-.05,0-.1,0-.2.06-.25.15l-2.11,3.94.76-4.41c.02-.12-.04-.24-.14-.3-.11-.06-.24-.04-.33.04l-3.28,3.05,2.15-3.93c.06-.11.04-.24-.04-.33-.08-.09-.21-.12-.32-.07l-4.09,1.82,3.31-3.02c.09-.08.12-.21.07-.32-.05-.11-.16-.18-.28-.17l-4.46.39,4.11-1.78c.11-.05.18-.16.17-.28,0-.12-.1-.22-.21-.25l-4.34-1.08,4.46-.35c.12,0,.22-.09.25-.21.03-.12-.02-.24-.12-.31l-3.76-2.43,4.33,1.12c.12.03.24-.02.31-.12.07-.1.06-.23-.01-.33l-2.76-3.52,3.74,2.46c.1.07.23.06.33-.01.1-.07.13-.2.09-.32l-1.47-4.23,2.73,3.54c.07.1.2.13.31.09.11-.04.19-.15.19-.27l-.02-4.47,1.43,4.24c.04.11.15.19.27.19s.23-.08.27-.19l1.43-4.24-.02,4.47c0,.12.08.23.19.27.11.04.24,0,.31-.09l2.73-3.54-1.47,4.23c-.04.11,0,.24.09.32.1.07.23.08.33.01l3.74-2.46-2.76,3.52c-.07.1-.08.23-.01.33.07.1.19.15.31.12l4.33-1.12-3.76,2.43c-.1.07-.15.19-.12.31.03.12.13.2.25.21l4.46.35-4.34,1.08Z"/>
      </g>
      <path class="cls-2" d="m53.55,71.4c-9.84,0-17.85-8.01-17.85-17.85s8.01-17.85,17.85-17.85,17.85,8.01,17.85,17.85-8.01,17.85-17.85,17.85Zm0-34.59c-9.23,0-16.75,7.51-16.75,16.75s7.51,16.75,16.75,16.75,16.75-7.51,16.75-16.75-7.51-16.75-16.75-16.75Z"/>
      <path class="cls-2" d="m53.55,82.54c-15.98,0-28.99-13-28.99-28.99s13-28.99,28.99-28.99,28.99,13,28.99,28.99-13,28.99-28.99,28.99Zm0-56.88c-15.38,0-27.89,12.51-27.89,27.89s12.51,27.89,27.89,27.89,27.89-12.51,27.89-27.89-12.51-27.89-27.89-27.89Z"/>
      <path class="cls-2" d="m53.55,100.55c-25.92,0-47-21.08-47-47S27.63,6.55,53.55,6.55s47,21.08,47,47-21.08,47-47,47Zm0-92.9C28.24,7.65,7.65,28.24,7.65,53.55s20.59,45.9,45.9,45.9,45.9-20.59,45.9-45.9S78.86,7.65,53.55,7.65Z"/>
      <path class="cls-2" d="m53.55,107.1C24.02,107.1,0,83.08,0,53.55S24.02,0,53.55,0s53.55,24.02,53.55,53.55-24.02,53.55-53.55,53.55Zm0-106C24.63,1.1,1.1,24.63,1.1,53.55s23.53,52.45,52.45,52.45,52.45-23.53,52.45-52.45S82.47,1.1,53.55,1.1Z"/>
      <g>
        <rect class="cls-2" x="53.2" y="22.52" width="35.71" height="1.1" transform="translate(15.67 73.21) rotate(-60.14)"/>
        <rect class="cls-2" x="53" y=".55" width="1.1" height="35.7"/>
        <rect class="cls-2" x="66.06" y="35.3" width="35.71" height="1.1" transform="translate(-6.64 47.13) rotate(-30.23)"/>
        <rect class="cls-2" x="53.2" y="22.52" width="35.71" height="1.1" transform="translate(15.67 73.21) rotate(-60.14)"/>
        <rect class="cls-2" x="35.3" y="5.33" width="1.1" height="35.7" transform="translate(-6.8 21.21) rotate(-30.24)"/>
        <rect class="cls-2" x="22.52" y="18.19" width="1.1" height="35.7" transform="translate(-19.67 38.09) rotate(-60.12)"/>
        <rect class="cls-2" x=".55" y="53" width="35.7" height="1.1"/>
        <rect class="cls-2" x="53" y=".55" width="1.1" height="35.7"/>
        <rect class="cls-2" x="66.06" y="35.3" width="35.71" height="1.1" transform="translate(-6.64 47.13) rotate(-30.23)"/>
        <rect class="cls-2" x="70.85" y="53" width="35.7" height="1.1"/>
        <rect class="cls-2" x="53" y="70.85" width="1.1" height="35.7"/>
        <rect class="cls-2" x="18.18" y="83.48" width="35.71" height="1.1" transform="translate(-54.78 73.44) rotate(-60.14)"/>
        <rect class="cls-2" x="5.33" y="70.7" width="35.71" height="1.1" transform="translate(-32.72 21.36) rotate(-30.23)"/>
        <rect class="cls-2" x=".55" y="53" width="35.7" height="1.1"/>
        <rect class="cls-2" x="70.85" y="53" width="35.7" height="1.1"/>
        <rect class="cls-2" x="53" y="70.85" width="1.1" height="35.7"/>
        <rect class="cls-2" x="70.7" y="66.06" width="1.1" height="35.7" transform="translate(-32.57 47.31) rotate(-30.24)"/>
        <rect class="cls-2" x="83.48" y="53.21" width="1.1" height="35.7" transform="translate(-19.45 108.52) rotate(-60.12)"/>
        <rect class="cls-2" x="18.18" y="83.48" width="35.71" height="1.1" transform="translate(-54.78 73.44) rotate(-60.14)"/>
        <rect class="cls-2" x="5.33" y="70.7" width="35.71" height="1.1" transform="translate(-32.72 21.36) rotate(-30.23)"/>
      </g>
      <path class="cls-2" d="m103.39,65.98c0,.14-1,.13-1.04.26s.77.71.69.82-.88-.49-.99-.4.21,1.03.08,1.07-.42-.91-.57-.91-.44.95-.57.91.19-.99.08-1.07-.91.52-.99.4.73-.69.69-.82-1.04-.11-1.04-.26,1-.13,1.04-.26-.77-.71-.69-.82.88.49.99.4-.21-1.03-.08-1.07.42.91.57.91.44-.95.57-.91-.19.99-.08,1.07.91-.52.99-.4-.73.69-.69.82,1.04.11,1.04.26Z"/>
      <path class="cls-2" d="m91.14,87.96c0,.14-1,.13-1.04.26s.77.71.69.82-.88-.49-.99-.4.21,1.03.08,1.07-.42-.91-.57-.91-.44.95-.57.91.19-.99.08-1.07-.91.52-.99.4.73-.69.69-.82-1.04-.11-1.04-.26,1-.13,1.04-.26-.77-.71-.69-.82.88.49.99.4-.21-1.03-.08-1.07.42.91.57.91.44-.95.57-.91-.19.99-.08,1.07.91-.52.99-.4-.73.69-.69.82,1.04.11,1.04.26Z"/>
      <path class="cls-2" d="m69.27,101.33c0,.14-1,.13-1.04.26s.77.71.69.82-.88-.49-.99-.4.21,1.03.08,1.07-.42-.91-.57-.91-.44.95-.57.91.19-.99.08-1.07-.91.52-.99.4.73-.69.69-.82-1.04-.11-1.04-.26,1-.13,1.04-.26-.77-.71-.69-.82.88.49.99.4-.21-1.03-.08-1.07.42.91.57.91.44-.95.57-.91-.19.99-.08,1.07.91-.52.99-.4-.73.69-.69.82,1.04.11,1.04.26Z"/>
      <path class="cls-2" d="m90.37,18.18c0,.14-1,.13-1.04.26s.77.71.69.82-.88-.49-.99-.4.21,1.03.08,1.07-.42-.91-.57-.91-.44.95-.57.91.19-.99.08-1.07-.91.52-.99.4.73-.69.69-.82-1.04-.11-1.04-.26,1-.13,1.04-.26-.77-.71-.69-.82.88.49.99.4-.21-1.03-.08-1.07.42.91.57.91.44-.95.57-.91-.19.99-.08,1.07.91-.52.99-.4-.73.69-.69.82,1.04.11,1.04.26Z"/>
      <path class="cls-2" d="m68.1,5.45c0,.14-1,.13-1.04.26s.77.71.69.82-.88-.49-.99-.4.21,1.03.08,1.07-.42-.91-.57-.91-.44.95-.57.91.19-.99.08-1.07-.91.52-.99.4.73-.69.69-.82-1.04-.11-1.04-.26,1-.13,1.04-.26-.77-.71-.69-.82.88.49.99.4-.21-1.03-.08-1.07.42.91.57.91.44-.95.57-.91-.19.99-.08,1.07.91-.52.99-.4-.73.69-.69.82,1.04.11,1.04.26Z"/>
      <path class="cls-2" d="m103.29,40.38c0,.14-1,.13-1.04.26s.77.71.69.82-.88-.49-.99-.4.21,1.03.08,1.07-.42-.91-.57-.91-.44.95-.57.91.19-.99.08-1.07-.91.52-.99.4.73-.69.69-.82-1.04-.11-1.04-.26,1-.13,1.04-.26-.77-.71-.69-.82.88.49.99.4-.21-1.03-.08-1.07.42.91.57.91.44-.95.57-.91-.19.99-.08,1.07.91-.52.99-.4-.73.69-.69.82,1.04.11,1.04.26Z"/>
      <path class="cls-2" d="m4.71,65.98c0,.14-.95.44-.91.57s.99-.19,1.07-.08-.52.91-.4.99.69-.73.82-.69.11,1.04.26,1.04.13-1,.26-1.04.71.77.82.69-.49-.88-.4-.99,1.03.21,1.07.08-.91-.42-.91-.57.95-.44.91-.57-.99.19-1.07.08.52-.91.4-.99-.69.73-.82.69-.11-1.04-.26-1.04-.13,1-.26,1.04-.71-.77-.82-.69.49.88.4.99-1.03-.21-1.07-.08.91.42.91.57Z"/>
      <path class="cls-2" d="m16.96,87.96c0,.14-.95.44-.91.57s.99-.19,1.07-.08-.52.91-.4.99.69-.73.82-.69.11,1.04.26,1.04.13-1,.26-1.04.71.77.82.69-.49-.88-.4-.99,1.03.21,1.07.08-.91-.42-.91-.57.95-.44.91-.57-.99.19-1.07.08.52-.91.4-.99-.69.73-.82.69-.11-1.04-.26-1.04-.13,1-.26,1.04-.71-.77-.82-.69.49.88.4.99-1.03-.21-1.07-.08.91.42.91.57Z"/>
      <path class="cls-2" d="m38.83,101.33c0,.14-.95.44-.91.57s.99-.19,1.07-.08-.52.91-.4.99.69-.73.82-.69.11,1.04.26,1.04.13-1,.26-1.04.71.77.82.69-.49-.88-.4-.99,1.03.21,1.07.08-.91-.42-.91-.57.95-.44.91-.57-.99.19-1.07.08.52-.91.4-.99-.69.73-.82.69-.11-1.04-.26-1.04-.13,1-.26,1.04-.71-.77-.82-.69.49.88.4.99-1.03-.21-1.07-.08.91.42.91.57Z"/>
      <path class="cls-2" d="m17.73,18.18c0,.14-.95.44-.91.57s.99-.19,1.07-.08-.52.91-.4.99.69-.73.82-.69.11,1.04.26,1.04.13-1,.26-1.04.71.77.82.69-.49-.88-.4-.99,1.03.21,1.07.08-.91-.42-.91-.57.95-.44.91-.57-.99.19-1.07.08.52-.91.4-.99-.69.73-.82.69-.11-1.04-.26-1.04-.13,1-.26,1.04-.71-.77-.82-.69.49.88.4.99-1.03-.21-1.07-.08.91.42.91.57Z"/>
      <path class="cls-2" d="m40,5.45c0,.14-.95.44-.91.57s.99-.19,1.07-.08-.52.91-.4.99.69-.73.82-.69.11,1.04.26,1.04.13-1,.26-1.04.71.77.82.69-.49-.88-.4-.99,1.03.21,1.07.08-.91-.42-.91-.57c0-.14.95-.44.91-.57s-.99.19-1.07.08.52-.91.4-.99-.69.73-.82.69-.11-1.04-.26-1.04-.13,1-.26,1.04-.71-.77-.82-.69.49.88.4.99-1.03-.21-1.07-.08.91.42.91.57Z"/>
      <path class="cls-2" d="m4.81,40.38c0,.14-.95.44-.91.57s.99-.19,1.07-.08-.52.91-.4.99.69-.73.82-.69.11,1.04.26,1.04.13-1,.26-1.04.71.77.82.69-.49-.88-.4-.99,1.03.21,1.07.08-.91-.42-.91-.57.95-.44.91-.57-.99.19-1.07.08.52-.91.4-.99-.69.73-.82.69-.11-1.04-.26-1.04-.13,1-.26,1.04-.71-.77-.82-.69.49.88.4.99-1.03-.21-1.07-.08.91.42.91.57Z"/>
    </g>
  </g>
</svg>