<?xml version="1.0" encoding="UTF-8"?>
<svg id="_レイヤー_2" data-name="レイヤー 2" xmlns="http://www.w3.org/2000/svg" viewBox="0 0 13.32 13.4">
  <defs>
    <style>
      .cls-1 {
        fill: #C08E9E;
        stroke-width: 0px;
      }
    </style>
  </defs>
  <g id="design">
    <g>
      <path class="cls-1" d="m6.66,13.4c-2.69,0-4.87-2.19-4.87-4.87S3.97,3.65,6.66,3.65s4.87,2.19,4.87,4.87-2.19,4.87-4.87,4.87Zm0-8.39c-1.94,0-3.51,1.58-3.51,3.51s1.58,3.51,3.51,3.51,3.51-1.58,3.51-3.51-1.58-3.51-3.51-3.51Z"/>
      <path class="cls-1" d="m6.66,5.01c-1.62,0-2.9-.76-3.8-2.26-.6-.99-1.42-1.39-2.86-1.39V0c1.2,0,2.92.21,4.02,2.05.66,1.09,1.49,1.6,2.63,1.6s1.98-.51,2.63-1.6C10.4.21,12.12,0,13.32,0v1.36c-1.43,0-2.26.4-2.86,1.39-.9,1.5-2.18,2.26-3.8,2.26Z"/>
    </g>
  </g>
</svg>