<?xml version="1.0" encoding="UTF-8"?>
<svg id="_レイヤー_2" data-name="レイヤー 2" xmlns="http://www.w3.org/2000/svg" viewBox="0 0 12 16.51">
  <defs>
    <style>
      .cls-1 {
        fill: #39385d;
        stroke-width: 0px;
      }
    </style>
  </defs>
  <g id="design">
    <g>
      <g>
        <path class="cls-1" d="m6,10.51c-2.59,0-4.7-2.11-4.7-4.7S3.41,1.11,6,1.11s4.7,2.11,4.7,4.7-2.11,4.7-4.7,4.7Zm0-8.33c-2,0-3.63,1.63-3.63,3.63s1.63,3.63,3.63,3.63,3.63-1.63,3.63-3.63-1.63-3.63-3.63-3.63Z"/>
        <path class="cls-1" d="m6,10.66c-2.67,0-4.85-2.18-4.85-4.85S3.33.96,6,.96s4.85,2.18,4.85,4.85-2.18,4.85-4.85,4.85Zm0-9.4C3.49,1.26,1.45,3.3,1.45,5.81s2.04,4.55,4.55,4.55,4.55-2.04,4.55-4.55S8.51,1.26,6,1.26Zm0,8.33c-2.08,0-3.78-1.69-3.78-3.78s1.69-3.78,3.78-3.78,3.78,1.69,3.78,3.78-1.69,3.78-3.78,3.78Zm0-7.25c-1.92,0-3.48,1.56-3.48,3.48s1.56,3.48,3.48,3.48,3.48-1.56,3.48-3.48-1.56-3.48-3.48-3.48Z"/>
      </g>
      <g>
        <path class="cls-1" d="m2.27,4.15c-.79-.27-1.44-.84-1.8-1.6C.1,1.8.05.95.32.15l1.01.35c-.37,1.08.2,2.26,1.29,2.64l-.35,1.01Z"/>
        <path class="cls-1" d="m2.27,4.3s-.03,0-.05,0c-.83-.29-1.5-.88-1.89-1.67C-.05,1.83-.11.94.18.1c.01-.04.04-.07.08-.09s.08-.02.11,0l1.01.35c.08.03.12.11.09.19-.34,1,.19,2.1,1.19,2.45.04.01.07.04.09.08.02.04.02.08,0,.11l-.35,1.01c-.02.06-.08.1-.14.1ZM.42.34c-.21.72-.14,1.47.19,2.15.33.67.88,1.19,1.58,1.47l.25-.73c-1.02-.43-1.57-1.56-1.28-2.63L.42.34Z"/>
      </g>
      <g>
        <path class="cls-1" d="m9.72,4.15l-.35-1.01c1.08-.37,1.66-1.56,1.29-2.64l1.01-.35c.27.79.22,1.65-.15,2.4-.37.76-1.01,1.32-1.8,1.6Z"/>
        <path class="cls-1" d="m9.72,4.3c-.06,0-.12-.04-.14-.1l-.35-1.01s-.01-.08,0-.11c.02-.04.05-.06.09-.08,1-.35,1.54-1.44,1.19-2.45-.03-.08.01-.16.09-.19L11.62,0s.08-.01.11,0,.06.05.08.09c.29.83.23,1.73-.15,2.52-.39.79-1.06,1.39-1.89,1.67-.02,0-.03,0-.05,0Zm-.16-1.08l.25.73c.69-.28,1.25-.79,1.58-1.47.33-.67.39-1.43.18-2.15l-.73.25c.29,1.07-.26,2.2-1.28,2.63Z"/>
      </g>
      <g>
        <rect class="cls-1" x="5.46" y="9.98" width="1.07" height="6.39"/>
        <path class="cls-1" d="m6.54,16.51h-1.07c-.08,0-.15-.07-.15-.15v-6.39c0-.08.07-.15.15-.15h1.07c.08,0,.15.07.15.15v6.39c0,.08-.07.15-.15.15Zm-.92-.3h.77v-6.09h-.77v6.09Z"/>
      </g>
      <g>
        <rect class="cls-1" x="2.8" y="11.79" width="6.39" height="1.07"/>
        <path class="cls-1" d="m9.19,13.01H2.8c-.08,0-.15-.07-.15-.15v-1.07c0-.08.07-.15.15-.15h6.39c.08,0,.15.07.15.15v1.07c0,.08-.07.15-.15.15Zm-6.24-.3h6.09v-.77H2.96v.77Z"/>
      </g>
    </g>
  </g>
</svg>