<?xml version="1.0" encoding="UTF-8"?>
<svg id="_レイヤー_2" data-name="レイヤー 2" xmlns="http://www.w3.org/2000/svg" viewBox="0 0 12.28 16.17">
  <defs>
    <style>
      .cls-1 {
        fill: #F17424;
        stroke-width: 0px;
      }
    </style>
  </defs>
  <g id="design">
    <g>
      <path class="cls-1" d="m2.83,13.45h-1.43V3.64C1.41,2.41.01,1.46,0,1.46L.78.26c.08.06,2.05,1.37,2.05,3.38v9.81Z"/>
      <path class="cls-1" d="m6.29,13.45h-1.43V3.64c0-.8-.39-1.47-.69-1.86-.58.41-1.34,1.11-1.34,1.86v9.81h-1.43V3.64C1.41,1.58,3.88.28,3.98.23l.44-.23.37.33c.06.06,1.5,1.37,1.5,3.31v9.81Z"/>
      <path class="cls-1" d="m7.19,15.15l-.19-1.41s3.36-.5,3.78-3.04c.19-1.16-.02-1.95-.24-2.44-.37.4-.8,1-.8,1.71h-1.43c0-2,1.88-3.31,1.96-3.37l.48-.33.42.4c.06.06,1.48,1.44,1.01,4.26-.6,3.58-4.81,4.19-4.99,4.22Z"/>
      <path class="cls-1" d="m10.55,16.17c-1.51-1.1-2.24-2.52-2.24-4.36V3.64c0-.8-.39-1.47-.69-1.86-.58.41-1.34,1.11-1.34,1.86v9.81h-1.43V3.64C4.86,1.58,7.33.28,7.44.23l.44-.23.37.33c.06.06,1.5,1.37,1.5,3.31v8.17c0,1.38.51,2.37,1.65,3.2l-.84,1.15Z"/>
    </g>
  </g>
</svg>
