<?xml version="1.0" encoding="UTF-8"?>
<svg id="_レイヤー_2" data-name="レイヤー 2" xmlns="http://www.w3.org/2000/svg" viewBox="0 0 15.29 20.17">
  <defs>
    <style>
      .cls-1 {
        fill: #386280;
        stroke: #386280;
        stroke-linecap: round;
        stroke-linejoin: round;
        stroke-width: .6px;
      }
    </style>
  </defs>
  <g id="design">
    <g>
      <path class="cls-1" d="m1.61,19.87c-.22-.1-.47-.17-.67-.3-.42-.28-.62-.7-.63-1.2,0-.6,0-1.2,0-1.8,0-4.8.01-9.59-.01-14.39,0-.99.41-1.68,1.35-1.88,3.15,0,6.3,0,9.44,0,.07.06.14.11.2.17,1.18,1.18,2.36,2.36,3.54,3.54.08.08.14.22.14.33.02.45.02.9.02,1.36,0,4.16,0,8.33,0,12.49,0,.9-.4,1.42-1.27,1.66-.01,0-.02.01-.03.02H1.61ZM10.71.91c-.09,0-.15,0-.21,0-2.85,0-5.71,0-8.56,0-.63,0-1.01.38-1.01,1.01,0,5.44,0,10.88,0,16.32,0,.65.37,1.01,1.02,1.01,3.8,0,7.59,0,11.39,0,.67,0,1.04-.36,1.04-1.04,0-4.47,0-8.94,0-13.42v-.22c-.09,0-.16,0-.23,0-1.01,0-2.01,0-3.02,0-.34,0-.42-.09-.42-.43,0-.87,0-1.75,0-2.62,0-.2,0-.39,0-.62Zm3.16,3.05c-.85-.85-1.7-1.7-2.53-2.53v2.53h2.53Z"/>
      <path class="cls-1" d="m7.67,7.01c-1.47,0-2.94,0-4.41,0-.06,0-.13,0-.19,0-.17-.03-.26-.13-.27-.3,0-.16.09-.26.24-.3.07-.02.14,0,.21,0,2.96,0,5.91,0,8.87,0,.31,0,.46.1.46.3,0,.21-.15.31-.46.31-1.48,0-2.97,0-4.45,0Z"/>
      <path class="cls-1" d="m7.67,10.07c-1.47,0-2.94,0-4.41,0-.06,0-.13,0-.19,0-.17-.03-.26-.13-.27-.3,0-.17.1-.27.26-.3.06-.01.11,0,.17,0,2.97,0,5.94,0,8.91,0,.06,0,.13,0,.19,0,.15.04.25.14.25.3,0,.17-.1.27-.26.3-.06.01-.13,0-.19,0-1.48,0-2.97,0-4.45,0Z"/>
      <path class="cls-1" d="m7.69,12.53c1.48,0,2.96,0,4.43,0,.06,0,.13,0,.19,0,.16.03.26.13.26.3,0,.17-.1.27-.27.3-.06,0-.11,0-.17,0-2.97,0-5.94,0-8.91,0-.06,0-.12,0-.17,0-.16-.03-.26-.13-.26-.3,0-.17.1-.27.27-.3.06-.01.13,0,.19,0,1.48,0,2.96,0,4.43,0Z"/>
      <path class="cls-1" d="m6.47,16.2c-1.08,0-2.15,0-3.23,0-.06,0-.12,0-.17,0-.16-.03-.26-.13-.27-.3,0-.17.1-.27.26-.3.06-.01.11,0,.17,0,2.15,0,4.31,0,6.46,0,.06,0,.12,0,.17,0,.16.03.26.13.27.3,0,.16-.12.29-.28.31-.12,0-.24,0-.36,0-1.01,0-2.01,0-3.02,0Z"/>
    </g>
  </g>
</svg>