<?xml version="1.0" encoding="UTF-8"?>
<svg id="_レイヤー_2" data-name="レイヤー 2" xmlns="http://www.w3.org/2000/svg" xmlns:xlink="http://www.w3.org/1999/xlink" viewBox="0 0 291.5 84.18">
  <defs>
    <style>
      .cls-1 {
        fill: url(#_新規グラデーションスウォッチ_1-14);
      }

      .cls-1, .cls-2, .cls-3, .cls-4, .cls-5, .cls-6, .cls-7, .cls-8, .cls-9, .cls-10, .cls-11, .cls-12, .cls-13, .cls-14, .cls-15, .cls-16, .cls-17, .cls-18, .cls-19, .cls-20, .cls-21, .cls-22, .cls-23, .cls-24, .cls-25, .cls-26, .cls-27, .cls-28, .cls-29, .cls-30, .cls-31, .cls-32, .cls-33, .cls-34 {
        stroke-width: 0px;
      }

      .cls-2 {
        fill: url(#_新規グラデーションスウォッチ_1-11);
      }

      .cls-3 {
        fill: url(#_新規グラデーションスウォッチ_1-13);
      }

      .cls-4 {
        fill: url(#_新規グラデーションスウォッチ_1-16);
      }

      .cls-5 {
        fill: url(#_新規グラデーションスウォッチ_1-10);
      }

      .cls-6 {
        fill: url(#_新規グラデーションスウォッチ_1-17);
      }

      .cls-7 {
        fill: url(#_新規グラデーションスウォッチ_1-19);
      }

      .cls-8 {
        fill: url(#_新規グラデーションスウォッチ_1-15);
      }

      .cls-9 {
        fill: url(#_新規グラデーションスウォッチ_1-18);
      }

      .cls-10 {
        fill: url(#_新規グラデーションスウォッチ_1-12);
      }

      .cls-11 {
        fill: url(#_新規グラデーションスウォッチ_1-24);
      }

      .cls-12 {
        fill: url(#_新規グラデーションスウォッチ_1-25);
      }

      .cls-13 {
        fill: url(#_新規グラデーションスウォッチ_1-21);
      }

      .cls-14 {
        fill: url(#_新規グラデーションスウォッチ_1-27);
      }

      .cls-15 {
        fill: url(#_新規グラデーションスウォッチ_1-29);
      }

      .cls-16 {
        fill: url(#_新規グラデーションスウォッチ_1-28);
      }

      .cls-17 {
        fill: url(#_新規グラデーションスウォッチ_1-26);
      }

      .cls-18 {
        fill: url(#_新規グラデーションスウォッチ_1-22);
      }

      .cls-19 {
        fill: url(#_新規グラデーションスウォッチ_1-20);
      }

      .cls-20 {
        fill: url(#_新規グラデーションスウォッチ_1-32);
      }

      .cls-21 {
        fill: url(#_新規グラデーションスウォッチ_1-31);
      }

      .cls-22 {
        fill: url(#_新規グラデーションスウォッチ_1-33);
      }

      .cls-23 {
        fill: url(#_新規グラデーションスウォッチ_1-23);
      }

      .cls-24 {
        fill: url(#_新規グラデーションスウォッチ_1-30);
      }

      .cls-35 {
        fill: none;
        stroke: #386280;
        stroke-linecap: round;
        stroke-linejoin: round;
        stroke-width: 1.5px;
      }

      .cls-25 {
        fill: url(#_新規グラデーションスウォッチ_1);
      }

      .cls-26 {
        fill: url(#_新規グラデーションスウォッチ_1-9);
      }

      .cls-27 {
        fill: url(#_新規グラデーションスウォッチ_1-2);
      }

      .cls-28 {
        fill: url(#_新規グラデーションスウォッチ_1-4);
      }

      .cls-29 {
        fill: url(#_新規グラデーションスウォッチ_1-3);
      }

      .cls-30 {
        fill: url(#_新規グラデーションスウォッチ_1-8);
      }

      .cls-31 {
        fill: url(#_新規グラデーションスウォッチ_1-7);
      }

      .cls-32 {
        fill: url(#_新規グラデーションスウォッチ_1-5);
      }

      .cls-33 {
        fill: url(#_新規グラデーションスウォッチ_1-6);
      }

      .cls-36 {
        opacity: .5;
      }

      .cls-34 {
        fill: #386280;
      }
    </style>
    <linearGradient id="_新規グラデーションスウォッチ_1" data-name="新規グラデーションスウォッチ 1" x1="-179.99" y1="-60.69" x2="190.01" y2="160.64" gradientUnits="userSpaceOnUse">
      <stop offset="0" stop-color="#c9ddf1"/>
      <stop offset=".06" stop-color="#c1daef" stop-opacity=".97"/>
      <stop offset=".15" stop-color="#add2ec" stop-opacity=".89"/>
      <stop offset=".26" stop-color="#8cc5e6" stop-opacity=".75"/>
      <stop offset=".38" stop-color="#5fb2df" stop-opacity=".57"/>
      <stop offset=".52" stop-color="#259cd5" stop-opacity=".33"/>
      <stop offset=".54" stop-color="#1e99d4" stop-opacity=".3"/>
      <stop offset=".76" stop-color="#0075bb"/>
      <stop offset=".96" stop-color="#005b94"/>
    </linearGradient>
    <linearGradient id="_新規グラデーションスウォッチ_1-2" data-name="新規グラデーションスウォッチ 1" x1="-168.54" y1="-79.84" x2="201.46" y2="141.5" xlink:href="#_新規グラデーションスウォッチ_1"/>
    <linearGradient id="_新規グラデーションスウォッチ_1-3" data-name="新規グラデーションスウォッチ 1" x1="-159.16" y1="-95.53" x2="210.84" y2="125.8" xlink:href="#_新規グラデーションスウォッチ_1"/>
    <linearGradient id="_新規グラデーションスウォッチ_1-4" data-name="新規グラデーションスウォッチ 1" x1="-147.65" y1="-114.76" x2="222.35" y2="106.57" xlink:href="#_新規グラデーションスウォッチ_1"/>
    <linearGradient id="_新規グラデーションスウォッチ_1-5" data-name="新規グラデーションスウォッチ 1" x1="-140.26" y1="-127.11" x2="229.74" y2="94.22" xlink:href="#_新規グラデーションスウォッチ_1"/>
    <linearGradient id="_新規グラデーションスウォッチ_1-6" data-name="新規グラデーションスウォッチ 1" x1="-127.95" y1="-147.7" x2="242.05" y2="73.63" xlink:href="#_新規グラデーションスウォッチ_1"/>
    <linearGradient id="_新規グラデーションスウォッチ_1-7" data-name="新規グラデーションスウォッチ 1" x1="229.37" y1="107.56" x2="237.45" y2="39.1" xlink:href="#_新規グラデーションスウォッチ_1"/>
    <linearGradient id="_新規グラデーションスウォッチ_1-8" data-name="新規グラデーションスウォッチ 1" x1="248.92" y1="109.87" x2="257" y2="41.41" xlink:href="#_新規グラデーションスウォッチ_1"/>
    <linearGradient id="_新規グラデーションスウォッチ_1-9" data-name="新規グラデーションスウォッチ 1" x1="237.93" y1="108.57" x2="246.01" y2="40.12" xlink:href="#_新規グラデーションスウォッチ_1"/>
    <linearGradient id="_新規グラデーションスウォッチ_1-10" data-name="新規グラデーションスウォッチ 1" x1="240.35" y1="108.86" x2="248.43" y2="40.4" xlink:href="#_新規グラデーションスウォッチ_1"/>
    <linearGradient id="_新規グラデーションスウォッチ_1-11" data-name="新規グラデーションスウォッチ 1" x1="230.85" y1="107.74" x2="238.93" y2="39.28" xlink:href="#_新規グラデーションスウォッチ_1"/>
    <linearGradient id="_新規グラデーションスウォッチ_1-12" data-name="新規グラデーションスウォッチ 1" x1="227.63" y1="107.36" x2="235.71" y2="38.9" xlink:href="#_新規グラデーションスウォッチ_1"/>
    <linearGradient id="_新規グラデーションスウォッチ_1-13" data-name="新規グラデーションスウォッチ 1" x1="247.46" y1="109.7" x2="255.53" y2="41.24" xlink:href="#_新規グラデーションスウォッチ_1"/>
    <linearGradient id="_新規グラデーションスウォッチ_1-14" data-name="新規グラデーションスウォッチ 1" x1="250.68" y1="110.08" x2="258.76" y2="41.62" xlink:href="#_新規グラデーションスウォッチ_1"/>
    <linearGradient id="_新規グラデーションスウォッチ_1-15" data-name="新規グラデーションスウォッチ 1" x1="232.54" y1="107.94" x2="240.62" y2="39.48" xlink:href="#_新規グラデーションスウォッチ_1"/>
    <linearGradient id="_新規グラデーションスウォッチ_1-16" data-name="新規グラデーションスウォッチ 1" x1="245.7" y1="109.49" x2="253.78" y2="41.03" xlink:href="#_新規グラデーションスウォッチ_1"/>
    <linearGradient id="_新規グラデーションスウォッチ_1-17" data-name="新規グラデーションスウォッチ 1" x1="248.24" y1="109.79" x2="256.32" y2="41.33" xlink:href="#_新規グラデーションスウォッチ_1"/>
    <linearGradient id="_新規グラデーションスウォッチ_1-18" data-name="新規グラデーションスウォッチ 1" x1="230.06" y1="107.65" x2="238.14" y2="39.19" xlink:href="#_新規グラデーションスウォッチ_1"/>
    <linearGradient id="_新規グラデーションスウォッチ_1-19" data-name="新規グラデーションスウォッチ 1" x1="228.92" y1="107.51" x2="237" y2="39.05" xlink:href="#_新規グラデーションスウォッチ_1"/>
    <linearGradient id="_新規グラデーションスウォッチ_1-20" data-name="新規グラデーションスウォッチ 1" x1="249.37" y1="109.92" x2="257.45" y2="41.46" xlink:href="#_新規グラデーションスウォッチ_1"/>
    <linearGradient id="_新規グラデーションスウォッチ_1-21" data-name="新規グラデーションスウォッチ 1" x1="242.14" y1="109.07" x2="250.22" y2="40.61" xlink:href="#_新規グラデーションスウォッチ_1"/>
    <linearGradient id="_新規グラデーションスウォッチ_1-22" data-name="新規グラデーションスウォッチ 1" x1="236.14" y1="108.36" x2="244.22" y2="39.9" xlink:href="#_新規グラデーションスウォッチ_1"/>
    <linearGradient id="_新規グラデーションスウォッチ_1-23" data-name="新規グラデーションスウォッチ 1" x1="234.03" y1="108.11" x2="242.11" y2="39.65" xlink:href="#_新規グラデーションスウォッチ_1"/>
    <linearGradient id="_新規グラデーションスウォッチ_1-24" data-name="新規グラデーションスウォッチ 1" x1="244.25" y1="109.32" x2="252.33" y2="40.86" xlink:href="#_新規グラデーションスウォッチ_1"/>
    <linearGradient id="_新規グラデーションスウォッチ_1-25" data-name="新規グラデーションスウォッチ 1" x1="248.49" y1="109.82" x2="256.57" y2="41.36" xlink:href="#_新規グラデーションスウォッチ_1"/>
    <linearGradient id="_新規グラデーションスウォッチ_1-26" data-name="新規グラデーションスウォッチ 1" x1="229.79" y1="107.61" x2="237.87" y2="39.15" xlink:href="#_新規グラデーションスウォッチ_1"/>
    <linearGradient id="_新規グラデーションスウォッチ_1-27" data-name="新規グラデーションスウォッチ 1" x1="239.14" y1="108.72" x2="247.22" y2="40.26" xlink:href="#_新規グラデーションスウォッチ_1"/>
    <linearGradient id="_新規グラデーションスウォッチ_1-28" data-name="新規グラデーションスウォッチ 1" x1="123.5" y1="154.73" x2="131.58" y2="86.27" gradientTransform="translate(131.69 -39.13) rotate(-2.02)" xlink:href="#_新規グラデーションスウォッチ_1"/>
    <linearGradient id="_新規グラデーションスウォッチ_1-29" data-name="新規グラデーションスウォッチ 1" x1="119.44" y1="154.25" x2="127.52" y2="85.79" gradientTransform="translate(131.69 -39.13) rotate(-2.02)" xlink:href="#_新規グラデーションスウォッチ_1"/>
    <linearGradient id="_新規グラデーションスウォッチ_1-30" data-name="新規グラデーションスウォッチ 1" x1="130.28" y1="155.53" x2="138.36" y2="87.07" gradientTransform="translate(131.69 -39.13) rotate(-2.02)" xlink:href="#_新規グラデーションスウォッチ_1"/>
    <linearGradient id="_新規グラデーションスウォッチ_1-31" data-name="新規グラデーションスウォッチ 1" x1="135.66" y1="156.17" x2="143.74" y2="87.71" gradientTransform="translate(131.69 -39.13) rotate(-2.02)" xlink:href="#_新規グラデーションスウォッチ_1"/>
    <linearGradient id="_新規グラデーションスウォッチ_1-32" data-name="新規グラデーションスウォッチ 1" x1="141.08" y1="156.81" x2="149.16" y2="88.35" gradientTransform="translate(131.69 -39.13) rotate(-2.02)" xlink:href="#_新規グラデーションスウォッチ_1"/>
    <linearGradient id="_新規グラデーションスウォッチ_1-33" data-name="新規グラデーションスウォッチ 1" x1="130.65" y1="155.57" x2="138.73" y2="87.12" gradientTransform="translate(131.69 -39.13) rotate(-2.02)" xlink:href="#_新規グラデーションスウォッチ_1"/>
  </defs>
  <g id="_レイヤー_1-2" data-name="レイヤー 1">
    <g>
      <g>
        <path class="cls-34" d="M11.73,54.09v9.68c0,1.86.1,3.24.31,4.14.21.9.6,1.65,1.16,2.23.49.51,1.06.89,1.71,1.13.65.25,1.5.4,2.56.45v.63H0v-.63c1.06-.05,1.91-.21,2.56-.45.65-.25,1.22-.62,1.71-1.13.58-.58.98-1.32,1.18-2.21.2-.89.3-2.28.3-4.16v-20.15c0-1.88-.1-3.26-.3-4.16-.2-.89-.59-1.63-1.18-2.21-.49-.53-1.07-.91-1.72-1.15-.66-.24-1.5-.38-2.54-.44v-.63h13.18c2.21,0,3.65,0,4.35.03,2.83.13,5.04.51,6.64,1.15,1.8.73,3.2,1.82,4.2,3.27.99,1.45,1.49,3.13,1.49,5.04,0,2.84-1.08,5.12-3.23,6.84-.66.51-1.38.93-2.17,1.26s-1.85.64-3.19.93c1.09.46,1.9.93,2.43,1.42.42.38.8.86,1.15,1.44.35.57.87,1.59,1.56,3.05,1.62,3.34,2.85,5.77,3.68,7.31.83,1.54,1.53,2.66,2.09,3.35.46.57.9.96,1.33,1.18.43.22,1.02.36,1.76.44v.63h-9.08c-.46-1-.75-1.64-.88-1.91l-1.91-4.35c-1.15-2.61-2.31-4.91-3.47-6.92-1.17-1.99-2.23-3.34-3.2-4.07-.49-.36-1.02-.62-1.59-.78-.57-.15-1.26-.23-2.08-.23h-1.34ZM11.73,53.49h1.04c2.26,0,3.88-.13,4.85-.38.98-.25,1.89-.78,2.75-1.59,1.91-1.82,2.87-4.08,2.87-6.78,0-1.44-.28-2.79-.83-4.06-.56-1.27-1.33-2.31-2.31-3.13-.77-.62-1.68-1.05-2.73-1.3-1.06-.25-2.56-.37-4.51-.37h-1.12v17.61Z"/>
        <path class="cls-34" d="M69.38,35.03l.46,9.02-.63.03c-.24-1.53-.63-2.8-1.18-3.8-.55-1-1.34-1.89-2.38-2.65-.86-.64-1.87-1.09-3.04-1.35-1.17-.26-2.72-.4-4.65-.4h-6.26v16.41h1.64c1.66,0,2.91-.11,3.75-.33s1.52-.61,2.05-1.18c.51-.53.89-1.15,1.13-1.87.25-.72.45-1.78.62-3.19l.63.03-.11,14.66h-.63c-.16-1.4-.41-2.53-.72-3.39-.32-.86-.76-1.59-1.33-2.19-.55-.58-1.26-1.01-2.13-1.29s-1.99-.41-3.34-.41h-1.56v6.26c0,2.5.06,4.32.19,5.46.13,1.14.37,2.09.74,2.86.62,1.31,1.56,2.27,2.83,2.88,1.27.61,2.94.92,5.02.92,2.19,0,4.02-.28,5.5-.83,1.48-.56,2.68-1.42,3.61-2.58.66-.78,1.19-1.68,1.6-2.68.41-1,.79-2.32,1.13-3.96l.63.03-.36,10.88h-32.62v-.63c1.04-.05,1.88-.2,2.53-.44.65-.24,1.23-.62,1.74-1.15.56-.58.95-1.33,1.16-2.23s.31-2.28.31-4.14v-20.15c0-1.86-.1-3.24-.31-4.14s-.6-1.65-1.16-2.23c-.49-.53-1.06-.91-1.71-1.15-.65-.24-1.5-.38-2.56-.44v-.63h29.39Z"/>
        <path class="cls-34" d="M79.21,72.25l.08-11.29.63.03c.77,2.87,1.68,5.14,2.73,6.79,1.99,3.06,4.48,4.58,7.49,4.58,2.1,0,3.83-.7,5.2-2.11,1.37-1.4,2.05-3.18,2.05-5.33,0-.93-.15-1.88-.45-2.84-.3-.97-.71-1.8-1.22-2.49-.53-.71-1.27-1.39-2.23-2.05s-2.42-1.49-4.39-2.49c-1.73-.88-3.06-1.61-3.98-2.21-.92-.6-1.66-1.21-2.23-1.83-1.57-1.71-2.35-3.8-2.35-6.26,0-1.51.31-2.97.92-4.38.61-1.4,1.46-2.61,2.56-3.61,1.93-1.79,4.22-2.68,6.86-2.68.86,0,1.65.09,2.38.26.73.17,1.7.52,2.93,1.03.91.36,1.53.6,1.86.7.33.1.62.15.88.15.64,0,1.07-.46,1.29-1.39h.63l.19,10.86h-.63c-.49-1.73-.92-3.06-1.27-3.98-.35-.92-.78-1.77-1.27-2.56-.89-1.42-1.87-2.47-2.95-3.16s-2.31-1.03-3.71-1.03c-2.04,0-3.65.69-4.83,2.08-.49.57-.88,1.23-1.16,2-.28.77-.42,1.53-.42,2.3,0,3.05,1.96,5.5,5.87,7.36l3.85,1.86c2.97,1.41,5.11,2.96,6.42,4.65,1.49,1.9,2.24,4.11,2.24,6.62,0,1.67-.34,3.27-1.01,4.8-.95,2.13-2.37,3.77-4.27,4.92-1.9,1.15-4.13,1.73-6.7,1.73-2.35,0-4.61-.46-6.78-1.39-1.13-.49-1.8-.77-2.02-.85-.22-.07-.46-.11-.74-.11-.88,0-1.48.44-1.8,1.31h-.63Z"/>
        <path class="cls-34" d="M125.16,35.03v.63c-1.04.05-1.89.2-2.54.44-.66.24-1.23.62-1.72,1.15-.6.62-1,1.39-1.19,2.3-.19.91-.29,2.48-.29,4.7v15.48c0,2.52.1,4.33.29,5.46s.58,2.16,1.16,3.1c.88,1.44,1.96,2.48,3.24,3.13,1.29.65,2.9.97,4.85.97s3.71-.29,5.43-.86,3.16-1.37,4.31-2.39c.71-.64,1.23-1.33,1.57-2.08.34-.75.56-1.7.67-2.84.07-.75.11-2.52.11-5.3v-15.29c0-1.88-.1-3.26-.31-4.16-.21-.89-.6-1.63-1.16-2.21-.51-.53-1.09-.91-1.74-1.15-.65-.24-1.49-.38-2.53-.44v-.63h12.61v.63c-1.04.05-1.88.2-2.53.44-.65.24-1.23.62-1.74,1.15-.57.58-.95,1.33-1.16,2.23-.21.9-.31,2.28-.31,4.14v17.25c0,2.55-.2,4.43-.59,5.65-.39,1.21-1.17,2.32-2.34,3.32-2.66,2.3-6.46,3.45-11.4,3.45s-8.96-1.08-11.4-3.25c-1.59-1.39-2.53-3.21-2.84-5.47-.11-.8-.16-2.25-.16-4.35v-16.6c0-1.88-.1-3.26-.3-4.16-.2-.89-.59-1.63-1.18-2.21-.49-.53-1.06-.91-1.71-1.15-.65-.24-1.5-.38-2.56-.44v-.63h17.47Z"/>
        <path class="cls-34" d="M153.26,72.36v-.66c1.84,0,3.26-.52,4.27-1.56.56-.58.95-1.33,1.16-2.23.21-.9.31-2.28.31-4.14v-20.15c0-1.93-.11-3.36-.34-4.28-.23-.92-.65-1.67-1.27-2.26-.51-.47-1.08-.82-1.71-1.04s-1.44-.35-2.42-.38v-.63h17.47v.63c-1,.05-1.82.19-2.46.41-.64.22-1.2.57-1.7,1.04-.62.6-1.04,1.36-1.26,2.27-.22.91-.33,2.32-.33,4.24v15.78c0,2.42.06,4.23.19,5.41.13,1.19.37,2.15.74,2.9.64,1.31,1.59,2.27,2.84,2.88,1.26.61,2.93.92,5,.92s4-.29,5.48-.86c1.49-.57,2.7-1.46,3.65-2.67.64-.82,1.16-1.75,1.57-2.79s.79-2.41,1.13-4.1l.66.05-.36,11.21h-32.65Z"/>
        <path class="cls-34" d="M200.81,35.88c-1.15,0-2.38.04-3.69.11-2.81.15-4.9.5-6.28,1.07-1.38.57-2.51,1.54-3.4,2.93-.82,1.28-1.45,3.01-1.89,5.2l-.63-.05.49-10.09h37l.49,10.09-.63.05c-.49-2.53-1.26-4.45-2.31-5.76-1.05-1.3-2.58-2.24-4.58-2.8-1.7-.49-4.57-.74-8.61-.74v27.89c0,1.86.1,3.24.31,4.14.21.9.6,1.65,1.16,2.23.51.53,1.09.91,1.74,1.15.65.24,1.49.38,2.53.44v.63h-17.47v-.63c1.06-.05,1.91-.2,2.56-.44.65-.24,1.23-.62,1.74-1.15.56-.58.95-1.32,1.16-2.21.21-.89.31-2.28.31-4.16v-27.89Z"/>
      </g>
      <g class="cls-36">
        <path class="cls-25" d="M11.73,54.09v9.68c0,1.86.1,3.24.31,4.14.21.9.6,1.65,1.16,2.23.49.51,1.06.89,1.71,1.13.65.25,1.5.4,2.56.45v.63H0v-.63c1.06-.05,1.91-.21,2.56-.45.65-.25,1.22-.62,1.71-1.13.58-.58.98-1.32,1.18-2.21.2-.89.3-2.28.3-4.16v-20.15c0-1.88-.1-3.26-.3-4.16-.2-.89-.59-1.63-1.18-2.21-.49-.53-1.07-.91-1.72-1.15-.66-.24-1.5-.38-2.54-.44v-.63h13.18c2.21,0,3.65,0,4.35.03,2.83.13,5.04.51,6.64,1.15,1.8.73,3.2,1.82,4.2,3.27.99,1.45,1.49,3.13,1.49,5.04,0,2.84-1.08,5.12-3.23,6.84-.66.51-1.38.93-2.17,1.26s-1.85.64-3.19.93c1.09.46,1.9.93,2.43,1.42.42.38.8.86,1.15,1.44.35.57.87,1.59,1.56,3.05,1.62,3.34,2.85,5.77,3.68,7.31.83,1.54,1.53,2.66,2.09,3.35.46.57.9.96,1.33,1.18.43.22,1.02.36,1.76.44v.63h-9.08c-.46-1-.75-1.64-.88-1.91l-1.91-4.35c-1.15-2.61-2.31-4.91-3.47-6.92-1.17-1.99-2.23-3.34-3.2-4.07-.49-.36-1.02-.62-1.59-.78-.57-.15-1.26-.23-2.08-.23h-1.34ZM11.73,53.49h1.04c2.26,0,3.88-.13,4.85-.38.98-.25,1.89-.78,2.75-1.59,1.91-1.82,2.87-4.08,2.87-6.78,0-1.44-.28-2.79-.83-4.06-.56-1.27-1.33-2.31-2.31-3.13-.77-.62-1.68-1.05-2.73-1.3-1.06-.25-2.56-.37-4.51-.37h-1.12v17.61Z"/>
        <path class="cls-27" d="M69.38,35.03l.46,9.02-.63.03c-.24-1.53-.63-2.8-1.18-3.8-.55-1-1.34-1.89-2.38-2.65-.86-.64-1.87-1.09-3.04-1.35-1.17-.26-2.72-.4-4.65-.4h-6.26v16.41h1.64c1.66,0,2.91-.11,3.75-.33s1.52-.61,2.05-1.18c.51-.53.89-1.15,1.13-1.87.25-.72.45-1.78.62-3.19l.63.03-.11,14.66h-.63c-.16-1.4-.41-2.53-.72-3.39-.32-.86-.76-1.59-1.33-2.19-.55-.58-1.26-1.01-2.13-1.29s-1.99-.41-3.34-.41h-1.56v6.26c0,2.5.06,4.32.19,5.46.13,1.14.37,2.09.74,2.86.62,1.31,1.56,2.27,2.83,2.88,1.27.61,2.94.92,5.02.92,2.19,0,4.02-.28,5.5-.83,1.48-.56,2.68-1.42,3.61-2.58.66-.78,1.19-1.68,1.6-2.68.41-1,.79-2.32,1.13-3.96l.63.03-.36,10.88h-32.62v-.63c1.04-.05,1.88-.2,2.53-.44.65-.24,1.23-.62,1.74-1.15.56-.58.95-1.33,1.16-2.23s.31-2.28.31-4.14v-20.15c0-1.86-.1-3.24-.31-4.14s-.6-1.65-1.16-2.23c-.49-.53-1.06-.91-1.71-1.15-.65-.24-1.5-.38-2.56-.44v-.63h29.39Z"/>
        <path class="cls-29" d="M79.21,72.25l.08-11.29.63.03c.77,2.87,1.68,5.14,2.73,6.79,1.99,3.06,4.48,4.58,7.49,4.58,2.1,0,3.83-.7,5.2-2.11,1.37-1.4,2.05-3.18,2.05-5.33,0-.93-.15-1.88-.45-2.84-.3-.97-.71-1.8-1.22-2.49-.53-.71-1.27-1.39-2.23-2.05s-2.42-1.49-4.39-2.49c-1.73-.88-3.06-1.61-3.98-2.21-.92-.6-1.66-1.21-2.23-1.83-1.57-1.71-2.35-3.8-2.35-6.26,0-1.51.31-2.97.92-4.38.61-1.4,1.46-2.61,2.56-3.61,1.93-1.79,4.22-2.68,6.86-2.68.86,0,1.65.09,2.38.26.73.17,1.7.52,2.93,1.03.91.36,1.53.6,1.86.7.33.1.62.15.88.15.64,0,1.07-.46,1.29-1.39h.63l.19,10.86h-.63c-.49-1.73-.92-3.06-1.27-3.98-.35-.92-.78-1.77-1.27-2.56-.89-1.42-1.87-2.47-2.95-3.16s-2.31-1.03-3.71-1.03c-2.04,0-3.65.69-4.83,2.08-.49.57-.88,1.23-1.16,2-.28.77-.42,1.53-.42,2.3,0,3.05,1.96,5.5,5.87,7.36l3.85,1.86c2.97,1.41,5.11,2.96,6.42,4.65,1.49,1.9,2.24,4.11,2.24,6.62,0,1.67-.34,3.27-1.01,4.8-.95,2.13-2.37,3.77-4.27,4.92-1.9,1.15-4.13,1.73-6.7,1.73-2.35,0-4.61-.46-6.78-1.39-1.13-.49-1.8-.77-2.02-.85-.22-.07-.46-.11-.74-.11-.88,0-1.48.44-1.8,1.31h-.63Z"/>
        <path class="cls-28" d="M125.16,35.03v.63c-1.04.05-1.89.2-2.54.44-.66.24-1.23.62-1.72,1.15-.6.62-1,1.39-1.19,2.3-.19.91-.29,2.48-.29,4.7v15.48c0,2.52.1,4.33.29,5.46s.58,2.16,1.16,3.1c.88,1.44,1.96,2.48,3.24,3.13,1.29.65,2.9.97,4.85.97s3.71-.29,5.43-.86,3.16-1.37,4.31-2.39c.71-.64,1.23-1.33,1.57-2.08.34-.75.56-1.7.67-2.84.07-.75.11-2.52.11-5.3v-15.29c0-1.88-.1-3.26-.31-4.16-.21-.89-.6-1.63-1.16-2.21-.51-.53-1.09-.91-1.74-1.15-.65-.24-1.49-.38-2.53-.44v-.63h12.61v.63c-1.04.05-1.88.2-2.53.44-.65.24-1.23.62-1.74,1.15-.57.58-.95,1.33-1.16,2.23-.21.9-.31,2.28-.31,4.14v17.25c0,2.55-.2,4.43-.59,5.65-.39,1.21-1.17,2.32-2.34,3.32-2.66,2.3-6.46,3.45-11.4,3.45s-8.96-1.08-11.4-3.25c-1.59-1.39-2.53-3.21-2.84-5.47-.11-.8-.16-2.25-.16-4.35v-16.6c0-1.88-.1-3.26-.3-4.16-.2-.89-.59-1.63-1.18-2.21-.49-.53-1.06-.91-1.71-1.15-.65-.24-1.5-.38-2.56-.44v-.63h17.47Z"/>
        <path class="cls-32" d="M153.26,72.36v-.66c1.84,0,3.26-.52,4.27-1.56.56-.58.95-1.33,1.16-2.23.21-.9.31-2.28.31-4.14v-20.15c0-1.93-.11-3.36-.34-4.28-.23-.92-.65-1.67-1.27-2.26-.51-.47-1.08-.82-1.71-1.04s-1.44-.35-2.42-.38v-.63h17.47v.63c-1,.05-1.82.19-2.46.41-.64.22-1.2.57-1.7,1.04-.62.6-1.04,1.36-1.26,2.27-.22.91-.33,2.32-.33,4.24v15.78c0,2.42.06,4.23.19,5.41.13,1.19.37,2.15.74,2.9.64,1.31,1.59,2.27,2.84,2.88,1.26.61,2.93.92,5,.92s4-.29,5.48-.86c1.49-.57,2.7-1.46,3.65-2.67.64-.82,1.16-1.75,1.57-2.79s.79-2.41,1.13-4.1l.66.05-.36,11.21h-32.65Z"/>
        <path class="cls-33" d="M200.81,35.88c-1.15,0-2.38.04-3.69.11-2.81.15-4.9.5-6.28,1.07-1.38.57-2.51,1.54-3.4,2.93-.82,1.28-1.45,3.01-1.89,5.2l-.63-.05.49-10.09h37l.49,10.09-.63.05c-.49-2.53-1.26-4.45-2.31-5.76-1.05-1.3-2.58-2.24-4.58-2.8-1.7-.49-4.57-.74-8.61-.74v27.89c0,1.86.1,3.24.31,4.14.21.9.6,1.65,1.16,2.23.51.53,1.09.91,1.74,1.15.65.24,1.49.38,2.53.44v.63h-17.47v-.63c1.06-.05,1.91-.2,2.56-.44.65-.24,1.23-.62,1.74-1.15.56-.58.95-1.32,1.16-2.21.21-.89.31-2.28.31-4.16v-27.89Z"/>
      </g>
      <g>
        <g>
          <g>
            <g>
              <g>
                <line class="cls-35" x1="233.18" y1="17.48" x2="246.82" y2="17.48"/>
                <line class="cls-35" x1="253.01" y1="17.48" x2="266.64" y2="17.48"/>
              </g>
              <g>
                <line class="cls-35" x1="249.91" y1=".75" x2="249.91" y2="13.44"/>
                <line class="cls-35" x1="249.91" y1="21.52" x2="249.91" y2="34.2"/>
              </g>
            </g>
            <g>
              <g>
                <line class="cls-35" x1="240.99" y1="8.55" x2="243.79" y2="11.36"/>
                <line class="cls-35" x1="238.85" y1="6.42" x2="240.09" y2="7.65"/>
                <line class="cls-35" x1="258.85" y1="26.42" x2="256.05" y2="23.61"/>
                <line class="cls-35" x1="260.99" y1="28.56" x2="259.75" y2="27.32"/>
              </g>
              <line class="cls-35" x1="243.79" y1="23.6" x2="240.86" y2="26.53"/>
              <line class="cls-35" x1="258.85" y1="8.55" x2="256.05" y2="11.36"/>
              <line class="cls-35" x1="260.99" y1="6.42" x2="259.75" y2="7.65"/>
              <line class="cls-35" x1="238.85" y1="28.56" x2="240.09" y2="27.32"/>
            </g>
            <g>
              <g>
                <line class="cls-35" x1="238.13" y1="12.46" x2="241.95" y2="14.09"/>
                <line class="cls-35" x1="257.87" y1="20.87" x2="261.69" y2="22.5"/>
              </g>
              <g>
                <line class="cls-35" x1="254.93" y1="5.7" x2="253.3" y2="9.52"/>
                <line class="cls-35" x1="246.52" y1="25.44" x2="244.89" y2="29.26"/>
              </g>
            </g>
            <g>
              <g>
                <line class="cls-35" x1="245.13" y1="5.6" x2="246.68" y2="9.45"/>
                <line class="cls-35" x1="253.14" y1="25.5" x2="254.69" y2="29.36"/>
              </g>
              <g>
                <line class="cls-35" x1="261.79" y1="12.7" x2="257.94" y2="14.25"/>
                <line class="cls-35" x1="241.88" y1="20.71" x2="238.03" y2="22.26"/>
              </g>
            </g>
          </g>
          <path class="cls-35" d="M249.91,7.9c0,9.07-.44,9.57-8.45,9.57,8.01,0,8.45.5,8.45,9.57,0-9.07.44-9.57,8.45-9.57-8.01,0-8.45-.5-8.45-9.57Z"/>
        </g>
        <g>
          <path class="cls-35" d="M240.01,74.44c-.84,5.68,4.51,10.31,10.01,8.66h0c4.16-1.24,6.54-5.64,5.26-9.8-.98-3.21-1.74-6.29-1.11-6.53,3.5-1.37,9.39-3.74,11-4.22l7.6-2.27c1.44-.43,2.68-1.37,3.48-2.65l8.76-14.01,5.75-12.47s-.37-1.76-2.81.25c-2.45,2.02-4.22,6.29-4.22,6.29,0,0-.89-4.07-1.36-4.57-.47-.5-4.39-4.84-5.58-5.08-1.19-.23-1.26,2.95.01,4.71,1.27,1.76,2.77,3.72,2.77,3.72l.64,5.91-1.69-2.6s.72-.8.52-1.49-.82-1.31-1.97-1.23c-.49.03-.69.07-.76.09-.32-.35-1.91-2.05-2.93-2.42-1.14-.41-4.97-2.48-5.62-2.34s-.84,1.32.66,3.28c1.5,1.96,3.77,2.94,3.77,2.94l-1.12.55s-4.65-3.21-5.54-2.95-1.01,1.8.18,2.94c1.2,1.14,1.82,1.81,1.82,1.81,0,0-7.01,3.22-8.93,3.79s-7.91,4.5-9.2,6.12c-1.28,1.61-5.51,6.24-6.35,7.94-.83,1.67-2.04,8.93-3.02,15.6ZM274.2,43.19l.81-.24s.49,1.04.81,1.66c.33.62-.82,1.29-.82,1.29,0,0-.02-1.07-.06-1.27-.04-.2-.75-1.43-.75-1.43ZM265.87,47.57l4.73-2.47.58,1.45-.56,1.53c-2.33.45-4.75-.51-4.75-.51Z"/>
          <path class="cls-35" d="M267.52,40.98l2.13,1.77,1.54,3.8-1.68,4.6s-13.81,2.39-18.15,7.99"/>
          <path class="cls-35" d="M274.31,54.85s.95-9.19.64-10.23-2.94-4.8-3.9-5.45"/>
          <path class="cls-35" d="M276.35,37.22l2.16,2.57,1.69,2.6.48.72c.27.41.36.91.24,1.39l-1.63,6.3"/>
          <line class="cls-35" x1="283.72" y1="37.7" x2="284.77" y2="41.21"/>
          <polyline class="cls-35" points="272.17 38.63 273.46 39.65 275.01 42.95"/>
        </g>
      </g>
      <g class="cls-36">
        <g>
          <g>
            <g>
              <g>
                <path class="cls-31" d="M246.82,17.95h-13.63c-.26,0-.47-.21-.47-.47s.21-.47.47-.47h13.63c.26,0,.47.21.47.47s-.21.47-.47.47Z"/>
                <path class="cls-30" d="M266.64,17.95h-13.63c-.26,0-.47-.21-.47-.47s.21-.47.47-.47h13.63c.26,0,.47.21.47.47s-.21.47-.47.47Z"/>
              </g>
              <g>
                <path class="cls-26" d="M249.91,13.91c-.26,0-.47-.21-.47-.47V.75c0-.26.21-.47.47-.47s.47.21.47.47v12.69c0,.26-.21.47-.47.47Z"/>
                <path class="cls-5" d="M249.91,34.68c-.26,0-.47-.21-.47-.47v-12.69c0-.26.21-.47.47-.47s.47.21.47.47v12.69c0,.26-.21.47-.47.47Z"/>
              </g>
            </g>
            <g>
              <g>
                <path class="cls-2" d="M243.79,11.83c-.12,0-.24-.05-.33-.14l-2.8-2.8c-.19-.19-.19-.48,0-.67s.48-.19.67,0l2.8,2.8c.19.19.19.48,0,.67-.09.09-.21.14-.33.14Z"/>
                <path class="cls-10" d="M240.09,8.13c-.12,0-.24-.05-.33-.14l-1.24-1.24c-.19-.19-.19-.48,0-.67s.48-.19.67,0l1.24,1.24c.19.19.19.48,0,.67-.09.09-.21.14-.33.14Z"/>
                <path class="cls-3" d="M258.85,26.89c-.12,0-.24-.05-.33-.14l-2.8-2.8c-.19-.19-.19-.48,0-.67s.48-.19.67,0l2.8,2.8c.19.19.19.48,0,.67-.09.09-.21.14-.33.14Z"/>
                <path class="cls-1" d="M260.99,29.03c-.12,0-.24-.05-.33-.14l-1.24-1.24c-.19-.19-.19-.48,0-.67s.48-.19.67,0l1.24,1.24c.19.19.19.48,0,.67-.09.09-.21.14-.33.14Z"/>
              </g>
              <path class="cls-8" d="M240.86,27.01c-.12,0-.24-.05-.33-.14-.19-.19-.19-.48,0-.67l2.94-2.94c.19-.19.48-.19.67,0s.19.48,0,.67l-2.94,2.94c-.09.09-.21.14-.33.14Z"/>
              <path class="cls-4" d="M256.05,11.83c-.12,0-.24-.05-.33-.14-.19-.19-.19-.48,0-.67l2.8-2.8c.19-.19.48-.19.67,0s.19.48,0,.67l-2.8,2.8c-.09.09-.21.14-.33.14Z"/>
              <path class="cls-6" d="M259.75,8.13c-.12,0-.24-.05-.33-.14-.19-.19-.19-.48,0-.67l1.24-1.24c.19-.19.48-.19.67,0s.19.48,0,.67l-1.24,1.24c-.09.09-.21.14-.33.14Z"/>
              <path class="cls-9" d="M238.85,29.03c-.12,0-.24-.05-.33-.14-.19-.19-.19-.48,0-.67l1.24-1.24c.19-.19.48-.19.67,0s.19.48,0,.67l-1.24,1.24c-.09.09-.21.14-.33.14Z"/>
            </g>
            <g>
              <g>
                <path class="cls-7" d="M241.95,14.56c-.06,0-.12-.01-.19-.04l-3.82-1.63c-.24-.1-.35-.38-.25-.62.1-.24.38-.35.62-.25l3.82,1.63c.24.1.35.38.25.62-.08.18-.25.29-.44.29Z"/>
                <path class="cls-19" d="M261.69,22.97c-.06,0-.12-.01-.19-.04l-3.82-1.63c-.24-.1-.35-.38-.25-.62s.38-.35.62-.25l3.82,1.63c.24.1.35.38.25.62-.08.18-.25.29-.44.29Z"/>
              </g>
              <g>
                <path class="cls-13" d="M253.3,9.99c-.06,0-.12-.01-.19-.04-.24-.1-.35-.38-.25-.62l1.63-3.82c.1-.24.38-.35.62-.25.24.1.35.38.25.62l-1.63,3.82c-.08.18-.25.29-.44.29Z"/>
                <path class="cls-18" d="M244.89,29.73c-.06,0-.12-.01-.19-.04-.24-.1-.35-.38-.25-.62l1.63-3.82c.1-.24.38-.35.62-.25.24.1.35.38.25.62l-1.63,3.82c-.08.18-.25.29-.44.29Z"/>
              </g>
            </g>
            <g>
              <g>
                <path class="cls-23" d="M246.68,9.92c-.19,0-.37-.11-.44-.3l-1.55-3.85c-.1-.24.02-.52.26-.62.24-.1.52.02.62.26l1.55,3.85c.1.24-.02.52-.26.62-.06.02-.12.03-.18.03Z"/>
                <path class="cls-11" d="M254.69,29.83c-.19,0-.37-.11-.44-.3l-1.55-3.85c-.1-.24.02-.52.26-.62.24-.1.52.02.62.26l1.55,3.85c.1.24-.02.52-.26.62-.06.02-.12.03-.18.03Z"/>
              </g>
              <g>
                <path class="cls-12" d="M257.94,14.72c-.19,0-.37-.11-.44-.3-.1-.24.02-.52.26-.62l3.85-1.55c.24-.1.52.02.62.26.1.24-.02.52-.26.62l-3.85,1.55c-.06.02-.12.03-.18.03Z"/>
                <path class="cls-17" d="M238.03,22.73c-.19,0-.37-.11-.44-.3-.1-.24.02-.52.26-.62l3.85-1.55c.24-.1.52.02.62.26.1.24-.02.52-.26.62l-3.85,1.55c-.06.02-.12.03-.18.03Z"/>
              </g>
            </g>
          </g>
          <path class="cls-14" d="M249.91,27.52c-.26,0-.47-.21-.47-.47,0-8.84-.22-9.1-7.98-9.1-.26,0-.47-.21-.47-.47s.21-.47.47-.47c7.75,0,7.98-.26,7.98-9.1,0-.26.21-.47.47-.47s.47.21.47.47c0,8.84.22,9.1,7.98,9.1.26,0,.47.21.47.47s-.21.47-.47.47c-7.75,0-7.98.26-7.98,9.1,0,.26-.21.47-.47.47ZM247.24,17.48c1.46.44,2.25,1.28,2.67,2.86.42-1.57,1.21-2.41,2.67-2.86-1.46-.44-2.25-1.28-2.67-2.86-.42,1.57-1.21,2.41-2.67,2.86Z"/>
        </g>
        <g>
          <path class="cls-16" d="M248.05,83.9c-2.07.07-4.11-.63-5.72-2.03-2.16-1.87-3.2-4.68-2.79-7.51h0c1.33-9.02,2.36-14.32,3.07-15.74.62-1.26,2.9-3.91,4.72-6.04.71-.82,1.32-1.54,1.68-1.99,1.38-1.73,7.53-5.71,9.43-6.28,1.53-.46,6.51-2.7,8.26-3.49-.3-.31-.76-.76-1.34-1.32-.8-.77-1.17-1.78-.96-2.65.13-.55.49-.95.97-1.09.8-.24,3.13,1.14,4.93,2.33-.73-.51-1.59-1.22-2.29-2.13-1.04-1.36-1.45-2.55-1.15-3.34.13-.36.41-.61.77-.69.5-.11,1.47.3,3.98,1.49.78.37,1.52.72,1.9.86.98.35,2.34,1.71,2.94,2.35.13-.02.31-.03.56-.05,1.09-.07,1.78.38,2.17.96l-.1-.89c-.33-.43-1.6-2.11-2.7-3.63-1.02-1.41-1.35-3.85-.66-4.93.27-.42.67-.61,1.12-.52.54.1,1.7.74,5.66,5.02l.18.2c.37.39.84,2.07,1.17,3.45.73-1.46,2.08-3.82,3.77-5.21,1.12-.92,2-1.25,2.7-1,.57.2.82.73.88,1.01.02.1,0,.2-.03.29l-5.75,12.47-8.79,14.06c-.86,1.37-2.19,2.39-3.74,2.85l-7.6,2.27c-1.2.36-4.87,1.81-8.11,3.08-.99.39-1.94.76-2.76,1.09-.06.25-.12,1.37,1.3,5.99.65,2.12.43,4.37-.62,6.34-1.06,1.97-2.82,3.41-4.96,4.05-.69.21-1.4.32-2.1.35ZM240.48,74.5c-.37,2.51.55,4.99,2.47,6.65,1.91,1.66,4.51,2.21,6.93,1.49,1.9-.57,3.46-1.84,4.4-3.59.93-1.74,1.12-3.73.55-5.61-1.88-6.13-1.47-6.86-.83-7.11.84-.33,1.82-.72,2.85-1.12,3.25-1.28,6.94-2.74,8.18-3.11l7.6-2.27c1.33-.4,2.47-1.27,3.21-2.45l8.76-14.01,5.64-12.24c-.04-.07-.11-.16-.22-.2-.16-.05-.67-.08-1.78.84-2.33,1.92-4.07,6.07-4.09,6.11-.08.19-.27.31-.48.29-.21-.02-.38-.17-.42-.37-.41-1.85-1-4.04-1.25-4.35l-.18-.2c-3.9-4.22-4.92-4.69-5.14-4.73-.04,0-.07-.01-.14.1-.39.61-.26,2.63.63,3.87,1.26,1.74,2.75,3.69,2.76,3.71.05.07.08.15.09.24l.64,5.91c.02.22-.11.42-.31.5-.21.07-.44,0-.56-.19l-1.69-2.6c-.12-.18-.1-.42.04-.57.18-.2.51-.72.42-1.04-.11-.36-.45-.97-1.49-.89-.5.03-.62.06-.63.07-.18.07-.37.02-.51-.13-.82-.9-2.03-2.04-2.74-2.29-.42-.15-1.15-.5-1.99-.9-1.12-.53-3-1.43-3.4-1.42,0,0-.02,0-.05.09-.1.28,0,1.1,1.02,2.44,1.4,1.83,3.56,2.79,3.58,2.8.17.07.28.24.29.42,0,.18-.1.36-.27.44l-1.12.55c-.15.07-.34.06-.48-.04-2.07-1.43-4.64-2.93-5.15-2.88-.18.06-.26.25-.3.4-.1.4.03,1.1.7,1.74,1.19,1.14,1.82,1.8,1.84,1.83.1.11.15.27.12.42-.03.15-.13.28-.27.34-.29.13-7.07,3.24-8.99,3.81-1.92.57-7.78,4.47-8.96,5.96-.38.47-.99,1.19-1.71,2.02-1.7,1.98-4.02,4.68-4.59,5.84-.45.92-1.34,4.35-2.98,15.46h0ZM279.09,39.81l.42.65-.13-1.18c-.09.21-.2.39-.29.54ZM270.64,38.33c.16.1.31.21.45.3h.03c-.15-.1-.31-.2-.48-.3ZM269.59,48.67c-2.02.07-3.8-.62-3.89-.66-.17-.07-.29-.23-.3-.42,0-.18.09-.36.25-.44l4.73-2.47c.12-.06.26-.07.38-.02.13.05.23.14.28.27l.59,1.45c.04.11.05.23,0,.34l-.56,1.53c-.06.16-.19.27-.35.3-.38.07-.76.11-1.13.13ZM267.12,47.45c.82.2,1.99.38,3.15.21l.4-1.1-.32-.79-3.23,1.69ZM275.02,46.36c-.09,0-.17-.02-.25-.06-.15-.08-.24-.24-.24-.4,0-.49-.03-1.08-.05-1.19-.04-.11-.39-.76-.69-1.28-.07-.13-.08-.28-.03-.41s.17-.24.3-.28l.81-.24c.23-.07.46.04.56.25,0,.01.49,1.04.8,1.63.4.75-.29,1.5-1,1.92-.07.04-.15.06-.22.06Z"/>
          <path class="cls-15" d="M251.38,59.61c-.11,0-.22-.03-.31-.1-.21-.16-.24-.46-.08-.66,4.11-5.31,16.15-7.74,18.17-8.12l1.52-4.17-1.42-3.52-2.04-1.69c-.2-.17-.23-.47-.06-.67.17-.2.47-.23.67-.06l2.13,1.77c.06.05.11.11.14.19l1.54,3.8c.04.11.05.23,0,.34l-1.68,4.6c-.06.16-.2.28-.36.3-.14.02-13.68,2.42-17.85,7.81-.09.12-.22.18-.36.18Z"/>
          <path class="cls-24" d="M274.32,55.32s-.04,0-.07,0c-.26-.03-.45-.26-.42-.52.39-3.78.85-9.39.66-10.04-.27-.92-2.83-4.6-3.71-5.19-.22-.15-.28-.44-.13-.66.15-.22.44-.28.66-.13,1.06.71,3.76,4.6,4.09,5.7.32,1.07-.46,8.86-.62,10.41-.02.24-.22.42-.45.42Z"/>
          <path class="cls-21" d="M279.3,51.27s-.09,0-.14-.01c-.25-.07-.41-.32-.34-.58l1.63-6.3c.09-.34.03-.71-.17-1.01l-.48-.72-1.69-2.61-2.12-2.52c-.17-.2-.14-.5.06-.67s.5-.14.67.06l2.16,2.57,2.2,3.36c.35.52.46,1.17.3,1.77l-1.63,6.3c-.05.21-.24.35-.44.35Z"/>
          <path class="cls-20" d="M284.78,41.68c-.21,0-.41-.13-.47-.34l-1.05-3.51c-.07-.25.07-.51.32-.59.25-.08.51.07.59.32l1.05,3.51c.07.25-.07.51-.32.59-.04.01-.08.02-.12.02Z"/>
          <path class="cls-22" d="M275.03,43.42c-.18,0-.36-.09-.45-.27l-1.5-3.2-1.21-.95c-.21-.16-.24-.46-.08-.67.16-.21.46-.24.67-.08l1.29,1.02c.06.05.1.1.14.17l1.55,3.3c.11.24,0,.52-.23.63-.06.03-.12.04-.18.04Z"/>
        </g>
      </g>
    </g>
  </g>
</svg>