<?xml version="1.0" encoding="UTF-8"?>
<svg id="_レイヤー_2" data-name="レイヤー 2" xmlns="http://www.w3.org/2000/svg" viewBox="0 0 13.66 16.19">
  <defs>
    <style>
      .cls-1 {
        fill: #345e97;
        stroke-width: 0px;
      }
    </style>
  </defs>
  <g id="design">
    <g>
      <g>
        <path class="cls-1" d="m2.71,12.86h-1.36V3.48C1.35,2.3.01,1.4,0,1.39L.75.25c.08.05,1.96,1.31,1.96,3.23v9.38Z"/>
        <path class="cls-1" d="m6.01,12.86h-1.36V3.48c0-.76-.37-1.4-.66-1.78-.56.39-1.28,1.06-1.28,1.78v9.38h-1.36V3.48C1.35,1.51,3.71.27,3.81.22l.42-.22.35.31c.06.05,1.44,1.31,1.44,3.16v9.38Z"/>
        <path class="cls-1" d="m11.47,14.66c-1.04,0-1.87-.25-2.47-.76-.7-.59-1.05-1.47-1.05-2.62V3.48c0-.76-.37-1.4-.66-1.78-.56.39-1.28,1.06-1.28,1.78v9.38h-1.36V3.48C4.65,1.51,7.01.27,7.11.22l.42-.22.35.31c.06.05,1.44,1.31,1.44,3.16v7.81c0,.73.19,1.26.57,1.58.51.43,1.45.55,2.71.34l.22,1.34c-.48.08-.93.12-1.34.12Z"/>
      </g>
      <polygon class="cls-1" points="11.35 16.19 10.39 15.22 11.74 13.87 10.39 12.52 11.35 11.56 13.66 13.87 11.35 16.19"/>
    </g>
  </g>
</svg>