<svg xmlns="http://www.w3.org/2000/svg" xmlns:xlink="http://www.w3.org/1999/xlink" viewBox="0 0 339.72 70.88"><defs><style>.cls-1{fill:#39385d;}.cls-2{opacity:0.5;}.cls-3{fill:url(#新規グラデーションスウォッチ_1);}.cls-4{fill:url(#新規グラデーションスウォッチ_1-3);}.cls-5{fill:url(#新規グラデーションスウォッチ_1-4);}.cls-6{fill:url(#新規グラデーションスウォッチ_1-5);}.cls-7{fill:url(#新規グラデーションスウォッチ_1-7);}.cls-8{fill:url(#新規グラデーションスウォッチ_1-9);}.cls-9{fill:url(#新規グラデーションスウォッチ_1-11);}.cls-10{fill:url(#新規グラデーションスウォッチ_1-12);}.cls-11{fill:url(#新規グラデーションスウォッチ_1-13);}.cls-12{fill:url(#新規グラデーションスウォッチ_1-14);}.cls-13{fill:url(#新規グラデーションスウォッチ_1-15);}.cls-14{fill:url(#新規グラデーションスウォッチ_1-16);}.cls-15{fill:url(#新規グラデーションスウォッチ_1-17);}.cls-16{fill:url(#新規グラデーションスウォッチ_1-18);}.cls-17{fill:url(#新規グラデーションスウォッチ_1-19);}</style><linearGradient id="新規グラデーションスウォッチ_1" x1="-281.33" y1="14.89" x2="323.76" y2="14.89" gradientUnits="userSpaceOnUse"><stop offset="0" stop-color="#c9ddf1"/><stop offset="0.06" stop-color="#c2daf0" stop-opacity="0.97"/><stop offset="0.15" stop-color="#aed2ec" stop-opacity="0.89"/><stop offset="0.26" stop-color="#8dc5e7" stop-opacity="0.75"/><stop offset="0.38" stop-color="#5fb3df" stop-opacity="0.57"/><stop offset="0.52" stop-color="#269cd5" stop-opacity="0.33"/><stop offset="0.54" stop-color="#1e99d4" stop-opacity="0.3"/><stop offset="0.76" stop-color="#0075bb"/><stop offset="0.96" stop-color="#005b94"/></linearGradient><linearGradient id="新規グラデーションスウォッチ_1-3" x1="-281.33" y1="14.95" x2="323.76" y2="14.95" xlink:href="#新規グラデーションスウォッチ_1"/><linearGradient id="新規グラデーションスウォッチ_1-4" x1="-281.33" y1="14.63" x2="323.76" y2="14.63" xlink:href="#新規グラデーションスウォッチ_1"/><linearGradient id="新規グラデーションスウォッチ_1-5" x1="-281.33" y1="14.89" x2="323.76" y2="14.89" xlink:href="#新規グラデーションスウォッチ_1"/><linearGradient id="新規グラデーションスウォッチ_1-7" x1="-281.33" y1="14.8" x2="323.76" y2="14.8" xlink:href="#新規グラデーションスウォッチ_1"/><linearGradient id="新規グラデーションスウォッチ_1-9" x1="-281.33" y1="15.16" x2="323.76" y2="15.16" xlink:href="#新規グラデーションスウォッチ_1"/><linearGradient id="新規グラデーションスウォッチ_1-11" x1="-281.33" y1="14.76" x2="323.76" y2="14.76" xlink:href="#新規グラデーションスウォッチ_1"/><linearGradient id="新規グラデーションスウォッチ_1-12" x1="-281.33" y1="58.92" x2="323.76" y2="58.92" xlink:href="#新規グラデーションスウォッチ_1"/><linearGradient id="新規グラデーションスウォッチ_1-13" x1="-281.33" y1="58.88" x2="323.76" y2="58.88" xlink:href="#新規グラデーションスウォッチ_1"/><linearGradient id="新規グラデーションスウォッチ_1-14" x1="-281.33" y1="59.06" x2="323.76" y2="59.06" xlink:href="#新規グラデーションスウォッチ_1"/><linearGradient id="新規グラデーションスウォッチ_1-15" x1="-281.33" y1="59.26" x2="323.76" y2="59.26" xlink:href="#新規グラデーションスウォッチ_1"/><linearGradient id="新規グラデーションスウォッチ_1-16" x1="-281.33" y1="58.79" x2="323.76" y2="58.79" xlink:href="#新規グラデーションスウォッチ_1"/><linearGradient id="新規グラデーションスウォッチ_1-17" x1="-281.33" y1="58.28" x2="323.76" y2="58.28" xlink:href="#新規グラデーションスウォッチ_1"/><linearGradient id="新規グラデーションスウォッチ_1-18" x1="-281.33" y1="59.85" x2="323.76" y2="59.85" xlink:href="#新規グラデーションスウォッチ_1"/><linearGradient id="新規グラデーションスウォッチ_1-19" x1="-281.33" y1="58.9" x2="323.76" y2="58.9" xlink:href="#新規グラデーションスウォッチ_1"/></defs><g id="レイヤー_2" data-name="レイヤー 2"><g id="design"><path class="cls-1" d="M1.11,28.76c-.54-.26-.57-.42-.57-1.44,0-1.9.15-3.42.19-4,0-.42.11-.61.3-.61s.27.12.27.42a7,7,0,0,0,.11,1.41C2,27.32,4.49,28.38,7,28.38a5.07,5.07,0,0,0,5.44-5.05c0-2.62-1.11-4.14-4.37-6.84L6.39,15.08c-4-3.3-4.94-5.66-4.94-8.24C1.45,2.77,4.49,0,9.31,0a14.7,14.7,0,0,1,3.54.38,6.29,6.29,0,0,0,1.33.19c.3,0,.38.08.38.27s-.16,1.44-.16,4c0,.61-.07.88-.26.88s-.27-.19-.31-.5a6.42,6.42,0,0,0-.49-1.9c-.23-.41-1.25-2-4.75-2C6,1.33,3.92,3,3.92,5.74c0,2.16,1,3.53,4.63,6.38L9.62,13c4.48,3.53,5.54,5.89,5.54,8.92a7.85,7.85,0,0,1-3.23,6.31,10,10,0,0,1-5.73,1.6A11.49,11.49,0,0,1,1.11,28.76Z"/><path class="cls-1" d="M38.12,0c8.54,0,14.93,5.4,14.93,14.25,0,8.51-6,15.54-15.16,15.54-10.41,0-14.74-8.1-14.74-14.93C23.15,8.7,27.63,0,38.12,0Zm.79,28.34c3.42,0,10.49-2,10.49-13,0-9.12-5.55-14-11.55-14-6.35,0-11.1,4.18-11.1,12.5C26.75,22.64,32.07,28.34,38.91,28.34Z"/><path class="cls-1" d="M67.72,18.31c0,5.59.15,8,.83,8.7s1.6.88,4.56.88c2,0,3.69,0,4.6-1.14a5.45,5.45,0,0,0,1-2.28c0-.31.11-.5.34-.5s.23.16.23.57a24.68,24.68,0,0,1-.57,3.8c-.27.88-.38,1-2.4,1-2.73,0-4.71-.08-6.3-.11s-2.78-.12-3.88-.12c-.15,0-.8,0-1.56,0s-1.59.08-2.16.08-.61-.08-.61-.31.08-.23.31-.23a5.48,5.48,0,0,0,1.13-.15c.76-.15,1-1,1.11-2.09.19-1.59.19-4.6.19-8.24V11.55c0-5.93,0-7-.08-8.21s-.38-1.9-1.63-2.16a6.83,6.83,0,0,0-1.3-.12c-.15,0-.3-.07-.3-.22s.19-.31.61-.31c1.71,0,4.1.12,4.29.12s3-.12,4.11-.12c.41,0,.6.08.6.31s-.15.22-.3.22a8.33,8.33,0,0,0-1.25.12c-1.11.19-1.41.83-1.49,2.16s-.07,2.28-.07,8.21Z"/><path class="cls-1" d="M94.77,1.48C95.23.23,95.38,0,95.61,0s.38.19.83,1.37C97,2.81,103,18.5,105.3,24.28c1.37,3.38,2.47,4,3.27,4.22a4.85,4.85,0,0,0,1.51.22c.23,0,.38,0,.38.23s-.34.31-.75.31c-.57,0-3.35,0-6-.08-.72,0-1.14,0-1.14-.27s.11-.22.27-.26.45-.42.22-1l-3.53-9.34a.33.33,0,0,0-.34-.23H91.05a.4.4,0,0,0-.38.3l-2.28,6.73a8.06,8.06,0,0,0-.53,2.54c0,.76.8,1.1,1.44,1.1h.38c.27,0,.38.08.38.23s-.23.31-.57.31c-.91,0-2.54-.12-3-.12s-2.51.12-4.29.12c-.5,0-.73-.08-.73-.31s.16-.23.34-.23A11,11,0,0,0,83,28.65c1.74-.23,2.5-1.67,3.19-3.57Zm4,15.2c.19,0,.19-.11.16-.27L95.27,6.15q-.28-.86-.57,0L91.35,16.41c-.07.19,0,.27.12.27Z"/><path class="cls-1" d="M118.18,11.55c0-5.93,0-7-.07-8.21s-.38-1.9-1.64-2.16a6.73,6.73,0,0,0-1.29-.12c-.15,0-.3-.07-.3-.22s.19-.31.6-.31c1.71,0,4.11.12,4.3.12.42,0,3.3-.12,4.48-.12,2.4,0,4.94.23,7,1.67a6.67,6.67,0,0,1,2.63,5.17c0,2.81-1.18,5.62-4.6,8.78,3.11,4,5.7,7.37,7.9,9.72a7.84,7.84,0,0,0,4.64,2.74,9.39,9.39,0,0,0,1.48.11c.19,0,.34.12.34.23s-.23.31-.91.31H140a7.59,7.59,0,0,1-4.06-.73c-1.64-.87-3-2.73-5.13-5.58-1.6-2.09-3.38-4.64-4.14-5.62a.61.61,0,0,0-.5-.23L121.49,17c-.19,0-.27.12-.27.31v.91c0,3.64,0,6.65.19,8.24.12,1.1.34,1.94,1.48,2.09a15.67,15.67,0,0,0,1.71.15c.23,0,.31.12.31.23s-.19.31-.61.31c-2.09,0-4.48-.12-4.67-.12,0,0-2.44.12-3.58.12-.41,0-.6-.08-.6-.31s.07-.23.3-.23a5.57,5.57,0,0,0,1.14-.15c.76-.15,1-1,1.1-2.09.19-1.59.19-4.6.19-8.24Zm3,3.31a.49.49,0,0,0,.27.45,10.51,10.51,0,0,0,4,.61,4.92,4.92,0,0,0,2.85-.72c1.33-.91,2.31-3,2.31-5.85,0-4.75-2.5-7.6-6.57-7.6a11,11,0,0,0-2.54.23.45.45,0,0,0-.31.45Z"/><path class="cls-1" d="M163.74,11.55c0-5.93,0-7-.07-8.21s-.38-1.9-1.64-2.16a6.73,6.73,0,0,0-1.29-.12c-.15,0-.3-.07-.3-.22s.19-.31.61-.31c1.71,0,4.1.12,4.29.12.42,0,3.31-.12,4.48-.12,2.4,0,4.94.23,7,1.67a6.67,6.67,0,0,1,2.62,5.17c0,2.81-1.18,5.62-4.6,8.78,3.12,4,5.7,7.37,7.9,9.72a7.87,7.87,0,0,0,4.64,2.74,9.39,9.39,0,0,0,1.48.11c.19,0,.34.12.34.23s-.23.31-.91.31h-2.7a7.64,7.64,0,0,1-4.06-.73c-1.64-.87-3-2.73-5.13-5.58-1.6-2.09-3.38-4.64-4.14-5.62a.6.6,0,0,0-.5-.23L167.05,17c-.19,0-.27.12-.27.31v.91c0,3.64,0,6.65.19,8.24.12,1.1.35,1.94,1.49,2.09a15.27,15.27,0,0,0,1.71.15c.22,0,.3.12.3.23s-.19.31-.61.31c-2.09,0-4.48-.12-4.67-.12,0,0-2.43.12-3.57.12-.42,0-.61-.08-.61-.31s.07-.23.3-.23a5.57,5.57,0,0,0,1.14-.15c.76-.15,1-1,1.1-2.09.19-1.59.19-4.6.19-8.24Zm3,3.31a.49.49,0,0,0,.27.45,10.51,10.51,0,0,0,4,.61,4.9,4.9,0,0,0,2.85-.72c1.33-.91,2.32-3,2.32-5.85,0-4.75-2.51-7.6-6.58-7.6a11,11,0,0,0-2.54.23.45.45,0,0,0-.31.45Z"/><path class="cls-1" d="M194.68,11.55c0-5.93,0-7-.08-8.21s-.38-1.9-1.63-2.16a6.83,6.83,0,0,0-1.3-.12c-.15,0-.3-.07-.3-.22s.19-.31.61-.31c.87,0,1.9,0,2.73,0l1.56.08c.27,0,7.83,0,8.7,0a11.42,11.42,0,0,0,1.64-.19c.19,0,.34-.19.53-.19s.15.15.15.34-.19.72-.3,1.79c0,.38-.12,2.05-.19,2.5,0,.19-.12.42-.27.42s-.3-.19-.3-.49A4.1,4.1,0,0,0,206,3.42c-.27-.61-.65-1.06-2.7-1.29-.65-.08-4.79-.12-5.2-.12-.16,0-.23.12-.23.38V12.88c0,.27,0,.38.23.38.49,0,5.16,0,6-.08s1.44-.15,1.78-.53.42-.49.57-.49.19.07.19.3-.19.88-.3,2.13c-.08.76-.15,2.17-.15,2.43s0,.72-.27.72-.27-.15-.27-.34a3.89,3.89,0,0,0-.15-1.25c-.15-.53-.49-1.18-2-1.33-1-.12-4.79-.19-5.44-.19a.23.23,0,0,0-.26.26v3.35c0,1.29,0,5.7,0,6.49.11,2.63.68,3.12,4.4,3.12a10.86,10.86,0,0,0,3.65-.42c1-.42,1.45-1.18,1.71-2.73.08-.42.15-.57.34-.57s.23.3.23.57-.3,2.88-.49,3.68c-.27,1-.57,1-2.05,1-2.85,0-4.94-.08-6.42-.11s-2.4-.12-3-.12c-.07,0-.72,0-1.52,0s-1.63.08-2.2.08-.61-.08-.61-.31.08-.23.3-.23a5.48,5.48,0,0,0,1.14-.15c.76-.15,1-1,1.11-2.09.19-1.59.19-4.6.19-8.24Z"/><path class="cls-1" d="M228.23,18.24c0,3.64,0,6.65.19,8.24.11,1.1.34,1.94,1.48,2.09a15.47,15.47,0,0,0,1.71.15c.23,0,.3.12.3.23s-.19.31-.6.31c-2.09,0-4.49-.12-4.68-.12s-2.58.12-3.72.12c-.42,0-.61-.08-.61-.31s.08-.23.31-.23a5.66,5.66,0,0,0,1.14-.15c.76-.15.95-1,1.1-2.09.19-1.59.19-4.6.19-8.24V2.17l-5.63.07c-2.35,0-3.26.31-3.87,1.22a6.71,6.71,0,0,0-.65,1.18c-.11.3-.22.38-.38.38s-.19-.12-.19-.35.76-3.64.84-3.95.23-.72.38-.72a7,7,0,0,0,1.67.46c1.1.11,2.55.19,3,.19h14.25a15.59,15.59,0,0,0,2.7-.19c.57-.08.91-.19,1.06-.19s.19.22.19.45c0,1.14-.11,3.76-.11,4.18s-.12.5-.27.5-.26-.12-.3-.65l0-.42c-.11-1.14-1-2-4.67-2.09l-4.79-.07Z"/><path class="cls-1" d="M246.47,11.55c0-5.93,0-7-.08-8.21s-.38-1.9-1.63-2.16a6.73,6.73,0,0,0-1.29-.12c-.15,0-.31-.07-.31-.22s.19-.31.61-.31c1.71,0,4,.12,4.37.12s2.62-.12,3.76-.12c.42,0,.61.08.61.31s-.15.22-.3.22a5.27,5.27,0,0,0-1,.12c-1,.15-1.33.83-1.41,2.16s-.07,2.28-.07,8.21v5.32c0,5.47,1.21,7.83,2.84,9.38a7.45,7.45,0,0,0,5.74,2.09,8,8,0,0,0,6-2.73c1.75-2.17,2.2-5.4,2.2-9.31V11.55c0-5.93,0-7-.07-8.21s-.38-1.9-1.64-2.16a6.73,6.73,0,0,0-1.29-.12c-.15,0-.3-.07-.3-.22s.19-.31.6-.31c1.71,0,3.8.12,4,.12s2.05-.12,3.19-.12c.42,0,.61.08.61.31s-.15.22-.3.22a5.27,5.27,0,0,0-.95.12c-1,.23-1.33.83-1.41,2.16s-.08,2.28-.08,8.21v4.07c0,4.1-.45,8.66-3.49,11.36a11.15,11.15,0,0,1-7.83,2.81c-1.29,0-5.13-.15-7.82-2.7-1.87-1.79-3.31-4.45-3.31-10Z"/><path class="cls-1" d="M282.49,11.55c0-5.93,0-7-.07-8.21s-.38-1.9-1.64-2.16a6.73,6.73,0,0,0-1.29-.12c-.15,0-.3-.07-.3-.22s.19-.31.61-.31c1.7,0,4.1.12,4.29.12.42,0,3.3-.12,4.48-.12,2.4,0,4.94.23,6.95,1.67a6.64,6.64,0,0,1,2.63,5.17c0,2.81-1.18,5.62-4.6,8.78,3.12,4,5.7,7.37,7.9,9.72a7.84,7.84,0,0,0,4.64,2.74,9.39,9.39,0,0,0,1.48.11c.19,0,.34.12.34.23s-.23.31-.91.31h-2.7a7.59,7.59,0,0,1-4.06-.73c-1.64-.87-3-2.73-5.13-5.58-1.6-2.09-3.38-4.64-4.14-5.62a.61.61,0,0,0-.5-.23L285.8,17c-.19,0-.27.12-.27.31v.91c0,3.64,0,6.65.19,8.24.12,1.1.34,1.94,1.48,2.09a15.67,15.67,0,0,0,1.71.15c.23,0,.31.12.31.23s-.19.31-.61.31c-2.09,0-4.48-.12-4.67-.12s-2.44.12-3.57.12c-.42,0-.61-.08-.61-.31s.07-.23.3-.23a5.57,5.57,0,0,0,1.14-.15c.76-.15.95-1,1.1-2.09.19-1.59.19-4.6.19-8.24Zm3,3.31a.49.49,0,0,0,.27.45,10.51,10.51,0,0,0,4,.61,4.92,4.92,0,0,0,2.85-.72c1.33-.91,2.32-3,2.32-5.85,0-4.75-2.51-7.6-6.58-7.6a11,11,0,0,0-2.54.23.45.45,0,0,0-.31.45Z"/><path class="cls-1" d="M314.45,24.09c.08,3.11.46,4.1,1.48,4.41a8.23,8.23,0,0,0,1.9.22c.19,0,.31.08.31.23s-.23.31-.69.31c-2.16,0-3.68-.12-4-.12s-1.94.12-3.65.12c-.38,0-.61,0-.61-.31s.11-.23.3-.23A5.38,5.38,0,0,0,311,28.5c1-.27,1.14-1.37,1.14-4.83l0-21.77c0-1.48.11-1.9.42-1.9s.95.84,1.33,1.22c.57.64,6.23,6.76,12.08,13,3.76,4,7.9,8.66,9.12,9.91l-.42-19.3c0-2.47-.3-3.3-1.48-3.61a10.38,10.38,0,0,0-1.86-.19c-.27,0-.31-.11-.31-.26s.31-.27.76-.27c1.71,0,3.54.12,3.95.12S337.48.53,339,.53c.42,0,.69,0,.69.27s-.15.26-.42.26a3.16,3.16,0,0,0-.91.12c-1.26.26-1.41,1.1-1.41,3.38l-.07,22.26c0,2.51-.08,2.7-.35,2.7s-.76-.42-2.77-2.43c-.42-.38-5.89-6-9.92-10.3-4.4-4.75-8.7-9.53-9.91-10.9Z"/><path class="cls-1" d="M22.36,64.12a27.43,27.43,0,0,1-4.68,2.62A16.32,16.32,0,0,0,23.92,69a6.39,6.39,0,0,0-1.35,1.93c-5.31-1-8.76-3.62-10.74-7.75a19.08,19.08,0,0,1-3.41,2v2.78L14,67.11l.1,1.92L3.85,70.59l-.37-2c.76-.08,1.64-.21,2.6-.34v-2.1A31.88,31.88,0,0,1,1.3,67.5,8.39,8.39,0,0,0,0,65.73a29,29,0,0,0,8.92-2.86H.44V61h10.3V59.46h2.39V61H23.45v1.92H14a10.09,10.09,0,0,0,2.13,2.7,34.75,34.75,0,0,0,4.5-2.7ZM6,53.35H.34V51.66H2.05a10.93,10.93,0,0,0-1.5-.8A11.29,11.29,0,0,0,2.6,47l1.85.47c-.16.41-.32.83-.5,1.25H6V47H8v1.77h4.48v1.61H8v1.32h5.26v1.69H8v1.17h4.66v3.07c0,.83-.13,1.22-.73,1.48a6.58,6.58,0,0,1-2.5.26,7.36,7.36,0,0,0-.62-1.48c.75,0,1.35,0,1.59,0s.28-.08.28-.26V56.08H8v4H6v-4H3.43v3.38H1.53V54.52H6Zm0-1.69V50.34H3.15c-.29.49-.58.93-.86,1.32ZM16.72,56.6H14.53V48h2.19Zm5.77,1.15c0,1.14-.23,1.66-1,2a12.19,12.19,0,0,1-3.82.34,8.38,8.38,0,0,0-.75-2c1.29,0,2.54,0,2.93,0s.47-.13.47-.42V47.19h2.21Z"/><path class="cls-1" d="M42.74,54.65a23.09,23.09,0,0,0,9.55,10,10.92,10.92,0,0,0-1.82,2.14,25.31,25.31,0,0,1-9.21-10v6.94h4.66V66.2H41.26v4.6H38.71V66.2H34V63.75h4.75V56.84a26.31,26.31,0,0,1-9.15,10,14.7,14.7,0,0,0-1.71-2c3.77-2,7.28-6,9.41-10.22h-8.5V52.21h10V47h2.55v5.25H51.33v2.44Z"/><path class="cls-1" d="M65.34,48.13a37.77,37.77,0,0,1-2.81,5.33V70.77H60.11V56.86a28.38,28.38,0,0,1-3,3.28,17.08,17.08,0,0,0-1.46-2.52A28.15,28.15,0,0,0,63,47.35ZM76.21,68.2c1.35,0,1.53-.91,1.74-4.63a7.1,7.1,0,0,0,2.26,1c-.31,4.32-1,5.85-3.85,5.85H71.45c-2.94,0-3.8-.88-3.8-4V47.58h2.42v9.31a41.63,41.63,0,0,0,7.23-5L79,54a62.61,62.61,0,0,1-9,5.38v7.1c0,1.48.26,1.74,1.61,1.74Z"/><path class="cls-1" d="M94.61,70.18,92.4,68.1c4.87-1.8,7.15-4,7.15-10.92v-1H92.69V60a23.81,23.81,0,0,0,.13,2.52H89.93c0-.37.13-1.43.13-2.52v-3.9H87.52c-1.23,0-2.29,0-2.71.1V53.41a17.5,17.5,0,0,0,2.71.2h2.54v-3a14.87,14.87,0,0,0-.15-2.08h2.94a12.88,12.88,0,0,0-.16,2.08v3h6.86v-3a16.42,16.42,0,0,0-.13-2.26h2.94a17.58,17.58,0,0,0-.15,2.26v3h2.44a17.14,17.14,0,0,0,2.6-.15v2.75c-.42-.05-1.32-.07-2.57-.07h-2.47V57C102.21,63.73,100.7,67.45,94.61,70.18Z"/><path class="cls-1" d="M117.65,57.33h14.14c1.25,0,2.27-.1,2.92-.15V60.4c-.58,0-1.77-.13-2.92-.13H117.65c-1.43,0-3,0-3.87.13V57.18C114.63,57.23,116.25,57.33,117.65,57.33Z"/><path class="cls-1" d="M146.74,51.46v5.43a71.5,71.5,0,0,0,9.49-3,14.33,14.33,0,0,0,2.53-1.28l1.14,2.63c-.86.34-1.9.81-2.73,1.12a97.8,97.8,0,0,1-10.43,3.27V64.9c0,1.25.55,1.56,1.77,1.82a22.44,22.44,0,0,0,3.25.18,43.57,43.57,0,0,0,9-.86v3a75.55,75.55,0,0,1-9.12.52,28.59,28.59,0,0,1-4.27-.26c-2.1-.39-3.3-1.43-3.3-3.61V51.46a15.63,15.63,0,0,0-.18-2.4h3A23.2,23.2,0,0,0,146.74,51.46Zm13.73.2-1.69.73a31.77,31.77,0,0,0-2.08-3.59l1.69-.7A38.43,38.43,0,0,1,160.47,51.66Zm3-1.11-1.69.72a24.67,24.67,0,0,0-2.1-3.56l1.66-.7A29.4,29.4,0,0,1,163.46,50.55Z"/><path class="cls-1" d="M187.85,52.63A35.61,35.61,0,0,1,183.59,60,69.36,69.36,0,0,1,191,67.65l-2.29,2a57.36,57.36,0,0,0-6.89-7.59,34.12,34.12,0,0,1-10,7.49l-2.1-2.21a29.11,29.11,0,0,0,10.68-7.62,21.6,21.6,0,0,0,4.14-6.86H175c-1,0-2.42.13-2.84.15V50.1a27.1,27.1,0,0,0,2.84.19h9.64a8.23,8.23,0,0,0,2.27-.26l1.68,1.24A8.72,8.72,0,0,0,187.85,52.63Z"/><path class="cls-1" d="M226.69,50.39V65.24H224.2v-1.3h-6.61v6.89H215.1V63.94h-6.42v1.43h-2.4v-15h8.82V47h2.49v3.41Zm-18,2.31V56h6.42V52.7Zm6.42,8.92V58.19h-6.42v3.43Zm2.49-8.92V56h6.61V52.7Zm6.61,8.92V58.19h-6.61v3.43Z"/><path class="cls-1" d="M238.55,65.26c1.14,1.8,3.28,2.63,6.14,2.73s8.65,0,11.9-.18a11.36,11.36,0,0,0-.8,2.47c-2.94.13-8.17.18-11.13,0-3.3-.13-5.54-1-7.18-3-1.22,1.07-2.47,2.11-3.82,3.23l-1.25-2.5a39,39,0,0,0,3.77-2.68V59.28h-3.32V57.05h5.69Zm-1.2-12.14A19.62,19.62,0,0,0,233,49l1.8-1.45a20.31,20.31,0,0,1,4.44,4Zm11.37-5c.52,7.67,2.34,13.84,7.59,16.51a10.68,10.68,0,0,0-1.9,1.85c-3.43-2-5.43-5.38-6.6-9.59a17.85,17.85,0,0,1-6.5,9.59,15.8,15.8,0,0,0-1.9-1.82c3.69-2.29,5.8-6.24,6.76-11.39l.88.13c-.15-1-.26-2-.36-3h-4.63V48.15Z"/><g class="cls-2"><path class="cls-3" d="M1.11,28.76c-.54-.26-.57-.42-.57-1.44,0-1.9.15-3.42.19-4,0-.42.11-.61.3-.61s.27.12.27.42a7,7,0,0,0,.11,1.41C2,27.32,4.49,28.38,7,28.38a5.07,5.07,0,0,0,5.44-5.05c0-2.62-1.11-4.14-4.37-6.84L6.39,15.08c-4-3.3-4.94-5.66-4.94-8.24C1.45,2.77,4.49,0,9.31,0a14.7,14.7,0,0,1,3.54.38,6.29,6.29,0,0,0,1.33.19c.3,0,.38.08.38.27s-.16,1.44-.16,4c0,.61-.07.88-.26.88s-.27-.19-.31-.5a6.42,6.42,0,0,0-.49-1.9c-.23-.41-1.25-2-4.75-2C6,1.33,3.92,3,3.92,5.74c0,2.16,1,3.53,4.63,6.38L9.62,13c4.48,3.53,5.54,5.89,5.54,8.92a7.85,7.85,0,0,1-3.23,6.31,10,10,0,0,1-5.73,1.6A11.49,11.49,0,0,1,1.11,28.76Z"/><path class="cls-3" d="M38.12,0c8.54,0,14.93,5.4,14.93,14.25,0,8.51-6,15.54-15.16,15.54-10.41,0-14.74-8.1-14.74-14.93C23.15,8.7,27.63,0,38.12,0Zm.79,28.34c3.42,0,10.49-2,10.49-13,0-9.12-5.55-14-11.55-14-6.35,0-11.1,4.18-11.1,12.5C26.75,22.64,32.07,28.34,38.91,28.34Z"/><path class="cls-4" d="M67.72,18.31c0,5.59.15,8,.83,8.7s1.6.88,4.56.88c2,0,3.69,0,4.6-1.14a5.45,5.45,0,0,0,1-2.28c0-.31.11-.5.34-.5s.23.16.23.57a24.68,24.68,0,0,1-.57,3.8c-.27.88-.38,1-2.4,1-2.73,0-4.71-.08-6.3-.11s-2.78-.12-3.88-.12c-.15,0-.8,0-1.56,0s-1.59.08-2.16.08-.61-.08-.61-.31.08-.23.31-.23a5.48,5.48,0,0,0,1.13-.15c.76-.15,1-1,1.11-2.09.19-1.59.19-4.6.19-8.24V11.55c0-5.93,0-7-.08-8.21s-.38-1.9-1.63-2.16a6.83,6.83,0,0,0-1.3-.12c-.15,0-.3-.07-.3-.22s.19-.31.61-.31c1.71,0,4.1.12,4.29.12s3-.12,4.11-.12c.41,0,.6.08.6.31s-.15.22-.3.22a8.33,8.33,0,0,0-1.25.12c-1.11.19-1.41.83-1.49,2.16s-.07,2.28-.07,8.21Z"/><path class="cls-5" d="M94.77,1.48C95.23.23,95.38,0,95.61,0s.38.19.83,1.37C97,2.81,103,18.5,105.3,24.28c1.37,3.38,2.47,4,3.27,4.22a4.85,4.85,0,0,0,1.51.22c.23,0,.38,0,.38.23s-.34.31-.75.31c-.57,0-3.35,0-6-.08-.72,0-1.14,0-1.14-.27s.11-.22.27-.26.45-.42.22-1l-3.53-9.34a.33.33,0,0,0-.34-.23H91.05a.4.4,0,0,0-.38.3l-2.28,6.73a8.06,8.06,0,0,0-.53,2.54c0,.76.8,1.1,1.44,1.1h.38c.27,0,.38.08.38.23s-.23.31-.57.31c-.91,0-2.54-.12-3-.12s-2.51.12-4.29.12c-.5,0-.73-.08-.73-.31s.16-.23.34-.23A11,11,0,0,0,83,28.65c1.74-.23,2.5-1.67,3.19-3.57Zm4,15.2c.19,0,.19-.11.16-.27L95.27,6.15q-.28-.86-.57,0L91.35,16.41c-.07.19,0,.27.12.27Z"/><path class="cls-6" d="M118.18,11.55c0-5.93,0-7-.07-8.21s-.38-1.9-1.64-2.16a6.73,6.73,0,0,0-1.29-.12c-.15,0-.3-.07-.3-.22s.19-.31.6-.31c1.71,0,4.11.12,4.3.12.42,0,3.3-.12,4.48-.12,2.4,0,4.94.23,7,1.67a6.67,6.67,0,0,1,2.63,5.17c0,2.81-1.18,5.62-4.6,8.78,3.11,4,5.7,7.37,7.9,9.72a7.84,7.84,0,0,0,4.64,2.74,9.39,9.39,0,0,0,1.48.11c.19,0,.34.12.34.23s-.23.31-.91.31H140a7.59,7.59,0,0,1-4.06-.73c-1.64-.87-3-2.73-5.13-5.58-1.6-2.09-3.38-4.64-4.14-5.62a.61.61,0,0,0-.5-.23L121.49,17c-.19,0-.27.12-.27.31v.91c0,3.64,0,6.65.19,8.24.12,1.1.34,1.94,1.48,2.09a15.67,15.67,0,0,0,1.71.15c.23,0,.31.12.31.23s-.19.31-.61.31c-2.09,0-4.48-.12-4.67-.12,0,0-2.44.12-3.58.12-.41,0-.6-.08-.6-.31s.07-.23.3-.23a5.57,5.57,0,0,0,1.14-.15c.76-.15,1-1,1.1-2.09.19-1.59.19-4.6.19-8.24Zm3,3.31a.49.49,0,0,0,.27.45,10.51,10.51,0,0,0,4,.61,4.92,4.92,0,0,0,2.85-.72c1.33-.91,2.31-3,2.31-5.85,0-4.75-2.5-7.6-6.57-7.6a11,11,0,0,0-2.54.23.45.45,0,0,0-.31.45Z"/><path class="cls-6" d="M163.74,11.55c0-5.93,0-7-.07-8.21s-.38-1.9-1.64-2.16a6.73,6.73,0,0,0-1.29-.12c-.15,0-.3-.07-.3-.22s.19-.31.61-.31c1.71,0,4.1.12,4.29.12.42,0,3.31-.12,4.48-.12,2.4,0,4.94.23,7,1.67a6.67,6.67,0,0,1,2.62,5.17c0,2.81-1.18,5.62-4.6,8.78,3.12,4,5.7,7.37,7.9,9.72a7.87,7.87,0,0,0,4.64,2.74,9.39,9.39,0,0,0,1.48.11c.19,0,.34.12.34.23s-.23.31-.91.31h-2.7a7.64,7.64,0,0,1-4.06-.73c-1.64-.87-3-2.73-5.13-5.58-1.6-2.09-3.38-4.64-4.14-5.62a.6.6,0,0,0-.5-.23L167.05,17c-.19,0-.27.12-.27.31v.91c0,3.64,0,6.65.19,8.24.12,1.1.35,1.94,1.49,2.09a15.27,15.27,0,0,0,1.71.15c.22,0,.3.12.3.23s-.19.31-.61.31c-2.09,0-4.48-.12-4.67-.12,0,0-2.43.12-3.57.12-.42,0-.61-.08-.61-.31s.07-.23.3-.23a5.57,5.57,0,0,0,1.14-.15c.76-.15,1-1,1.1-2.09.19-1.59.19-4.6.19-8.24Zm3,3.31a.49.49,0,0,0,.27.45,10.51,10.51,0,0,0,4,.61,4.9,4.9,0,0,0,2.85-.72c1.33-.91,2.32-3,2.32-5.85,0-4.75-2.51-7.6-6.58-7.6a11,11,0,0,0-2.54.23.45.45,0,0,0-.31.45Z"/><path class="cls-7" d="M194.68,11.55c0-5.93,0-7-.08-8.21s-.38-1.9-1.63-2.16a6.83,6.83,0,0,0-1.3-.12c-.15,0-.3-.07-.3-.22s.19-.31.61-.31c.87,0,1.9,0,2.73,0l1.56.08c.27,0,7.83,0,8.7,0a11.42,11.42,0,0,0,1.64-.19c.19,0,.34-.19.53-.19s.15.15.15.34-.19.72-.3,1.79c0,.38-.12,2.05-.19,2.5,0,.19-.12.42-.27.42s-.3-.19-.3-.49A4.1,4.1,0,0,0,206,3.42c-.27-.61-.65-1.06-2.7-1.29-.65-.08-4.79-.12-5.2-.12-.16,0-.23.12-.23.38V12.88c0,.27,0,.38.23.38.49,0,5.16,0,6-.08s1.44-.15,1.78-.53.42-.49.57-.49.19.07.19.3-.19.88-.3,2.13c-.08.76-.15,2.17-.15,2.43s0,.72-.27.72-.27-.15-.27-.34a3.89,3.89,0,0,0-.15-1.25c-.15-.53-.49-1.18-2-1.33-1-.12-4.79-.19-5.44-.19a.23.23,0,0,0-.26.26v3.35c0,1.29,0,5.7,0,6.49.11,2.63.68,3.12,4.4,3.12a10.86,10.86,0,0,0,3.65-.42c1-.42,1.45-1.18,1.71-2.73.08-.42.15-.57.34-.57s.23.3.23.57-.3,2.88-.49,3.68c-.27,1-.57,1-2.05,1-2.85,0-4.94-.08-6.42-.11s-2.4-.12-3-.12c-.07,0-.72,0-1.52,0s-1.63.08-2.2.08-.61-.08-.61-.31.08-.23.3-.23a5.48,5.48,0,0,0,1.14-.15c.76-.15,1-1,1.11-2.09.19-1.59.19-4.6.19-8.24Z"/><path class="cls-5" d="M228.23,18.24c0,3.64,0,6.65.19,8.24.11,1.1.34,1.94,1.48,2.09a15.47,15.47,0,0,0,1.71.15c.23,0,.3.12.3.23s-.19.31-.6.31c-2.09,0-4.49-.12-4.68-.12s-2.58.12-3.72.12c-.42,0-.61-.08-.61-.31s.08-.23.31-.23a5.66,5.66,0,0,0,1.14-.15c.76-.15.95-1,1.1-2.09.19-1.59.19-4.6.19-8.24V2.17l-5.63.07c-2.35,0-3.26.31-3.87,1.22a6.71,6.71,0,0,0-.65,1.18c-.11.3-.22.38-.38.38s-.19-.12-.19-.35.76-3.64.84-3.95.23-.72.38-.72a7,7,0,0,0,1.67.46c1.1.11,2.55.19,3,.19h14.25a15.59,15.59,0,0,0,2.7-.19c.57-.08.91-.19,1.06-.19s.19.22.19.45c0,1.14-.11,3.76-.11,4.18s-.12.5-.27.5-.26-.12-.3-.65l0-.42c-.11-1.14-1-2-4.67-2.09l-4.79-.07Z"/><path class="cls-8" d="M246.47,11.55c0-5.93,0-7-.08-8.21s-.38-1.9-1.63-2.16a6.73,6.73,0,0,0-1.29-.12c-.15,0-.31-.07-.31-.22s.19-.31.61-.31c1.71,0,4,.12,4.37.12s2.62-.12,3.76-.12c.42,0,.61.08.61.31s-.15.22-.3.22a5.27,5.27,0,0,0-1,.12c-1,.15-1.33.83-1.41,2.16s-.07,2.28-.07,8.21v5.32c0,5.47,1.21,7.83,2.84,9.38a7.45,7.45,0,0,0,5.74,2.09,8,8,0,0,0,6-2.73c1.75-2.17,2.2-5.4,2.2-9.31V11.55c0-5.93,0-7-.07-8.21s-.38-1.9-1.64-2.16a6.73,6.73,0,0,0-1.29-.12c-.15,0-.3-.07-.3-.22s.19-.31.6-.31c1.71,0,3.8.12,4,.12s2.05-.12,3.19-.12c.42,0,.61.08.61.31s-.15.22-.3.22a5.27,5.27,0,0,0-.95.12c-1,.23-1.33.83-1.41,2.16s-.08,2.28-.08,8.21v4.07c0,4.1-.45,8.66-3.49,11.36a11.15,11.15,0,0,1-7.83,2.81c-1.29,0-5.13-.15-7.82-2.7-1.87-1.79-3.31-4.45-3.31-10Z"/><path class="cls-6" d="M282.49,11.55c0-5.93,0-7-.07-8.21s-.38-1.9-1.64-2.16a6.73,6.73,0,0,0-1.29-.12c-.15,0-.3-.07-.3-.22s.19-.31.61-.31c1.7,0,4.1.12,4.29.12.42,0,3.3-.12,4.48-.12,2.4,0,4.94.23,6.95,1.67a6.64,6.64,0,0,1,2.63,5.17c0,2.81-1.18,5.62-4.6,8.78,3.12,4,5.7,7.37,7.9,9.72a7.84,7.84,0,0,0,4.64,2.74,9.39,9.39,0,0,0,1.48.11c.19,0,.34.12.34.23s-.23.31-.91.31h-2.7a7.59,7.59,0,0,1-4.06-.73c-1.64-.87-3-2.73-5.13-5.58-1.6-2.09-3.38-4.64-4.14-5.62a.61.61,0,0,0-.5-.23L285.8,17c-.19,0-.27.12-.27.31v.91c0,3.64,0,6.65.19,8.24.12,1.1.34,1.94,1.48,2.09a15.67,15.67,0,0,0,1.71.15c.23,0,.31.12.31.23s-.19.31-.61.31c-2.09,0-4.48-.12-4.67-.12s-2.44.12-3.57.12c-.42,0-.61-.08-.61-.31s.07-.23.3-.23a5.57,5.57,0,0,0,1.14-.15c.76-.15.95-1,1.1-2.09.19-1.59.19-4.6.19-8.24Zm3,3.31a.49.49,0,0,0,.27.45,10.51,10.51,0,0,0,4,.61,4.92,4.92,0,0,0,2.85-.72c1.33-.91,2.32-3,2.32-5.85,0-4.75-2.51-7.6-6.58-7.6a11,11,0,0,0-2.54.23.45.45,0,0,0-.31.45Z"/><path class="cls-9" d="M314.45,24.09c.08,3.11.46,4.1,1.48,4.41a8.23,8.23,0,0,0,1.9.22c.19,0,.31.08.31.23s-.23.31-.69.31c-2.16,0-3.68-.12-4-.12s-1.94.12-3.65.12c-.38,0-.61,0-.61-.31s.11-.23.3-.23A5.38,5.38,0,0,0,311,28.5c1-.27,1.14-1.37,1.14-4.83l0-21.77c0-1.48.11-1.9.42-1.9s.95.84,1.33,1.22c.57.64,6.23,6.76,12.08,13,3.76,4,7.9,8.66,9.12,9.91l-.42-19.3c0-2.47-.3-3.3-1.48-3.61a10.38,10.38,0,0,0-1.86-.19c-.27,0-.31-.11-.31-.26s.31-.27.76-.27c1.71,0,3.54.12,3.95.12S337.48.53,339,.53c.42,0,.69,0,.69.27s-.15.26-.42.26a3.16,3.16,0,0,0-.91.12c-1.26.26-1.41,1.1-1.41,3.38l-.07,22.26c0,2.51-.08,2.7-.35,2.7s-.76-.42-2.77-2.43c-.42-.38-5.89-6-9.92-10.3-4.4-4.75-8.7-9.53-9.91-10.9Z"/><path class="cls-10" d="M22.36,64.12a27.43,27.43,0,0,1-4.68,2.62A16.32,16.32,0,0,0,23.92,69a6.39,6.39,0,0,0-1.35,1.93c-5.31-1-8.76-3.62-10.74-7.75a19.08,19.08,0,0,1-3.41,2v2.78L14,67.11l.1,1.92L3.85,70.59l-.37-2c.76-.08,1.64-.21,2.6-.34v-2.1A31.88,31.88,0,0,1,1.3,67.5,8.39,8.39,0,0,0,0,65.73a29,29,0,0,0,8.92-2.86H.44V61h10.3V59.46h2.39V61H23.45v1.92H14a10.09,10.09,0,0,0,2.13,2.7,34.75,34.75,0,0,0,4.5-2.7ZM6,53.35H.34V51.66H2.05a10.93,10.93,0,0,0-1.5-.8A11.29,11.29,0,0,0,2.6,47l1.85.47c-.16.41-.32.83-.5,1.25H6V47H8v1.77h4.48v1.61H8v1.32h5.26v1.69H8v1.17h4.66v3.07c0,.83-.13,1.22-.73,1.48a6.58,6.58,0,0,1-2.5.26,7.36,7.36,0,0,0-.62-1.48c.75,0,1.35,0,1.59,0s.28-.08.28-.26V56.08H8v4H6v-4H3.43v3.38H1.53V54.52H6Zm0-1.69V50.34H3.15c-.29.49-.58.93-.86,1.32ZM16.72,56.6H14.53V48h2.19Zm5.77,1.15c0,1.14-.23,1.66-1,2a12.19,12.19,0,0,1-3.82.34,8.38,8.38,0,0,0-.75-2c1.29,0,2.54,0,2.93,0s.47-.13.47-.42V47.19h2.21Z"/><path class="cls-11" d="M42.74,54.65a23.09,23.09,0,0,0,9.55,10,10.92,10.92,0,0,0-1.82,2.14,25.31,25.31,0,0,1-9.21-10v6.94h4.66V66.2H41.26v4.6H38.71V66.2H34V63.75h4.75V56.84a26.31,26.31,0,0,1-9.15,10,14.7,14.7,0,0,0-1.71-2c3.77-2,7.28-6,9.41-10.22h-8.5V52.21h10V47h2.55v5.25H51.33v2.44Z"/><path class="cls-12" d="M65.34,48.13a37.77,37.77,0,0,1-2.81,5.33V70.77H60.11V56.86a28.38,28.38,0,0,1-3,3.28,17.08,17.08,0,0,0-1.46-2.52A28.15,28.15,0,0,0,63,47.35ZM76.21,68.2c1.35,0,1.53-.91,1.74-4.63a7.1,7.1,0,0,0,2.26,1c-.31,4.32-1,5.85-3.85,5.85H71.45c-2.94,0-3.8-.88-3.8-4V47.58h2.42v9.31a41.63,41.63,0,0,0,7.23-5L79,54a62.61,62.61,0,0,1-9,5.38v7.1c0,1.48.26,1.74,1.61,1.74Z"/><path class="cls-13" d="M94.61,70.18,92.4,68.1c4.87-1.8,7.15-4,7.15-10.92v-1H92.69V60a23.81,23.81,0,0,0,.13,2.52H89.93c0-.37.13-1.43.13-2.52v-3.9H87.52c-1.23,0-2.29,0-2.71.1V53.41a17.5,17.5,0,0,0,2.71.2h2.54v-3a14.87,14.87,0,0,0-.15-2.08h2.94a12.88,12.88,0,0,0-.16,2.08v3h6.86v-3a16.42,16.42,0,0,0-.13-2.26h2.94a17.58,17.58,0,0,0-.15,2.26v3h2.44a17.14,17.14,0,0,0,2.6-.15v2.75c-.42-.05-1.32-.07-2.57-.07h-2.47V57C102.21,63.73,100.7,67.45,94.61,70.18Z"/><path class="cls-14" d="M117.65,57.33h14.14c1.25,0,2.27-.1,2.92-.15V60.4c-.58,0-1.77-.13-2.92-.13H117.65c-1.43,0-3,0-3.87.13V57.18C114.63,57.23,116.25,57.33,117.65,57.33Z"/><path class="cls-15" d="M146.74,51.46v5.43a71.5,71.5,0,0,0,9.49-3,14.33,14.33,0,0,0,2.53-1.28l1.14,2.63c-.86.34-1.9.81-2.73,1.12a97.8,97.8,0,0,1-10.43,3.27V64.9c0,1.25.55,1.56,1.77,1.82a22.44,22.44,0,0,0,3.25.18,43.57,43.57,0,0,0,9-.86v3a75.55,75.55,0,0,1-9.12.52,28.59,28.59,0,0,1-4.27-.26c-2.1-.39-3.3-1.43-3.3-3.61V51.46a15.63,15.63,0,0,0-.18-2.4h3A23.2,23.2,0,0,0,146.74,51.46Zm13.73.2-1.69.73a31.77,31.77,0,0,0-2.08-3.59l1.69-.7A38.43,38.43,0,0,1,160.47,51.66Zm3-1.11-1.69.72a24.67,24.67,0,0,0-2.1-3.56l1.66-.7A29.4,29.4,0,0,1,163.46,50.55Z"/><path class="cls-16" d="M187.85,52.63A35.61,35.61,0,0,1,183.59,60,69.36,69.36,0,0,1,191,67.65l-2.29,2a57.36,57.36,0,0,0-6.89-7.59,34.12,34.12,0,0,1-10,7.49l-2.1-2.21a29.11,29.11,0,0,0,10.68-7.62,21.6,21.6,0,0,0,4.14-6.86H175c-1,0-2.42.13-2.84.15V50.1a27.1,27.1,0,0,0,2.84.19h9.64a8.23,8.23,0,0,0,2.27-.26l1.68,1.24A8.72,8.72,0,0,0,187.85,52.63Z"/><path class="cls-17" d="M226.69,50.39V65.24H224.2v-1.3h-6.61v6.89H215.1V63.94h-6.42v1.43h-2.4v-15h8.82V47h2.49v3.41Zm-18,2.31V56h6.42V52.7Zm6.42,8.92V58.19h-6.42v3.43Zm2.49-8.92V56h6.61V52.7Zm6.61,8.92V58.19h-6.61v3.43Z"/><path class="cls-12" d="M238.55,65.26c1.14,1.8,3.28,2.63,6.14,2.73s8.65,0,11.9-.18a11.36,11.36,0,0,0-.8,2.47c-2.94.13-8.17.18-11.13,0-3.3-.13-5.54-1-7.18-3-1.22,1.07-2.47,2.11-3.82,3.23l-1.25-2.5a39,39,0,0,0,3.77-2.68V59.28h-3.32V57.05h5.69Zm-1.2-12.14A19.62,19.62,0,0,0,233,49l1.8-1.45a20.31,20.31,0,0,1,4.44,4Zm11.37-5c.52,7.67,2.34,13.84,7.59,16.51a10.68,10.68,0,0,0-1.9,1.85c-3.43-2-5.43-5.38-6.6-9.59a17.85,17.85,0,0,1-6.5,9.59,15.8,15.8,0,0,0-1.9-1.82c3.69-2.29,5.8-6.24,6.76-11.39l.88.13c-.15-1-.26-2-.36-3h-4.63V48.15Z"/></g></g></g></svg>